<?xml version="1.0" encoding="UTF-8" standalone="no"?>
<!DOCTYPE svg PUBLIC "-//W3C//DTD SVG 1.1//EN"
 "http://www.w3.org/Graphics/SVG/1.1/DTD/svg11.dtd">
<!-- Generated by graphviz version 2.40.1 (20161225.0304)
 -->
<!-- Title: dependency&#45;cruiser output Pages: 1 -->
<svg width="862pt" height="753pt"
 viewBox="0.00 0.00 862.00 752.60" xmlns="http://www.w3.org/2000/svg" xmlns:xlink="http://www.w3.org/1999/xlink">
<g id="graph0" class="graph" transform="scale(1 1) rotate(0) translate(4 748.6019)">
<title>dependency&#45;cruiser output</title>
<polygon fill="#ffffff" stroke="transparent" points="-4,4 -4,-748.6019 858,-748.6019 858,4 -4,4"/>
<g id="clust1" class="cluster">
<title>cluster_src</title>
<path fill="#ffffff" stroke="#000000" stroke-width="2" d="M20,-12.6019C20,-12.6019 834,-12.6019 834,-12.6019 840,-12.6019 846,-18.6019 846,-24.6019 846,-24.6019 846,-724.6019 846,-724.6019 846,-730.6019 840,-736.6019 834,-736.6019 834,-736.6019 20,-736.6019 20,-736.6019 14,-736.6019 8,-730.6019 8,-724.6019 8,-724.6019 8,-24.6019 8,-24.6019 8,-18.6019 14,-12.6019 20,-12.6019"/>
<text text-anchor="middle" x="427" y="-725.4019" font-family="Helvetica,sans-Serif" font-weight="bold" font-size="9.00" fill="#000000">src</text>
</g>
<g id="clust2" class="cluster">
<title>cluster_src/components</title>
<path fill="#ffffff" stroke="#000000" stroke-width="2" d="M168,-22.6019C168,-22.6019 826,-22.6019 826,-22.6019 832,-22.6019 838,-28.6019 838,-34.6019 838,-34.6019 838,-396.6019 838,-396.6019 838,-402.6019 832,-408.6019 826,-408.6019 826,-408.6019 168,-408.6019 168,-408.6019 162,-408.6019 156,-402.6019 156,-396.6019 156,-396.6019 156,-34.6019 156,-34.6019 156,-28.6019 162,-22.6019 168,-22.6019"/>
<text text-anchor="middle" x="497" y="-397.4019" font-family="Helvetica,sans-Serif" font-weight="bold" font-size="9.00" fill="#000000">components</text>
</g>
<g id="clust3" class="cluster">
<title>cluster_src/components/atoms</title>
<path fill="#ffffff" stroke="#000000" stroke-width="2" d="M480,-90.6019C480,-90.6019 818,-90.6019 818,-90.6019 824,-90.6019 830,-96.6019 830,-102.6019 830,-102.6019 830,-160.6019 830,-160.6019 830,-166.6019 824,-172.6019 818,-172.6019 818,-172.6019 480,-172.6019 480,-172.6019 474,-172.6019 468,-166.6019 468,-160.6019 468,-160.6019 468,-102.6019 468,-102.6019 468,-96.6019 474,-90.6019 480,-90.6019"/>
<text text-anchor="middle" x="649" y="-161.4019" font-family="Helvetica,sans-Serif" font-weight="bold" font-size="9.00" fill="#000000">atoms</text>
</g>
<g id="clust4" class="cluster">
<title>cluster_src/components/content</title>
<path fill="#ffffff" stroke="#000000" stroke-width="2" d="M347.5,-300.6019C347.5,-300.6019 559,-300.6019 559,-300.6019 565,-300.6019 571,-306.6019 571,-312.6019 571,-312.6019 571,-370.6019 571,-370.6019 571,-376.6019 565,-382.6019 559,-382.6019 559,-382.6019 347.5,-382.6019 347.5,-382.6019 341.5,-382.6019 335.5,-376.6019 335.5,-370.6019 335.5,-370.6019 335.5,-312.6019 335.5,-312.6019 335.5,-306.6019 341.5,-300.6019 347.5,-300.6019"/>
<text text-anchor="middle" x="453.25" y="-371.4019" font-family="Helvetica,sans-Serif" font-weight="bold" font-size="9.00" fill="#000000">content</text>
</g>
<g id="clust5" class="cluster">
<title>cluster_src/components/embeddeds</title>
<path fill="#ffffff" stroke="#000000" stroke-width="2" d="M191.5,-330.6019C191.5,-330.6019 254.5,-330.6019 254.5,-330.6019 260.5,-330.6019 266.5,-336.6019 266.5,-342.6019 266.5,-342.6019 266.5,-370.6019 266.5,-370.6019 266.5,-376.6019 260.5,-382.6019 254.5,-382.6019 254.5,-382.6019 191.5,-382.6019 191.5,-382.6019 185.5,-382.6019 179.5,-376.6019 179.5,-370.6019 179.5,-370.6019 179.5,-342.6019 179.5,-342.6019 179.5,-336.6019 185.5,-330.6019 191.5,-330.6019"/>
<text text-anchor="middle" x="223" y="-371.4019" font-family="Helvetica,sans-Serif" font-weight="bold" font-size="9.00" fill="#000000">embeddeds</text>
</g>
<g id="clust6" class="cluster">
<title>cluster_src/components/layout</title>
<path fill="#ffffff" stroke="#000000" stroke-width="2" d="M196.5,-270.6019C196.5,-270.6019 249.5,-270.6019 249.5,-270.6019 255.5,-270.6019 261.5,-276.6019 261.5,-282.6019 261.5,-282.6019 261.5,-310.6019 261.5,-310.6019 261.5,-316.6019 255.5,-322.6019 249.5,-322.6019 249.5,-322.6019 196.5,-322.6019 196.5,-322.6019 190.5,-322.6019 184.5,-316.6019 184.5,-310.6019 184.5,-310.6019 184.5,-282.6019 184.5,-282.6019 184.5,-276.6019 190.5,-270.6019 196.5,-270.6019"/>
<text text-anchor="middle" x="223" y="-311.4019" font-family="Helvetica,sans-Serif" font-weight="bold" font-size="9.00" fill="#000000">layout</text>
</g>
<g id="clust7" class="cluster">
<title>cluster_src/components/organisms</title>
<path fill="#ffffff" stroke="#000000" stroke-width="2" d="M193,-210.6019C193,-210.6019 253,-210.6019 253,-210.6019 259,-210.6019 265,-216.6019 265,-222.6019 265,-222.6019 265,-250.6019 265,-250.6019 265,-256.6019 259,-262.6019 253,-262.6019 253,-262.6019 193,-262.6019 193,-262.6019 187,-262.6019 181,-256.6019 181,-250.6019 181,-250.6019 181,-222.6019 181,-222.6019 181,-216.6019 187,-210.6019 193,-210.6019"/>
<text text-anchor="middle" x="223" y="-251.4019" font-family="Helvetica,sans-Serif" font-weight="bold" font-size="9.00" fill="#000000">organisms</text>
</g>
<g id="clust8" class="cluster">
<title>cluster_src/components/post&#45;link</title>
<path fill="#ffffff" stroke="#000000" stroke-width="2" d="M341,-240.6019C341,-240.6019 559,-240.6019 559,-240.6019 565,-240.6019 571,-246.6019 571,-252.6019 571,-252.6019 571,-280.6019 571,-280.6019 571,-286.6019 565,-292.6019 559,-292.6019 559,-292.6019 341,-292.6019 341,-292.6019 335,-292.6019 329,-286.6019 329,-280.6019 329,-280.6019 329,-252.6019 329,-252.6019 329,-246.6019 335,-240.6019 341,-240.6019"/>
<text text-anchor="middle" x="450" y="-281.4019" font-family="Helvetica,sans-Serif" font-weight="bold" font-size="9.00" fill="#000000">post&#45;link</text>
</g>
<g id="clust9" class="cluster">
<title>cluster_src/components/sidebar</title>
<path fill="#ffffff" stroke="#000000" stroke-width="2" d="M344,-30.6019C344,-30.6019 691.5,-30.6019 691.5,-30.6019 697.5,-30.6019 703.5,-36.6019 703.5,-42.6019 703.5,-42.6019 703.5,-70.6019 703.5,-70.6019 703.5,-76.6019 697.5,-82.6019 691.5,-82.6019 691.5,-82.6019 344,-82.6019 344,-82.6019 338,-82.6019 332,-76.6019 332,-70.6019 332,-70.6019 332,-42.6019 332,-42.6019 332,-36.6019 338,-30.6019 344,-30.6019"/>
<text text-anchor="middle" x="517.75" y="-71.4019" font-family="Helvetica,sans-Serif" font-weight="bold" font-size="9.00" fill="#000000">sidebar</text>
</g>
<g id="clust10" class="cluster">
<title>cluster_src/components/table&#45;of&#45;contents</title>
<path fill="#ffffff" stroke="#000000" stroke-width="2" d="M491,-180.6019C491,-180.6019 572,-180.6019 572,-180.6019 578,-180.6019 584,-186.6019 584,-192.6019 584,-192.6019 584,-220.6019 584,-220.6019 584,-226.6019 578,-232.6019 572,-232.6019 572,-232.6019 491,-232.6019 491,-232.6019 485,-232.6019 479,-226.6019 479,-220.6019 479,-220.6019 479,-192.6019 479,-192.6019 479,-186.6019 485,-180.6019 491,-180.6019"/>
<text text-anchor="middle" x="531.5" y="-221.4019" font-family="Helvetica,sans-Serif" font-weight="bold" font-size="9.00" fill="#000000">table&#45;of&#45;contents</text>
</g>
<g id="clust11" class="cluster">
<title>cluster_src/components/types</title>
<path fill="#ffffff" stroke="#000000" stroke-width="2" d="M176,-150.6019C176,-150.6019 270,-150.6019 270,-150.6019 276,-150.6019 282,-156.6019 282,-162.6019 282,-162.6019 282,-190.6019 282,-190.6019 282,-196.6019 276,-202.6019 270,-202.6019 270,-202.6019 176,-202.6019 176,-202.6019 170,-202.6019 164,-196.6019 164,-190.6019 164,-190.6019 164,-162.6019 164,-162.6019 164,-156.6019 170,-150.6019 176,-150.6019"/>
<text text-anchor="middle" x="223" y="-191.4019" font-family="Helvetica,sans-Serif" font-weight="bold" font-size="9.00" fill="#000000">types</text>
</g>
<g id="clust12" class="cluster">
<title>cluster_src/gatsby&#45;node</title>
<path fill="#ffffff" stroke="#000000" stroke-width="2" d="M344.5,-648.6019C344.5,-648.6019 401.5,-648.6019 401.5,-648.6019 407.5,-648.6019 413.5,-654.6019 413.5,-660.6019 413.5,-660.6019 413.5,-688.6019 413.5,-688.6019 413.5,-694.6019 407.5,-700.6019 401.5,-700.6019 401.5,-700.6019 344.5,-700.6019 344.5,-700.6019 338.5,-700.6019 332.5,-694.6019 332.5,-688.6019 332.5,-688.6019 332.5,-660.6019 332.5,-660.6019 332.5,-654.6019 338.5,-648.6019 344.5,-648.6019"/>
<text text-anchor="middle" x="373" y="-689.4019" font-family="Helvetica,sans-Serif" font-weight="bold" font-size="9.00" fill="#000000">gatsby&#45;node</text>
</g>
<g id="clust13" class="cluster">
<title>cluster_src/images</title>
<path fill="#ffffff" stroke="#000000" stroke-width="2" d="M348.5,-416.6019C348.5,-416.6019 396.5,-416.6019 396.5,-416.6019 402.5,-416.6019 408.5,-422.6019 408.5,-428.6019 408.5,-428.6019 408.5,-456.6019 408.5,-456.6019 408.5,-462.6019 402.5,-468.6019 396.5,-468.6019 396.5,-468.6019 348.5,-468.6019 348.5,-468.6019 342.5,-468.6019 336.5,-462.6019 336.5,-456.6019 336.5,-456.6019 336.5,-428.6019 336.5,-428.6019 336.5,-422.6019 342.5,-416.6019 348.5,-416.6019"/>
<text text-anchor="middle" x="372.5" y="-457.4019" font-family="Helvetica,sans-Serif" font-weight="bold" font-size="9.00" fill="#000000">images</text>
</g>
<g id="clust14" class="cluster">
<title>cluster_src/libs</title>
<path fill="#ffffff" stroke="#000000" stroke-width="2" d="M496.5,-536.6019C496.5,-536.6019 686.5,-536.6019 686.5,-536.6019 692.5,-536.6019 698.5,-542.6019 698.5,-548.6019 698.5,-548.6019 698.5,-666.6019 698.5,-666.6019 698.5,-672.6019 692.5,-678.6019 686.5,-678.6019 686.5,-678.6019 496.5,-678.6019 496.5,-678.6019 490.5,-678.6019 484.5,-672.6019 484.5,-666.6019 484.5,-666.6019 484.5,-548.6019 484.5,-548.6019 484.5,-542.6019 490.5,-536.6019 496.5,-536.6019"/>
<text text-anchor="middle" x="591.5" y="-667.4019" font-family="Helvetica,sans-Serif" font-weight="bold" font-size="9.00" fill="#000000">libs</text>
</g>
<g id="clust15" class="cluster">
<title>cluster_src/pages</title>
<path fill="#ffffff" stroke="#000000" stroke-width="2" d="M57,-315.6019C57,-315.6019 107,-315.6019 107,-315.6019 113,-315.6019 119,-321.6019 119,-327.6019 119,-327.6019 119,-415.6019 119,-415.6019 119,-421.6019 113,-427.6019 107,-427.6019 107,-427.6019 57,-427.6019 57,-427.6019 51,-427.6019 45,-421.6019 45,-415.6019 45,-415.6019 45,-327.6019 45,-327.6019 45,-321.6019 51,-315.6019 57,-315.6019"/>
<text text-anchor="middle" x="82" y="-416.4019" font-family="Helvetica,sans-Serif" font-weight="bold" font-size="9.00" fill="#000000">pages</text>
</g>
<g id="clust16" class="cluster">
<title>cluster_src/state</title>
<path fill="#ffffff" stroke="#000000" stroke-width="2" d="M59,-624.6019C59,-624.6019 254,-624.6019 254,-624.6019 260,-624.6019 266,-630.6019 266,-636.6019 266,-636.6019 266,-698.6019 266,-698.6019 266,-704.6019 260,-710.6019 254,-710.6019 254,-710.6019 59,-710.6019 59,-710.6019 53,-710.6019 47,-704.6019 47,-698.6019 47,-698.6019 47,-636.6019 47,-636.6019 47,-630.6019 53,-624.6019 59,-624.6019"/>
<text text-anchor="middle" x="156.5" y="-699.4019" font-family="Helvetica,sans-Serif" font-weight="bold" font-size="9.00" fill="#000000">state</text>
</g>
<g id="clust17" class="cluster">
<title>cluster_src/state/ui</title>
<path fill="#ffffff" stroke="#000000" stroke-width="2" d="M200,-632.6019C200,-632.6019 246,-632.6019 246,-632.6019 252,-632.6019 258,-638.6019 258,-644.6019 258,-644.6019 258,-672.6019 258,-672.6019 258,-678.6019 252,-684.6019 246,-684.6019 246,-684.6019 200,-684.6019 200,-684.6019 194,-684.6019 188,-678.6019 188,-672.6019 188,-672.6019 188,-644.6019 188,-644.6019 188,-638.6019 194,-632.6019 200,-632.6019"/>
<text text-anchor="middle" x="223" y="-673.4019" font-family="Helvetica,sans-Serif" font-weight="bold" font-size="9.00" fill="#000000">ui</text>
</g>
<g id="clust18" class="cluster">
<title>cluster_src/styles</title>
<path fill="#ffffff" stroke="#000000" stroke-width="2" d="M623,-416.6019C623,-416.6019 813.5,-416.6019 813.5,-416.6019 819.5,-416.6019 825.5,-422.6019 825.5,-428.6019 825.5,-428.6019 825.5,-516.6019 825.5,-516.6019 825.5,-522.6019 819.5,-528.6019 813.5,-528.6019 813.5,-528.6019 623,-528.6019 623,-528.6019 617,-528.6019 611,-522.6019 611,-516.6019 611,-516.6019 611,-428.6019 611,-428.6019 611,-422.6019 617,-416.6019 623,-416.6019"/>
<text text-anchor="middle" x="718.25" y="-517.4019" font-family="Helvetica,sans-Serif" font-weight="bold" font-size="9.00" fill="#000000">styles</text>
</g>
<g id="clust19" class="cluster">
<title>cluster_src/templates</title>
<path fill="#ffffff" stroke="#000000" stroke-width="2" d="M28,-165.6019C28,-165.6019 136,-165.6019 136,-165.6019 142,-165.6019 148,-171.6019 148,-177.6019 148,-177.6019 148,-295.6019 148,-295.6019 148,-301.6019 142,-307.6019 136,-307.6019 136,-307.6019 28,-307.6019 28,-307.6019 22,-307.6019 16,-301.6019 16,-295.6019 16,-295.6019 16,-177.6019 16,-177.6019 16,-171.6019 22,-165.6019 28,-165.6019"/>
<text text-anchor="middle" x="82" y="-296.4019" font-family="Helvetica,sans-Serif" font-weight="bold" font-size="9.00" fill="#000000">templates</text>
</g>
<g id="clust20" class="cluster">
<title>cluster_src/tests</title>
<path fill="#ffffff" stroke="#000000" stroke-width="2" d="M302,-486.6019C302,-486.6019 443,-486.6019 443,-486.6019 449,-486.6019 455,-492.6019 455,-498.6019 455,-498.6019 455,-590.6019 455,-590.6019 455,-596.6019 449,-602.6019 443,-602.6019 443,-602.6019 302,-602.6019 302,-602.6019 296,-602.6019 290,-596.6019 290,-590.6019 290,-590.6019 290,-498.6019 290,-498.6019 290,-492.6019 296,-486.6019 302,-486.6019"/>
<text text-anchor="middle" x="372.5" y="-591.4019" font-family="Helvetica,sans-Serif" font-weight="bold" font-size="9.00" fill="#000000">tests</text>
</g>
<g id="clust21" class="cluster">
<title>cluster_src/tests/libs</title>
<path fill="#ffffff" stroke="#000000" stroke-width="2" d="M310,-494.6019C310,-494.6019 435,-494.6019 435,-494.6019 441,-494.6019 447,-500.6019 447,-506.6019 447,-506.6019 447,-564.6019 447,-564.6019 447,-570.6019 441,-576.6019 435,-576.6019 435,-576.6019 310,-576.6019 310,-576.6019 304,-576.6019 298,-570.6019 298,-564.6019 298,-564.6019 298,-506.6019 298,-506.6019 298,-500.6019 304,-494.6019 310,-494.6019"/>
<text text-anchor="middle" x="372.5" y="-565.4019" font-family="Helvetica,sans-Serif" font-weight="bold" font-size="9.00" fill="#000000">libs</text>
</g>
<g id="clust22" class="cluster">
<title>cluster_src/utils</title>
<path fill="#ffffff" stroke="#000000" stroke-width="2" d="M45.5,-40.6019C45.5,-40.6019 118.5,-40.6019 118.5,-40.6019 124.5,-40.6019 130.5,-46.6019 130.5,-52.6019 130.5,-52.6019 130.5,-110.6019 130.5,-110.6019 130.5,-116.6019 124.5,-122.6019 118.5,-122.6019 118.5,-122.6019 45.5,-122.6019 45.5,-122.6019 39.5,-122.6019 33.5,-116.6019 33.5,-110.6019 33.5,-110.6019 33.5,-52.6019 33.5,-52.6019 33.5,-46.6019 39.5,-40.6019 45.5,-40.6019"/>
<text text-anchor="middle" x="82" y="-111.4019" font-family="Helvetica,sans-Serif" font-weight="bold" font-size="9.00" fill="#000000">utils</text>
</g>
<!-- src/components/atoms/AnchorOrLink.tsx -->
<g id="node1" class="node">
<title>src/components/atoms/AnchorOrLink.tsx</title>
<g id="a_node1"><a xlink:href="src/components/atoms/AnchorOrLink.tsx" xlink:title="AnchorOrLink.tsx">
<path fill="#bbfeff" stroke="#000000" d="M816,-131.6019C816,-131.6019 733,-131.6019 733,-131.6019 730,-131.6019 727,-128.6019 727,-125.6019 727,-125.6019 727,-119.6019 727,-119.6019 727,-116.6019 730,-113.6019 733,-113.6019 733,-113.6019 816,-113.6019 816,-113.6019 819,-113.6019 822,-116.6019 822,-119.6019 822,-119.6019 822,-125.6019 822,-125.6019 822,-128.6019 819,-131.6019 816,-131.6019"/>
<text text-anchor="middle" x="774.5" y="-120.4019" font-family="Helvetica,sans-Serif" font-size="9.00" fill="#000000">AnchorOrLink.tsx</text>
</a>
</g>
</g>
<!-- src/components/atoms/Colorized.tsx -->
<g id="node2" class="node">
<title>src/components/atoms/Colorized.tsx</title>
<g id="a_node2"><a xlink:href="src/components/atoms/Colorized.tsx" xlink:title="Colorized.tsx">
<path fill="#bbfeff" stroke="#000000" d="M562,-116.6019C562,-116.6019 500,-116.6019 500,-116.6019 497,-116.6019 494,-113.6019 494,-110.6019 494,-110.6019 494,-104.6019 494,-104.6019 494,-101.6019 497,-98.6019 500,-98.6019 500,-98.6019 562,-98.6019 562,-98.6019 565,-98.6019 568,-101.6019 568,-104.6019 568,-104.6019 568,-110.6019 568,-110.6019 568,-113.6019 565,-116.6019 562,-116.6019"/>
<text text-anchor="middle" x="531" y="-105.4019" font-family="Helvetica,sans-Serif" font-size="9.00" fill="#000000">Colorized.tsx</text>
</a>
</g>
</g>
<!-- src/styles/colorScheme.ts -->
<g id="node3" class="node">
<title>src/styles/colorScheme.ts</title>
<g id="a_node3"><a xlink:href="src/styles/colorScheme.ts" xlink:title="colorScheme.ts">
<path fill="#ddfeff" stroke="#000000" d="M811.5,-442.6019C811.5,-442.6019 737.5,-442.6019 737.5,-442.6019 734.5,-442.6019 731.5,-439.6019 731.5,-436.6019 731.5,-436.6019 731.5,-430.6019 731.5,-430.6019 731.5,-427.6019 734.5,-424.6019 737.5,-424.6019 737.5,-424.6019 811.5,-424.6019 811.5,-424.6019 814.5,-424.6019 817.5,-427.6019 817.5,-430.6019 817.5,-430.6019 817.5,-436.6019 817.5,-436.6019 817.5,-439.6019 814.5,-442.6019 811.5,-442.6019"/>
<text text-anchor="middle" x="774.5" y="-431.4019" font-family="Helvetica,sans-Serif" font-size="9.00" fill="#000000">colorScheme.ts</text>
</a>
</g>
</g>
<!-- src/components/atoms/Colorized.tsx&#45;&gt;src/styles/colorScheme.ts -->
<g id="edge1" class="edge">
<title>src/components/atoms/Colorized.tsx&#45;&gt;src/styles/colorScheme.ts</title>
<path fill="none" stroke="#000000" stroke-width="2" stroke-opacity="0.200000" d="M568.0122,-113.5291C574.4147,-115.6794 580.7053,-118.6095 586,-122.6019 613.8414,-143.5951 734.0018,-359.9484 766.4167,-418.86"/>
<polygon fill="#000000" fill-opacity="0.200000" stroke="#000000" stroke-width="2" stroke-opacity="0.200000" points="764.7083,-420.1116 769.4387,-424.3583 768.389,-418.0886 764.7083,-420.1116"/>
</g>
<!-- src/components/atoms/MDXComponents.tsx -->
<g id="node4" class="node">
<title>src/components/atoms/MDXComponents.tsx</title>
<g id="a_node4"><a xlink:href="src/components/atoms/MDXComponents.tsx" xlink:title="MDXComponents.tsx">
<path fill="#bbfeff" stroke="#000000" d="M580,-146.6019C580,-146.6019 482,-146.6019 482,-146.6019 479,-146.6019 476,-143.6019 476,-140.6019 476,-140.6019 476,-134.6019 476,-134.6019 476,-131.6019 479,-128.6019 482,-128.6019 482,-128.6019 580,-128.6019 580,-128.6019 583,-128.6019 586,-131.6019 586,-134.6019 586,-134.6019 586,-140.6019 586,-140.6019 586,-143.6019 583,-146.6019 580,-146.6019"/>
<text text-anchor="middle" x="531" y="-135.4019" font-family="Helvetica,sans-Serif" font-size="9.00" fill="#000000">MDXComponents.tsx</text>
</a>
</g>
</g>
<!-- src/styles/styleValues.ts -->
<g id="node5" class="node">
<title>src/styles/styleValues.ts</title>
<g id="a_node5"><a xlink:href="src/styles/styleValues.ts" xlink:title="styleValues.ts">
<path fill="#ddfeff" stroke="#000000" d="M696,-442.6019C696,-442.6019 631,-442.6019 631,-442.6019 628,-442.6019 625,-439.6019 625,-436.6019 625,-436.6019 625,-430.6019 625,-430.6019 625,-427.6019 628,-424.6019 631,-424.6019 631,-424.6019 696,-424.6019 696,-424.6019 699,-424.6019 702,-427.6019 702,-430.6019 702,-430.6019 702,-436.6019 702,-436.6019 702,-439.6019 699,-442.6019 696,-442.6019"/>
<text text-anchor="middle" x="663.5" y="-431.4019" font-family="Helvetica,sans-Serif" font-size="9.00" fill="#000000">styleValues.ts</text>
</a>
</g>
</g>
<!-- src/components/atoms/MDXComponents.tsx&#45;&gt;src/styles/styleValues.ts -->
<g id="edge2" class="edge">
<title>src/components/atoms/MDXComponents.tsx&#45;&gt;src/styles/styleValues.ts</title>
<path fill="none" stroke="#000000" stroke-width="2" stroke-opacity="0.200000" d="M549.4958,-146.6402C561.6461,-153.5071 576.919,-164.0737 586,-177.6019 612.014,-216.3555 597.9013,-234.8024 611,-279.6019 626.0445,-331.0563 647.6364,-390.8574 657.7995,-418.3504"/>
<polygon fill="#000000" fill-opacity="0.200000" stroke="#000000" stroke-width="2" stroke-opacity="0.200000" points="655.958,-419.4241 660.0142,-424.3187 659.8956,-417.9629 655.958,-419.4241"/>
</g>
<!-- src/components/atoms/SwipingAnchor.tsx -->
<g id="node6" class="node">
<title>src/components/atoms/SwipingAnchor.tsx</title>
<g id="a_node6"><a xlink:href="src/components/atoms/SwipingAnchor.tsx" xlink:title="SwipingAnchor.tsx">
<path fill="#bbfeff" stroke="#000000" d="M708,-146.6019C708,-146.6019 619,-146.6019 619,-146.6019 616,-146.6019 613,-143.6019 613,-140.6019 613,-140.6019 613,-134.6019 613,-134.6019 613,-131.6019 616,-128.6019 619,-128.6019 619,-128.6019 708,-128.6019 708,-128.6019 711,-128.6019 714,-131.6019 714,-134.6019 714,-134.6019 714,-140.6019 714,-140.6019 714,-143.6019 711,-146.6019 708,-146.6019"/>
<text text-anchor="middle" x="663.5" y="-135.4019" font-family="Helvetica,sans-Serif" font-size="9.00" fill="#000000">SwipingAnchor.tsx</text>
</a>
</g>
</g>
<!-- src/components/atoms/MDXComponents.tsx&#45;&gt;src/components/atoms/SwipingAnchor.tsx -->
<g id="edge3" class="edge">
<title>src/components/atoms/MDXComponents.tsx&#45;&gt;src/components/atoms/SwipingAnchor.tsx</title>
<path fill="none" stroke="#000000" stroke-width="2" stroke-opacity="0.200000" d="M586.0408,-137.6019C592.7911,-137.6019 599.7012,-137.6019 606.4799,-137.6019"/>
<polygon fill="#000000" fill-opacity="0.200000" stroke="#000000" stroke-width="2" stroke-opacity="0.200000" points="606.6599,-139.702 612.6599,-137.6019 606.6598,-135.502 606.6599,-139.702"/>
</g>
<!-- src/styles/styleValues.ts&#45;&gt;src/styles/colorScheme.ts -->
<g id="edge41" class="edge">
<title>src/styles/styleValues.ts&#45;&gt;src/styles/colorScheme.ts</title>
<path fill="none" stroke="#000000" stroke-width="2" stroke-opacity="0.200000" d="M702.0109,-433.6019C709.3487,-433.6019 717.125,-433.6019 724.7547,-433.6019"/>
<polygon fill="#000000" fill-opacity="0.200000" stroke="#000000" stroke-width="2" stroke-opacity="0.200000" points="725.1163,-435.702 731.1163,-433.6019 725.1163,-431.502 725.1163,-435.702"/>
</g>
<!-- src/components/atoms/SwipingAnchor.tsx&#45;&gt;src/components/atoms/AnchorOrLink.tsx -->
<g id="edge5" class="edge">
<title>src/components/atoms/SwipingAnchor.tsx&#45;&gt;src/components/atoms/AnchorOrLink.tsx</title>
<path fill="none" stroke="#000000" stroke-width="2" stroke-opacity="0.200000" d="M714.1277,-130.7603C716.3755,-130.4565 718.634,-130.1513 720.8884,-129.8467"/>
<polygon fill="#000000" fill-opacity="0.200000" stroke="#000000" stroke-width="2" stroke-opacity="0.200000" points="721.1713,-131.9276 726.836,-129.043 720.6087,-127.7655 721.1713,-131.9276"/>
</g>
<!-- src/components/atoms/SwipingAnchor.tsx&#45;&gt;src/styles/styleValues.ts -->
<g id="edge4" class="edge">
<title>src/components/atoms/SwipingAnchor.tsx&#45;&gt;src/styles/styleValues.ts</title>
<path fill="none" stroke="#000000" stroke-width="2" stroke-opacity="0.200000" d="M663.5,-146.8519C663.5,-237.2772 663.5,-327.7025 663.5,-418.1278"/>
<polygon fill="#000000" fill-opacity="0.200000" stroke="#000000" stroke-width="2" stroke-opacity="0.200000" points="661.4001,-418.3609 663.5,-424.3609 665.6001,-418.3609 661.4001,-418.3609"/>
</g>
<!-- src/components/content/footer.tsx -->
<g id="node7" class="node">
<title>src/components/content/footer.tsx</title>
<g id="a_node7"><a xlink:href="src/components/content/footer.tsx" xlink:title="footer.tsx">
<path fill="#bbfeff" stroke="#000000" d="M554.5,-326.6019C554.5,-326.6019 507.5,-326.6019 507.5,-326.6019 504.5,-326.6019 501.5,-323.6019 501.5,-320.6019 501.5,-320.6019 501.5,-314.6019 501.5,-314.6019 501.5,-311.6019 504.5,-308.6019 507.5,-308.6019 507.5,-308.6019 554.5,-308.6019 554.5,-308.6019 557.5,-308.6019 560.5,-311.6019 560.5,-314.6019 560.5,-314.6019 560.5,-320.6019 560.5,-320.6019 560.5,-323.6019 557.5,-326.6019 554.5,-326.6019"/>
<text text-anchor="middle" x="531" y="-315.4019" font-family="Helvetica,sans-Serif" font-size="9.00" fill="#000000">footer.tsx</text>
</a>
</g>
</g>
<!-- src/components/content/header.tsx -->
<g id="node8" class="node">
<title>src/components/content/header.tsx</title>
<g id="a_node8"><a xlink:href="src/components/content/header.tsx" xlink:title="header.tsx">
<path fill="#bbfeff" stroke="#000000" d="M557,-356.6019C557,-356.6019 505,-356.6019 505,-356.6019 502,-356.6019 499,-353.6019 499,-350.6019 499,-350.6019 499,-344.6019 499,-344.6019 499,-341.6019 502,-338.6019 505,-338.6019 505,-338.6019 557,-338.6019 557,-338.6019 560,-338.6019 563,-341.6019 563,-344.6019 563,-344.6019 563,-350.6019 563,-350.6019 563,-353.6019 560,-356.6019 557,-356.6019"/>
<text text-anchor="middle" x="531" y="-345.4019" font-family="Helvetica,sans-Serif" font-size="9.00" fill="#000000">header.tsx</text>
</a>
</g>
</g>
<!-- src/components/content/header.tsx&#45;&gt;src/styles/styleValues.ts -->
<g id="edge7" class="edge">
<title>src/components/content/header.tsx&#45;&gt;src/styles/styleValues.ts</title>
<path fill="none" stroke="#000000" stroke-width="2" stroke-opacity="0.200000" d="M545.1798,-356.8054C569.0884,-372.3234 617.4386,-403.7054 644.3412,-421.1667"/>
<polygon fill="#000000" fill-opacity="0.200000" stroke="#000000" stroke-width="2" stroke-opacity="0.200000" points="643.246,-422.9594 649.4221,-424.4645 645.5326,-419.4364 643.246,-422.9594"/>
</g>
<!-- src/libs/date.ts -->
<g id="node9" class="node">
<title>src/libs/date.ts</title>
<g id="a_node9"><a xlink:href="src/libs/date.ts" xlink:title="date.ts">
<path fill="#ddfeff" stroke="#000000" d="M684.5,-607.6019C684.5,-607.6019 642.5,-607.6019 642.5,-607.6019 639.5,-607.6019 636.5,-604.6019 636.5,-601.6019 636.5,-601.6019 636.5,-595.6019 636.5,-595.6019 636.5,-592.6019 639.5,-589.6019 642.5,-589.6019 642.5,-589.6019 684.5,-589.6019 684.5,-589.6019 687.5,-589.6019 690.5,-592.6019 690.5,-595.6019 690.5,-595.6019 690.5,-601.6019 690.5,-601.6019 690.5,-604.6019 687.5,-607.6019 684.5,-607.6019"/>
<text text-anchor="middle" x="663.5" y="-596.4019" font-family="Helvetica,sans-Serif" font-size="9.00" fill="#000000">date.ts</text>
</a>
</g>
</g>
<!-- src/components/content/header.tsx&#45;&gt;src/libs/date.ts -->
<g id="edge6" class="edge">
<title>src/components/content/header.tsx&#45;&gt;src/libs/date.ts</title>
<path fill="none" stroke="#000000" stroke-width="2" stroke-opacity="0.200000" d="M534.0592,-356.8066C543.4262,-384.4069 573.3768,-468.4636 611,-531.6019 622.6199,-551.1021 639.1974,-571.3236 650.5993,-584.3798"/>
<polygon fill="#000000" fill-opacity="0.200000" stroke="#000000" stroke-width="2" stroke-opacity="0.200000" points="649.2959,-586.0763 654.8426,-589.182 652.4433,-583.2952 649.2959,-586.0763"/>
</g>
<!-- src/components/content/index.tsx -->
<g id="node10" class="node">
<title>src/components/content/index.tsx</title>
<g id="a_node10"><a xlink:href="src/components/content/index.tsx" xlink:title="index.tsx">
<path fill="#bbfeff" stroke="#000000" d="M395.5,-326.6019C395.5,-326.6019 349.5,-326.6019 349.5,-326.6019 346.5,-326.6019 343.5,-323.6019 343.5,-320.6019 343.5,-320.6019 343.5,-314.6019 343.5,-314.6019 343.5,-311.6019 346.5,-308.6019 349.5,-308.6019 349.5,-308.6019 395.5,-308.6019 395.5,-308.6019 398.5,-308.6019 401.5,-311.6019 401.5,-314.6019 401.5,-314.6019 401.5,-320.6019 401.5,-320.6019 401.5,-323.6019 398.5,-326.6019 395.5,-326.6019"/>
<text text-anchor="middle" x="372.5" y="-315.4019" font-family="Helvetica,sans-Serif" font-size="9.00" fill="#000000">index.tsx</text>
</a>
</g>
</g>
<!-- src/components/content/index.tsx&#45;&gt;src/styles/styleValues.ts -->
<g id="edge8" class="edge">
<title>src/components/content/index.tsx&#45;&gt;src/styles/styleValues.ts</title>
<path fill="none" stroke="#000000" stroke-width="2" stroke-opacity="0.200000" d="M401.7412,-315.2938C419.4216,-315.5535 441.1483,-319.0738 455,-332.6019 475.4536,-352.5776 447.6678,-375.5025 468,-395.6019 478.6546,-406.1345 564.4941,-419.8234 618.8295,-427.567"/>
<polygon fill="#000000" fill-opacity="0.200000" stroke="#000000" stroke-width="2" stroke-opacity="0.200000" points="618.7301,-429.6737 624.9652,-428.4352 619.3186,-425.5152 618.7301,-429.6737"/>
</g>
<!-- src/components/content/index.tsx&#45;&gt;src/components/content/footer.tsx -->
<g id="edge9" class="edge">
<title>src/components/content/index.tsx&#45;&gt;src/components/content/footer.tsx</title>
<path fill="none" stroke="#000000" stroke-width="2" stroke-opacity="0.200000" d="M401.5713,-317.6019C427.9098,-317.6019 466.8098,-317.6019 495.0838,-317.6019"/>
<polygon fill="#000000" fill-opacity="0.200000" stroke="#000000" stroke-width="2" stroke-opacity="0.200000" points="495.3066,-319.702 501.3065,-317.6019 495.3065,-315.502 495.3066,-319.702"/>
</g>
<!-- src/components/content/index.tsx&#45;&gt;src/components/content/header.tsx -->
<g id="edge10" class="edge">
<title>src/components/content/index.tsx&#45;&gt;src/components/content/header.tsx</title>
<path fill="none" stroke="#000000" stroke-width="2" stroke-opacity="0.200000" d="M401.5369,-322.7715C417.354,-325.6151 437.2643,-329.2395 455,-332.6019 467.2649,-334.9271 480.6271,-337.5381 492.6784,-339.922"/>
<polygon fill="#000000" fill-opacity="0.200000" stroke="#000000" stroke-width="2" stroke-opacity="0.200000" points="492.5544,-342.0382 498.8482,-341.1452 493.3712,-337.9184 492.5544,-342.0382"/>
</g>
<!-- src/components/content/tags.tsx -->
<g id="node11" class="node">
<title>src/components/content/tags.tsx</title>
<g id="a_node11"><a xlink:href="src/components/content/tags.tsx" xlink:title="tags.tsx">
<path fill="#bbfeff" stroke="#000000" d="M393.5,-356.6019C393.5,-356.6019 351.5,-356.6019 351.5,-356.6019 348.5,-356.6019 345.5,-353.6019 345.5,-350.6019 345.5,-350.6019 345.5,-344.6019 345.5,-344.6019 345.5,-341.6019 348.5,-338.6019 351.5,-338.6019 351.5,-338.6019 393.5,-338.6019 393.5,-338.6019 396.5,-338.6019 399.5,-341.6019 399.5,-344.6019 399.5,-344.6019 399.5,-350.6019 399.5,-350.6019 399.5,-353.6019 396.5,-356.6019 393.5,-356.6019"/>
<text text-anchor="middle" x="372.5" y="-345.4019" font-family="Helvetica,sans-Serif" font-size="9.00" fill="#000000">tags.tsx</text>
</a>
</g>
</g>
<!-- src/components/content/tags.tsx&#45;&gt;src/styles/colorScheme.ts -->
<g id="edge11" class="edge">
<title>src/components/content/tags.tsx&#45;&gt;src/styles/colorScheme.ts</title>
<path fill="none" stroke="#000000" stroke-width="2" stroke-opacity="0.200000" d="M399.5807,-352.8681C457.4489,-364.2013 597.3901,-392.0342 714,-418.6019 720.2202,-420.019 726.784,-421.579 733.2032,-423.1408"/>
<polygon fill="#000000" fill-opacity="0.200000" stroke="#000000" stroke-width="2" stroke-opacity="0.200000" points="732.7164,-425.1835 739.0438,-424.5715 733.7158,-421.1042 732.7164,-425.1835"/>
</g>
<!-- src/components/content/tags.tsx&#45;&gt;src/styles/styleValues.ts -->
<g id="edge12" class="edge">
<title>src/components/content/tags.tsx&#45;&gt;src/styles/styleValues.ts</title>
<path fill="none" stroke="#000000" stroke-width="2" stroke-opacity="0.200000" d="M399.8609,-355.7788C417.6825,-362.3541 440.2745,-373.2315 455,-389.6019 465.8194,-401.6297 454.912,-414.0922 468,-423.6019 512.2869,-455.7804 578.242,-451.4238 621.064,-443.769"/>
<polygon fill="#000000" fill-opacity="0.200000" stroke="#000000" stroke-width="2" stroke-opacity="0.200000" points="621.6973,-445.7871 627.2088,-442.6196 620.925,-441.6587 621.6973,-445.7871"/>
</g>
<!-- src/components/embeddeds/niconico.tsx -->
<g id="node12" class="node">
<title>src/components/embeddeds/niconico.tsx</title>
<g id="a_node12"><a xlink:href="src/components/embeddeds/niconico.tsx" xlink:title="niconico.tsx">
<path fill="#ccffcc" stroke="#000000" d="M252.5,-356.6019C252.5,-356.6019 193.5,-356.6019 193.5,-356.6019 190.5,-356.6019 187.5,-353.6019 187.5,-350.6019 187.5,-350.6019 187.5,-344.6019 187.5,-344.6019 187.5,-341.6019 190.5,-338.6019 193.5,-338.6019 193.5,-338.6019 252.5,-338.6019 252.5,-338.6019 255.5,-338.6019 258.5,-341.6019 258.5,-344.6019 258.5,-344.6019 258.5,-350.6019 258.5,-350.6019 258.5,-353.6019 255.5,-356.6019 252.5,-356.6019"/>
<text text-anchor="middle" x="223" y="-345.4019" font-family="Helvetica,sans-Serif" font-size="9.00" fill="#000000">niconico.tsx</text>
</a>
</g>
</g>
<!-- src/components/layout/layout.tsx -->
<g id="node13" class="node">
<title>src/components/layout/layout.tsx</title>
<g id="a_node13"><a xlink:href="src/components/layout/layout.tsx" xlink:title="layout.tsx">
<path fill="#bbfeff" stroke="#000000" d="M247.5,-296.6019C247.5,-296.6019 198.5,-296.6019 198.5,-296.6019 195.5,-296.6019 192.5,-293.6019 192.5,-290.6019 192.5,-290.6019 192.5,-284.6019 192.5,-284.6019 192.5,-281.6019 195.5,-278.6019 198.5,-278.6019 198.5,-278.6019 247.5,-278.6019 247.5,-278.6019 250.5,-278.6019 253.5,-281.6019 253.5,-284.6019 253.5,-284.6019 253.5,-290.6019 253.5,-290.6019 253.5,-293.6019 250.5,-296.6019 247.5,-296.6019"/>
<text text-anchor="middle" x="223" y="-285.4019" font-family="Helvetica,sans-Serif" font-size="9.00" fill="#000000">layout.tsx</text>
</a>
</g>
</g>
<!-- src/components/layout/layout.tsx&#45;&gt;src/styles/styleValues.ts -->
<g id="edge15" class="edge">
<title>src/components/layout/layout.tsx&#45;&gt;src/styles/styleValues.ts</title>
<path fill="none" stroke="#000000" stroke-width="2" stroke-opacity="0.200000" d="M245.4521,-296.6598C258.516,-303.1969 273.9507,-313.3875 282,-327.6019 289.8963,-341.546 278.3588,-460.5895 290,-471.6019 337.6266,-516.656 541.0462,-467.4346 625.9953,-444.2843"/>
<polygon fill="#000000" fill-opacity="0.200000" stroke="#000000" stroke-width="2" stroke-opacity="0.200000" points="626.6722,-446.2763 631.9031,-442.6642 625.5614,-442.2258 626.6722,-446.2763"/>
</g>
<!-- src/components/layout/layout.tsx&#45;&gt;src/components/content/index.tsx -->
<g id="edge17" class="edge">
<title>src/components/layout/layout.tsx&#45;&gt;src/components/content/index.tsx</title>
<path fill="none" stroke="#000000" stroke-width="2" stroke-opacity="0.200000" d="M253.6143,-293.7452C277.9728,-298.6332 312.073,-305.476 337.5094,-310.5803"/>
<polygon fill="#000000" fill-opacity="0.200000" stroke="#000000" stroke-width="2" stroke-opacity="0.200000" points="337.1546,-312.6509 343.4505,-311.7725 337.981,-308.533 337.1546,-312.6509"/>
</g>
<!-- src/images/dark.svg -->
<g id="node14" class="node">
<title>src/images/dark.svg</title>
<g id="a_node14"><a xlink:href="src/images/dark.svg" xlink:title="dark.svg">
<path fill="#ffffcc" stroke="#000000" d="M394.5,-442.6019C394.5,-442.6019 350.5,-442.6019 350.5,-442.6019 347.5,-442.6019 344.5,-439.6019 344.5,-436.6019 344.5,-436.6019 344.5,-430.6019 344.5,-430.6019 344.5,-427.6019 347.5,-424.6019 350.5,-424.6019 350.5,-424.6019 394.5,-424.6019 394.5,-424.6019 397.5,-424.6019 400.5,-427.6019 400.5,-430.6019 400.5,-430.6019 400.5,-436.6019 400.5,-436.6019 400.5,-439.6019 397.5,-442.6019 394.5,-442.6019"/>
<text text-anchor="middle" x="372.5" y="-431.4019" font-family="Helvetica,sans-Serif" font-size="9.00" fill="#000000">dark.svg</text>
</a>
</g>
</g>
<!-- src/components/layout/layout.tsx&#45;&gt;src/images/dark.svg -->
<g id="edge13" class="edge">
<title>src/components/layout/layout.tsx&#45;&gt;src/images/dark.svg</title>
<path fill="none" stroke="#000000" stroke-width="2" stroke-opacity="0.200000" d="M244.961,-296.6245C258.0117,-303.1991 273.6088,-313.4425 282,-327.6019 291.5598,-343.7331 277.8833,-397.2913 290,-411.6019 301.7728,-425.5062 321.2574,-431.1305 338.3353,-433.2204"/>
<polygon fill="#000000" fill-opacity="0.200000" stroke="#000000" stroke-width="2" stroke-opacity="0.200000" points="338.3197,-435.3293 344.4995,-433.8392 338.7393,-431.1503 338.3197,-435.3293"/>
</g>
<!-- src/styles/mediaQueries.ts -->
<g id="node15" class="node">
<title>src/styles/mediaQueries.ts</title>
<g id="a_node15"><a xlink:href="src/styles/mediaQueries.ts" xlink:title="mediaQueries.ts">
<path fill="#ddfeff" stroke="#000000" d="M702,-472.6019C702,-472.6019 625,-472.6019 625,-472.6019 622,-472.6019 619,-469.6019 619,-466.6019 619,-466.6019 619,-460.6019 619,-460.6019 619,-457.6019 622,-454.6019 625,-454.6019 625,-454.6019 702,-454.6019 702,-454.6019 705,-454.6019 708,-457.6019 708,-460.6019 708,-460.6019 708,-466.6019 708,-466.6019 708,-469.6019 705,-472.6019 702,-472.6019"/>
<text text-anchor="middle" x="663.5" y="-461.4019" font-family="Helvetica,sans-Serif" font-size="9.00" fill="#000000">mediaQueries.ts</text>
</a>
</g>
</g>
<!-- src/components/layout/layout.tsx&#45;&gt;src/styles/mediaQueries.ts -->
<g id="edge14" class="edge">
<title>src/components/layout/layout.tsx&#45;&gt;src/styles/mediaQueries.ts</title>
<path fill="none" stroke="#000000" stroke-width="2" stroke-opacity="0.200000" d="M244.7558,-296.7491C257.727,-303.3719 273.3125,-313.6224 282,-327.6019 295.735,-349.7036 271.3403,-367.4648 290,-385.6019 316.4488,-411.3099 426.0084,-380.7998 455,-403.6019 468.3711,-414.1183 454.7001,-428.9955 468,-439.6019 508.5164,-471.913 569.5741,-474.3796 612.6544,-471.0133"/>
<polygon fill="#000000" fill-opacity="0.200000" stroke="#000000" stroke-width="2" stroke-opacity="0.200000" points="613.078,-473.0847 618.8755,-470.4772 612.7173,-468.9002 613.078,-473.0847"/>
</g>
<!-- src/styles/variables.ts -->
<g id="node16" class="node">
<title>src/styles/variables.ts</title>
<g id="a_node16"><a xlink:href="src/styles/variables.ts" xlink:title="variables.ts">
<path fill="#ddfeff" stroke="#000000" d="M691.5,-502.6019C691.5,-502.6019 635.5,-502.6019 635.5,-502.6019 632.5,-502.6019 629.5,-499.6019 629.5,-496.6019 629.5,-496.6019 629.5,-490.6019 629.5,-490.6019 629.5,-487.6019 632.5,-484.6019 635.5,-484.6019 635.5,-484.6019 691.5,-484.6019 691.5,-484.6019 694.5,-484.6019 697.5,-487.6019 697.5,-490.6019 697.5,-490.6019 697.5,-496.6019 697.5,-496.6019 697.5,-499.6019 694.5,-502.6019 691.5,-502.6019"/>
<text text-anchor="middle" x="663.5" y="-491.4019" font-family="Helvetica,sans-Serif" font-size="9.00" fill="#000000">variables.ts</text>
</a>
</g>
</g>
<!-- src/components/layout/layout.tsx&#45;&gt;src/styles/variables.ts -->
<g id="edge16" class="edge">
<title>src/components/layout/layout.tsx&#45;&gt;src/styles/variables.ts</title>
<path fill="none" stroke="#000000" stroke-width="2" stroke-opacity="0.200000" d="M244.8767,-296.675C257.8947,-303.2692 273.487,-313.5155 282,-327.6019 290.2123,-341.1907 278.6525,-387.4963 290,-398.6019 316.3131,-424.3541 426.6752,-390.0804 455,-413.6019 471.3444,-427.1746 452.2223,-445.3743 468,-459.6019 490.2657,-479.6799 572.6282,-488.1728 623.0745,-491.5527"/>
<polygon fill="#000000" fill-opacity="0.200000" stroke="#000000" stroke-width="2" stroke-opacity="0.200000" points="623.242,-493.6678 629.3649,-491.9588 623.5127,-489.4765 623.242,-493.6678"/>
</g>
<!-- src/components/sidebar/sidebar.tsx -->
<g id="node17" class="node">
<title>src/components/sidebar/sidebar.tsx</title>
<g id="a_node17"><a xlink:href="src/components/sidebar/sidebar.tsx" xlink:title="sidebar.tsx">
<path fill="#bbfeff" stroke="#000000" d="M399,-56.6019C399,-56.6019 346,-56.6019 346,-56.6019 343,-56.6019 340,-53.6019 340,-50.6019 340,-50.6019 340,-44.6019 340,-44.6019 340,-41.6019 343,-38.6019 346,-38.6019 346,-38.6019 399,-38.6019 399,-38.6019 402,-38.6019 405,-41.6019 405,-44.6019 405,-44.6019 405,-50.6019 405,-50.6019 405,-53.6019 402,-56.6019 399,-56.6019"/>
<text text-anchor="middle" x="372.5" y="-45.4019" font-family="Helvetica,sans-Serif" font-size="9.00" fill="#000000">sidebar.tsx</text>
</a>
</g>
</g>
<!-- src/components/layout/layout.tsx&#45;&gt;src/components/sidebar/sidebar.tsx -->
<g id="edge18" class="edge">
<title>src/components/layout/layout.tsx&#45;&gt;src/components/sidebar/sidebar.tsx</title>
<path fill="none" stroke="#000000" stroke-width="2" stroke-opacity="0.200000" d="M253.7589,-281.9932C263.9538,-278.7428 274.5796,-273.6297 282,-265.6019 290.785,-256.0976 285.6354,-249.7862 290,-237.6019 313.8756,-170.9499 349.8212,-94.4433 365.1514,-62.659"/>
<polygon fill="#000000" fill-opacity="0.200000" stroke="#000000" stroke-width="2" stroke-opacity="0.200000" points="367.2081,-63.2301 367.9329,-56.9147 363.4279,-61.3997 367.2081,-63.2301"/>
</g>
<!-- src/components/sidebar/sidebar.tsx&#45;&gt;src/styles/mediaQueries.ts -->
<g id="edge25" class="edge">
<title>src/components/sidebar/sidebar.tsx&#45;&gt;src/styles/mediaQueries.ts</title>
<path fill="none" stroke="#000000" stroke-width="2" stroke-opacity="0.200000" d="M377.7339,-56.7111C392.8063,-83.4433 436.4166,-164.4049 455,-237.6019 463.1243,-269.6022 448.7707,-358.7642 468,-385.6019 501.2016,-431.9402 566.5327,-450.768 612.508,-458.4066"/>
<polygon fill="#000000" fill-opacity="0.200000" stroke="#000000" stroke-width="2" stroke-opacity="0.200000" points="612.324,-460.5036 618.5789,-459.3693 612.9819,-456.3554 612.324,-460.5036"/>
</g>
<!-- src/components/sidebar/buttons&#45;group.tsx -->
<g id="node22" class="node">
<title>src/components/sidebar/buttons&#45;group.tsx</title>
<g id="a_node22"><a xlink:href="src/components/sidebar/buttons-group.tsx" xlink:title="buttons&#45;group.tsx">
<path fill="#bbfeff" stroke="#000000" d="M574,-56.6019C574,-56.6019 488,-56.6019 488,-56.6019 485,-56.6019 482,-53.6019 482,-50.6019 482,-50.6019 482,-44.6019 482,-44.6019 482,-41.6019 485,-38.6019 488,-38.6019 488,-38.6019 574,-38.6019 574,-38.6019 577,-38.6019 580,-41.6019 580,-44.6019 580,-44.6019 580,-50.6019 580,-50.6019 580,-53.6019 577,-56.6019 574,-56.6019"/>
<text text-anchor="middle" x="531" y="-45.4019" font-family="Helvetica,sans-Serif" font-size="9.00" fill="#000000">buttons&#45;group.tsx</text>
</a>
</g>
</g>
<!-- src/components/sidebar/sidebar.tsx&#45;&gt;src/components/sidebar/buttons&#45;group.tsx -->
<g id="edge27" class="edge">
<title>src/components/sidebar/sidebar.tsx&#45;&gt;src/components/sidebar/buttons&#45;group.tsx</title>
<path fill="none" stroke="#000000" stroke-width="2" stroke-opacity="0.200000" d="M405.3413,-47.6019C425.6511,-47.6019 452.2396,-47.6019 475.7264,-47.6019"/>
<polygon fill="#000000" fill-opacity="0.200000" stroke="#000000" stroke-width="2" stroke-opacity="0.200000" points="475.9419,-49.702 481.9418,-47.6019 475.9418,-45.502 475.9419,-49.702"/>
</g>
<!-- src/components/table&#45;of&#45;contents/index.tsx -->
<g id="node23" class="node">
<title>src/components/table&#45;of&#45;contents/index.tsx</title>
<g id="a_node23"><a xlink:href="src/components/table-of-contents/index.tsx" xlink:title="index.tsx">
<path fill="#bbfeff" stroke="#000000" d="M554,-206.6019C554,-206.6019 508,-206.6019 508,-206.6019 505,-206.6019 502,-203.6019 502,-200.6019 502,-200.6019 502,-194.6019 502,-194.6019 502,-191.6019 505,-188.6019 508,-188.6019 508,-188.6019 554,-188.6019 554,-188.6019 557,-188.6019 560,-191.6019 560,-194.6019 560,-194.6019 560,-200.6019 560,-200.6019 560,-203.6019 557,-206.6019 554,-206.6019"/>
<text text-anchor="middle" x="531" y="-195.4019" font-family="Helvetica,sans-Serif" font-size="9.00" fill="#000000">index.tsx</text>
</a>
</g>
</g>
<!-- src/components/sidebar/sidebar.tsx&#45;&gt;src/components/table&#45;of&#45;contents/index.tsx -->
<g id="edge26" class="edge">
<title>src/components/sidebar/sidebar.tsx&#45;&gt;src/components/table&#45;of&#45;contents/index.tsx</title>
<path fill="none" stroke="#000000" stroke-width="2" stroke-opacity="0.200000" d="M376.9038,-56.8153C388.5003,-80.1271 422.1702,-141.9838 468,-175.6019 476.2774,-181.6737 486.3725,-186.1779 496.0352,-189.4724"/>
<polygon fill="#000000" fill-opacity="0.200000" stroke="#000000" stroke-width="2" stroke-opacity="0.200000" points="495.6212,-191.5446 501.9757,-191.3705 496.8995,-187.5439 495.6212,-191.5446"/>
</g>
<!-- src/components/organisms/PostList.tsx -->
<g id="node18" class="node">
<title>src/components/organisms/PostList.tsx</title>
<g id="a_node18"><a xlink:href="src/components/organisms/PostList.tsx" xlink:title="PostList.tsx">
<path fill="#bbfeff" stroke="#000000" d="M251,-236.6019C251,-236.6019 195,-236.6019 195,-236.6019 192,-236.6019 189,-233.6019 189,-230.6019 189,-230.6019 189,-224.6019 189,-224.6019 189,-221.6019 192,-218.6019 195,-218.6019 195,-218.6019 251,-218.6019 251,-218.6019 254,-218.6019 257,-221.6019 257,-224.6019 257,-224.6019 257,-230.6019 257,-230.6019 257,-233.6019 254,-236.6019 251,-236.6019"/>
<text text-anchor="middle" x="223" y="-225.4019" font-family="Helvetica,sans-Serif" font-size="9.00" fill="#000000">PostList.tsx</text>
</a>
</g>
</g>
<!-- src/components/post&#45;link/post&#45;link.tsx -->
<g id="node19" class="node">
<title>src/components/post&#45;link/post&#45;link.tsx</title>
<g id="a_node19"><a xlink:href="src/components/post-link/post-link.tsx" xlink:title="post&#45;link.tsx">
<path fill="#bbfeff" stroke="#000000" d="M402,-266.6019C402,-266.6019 343,-266.6019 343,-266.6019 340,-266.6019 337,-263.6019 337,-260.6019 337,-260.6019 337,-254.6019 337,-254.6019 337,-251.6019 340,-248.6019 343,-248.6019 343,-248.6019 402,-248.6019 402,-248.6019 405,-248.6019 408,-251.6019 408,-254.6019 408,-254.6019 408,-260.6019 408,-260.6019 408,-263.6019 405,-266.6019 402,-266.6019"/>
<text text-anchor="middle" x="372.5" y="-255.4019" font-family="Helvetica,sans-Serif" font-size="9.00" fill="#000000">post&#45;link.tsx</text>
</a>
</g>
</g>
<!-- src/components/organisms/PostList.tsx&#45;&gt;src/components/post&#45;link/post&#45;link.tsx -->
<g id="edge19" class="edge">
<title>src/components/organisms/PostList.tsx&#45;&gt;src/components/post&#45;link/post&#45;link.tsx</title>
<path fill="none" stroke="#000000" stroke-width="2" stroke-opacity="0.200000" d="M257.2983,-234.4845C279.1394,-238.8673 307.5741,-244.5733 330.7285,-249.2196"/>
<polygon fill="#000000" fill-opacity="0.200000" stroke="#000000" stroke-width="2" stroke-opacity="0.200000" points="330.5049,-251.3166 336.8009,-250.4382 331.3313,-247.1987 330.5049,-251.3166"/>
</g>
<!-- src/components/post&#45;link/post&#45;link.tsx&#45;&gt;src/styles/styleValues.ts -->
<g id="edge20" class="edge">
<title>src/components/post&#45;link/post&#45;link.tsx&#45;&gt;src/styles/styleValues.ts</title>
<path fill="none" stroke="#000000" stroke-width="2" stroke-opacity="0.200000" d="M408.0449,-266.4352C424.8666,-272.4499 443.7003,-282.2015 455,-297.6019 478.3881,-329.4776 439.3035,-358.4068 468,-385.6019 487.1157,-403.7174 560.6125,-389.5979 586,-396.6019 606.4811,-402.2522 628.1742,-413.0766 643.384,-421.564"/>
<polygon fill="#000000" fill-opacity="0.200000" stroke="#000000" stroke-width="2" stroke-opacity="0.200000" points="642.4256,-423.4347 648.6801,-424.5713 644.4995,-419.7824 642.4256,-423.4347"/>
</g>
<!-- src/components/post&#45;link/tag&#45;list.tsx -->
<g id="node20" class="node">
<title>src/components/post&#45;link/tag&#45;list.tsx</title>
<g id="a_node20"><a xlink:href="src/components/post-link/tag-list.tsx" xlink:title="tag&#45;list.tsx">
<path fill="#bbfeff" stroke="#000000" d="M557,-266.6019C557,-266.6019 505,-266.6019 505,-266.6019 502,-266.6019 499,-263.6019 499,-260.6019 499,-260.6019 499,-254.6019 499,-254.6019 499,-251.6019 502,-248.6019 505,-248.6019 505,-248.6019 557,-248.6019 557,-248.6019 560,-248.6019 563,-251.6019 563,-254.6019 563,-254.6019 563,-260.6019 563,-260.6019 563,-263.6019 560,-266.6019 557,-266.6019"/>
<text text-anchor="middle" x="531" y="-255.4019" font-family="Helvetica,sans-Serif" font-size="9.00" fill="#000000">tag&#45;list.tsx</text>
</a>
</g>
</g>
<!-- src/components/post&#45;link/post&#45;link.tsx&#45;&gt;src/components/post&#45;link/tag&#45;list.tsx -->
<g id="edge21" class="edge">
<title>src/components/post&#45;link/post&#45;link.tsx&#45;&gt;src/components/post&#45;link/tag&#45;list.tsx</title>
<path fill="none" stroke="#000000" stroke-width="2" stroke-opacity="0.200000" d="M408.0705,-257.6019C433.2508,-257.6019 466.9866,-257.6019 492.7471,-257.6019"/>
<polygon fill="#000000" fill-opacity="0.200000" stroke="#000000" stroke-width="2" stroke-opacity="0.200000" points="492.7805,-259.702 498.7804,-257.6019 492.7804,-255.502 492.7805,-259.702"/>
</g>
<!-- src/components/post&#45;link/tag&#45;list.tsx&#45;&gt;src/styles/styleValues.ts -->
<g id="edge22" class="edge">
<title>src/components/post&#45;link/tag&#45;list.tsx&#45;&gt;src/styles/styleValues.ts</title>
<path fill="none" stroke="#000000" stroke-width="2" stroke-opacity="0.200000" d="M547.355,-266.9011C559.1203,-274.1676 574.8197,-285.1083 586,-297.6019 620.3933,-336.0353 646.3855,-392.2288 657.5305,-418.7267"/>
<polygon fill="#000000" fill-opacity="0.200000" stroke="#000000" stroke-width="2" stroke-opacity="0.200000" points="655.6862,-419.762 659.9213,-424.5026 659.5668,-418.1556 655.6862,-419.762"/>
</g>
<!-- src/components/sidebar/button.tsx -->
<g id="node21" class="node">
<title>src/components/sidebar/button.tsx</title>
<g id="a_node21"><a xlink:href="src/components/sidebar/button.tsx" xlink:title="button.tsx">
<path fill="#bbfeff" stroke="#000000" d="M689.5,-56.6019C689.5,-56.6019 637.5,-56.6019 637.5,-56.6019 634.5,-56.6019 631.5,-53.6019 631.5,-50.6019 631.5,-50.6019 631.5,-44.6019 631.5,-44.6019 631.5,-41.6019 634.5,-38.6019 637.5,-38.6019 637.5,-38.6019 689.5,-38.6019 689.5,-38.6019 692.5,-38.6019 695.5,-41.6019 695.5,-44.6019 695.5,-44.6019 695.5,-50.6019 695.5,-50.6019 695.5,-53.6019 692.5,-56.6019 689.5,-56.6019"/>
<text text-anchor="middle" x="663.5" y="-45.4019" font-family="Helvetica,sans-Serif" font-size="9.00" fill="#000000">button.tsx</text>
</a>
</g>
</g>
<!-- src/components/sidebar/button.tsx&#45;&gt;src/components/atoms/AnchorOrLink.tsx -->
<g id="edge23" class="edge">
<title>src/components/sidebar/button.tsx&#45;&gt;src/components/atoms/AnchorOrLink.tsx</title>
<path fill="none" stroke="#000000" stroke-width="2" stroke-opacity="0.200000" d="M677.1108,-56.7983C696.9407,-70.1969 733.8278,-95.1206 756.0731,-110.1513"/>
<polygon fill="#000000" fill-opacity="0.200000" stroke="#000000" stroke-width="2" stroke-opacity="0.200000" points="754.9773,-111.9453 761.1246,-113.5644 757.3288,-108.4652 754.9773,-111.9453"/>
</g>
<!-- src/components/sidebar/buttons&#45;group.tsx&#45;&gt;src/components/sidebar/button.tsx -->
<g id="edge24" class="edge">
<title>src/components/sidebar/buttons&#45;group.tsx&#45;&gt;src/components/sidebar/button.tsx</title>
<path fill="none" stroke="#000000" stroke-width="2" stroke-opacity="0.200000" d="M580.3381,-47.6019C595.141,-47.6019 611.1511,-47.6019 625.134,-47.6019"/>
<polygon fill="#000000" fill-opacity="0.200000" stroke="#000000" stroke-width="2" stroke-opacity="0.200000" points="625.4043,-49.702 631.4043,-47.6019 625.4043,-45.502 625.4043,-49.702"/>
</g>
<!-- src/components/table&#45;of&#45;contents/index.tsx&#45;&gt;src/styles/styleValues.ts -->
<g id="edge28" class="edge">
<title>src/components/table&#45;of&#45;contents/index.tsx&#45;&gt;src/styles/styleValues.ts</title>
<path fill="none" stroke="#000000" stroke-width="2" stroke-opacity="0.200000" d="M548.4075,-206.7496C560.3752,-213.7983 575.875,-224.5363 586,-237.6019 609.2966,-267.6645 645.8608,-378.1438 658.7838,-418.6158"/>
<polygon fill="#000000" fill-opacity="0.200000" stroke="#000000" stroke-width="2" stroke-opacity="0.200000" points="656.831,-419.4048 660.6493,-424.4872 660.8338,-418.133 656.831,-419.4048"/>
</g>
<!-- src/components/table&#45;of&#45;contents/index.tsx&#45;&gt;src/components/atoms/SwipingAnchor.tsx -->
<g id="edge29" class="edge">
<title>src/components/table&#45;of&#45;contents/index.tsx&#45;&gt;src/components/atoms/SwipingAnchor.tsx</title>
<path fill="none" stroke="#000000" stroke-width="2" stroke-opacity="0.200000" d="M554.7158,-188.5674C564.4755,-184.7328 575.8502,-180.1125 586,-175.6019 604.5381,-167.3635 625.1419,-157.2119 640.4428,-149.4743"/>
<polygon fill="#000000" fill-opacity="0.200000" stroke="#000000" stroke-width="2" stroke-opacity="0.200000" points="641.4273,-151.3297 645.8264,-146.7408 639.5258,-147.5848 641.4273,-151.3297"/>
</g>
<!-- src/components/types/TagsPageProps.d.ts -->
<g id="node24" class="node">
<title>src/components/types/TagsPageProps.d.ts</title>
<g id="a_node24"><a xlink:href="src/components/types/TagsPageProps.d.ts" xlink:title="TagsPageProps.d.ts">
<path fill="#ccffcc" stroke="#000000" d="M268,-176.6019C268,-176.6019 178,-176.6019 178,-176.6019 175,-176.6019 172,-173.6019 172,-170.6019 172,-170.6019 172,-164.6019 172,-164.6019 172,-161.6019 175,-158.6019 178,-158.6019 178,-158.6019 268,-158.6019 268,-158.6019 271,-158.6019 274,-161.6019 274,-164.6019 274,-164.6019 274,-170.6019 274,-170.6019 274,-173.6019 271,-176.6019 268,-176.6019"/>
<text text-anchor="middle" x="223" y="-165.4019" font-family="Helvetica,sans-Serif" font-size="9.00" fill="#000000">TagsPageProps.d.ts</text>
</a>
</g>
</g>
<!-- src/gatsby&#45;node/index.ts -->
<g id="node25" class="node">
<title>src/gatsby&#45;node/index.ts</title>
<g id="a_node25"><a xlink:href="src/gatsby-node/index.ts" xlink:title="index.ts">
<path fill="#ddfeff" stroke="#000000" d="M393.5,-674.6019C393.5,-674.6019 351.5,-674.6019 351.5,-674.6019 348.5,-674.6019 345.5,-671.6019 345.5,-668.6019 345.5,-668.6019 345.5,-662.6019 345.5,-662.6019 345.5,-659.6019 348.5,-656.6019 351.5,-656.6019 351.5,-656.6019 393.5,-656.6019 393.5,-656.6019 396.5,-656.6019 399.5,-659.6019 399.5,-662.6019 399.5,-662.6019 399.5,-668.6019 399.5,-668.6019 399.5,-671.6019 396.5,-674.6019 393.5,-674.6019"/>
<text text-anchor="middle" x="372.5" y="-663.4019" font-family="Helvetica,sans-Serif" font-size="9.00" fill="#000000">index.ts</text>
</a>
</g>
</g>
<!-- src/libs/post.ts -->
<g id="node26" class="node">
<title>src/libs/post.ts</title>
<g id="a_node26"><a xlink:href="src/libs/post.ts" xlink:title="post.ts">
<path fill="#ddfeff" stroke="#000000" d="M552,-652.6019C552,-652.6019 510,-652.6019 510,-652.6019 507,-652.6019 504,-649.6019 504,-646.6019 504,-646.6019 504,-640.6019 504,-640.6019 504,-637.6019 507,-634.6019 510,-634.6019 510,-634.6019 552,-634.6019 552,-634.6019 555,-634.6019 558,-637.6019 558,-640.6019 558,-640.6019 558,-646.6019 558,-646.6019 558,-649.6019 555,-652.6019 552,-652.6019"/>
<text text-anchor="middle" x="531" y="-641.4019" font-family="Helvetica,sans-Serif" font-size="9.00" fill="#000000">post.ts</text>
</a>
</g>
</g>
<!-- src/gatsby&#45;node/index.ts&#45;&gt;src/libs/post.ts -->
<g id="edge30" class="edge">
<title>src/gatsby&#45;node/index.ts&#45;&gt;src/libs/post.ts</title>
<path fill="none" stroke="#000000" stroke-width="2" stroke-opacity="0.200000" d="M399.7471,-661.8199C426.9334,-658.0464 468.7376,-652.244 497.8369,-648.205"/>
<polygon fill="#000000" fill-opacity="0.200000" stroke="#000000" stroke-width="2" stroke-opacity="0.200000" points="498.1894,-650.2762 503.8437,-647.3712 497.6119,-646.1161 498.1894,-650.2762"/>
</g>
<!-- src/libs/post.ts&#45;&gt;src/libs/date.ts -->
<g id="edge31" class="edge">
<title>src/libs/post.ts&#45;&gt;src/libs/date.ts</title>
<path fill="none" stroke="#000000" stroke-width="2" stroke-opacity="0.200000" d="M558.0207,-636.8272C566.9835,-634.4224 576.9743,-631.5708 586,-628.6019 602.9389,-623.03 621.5861,-615.8456 636.3438,-609.9045"/>
<polygon fill="#000000" fill-opacity="0.200000" stroke="#000000" stroke-width="2" stroke-opacity="0.200000" points="637.2304,-611.8112 642.0021,-607.611 635.6526,-607.9188 637.2304,-611.8112"/>
</g>
<!-- src/libs/proto&#45;ext.ts -->
<g id="node27" class="node">
<title>src/libs/proto&#45;ext.ts</title>
<g id="a_node27"><a xlink:href="src/libs/proto-ext.ts" xlink:title="proto&#45;ext.ts">
<path fill="#ccffcc" stroke="#000000" d="M559.5,-622.6019C559.5,-622.6019 502.5,-622.6019 502.5,-622.6019 499.5,-622.6019 496.5,-619.6019 496.5,-616.6019 496.5,-616.6019 496.5,-610.6019 496.5,-610.6019 496.5,-607.6019 499.5,-604.6019 502.5,-604.6019 502.5,-604.6019 559.5,-604.6019 559.5,-604.6019 562.5,-604.6019 565.5,-607.6019 565.5,-610.6019 565.5,-610.6019 565.5,-616.6019 565.5,-616.6019 565.5,-619.6019 562.5,-622.6019 559.5,-622.6019"/>
<text text-anchor="middle" x="531" y="-611.4019" font-family="Helvetica,sans-Serif" font-size="9.00" fill="#000000">proto&#45;ext.ts</text>
</a>
</g>
</g>
<!-- src/libs/react&#45;fcx.d.ts -->
<g id="node28" class="node">
<title>src/libs/react&#45;fcx.d.ts</title>
<g id="a_node28"><a xlink:href="src/libs/react-fcx.d.ts" xlink:title="react&#45;fcx.d.ts">
<path fill="#ccffcc" stroke="#000000" d="M563.5,-592.6019C563.5,-592.6019 498.5,-592.6019 498.5,-592.6019 495.5,-592.6019 492.5,-589.6019 492.5,-586.6019 492.5,-586.6019 492.5,-580.6019 492.5,-580.6019 492.5,-577.6019 495.5,-574.6019 498.5,-574.6019 498.5,-574.6019 563.5,-574.6019 563.5,-574.6019 566.5,-574.6019 569.5,-577.6019 569.5,-580.6019 569.5,-580.6019 569.5,-586.6019 569.5,-586.6019 569.5,-589.6019 566.5,-592.6019 563.5,-592.6019"/>
<text text-anchor="middle" x="531" y="-581.4019" font-family="Helvetica,sans-Serif" font-size="9.00" fill="#000000">react&#45;fcx.d.ts</text>
</a>
</g>
</g>
<!-- src/libs/toc.ts -->
<g id="node29" class="node">
<title>src/libs/toc.ts</title>
<g id="a_node29"><a xlink:href="src/libs/toc.ts" xlink:title="toc.ts">
<path fill="#ccffcc" stroke="#000000" d="M552,-562.6019C552,-562.6019 510,-562.6019 510,-562.6019 507,-562.6019 504,-559.6019 504,-556.6019 504,-556.6019 504,-550.6019 504,-550.6019 504,-547.6019 507,-544.6019 510,-544.6019 510,-544.6019 552,-544.6019 552,-544.6019 555,-544.6019 558,-547.6019 558,-550.6019 558,-550.6019 558,-556.6019 558,-556.6019 558,-559.6019 555,-562.6019 552,-562.6019"/>
<text text-anchor="middle" x="531" y="-551.4019" font-family="Helvetica,sans-Serif" font-size="9.00" fill="#000000">toc.ts</text>
</a>
</g>
</g>
<!-- src/pages/404.tsx -->
<g id="node30" class="node">
<title>src/pages/404.tsx</title>
<g id="a_node30"><a xlink:href="src/pages/404.tsx" xlink:title="404.tsx">
<path fill="#bbfeff" stroke="#000000" d="M103,-401.6019C103,-401.6019 61,-401.6019 61,-401.6019 58,-401.6019 55,-398.6019 55,-395.6019 55,-395.6019 55,-389.6019 55,-389.6019 55,-386.6019 58,-383.6019 61,-383.6019 61,-383.6019 103,-383.6019 103,-383.6019 106,-383.6019 109,-386.6019 109,-389.6019 109,-389.6019 109,-395.6019 109,-395.6019 109,-398.6019 106,-401.6019 103,-401.6019"/>
<text text-anchor="middle" x="82" y="-390.4019" font-family="Helvetica,sans-Serif" font-size="9.00" fill="#000000">404.tsx</text>
</a>
</g>
</g>
<!-- src/pages/404.tsx&#45;&gt;src/components/layout/layout.tsx -->
<g id="edge32" class="edge">
<title>src/pages/404.tsx&#45;&gt;src/components/layout/layout.tsx</title>
<path fill="none" stroke="#000000" stroke-width="2" stroke-opacity="0.200000" d="M109.2609,-393.1726C122.7481,-391.9589 138.197,-388.0619 148,-377.6019 163.3893,-361.1812 143.3744,-346.2315 156,-327.6019 164.5788,-314.9436 178.6179,-305.6715 191.6344,-299.2604"/>
<polygon fill="#000000" fill-opacity="0.200000" stroke="#000000" stroke-width="2" stroke-opacity="0.200000" points="192.5881,-301.1327 197.1314,-296.6864 190.807,-297.329 192.5881,-301.1327"/>
</g>
<!-- src/pages/index.tsx -->
<g id="node31" class="node">
<title>src/pages/index.tsx</title>
<g id="a_node31"><a xlink:href="src/pages/index.tsx" xlink:title="index.tsx">
<path fill="#bbfeff" stroke="#000000" d="M105,-371.6019C105,-371.6019 59,-371.6019 59,-371.6019 56,-371.6019 53,-368.6019 53,-365.6019 53,-365.6019 53,-359.6019 53,-359.6019 53,-356.6019 56,-353.6019 59,-353.6019 59,-353.6019 105,-353.6019 105,-353.6019 108,-353.6019 111,-356.6019 111,-359.6019 111,-359.6019 111,-365.6019 111,-365.6019 111,-368.6019 108,-371.6019 105,-371.6019"/>
<text text-anchor="middle" x="82" y="-360.4019" font-family="Helvetica,sans-Serif" font-size="9.00" fill="#000000">index.tsx</text>
</a>
</g>
</g>
<!-- src/pages/index.tsx&#45;&gt;src/components/layout/layout.tsx -->
<g id="edge33" class="edge">
<title>src/pages/index.tsx&#45;&gt;src/components/layout/layout.tsx</title>
<path fill="none" stroke="#000000" stroke-width="2" stroke-opacity="0.200000" d="M111.3231,-361.862C123.8609,-360.1587 137.9035,-356.2256 148,-347.6019 155.2797,-341.3841 149.7847,-334.8837 156,-327.6019 166.389,-315.43 181.4558,-305.9745 194.6714,-299.32"/>
<polygon fill="#000000" fill-opacity="0.200000" stroke="#000000" stroke-width="2" stroke-opacity="0.200000" points="195.719,-301.146 200.2029,-296.6398 193.8876,-297.3663 195.719,-301.146"/>
</g>
<!-- src/pages/index.tsx&#45;&gt;src/components/organisms/PostList.tsx -->
<g id="edge34" class="edge">
<title>src/pages/index.tsx&#45;&gt;src/components/organisms/PostList.tsx</title>
<path fill="none" stroke="#000000" stroke-width="2" stroke-opacity="0.200000" d="M111.1938,-363.2509C124.3306,-361.9247 138.8986,-357.9061 148,-347.6019 159.8277,-334.211 146.4171,-282.6809 156,-267.6019 164.1382,-254.7961 177.9797,-245.5392 190.9764,-239.1769"/>
<polygon fill="#000000" fill-opacity="0.200000" stroke="#000000" stroke-width="2" stroke-opacity="0.200000" points="191.9167,-241.0557 196.4756,-236.6255 190.149,-237.2458 191.9167,-241.0557"/>
</g>
<!-- src/pages/index.tsx&#45;&gt;src/libs/post.ts -->
<g id="edge35" class="edge">
<title>src/pages/index.tsx&#45;&gt;src/libs/post.ts</title>
<path fill="none" stroke="#000000" stroke-width="2" stroke-opacity="0.200000" d="M111.154,-361.6657C124.4481,-362.897 139.1612,-366.9186 148,-377.6019 164.1589,-397.1328 139.4993,-586.3588 156,-605.6019 193.1081,-648.8773 243.3454,-587.702 282,-629.6019 293.2154,-641.7589 277.6918,-692.5525 290,-703.6019 344.5701,-752.5905 385.7226,-727.6524 455,-703.6019 481.2532,-694.4878 505.2919,-672.1248 519.0288,-657.4245"/>
<polygon fill="#000000" fill-opacity="0.200000" stroke="#000000" stroke-width="2" stroke-opacity="0.200000" points="520.7887,-658.6113 523.2807,-652.7632 517.6857,-655.7808 520.7887,-658.6113"/>
</g>
<!-- src/pages/tags.tsx -->
<g id="node32" class="node">
<title>src/pages/tags.tsx</title>
<g id="a_node32"><a xlink:href="src/pages/tags.tsx" xlink:title="tags.tsx">
<path fill="#bbfeff" stroke="#000000" d="M103,-341.6019C103,-341.6019 61,-341.6019 61,-341.6019 58,-341.6019 55,-338.6019 55,-335.6019 55,-335.6019 55,-329.6019 55,-329.6019 55,-326.6019 58,-323.6019 61,-323.6019 61,-323.6019 103,-323.6019 103,-323.6019 106,-323.6019 109,-326.6019 109,-329.6019 109,-329.6019 109,-335.6019 109,-335.6019 109,-338.6019 106,-341.6019 103,-341.6019"/>
<text text-anchor="middle" x="82" y="-330.4019" font-family="Helvetica,sans-Serif" font-size="9.00" fill="#000000">tags.tsx</text>
</a>
</g>
</g>
<!-- src/pages/tags.tsx&#45;&gt;src/components/layout/layout.tsx -->
<g id="edge36" class="edge">
<title>src/pages/tags.tsx&#45;&gt;src/components/layout/layout.tsx</title>
<path fill="none" stroke="#000000" stroke-width="2" stroke-opacity="0.200000" d="M109.1862,-323.9254C131.8565,-316.6902 164.2828,-306.3414 188.7289,-298.5395"/>
<polygon fill="#000000" fill-opacity="0.200000" stroke="#000000" stroke-width="2" stroke-opacity="0.200000" points="189.3679,-300.54 194.4453,-296.7151 188.0909,-296.5388 189.3679,-300.54"/>
</g>
<!-- src/pages/tags.tsx&#45;&gt;src/components/organisms/PostList.tsx -->
<g id="edge37" class="edge">
<title>src/pages/tags.tsx&#45;&gt;src/components/organisms/PostList.tsx</title>
<path fill="none" stroke="#000000" stroke-width="2" stroke-opacity="0.200000" d="M109.0323,-330.0293C122.6261,-327.3214 138.2433,-321.8051 148,-310.6019 160.7665,-295.9426 144.8918,-283.5544 156,-267.6019 164.8059,-254.9558 179.0143,-245.6505 192.0856,-239.214"/>
<polygon fill="#000000" fill-opacity="0.200000" stroke="#000000" stroke-width="2" stroke-opacity="0.200000" points="193.0574,-241.0778 197.599,-236.6297 191.2748,-237.2748 193.0574,-241.0778"/>
</g>
<!-- src/pages/tags.tsx&#45;&gt;src/libs/post.ts -->
<g id="edge38" class="edge">
<title>src/pages/tags.tsx&#45;&gt;src/libs/post.ts</title>
<path fill="none" stroke="#000000" stroke-width="2" stroke-opacity="0.200000" d="M109.1483,-331.4905C122.95,-332.4943 138.7247,-336.3647 148,-347.6019 165.2675,-368.5216 137.6586,-571.6169 156,-591.6019 194.1324,-633.1514 238.052,-571.2605 282,-606.6019 290.4341,-613.3843 281.3647,-623.0775 290,-629.6019 306.1645,-641.815 435.3995,-643.5656 497.6766,-643.6911"/>
<polygon fill="#000000" fill-opacity="0.200000" stroke="#000000" stroke-width="2" stroke-opacity="0.200000" points="497.8463,-645.7912 503.8489,-643.6987 497.8515,-641.5912 497.8463,-645.7912"/>
</g>
<!-- src/state/store.ts -->
<g id="node33" class="node">
<title>src/state/store.ts</title>
<g id="a_node33"><a xlink:href="src/state/store.ts" xlink:title="store.ts">
<path fill="#ddfeff" stroke="#000000" d="M103,-658.6019C103,-658.6019 61,-658.6019 61,-658.6019 58,-658.6019 55,-655.6019 55,-652.6019 55,-652.6019 55,-646.6019 55,-646.6019 55,-643.6019 58,-640.6019 61,-640.6019 61,-640.6019 103,-640.6019 103,-640.6019 106,-640.6019 109,-643.6019 109,-646.6019 109,-646.6019 109,-652.6019 109,-652.6019 109,-655.6019 106,-658.6019 103,-658.6019"/>
<text text-anchor="middle" x="82" y="-647.4019" font-family="Helvetica,sans-Serif" font-size="9.00" fill="#000000">store.ts</text>
</a>
</g>
</g>
<!-- src/state/ui/index.ts -->
<g id="node34" class="node">
<title>src/state/ui/index.ts</title>
<g id="a_node34"><a xlink:href="src/state/ui/index.ts" xlink:title="index.ts">
<path fill="#ddfeff" stroke="#000000" d="M244,-658.6019C244,-658.6019 202,-658.6019 202,-658.6019 199,-658.6019 196,-655.6019 196,-652.6019 196,-652.6019 196,-646.6019 196,-646.6019 196,-643.6019 199,-640.6019 202,-640.6019 202,-640.6019 244,-640.6019 244,-640.6019 247,-640.6019 250,-643.6019 250,-646.6019 250,-646.6019 250,-652.6019 250,-652.6019 250,-655.6019 247,-658.6019 244,-658.6019"/>
<text text-anchor="middle" x="223" y="-647.4019" font-family="Helvetica,sans-Serif" font-size="9.00" fill="#000000">index.ts</text>
</a>
</g>
</g>
<!-- src/state/store.ts&#45;&gt;src/state/ui/index.ts -->
<g id="edge39" class="edge">
<title>src/state/store.ts&#45;&gt;src/state/ui/index.ts</title>
<path fill="none" stroke="#000000" stroke-width="2" stroke-opacity="0.200000" d="M109.1862,-653.2405C129.8628,-654.1927 158.6548,-654.3554 182.106,-653.7288"/>
<polygon fill="#000000" fill-opacity="0.200000" stroke="#000000" stroke-width="2" stroke-opacity="0.200000" points="189.976,-655.5494 195.8972,-653.2367 189.8262,-651.352 189.976,-655.5494"/>
<polyline fill="none" stroke="#000000" stroke-width="2" stroke-opacity="0.200000" points="189.9011,-653.4507 186.903,-653.5577 "/>
<ellipse fill="none" stroke="#000000" stroke-width="2" stroke-opacity="0.200000" cx="184.5045" cy="-653.6433" rx="2.4" ry="2.4"/>
</g>
<!-- src/state/ui/index.ts&#45;&gt;src/state/store.ts -->
<g id="edge40" class="edge">
<title>src/state/ui/index.ts&#45;&gt;src/state/store.ts</title>
<path fill="none" stroke="#000000" stroke-width="2" stroke-opacity="0.200000" d="M195.8972,-645.967C175.2426,-645.0128 146.4543,-644.8479 122.9887,-645.4724"/>
<polygon fill="#000000" fill-opacity="0.200000" stroke="#000000" stroke-width="2" stroke-opacity="0.200000" points="115.1078,-643.6513 109.1862,-645.9632 115.2571,-647.8486 115.1078,-643.6513"/>
<polyline fill="none" stroke="#000000" stroke-width="2" stroke-opacity="0.200000" points="115.1824,-645.7499 118.1805,-645.6433 "/>
<ellipse fill="none" stroke="#000000" stroke-width="2" stroke-opacity="0.200000" cx="120.579" cy="-645.558" rx="2.4" ry="2.4"/>
</g>
<!-- src/templates/ArchiveMonthPage.tsx -->
<g id="node35" class="node">
<title>src/templates/ArchiveMonthPage.tsx</title>
<g id="a_node35"><a xlink:href="src/templates/ArchiveMonthPage.tsx" xlink:title="ArchiveMonthPage.tsx">
<path fill="#bbfeff" stroke="#000000" d="M134,-251.6019C134,-251.6019 30,-251.6019 30,-251.6019 27,-251.6019 24,-248.6019 24,-245.6019 24,-245.6019 24,-239.6019 24,-239.6019 24,-236.6019 27,-233.6019 30,-233.6019 30,-233.6019 134,-233.6019 134,-233.6019 137,-233.6019 140,-236.6019 140,-239.6019 140,-239.6019 140,-245.6019 140,-245.6019 140,-248.6019 137,-251.6019 134,-251.6019"/>
<text text-anchor="middle" x="82" y="-240.4019" font-family="Helvetica,sans-Serif" font-size="9.00" fill="#000000">ArchiveMonthPage.tsx</text>
</a>
</g>
</g>
<!-- src/templates/ArchiveMonthPage.tsx&#45;&gt;src/components/layout/layout.tsx -->
<g id="edge42" class="edge">
<title>src/templates/ArchiveMonthPage.tsx&#45;&gt;src/components/layout/layout.tsx</title>
<path fill="none" stroke="#000000" stroke-width="2" stroke-opacity="0.200000" d="M134.5389,-251.6438C139.2228,-253.306 143.7823,-255.2734 148,-257.6019 152.402,-260.0321 151.7167,-262.9679 156,-265.6019 165.241,-271.2845 176.1118,-275.669 186.3771,-278.9732"/>
<polygon fill="#000000" fill-opacity="0.200000" stroke="#000000" stroke-width="2" stroke-opacity="0.200000" points="185.9824,-281.0485 192.3342,-280.7955 187.211,-277.0322 185.9824,-281.0485"/>
</g>
<!-- src/templates/ArchiveMonthPage.tsx&#45;&gt;src/components/organisms/PostList.tsx -->
<g id="edge43" class="edge">
<title>src/templates/ArchiveMonthPage.tsx&#45;&gt;src/components/organisms/PostList.tsx</title>
<path fill="none" stroke="#000000" stroke-width="2" stroke-opacity="0.200000" d="M140.1642,-236.4142C154.3759,-234.9023 169.278,-233.317 182.4625,-231.9144"/>
<polygon fill="#000000" fill-opacity="0.200000" stroke="#000000" stroke-width="2" stroke-opacity="0.200000" points="183.0421,-233.9646 188.7863,-231.2416 182.5978,-229.7882 183.0421,-233.9646"/>
</g>
<!-- src/templates/ArchiveMonthPage.tsx&#45;&gt;src/libs/post.ts -->
<g id="edge44" class="edge">
<title>src/templates/ArchiveMonthPage.tsx&#45;&gt;src/libs/post.ts</title>
<path fill="none" stroke="#000000" stroke-width="2" stroke-opacity="0.200000" d="M140.153,-250.7542C143.0608,-252.655 145.7159,-254.9168 148,-257.6019 157.233,-268.456 151.336,-372.1368 156,-385.6019 190.2981,-484.6209 203.1271,-520.9995 290,-579.6019 352.3039,-621.6307 388.443,-581.6968 455,-616.6019 461.9635,-620.2538 461.0606,-624.9042 468,-628.6019 477.1209,-633.462 487.8144,-636.7658 497.7752,-639.0044"/>
<polygon fill="#000000" fill-opacity="0.200000" stroke="#000000" stroke-width="2" stroke-opacity="0.200000" points="497.5607,-641.1044 503.8619,-640.2649 498.4125,-636.9917 497.5607,-641.1044"/>
</g>
<!-- src/templates/ArchiveYearPage.tsx -->
<g id="node36" class="node">
<title>src/templates/ArchiveYearPage.tsx</title>
<g id="a_node36"><a xlink:href="src/templates/ArchiveYearPage.tsx" xlink:title="ArchiveYearPage.tsx">
<path fill="#bbfeff" stroke="#000000" d="M129,-281.6019C129,-281.6019 35,-281.6019 35,-281.6019 32,-281.6019 29,-278.6019 29,-275.6019 29,-275.6019 29,-269.6019 29,-269.6019 29,-266.6019 32,-263.6019 35,-263.6019 35,-263.6019 129,-263.6019 129,-263.6019 132,-263.6019 135,-266.6019 135,-269.6019 135,-269.6019 135,-275.6019 135,-275.6019 135,-278.6019 132,-281.6019 129,-281.6019"/>
<text text-anchor="middle" x="82" y="-270.4019" font-family="Helvetica,sans-Serif" font-size="9.00" fill="#000000">ArchiveYearPage.tsx</text>
</a>
</g>
</g>
<!-- src/templates/ArchiveYearPage.tsx&#45;&gt;src/components/layout/layout.tsx -->
<g id="edge45" class="edge">
<title>src/templates/ArchiveYearPage.tsx&#45;&gt;src/components/layout/layout.tsx</title>
<path fill="none" stroke="#000000" stroke-width="2" stroke-opacity="0.200000" d="M135.3061,-278.2727C152.2424,-280.0745 170.5886,-282.0262 186.1016,-283.6765"/>
<polygon fill="#000000" fill-opacity="0.200000" stroke="#000000" stroke-width="2" stroke-opacity="0.200000" points="185.9311,-285.7701 192.1196,-284.3167 186.3755,-281.5937 185.9311,-285.7701"/>
</g>
<!-- src/templates/ArchiveYearPage.tsx&#45;&gt;src/components/organisms/PostList.tsx -->
<g id="edge46" class="edge">
<title>src/templates/ArchiveYearPage.tsx&#45;&gt;src/components/organisms/PostList.tsx</title>
<path fill="none" stroke="#000000" stroke-width="2" stroke-opacity="0.200000" d="M126.278,-263.5483C133.5866,-261.7658 141.0444,-259.7687 148,-257.6019 164.6361,-252.4194 182.791,-245.2006 197.0714,-239.1429"/>
<polygon fill="#000000" fill-opacity="0.200000" stroke="#000000" stroke-width="2" stroke-opacity="0.200000" points="198.2518,-240.9218 202.9387,-236.6272 196.5966,-237.0616 198.2518,-240.9218"/>
</g>
<!-- src/templates/ArchiveYearPage.tsx&#45;&gt;src/libs/post.ts -->
<g id="edge47" class="edge">
<title>src/templates/ArchiveYearPage.tsx&#45;&gt;src/libs/post.ts</title>
<path fill="none" stroke="#000000" stroke-width="2" stroke-opacity="0.200000" d="M108.8556,-281.6396C123.1162,-287.9444 139.4264,-297.9036 148,-312.6019 162.8425,-338.0472 136.1099,-555.8729 156,-577.6019 175.0392,-598.4013 260.026,-574.9312 282,-592.6019 290.4341,-599.3843 281.4723,-608.9375 290,-615.6019 319.0098,-638.2731 418.493,-625.8277 455,-630.6019 469.1576,-632.4533 484.7113,-635.0188 498.0399,-637.3818"/>
<polygon fill="#000000" fill-opacity="0.200000" stroke="#000000" stroke-width="2" stroke-opacity="0.200000" points="497.7177,-639.4575 503.9942,-638.45 498.4594,-635.3235 497.7177,-639.4575"/>
</g>
<!-- src/templates/BlogPost.tsx -->
<g id="node37" class="node">
<title>src/templates/BlogPost.tsx</title>
<g id="a_node37"><a xlink:href="src/templates/BlogPost.tsx" xlink:title="BlogPost.tsx">
<path fill="#bbfeff" stroke="#000000" d="M111.5,-191.6019C111.5,-191.6019 52.5,-191.6019 52.5,-191.6019 49.5,-191.6019 46.5,-188.6019 46.5,-185.6019 46.5,-185.6019 46.5,-179.6019 46.5,-179.6019 46.5,-176.6019 49.5,-173.6019 52.5,-173.6019 52.5,-173.6019 111.5,-173.6019 111.5,-173.6019 114.5,-173.6019 117.5,-176.6019 117.5,-179.6019 117.5,-179.6019 117.5,-185.6019 117.5,-185.6019 117.5,-188.6019 114.5,-191.6019 111.5,-191.6019"/>
<text text-anchor="middle" x="82" y="-180.4019" font-family="Helvetica,sans-Serif" font-size="9.00" fill="#000000">BlogPost.tsx</text>
</a>
</g>
</g>
<!-- src/templates/BlogPost.tsx&#45;&gt;src/components/atoms/MDXComponents.tsx -->
<g id="edge48" class="edge">
<title>src/templates/BlogPost.tsx&#45;&gt;src/components/atoms/MDXComponents.tsx</title>
<path fill="none" stroke="#000000" stroke-width="2" stroke-opacity="0.200000" d="M92.2585,-173.5298C127.4624,-142.6328 243.7297,-42.5914 290,-27.6019 359.7639,-5.0015 399.742,20.6095 455,-27.6019 487.1117,-55.6186 439.3743,-91.0319 468,-122.6019 468.878,-123.5701 469.8061,-124.4814 470.778,-125.3388"/>
<polygon fill="#000000" fill-opacity="0.200000" stroke="#000000" stroke-width="2" stroke-opacity="0.200000" points="469.9031,-127.3044 475.9733,-129.1921 472.4052,-123.931 469.9031,-127.3044"/>
</g>
<!-- src/templates/BlogPost.tsx&#45;&gt;src/components/content/tags.tsx -->
<g id="edge49" class="edge">
<title>src/templates/BlogPost.tsx&#45;&gt;src/components/content/tags.tsx</title>
<path fill="none" stroke="#000000" stroke-width="2" stroke-opacity="0.200000" d="M95.6444,-173.5351C131.5359,-150.9052 229.4289,-97.255 282,-147.6019 296.8595,-161.8327 276.4785,-317.0941 290,-332.6019 301.929,-346.2833 321.809,-350.1958 339.0649,-350.6098"/>
<polygon fill="#000000" fill-opacity="0.200000" stroke="#000000" stroke-width="2" stroke-opacity="0.200000" points="339.282,-352.7099 345.284,-350.6157 339.2861,-348.5099 339.282,-352.7099"/>
</g>
<!-- src/templates/BlogPost.tsx&#45;&gt;src/components/layout/layout.tsx -->
<g id="edge50" class="edge">
<title>src/templates/BlogPost.tsx&#45;&gt;src/components/layout/layout.tsx</title>
<path fill="none" stroke="#000000" stroke-width="2" stroke-opacity="0.200000" d="M117.5918,-182.9036C128.8254,-184.8324 140.3017,-189.0378 148,-197.6019 168.3434,-220.233 136.7398,-242.0419 156,-265.6019 163.5224,-274.8036 174.9743,-280.1902 186.2938,-283.3319"/>
<polygon fill="#000000" fill-opacity="0.200000" stroke="#000000" stroke-width="2" stroke-opacity="0.200000" points="185.8518,-285.3856 192.1796,-284.7784 186.8542,-281.307 185.8518,-285.3856"/>
</g>
<!-- src/templates/IndividualTagPage.tsx -->
<g id="node38" class="node">
<title>src/templates/IndividualTagPage.tsx</title>
<g id="a_node38"><a xlink:href="src/templates/IndividualTagPage.tsx" xlink:title="IndividualTagPage.tsx">
<path fill="#bbfeff" stroke="#000000" d="M132.5,-221.6019C132.5,-221.6019 31.5,-221.6019 31.5,-221.6019 28.5,-221.6019 25.5,-218.6019 25.5,-215.6019 25.5,-215.6019 25.5,-209.6019 25.5,-209.6019 25.5,-206.6019 28.5,-203.6019 31.5,-203.6019 31.5,-203.6019 132.5,-203.6019 132.5,-203.6019 135.5,-203.6019 138.5,-206.6019 138.5,-209.6019 138.5,-209.6019 138.5,-215.6019 138.5,-215.6019 138.5,-218.6019 135.5,-221.6019 132.5,-221.6019"/>
<text text-anchor="middle" x="82" y="-210.4019" font-family="Helvetica,sans-Serif" font-size="9.00" fill="#000000">IndividualTagPage.tsx</text>
</a>
</g>
</g>
<!-- src/templates/IndividualTagPage.tsx&#45;&gt;src/components/layout/layout.tsx -->
<g id="edge51" class="edge">
<title>src/templates/IndividualTagPage.tsx&#45;&gt;src/components/layout/layout.tsx</title>
<path fill="none" stroke="#000000" stroke-width="2" stroke-opacity="0.200000" d="M138.8009,-220.6269C142.1647,-222.5376 145.2801,-224.8381 148,-227.6019 160.1061,-239.903 144.4838,-252.7467 156,-265.6019 163.7888,-274.2962 175.0694,-279.566 186.1605,-282.7561"/>
<polygon fill="#000000" fill-opacity="0.200000" stroke="#000000" stroke-width="2" stroke-opacity="0.200000" points="185.9459,-284.8688 192.2794,-284.3229 186.9879,-280.8001 185.9459,-284.8688"/>
</g>
<!-- src/templates/IndividualTagPage.tsx&#45;&gt;src/components/organisms/PostList.tsx -->
<g id="edge52" class="edge">
<title>src/templates/IndividualTagPage.tsx&#45;&gt;src/components/organisms/PostList.tsx</title>
<path fill="none" stroke="#000000" stroke-width="2" stroke-opacity="0.200000" d="M138.5377,-218.6165C153.2874,-220.1856 168.8865,-221.8451 182.6109,-223.3052"/>
<polygon fill="#000000" fill-opacity="0.200000" stroke="#000000" stroke-width="2" stroke-opacity="0.200000" points="182.5865,-225.4143 188.7751,-223.9609 183.0309,-221.2379 182.5865,-225.4143"/>
</g>
<!-- src/tests/libs/Post.test.ts -->
<g id="node39" class="node">
<title>src/tests/libs/Post.test.ts</title>
<g id="a_node39"><a xlink:href="src/tests/libs/Post.test.ts" xlink:title="Post.test.ts">
<path fill="#ddfeff" stroke="#000000" d="M400,-550.6019C400,-550.6019 345,-550.6019 345,-550.6019 342,-550.6019 339,-547.6019 339,-544.6019 339,-544.6019 339,-538.6019 339,-538.6019 339,-535.6019 342,-532.6019 345,-532.6019 345,-532.6019 400,-532.6019 400,-532.6019 403,-532.6019 406,-535.6019 406,-538.6019 406,-538.6019 406,-544.6019 406,-544.6019 406,-547.6019 403,-550.6019 400,-550.6019"/>
<text text-anchor="middle" x="372.5" y="-539.4019" font-family="Helvetica,sans-Serif" font-size="9.00" fill="#000000">Post.test.ts</text>
</a>
</g>
</g>
<!-- src/tests/libs/Post.test.ts&#45;&gt;src/libs/post.ts -->
<g id="edge53" class="edge">
<title>src/tests/libs/Post.test.ts&#45;&gt;src/libs/post.ts</title>
<path fill="none" stroke="#000000" stroke-width="2" stroke-opacity="0.200000" d="M386.5594,-550.6303C404.0259,-562.3141 434.0746,-583.9915 455,-607.6019 462.2807,-615.8168 459.0988,-622.1782 468,-628.6019 476.6883,-634.8719 487.6382,-638.5524 497.9619,-640.7025"/>
<polygon fill="#000000" fill-opacity="0.200000" stroke="#000000" stroke-width="2" stroke-opacity="0.200000" points="497.6658,-642.7831 503.9462,-641.7996 498.4233,-638.652 497.6658,-642.7831"/>
</g>
<!-- src/tests/libs/generate_variables.test.ts -->
<g id="node40" class="node">
<title>src/tests/libs/generate_variables.test.ts</title>
<g id="a_node40"><a xlink:href="src/tests/libs/generate_variables.test.ts" xlink:title="generate_variables.test.ts">
<path fill="#ddfeff" stroke="#000000" d="M433,-520.6019C433,-520.6019 312,-520.6019 312,-520.6019 309,-520.6019 306,-517.6019 306,-514.6019 306,-514.6019 306,-508.6019 306,-508.6019 306,-505.6019 309,-502.6019 312,-502.6019 312,-502.6019 433,-502.6019 433,-502.6019 436,-502.6019 439,-505.6019 439,-508.6019 439,-508.6019 439,-514.6019 439,-514.6019 439,-517.6019 436,-520.6019 433,-520.6019"/>
<text text-anchor="middle" x="372.5" y="-509.4019" font-family="Helvetica,sans-Serif" font-size="9.00" fill="#000000">generate_variables.test.ts</text>
</a>
</g>
</g>
<!-- src/tests/libs/generate_variables.test.ts&#45;&gt;src/styles/variables.ts -->
<g id="edge54" class="edge">
<title>src/tests/libs/generate_variables.test.ts&#45;&gt;src/styles/variables.ts</title>
<path fill="none" stroke="#000000" stroke-width="2" stroke-opacity="0.200000" d="M439.2613,-507.4723C495.9492,-503.9658 575.4561,-499.0479 622.9883,-496.1077"/>
<polygon fill="#000000" fill-opacity="0.200000" stroke="#000000" stroke-width="2" stroke-opacity="0.200000" points="623.3334,-498.1905 629.1923,-495.724 623.0741,-493.9985 623.3334,-498.1905"/>
</g>
<!-- src/utils/nage.ts -->
<g id="node41" class="node">
<title>src/utils/nage.ts</title>
<g id="a_node41"><a xlink:href="src/utils/nage.ts" xlink:title="nage.ts">
<path fill="#ccffcc" stroke="#000000" d="M103,-96.6019C103,-96.6019 61,-96.6019 61,-96.6019 58,-96.6019 55,-93.6019 55,-90.6019 55,-90.6019 55,-84.6019 55,-84.6019 55,-81.6019 58,-78.6019 61,-78.6019 61,-78.6019 103,-78.6019 103,-78.6019 106,-78.6019 109,-81.6019 109,-84.6019 109,-84.6019 109,-90.6019 109,-90.6019 109,-93.6019 106,-96.6019 103,-96.6019"/>
<text text-anchor="middle" x="82" y="-85.4019" font-family="Helvetica,sans-Serif" font-size="9.00" fill="#000000">nage.ts</text>
</a>
</g>
</g>
<!-- src/utils/throwIfNully.ts -->
<g id="node42" class="node">
<title>src/utils/throwIfNully.ts</title>
<g id="a_node42"><a xlink:href="src/utils/throwIfNully.ts" xlink:title="throwIfNully.ts">
<path fill="#ccffcc" stroke="#000000" d="M116.5,-66.6019C116.5,-66.6019 47.5,-66.6019 47.5,-66.6019 44.5,-66.6019 41.5,-63.6019 41.5,-60.6019 41.5,-60.6019 41.5,-54.6019 41.5,-54.6019 41.5,-51.6019 44.5,-48.6019 47.5,-48.6019 47.5,-48.6019 116.5,-48.6019 116.5,-48.6019 119.5,-48.6019 122.5,-51.6019 122.5,-54.6019 122.5,-54.6019 122.5,-60.6019 122.5,-60.6019 122.5,-63.6019 119.5,-66.6019 116.5,-66.6019"/>
<text text-anchor="middle" x="82" y="-55.4019" font-family="Helvetica,sans-Serif" font-size="9.00" fill="#000000">throwIfNully.ts</text>
</a>
</g>
</g>
</g>
</svg>
