<?xml version="1.0" encoding="UTF-8" standalone="no"?>
<!DOCTYPE svg PUBLIC "-//W3C//DTD SVG 1.1//EN"
 "http://www.w3.org/Graphics/SVG/1.1/DTD/svg11.dtd">
<!-- Generated by graphviz version 2.43.0 (0)
 -->
<!-- Title: dependency&#45;cruiser output Pages: 1 -->
<svg width="1193pt" height="1342pt"
 viewBox="0.00 0.00 1193.00 1341.61" xmlns="http://www.w3.org/2000/svg" xmlns:xlink="http://www.w3.org/1999/xlink">
<g id="graph0" class="graph" transform="scale(1 1) rotate(0) translate(4 1337.61)">
<title>dependency&#45;cruiser output</title>
<polygon fill="white" stroke="transparent" points="-4,4 -4,-1337.61 1189,-1337.61 1189,4 -4,4"/>
<g id="clust1" class="cluster">
<title>cluster_gatsby</title>
<path fill="#ffffff" stroke="black" stroke-width="2" d="M115,-1149.61C115,-1149.61 427.5,-1149.61 427.5,-1149.61 433.5,-1149.61 439.5,-1155.61 439.5,-1161.61 439.5,-1161.61 439.5,-1313.61 439.5,-1313.61 439.5,-1319.61 433.5,-1325.61 427.5,-1325.61 427.5,-1325.61 115,-1325.61 115,-1325.61 109,-1325.61 103,-1319.61 103,-1313.61 103,-1313.61 103,-1161.61 103,-1161.61 103,-1155.61 109,-1149.61 115,-1149.61"/>
<text text-anchor="middle" x="271.25" y="-1314.41" font-family="Helvetica,sans-Serif" font-weight="bold" font-size="9.00">gatsby</text>
</g>
<g id="clust2" class="cluster">
<title>cluster_gatsby/browser</title>
<path fill="#ffffff" stroke="black" stroke-width="2" d="M123,-1247.61C123,-1247.61 169,-1247.61 169,-1247.61 175,-1247.61 181,-1253.61 181,-1259.61 181,-1259.61 181,-1287.61 181,-1287.61 181,-1293.61 175,-1299.61 169,-1299.61 169,-1299.61 123,-1299.61 123,-1299.61 117,-1299.61 111,-1293.61 111,-1287.61 111,-1287.61 111,-1259.61 111,-1259.61 111,-1253.61 117,-1247.61 123,-1247.61"/>
<text text-anchor="middle" x="146" y="-1288.41" font-family="Helvetica,sans-Serif" font-weight="bold" font-size="9.00">browser</text>
</g>
<g id="clust3" class="cluster">
<title>cluster_gatsby/node</title>
<path fill="#ffffff" stroke="black" stroke-width="2" d="M123,-1157.61C123,-1157.61 419.5,-1157.61 419.5,-1157.61 425.5,-1157.61 431.5,-1163.61 431.5,-1169.61 431.5,-1169.61 431.5,-1227.61 431.5,-1227.61 431.5,-1233.61 425.5,-1239.61 419.5,-1239.61 419.5,-1239.61 123,-1239.61 123,-1239.61 117,-1239.61 111,-1233.61 111,-1227.61 111,-1227.61 111,-1169.61 111,-1169.61 111,-1163.61 117,-1157.61 123,-1157.61"/>
<text text-anchor="middle" x="271.25" y="-1228.41" font-family="Helvetica,sans-Serif" font-weight="bold" font-size="9.00">node</text>
</g>
<g id="clust4" class="cluster">
<title>cluster_src</title>
<path fill="#ffffff" stroke="black" stroke-width="2" d="M305,-57.61C305,-57.61 1165,-57.61 1165,-57.61 1171,-57.61 1177,-63.61 1177,-69.61 1177,-69.61 1177,-1129.61 1177,-1129.61 1177,-1135.61 1171,-1141.61 1165,-1141.61 1165,-1141.61 305,-1141.61 305,-1141.61 299,-1141.61 293,-1135.61 293,-1129.61 293,-1129.61 293,-69.61 293,-69.61 293,-63.61 299,-57.61 305,-57.61"/>
<text text-anchor="middle" x="735" y="-1130.41" font-family="Helvetica,sans-Serif" font-weight="bold" font-size="9.00">src</text>
</g>
<g id="clust5" class="cluster">
<title>cluster_src/@types</title>
<path fill="#ffffff" stroke="black" stroke-width="2" d="M341.5,-873.61C341.5,-873.61 419.5,-873.61 419.5,-873.61 425.5,-873.61 431.5,-879.61 431.5,-885.61 431.5,-885.61 431.5,-913.61 431.5,-913.61 431.5,-919.61 425.5,-925.61 419.5,-925.61 419.5,-925.61 341.5,-925.61 341.5,-925.61 335.5,-925.61 329.5,-919.61 329.5,-913.61 329.5,-913.61 329.5,-885.61 329.5,-885.61 329.5,-879.61 335.5,-873.61 341.5,-873.61"/>
<text text-anchor="middle" x="380.5" y="-914.41" font-family="Helvetica,sans-Serif" font-weight="bold" font-size="9.00">@types</text>
</g>
<g id="clust6" class="cluster">
<title>cluster_src/components</title>
<path fill="#ffffff" stroke="black" stroke-width="2" d="M601,-285.61C601,-285.61 967,-285.61 967,-285.61 973,-285.61 979,-291.61 979,-297.61 979,-297.61 979,-1019.61 979,-1019.61 979,-1025.61 973,-1031.61 967,-1031.61 967,-1031.61 601,-1031.61 601,-1031.61 595,-1031.61 589,-1025.61 589,-1019.61 589,-1019.61 589,-297.61 589,-297.61 589,-291.61 595,-285.61 601,-285.61"/>
<text text-anchor="middle" x="784" y="-1020.41" font-family="Helvetica,sans-Serif" font-weight="bold" font-size="9.00">components</text>
</g>
<g id="clust7" class="cluster">
<title>cluster_src/components/article</title>
<path fill="#ffffff" stroke="black" stroke-width="2" d="M615.5,-953.61C615.5,-953.61 821.5,-953.61 821.5,-953.61 827.5,-953.61 833.5,-959.61 833.5,-965.61 833.5,-965.61 833.5,-993.61 833.5,-993.61 833.5,-999.61 827.5,-1005.61 821.5,-1005.61 821.5,-1005.61 615.5,-1005.61 615.5,-1005.61 609.5,-1005.61 603.5,-999.61 603.5,-993.61 603.5,-993.61 603.5,-965.61 603.5,-965.61 603.5,-959.61 609.5,-953.61 615.5,-953.61"/>
<text text-anchor="middle" x="718.5" y="-994.41" font-family="Helvetica,sans-Serif" font-weight="bold" font-size="9.00">article</text>
</g>
<g id="clust8" class="cluster">
<title>cluster_src/components/atoms</title>
<path fill="#ffffff" stroke="black" stroke-width="2" d="M872,-293.61C872,-293.61 959,-293.61 959,-293.61 965,-293.61 971,-299.61 971,-305.61 971,-305.61 971,-363.61 971,-363.61 971,-369.61 965,-375.61 959,-375.61 959,-375.61 872,-375.61 872,-375.61 866,-375.61 860,-369.61 860,-363.61 860,-363.61 860,-305.61 860,-305.61 860,-299.61 866,-293.61 872,-293.61"/>
<text text-anchor="middle" x="915.5" y="-364.41" font-family="Helvetica,sans-Serif" font-weight="bold" font-size="9.00">atoms</text>
</g>
<g id="clust9" class="cluster">
<title>cluster_src/components/color&#45;checker</title>
<path fill="#ffffff" stroke="black" stroke-width="2" d="M610.5,-893.61C610.5,-893.61 671.5,-893.61 671.5,-893.61 677.5,-893.61 683.5,-899.61 683.5,-905.61 683.5,-905.61 683.5,-933.61 683.5,-933.61 683.5,-939.61 677.5,-945.61 671.5,-945.61 671.5,-945.61 610.5,-945.61 610.5,-945.61 604.5,-945.61 598.5,-939.61 598.5,-933.61 598.5,-933.61 598.5,-905.61 598.5,-905.61 598.5,-899.61 604.5,-893.61 610.5,-893.61"/>
<text text-anchor="middle" x="641" y="-934.41" font-family="Helvetica,sans-Serif" font-weight="bold" font-size="9.00">color&#45;checker</text>
</g>
<g id="clust10" class="cluster">
<title>cluster_src/components/embeddeds</title>
<path fill="#ffffff" stroke="black" stroke-width="2" d="M609,-803.61C609,-803.61 672,-803.61 672,-803.61 678,-803.61 684,-809.61 684,-815.61 684,-815.61 684,-873.61 684,-873.61 684,-879.61 678,-885.61 672,-885.61 672,-885.61 609,-885.61 609,-885.61 603,-885.61 597,-879.61 597,-873.61 597,-873.61 597,-815.61 597,-815.61 597,-809.61 603,-803.61 609,-803.61"/>
<text text-anchor="middle" x="640.5" y="-874.41" font-family="Helvetica,sans-Serif" font-weight="bold" font-size="9.00">embeddeds</text>
</g>
<g id="clust11" class="cluster">
<title>cluster_src/components/git&#45;info</title>
<path fill="#ffffff" stroke="black" stroke-width="2" d="M615.5,-743.61C615.5,-743.61 833,-743.61 833,-743.61 839,-743.61 845,-749.61 845,-755.61 845,-755.61 845,-783.61 845,-783.61 845,-789.61 839,-795.61 833,-795.61 833,-795.61 615.5,-795.61 615.5,-795.61 609.5,-795.61 603.5,-789.61 603.5,-783.61 603.5,-783.61 603.5,-755.61 603.5,-755.61 603.5,-749.61 609.5,-743.61 615.5,-743.61"/>
<text text-anchor="middle" x="724.25" y="-784.41" font-family="Helvetica,sans-Serif" font-weight="bold" font-size="9.00">git&#45;info</text>
</g>
<g id="clust12" class="cluster">
<title>cluster_src/components/layout</title>
<path fill="#ffffff" stroke="black" stroke-width="2" d="M612,-593.61C612,-593.61 826.5,-593.61 826.5,-593.61 832.5,-593.61 838.5,-599.61 838.5,-605.61 838.5,-605.61 838.5,-723.61 838.5,-723.61 838.5,-729.61 832.5,-735.61 826.5,-735.61 826.5,-735.61 612,-735.61 612,-735.61 606,-735.61 600,-729.61 600,-723.61 600,-723.61 600,-605.61 600,-605.61 600,-599.61 606,-593.61 612,-593.61"/>
<text text-anchor="middle" x="719.25" y="-724.41" font-family="Helvetica,sans-Serif" font-weight="bold" font-size="9.00">layout</text>
</g>
<g id="clust13" class="cluster">
<title>cluster_src/components/post&#45;link</title>
<path fill="#ffffff" stroke="black" stroke-width="2" d="M610.5,-383.61C610.5,-383.61 949.5,-383.61 949.5,-383.61 955.5,-383.61 961.5,-389.61 961.5,-395.61 961.5,-395.61 961.5,-423.61 961.5,-423.61 961.5,-429.61 955.5,-435.61 949.5,-435.61 949.5,-435.61 610.5,-435.61 610.5,-435.61 604.5,-435.61 598.5,-429.61 598.5,-423.61 598.5,-423.61 598.5,-395.61 598.5,-395.61 598.5,-389.61 604.5,-383.61 610.5,-383.61"/>
<text text-anchor="middle" x="780" y="-424.41" font-family="Helvetica,sans-Serif" font-weight="bold" font-size="9.00">post&#45;link</text>
</g>
<g id="clust14" class="cluster">
<title>cluster_src/components/styles</title>
<path fill="#ffffff" stroke="black" stroke-width="2" d="M743,-503.61C743,-503.61 952.5,-503.61 952.5,-503.61 958.5,-503.61 964.5,-509.61 964.5,-515.61 964.5,-515.61 964.5,-573.61 964.5,-573.61 964.5,-579.61 958.5,-585.61 952.5,-585.61 952.5,-585.61 743,-585.61 743,-585.61 737,-585.61 731,-579.61 731,-573.61 731,-573.61 731,-515.61 731,-515.61 731,-509.61 737,-503.61 743,-503.61"/>
<text text-anchor="middle" x="847.75" y="-574.41" font-family="Helvetica,sans-Serif" font-weight="bold" font-size="9.00">styles</text>
</g>
<g id="clust15" class="cluster">
<title>cluster_src/components/table&#45;of&#45;contents</title>
<path fill="#ffffff" stroke="black" stroke-width="2" d="M743.5,-443.61C743.5,-443.61 824.5,-443.61 824.5,-443.61 830.5,-443.61 836.5,-449.61 836.5,-455.61 836.5,-455.61 836.5,-483.61 836.5,-483.61 836.5,-489.61 830.5,-495.61 824.5,-495.61 824.5,-495.61 743.5,-495.61 743.5,-495.61 737.5,-495.61 731.5,-489.61 731.5,-483.61 731.5,-483.61 731.5,-455.61 731.5,-455.61 731.5,-449.61 737.5,-443.61 743.5,-443.61"/>
<text text-anchor="middle" x="784" y="-484.41" font-family="Helvetica,sans-Serif" font-weight="bold" font-size="9.00">table&#45;of&#45;contents</text>
</g>
<g id="clust16" class="cluster">
<title>cluster_src/hooks</title>
<path fill="#ffffff" stroke="black" stroke-width="2" d="M888.5,-1039.61C888.5,-1039.61 942.5,-1039.61 942.5,-1039.61 948.5,-1039.61 954.5,-1045.61 954.5,-1051.61 954.5,-1051.61 954.5,-1079.61 954.5,-1079.61 954.5,-1085.61 948.5,-1091.61 942.5,-1091.61 942.5,-1091.61 888.5,-1091.61 888.5,-1091.61 882.5,-1091.61 876.5,-1085.61 876.5,-1079.61 876.5,-1079.61 876.5,-1051.61 876.5,-1051.61 876.5,-1045.61 882.5,-1039.61 888.5,-1039.61"/>
<text text-anchor="middle" x="915.5" y="-1080.41" font-family="Helvetica,sans-Serif" font-weight="bold" font-size="9.00">hooks</text>
</g>
<g id="clust17" class="cluster">
<title>cluster_src/pages</title>
<path fill="#ffffff" stroke="black" stroke-width="2" d="M355.5,-563.61C355.5,-563.61 405.5,-563.61 405.5,-563.61 411.5,-563.61 417.5,-569.61 417.5,-575.61 417.5,-575.61 417.5,-663.61 417.5,-663.61 417.5,-669.61 411.5,-675.61 405.5,-675.61 405.5,-675.61 355.5,-675.61 355.5,-675.61 349.5,-675.61 343.5,-669.61 343.5,-663.61 343.5,-663.61 343.5,-575.61 343.5,-575.61 343.5,-569.61 349.5,-563.61 355.5,-563.61"/>
<text text-anchor="middle" x="380.5" y="-664.41" font-family="Helvetica,sans-Serif" font-weight="bold" font-size="9.00">pages</text>
</g>
<g id="clust18" class="cluster">
<title>cluster_src/templates</title>
<path fill="#ffffff" stroke="black" stroke-width="2" d="M313,-105.61C313,-105.61 696,-105.61 696,-105.61 702,-105.61 708,-111.61 708,-117.61 708,-117.61 708,-265.61 708,-265.61 708,-271.61 702,-277.61 696,-277.61 696,-277.61 313,-277.61 313,-277.61 307,-277.61 301,-271.61 301,-265.61 301,-265.61 301,-117.61 301,-117.61 301,-111.61 307,-105.61 313,-105.61"/>
<text text-anchor="middle" x="504.5" y="-266.41" font-family="Helvetica,sans-Serif" font-weight="bold" font-size="9.00">templates</text>
</g>
<g id="clust19" class="cluster">
<title>cluster_src/templates/blog&#45;post&#45;template</title>
<path fill="#ffffff" stroke="black" stroke-width="2" d="M355.5,-113.61C355.5,-113.61 688,-113.61 688,-113.61 694,-113.61 700,-119.61 700,-125.61 700,-125.61 700,-153.61 700,-153.61 700,-159.61 694,-165.61 688,-165.61 688,-165.61 355.5,-165.61 355.5,-165.61 349.5,-165.61 343.5,-159.61 343.5,-153.61 343.5,-153.61 343.5,-125.61 343.5,-125.61 343.5,-119.61 349.5,-113.61 355.5,-113.61"/>
<text text-anchor="middle" x="521.75" y="-154.41" font-family="Helvetica,sans-Serif" font-weight="bold" font-size="9.00">blog&#45;post&#45;template</text>
</g>
<g id="clust20" class="cluster">
<title>cluster_src/utils</title>
<path fill="#ffffff" stroke="black" stroke-width="2" d="M999,-65.61C999,-65.61 1157,-65.61 1157,-65.61 1163,-65.61 1169,-71.61 1169,-77.61 1169,-77.61 1169,-225.61 1169,-225.61 1169,-231.61 1163,-237.61 1157,-237.61 1157,-237.61 999,-237.61 999,-237.61 993,-237.61 987,-231.61 987,-225.61 987,-225.61 987,-77.61 987,-77.61 987,-71.61 993,-65.61 999,-65.61"/>
<text text-anchor="middle" x="1078" y="-226.41" font-family="Helvetica,sans-Serif" font-weight="bold" font-size="9.00">utils</text>
</g>
<!-- gatsby&#45;browser.js -->
<g id="node1" class="node">
<title>gatsby&#45;browser.js</title>
<g id="a_node1"><a xlink:href="gatsby-browser.js" xlink:title="gatsby&#45;browser.js">
<path fill="#ffffcc" stroke="black" d="M89,-1273.61C89,-1273.61 6,-1273.61 6,-1273.61 3,-1273.61 0,-1270.61 0,-1267.61 0,-1267.61 0,-1261.61 0,-1261.61 0,-1258.61 3,-1255.61 6,-1255.61 6,-1255.61 89,-1255.61 89,-1255.61 92,-1255.61 95,-1258.61 95,-1261.61 95,-1261.61 95,-1267.61 95,-1267.61 95,-1270.61 92,-1273.61 89,-1273.61"/>
<text text-anchor="middle" x="47.5" y="-1262.41" font-family="Helvetica,sans-Serif" font-size="9.00">gatsby&#45;browser.js</text>
</a>
</g>
</g>
<!-- gatsby/browser/init.css -->
<g id="node2" class="node">
<title>gatsby/browser/init.css</title>
<g id="a_node2"><a xlink:href="gatsby/browser/init.css" xlink:title="init.css">
<path fill="#ffffcc" stroke="black" d="M167,-1273.61C167,-1273.61 125,-1273.61 125,-1273.61 122,-1273.61 119,-1270.61 119,-1267.61 119,-1267.61 119,-1261.61 119,-1261.61 119,-1258.61 122,-1255.61 125,-1255.61 125,-1255.61 167,-1255.61 167,-1255.61 170,-1255.61 173,-1258.61 173,-1261.61 173,-1261.61 173,-1267.61 173,-1267.61 173,-1270.61 170,-1273.61 167,-1273.61"/>
<text text-anchor="middle" x="146" y="-1262.41" font-family="Helvetica,sans-Serif" font-size="9.00">init.css</text>
</a>
</g>
</g>
<!-- gatsby&#45;browser.js&#45;&gt;gatsby/browser/init.css -->
<g id="edge1" class="edge">
<title>gatsby&#45;browser.js&#45;&gt;gatsby/browser/init.css</title>
<path fill="none" stroke="#000000" stroke-width="2" stroke-opacity="0.200000" d="M95.05,-1264.61C101.07,-1264.61 107.12,-1264.61 112.84,-1264.61"/>
<polygon fill="#000000" fill-opacity="0.200000" stroke="#000000" stroke-width="2" stroke-opacity="0.200000" points="112.88,-1266.71 118.88,-1264.61 112.88,-1262.51 112.88,-1266.71"/>
</g>
<!-- gatsby&#45;config.js -->
<g id="node3" class="node">
<title>gatsby&#45;config.js</title>
<g id="a_node3"><a xlink:href="gatsby-config.js" xlink:title="gatsby&#45;config.js">
<path fill="#ccffcc" stroke="black" d="M86,-1303.61C86,-1303.61 9,-1303.61 9,-1303.61 6,-1303.61 3,-1300.61 3,-1297.61 3,-1297.61 3,-1291.61 3,-1291.61 3,-1288.61 6,-1285.61 9,-1285.61 9,-1285.61 86,-1285.61 86,-1285.61 89,-1285.61 92,-1288.61 92,-1291.61 92,-1291.61 92,-1297.61 92,-1297.61 92,-1300.61 89,-1303.61 86,-1303.61"/>
<text text-anchor="middle" x="47.5" y="-1292.41" font-family="Helvetica,sans-Serif" font-size="9.00">gatsby&#45;config.js</text>
</a>
</g>
</g>
<!-- gatsby&#45;node.js -->
<g id="node4" class="node">
<title>gatsby&#45;node.js</title>
<g id="a_node4"><a xlink:href="gatsby-node.js" xlink:title="gatsby&#45;node.js">
<path fill="#ffffcc" stroke="black" d="M83,-1198.61C83,-1198.61 12,-1198.61 12,-1198.61 9,-1198.61 6,-1195.61 6,-1192.61 6,-1192.61 6,-1186.61 6,-1186.61 6,-1183.61 9,-1180.61 12,-1180.61 12,-1180.61 83,-1180.61 83,-1180.61 86,-1180.61 89,-1183.61 89,-1186.61 89,-1186.61 89,-1192.61 89,-1192.61 89,-1195.61 86,-1198.61 83,-1198.61"/>
<text text-anchor="middle" x="47.5" y="-1187.41" font-family="Helvetica,sans-Serif" font-size="9.00">gatsby&#45;node.js</text>
</a>
</g>
</g>
<!-- gatsby/node/index.ts -->
<g id="node5" class="node">
<title>gatsby/node/index.ts</title>
<g id="a_node5"><a xlink:href="gatsby/node/index.ts" xlink:title="index.ts">
<path fill="#ddfeff" stroke="black" d="M167,-1198.61C167,-1198.61 125,-1198.61 125,-1198.61 122,-1198.61 119,-1195.61 119,-1192.61 119,-1192.61 119,-1186.61 119,-1186.61 119,-1183.61 122,-1180.61 125,-1180.61 125,-1180.61 167,-1180.61 167,-1180.61 170,-1180.61 173,-1183.61 173,-1186.61 173,-1186.61 173,-1192.61 173,-1192.61 173,-1195.61 170,-1198.61 167,-1198.61"/>
<text text-anchor="middle" x="146" y="-1187.41" font-family="Helvetica,sans-Serif" font-size="9.00">index.ts</text>
</a>
</g>
</g>
<!-- gatsby&#45;node.js&#45;&gt;gatsby/node/index.ts -->
<g id="edge2" class="edge">
<title>gatsby&#45;node.js&#45;&gt;gatsby/node/index.ts</title>
<path fill="none" stroke="#000000" stroke-width="2" stroke-opacity="0.200000" d="M89.15,-1189.61C97.03,-1189.61 105.2,-1189.61 112.77,-1189.61"/>
<polygon fill="#000000" fill-opacity="0.200000" stroke="#000000" stroke-width="2" stroke-opacity="0.200000" points="112.97,-1191.71 118.97,-1189.61 112.97,-1187.51 112.97,-1191.71"/>
</g>
<!-- gatsby/node/create&#45;pages.ts -->
<g id="node8" class="node">
<title>gatsby/node/create&#45;pages.ts</title>
<g id="a_node8"><a xlink:href="gatsby/node/create-pages.ts" xlink:title="create&#45;pages.ts">
<path fill="#ddfeff" stroke="black" d="M274,-1213.61C274,-1213.61 200,-1213.61 200,-1213.61 197,-1213.61 194,-1210.61 194,-1207.61 194,-1207.61 194,-1201.61 194,-1201.61 194,-1198.61 197,-1195.61 200,-1195.61 200,-1195.61 274,-1195.61 274,-1195.61 277,-1195.61 280,-1198.61 280,-1201.61 280,-1201.61 280,-1207.61 280,-1207.61 280,-1210.61 277,-1213.61 274,-1213.61"/>
<text text-anchor="middle" x="237" y="-1202.41" font-family="Helvetica,sans-Serif" font-size="9.00">create&#45;pages.ts</text>
</a>
</g>
</g>
<!-- gatsby/node/index.ts&#45;&gt;gatsby/node/create&#45;pages.ts -->
<g id="edge9" class="edge">
<title>gatsby/node/index.ts&#45;&gt;gatsby/node/create&#45;pages.ts</title>
<path fill="none" stroke="#000000" stroke-width="2" stroke-opacity="0.200000" d="M173.22,-1194.03C177.76,-1194.79 182.61,-1195.61 187.53,-1196.44"/>
<polygon fill="#000000" fill-opacity="0.200000" stroke="#000000" stroke-width="2" stroke-opacity="0.200000" points="187.51,-1198.56 193.77,-1197.49 188.2,-1194.42 187.51,-1198.56"/>
</g>
<!-- gatsby/node/on&#45;create&#45;node.ts -->
<g id="node14" class="node">
<title>gatsby/node/on&#45;create&#45;node.ts</title>
<g id="a_node14"><a xlink:href="gatsby/node/on-create-node.ts" xlink:title="on&#45;create&#45;node.ts">
<path fill="#ddfeff" stroke="black" d="M279,-1183.61C279,-1183.61 195,-1183.61 195,-1183.61 192,-1183.61 189,-1180.61 189,-1177.61 189,-1177.61 189,-1171.61 189,-1171.61 189,-1168.61 192,-1165.61 195,-1165.61 195,-1165.61 279,-1165.61 279,-1165.61 282,-1165.61 285,-1168.61 285,-1171.61 285,-1171.61 285,-1177.61 285,-1177.61 285,-1180.61 282,-1183.61 279,-1183.61"/>
<text text-anchor="middle" x="237" y="-1172.41" font-family="Helvetica,sans-Serif" font-size="9.00">on&#45;create&#45;node.ts</text>
</a>
</g>
</g>
<!-- gatsby/node/index.ts&#45;&gt;gatsby/node/on&#45;create&#45;node.ts -->
<g id="edge10" class="edge">
<title>gatsby/node/index.ts&#45;&gt;gatsby/node/on&#45;create&#45;node.ts</title>
<path fill="none" stroke="#000000" stroke-width="2" stroke-opacity="0.200000" d="M173.22,-1185.19C176.3,-1184.67 179.52,-1184.13 182.8,-1183.57"/>
<polygon fill="#000000" fill-opacity="0.200000" stroke="#000000" stroke-width="2" stroke-opacity="0.200000" points="183.2,-1185.64 188.76,-1182.57 182.5,-1181.49 183.2,-1185.64"/>
</g>
<!-- gatsby&#45;ssr.js -->
<g id="node6" class="node">
<title>gatsby&#45;ssr.js</title>
<g id="a_node6"><a xlink:href="gatsby-ssr.js" xlink:title="gatsby&#45;ssr.js">
<path fill="#ccffcc" stroke="black" d="M77.5,-1333.61C77.5,-1333.61 17.5,-1333.61 17.5,-1333.61 14.5,-1333.61 11.5,-1330.61 11.5,-1327.61 11.5,-1327.61 11.5,-1321.61 11.5,-1321.61 11.5,-1318.61 14.5,-1315.61 17.5,-1315.61 17.5,-1315.61 77.5,-1315.61 77.5,-1315.61 80.5,-1315.61 83.5,-1318.61 83.5,-1321.61 83.5,-1321.61 83.5,-1327.61 83.5,-1327.61 83.5,-1330.61 80.5,-1333.61 77.5,-1333.61"/>
<text text-anchor="middle" x="47.5" y="-1322.41" font-family="Helvetica,sans-Serif" font-size="9.00">gatsby&#45;ssr.js</text>
</a>
</g>
</g>
<!-- gatsby/node/colored&#45;print.ts -->
<g id="node7" class="node">
<title>gatsby/node/colored&#45;print.ts</title>
<g id="a_node7"><a xlink:href="gatsby/node/colored-print.ts" xlink:title="colored&#45;print.ts">
<path fill="#ddfeff" stroke="black" d="M417.5,-1213.61C417.5,-1213.61 343.5,-1213.61 343.5,-1213.61 340.5,-1213.61 337.5,-1210.61 337.5,-1207.61 337.5,-1207.61 337.5,-1201.61 337.5,-1201.61 337.5,-1198.61 340.5,-1195.61 343.5,-1195.61 343.5,-1195.61 417.5,-1195.61 417.5,-1195.61 420.5,-1195.61 423.5,-1198.61 423.5,-1201.61 423.5,-1201.61 423.5,-1207.61 423.5,-1207.61 423.5,-1210.61 420.5,-1213.61 417.5,-1213.61"/>
<text text-anchor="middle" x="380.5" y="-1202.41" font-family="Helvetica,sans-Serif" font-size="9.00">colored&#45;print.ts</text>
</a>
</g>
</g>
<!-- gatsby/node/create&#45;pages.ts&#45;&gt;gatsby/node/colored&#45;print.ts -->
<g id="edge8" class="edge">
<title>gatsby/node/create&#45;pages.ts&#45;&gt;gatsby/node/colored&#45;print.ts</title>
<path fill="none" stroke="#000000" stroke-width="2" stroke-opacity="0.200000" d="M280.07,-1204.61C296.18,-1204.61 314.67,-1204.61 331.31,-1204.61"/>
<polygon fill="#000000" fill-opacity="0.200000" stroke="#000000" stroke-width="2" stroke-opacity="0.200000" points="331.35,-1206.71 337.35,-1204.61 331.35,-1202.51 331.35,-1206.71"/>
</g>
<!-- src/templates/archive&#45;month&#45;template.tsx -->
<g id="node9" class="node">
<title>src/templates/archive&#45;month&#45;template.tsx</title>
<g id="a_node9"><a xlink:href="src/templates/archive-month-template.tsx" xlink:title="archive&#45;month&#45;template.tsx">
<path fill="#bbfeff" stroke="black" d="M446,-251.61C446,-251.61 315,-251.61 315,-251.61 312,-251.61 309,-248.61 309,-245.61 309,-245.61 309,-239.61 309,-239.61 309,-236.61 312,-233.61 315,-233.61 315,-233.61 446,-233.61 446,-233.61 449,-233.61 452,-236.61 452,-239.61 452,-239.61 452,-245.61 452,-245.61 452,-248.61 449,-251.61 446,-251.61"/>
<text text-anchor="middle" x="380.5" y="-240.41" font-family="Helvetica,sans-Serif" font-size="9.00">archive&#45;month&#45;template.tsx</text>
</a>
</g>
</g>
<!-- gatsby/node/create&#45;pages.ts&#45;&gt;src/templates/archive&#45;month&#45;template.tsx -->
<g id="edge3" class="edge">
<title>gatsby/node/create&#45;pages.ts&#45;&gt;src/templates/archive&#45;month&#45;template.tsx</title>
<path fill="none" stroke="#000000" stroke-width="2" stroke-opacity="0.200000" d="M279.23,-1195.31C281.41,-1193.7 283.37,-1191.81 285,-1189.61 295.4,-1175.56 290.58,-577.91 293,-560.61 309.75,-441.01 357.68,-302.45 373.99,-257.5"/>
<polygon fill="#000000" fill-opacity="0.200000" stroke="#000000" stroke-width="2" stroke-opacity="0.200000" points="375.99,-258.15 376.08,-251.79 372.04,-256.71 375.99,-258.15"/>
</g>
<!-- src/templates/archive&#45;year&#45;template.tsx -->
<g id="node10" class="node">
<title>src/templates/archive&#45;year&#45;template.tsx</title>
<g id="a_node10"><a xlink:href="src/templates/archive-year-template.tsx" xlink:title="archive&#45;year&#45;template.tsx">
<path fill="#bbfeff" stroke="black" d="M440,-221.61C440,-221.61 321,-221.61 321,-221.61 318,-221.61 315,-218.61 315,-215.61 315,-215.61 315,-209.61 315,-209.61 315,-206.61 318,-203.61 321,-203.61 321,-203.61 440,-203.61 440,-203.61 443,-203.61 446,-206.61 446,-209.61 446,-209.61 446,-215.61 446,-215.61 446,-218.61 443,-221.61 440,-221.61"/>
<text text-anchor="middle" x="380.5" y="-210.41" font-family="Helvetica,sans-Serif" font-size="9.00">archive&#45;year&#45;template.tsx</text>
</a>
</g>
</g>
<!-- gatsby/node/create&#45;pages.ts&#45;&gt;src/templates/archive&#45;year&#45;template.tsx -->
<g id="edge4" class="edge">
<title>gatsby/node/create&#45;pages.ts&#45;&gt;src/templates/archive&#45;year&#45;template.tsx</title>
<path fill="none" stroke="#000000" stroke-width="2" stroke-opacity="0.200000" d="M279.25,-1195.32C281.42,-1193.7 283.37,-1191.81 285,-1189.61 300.85,-1168.09 275.71,-247.98 293,-227.61 297.38,-222.45 302.84,-218.62 308.88,-215.83"/>
<polygon fill="#000000" fill-opacity="0.200000" stroke="#000000" stroke-width="2" stroke-opacity="0.200000" points="309.79,-217.73 314.57,-213.55 308.22,-213.83 309.79,-217.73"/>
</g>
<!-- src/templates/blog&#45;post&#45;template/index.tsx -->
<g id="node11" class="node">
<title>src/templates/blog&#45;post&#45;template/index.tsx</title>
<g id="a_node11"><a xlink:href="src/templates/blog-post-template/index.tsx" xlink:title="index.tsx">
<path fill="#bbfeff" stroke="black" d="M403.5,-139.61C403.5,-139.61 357.5,-139.61 357.5,-139.61 354.5,-139.61 351.5,-136.61 351.5,-133.61 351.5,-133.61 351.5,-127.61 351.5,-127.61 351.5,-124.61 354.5,-121.61 357.5,-121.61 357.5,-121.61 403.5,-121.61 403.5,-121.61 406.5,-121.61 409.5,-124.61 409.5,-127.61 409.5,-127.61 409.5,-133.61 409.5,-133.61 409.5,-136.61 406.5,-139.61 403.5,-139.61"/>
<text text-anchor="middle" x="380.5" y="-128.41" font-family="Helvetica,sans-Serif" font-size="9.00">index.tsx</text>
</a>
</g>
</g>
<!-- gatsby/node/create&#45;pages.ts&#45;&gt;src/templates/blog&#45;post&#45;template/index.tsx -->
<g id="edge5" class="edge">
<title>gatsby/node/create&#45;pages.ts&#45;&gt;src/templates/blog&#45;post&#45;template/index.tsx</title>
<path fill="none" stroke="#000000" stroke-width="2" stroke-opacity="0.200000" d="M279.25,-1195.32C281.42,-1193.7 283.37,-1191.81 285,-1189.61 302.23,-1166.21 273.96,-165.55 293,-143.61 305.61,-129.08 326.92,-125.74 345.23,-126.08"/>
<polygon fill="#000000" fill-opacity="0.200000" stroke="#000000" stroke-width="2" stroke-opacity="0.200000" points="345.23,-128.18 351.31,-126.33 345.4,-123.99 345.23,-128.18"/>
</g>
<!-- src/templates/tag&#45;page&#45;template.tsx -->
<g id="node12" class="node">
<title>src/templates/tag&#45;page&#45;template.tsx</title>
<g id="a_node12"><a xlink:href="src/templates/tag-page-template.tsx" xlink:title="tag&#45;page&#45;template.tsx">
<path fill="#bbfeff" stroke="black" d="M433,-191.61C433,-191.61 328,-191.61 328,-191.61 325,-191.61 322,-188.61 322,-185.61 322,-185.61 322,-179.61 322,-179.61 322,-176.61 325,-173.61 328,-173.61 328,-173.61 433,-173.61 433,-173.61 436,-173.61 439,-176.61 439,-179.61 439,-179.61 439,-185.61 439,-185.61 439,-188.61 436,-191.61 433,-191.61"/>
<text text-anchor="middle" x="380.5" y="-180.41" font-family="Helvetica,sans-Serif" font-size="9.00">tag&#45;page&#45;template.tsx</text>
</a>
</g>
</g>
<!-- gatsby/node/create&#45;pages.ts&#45;&gt;src/templates/tag&#45;page&#45;template.tsx -->
<g id="edge6" class="edge">
<title>gatsby/node/create&#45;pages.ts&#45;&gt;src/templates/tag&#45;page&#45;template.tsx</title>
<path fill="none" stroke="#000000" stroke-width="2" stroke-opacity="0.200000" d="M279.25,-1195.32C281.42,-1193.7 283.37,-1191.81 285,-1189.61 301.35,-1167.42 275.17,-218.62 293,-197.61 298.99,-190.55 307,-186 315.73,-183.16"/>
<polygon fill="#000000" fill-opacity="0.200000" stroke="#000000" stroke-width="2" stroke-opacity="0.200000" points="316.35,-185.17 321.57,-181.53 315.22,-181.12 316.35,-185.17"/>
</g>
<!-- src/utils/asserts&#45;non&#45;null.ts -->
<g id="node13" class="node">
<title>src/utils/asserts&#45;non&#45;null.ts</title>
<g id="a_node13"><a xlink:href="src/utils/asserts-non-null.ts" xlink:title="asserts&#45;non&#45;null.ts">
<path fill="#ddfeff" stroke="black" d="M1088,-211.61C1088,-211.61 1001,-211.61 1001,-211.61 998,-211.61 995,-208.61 995,-205.61 995,-205.61 995,-199.61 995,-199.61 995,-196.61 998,-193.61 1001,-193.61 1001,-193.61 1088,-193.61 1088,-193.61 1091,-193.61 1094,-196.61 1094,-199.61 1094,-199.61 1094,-205.61 1094,-205.61 1094,-208.61 1091,-211.61 1088,-211.61"/>
<text text-anchor="middle" x="1044.5" y="-200.41" font-family="Helvetica,sans-Serif" font-size="9.00">asserts&#45;non&#45;null.ts</text>
</a>
</g>
</g>
<!-- gatsby/node/create&#45;pages.ts&#45;&gt;src/utils/asserts&#45;non&#45;null.ts -->
<g id="edge7" class="edge">
<title>gatsby/node/create&#45;pages.ts&#45;&gt;src/utils/asserts&#45;non&#45;null.ts</title>
<path fill="none" stroke="#000000" stroke-width="2" stroke-opacity="0.200000" d="M279.25,-1195.32C281.42,-1193.7 283.37,-1191.81 285,-1189.61 302.77,-1165.47 274.87,-134.47 293,-110.61 355.5,-28.33 413.17,-46.61 516.5,-46.61 516.5,-46.61 516.5,-46.61 784.5,-46.61 871.27,-46.61 918.34,-1.55 979,-63.61 998.3,-83.35 969.47,-166.27 987,-187.61 987.85,-188.64 988.75,-189.6 989.71,-190.5"/>
<polygon fill="#000000" fill-opacity="0.200000" stroke="#000000" stroke-width="2" stroke-opacity="0.200000" points="988.89,-192.51 994.92,-194.51 991.45,-189.18 988.89,-192.51"/>
</g>
<!-- src/templates/post&#45;list&#45;page.tsx -->
<g id="node43" class="node">
<title>src/templates/post&#45;list&#45;page.tsx</title>
<g id="a_node43"><a xlink:href="src/templates/post-list-page.tsx" xlink:title="post&#45;list&#45;page.tsx">
<path fill="#bbfeff" stroke="black" d="M558.5,-251.61C558.5,-251.61 476.5,-251.61 476.5,-251.61 473.5,-251.61 470.5,-248.61 470.5,-245.61 470.5,-245.61 470.5,-239.61 470.5,-239.61 470.5,-236.61 473.5,-233.61 476.5,-233.61 476.5,-233.61 558.5,-233.61 558.5,-233.61 561.5,-233.61 564.5,-236.61 564.5,-239.61 564.5,-239.61 564.5,-245.61 564.5,-245.61 564.5,-248.61 561.5,-251.61 558.5,-251.61"/>
<text text-anchor="middle" x="517.5" y="-240.41" font-family="Helvetica,sans-Serif" font-size="9.00">post&#45;list&#45;page.tsx</text>
</a>
</g>
</g>
<!-- src/templates/archive&#45;month&#45;template.tsx&#45;&gt;src/templates/post&#45;list&#45;page.tsx -->
<g id="edge41" class="edge">
<title>src/templates/archive&#45;month&#45;template.tsx&#45;&gt;src/templates/post&#45;list&#45;page.tsx</title>
<path fill="none" stroke="#000000" stroke-width="2" stroke-opacity="0.200000" d="M452.16,-242.61C456.18,-242.61 460.19,-242.61 464.12,-242.61"/>
<polygon fill="#000000" fill-opacity="0.200000" stroke="#000000" stroke-width="2" stroke-opacity="0.200000" points="464.23,-244.71 470.23,-242.61 464.23,-240.51 464.23,-244.71"/>
</g>
<!-- src/templates/archive&#45;year&#45;template.tsx&#45;&gt;src/templates/post&#45;list&#45;page.tsx -->
<g id="edge42" class="edge">
<title>src/templates/archive&#45;year&#45;template.tsx&#45;&gt;src/templates/post&#45;list&#45;page.tsx</title>
<path fill="none" stroke="#000000" stroke-width="2" stroke-opacity="0.200000" d="M424.78,-221.68C433.78,-223.61 443.21,-225.65 452,-227.61 458.53,-229.06 465.42,-230.63 472.18,-232.18"/>
<polygon fill="#000000" fill-opacity="0.200000" stroke="#000000" stroke-width="2" stroke-opacity="0.200000" points="472.01,-234.3 478.33,-233.6 472.95,-230.21 472.01,-234.3"/>
</g>
<!-- src/templates/blog&#45;post&#45;template/index.tsx&#45;&gt;src/utils/asserts&#45;non&#45;null.ts -->
<g id="edge51" class="edge">
<title>src/templates/blog&#45;post&#45;template/index.tsx&#45;&gt;src/utils/asserts&#45;non&#45;null.ts</title>
<path fill="none" stroke="#000000" stroke-width="2" stroke-opacity="0.200000" d="M399.63,-121.56C416.25,-113.62 441.74,-102.31 465,-95.61 540.54,-73.82 560.88,-66.61 639.5,-66.61 639.5,-66.61 639.5,-66.61 784.5,-66.61 875.23,-66.61 920.65,-59.12 979,-128.61 996.02,-148.87 969.49,-167.77 987,-187.61 987.86,-188.58 988.77,-189.49 989.73,-190.34"/>
<polygon fill="#000000" fill-opacity="0.200000" stroke="#000000" stroke-width="2" stroke-opacity="0.200000" points="988.81,-192.28 994.88,-194.17 991.31,-188.9 988.81,-192.28"/>
</g>
<!-- src/components/article/index.tsx -->
<g id="node17" class="node">
<title>src/components/article/index.tsx</title>
<g id="a_node17"><a xlink:href="src/components/article/index.tsx" xlink:title="index.tsx">
<path fill="#bbfeff" stroke="black" d="M663.5,-979.61C663.5,-979.61 617.5,-979.61 617.5,-979.61 614.5,-979.61 611.5,-976.61 611.5,-973.61 611.5,-973.61 611.5,-967.61 611.5,-967.61 611.5,-964.61 614.5,-961.61 617.5,-961.61 617.5,-961.61 663.5,-961.61 663.5,-961.61 666.5,-961.61 669.5,-964.61 669.5,-967.61 669.5,-967.61 669.5,-973.61 669.5,-973.61 669.5,-976.61 666.5,-979.61 663.5,-979.61"/>
<text text-anchor="middle" x="640.5" y="-968.41" font-family="Helvetica,sans-Serif" font-size="9.00">index.tsx</text>
</a>
</g>
</g>
<!-- src/templates/blog&#45;post&#45;template/index.tsx&#45;&gt;src/components/article/index.tsx -->
<g id="edge46" class="edge">
<title>src/templates/blog&#45;post&#45;template/index.tsx&#45;&gt;src/components/article/index.tsx</title>
<path fill="none" stroke="#000000" stroke-width="2" stroke-opacity="0.200000" d="M409.64,-128.08C424.5,-128.41 441.74,-131.74 452,-143.61 477.31,-172.88 452.45,-455.01 465,-491.61 490.93,-567.21 543.18,-562.32 570,-637.61 593.24,-702.83 549.31,-891.87 589,-948.61 593.15,-954.54 599.27,-958.9 605.83,-962.08"/>
<polygon fill="#000000" fill-opacity="0.200000" stroke="#000000" stroke-width="2" stroke-opacity="0.200000" points="605.07,-964.04 611.41,-964.48 606.73,-960.18 605.07,-964.04"/>
</g>
<!-- src/components/atoms/tag&#45;list.tsx -->
<g id="node19" class="node">
<title>src/components/atoms/tag&#45;list.tsx</title>
<g id="a_node19"><a xlink:href="src/components/atoms/tag-list.tsx" xlink:title="tag&#45;list.tsx">
<path fill="#bbfeff" stroke="black" d="M941.5,-319.61C941.5,-319.61 889.5,-319.61 889.5,-319.61 886.5,-319.61 883.5,-316.61 883.5,-313.61 883.5,-313.61 883.5,-307.61 883.5,-307.61 883.5,-304.61 886.5,-301.61 889.5,-301.61 889.5,-301.61 941.5,-301.61 941.5,-301.61 944.5,-301.61 947.5,-304.61 947.5,-307.61 947.5,-307.61 947.5,-313.61 947.5,-313.61 947.5,-316.61 944.5,-319.61 941.5,-319.61"/>
<text text-anchor="middle" x="915.5" y="-308.41" font-family="Helvetica,sans-Serif" font-size="9.00">tag&#45;list.tsx</text>
</a>
</g>
</g>
<!-- src/templates/blog&#45;post&#45;template/index.tsx&#45;&gt;src/components/atoms/tag&#45;list.tsx -->
<g id="edge47" class="edge">
<title>src/templates/blog&#45;post&#45;template/index.tsx&#45;&gt;src/components/atoms/tag&#45;list.tsx</title>
<path fill="none" stroke="#000000" stroke-width="2" stroke-opacity="0.200000" d="M409.67,-125.25C425.83,-122.25 446.52,-118.53 465,-115.61 571.93,-98.68 600.29,-87.71 708,-98.61 769.83,-104.86 797.69,-86.3 845,-126.61 897.37,-171.22 910.35,-259.57 913.51,-295.19"/>
<polygon fill="#000000" fill-opacity="0.200000" stroke="#000000" stroke-width="2" stroke-opacity="0.200000" points="911.42,-295.39 913.99,-301.2 915.61,-295.05 911.42,-295.39"/>
</g>
<!-- src/components/git&#45;info/index.tsx -->
<g id="node23" class="node">
<title>src/components/git&#45;info/index.tsx</title>
<g id="a_node23"><a xlink:href="src/components/git-info/index.tsx" xlink:title="index.tsx">
<path fill="#bbfeff" stroke="black" d="M663.5,-769.61C663.5,-769.61 617.5,-769.61 617.5,-769.61 614.5,-769.61 611.5,-766.61 611.5,-763.61 611.5,-763.61 611.5,-757.61 611.5,-757.61 611.5,-754.61 614.5,-751.61 617.5,-751.61 617.5,-751.61 663.5,-751.61 663.5,-751.61 666.5,-751.61 669.5,-754.61 669.5,-757.61 669.5,-757.61 669.5,-763.61 669.5,-763.61 669.5,-766.61 666.5,-769.61 663.5,-769.61"/>
<text text-anchor="middle" x="640.5" y="-758.41" font-family="Helvetica,sans-Serif" font-size="9.00">index.tsx</text>
</a>
</g>
</g>
<!-- src/templates/blog&#45;post&#45;template/index.tsx&#45;&gt;src/components/git&#45;info/index.tsx -->
<g id="edge48" class="edge">
<title>src/templates/blog&#45;post&#45;template/index.tsx&#45;&gt;src/components/git&#45;info/index.tsx</title>
<path fill="none" stroke="#000000" stroke-width="2" stroke-opacity="0.200000" d="M409.52,-128.19C424.35,-128.55 441.59,-131.88 452,-143.61 467.08,-160.59 460.25,-325.4 465,-347.61 492.87,-477.98 535.17,-499.91 570,-628.61 582.96,-676.5 558.37,-699.58 589,-738.61 593.29,-744.08 599.23,-748.22 605.52,-751.34"/>
<polygon fill="#000000" fill-opacity="0.200000" stroke="#000000" stroke-width="2" stroke-opacity="0.200000" points="605.02,-753.42 611.36,-753.93 606.72,-749.58 605.02,-753.42"/>
</g>
<!-- src/components/layout/index.tsx -->
<g id="node31" class="node">
<title>src/components/layout/index.tsx</title>
<g id="a_node31"><a xlink:href="src/components/layout/index.tsx" xlink:title="index.tsx">
<path fill="#bbfeff" stroke="black" d="M663.5,-649.61C663.5,-649.61 617.5,-649.61 617.5,-649.61 614.5,-649.61 611.5,-646.61 611.5,-643.61 611.5,-643.61 611.5,-637.61 611.5,-637.61 611.5,-634.61 614.5,-631.61 617.5,-631.61 617.5,-631.61 663.5,-631.61 663.5,-631.61 666.5,-631.61 669.5,-634.61 669.5,-637.61 669.5,-637.61 669.5,-643.61 669.5,-643.61 669.5,-646.61 666.5,-649.61 663.5,-649.61"/>
<text text-anchor="middle" x="640.5" y="-638.41" font-family="Helvetica,sans-Serif" font-size="9.00">index.tsx</text>
</a>
</g>
</g>
<!-- src/templates/blog&#45;post&#45;template/index.tsx&#45;&gt;src/components/layout/index.tsx -->
<g id="edge49" class="edge">
<title>src/templates/blog&#45;post&#45;template/index.tsx&#45;&gt;src/components/layout/index.tsx</title>
<path fill="none" stroke="#000000" stroke-width="2" stroke-opacity="0.200000" d="M409.82,-128.24C424.55,-128.66 441.61,-132.03 452,-143.61 477.76,-172.29 443.7,-284.47 465,-316.61 493.99,-360.35 541.02,-326.86 570,-370.61 601.38,-417.98 553.35,-581.36 589,-625.61 593.22,-630.84 599.18,-634.31 605.53,-636.59"/>
<polygon fill="#000000" fill-opacity="0.200000" stroke="#000000" stroke-width="2" stroke-opacity="0.200000" points="605.08,-638.65 611.43,-638.36 606.29,-634.62 605.08,-638.65"/>
</g>
<!-- src/components/layout/sidebar.tsx -->
<g id="node34" class="node">
<title>src/components/layout/sidebar.tsx</title>
<g id="a_node34"><a xlink:href="src/components/layout/sidebar.tsx" xlink:title="sidebar.tsx">
<path fill="#bbfeff" stroke="black" d="M667,-619.61C667,-619.61 614,-619.61 614,-619.61 611,-619.61 608,-616.61 608,-613.61 608,-613.61 608,-607.61 608,-607.61 608,-604.61 611,-601.61 614,-601.61 614,-601.61 667,-601.61 667,-601.61 670,-601.61 673,-604.61 673,-607.61 673,-607.61 673,-613.61 673,-613.61 673,-616.61 670,-619.61 667,-619.61"/>
<text text-anchor="middle" x="640.5" y="-608.41" font-family="Helvetica,sans-Serif" font-size="9.00">sidebar.tsx</text>
</a>
</g>
</g>
<!-- src/templates/blog&#45;post&#45;template/index.tsx&#45;&gt;src/components/layout/sidebar.tsx -->
<g id="edge50" class="edge">
<title>src/templates/blog&#45;post&#45;template/index.tsx&#45;&gt;src/components/layout/sidebar.tsx</title>
<path fill="none" stroke="#000000" stroke-width="2" stroke-opacity="0.200000" d="M409.73,-128.32C424.44,-128.77 441.49,-132.13 452,-143.61 472.66,-166.16 448.78,-254.68 465,-280.61 493.98,-326.94 538.63,-299.86 570,-344.61 594.47,-379.51 578.76,-397.23 589,-438.61 603.51,-497.27 625.07,-565.9 634.63,-595.63"/>
<polygon fill="#000000" fill-opacity="0.200000" stroke="#000000" stroke-width="2" stroke-opacity="0.200000" points="632.64,-596.3 636.48,-601.36 636.63,-595.01 632.64,-596.3"/>
</g>
<!-- src/templates/blog&#45;post&#45;template/article&#45;elements.tsx -->
<g id="node45" class="node">
<title>src/templates/blog&#45;post&#45;template/article&#45;elements.tsx</title>
<g id="a_node45"><a xlink:href="src/templates/blog-post-template/article-elements.tsx" xlink:title="article&#45;elements.tsx">
<path fill="#bbfeff" stroke="black" d="M564,-139.61C564,-139.61 471,-139.61 471,-139.61 468,-139.61 465,-136.61 465,-133.61 465,-133.61 465,-127.61 465,-127.61 465,-124.61 468,-121.61 471,-121.61 471,-121.61 564,-121.61 564,-121.61 567,-121.61 570,-124.61 570,-127.61 570,-127.61 570,-133.61 570,-133.61 570,-136.61 567,-139.61 564,-139.61"/>
<text text-anchor="middle" x="517.5" y="-128.41" font-family="Helvetica,sans-Serif" font-size="9.00">article&#45;elements.tsx</text>
</a>
</g>
</g>
<!-- src/templates/blog&#45;post&#45;template/index.tsx&#45;&gt;src/templates/blog&#45;post&#45;template/article&#45;elements.tsx -->
<g id="edge52" class="edge">
<title>src/templates/blog&#45;post&#45;template/index.tsx&#45;&gt;src/templates/blog&#45;post&#45;template/article&#45;elements.tsx</title>
<path fill="none" stroke="#000000" stroke-width="2" stroke-opacity="0.200000" d="M409.8,-130.61C423.99,-130.61 441.71,-130.61 458.61,-130.61"/>
<polygon fill="#000000" fill-opacity="0.200000" stroke="#000000" stroke-width="2" stroke-opacity="0.200000" points="458.79,-132.71 464.79,-130.61 458.79,-128.51 458.79,-132.71"/>
</g>
<!-- src/templates/tag&#45;page&#45;template.tsx&#45;&gt;src/templates/post&#45;list&#45;page.tsx -->
<g id="edge55" class="edge">
<title>src/templates/tag&#45;page&#45;template.tsx&#45;&gt;src/templates/post&#45;list&#45;page.tsx</title>
<path fill="none" stroke="#000000" stroke-width="2" stroke-opacity="0.200000" d="M435.33,-191.7C441.06,-193.36 446.72,-195.32 452,-197.61 470.58,-205.67 489.28,-219.49 501.72,-229.7"/>
<polygon fill="#000000" fill-opacity="0.200000" stroke="#000000" stroke-width="2" stroke-opacity="0.200000" points="500.38,-231.31 506.33,-233.55 503.08,-228.09 500.38,-231.31"/>
</g>
<!-- src/utils/panic.ts -->
<g id="node25" class="node">
<title>src/utils/panic.ts</title>
<g id="a_node25"><a xlink:href="src/utils/panic.ts" xlink:title="panic.ts">
<path fill="#ddfeff" stroke="black" d="M1155,-211.61C1155,-211.61 1113,-211.61 1113,-211.61 1110,-211.61 1107,-208.61 1107,-205.61 1107,-205.61 1107,-199.61 1107,-199.61 1107,-196.61 1110,-193.61 1113,-193.61 1113,-193.61 1155,-193.61 1155,-193.61 1158,-193.61 1161,-196.61 1161,-199.61 1161,-199.61 1161,-205.61 1161,-205.61 1161,-208.61 1158,-211.61 1155,-211.61"/>
<text text-anchor="middle" x="1134" y="-200.41" font-family="Helvetica,sans-Serif" font-size="9.00">panic.ts</text>
</a>
</g>
</g>
<!-- src/utils/asserts&#45;non&#45;null.ts&#45;&gt;src/utils/panic.ts -->
<g id="edge56" class="edge">
<title>src/utils/asserts&#45;non&#45;null.ts&#45;&gt;src/utils/panic.ts</title>
<path fill="none" stroke="#000000" stroke-width="2" stroke-opacity="0.200000" d="M1094.11,-202.61C1096.31,-202.61 1098.5,-202.61 1100.65,-202.61"/>
<polygon fill="#000000" fill-opacity="0.200000" stroke="#000000" stroke-width="2" stroke-opacity="0.200000" points="1100.95,-204.71 1106.95,-202.61 1100.95,-200.51 1100.95,-204.71"/>
</g>
<!-- gatsby/node/on&#45;create&#45;node.ts&#45;&gt;src/utils/asserts&#45;non&#45;null.ts -->
<g id="edge11" class="edge">
<title>gatsby/node/on&#45;create&#45;node.ts&#45;&gt;src/utils/asserts&#45;non&#45;null.ts</title>
<path fill="none" stroke="#000000" stroke-width="2" stroke-opacity="0.200000" d="M238.1,-1165.48C239.25,-1060.25 251.14,-79.45 293,-36.61 362.6,34.62 416.91,-20.61 516.5,-20.61 516.5,-20.61 516.5,-20.61 784.5,-20.61 871.24,-20.61 918.57,25.61 979,-36.61 990.71,-48.66 976.41,-174.56 987,-187.61 987.84,-188.64 988.74,-189.61 989.7,-190.51"/>
<polygon fill="#000000" fill-opacity="0.200000" stroke="#000000" stroke-width="2" stroke-opacity="0.200000" points="988.86,-192.52 994.89,-194.54 991.43,-189.2 988.86,-192.52"/>
</g>
<!-- src/@types/tailwindcss.d.ts -->
<g id="node15" class="node">
<title>src/@types/tailwindcss.d.ts</title>
<g id="a_node15"><a xlink:href="src/@types/tailwindcss.d.ts" xlink:title="tailwindcss.d.ts">
<path fill="#ccffcc" stroke="black" d="M417.5,-899.61C417.5,-899.61 343.5,-899.61 343.5,-899.61 340.5,-899.61 337.5,-896.61 337.5,-893.61 337.5,-893.61 337.5,-887.61 337.5,-887.61 337.5,-884.61 340.5,-881.61 343.5,-881.61 343.5,-881.61 417.5,-881.61 417.5,-881.61 420.5,-881.61 423.5,-884.61 423.5,-887.61 423.5,-887.61 423.5,-893.61 423.5,-893.61 423.5,-896.61 420.5,-899.61 417.5,-899.61"/>
<text text-anchor="middle" x="380.5" y="-888.41" font-family="Helvetica,sans-Serif" font-size="9.00">tailwindcss.d.ts</text>
</a>
</g>
</g>
<!-- src/components/article/article&#45;styles.ts -->
<g id="node16" class="node">
<title>src/components/article/article&#45;styles.ts</title>
<g id="a_node16"><a xlink:href="src/components/article/article-styles.ts" xlink:title="article&#45;styles.ts">
<path fill="#ddfeff" stroke="black" d="M819.5,-979.61C819.5,-979.61 747.5,-979.61 747.5,-979.61 744.5,-979.61 741.5,-976.61 741.5,-973.61 741.5,-973.61 741.5,-967.61 741.5,-967.61 741.5,-964.61 744.5,-961.61 747.5,-961.61 747.5,-961.61 819.5,-961.61 819.5,-961.61 822.5,-961.61 825.5,-964.61 825.5,-967.61 825.5,-967.61 825.5,-973.61 825.5,-973.61 825.5,-976.61 822.5,-979.61 819.5,-979.61"/>
<text text-anchor="middle" x="783.5" y="-968.41" font-family="Helvetica,sans-Serif" font-size="9.00">article&#45;styles.ts</text>
</a>
</g>
</g>
<!-- src/components/article/index.tsx&#45;&gt;src/components/article/article&#45;styles.ts -->
<g id="edge12" class="edge">
<title>src/components/article/index.tsx&#45;&gt;src/components/article/article&#45;styles.ts</title>
<path fill="none" stroke="#000000" stroke-width="2" stroke-opacity="0.200000" d="M669.69,-970.61C688.43,-970.61 713.48,-970.61 735.22,-970.61"/>
<polygon fill="#000000" fill-opacity="0.200000" stroke="#000000" stroke-width="2" stroke-opacity="0.200000" points="735.26,-972.71 741.26,-970.61 735.26,-968.51 735.26,-972.71"/>
</g>
<!-- src/components/atoms/anchor&#45;or&#45;link.tsx -->
<g id="node18" class="node">
<title>src/components/atoms/anchor&#45;or&#45;link.tsx</title>
<g id="a_node18"><a xlink:href="src/components/atoms/anchor-or-link.tsx" xlink:title="anchor&#45;or&#45;link.tsx">
<path fill="#bbfeff" stroke="black" d="M957,-349.61C957,-349.61 874,-349.61 874,-349.61 871,-349.61 868,-346.61 868,-343.61 868,-343.61 868,-337.61 868,-337.61 868,-334.61 871,-331.61 874,-331.61 874,-331.61 957,-331.61 957,-331.61 960,-331.61 963,-334.61 963,-337.61 963,-337.61 963,-343.61 963,-343.61 963,-346.61 960,-349.61 957,-349.61"/>
<text text-anchor="middle" x="915.5" y="-338.41" font-family="Helvetica,sans-Serif" font-size="9.00">anchor&#45;or&#45;link.tsx</text>
</a>
</g>
</g>
<!-- src/components/color&#45;checker/index.tsx -->
<g id="node20" class="node">
<title>src/components/color&#45;checker/index.tsx</title>
<g id="a_node20"><a xlink:href="src/components/color-checker/index.tsx" xlink:title="index.tsx">
<path fill="#ccffcc" stroke="black" d="M663.5,-919.61C663.5,-919.61 617.5,-919.61 617.5,-919.61 614.5,-919.61 611.5,-916.61 611.5,-913.61 611.5,-913.61 611.5,-907.61 611.5,-907.61 611.5,-904.61 614.5,-901.61 617.5,-901.61 617.5,-901.61 663.5,-901.61 663.5,-901.61 666.5,-901.61 669.5,-904.61 669.5,-907.61 669.5,-907.61 669.5,-913.61 669.5,-913.61 669.5,-916.61 666.5,-919.61 663.5,-919.61"/>
<text text-anchor="middle" x="640.5" y="-908.41" font-family="Helvetica,sans-Serif" font-size="9.00">index.tsx</text>
</a>
</g>
</g>
<!-- src/components/embeddeds/niconico.tsx -->
<g id="node21" class="node">
<title>src/components/embeddeds/niconico.tsx</title>
<g id="a_node21"><a xlink:href="src/components/embeddeds/niconico.tsx" xlink:title="niconico.tsx">
<path fill="#ccffcc" stroke="black" d="M670,-859.61C670,-859.61 611,-859.61 611,-859.61 608,-859.61 605,-856.61 605,-853.61 605,-853.61 605,-847.61 605,-847.61 605,-844.61 608,-841.61 611,-841.61 611,-841.61 670,-841.61 670,-841.61 673,-841.61 676,-844.61 676,-847.61 676,-847.61 676,-853.61 676,-853.61 676,-856.61 673,-859.61 670,-859.61"/>
<text text-anchor="middle" x="640.5" y="-848.41" font-family="Helvetica,sans-Serif" font-size="9.00">niconico.tsx</text>
</a>
</g>
</g>
<!-- src/components/embeddeds/youtube.tsx -->
<g id="node22" class="node">
<title>src/components/embeddeds/youtube.tsx</title>
<g id="a_node22"><a xlink:href="src/components/embeddeds/youtube.tsx" xlink:title="youtube.tsx">
<path fill="#ccffcc" stroke="black" d="M670,-829.61C670,-829.61 611,-829.61 611,-829.61 608,-829.61 605,-826.61 605,-823.61 605,-823.61 605,-817.61 605,-817.61 605,-814.61 608,-811.61 611,-811.61 611,-811.61 670,-811.61 670,-811.61 673,-811.61 676,-814.61 676,-817.61 676,-817.61 676,-823.61 676,-823.61 676,-826.61 673,-829.61 670,-829.61"/>
<text text-anchor="middle" x="640.5" y="-818.41" font-family="Helvetica,sans-Serif" font-size="9.00">youtube.tsx</text>
</a>
</g>
</g>
<!-- src/components/git&#45;info/useLatestCommit.ts -->
<g id="node24" class="node">
<title>src/components/git&#45;info/useLatestCommit.ts</title>
<g id="a_node24"><a xlink:href="src/components/git-info/useLatestCommit.ts" xlink:title="useLatestCommit.ts">
<path fill="#ddfeff" stroke="black" d="M831,-769.61C831,-769.61 736,-769.61 736,-769.61 733,-769.61 730,-766.61 730,-763.61 730,-763.61 730,-757.61 730,-757.61 730,-754.61 733,-751.61 736,-751.61 736,-751.61 831,-751.61 831,-751.61 834,-751.61 837,-754.61 837,-757.61 837,-757.61 837,-763.61 837,-763.61 837,-766.61 834,-769.61 831,-769.61"/>
<text text-anchor="middle" x="783.5" y="-758.41" font-family="Helvetica,sans-Serif" font-size="9.00">useLatestCommit.ts</text>
</a>
</g>
</g>
<!-- src/components/git&#45;info/index.tsx&#45;&gt;src/components/git&#45;info/useLatestCommit.ts -->
<g id="edge13" class="edge">
<title>src/components/git&#45;info/index.tsx&#45;&gt;src/components/git&#45;info/useLatestCommit.ts</title>
<path fill="none" stroke="#000000" stroke-width="2" stroke-opacity="0.200000" d="M669.69,-760.61C685.15,-760.61 704.9,-760.61 723.55,-760.61"/>
<polygon fill="#000000" fill-opacity="0.200000" stroke="#000000" stroke-width="2" stroke-opacity="0.200000" points="723.82,-762.71 729.82,-760.61 723.82,-758.51 723.82,-762.71"/>
</g>
<!-- src/components/git&#45;info/useLatestCommit.ts&#45;&gt;src/utils/panic.ts -->
<g id="edge14" class="edge">
<title>src/components/git&#45;info/useLatestCommit.ts&#45;&gt;src/utils/panic.ts</title>
<path fill="none" stroke="#000000" stroke-width="2" stroke-opacity="0.200000" d="M788.24,-769.91C799.03,-797.16 830.37,-879.4 845,-950.61 851.92,-984.29 834.54,-1081.5 860,-1104.61 899.17,-1140.15 938.58,-1138.71 979,-1104.61 1121.42,-984.44 1132.14,-327.08 1132.94,-217.96"/>
<polygon fill="#000000" fill-opacity="0.200000" stroke="#000000" stroke-width="2" stroke-opacity="0.200000" points="1135.04,-217.85 1132.98,-211.84 1130.84,-217.82 1135.04,-217.85"/>
</g>
<!-- src/components/layout/breadcrumbs.tsx -->
<g id="node26" class="node">
<title>src/components/layout/breadcrumbs.tsx</title>
<g id="a_node26"><a xlink:href="src/components/layout/breadcrumbs.tsx" xlink:title="breadcrumbs.tsx">
<path fill="#bbfeff" stroke="black" d="M824.5,-679.61C824.5,-679.61 742.5,-679.61 742.5,-679.61 739.5,-679.61 736.5,-676.61 736.5,-673.61 736.5,-673.61 736.5,-667.61 736.5,-667.61 736.5,-664.61 739.5,-661.61 742.5,-661.61 742.5,-661.61 824.5,-661.61 824.5,-661.61 827.5,-661.61 830.5,-664.61 830.5,-667.61 830.5,-667.61 830.5,-673.61 830.5,-673.61 830.5,-676.61 827.5,-679.61 824.5,-679.61"/>
<text text-anchor="middle" x="783.5" y="-668.41" font-family="Helvetica,sans-Serif" font-size="9.00">breadcrumbs.tsx</text>
</a>
</g>
</g>
<!-- src/components/layout/breadcrumbs.tsx&#45;&gt;src/utils/asserts&#45;non&#45;null.ts -->
<g id="edge16" class="edge">
<title>src/components/layout/breadcrumbs.tsx&#45;&gt;src/utils/asserts&#45;non&#45;null.ts</title>
<path fill="none" stroke="#000000" stroke-width="2" stroke-opacity="0.200000" d="M830.59,-675.15C836.13,-677.54 841.18,-680.9 845,-685.61 873.67,-720.9 827.26,-1063.05 860,-1094.61 879.04,-1112.96 959.64,-1112.62 979,-1094.61 1045.88,-1032.39 1044.31,-330.89 1043.61,-217.92"/>
<polygon fill="#000000" fill-opacity="0.200000" stroke="#000000" stroke-width="2" stroke-opacity="0.200000" points="1045.71,-217.87 1043.57,-211.88 1041.51,-217.89 1045.71,-217.87"/>
</g>
<!-- src/hooks/use&#45;site.ts -->
<g id="node27" class="node">
<title>src/hooks/use&#45;site.ts</title>
<g id="a_node27"><a xlink:href="src/hooks/use-site.ts" xlink:title="use&#45;site.ts">
<path fill="#ddfeff" stroke="black" d="M940.5,-1065.61C940.5,-1065.61 890.5,-1065.61 890.5,-1065.61 887.5,-1065.61 884.5,-1062.61 884.5,-1059.61 884.5,-1059.61 884.5,-1053.61 884.5,-1053.61 884.5,-1050.61 887.5,-1047.61 890.5,-1047.61 890.5,-1047.61 940.5,-1047.61 940.5,-1047.61 943.5,-1047.61 946.5,-1050.61 946.5,-1053.61 946.5,-1053.61 946.5,-1059.61 946.5,-1059.61 946.5,-1062.61 943.5,-1065.61 940.5,-1065.61"/>
<text text-anchor="middle" x="915.5" y="-1054.41" font-family="Helvetica,sans-Serif" font-size="9.00">use&#45;site.ts</text>
</a>
</g>
</g>
<!-- src/components/layout/breadcrumbs.tsx&#45;&gt;src/hooks/use&#45;site.ts -->
<g id="edge15" class="edge">
<title>src/components/layout/breadcrumbs.tsx&#45;&gt;src/hooks/use&#45;site.ts</title>
<path fill="none" stroke="#000000" stroke-width="2" stroke-opacity="0.200000" d="M830.57,-675.95C835.98,-678.23 840.99,-681.36 845,-685.61 894.91,-738.49 910.51,-978.47 913.79,-1041.44"/>
<polygon fill="#000000" fill-opacity="0.200000" stroke="#000000" stroke-width="2" stroke-opacity="0.200000" points="911.7,-1041.71 914.1,-1047.6 915.89,-1041.5 911.7,-1041.71"/>
</g>
<!-- src/components/styles/styles.ts -->
<g id="node28" class="node">
<title>src/components/styles/styles.ts</title>
<g id="a_node28"><a xlink:href="src/components/styles/styles.ts" xlink:title="styles.ts">
<path fill="#ddfeff" stroke="black" d="M936.5,-559.61C936.5,-559.61 894.5,-559.61 894.5,-559.61 891.5,-559.61 888.5,-556.61 888.5,-553.61 888.5,-553.61 888.5,-547.61 888.5,-547.61 888.5,-544.61 891.5,-541.61 894.5,-541.61 894.5,-541.61 936.5,-541.61 936.5,-541.61 939.5,-541.61 942.5,-544.61 942.5,-547.61 942.5,-547.61 942.5,-553.61 942.5,-553.61 942.5,-556.61 939.5,-559.61 936.5,-559.61"/>
<text text-anchor="middle" x="915.5" y="-548.41" font-family="Helvetica,sans-Serif" font-size="9.00">styles.ts</text>
</a>
</g>
</g>
<!-- src/components/layout/breadcrumbs.tsx&#45;&gt;src/components/styles/styles.ts -->
<g id="edge17" class="edge">
<title>src/components/layout/breadcrumbs.tsx&#45;&gt;src/components/styles/styles.ts</title>
<path fill="none" stroke="#000000" stroke-width="2" stroke-opacity="0.200000" d="M830.7,-663.04C835.78,-661.1 840.67,-658.66 845,-655.61 877.79,-632.46 899.29,-588.51 908.84,-565.5"/>
<polygon fill="#000000" fill-opacity="0.200000" stroke="#000000" stroke-width="2" stroke-opacity="0.200000" points="910.81,-566.21 911.11,-559.86 906.92,-564.64 910.81,-566.21"/>
</g>
<!-- src/hooks/use&#45;site.ts&#45;&gt;src/utils/asserts&#45;non&#45;null.ts -->
<g id="edge34" class="edge">
<title>src/hooks/use&#45;site.ts&#45;&gt;src/utils/asserts&#45;non&#45;null.ts</title>
<path fill="none" stroke="#000000" stroke-width="2" stroke-opacity="0.200000" d="M917.84,-1047.59C930.28,-963.96 1025.44,-324.05 1041.27,-217.6"/>
<polygon fill="#000000" fill-opacity="0.200000" stroke="#000000" stroke-width="2" stroke-opacity="0.200000" points="1043.35,-217.86 1042.16,-211.62 1039.2,-217.25 1043.35,-217.86"/>
</g>
<!-- src/components/layout/footer.tsx -->
<g id="node29" class="node">
<title>src/components/layout/footer.tsx</title>
<g id="a_node29"><a xlink:href="src/components/layout/footer.tsx" xlink:title="footer.tsx">
<path fill="#bbfeff" stroke="black" d="M807,-649.61C807,-649.61 760,-649.61 760,-649.61 757,-649.61 754,-646.61 754,-643.61 754,-643.61 754,-637.61 754,-637.61 754,-634.61 757,-631.61 760,-631.61 760,-631.61 807,-631.61 807,-631.61 810,-631.61 813,-634.61 813,-637.61 813,-637.61 813,-643.61 813,-643.61 813,-646.61 810,-649.61 807,-649.61"/>
<text text-anchor="middle" x="783.5" y="-638.41" font-family="Helvetica,sans-Serif" font-size="9.00">footer.tsx</text>
</a>
</g>
</g>
<!-- src/components/layout/footer.tsx&#45;&gt;src/hooks/use&#45;site.ts -->
<g id="edge18" class="edge">
<title>src/components/layout/footer.tsx&#45;&gt;src/hooks/use&#45;site.ts</title>
<path fill="none" stroke="#000000" stroke-width="2" stroke-opacity="0.200000" d="M813.17,-641.18C824.58,-642.9 836.89,-646.89 845,-655.61 898.76,-713.35 911.61,-975.53 914.02,-1041.5"/>
<polygon fill="#000000" fill-opacity="0.200000" stroke="#000000" stroke-width="2" stroke-opacity="0.200000" points="911.92,-1041.67 914.23,-1047.59 916.12,-1041.52 911.92,-1041.67"/>
</g>
<!-- src/components/layout/header.tsx -->
<g id="node30" class="node">
<title>src/components/layout/header.tsx</title>
<g id="a_node30"><a xlink:href="src/components/layout/header.tsx" xlink:title="header.tsx">
<path fill="#bbfeff" stroke="black" d="M809.5,-619.61C809.5,-619.61 757.5,-619.61 757.5,-619.61 754.5,-619.61 751.5,-616.61 751.5,-613.61 751.5,-613.61 751.5,-607.61 751.5,-607.61 751.5,-604.61 754.5,-601.61 757.5,-601.61 757.5,-601.61 809.5,-601.61 809.5,-601.61 812.5,-601.61 815.5,-604.61 815.5,-607.61 815.5,-607.61 815.5,-613.61 815.5,-613.61 815.5,-616.61 812.5,-619.61 809.5,-619.61"/>
<text text-anchor="middle" x="783.5" y="-608.41" font-family="Helvetica,sans-Serif" font-size="9.00">header.tsx</text>
</a>
</g>
</g>
<!-- src/components/layout/header.tsx&#45;&gt;src/components/atoms/anchor&#45;or&#45;link.tsx -->
<g id="edge20" class="edge">
<title>src/components/layout/header.tsx&#45;&gt;src/components/atoms/anchor&#45;or&#45;link.tsx</title>
<path fill="none" stroke="#000000" stroke-width="2" stroke-opacity="0.200000" d="M815.75,-606.36C826.69,-603.25 837.99,-597.88 845,-588.61 872.94,-551.63 837.59,-421.17 860,-380.61 866.59,-368.69 878.4,-359.36 889.34,-352.72"/>
<polygon fill="#000000" fill-opacity="0.200000" stroke="#000000" stroke-width="2" stroke-opacity="0.200000" points="890.47,-354.49 894.62,-349.67 888.37,-350.85 890.47,-354.49"/>
</g>
<!-- src/components/layout/header.tsx&#45;&gt;src/hooks/use&#45;site.ts -->
<g id="edge19" class="edge">
<title>src/components/layout/header.tsx&#45;&gt;src/hooks/use&#45;site.ts</title>
<path fill="none" stroke="#000000" stroke-width="2" stroke-opacity="0.200000" d="M815.73,-611.54C826.4,-613.45 837.53,-617.48 845,-625.61 902.55,-688.15 912.6,-971.88 914.21,-1041.26"/>
<polygon fill="#000000" fill-opacity="0.200000" stroke="#000000" stroke-width="2" stroke-opacity="0.200000" points="912.11,-1041.34 914.34,-1047.29 916.31,-1041.25 912.11,-1041.34"/>
</g>
<!-- src/components/layout/header.tsx&#45;&gt;src/components/styles/styles.ts -->
<g id="edge21" class="edge">
<title>src/components/layout/header.tsx&#45;&gt;src/components/styles/styles.ts</title>
<path fill="none" stroke="#000000" stroke-width="2" stroke-opacity="0.200000" d="M812.26,-601.51C822.67,-597.84 834.51,-593.35 845,-588.61 861.89,-580.97 880.25,-570.85 893.86,-562.97"/>
<polygon fill="#000000" fill-opacity="0.200000" stroke="#000000" stroke-width="2" stroke-opacity="0.200000" points="895.26,-564.58 899.38,-559.74 893.14,-560.96 895.26,-564.58"/>
</g>
<!-- src/components/layout/index.tsx&#45;&gt;src/components/layout/breadcrumbs.tsx -->
<g id="edge23" class="edge">
<title>src/components/layout/index.tsx&#45;&gt;src/components/layout/breadcrumbs.tsx</title>
<path fill="none" stroke="#000000" stroke-width="2" stroke-opacity="0.200000" d="M669.69,-646.61C688.13,-650.53 712.7,-655.76 734.2,-660.33"/>
<polygon fill="#000000" fill-opacity="0.200000" stroke="#000000" stroke-width="2" stroke-opacity="0.200000" points="733.87,-662.41 740.17,-661.6 734.74,-658.3 733.87,-662.41"/>
</g>
<!-- src/components/layout/index.tsx&#45;&gt;src/components/layout/footer.tsx -->
<g id="edge24" class="edge">
<title>src/components/layout/index.tsx&#45;&gt;src/components/layout/footer.tsx</title>
<path fill="none" stroke="#000000" stroke-width="2" stroke-opacity="0.200000" d="M669.69,-640.61C692.12,-640.61 723.61,-640.61 747.62,-640.61"/>
<polygon fill="#000000" fill-opacity="0.200000" stroke="#000000" stroke-width="2" stroke-opacity="0.200000" points="747.87,-642.71 753.87,-640.61 747.87,-638.51 747.87,-642.71"/>
</g>
<!-- src/components/layout/index.tsx&#45;&gt;src/components/layout/header.tsx -->
<g id="edge25" class="edge">
<title>src/components/layout/index.tsx&#45;&gt;src/components/layout/header.tsx</title>
<path fill="none" stroke="#000000" stroke-width="2" stroke-opacity="0.200000" d="M669.69,-634.61C691.48,-629.97 721.81,-623.52 745.53,-618.47"/>
<polygon fill="#000000" fill-opacity="0.200000" stroke="#000000" stroke-width="2" stroke-opacity="0.200000" points="745.98,-620.52 751.41,-617.22 745.11,-616.42 745.98,-620.52"/>
</g>
<!-- src/components/styles/global.ts -->
<g id="node32" class="node">
<title>src/components/styles/global.ts</title>
<g id="a_node32"><a xlink:href="src/components/styles/global.ts" xlink:title="global.ts">
<path fill="#ddfeff" stroke="black" d="M805,-559.61C805,-559.61 762,-559.61 762,-559.61 759,-559.61 756,-556.61 756,-553.61 756,-553.61 756,-547.61 756,-547.61 756,-544.61 759,-541.61 762,-541.61 762,-541.61 805,-541.61 805,-541.61 808,-541.61 811,-544.61 811,-547.61 811,-547.61 811,-553.61 811,-553.61 811,-556.61 808,-559.61 805,-559.61"/>
<text text-anchor="middle" x="783.5" y="-548.41" font-family="Helvetica,sans-Serif" font-size="9.00">global.ts</text>
</a>
</g>
</g>
<!-- src/components/layout/index.tsx&#45;&gt;src/components/styles/global.ts -->
<g id="edge22" class="edge">
<title>src/components/layout/index.tsx&#45;&gt;src/components/styles/global.ts</title>
<path fill="none" stroke="#000000" stroke-width="2" stroke-opacity="0.200000" d="M669.69,-639.12C682.34,-637.29 696.89,-633.47 708,-625.61 723,-614.99 717.61,-604.17 730,-590.61 739.48,-580.23 751.92,-570.62 762.32,-563.42"/>
<polygon fill="#000000" fill-opacity="0.200000" stroke="#000000" stroke-width="2" stroke-opacity="0.200000" points="763.75,-564.99 767.54,-559.88 761.39,-561.51 763.75,-564.99"/>
</g>
<!-- src/components/layout/title.tsx -->
<g id="node33" class="node">
<title>src/components/layout/title.tsx</title>
<g id="a_node33"><a xlink:href="src/components/layout/title.tsx" xlink:title="title.tsx">
<path fill="#bbfeff" stroke="black" d="M804.5,-709.61C804.5,-709.61 762.5,-709.61 762.5,-709.61 759.5,-709.61 756.5,-706.61 756.5,-703.61 756.5,-703.61 756.5,-697.61 756.5,-697.61 756.5,-694.61 759.5,-691.61 762.5,-691.61 762.5,-691.61 804.5,-691.61 804.5,-691.61 807.5,-691.61 810.5,-694.61 810.5,-697.61 810.5,-697.61 810.5,-703.61 810.5,-703.61 810.5,-706.61 807.5,-709.61 804.5,-709.61"/>
<text text-anchor="middle" x="783.5" y="-698.41" font-family="Helvetica,sans-Serif" font-size="9.00">title.tsx</text>
</a>
</g>
</g>
<!-- src/components/layout/index.tsx&#45;&gt;src/components/layout/title.tsx -->
<g id="edge26" class="edge">
<title>src/components/layout/index.tsx&#45;&gt;src/components/layout/title.tsx</title>
<path fill="none" stroke="#000000" stroke-width="2" stroke-opacity="0.200000" d="M657.06,-649.68C674.42,-659.52 703.53,-675.21 730,-685.61 736.42,-688.13 743.43,-690.43 750.17,-692.43"/>
<polygon fill="#000000" fill-opacity="0.200000" stroke="#000000" stroke-width="2" stroke-opacity="0.200000" points="749.92,-694.54 756.27,-694.18 751.08,-690.5 749.92,-694.54"/>
</g>
<!-- src/components/styles/global.ts&#45;&gt;src/components/styles/styles.ts -->
<g id="edge33" class="edge">
<title>src/components/styles/global.ts&#45;&gt;src/components/styles/styles.ts</title>
<path fill="none" stroke="#000000" stroke-width="2" stroke-opacity="0.200000" d="M811.12,-550.61C831.67,-550.61 860.2,-550.61 882.09,-550.61"/>
<polygon fill="#000000" fill-opacity="0.200000" stroke="#000000" stroke-width="2" stroke-opacity="0.200000" points="882.36,-552.71 888.36,-550.61 882.36,-548.51 882.36,-552.71"/>
</g>
<!-- src/components/styles/prism&#45;styles.ts -->
<g id="node39" class="node">
<title>src/components/styles/prism&#45;styles.ts</title>
<g id="a_node39"><a xlink:href="src/components/styles/prism-styles.ts" xlink:title="prism&#45;styles.ts">
<path fill="#ddfeff" stroke="black" d="M950.5,-529.61C950.5,-529.61 880.5,-529.61 880.5,-529.61 877.5,-529.61 874.5,-526.61 874.5,-523.61 874.5,-523.61 874.5,-517.61 874.5,-517.61 874.5,-514.61 877.5,-511.61 880.5,-511.61 880.5,-511.61 950.5,-511.61 950.5,-511.61 953.5,-511.61 956.5,-514.61 956.5,-517.61 956.5,-517.61 956.5,-523.61 956.5,-523.61 956.5,-526.61 953.5,-529.61 950.5,-529.61"/>
<text text-anchor="middle" x="915.5" y="-518.41" font-family="Helvetica,sans-Serif" font-size="9.00">prism&#45;styles.ts</text>
</a>
</g>
</g>
<!-- src/components/styles/global.ts&#45;&gt;src/components/styles/prism&#45;styles.ts -->
<g id="edge32" class="edge">
<title>src/components/styles/global.ts&#45;&gt;src/components/styles/prism&#45;styles.ts</title>
<path fill="none" stroke="#000000" stroke-width="2" stroke-opacity="0.200000" d="M811.12,-544.46C827.82,-540.61 849.77,-535.54 869.16,-531.07"/>
<polygon fill="#000000" fill-opacity="0.200000" stroke="#000000" stroke-width="2" stroke-opacity="0.200000" points="869.71,-533.1 875.08,-529.7 868.76,-529.01 869.71,-533.1"/>
</g>
<!-- src/components/table&#45;of&#45;contents/index.tsx -->
<g id="node35" class="node">
<title>src/components/table&#45;of&#45;contents/index.tsx</title>
<g id="a_node35"><a xlink:href="src/components/table-of-contents/index.tsx" xlink:title="index.tsx">
<path fill="#bbfeff" stroke="black" d="M806.5,-469.61C806.5,-469.61 760.5,-469.61 760.5,-469.61 757.5,-469.61 754.5,-466.61 754.5,-463.61 754.5,-463.61 754.5,-457.61 754.5,-457.61 754.5,-454.61 757.5,-451.61 760.5,-451.61 760.5,-451.61 806.5,-451.61 806.5,-451.61 809.5,-451.61 812.5,-454.61 812.5,-457.61 812.5,-457.61 812.5,-463.61 812.5,-463.61 812.5,-466.61 809.5,-469.61 806.5,-469.61"/>
<text text-anchor="middle" x="783.5" y="-458.41" font-family="Helvetica,sans-Serif" font-size="9.00">index.tsx</text>
</a>
</g>
</g>
<!-- src/components/layout/sidebar.tsx&#45;&gt;src/components/table&#45;of&#45;contents/index.tsx -->
<g id="edge27" class="edge">
<title>src/components/layout/sidebar.tsx&#45;&gt;src/components/table&#45;of&#45;contents/index.tsx</title>
<path fill="none" stroke="#000000" stroke-width="2" stroke-opacity="0.200000" d="M647.72,-601.44C661.3,-581.75 695.23,-534.47 730,-500.61 740.35,-490.53 753.23,-480.68 763.64,-473.28"/>
<polygon fill="#000000" fill-opacity="0.200000" stroke="#000000" stroke-width="2" stroke-opacity="0.200000" points="765.13,-474.8 768.84,-469.64 762.72,-471.36 765.13,-474.8"/>
</g>
<!-- src/components/post&#45;link/post&#45;date.tsx -->
<g id="node36" class="node">
<title>src/components/post&#45;link/post&#45;date.tsx</title>
<g id="a_node36"><a xlink:href="src/components/post-link/post-date.tsx" xlink:title="post&#45;date.tsx">
<path fill="#bbfeff" stroke="black" d="M947.5,-409.61C947.5,-409.61 883.5,-409.61 883.5,-409.61 880.5,-409.61 877.5,-406.61 877.5,-403.61 877.5,-403.61 877.5,-397.61 877.5,-397.61 877.5,-394.61 880.5,-391.61 883.5,-391.61 883.5,-391.61 947.5,-391.61 947.5,-391.61 950.5,-391.61 953.5,-394.61 953.5,-397.61 953.5,-397.61 953.5,-403.61 953.5,-403.61 953.5,-406.61 950.5,-409.61 947.5,-409.61"/>
<text text-anchor="middle" x="915.5" y="-398.41" font-family="Helvetica,sans-Serif" font-size="9.00">post&#45;date.tsx</text>
</a>
</g>
</g>
<!-- src/components/post&#45;link/post&#45;link.tsx -->
<g id="node37" class="node">
<title>src/components/post&#45;link/post&#45;link.tsx</title>
<g id="a_node37"><a xlink:href="src/components/post-link/post-link.tsx" xlink:title="post&#45;link.tsx">
<path fill="#bbfeff" stroke="black" d="M813,-409.61C813,-409.61 754,-409.61 754,-409.61 751,-409.61 748,-406.61 748,-403.61 748,-403.61 748,-397.61 748,-397.61 748,-394.61 751,-391.61 754,-391.61 754,-391.61 813,-391.61 813,-391.61 816,-391.61 819,-394.61 819,-397.61 819,-397.61 819,-403.61 819,-403.61 819,-406.61 816,-409.61 813,-409.61"/>
<text text-anchor="middle" x="783.5" y="-398.41" font-family="Helvetica,sans-Serif" font-size="9.00">post&#45;link.tsx</text>
</a>
</g>
</g>
<!-- src/components/post&#45;link/post&#45;link.tsx&#45;&gt;src/components/atoms/tag&#45;list.tsx -->
<g id="edge28" class="edge">
<title>src/components/post&#45;link/post&#45;link.tsx&#45;&gt;src/components/atoms/tag&#45;list.tsx</title>
<path fill="none" stroke="#000000" stroke-width="2" stroke-opacity="0.200000" d="M791.1,-391.48C803.03,-375.65 829.79,-343.12 860,-325.61 865.35,-322.51 871.37,-320.02 877.4,-318.04"/>
<polygon fill="#000000" fill-opacity="0.200000" stroke="#000000" stroke-width="2" stroke-opacity="0.200000" points="878.28,-319.97 883.41,-316.22 877.06,-315.95 878.28,-319.97"/>
</g>
<!-- src/components/post&#45;link/post&#45;link.tsx&#45;&gt;src/components/styles/styles.ts -->
<g id="edge29" class="edge">
<title>src/components/post&#45;link/post&#45;link.tsx&#45;&gt;src/components/styles/styles.ts</title>
<path fill="none" stroke="#000000" stroke-width="2" stroke-opacity="0.200000" d="M806.7,-409.68C819.96,-416.28 835.94,-426.52 845,-440.61 868.12,-476.56 831.51,-503.74 860,-535.61 865.68,-541.96 873.78,-545.73 882,-547.94"/>
<polygon fill="#000000" fill-opacity="0.200000" stroke="#000000" stroke-width="2" stroke-opacity="0.200000" points="881.97,-550.08 888.28,-549.34 882.88,-545.98 881.97,-550.08"/>
</g>
<!-- src/components/post&#45;link/post&#45;link.tsx&#45;&gt;src/components/post&#45;link/post&#45;date.tsx -->
<g id="edge30" class="edge">
<title>src/components/post&#45;link/post&#45;link.tsx&#45;&gt;src/components/post&#45;link/post&#45;date.tsx</title>
<path fill="none" stroke="#000000" stroke-width="2" stroke-opacity="0.200000" d="M819.34,-400.61C835.28,-400.61 854.33,-400.61 871.19,-400.61"/>
<polygon fill="#000000" fill-opacity="0.200000" stroke="#000000" stroke-width="2" stroke-opacity="0.200000" points="871.29,-402.71 877.29,-400.61 871.29,-398.51 871.29,-402.71"/>
</g>
<!-- src/components/post&#45;link/post&#45;list.tsx -->
<g id="node38" class="node">
<title>src/components/post&#45;link/post&#45;list.tsx</title>
<g id="a_node38"><a xlink:href="src/components/post-link/post-list.tsx" xlink:title="post&#45;list.tsx">
<path fill="#bbfeff" stroke="black" d="M668.5,-409.61C668.5,-409.61 612.5,-409.61 612.5,-409.61 609.5,-409.61 606.5,-406.61 606.5,-403.61 606.5,-403.61 606.5,-397.61 606.5,-397.61 606.5,-394.61 609.5,-391.61 612.5,-391.61 612.5,-391.61 668.5,-391.61 668.5,-391.61 671.5,-391.61 674.5,-394.61 674.5,-397.61 674.5,-397.61 674.5,-403.61 674.5,-403.61 674.5,-406.61 671.5,-409.61 668.5,-409.61"/>
<text text-anchor="middle" x="640.5" y="-398.41" font-family="Helvetica,sans-Serif" font-size="9.00">post&#45;list.tsx</text>
</a>
</g>
</g>
<!-- src/components/post&#45;link/post&#45;list.tsx&#45;&gt;src/components/post&#45;link/post&#45;link.tsx -->
<g id="edge31" class="edge">
<title>src/components/post&#45;link/post&#45;list.tsx&#45;&gt;src/components/post&#45;link/post&#45;link.tsx</title>
<path fill="none" stroke="#000000" stroke-width="2" stroke-opacity="0.200000" d="M674.56,-400.61C694.56,-400.61 720.23,-400.61 741.52,-400.61"/>
<polygon fill="#000000" fill-opacity="0.200000" stroke="#000000" stroke-width="2" stroke-opacity="0.200000" points="741.68,-402.71 747.68,-400.61 741.68,-398.51 741.68,-402.71"/>
</g>
<!-- src/components/styles/mediaQueries.ts -->
<g id="node40" class="node">
<title>src/components/styles/mediaQueries.ts</title>
<g id="a_node40"><a xlink:href="src/components/styles/mediaQueries.ts" xlink:title="mediaQueries.ts">
<path fill="#ccffcc" stroke="black" d="M822,-529.61C822,-529.61 745,-529.61 745,-529.61 742,-529.61 739,-526.61 739,-523.61 739,-523.61 739,-517.61 739,-517.61 739,-514.61 742,-511.61 745,-511.61 745,-511.61 822,-511.61 822,-511.61 825,-511.61 828,-514.61 828,-517.61 828,-517.61 828,-523.61 828,-523.61 828,-526.61 825,-529.61 822,-529.61"/>
<text text-anchor="middle" x="783.5" y="-518.41" font-family="Helvetica,sans-Serif" font-size="9.00">mediaQueries.ts</text>
</a>
</g>
</g>
<!-- src/pages/404.tsx -->
<g id="node41" class="node">
<title>src/pages/404.tsx</title>
<g id="a_node41"><a xlink:href="src/pages/404.tsx" xlink:title="404.tsx">
<path fill="#bbfeff" stroke="black" d="M401.5,-649.61C401.5,-649.61 359.5,-649.61 359.5,-649.61 356.5,-649.61 353.5,-646.61 353.5,-643.61 353.5,-643.61 353.5,-637.61 353.5,-637.61 353.5,-634.61 356.5,-631.61 359.5,-631.61 359.5,-631.61 401.5,-631.61 401.5,-631.61 404.5,-631.61 407.5,-634.61 407.5,-637.61 407.5,-637.61 407.5,-643.61 407.5,-643.61 407.5,-646.61 404.5,-649.61 401.5,-649.61"/>
<text text-anchor="middle" x="380.5" y="-638.41" font-family="Helvetica,sans-Serif" font-size="9.00">404.tsx</text>
</a>
</g>
</g>
<!-- src/pages/404.tsx&#45;&gt;src/components/layout/index.tsx -->
<g id="edge35" class="edge">
<title>src/pages/404.tsx&#45;&gt;src/components/layout/index.tsx</title>
<path fill="none" stroke="#000000" stroke-width="2" stroke-opacity="0.200000" d="M407.66,-640.61C454.56,-640.61 552.93,-640.61 605.18,-640.61"/>
<polygon fill="#000000" fill-opacity="0.200000" stroke="#000000" stroke-width="2" stroke-opacity="0.200000" points="605.32,-642.71 611.32,-640.61 605.32,-638.51 605.32,-642.71"/>
</g>
<!-- src/pages/index.tsx -->
<g id="node42" class="node">
<title>src/pages/index.tsx</title>
<g id="a_node42"><a xlink:href="src/pages/index.tsx" xlink:title="index.tsx">
<path fill="#bbfeff" stroke="black" d="M403.5,-589.61C403.5,-589.61 357.5,-589.61 357.5,-589.61 354.5,-589.61 351.5,-586.61 351.5,-583.61 351.5,-583.61 351.5,-577.61 351.5,-577.61 351.5,-574.61 354.5,-571.61 357.5,-571.61 357.5,-571.61 403.5,-571.61 403.5,-571.61 406.5,-571.61 409.5,-574.61 409.5,-577.61 409.5,-577.61 409.5,-583.61 409.5,-583.61 409.5,-586.61 406.5,-589.61 403.5,-589.61"/>
<text text-anchor="middle" x="380.5" y="-578.41" font-family="Helvetica,sans-Serif" font-size="9.00">index.tsx</text>
</a>
</g>
</g>
<!-- src/pages/index.tsx&#45;&gt;src/templates/post&#45;list&#45;page.tsx -->
<g id="edge36" class="edge">
<title>src/pages/index.tsx&#45;&gt;src/templates/post&#45;list&#45;page.tsx</title>
<path fill="none" stroke="#000000" stroke-width="2" stroke-opacity="0.200000" d="M385.11,-571.57C403.56,-525.38 487.32,-315.66 510.53,-257.56"/>
<polygon fill="#000000" fill-opacity="0.200000" stroke="#000000" stroke-width="2" stroke-opacity="0.200000" points="512.54,-258.18 512.81,-251.83 508.64,-256.63 512.54,-258.18"/>
</g>
<!-- src/templates/post&#45;list&#45;page.tsx&#45;&gt;src/components/layout/index.tsx -->
<g id="edge53" class="edge">
<title>src/templates/post&#45;list&#45;page.tsx&#45;&gt;src/components/layout/index.tsx</title>
<path fill="none" stroke="#000000" stroke-width="2" stroke-opacity="0.200000" d="M524.66,-251.66C536,-268.87 559.93,-307.87 570,-344.61 586.55,-404.97 549.9,-576.74 589,-625.61 593.2,-630.86 599.15,-634.33 605.5,-636.61"/>
<polygon fill="#000000" fill-opacity="0.200000" stroke="#000000" stroke-width="2" stroke-opacity="0.200000" points="605.06,-638.67 611.41,-638.39 606.27,-634.65 605.06,-638.67"/>
</g>
<!-- src/templates/post&#45;list&#45;page.tsx&#45;&gt;src/components/post&#45;link/post&#45;list.tsx -->
<g id="edge54" class="edge">
<title>src/templates/post&#45;list&#45;page.tsx&#45;&gt;src/components/post&#45;link/post&#45;list.tsx</title>
<path fill="none" stroke="#000000" stroke-width="2" stroke-opacity="0.200000" d="M525.92,-251.8C536,-264.33 554.55,-287.53 570,-307.61 591.28,-335.26 615.56,-368.03 629.05,-386.36"/>
<polygon fill="#000000" fill-opacity="0.200000" stroke="#000000" stroke-width="2" stroke-opacity="0.200000" points="627.63,-387.98 632.87,-391.57 631.01,-385.49 627.63,-387.98"/>
</g>
<!-- src/pages/tags.tsx -->
<g id="node44" class="node">
<title>src/pages/tags.tsx</title>
<g id="a_node44"><a xlink:href="src/pages/tags.tsx" xlink:title="tags.tsx">
<path fill="#bbfeff" stroke="black" d="M401.5,-619.61C401.5,-619.61 359.5,-619.61 359.5,-619.61 356.5,-619.61 353.5,-616.61 353.5,-613.61 353.5,-613.61 353.5,-607.61 353.5,-607.61 353.5,-604.61 356.5,-601.61 359.5,-601.61 359.5,-601.61 401.5,-601.61 401.5,-601.61 404.5,-601.61 407.5,-604.61 407.5,-607.61 407.5,-607.61 407.5,-613.61 407.5,-613.61 407.5,-616.61 404.5,-619.61 401.5,-619.61"/>
<text text-anchor="middle" x="380.5" y="-608.41" font-family="Helvetica,sans-Serif" font-size="9.00">tags.tsx</text>
</a>
</g>
</g>
<!-- src/pages/tags.tsx&#45;&gt;src/components/article/index.tsx -->
<g id="edge37" class="edge">
<title>src/pages/tags.tsx&#45;&gt;src/components/article/index.tsx</title>
<path fill="none" stroke="#000000" stroke-width="2" stroke-opacity="0.200000" d="M407.82,-610.49C422.29,-611.72 439.74,-615.5 452,-625.61 572.3,-724.82 479.27,-837.81 589,-948.61 593.69,-953.34 599.57,-957.13 605.64,-960.13"/>
<polygon fill="#000000" fill-opacity="0.200000" stroke="#000000" stroke-width="2" stroke-opacity="0.200000" points="604.91,-962.11 611.24,-962.68 606.64,-958.28 604.91,-962.11"/>
</g>
<!-- src/pages/tags.tsx&#45;&gt;src/components/layout/index.tsx -->
<g id="edge38" class="edge">
<title>src/pages/tags.tsx&#45;&gt;src/components/layout/index.tsx</title>
<path fill="none" stroke="#000000" stroke-width="2" stroke-opacity="0.200000" d="M407.66,-613.65C454.56,-619.1 552.93,-630.54 605.18,-636.62"/>
<polygon fill="#000000" fill-opacity="0.200000" stroke="#000000" stroke-width="2" stroke-opacity="0.200000" points="605.12,-638.72 611.32,-637.33 605.6,-634.55 605.12,-638.72"/>
</g>
<!-- src/pages/tags.tsx&#45;&gt;src/components/layout/sidebar.tsx -->
<g id="edge39" class="edge">
<title>src/pages/tags.tsx&#45;&gt;src/components/layout/sidebar.tsx</title>
<path fill="none" stroke="#000000" stroke-width="2" stroke-opacity="0.200000" d="M407.66,-610.61C453.45,-610.61 548.31,-610.61 601.4,-610.61"/>
<polygon fill="#000000" fill-opacity="0.200000" stroke="#000000" stroke-width="2" stroke-opacity="0.200000" points="601.67,-612.71 607.67,-610.61 601.67,-608.51 601.67,-612.71"/>
</g>
<!-- src/pages/tags.tsx&#45;&gt;src/components/post&#45;link/post&#45;list.tsx -->
<g id="edge40" class="edge">
<title>src/pages/tags.tsx&#45;&gt;src/components/post&#45;link/post&#45;list.tsx</title>
<path fill="none" stroke="#000000" stroke-width="2" stroke-opacity="0.200000" d="M407.58,-608.77C421.47,-606.9 438.44,-603.15 452,-595.61 536.17,-548.82 605.79,-451.9 630.17,-415.15"/>
<polygon fill="#000000" fill-opacity="0.200000" stroke="#000000" stroke-width="2" stroke-opacity="0.200000" points="632.15,-415.96 633.69,-409.79 628.64,-413.65 632.15,-415.96"/>
</g>
<!-- src/templates/blog&#45;post&#45;template/article&#45;elements.tsx&#45;&gt;src/utils/asserts&#45;non&#45;null.ts -->
<g id="edge44" class="edge">
<title>src/templates/blog&#45;post&#45;template/article&#45;elements.tsx&#45;&gt;src/utils/asserts&#45;non&#45;null.ts</title>
<path fill="none" stroke="#000000" stroke-width="2" stroke-opacity="0.200000" d="M534.1,-121.48C547.99,-113.93 569.11,-103.79 589,-99.61 640.76,-88.73 655.36,-94.47 708,-99.61 769.77,-105.64 785.71,-108.26 845,-126.61 910.62,-146.92 922.08,-165.18 987,-187.61 991.32,-189.1 995.86,-190.53 1000.42,-191.87"/>
<polygon fill="#000000" fill-opacity="0.200000" stroke="#000000" stroke-width="2" stroke-opacity="0.200000" points="999.84,-193.89 1006.19,-193.53 1001,-189.85 999.84,-193.89"/>
</g>
<!-- src/templates/blog&#45;post&#45;template/article&#45;elements.tsx&#45;&gt;src/components/atoms/anchor&#45;or&#45;link.tsx -->
<g id="edge43" class="edge">
<title>src/templates/blog&#45;post&#45;template/article&#45;elements.tsx&#45;&gt;src/components/atoms/anchor&#45;or&#45;link.tsx</title>
<path fill="none" stroke="#000000" stroke-width="2" stroke-opacity="0.200000" d="M540.99,-121.59C578.07,-108.26 653.33,-87.69 708,-115.61 810.61,-168.01 765.33,-259.94 860,-325.61 861.65,-326.75 863.39,-327.81 865.19,-328.79"/>
<polygon fill="#000000" fill-opacity="0.200000" stroke="#000000" stroke-width="2" stroke-opacity="0.200000" points="864.43,-330.76 870.74,-331.49 866.26,-326.98 864.43,-330.76"/>
</g>
<!-- src/templates/blog&#45;post&#45;template/autolink&#45;header.tsx -->
<g id="node46" class="node">
<title>src/templates/blog&#45;post&#45;template/autolink&#45;header.tsx</title>
<g id="a_node46"><a xlink:href="src/templates/blog-post-template/autolink-header.tsx" xlink:title="autolink&#45;header.tsx">
<path fill="#bbfeff" stroke="black" d="M686,-139.61C686,-139.61 595,-139.61 595,-139.61 592,-139.61 589,-136.61 589,-133.61 589,-133.61 589,-127.61 589,-127.61 589,-124.61 592,-121.61 595,-121.61 595,-121.61 686,-121.61 686,-121.61 689,-121.61 692,-124.61 692,-127.61 692,-127.61 692,-133.61 692,-133.61 692,-136.61 689,-139.61 686,-139.61"/>
<text text-anchor="middle" x="640.5" y="-128.41" font-family="Helvetica,sans-Serif" font-size="9.00">autolink&#45;header.tsx</text>
</a>
</g>
</g>
<!-- src/templates/blog&#45;post&#45;template/article&#45;elements.tsx&#45;&gt;src/templates/blog&#45;post&#45;template/autolink&#45;header.tsx -->
<g id="edge45" class="edge">
<title>src/templates/blog&#45;post&#45;template/article&#45;elements.tsx&#45;&gt;src/templates/blog&#45;post&#45;template/autolink&#45;header.tsx</title>
<path fill="none" stroke="#000000" stroke-width="2" stroke-opacity="0.200000" d="M570.17,-130.61C574.31,-130.61 578.51,-130.61 582.68,-130.61"/>
<polygon fill="#000000" fill-opacity="0.200000" stroke="#000000" stroke-width="2" stroke-opacity="0.200000" points="582.78,-132.71 588.78,-130.61 582.78,-128.51 582.78,-132.71"/>
</g>
<!-- src/utils/proto&#45;ext.ts -->
<g id="node47" class="node">
<title>src/utils/proto&#45;ext.ts</title>
<g id="a_node47"><a xlink:href="src/utils/proto-ext.ts" xlink:title="proto&#45;ext.ts">
<path fill="#ccffcc" stroke="black" d="M1073.5,-181.61C1073.5,-181.61 1015.5,-181.61 1015.5,-181.61 1012.5,-181.61 1009.5,-178.61 1009.5,-175.61 1009.5,-175.61 1009.5,-169.61 1009.5,-169.61 1009.5,-166.61 1012.5,-163.61 1015.5,-163.61 1015.5,-163.61 1073.5,-163.61 1073.5,-163.61 1076.5,-163.61 1079.5,-166.61 1079.5,-169.61 1079.5,-169.61 1079.5,-175.61 1079.5,-175.61 1079.5,-178.61 1076.5,-181.61 1073.5,-181.61"/>
<text text-anchor="middle" x="1044.5" y="-170.41" font-family="Helvetica,sans-Serif" font-size="9.00">proto&#45;ext.ts</text>
</a>
</g>
</g>
<!-- src/utils/react&#45;fcx.d.ts -->
<g id="node48" class="node">
<title>src/utils/react&#45;fcx.d.ts</title>
<g id="a_node48"><a xlink:href="src/utils/react-fcx.d.ts" xlink:title="react&#45;fcx.d.ts">
<path fill="#ccffcc" stroke="black" d="M1077,-151.61C1077,-151.61 1012,-151.61 1012,-151.61 1009,-151.61 1006,-148.61 1006,-145.61 1006,-145.61 1006,-139.61 1006,-139.61 1006,-136.61 1009,-133.61 1012,-133.61 1012,-133.61 1077,-133.61 1077,-133.61 1080,-133.61 1083,-136.61 1083,-139.61 1083,-139.61 1083,-145.61 1083,-145.61 1083,-148.61 1080,-151.61 1077,-151.61"/>
<text text-anchor="middle" x="1044.5" y="-140.41" font-family="Helvetica,sans-Serif" font-size="9.00">react&#45;fcx.d.ts</text>
</a>
</g>
</g>
<!-- src/utils/svg.d.ts -->
<g id="node49" class="node">
<title>src/utils/svg.d.ts</title>
<g id="a_node49"><a xlink:href="src/utils/svg.d.ts" xlink:title="svg.d.ts">
<path fill="#ccffcc" stroke="black" d="M1065.5,-121.61C1065.5,-121.61 1023.5,-121.61 1023.5,-121.61 1020.5,-121.61 1017.5,-118.61 1017.5,-115.61 1017.5,-115.61 1017.5,-109.61 1017.5,-109.61 1017.5,-106.61 1020.5,-103.61 1023.5,-103.61 1023.5,-103.61 1065.5,-103.61 1065.5,-103.61 1068.5,-103.61 1071.5,-106.61 1071.5,-109.61 1071.5,-109.61 1071.5,-115.61 1071.5,-115.61 1071.5,-118.61 1068.5,-121.61 1065.5,-121.61"/>
<text text-anchor="middle" x="1044.5" y="-110.41" font-family="Helvetica,sans-Serif" font-size="9.00">svg.d.ts</text>
</a>
</g>
</g>
<!-- src/utils/type&#45;utils.ts -->
<g id="node50" class="node">
<title>src/utils/type&#45;utils.ts</title>
<g id="a_node50"><a xlink:href="src/utils/type-utils.ts" xlink:title="type&#45;utils.ts">
<path fill="#ccffcc" stroke="black" d="M1073.5,-91.61C1073.5,-91.61 1015.5,-91.61 1015.5,-91.61 1012.5,-91.61 1009.5,-88.61 1009.5,-85.61 1009.5,-85.61 1009.5,-79.61 1009.5,-79.61 1009.5,-76.61 1012.5,-73.61 1015.5,-73.61 1015.5,-73.61 1073.5,-73.61 1073.5,-73.61 1076.5,-73.61 1079.5,-76.61 1079.5,-79.61 1079.5,-79.61 1079.5,-85.61 1079.5,-85.61 1079.5,-88.61 1076.5,-91.61 1073.5,-91.61"/>
<text text-anchor="middle" x="1044.5" y="-80.41" font-family="Helvetica,sans-Serif" font-size="9.00">type&#45;utils.ts</text>
</a>
</g>
</g>
</g>
</svg>
