<?xml version="1.0" encoding="UTF-8" standalone="no"?>
<!DOCTYPE svg PUBLIC "-//W3C//DTD SVG 1.1//EN"
 "http://www.w3.org/Graphics/SVG/1.1/DTD/svg11.dtd">
<!-- Generated by graphviz version 2.40.1 (20161225.0304)
 -->
<!-- Title: dependency&#45;cruiser output Pages: 1 -->
<svg width="829pt" height="837pt"
 viewBox="0.00 0.00 829.00 837.24" xmlns="http://www.w3.org/2000/svg" xmlns:xlink="http://www.w3.org/1999/xlink">
<g id="graph0" class="graph" transform="scale(1 1) rotate(0) translate(4 833.2379)">
<title>dependency&#45;cruiser output</title>
<polygon fill="#ffffff" stroke="transparent" points="-4,4 -4,-833.2379 825,-833.2379 825,4 -4,4"/>
<g id="clust1" class="cluster">
<title>cluster_src</title>
<path fill="#ffffff" stroke="#000000" stroke-width="2" d="M20,-21.2379C20,-21.2379 801,-21.2379 801,-21.2379 807,-21.2379 813,-27.2379 813,-33.2379 813,-33.2379 813,-809.2379 813,-809.2379 813,-815.2379 807,-821.2379 801,-821.2379 801,-821.2379 20,-821.2379 20,-821.2379 14,-821.2379 8,-815.2379 8,-809.2379 8,-809.2379 8,-33.2379 8,-33.2379 8,-27.2379 14,-21.2379 20,-21.2379"/>
<text text-anchor="middle" x="410.5" y="-810.0379" font-family="Helvetica,sans-Serif" font-weight="bold" font-size="9.00" fill="#000000">src</text>
</g>
<g id="clust2" class="cluster">
<title>cluster_src/components</title>
<path fill="#ffffff" stroke="#000000" stroke-width="2" d="M168,-155.2379C168,-155.2379 793,-155.2379 793,-155.2379 799,-155.2379 805,-161.2379 805,-167.2379 805,-167.2379 805,-589.2379 805,-589.2379 805,-595.2379 799,-601.2379 793,-601.2379 793,-601.2379 168,-601.2379 168,-601.2379 162,-601.2379 156,-595.2379 156,-589.2379 156,-589.2379 156,-167.2379 156,-167.2379 156,-161.2379 162,-155.2379 168,-155.2379"/>
<text text-anchor="middle" x="480.5" y="-590.0379" font-family="Helvetica,sans-Serif" font-weight="bold" font-size="9.00" fill="#000000">components</text>
</g>
<g id="clust3" class="cluster">
<title>cluster_src/components/atoms</title>
<path fill="#ffffff" stroke="#000000" stroke-width="2" d="M447,-493.2379C447,-493.2379 785,-493.2379 785,-493.2379 791,-493.2379 797,-499.2379 797,-505.2379 797,-505.2379 797,-563.2379 797,-563.2379 797,-569.2379 791,-575.2379 785,-575.2379 785,-575.2379 447,-575.2379 447,-575.2379 441,-575.2379 435,-569.2379 435,-563.2379 435,-563.2379 435,-505.2379 435,-505.2379 435,-499.2379 441,-493.2379 447,-493.2379"/>
<text text-anchor="middle" x="616" y="-564.0379" font-family="Helvetica,sans-Serif" font-weight="bold" font-size="9.00" fill="#000000">atoms</text>
</g>
<g id="clust4" class="cluster">
<title>cluster_src/components/content</title>
<path fill="#ffffff" stroke="#000000" stroke-width="2" d="M316.5,-283.2379C316.5,-283.2379 527.5,-283.2379 527.5,-283.2379 533.5,-283.2379 539.5,-289.2379 539.5,-295.2379 539.5,-295.2379 539.5,-353.2379 539.5,-353.2379 539.5,-359.2379 533.5,-365.2379 527.5,-365.2379 527.5,-365.2379 316.5,-365.2379 316.5,-365.2379 310.5,-365.2379 304.5,-359.2379 304.5,-353.2379 304.5,-353.2379 304.5,-295.2379 304.5,-295.2379 304.5,-289.2379 310.5,-283.2379 316.5,-283.2379"/>
<text text-anchor="middle" x="422" y="-354.0379" font-family="Helvetica,sans-Serif" font-weight="bold" font-size="9.00" fill="#000000">content</text>
</g>
<g id="clust5" class="cluster">
<title>cluster_src/components/embeddeds</title>
<path fill="#ffffff" stroke="#000000" stroke-width="2" d="M176,-284.2379C176,-284.2379 239,-284.2379 239,-284.2379 245,-284.2379 251,-290.2379 251,-296.2379 251,-296.2379 251,-324.2379 251,-324.2379 251,-330.2379 245,-336.2379 239,-336.2379 239,-336.2379 176,-336.2379 176,-336.2379 170,-336.2379 164,-330.2379 164,-324.2379 164,-324.2379 164,-296.2379 164,-296.2379 164,-290.2379 170,-284.2379 176,-284.2379"/>
<text text-anchor="middle" x="207.5" y="-325.0379" font-family="Helvetica,sans-Serif" font-weight="bold" font-size="9.00" fill="#000000">embeddeds</text>
</g>
<g id="clust6" class="cluster">
<title>cluster_src/components/layout</title>
<path fill="#ffffff" stroke="#000000" stroke-width="2" d="M182.5,-163.2379C182.5,-163.2379 232.5,-163.2379 232.5,-163.2379 238.5,-163.2379 244.5,-169.2379 244.5,-175.2379 244.5,-175.2379 244.5,-203.2379 244.5,-203.2379 244.5,-209.2379 238.5,-215.2379 232.5,-215.2379 232.5,-215.2379 182.5,-215.2379 182.5,-215.2379 176.5,-215.2379 170.5,-209.2379 170.5,-203.2379 170.5,-203.2379 170.5,-175.2379 170.5,-175.2379 170.5,-169.2379 176.5,-163.2379 182.5,-163.2379"/>
<text text-anchor="middle" x="207.5" y="-204.0379" font-family="Helvetica,sans-Serif" font-weight="bold" font-size="9.00" fill="#000000">layout</text>
</g>
<g id="clust7" class="cluster">
<title>cluster_src/components/post&#45;link</title>
<path fill="#ffffff" stroke="#000000" stroke-width="2" d="M177.5,-223.2379C177.5,-223.2379 527.5,-223.2379 527.5,-223.2379 533.5,-223.2379 539.5,-229.2379 539.5,-235.2379 539.5,-235.2379 539.5,-263.2379 539.5,-263.2379 539.5,-269.2379 533.5,-275.2379 527.5,-275.2379 527.5,-275.2379 177.5,-275.2379 177.5,-275.2379 171.5,-275.2379 165.5,-269.2379 165.5,-263.2379 165.5,-263.2379 165.5,-235.2379 165.5,-235.2379 165.5,-229.2379 171.5,-223.2379 177.5,-223.2379"/>
<text text-anchor="middle" x="352.5" y="-264.0379" font-family="Helvetica,sans-Serif" font-weight="bold" font-size="9.00" fill="#000000">post&#45;link</text>
</g>
<g id="clust8" class="cluster">
<title>cluster_src/components/sidebar</title>
<path fill="#ffffff" stroke="#000000" stroke-width="2" d="M313,-433.2379C313,-433.2379 659.5,-433.2379 659.5,-433.2379 665.5,-433.2379 671.5,-439.2379 671.5,-445.2379 671.5,-445.2379 671.5,-473.2379 671.5,-473.2379 671.5,-479.2379 665.5,-485.2379 659.5,-485.2379 659.5,-485.2379 313,-485.2379 313,-485.2379 307,-485.2379 301,-479.2379 301,-473.2379 301,-473.2379 301,-445.2379 301,-445.2379 301,-439.2379 307,-433.2379 313,-433.2379"/>
<text text-anchor="middle" x="486.25" y="-474.0379" font-family="Helvetica,sans-Serif" font-weight="bold" font-size="9.00" fill="#000000">sidebar</text>
</g>
<g id="clust9" class="cluster">
<title>cluster_src/components/table&#45;of&#45;contents</title>
<path fill="#ffffff" stroke="#000000" stroke-width="2" d="M459.5,-373.2379C459.5,-373.2379 540.5,-373.2379 540.5,-373.2379 546.5,-373.2379 552.5,-379.2379 552.5,-385.2379 552.5,-385.2379 552.5,-413.2379 552.5,-413.2379 552.5,-419.2379 546.5,-425.2379 540.5,-425.2379 540.5,-425.2379 459.5,-425.2379 459.5,-425.2379 453.5,-425.2379 447.5,-419.2379 447.5,-413.2379 447.5,-413.2379 447.5,-385.2379 447.5,-385.2379 447.5,-379.2379 453.5,-373.2379 459.5,-373.2379"/>
<text text-anchor="middle" x="500" y="-414.0379" font-family="Helvetica,sans-Serif" font-weight="bold" font-size="9.00" fill="#000000">table&#45;of&#45;contents</text>
</g>
<g id="clust10" class="cluster">
<title>cluster_src/gatsby&#45;node</title>
<path fill="#ffffff" stroke="#000000" stroke-width="2" d="M313.5,-743.2379C313.5,-743.2379 370.5,-743.2379 370.5,-743.2379 376.5,-743.2379 382.5,-749.2379 382.5,-755.2379 382.5,-755.2379 382.5,-783.2379 382.5,-783.2379 382.5,-789.2379 376.5,-795.2379 370.5,-795.2379 370.5,-795.2379 313.5,-795.2379 313.5,-795.2379 307.5,-795.2379 301.5,-789.2379 301.5,-783.2379 301.5,-783.2379 301.5,-755.2379 301.5,-755.2379 301.5,-749.2379 307.5,-743.2379 313.5,-743.2379"/>
<text text-anchor="middle" x="342" y="-784.0379" font-family="Helvetica,sans-Serif" font-weight="bold" font-size="9.00" fill="#000000">gatsby&#45;node</text>
</g>
<g id="clust11" class="cluster">
<title>cluster_src/images</title>
<path fill="#ffffff" stroke="#000000" stroke-width="2" d="M317.5,-57.2379C317.5,-57.2379 365.5,-57.2379 365.5,-57.2379 371.5,-57.2379 377.5,-63.2379 377.5,-69.2379 377.5,-69.2379 377.5,-97.2379 377.5,-97.2379 377.5,-103.2379 371.5,-109.2379 365.5,-109.2379 365.5,-109.2379 317.5,-109.2379 317.5,-109.2379 311.5,-109.2379 305.5,-103.2379 305.5,-97.2379 305.5,-97.2379 305.5,-69.2379 305.5,-69.2379 305.5,-63.2379 311.5,-57.2379 317.5,-57.2379"/>
<text text-anchor="middle" x="341.5" y="-98.0379" font-family="Helvetica,sans-Serif" font-weight="bold" font-size="9.00" fill="#000000">images</text>
</g>
<g id="clust12" class="cluster">
<title>cluster_src/libs</title>
<path fill="#ffffff" stroke="#000000" stroke-width="2" d="M463.5,-609.2379C463.5,-609.2379 654.5,-609.2379 654.5,-609.2379 660.5,-609.2379 666.5,-615.2379 666.5,-621.2379 666.5,-621.2379 666.5,-769.2379 666.5,-769.2379 666.5,-775.2379 660.5,-781.2379 654.5,-781.2379 654.5,-781.2379 463.5,-781.2379 463.5,-781.2379 457.5,-781.2379 451.5,-775.2379 451.5,-769.2379 451.5,-769.2379 451.5,-621.2379 451.5,-621.2379 451.5,-615.2379 457.5,-609.2379 463.5,-609.2379"/>
<text text-anchor="middle" x="559" y="-770.0379" font-family="Helvetica,sans-Serif" font-weight="bold" font-size="9.00" fill="#000000">libs</text>
</g>
<g id="clust13" class="cluster">
<title>cluster_src/pages</title>
<path fill="#ffffff" stroke="#000000" stroke-width="2" d="M57,-119.2379C57,-119.2379 107,-119.2379 107,-119.2379 113,-119.2379 119,-125.2379 119,-131.2379 119,-131.2379 119,-219.2379 119,-219.2379 119,-225.2379 113,-231.2379 107,-231.2379 107,-231.2379 57,-231.2379 57,-231.2379 51,-231.2379 45,-225.2379 45,-219.2379 45,-219.2379 45,-131.2379 45,-131.2379 45,-125.2379 51,-119.2379 57,-119.2379"/>
<text text-anchor="middle" x="82" y="-220.0379" font-family="Helvetica,sans-Serif" font-weight="bold" font-size="9.00" fill="#000000">pages</text>
</g>
<g id="clust14" class="cluster">
<title>cluster_src/state</title>
<path fill="#ffffff" stroke="#000000" stroke-width="2" d="M59,-709.2379C59,-709.2379 238.5,-709.2379 238.5,-709.2379 244.5,-709.2379 250.5,-715.2379 250.5,-721.2379 250.5,-721.2379 250.5,-783.2379 250.5,-783.2379 250.5,-789.2379 244.5,-795.2379 238.5,-795.2379 238.5,-795.2379 59,-795.2379 59,-795.2379 53,-795.2379 47,-789.2379 47,-783.2379 47,-783.2379 47,-721.2379 47,-721.2379 47,-715.2379 53,-709.2379 59,-709.2379"/>
<text text-anchor="middle" x="148.75" y="-784.0379" font-family="Helvetica,sans-Serif" font-weight="bold" font-size="9.00" fill="#000000">state</text>
</g>
<g id="clust15" class="cluster">
<title>cluster_src/state/ui</title>
<path fill="#ffffff" stroke="#000000" stroke-width="2" d="M184.5,-717.2379C184.5,-717.2379 230.5,-717.2379 230.5,-717.2379 236.5,-717.2379 242.5,-723.2379 242.5,-729.2379 242.5,-729.2379 242.5,-757.2379 242.5,-757.2379 242.5,-763.2379 236.5,-769.2379 230.5,-769.2379 230.5,-769.2379 184.5,-769.2379 184.5,-769.2379 178.5,-769.2379 172.5,-763.2379 172.5,-757.2379 172.5,-757.2379 172.5,-729.2379 172.5,-729.2379 172.5,-723.2379 178.5,-717.2379 184.5,-717.2379"/>
<text text-anchor="middle" x="207.5" y="-758.0379" font-family="Helvetica,sans-Serif" font-weight="bold" font-size="9.00" fill="#000000">ui</text>
</g>
<g id="clust16" class="cluster">
<title>cluster_src/styles</title>
<path fill="#ffffff" stroke="#000000" stroke-width="2" d="M591,-35.2379C591,-35.2379 781,-35.2379 781,-35.2379 787,-35.2379 793,-41.2379 793,-47.2379 793,-47.2379 793,-135.2379 793,-135.2379 793,-141.2379 787,-147.2379 781,-147.2379 781,-147.2379 591,-147.2379 591,-147.2379 585,-147.2379 579,-141.2379 579,-135.2379 579,-135.2379 579,-47.2379 579,-47.2379 579,-41.2379 585,-35.2379 591,-35.2379"/>
<text text-anchor="middle" x="686" y="-136.0379" font-family="Helvetica,sans-Serif" font-weight="bold" font-size="9.00" fill="#000000">styles</text>
</g>
<g id="clust17" class="cluster">
<title>cluster_src/templates</title>
<path fill="#ffffff" stroke="#000000" stroke-width="2" d="M28,-239.2379C28,-239.2379 136,-239.2379 136,-239.2379 142,-239.2379 148,-245.2379 148,-251.2379 148,-251.2379 148,-369.2379 148,-369.2379 148,-375.2379 142,-381.2379 136,-381.2379 136,-381.2379 28,-381.2379 28,-381.2379 22,-381.2379 16,-375.2379 16,-369.2379 16,-369.2379 16,-251.2379 16,-251.2379 16,-245.2379 22,-239.2379 28,-239.2379"/>
<text text-anchor="middle" x="82" y="-370.0379" font-family="Helvetica,sans-Serif" font-weight="bold" font-size="9.00" fill="#000000">templates</text>
</g>
<g id="clust18" class="cluster">
<title>cluster_src/tests</title>
<path fill="#ffffff" stroke="#000000" stroke-width="2" d="M271,-609.2379C271,-609.2379 412,-609.2379 412,-609.2379 418,-609.2379 424,-615.2379 424,-621.2379 424,-621.2379 424,-713.2379 424,-713.2379 424,-719.2379 418,-725.2379 412,-725.2379 412,-725.2379 271,-725.2379 271,-725.2379 265,-725.2379 259,-719.2379 259,-713.2379 259,-713.2379 259,-621.2379 259,-621.2379 259,-615.2379 265,-609.2379 271,-609.2379"/>
<text text-anchor="middle" x="341.5" y="-714.0379" font-family="Helvetica,sans-Serif" font-weight="bold" font-size="9.00" fill="#000000">tests</text>
</g>
<g id="clust19" class="cluster">
<title>cluster_src/tests/libs</title>
<path fill="#ffffff" stroke="#000000" stroke-width="2" d="M279,-617.2379C279,-617.2379 404,-617.2379 404,-617.2379 410,-617.2379 416,-623.2379 416,-629.2379 416,-629.2379 416,-687.2379 416,-687.2379 416,-693.2379 410,-699.2379 404,-699.2379 404,-699.2379 279,-699.2379 279,-699.2379 273,-699.2379 267,-693.2379 267,-687.2379 267,-687.2379 267,-629.2379 267,-629.2379 267,-623.2379 273,-617.2379 279,-617.2379"/>
<text text-anchor="middle" x="341.5" y="-688.0379" font-family="Helvetica,sans-Serif" font-weight="bold" font-size="9.00" fill="#000000">libs</text>
</g>
<g id="clust20" class="cluster">
<title>cluster_src/utils</title>
<path fill="#ffffff" stroke="#000000" stroke-width="2" d="M45.5,-29.2379C45.5,-29.2379 118.5,-29.2379 118.5,-29.2379 124.5,-29.2379 130.5,-35.2379 130.5,-41.2379 130.5,-41.2379 130.5,-99.2379 130.5,-99.2379 130.5,-105.2379 124.5,-111.2379 118.5,-111.2379 118.5,-111.2379 45.5,-111.2379 45.5,-111.2379 39.5,-111.2379 33.5,-105.2379 33.5,-99.2379 33.5,-99.2379 33.5,-41.2379 33.5,-41.2379 33.5,-35.2379 39.5,-29.2379 45.5,-29.2379"/>
<text text-anchor="middle" x="82" y="-100.0379" font-family="Helvetica,sans-Serif" font-weight="bold" font-size="9.00" fill="#000000">utils</text>
</g>
<!-- src/components/atoms/Colorized.tsx -->
<g id="node1" class="node">
<title>src/components/atoms/Colorized.tsx</title>
<g id="a_node1"><a xlink:href="src/components/atoms/Colorized.tsx" xlink:title="Colorized.tsx">
<path fill="#bbfeff" stroke="#000000" d="M530.5,-549.2379C530.5,-549.2379 468.5,-549.2379 468.5,-549.2379 465.5,-549.2379 462.5,-546.2379 462.5,-543.2379 462.5,-543.2379 462.5,-537.2379 462.5,-537.2379 462.5,-534.2379 465.5,-531.2379 468.5,-531.2379 468.5,-531.2379 530.5,-531.2379 530.5,-531.2379 533.5,-531.2379 536.5,-534.2379 536.5,-537.2379 536.5,-537.2379 536.5,-543.2379 536.5,-543.2379 536.5,-546.2379 533.5,-549.2379 530.5,-549.2379"/>
<text text-anchor="middle" x="499.5" y="-538.0379" font-family="Helvetica,sans-Serif" font-size="9.00" fill="#000000">Colorized.tsx</text>
</a>
</g>
</g>
<!-- src/styles/colorScheme.ts -->
<g id="node2" class="node">
<title>src/styles/colorScheme.ts</title>
<g id="a_node2"><a xlink:href="src/styles/colorScheme.ts" xlink:title="colorScheme.ts">
<path fill="#ddfeff" stroke="#000000" d="M779,-121.2379C779,-121.2379 705,-121.2379 705,-121.2379 702,-121.2379 699,-118.2379 699,-115.2379 699,-115.2379 699,-109.2379 699,-109.2379 699,-106.2379 702,-103.2379 705,-103.2379 705,-103.2379 779,-103.2379 779,-103.2379 782,-103.2379 785,-106.2379 785,-109.2379 785,-109.2379 785,-115.2379 785,-115.2379 785,-118.2379 782,-121.2379 779,-121.2379"/>
<text text-anchor="middle" x="742" y="-110.0379" font-family="Helvetica,sans-Serif" font-size="9.00" fill="#000000">colorScheme.ts</text>
</a>
</g>
</g>
<!-- src/components/atoms/Colorized.tsx&#45;&gt;src/styles/colorScheme.ts -->
<g id="edge1" class="edge">
<title>src/components/atoms/Colorized.tsx&#45;&gt;src/styles/colorScheme.ts</title>
<path fill="none" stroke="#000000" stroke-width="2" stroke-opacity="0.200000" d="M536.6031,-536.4136C543.8116,-534.1246 550.7482,-530.6064 556,-525.2379 586.3789,-494.1842 563.8756,-470.9621 579,-430.2379 624.5682,-307.5397 705.7357,-171.0983 732.8765,-126.9009"/>
<polygon fill="#000000" fill-opacity="0.200000" stroke="#000000" stroke-width="2" stroke-opacity="0.200000" points="734.6943,-127.9539 736.0554,-121.7444 731.1191,-125.7498 734.6943,-127.9539"/>
</g>
<!-- src/components/atoms/anchor&#45;or&#45;link.tsx -->
<g id="node3" class="node">
<title>src/components/atoms/anchor&#45;or&#45;link.tsx</title>
<g id="a_node3"><a xlink:href="src/components/atoms/anchor-or-link.tsx" xlink:title="anchor&#45;or&#45;link.tsx">
<path fill="#bbfeff" stroke="#000000" d="M783,-519.2379C783,-519.2379 701,-519.2379 701,-519.2379 698,-519.2379 695,-516.2379 695,-513.2379 695,-513.2379 695,-507.2379 695,-507.2379 695,-504.2379 698,-501.2379 701,-501.2379 701,-501.2379 783,-501.2379 783,-501.2379 786,-501.2379 789,-504.2379 789,-507.2379 789,-507.2379 789,-513.2379 789,-513.2379 789,-516.2379 786,-519.2379 783,-519.2379"/>
<text text-anchor="middle" x="742" y="-508.0379" font-family="Helvetica,sans-Serif" font-size="9.00" fill="#000000">anchor&#45;or&#45;link.tsx</text>
</a>
</g>
</g>
<!-- src/components/atoms/mdx&#45;components.tsx -->
<g id="node4" class="node">
<title>src/components/atoms/mdx&#45;components.tsx</title>
<g id="a_node4"><a xlink:href="src/components/atoms/mdx-components.tsx" xlink:title="mdx&#45;components.tsx">
<path fill="#bbfeff" stroke="#000000" d="M550,-519.2379C550,-519.2379 449,-519.2379 449,-519.2379 446,-519.2379 443,-516.2379 443,-513.2379 443,-513.2379 443,-507.2379 443,-507.2379 443,-504.2379 446,-501.2379 449,-501.2379 449,-501.2379 550,-501.2379 550,-501.2379 553,-501.2379 556,-504.2379 556,-507.2379 556,-507.2379 556,-513.2379 556,-513.2379 556,-516.2379 553,-519.2379 550,-519.2379"/>
<text text-anchor="middle" x="499.5" y="-508.0379" font-family="Helvetica,sans-Serif" font-size="9.00" fill="#000000">mdx&#45;components.tsx</text>
</a>
</g>
</g>
<!-- src/styles/styleValues.ts -->
<g id="node5" class="node">
<title>src/styles/styleValues.ts</title>
<g id="a_node5"><a xlink:href="src/styles/styleValues.ts" xlink:title="styleValues.ts">
<path fill="#ddfeff" stroke="#000000" d="M664,-121.2379C664,-121.2379 599,-121.2379 599,-121.2379 596,-121.2379 593,-118.2379 593,-115.2379 593,-115.2379 593,-109.2379 593,-109.2379 593,-106.2379 596,-103.2379 599,-103.2379 599,-103.2379 664,-103.2379 664,-103.2379 667,-103.2379 670,-106.2379 670,-109.2379 670,-109.2379 670,-115.2379 670,-115.2379 670,-118.2379 667,-121.2379 664,-121.2379"/>
<text text-anchor="middle" x="631.5" y="-110.0379" font-family="Helvetica,sans-Serif" font-size="9.00" fill="#000000">styleValues.ts</text>
</a>
</g>
</g>
<!-- src/components/atoms/mdx&#45;components.tsx&#45;&gt;src/styles/styleValues.ts -->
<g id="edge2" class="edge">
<title>src/components/atoms/mdx&#45;components.tsx&#45;&gt;src/styles/styleValues.ts</title>
<path fill="none" stroke="#000000" stroke-width="2" stroke-opacity="0.200000" d="M539.404,-501.126C545.7985,-498.0128 551.7121,-493.8374 556,-488.2379 584.9453,-450.4393 569.0951,-321.8047 579,-275.2379 590.9034,-219.2754 614.5787,-155.338 625.6003,-127.041"/>
<polygon fill="#000000" fill-opacity="0.200000" stroke="#000000" stroke-width="2" stroke-opacity="0.200000" points="627.6354,-127.6035 627.8733,-121.2511 623.7259,-126.0687 627.6354,-127.6035"/>
</g>
<!-- src/components/atoms/swiping&#45;anchor.tsx -->
<g id="node6" class="node">
<title>src/components/atoms/swiping&#45;anchor.tsx</title>
<g id="a_node6"><a xlink:href="src/components/atoms/swiping-anchor.tsx" xlink:title="swiping&#45;anchor.tsx">
<path fill="#bbfeff" stroke="#000000" d="M676,-519.2379C676,-519.2379 587,-519.2379 587,-519.2379 584,-519.2379 581,-516.2379 581,-513.2379 581,-513.2379 581,-507.2379 581,-507.2379 581,-504.2379 584,-501.2379 587,-501.2379 587,-501.2379 676,-501.2379 676,-501.2379 679,-501.2379 682,-504.2379 682,-507.2379 682,-507.2379 682,-513.2379 682,-513.2379 682,-516.2379 679,-519.2379 676,-519.2379"/>
<text text-anchor="middle" x="631.5" y="-508.0379" font-family="Helvetica,sans-Serif" font-size="9.00" fill="#000000">swiping&#45;anchor.tsx</text>
</a>
</g>
</g>
<!-- src/components/atoms/mdx&#45;components.tsx&#45;&gt;src/components/atoms/swiping&#45;anchor.tsx -->
<g id="edge3" class="edge">
<title>src/components/atoms/mdx&#45;components.tsx&#45;&gt;src/components/atoms/swiping&#45;anchor.tsx</title>
<path fill="none" stroke="#000000" stroke-width="2" stroke-opacity="0.200000" d="M556.2459,-510.2379C562.3252,-510.2379 568.5112,-510.2379 574.5923,-510.2379"/>
<polygon fill="#000000" fill-opacity="0.200000" stroke="#000000" stroke-width="2" stroke-opacity="0.200000" points="574.6306,-512.338 580.6306,-510.2379 574.6305,-508.138 574.6306,-512.338"/>
</g>
<!-- src/styles/styleValues.ts&#45;&gt;src/styles/colorScheme.ts -->
<g id="edge39" class="edge">
<title>src/styles/styleValues.ts&#45;&gt;src/styles/colorScheme.ts</title>
<path fill="none" stroke="#000000" stroke-width="2" stroke-opacity="0.200000" d="M670.1475,-112.2379C677.3436,-112.2379 684.9539,-112.2379 692.4244,-112.2379"/>
<polygon fill="#000000" fill-opacity="0.200000" stroke="#000000" stroke-width="2" stroke-opacity="0.200000" points="692.6546,-114.338 698.6545,-112.2379 692.6545,-110.138 692.6546,-114.338"/>
</g>
<!-- src/components/atoms/swiping&#45;anchor.tsx&#45;&gt;src/components/atoms/anchor&#45;or&#45;link.tsx -->
<g id="edge5" class="edge">
<title>src/components/atoms/swiping&#45;anchor.tsx&#45;&gt;src/components/atoms/anchor&#45;or&#45;link.tsx</title>
<path fill="none" stroke="#000000" stroke-width="2" stroke-opacity="0.200000" d="M682.2223,-510.2379C684.3215,-510.2379 686.4295,-510.2379 688.534,-510.2379"/>
<polygon fill="#000000" fill-opacity="0.200000" stroke="#000000" stroke-width="2" stroke-opacity="0.200000" points="688.8251,-512.338 694.825,-510.2379 688.825,-508.138 688.8251,-512.338"/>
</g>
<!-- src/components/atoms/swiping&#45;anchor.tsx&#45;&gt;src/styles/styleValues.ts -->
<g id="edge4" class="edge">
<title>src/components/atoms/swiping&#45;anchor.tsx&#45;&gt;src/styles/styleValues.ts</title>
<path fill="none" stroke="#000000" stroke-width="2" stroke-opacity="0.200000" d="M590.8017,-501.1015C581.4869,-496.9591 572.781,-490.9497 567.5,-482.2379 556.902,-464.7548 565.5096,-456.5852 567.5,-436.2379 579.3089,-315.518 615.3052,-173.0623 627.4496,-127.2316"/>
<polygon fill="#000000" fill-opacity="0.200000" stroke="#000000" stroke-width="2" stroke-opacity="0.200000" points="629.4828,-127.7568 628.9999,-121.4183 625.4247,-126.6745 629.4828,-127.7568"/>
</g>
<!-- src/components/content/footer.tsx -->
<g id="node7" class="node">
<title>src/components/content/footer.tsx</title>
<g id="a_node7"><a xlink:href="src/components/content/footer.tsx" xlink:title="footer.tsx">
<path fill="#bbfeff" stroke="#000000" d="M523,-339.2379C523,-339.2379 476,-339.2379 476,-339.2379 473,-339.2379 470,-336.2379 470,-333.2379 470,-333.2379 470,-327.2379 470,-327.2379 470,-324.2379 473,-321.2379 476,-321.2379 476,-321.2379 523,-321.2379 523,-321.2379 526,-321.2379 529,-324.2379 529,-327.2379 529,-327.2379 529,-333.2379 529,-333.2379 529,-336.2379 526,-339.2379 523,-339.2379"/>
<text text-anchor="middle" x="499.5" y="-328.0379" font-family="Helvetica,sans-Serif" font-size="9.00" fill="#000000">footer.tsx</text>
</a>
</g>
</g>
<!-- src/components/content/header.tsx -->
<g id="node8" class="node">
<title>src/components/content/header.tsx</title>
<g id="a_node8"><a xlink:href="src/components/content/header.tsx" xlink:title="header.tsx">
<path fill="#bbfeff" stroke="#000000" d="M525.5,-309.2379C525.5,-309.2379 473.5,-309.2379 473.5,-309.2379 470.5,-309.2379 467.5,-306.2379 467.5,-303.2379 467.5,-303.2379 467.5,-297.2379 467.5,-297.2379 467.5,-294.2379 470.5,-291.2379 473.5,-291.2379 473.5,-291.2379 525.5,-291.2379 525.5,-291.2379 528.5,-291.2379 531.5,-294.2379 531.5,-297.2379 531.5,-297.2379 531.5,-303.2379 531.5,-303.2379 531.5,-306.2379 528.5,-309.2379 525.5,-309.2379"/>
<text text-anchor="middle" x="499.5" y="-298.0379" font-family="Helvetica,sans-Serif" font-size="9.00" fill="#000000">header.tsx</text>
</a>
</g>
</g>
<!-- src/components/content/header.tsx&#45;&gt;src/styles/styleValues.ts -->
<g id="edge7" class="edge">
<title>src/components/content/header.tsx&#45;&gt;src/styles/styleValues.ts</title>
<path fill="none" stroke="#000000" stroke-width="2" stroke-opacity="0.200000" d="M531.5728,-292.5853C540.2916,-289.2966 549.1941,-284.676 556,-278.2379 601.3075,-235.3792 621.5922,-160.1889 628.5366,-127.8014"/>
<polygon fill="#000000" fill-opacity="0.200000" stroke="#000000" stroke-width="2" stroke-opacity="0.200000" points="630.667,-127.8672 629.8201,-121.5669 626.5533,-127.0202 630.667,-127.8672"/>
</g>
<!-- src/libs/date.ts -->
<g id="node9" class="node">
<title>src/libs/date.ts</title>
<g id="a_node9"><a xlink:href="src/libs/date.ts" xlink:title="date.ts">
<path fill="#ddfeff" stroke="#000000" d="M652.5,-695.2379C652.5,-695.2379 610.5,-695.2379 610.5,-695.2379 607.5,-695.2379 604.5,-692.2379 604.5,-689.2379 604.5,-689.2379 604.5,-683.2379 604.5,-683.2379 604.5,-680.2379 607.5,-677.2379 610.5,-677.2379 610.5,-677.2379 652.5,-677.2379 652.5,-677.2379 655.5,-677.2379 658.5,-680.2379 658.5,-683.2379 658.5,-683.2379 658.5,-689.2379 658.5,-689.2379 658.5,-692.2379 655.5,-695.2379 652.5,-695.2379"/>
<text text-anchor="middle" x="631.5" y="-684.0379" font-family="Helvetica,sans-Serif" font-size="9.00" fill="#000000">date.ts</text>
</a>
</g>
</g>
<!-- src/components/content/header.tsx&#45;&gt;src/libs/date.ts -->
<g id="edge6" class="edge">
<title>src/components/content/header.tsx&#45;&gt;src/libs/date.ts</title>
<path fill="none" stroke="#000000" stroke-width="2" stroke-opacity="0.200000" d="M531.6594,-301.9521C540.8073,-304.0598 549.9249,-308.0145 556,-315.2379 593.7616,-360.1371 563.3599,-521.6936 579,-578.2379 588.8556,-613.8693 610.2479,-651.958 622.4653,-672.0032"/>
<polygon fill="#000000" fill-opacity="0.200000" stroke="#000000" stroke-width="2" stroke-opacity="0.200000" points="620.7114,-673.1598 625.6507,-677.1615 624.2849,-670.953 620.7114,-673.1598"/>
</g>
<!-- src/components/content/index.tsx -->
<g id="node10" class="node">
<title>src/components/content/index.tsx</title>
<g id="a_node10"><a xlink:href="src/components/content/index.tsx" xlink:title="index.tsx">
<path fill="#bbfeff" stroke="#000000" d="M364.5,-339.2379C364.5,-339.2379 318.5,-339.2379 318.5,-339.2379 315.5,-339.2379 312.5,-336.2379 312.5,-333.2379 312.5,-333.2379 312.5,-327.2379 312.5,-327.2379 312.5,-324.2379 315.5,-321.2379 318.5,-321.2379 318.5,-321.2379 364.5,-321.2379 364.5,-321.2379 367.5,-321.2379 370.5,-324.2379 370.5,-327.2379 370.5,-327.2379 370.5,-333.2379 370.5,-333.2379 370.5,-336.2379 367.5,-339.2379 364.5,-339.2379"/>
<text text-anchor="middle" x="341.5" y="-328.0379" font-family="Helvetica,sans-Serif" font-size="9.00" fill="#000000">index.tsx</text>
</a>
</g>
</g>
<!-- src/components/content/index.tsx&#45;&gt;src/styles/styleValues.ts -->
<g id="edge8" class="edge">
<title>src/components/content/index.tsx&#45;&gt;src/styles/styleValues.ts</title>
<path fill="none" stroke="#000000" stroke-width="2" stroke-opacity="0.200000" d="M370.7618,-332.9616C388.6802,-332.9125 410.6587,-329.4698 424,-315.2379 453.0692,-284.2282 411.2901,-255.5148 435,-220.2379 471.0258,-166.6368 542.8849,-137.151 589.0025,-123.0358"/>
<polygon fill="#000000" fill-opacity="0.200000" stroke="#000000" stroke-width="2" stroke-opacity="0.200000" points="589.6279,-125.0407 594.7737,-121.3083 588.4235,-121.0171 589.6279,-125.0407"/>
</g>
<!-- src/components/content/index.tsx&#45;&gt;src/components/content/footer.tsx -->
<g id="edge9" class="edge">
<title>src/components/content/index.tsx&#45;&gt;src/components/content/footer.tsx</title>
<path fill="none" stroke="#000000" stroke-width="2" stroke-opacity="0.200000" d="M370.8483,-330.2379C397.0662,-330.2379 435.5538,-330.2379 463.5986,-330.2379"/>
<polygon fill="#000000" fill-opacity="0.200000" stroke="#000000" stroke-width="2" stroke-opacity="0.200000" points="463.7727,-332.338 469.7727,-330.2379 463.7727,-328.138 463.7727,-332.338"/>
</g>
<!-- src/components/content/index.tsx&#45;&gt;src/components/content/header.tsx -->
<g id="edge10" class="edge">
<title>src/components/content/index.tsx&#45;&gt;src/components/content/header.tsx</title>
<path fill="none" stroke="#000000" stroke-width="2" stroke-opacity="0.200000" d="M370.5385,-325.0772C386.3562,-322.2361 406.2664,-318.6114 424,-315.2379 436.074,-312.941 449.217,-310.3585 461.1026,-307.9921"/>
<polygon fill="#000000" fill-opacity="0.200000" stroke="#000000" stroke-width="2" stroke-opacity="0.200000" points="461.7182,-310.0107 467.1911,-306.7769 460.8961,-305.8919 461.7182,-310.0107"/>
</g>
<!-- src/components/content/tags.tsx -->
<g id="node11" class="node">
<title>src/components/content/tags.tsx</title>
<g id="a_node11"><a xlink:href="src/components/content/tags.tsx" xlink:title="tags.tsx">
<path fill="#bbfeff" stroke="#000000" d="M362.5,-309.2379C362.5,-309.2379 320.5,-309.2379 320.5,-309.2379 317.5,-309.2379 314.5,-306.2379 314.5,-303.2379 314.5,-303.2379 314.5,-297.2379 314.5,-297.2379 314.5,-294.2379 317.5,-291.2379 320.5,-291.2379 320.5,-291.2379 362.5,-291.2379 362.5,-291.2379 365.5,-291.2379 368.5,-294.2379 368.5,-297.2379 368.5,-297.2379 368.5,-303.2379 368.5,-303.2379 368.5,-306.2379 365.5,-309.2379 362.5,-309.2379"/>
<text text-anchor="middle" x="341.5" y="-298.0379" font-family="Helvetica,sans-Serif" font-size="9.00" fill="#000000">tags.tsx</text>
</a>
</g>
</g>
<!-- src/components/content/tags.tsx&#45;&gt;src/styles/colorScheme.ts -->
<g id="edge11" class="edge">
<title>src/components/content/tags.tsx&#45;&gt;src/styles/colorScheme.ts</title>
<path fill="none" stroke="#000000" stroke-width="2" stroke-opacity="0.200000" d="M368.8726,-300.6747C387.4188,-299.3749 410.8604,-294.3012 424,-278.2379 449.3732,-247.2189 411.86,-130.9566 435,-98.2379 500.2927,-5.9176 580.0843,11.7453 682,-37.2379 707.9251,-49.6982 726.1547,-79.4196 735.2886,-97.4826"/>
<polygon fill="#000000" fill-opacity="0.200000" stroke="#000000" stroke-width="2" stroke-opacity="0.200000" points="733.5193,-98.6458 738.0355,-103.1196 737.2949,-96.8059 733.5193,-98.6458"/>
</g>
<!-- src/components/content/tags.tsx&#45;&gt;src/styles/styleValues.ts -->
<g id="edge12" class="edge">
<title>src/components/content/tags.tsx&#45;&gt;src/styles/styleValues.ts</title>
<path fill="none" stroke="#000000" stroke-width="2" stroke-opacity="0.200000" d="M368.8433,-300.6506C387.3756,-299.3394 410.8128,-294.2621 424,-278.2379 447.2104,-250.0342 408.449,-139.3222 435,-114.2379 456.0304,-94.3693 535.4452,-99.9496 586.6517,-105.9789"/>
<polygon fill="#000000" fill-opacity="0.200000" stroke="#000000" stroke-width="2" stroke-opacity="0.200000" points="586.5424,-108.0809 592.7507,-106.7147 587.0455,-103.9111 586.5424,-108.0809"/>
</g>
<!-- src/components/embeddeds/niconico.tsx -->
<g id="node12" class="node">
<title>src/components/embeddeds/niconico.tsx</title>
<g id="a_node12"><a xlink:href="src/components/embeddeds/niconico.tsx" xlink:title="niconico.tsx">
<path fill="#ccffcc" stroke="#000000" d="M237,-310.2379C237,-310.2379 178,-310.2379 178,-310.2379 175,-310.2379 172,-307.2379 172,-304.2379 172,-304.2379 172,-298.2379 172,-298.2379 172,-295.2379 175,-292.2379 178,-292.2379 178,-292.2379 237,-292.2379 237,-292.2379 240,-292.2379 243,-295.2379 243,-298.2379 243,-298.2379 243,-304.2379 243,-304.2379 243,-307.2379 240,-310.2379 237,-310.2379"/>
<text text-anchor="middle" x="207.5" y="-299.0379" font-family="Helvetica,sans-Serif" font-size="9.00" fill="#000000">niconico.tsx</text>
</a>
</g>
</g>
<!-- src/components/layout/index.tsx -->
<g id="node13" class="node">
<title>src/components/layout/index.tsx</title>
<g id="a_node13"><a xlink:href="src/components/layout/index.tsx" xlink:title="index.tsx">
<path fill="#bbfeff" stroke="#000000" d="M230.5,-189.2379C230.5,-189.2379 184.5,-189.2379 184.5,-189.2379 181.5,-189.2379 178.5,-186.2379 178.5,-183.2379 178.5,-183.2379 178.5,-177.2379 178.5,-177.2379 178.5,-174.2379 181.5,-171.2379 184.5,-171.2379 184.5,-171.2379 230.5,-171.2379 230.5,-171.2379 233.5,-171.2379 236.5,-174.2379 236.5,-177.2379 236.5,-177.2379 236.5,-183.2379 236.5,-183.2379 236.5,-186.2379 233.5,-189.2379 230.5,-189.2379"/>
<text text-anchor="middle" x="207.5" y="-178.0379" font-family="Helvetica,sans-Serif" font-size="9.00" fill="#000000">index.tsx</text>
</a>
</g>
</g>
<!-- src/components/layout/index.tsx&#45;&gt;src/styles/styleValues.ts -->
<g id="edge15" class="edge">
<title>src/components/layout/index.tsx&#45;&gt;src/styles/styleValues.ts</title>
<path fill="none" stroke="#000000" stroke-width="2" stroke-opacity="0.200000" d="M236.5176,-178.2476C281.5962,-173.7347 368.9748,-159.1275 424,-112.2379 432.3206,-105.1475 425.7008,-95.9851 435,-90.2379 489.5059,-56.5514 517.5429,-79.1076 579,-97.2379 583.7704,-98.6452 588.7908,-100.1058 593.7582,-101.5386"/>
<polygon fill="#000000" fill-opacity="0.200000" stroke="#000000" stroke-width="2" stroke-opacity="0.200000" points="593.2003,-103.5632 599.547,-103.203 594.361,-99.5268 593.2003,-103.5632"/>
</g>
<!-- src/components/layout/index.tsx&#45;&gt;src/components/content/index.tsx -->
<g id="edge17" class="edge">
<title>src/components/layout/index.tsx&#45;&gt;src/components/content/index.tsx</title>
<path fill="none" stroke="#000000" stroke-width="2" stroke-opacity="0.200000" d="M222.3071,-189.4889C232.2623,-196.5862 244.6794,-207.3399 251,-220.2379 260.3228,-239.2623 244.7542,-299.5569 259,-315.2379 270.7697,-328.1933 289.6821,-332.2881 306.4316,-332.9876"/>
<polygon fill="#000000" fill-opacity="0.200000" stroke="#000000" stroke-width="2" stroke-opacity="0.200000" points="306.4488,-335.0882 312.4873,-333.1017 306.528,-330.8889 306.4488,-335.0882"/>
</g>
<!-- src/images/dark.svg -->
<g id="node14" class="node">
<title>src/images/dark.svg</title>
<g id="a_node14"><a xlink:href="src/images/dark.svg" xlink:title="dark.svg">
<path fill="#ffffcc" stroke="#000000" d="M363.5,-83.2379C363.5,-83.2379 319.5,-83.2379 319.5,-83.2379 316.5,-83.2379 313.5,-80.2379 313.5,-77.2379 313.5,-77.2379 313.5,-71.2379 313.5,-71.2379 313.5,-68.2379 316.5,-65.2379 319.5,-65.2379 319.5,-65.2379 363.5,-65.2379 363.5,-65.2379 366.5,-65.2379 369.5,-68.2379 369.5,-71.2379 369.5,-71.2379 369.5,-77.2379 369.5,-77.2379 369.5,-80.2379 366.5,-83.2379 363.5,-83.2379"/>
<text text-anchor="middle" x="341.5" y="-72.0379" font-family="Helvetica,sans-Serif" font-size="9.00" fill="#000000">dark.svg</text>
</a>
</g>
</g>
<!-- src/components/layout/index.tsx&#45;&gt;src/images/dark.svg -->
<g id="edge13" class="edge">
<title>src/components/layout/index.tsx&#45;&gt;src/images/dark.svg</title>
<path fill="none" stroke="#000000" stroke-width="2" stroke-opacity="0.200000" d="M212.7652,-171.0502C221.0775,-157.21 238.4288,-130.8668 259,-114.2379 274.1043,-102.0282 293.5519,-92.3706 309.7715,-85.606"/>
<polygon fill="#000000" fill-opacity="0.200000" stroke="#000000" stroke-width="2" stroke-opacity="0.200000" points="310.8175,-87.4478 315.587,-83.2452 309.2377,-83.5562 310.8175,-87.4478"/>
</g>
<!-- src/styles/mediaQueries.ts -->
<g id="node15" class="node">
<title>src/styles/mediaQueries.ts</title>
<g id="a_node15"><a xlink:href="src/styles/mediaQueries.ts" xlink:title="mediaQueries.ts">
<path fill="#ddfeff" stroke="#000000" d="M670,-61.2379C670,-61.2379 593,-61.2379 593,-61.2379 590,-61.2379 587,-58.2379 587,-55.2379 587,-55.2379 587,-49.2379 587,-49.2379 587,-46.2379 590,-43.2379 593,-43.2379 593,-43.2379 670,-43.2379 670,-43.2379 673,-43.2379 676,-46.2379 676,-49.2379 676,-49.2379 676,-55.2379 676,-55.2379 676,-58.2379 673,-61.2379 670,-61.2379"/>
<text text-anchor="middle" x="631.5" y="-50.0379" font-family="Helvetica,sans-Serif" font-size="9.00" fill="#000000">mediaQueries.ts</text>
</a>
</g>
</g>
<!-- src/components/layout/index.tsx&#45;&gt;src/styles/mediaQueries.ts -->
<g id="edge14" class="edge">
<title>src/components/layout/index.tsx&#45;&gt;src/styles/mediaQueries.ts</title>
<path fill="none" stroke="#000000" stroke-width="2" stroke-opacity="0.200000" d="M209.4458,-170.9863C215.7071,-142.1925 236.2556,-55.1446 259,-39.2379 366.3239,35.8209 536.7748,-15.9276 603.456,-40.8921"/>
<polygon fill="#000000" fill-opacity="0.200000" stroke="#000000" stroke-width="2" stroke-opacity="0.200000" points="602.8507,-42.9085 609.2054,-43.075 604.3416,-38.982 602.8507,-42.9085"/>
</g>
<!-- src/styles/variables.ts -->
<g id="node16" class="node">
<title>src/styles/variables.ts</title>
<g id="a_node16"><a xlink:href="src/styles/variables.ts" xlink:title="variables.ts">
<path fill="#ddfeff" stroke="#000000" d="M659.5,-91.2379C659.5,-91.2379 603.5,-91.2379 603.5,-91.2379 600.5,-91.2379 597.5,-88.2379 597.5,-85.2379 597.5,-85.2379 597.5,-79.2379 597.5,-79.2379 597.5,-76.2379 600.5,-73.2379 603.5,-73.2379 603.5,-73.2379 659.5,-73.2379 659.5,-73.2379 662.5,-73.2379 665.5,-76.2379 665.5,-79.2379 665.5,-79.2379 665.5,-85.2379 665.5,-85.2379 665.5,-88.2379 662.5,-91.2379 659.5,-91.2379"/>
<text text-anchor="middle" x="631.5" y="-80.0379" font-family="Helvetica,sans-Serif" font-size="9.00" fill="#000000">variables.ts</text>
</a>
</g>
</g>
<!-- src/components/layout/index.tsx&#45;&gt;src/styles/variables.ts -->
<g id="edge16" class="edge">
<title>src/components/layout/index.tsx&#45;&gt;src/styles/variables.ts</title>
<path fill="none" stroke="#000000" stroke-width="2" stroke-opacity="0.200000" d="M207.9747,-171.154C209.7822,-147.0599 218.3903,-81.5104 259,-54.2379 312.3651,-18.3992 506.4571,-54.8571 591.3214,-73.1323"/>
<polygon fill="#000000" fill-opacity="0.200000" stroke="#000000" stroke-width="2" stroke-opacity="0.200000" points="590.9307,-75.1963 597.2394,-74.4155 591.8207,-71.0917 590.9307,-75.1963"/>
</g>
<!-- src/components/sidebar/sidebar.tsx -->
<g id="node17" class="node">
<title>src/components/sidebar/sidebar.tsx</title>
<g id="a_node17"><a xlink:href="src/components/sidebar/sidebar.tsx" xlink:title="sidebar.tsx">
<path fill="#bbfeff" stroke="#000000" d="M368,-459.2379C368,-459.2379 315,-459.2379 315,-459.2379 312,-459.2379 309,-456.2379 309,-453.2379 309,-453.2379 309,-447.2379 309,-447.2379 309,-444.2379 312,-441.2379 315,-441.2379 315,-441.2379 368,-441.2379 368,-441.2379 371,-441.2379 374,-444.2379 374,-447.2379 374,-447.2379 374,-453.2379 374,-453.2379 374,-456.2379 371,-459.2379 368,-459.2379"/>
<text text-anchor="middle" x="341.5" y="-448.0379" font-family="Helvetica,sans-Serif" font-size="9.00" fill="#000000">sidebar.tsx</text>
</a>
</g>
</g>
<!-- src/components/layout/index.tsx&#45;&gt;src/components/sidebar/sidebar.tsx -->
<g id="edge18" class="edge">
<title>src/components/layout/index.tsx&#45;&gt;src/components/sidebar/sidebar.tsx</title>
<path fill="none" stroke="#000000" stroke-width="2" stroke-opacity="0.200000" d="M222.4267,-189.4314C232.4384,-196.5016 244.8737,-207.2465 251,-220.2379 265.0484,-250.0286 245.533,-338.18 259,-368.2379 272.4917,-398.3509 302.3707,-423.4296 322.2213,-437.6326"/>
<polygon fill="#000000" fill-opacity="0.200000" stroke="#000000" stroke-width="2" stroke-opacity="0.200000" points="321.1639,-439.4558 327.2838,-441.1755 323.5721,-436.0147 321.1639,-439.4558"/>
</g>
<!-- src/components/sidebar/sidebar.tsx&#45;&gt;src/styles/mediaQueries.ts -->
<g id="edge25" class="edge">
<title>src/components/sidebar/sidebar.tsx&#45;&gt;src/styles/mediaQueries.ts</title>
<path fill="none" stroke="#000000" stroke-width="2" stroke-opacity="0.200000" d="M355.7407,-441.1864C375.2121,-427.8955 409.3907,-401.0812 424,-368.2379 434.2178,-345.2671 420.3741,-162.6865 435,-142.2379 468.6574,-95.1811 508.9618,-127.9213 556,-94.2379 568.8165,-85.0602 565.7436,-75.7679 579,-67.2379 580.9057,-66.0117 582.9133,-64.8836 584.9872,-63.8462"/>
<polygon fill="#000000" fill-opacity="0.200000" stroke="#000000" stroke-width="2" stroke-opacity="0.200000" points="586.0045,-65.691 590.6071,-61.3062 584.2747,-61.8637 586.0045,-65.691"/>
</g>
<!-- src/components/sidebar/buttons&#45;group.tsx -->
<g id="node22" class="node">
<title>src/components/sidebar/buttons&#45;group.tsx</title>
<g id="a_node22"><a xlink:href="src/components/sidebar/buttons-group.tsx" xlink:title="buttons&#45;group.tsx">
<path fill="#bbfeff" stroke="#000000" d="M542.5,-459.2379C542.5,-459.2379 456.5,-459.2379 456.5,-459.2379 453.5,-459.2379 450.5,-456.2379 450.5,-453.2379 450.5,-453.2379 450.5,-447.2379 450.5,-447.2379 450.5,-444.2379 453.5,-441.2379 456.5,-441.2379 456.5,-441.2379 542.5,-441.2379 542.5,-441.2379 545.5,-441.2379 548.5,-444.2379 548.5,-447.2379 548.5,-447.2379 548.5,-453.2379 548.5,-453.2379 548.5,-456.2379 545.5,-459.2379 542.5,-459.2379"/>
<text text-anchor="middle" x="499.5" y="-448.0379" font-family="Helvetica,sans-Serif" font-size="9.00" fill="#000000">buttons&#45;group.tsx</text>
</a>
</g>
</g>
<!-- src/components/sidebar/sidebar.tsx&#45;&gt;src/components/sidebar/buttons&#45;group.tsx -->
<g id="edge27" class="edge">
<title>src/components/sidebar/sidebar.tsx&#45;&gt;src/components/sidebar/buttons&#45;group.tsx</title>
<path fill="none" stroke="#000000" stroke-width="2" stroke-opacity="0.200000" d="M374.2377,-450.2379C394.4005,-450.2379 420.7709,-450.2379 444.1127,-450.2379"/>
<polygon fill="#000000" fill-opacity="0.200000" stroke="#000000" stroke-width="2" stroke-opacity="0.200000" points="444.2912,-452.338 450.2912,-450.2379 444.2911,-448.138 444.2912,-452.338"/>
</g>
<!-- src/components/table&#45;of&#45;contents/index.tsx -->
<g id="node23" class="node">
<title>src/components/table&#45;of&#45;contents/index.tsx</title>
<g id="a_node23"><a xlink:href="src/components/table-of-contents/index.tsx" xlink:title="index.tsx">
<path fill="#bbfeff" stroke="#000000" d="M522.5,-399.2379C522.5,-399.2379 476.5,-399.2379 476.5,-399.2379 473.5,-399.2379 470.5,-396.2379 470.5,-393.2379 470.5,-393.2379 470.5,-387.2379 470.5,-387.2379 470.5,-384.2379 473.5,-381.2379 476.5,-381.2379 476.5,-381.2379 522.5,-381.2379 522.5,-381.2379 525.5,-381.2379 528.5,-384.2379 528.5,-387.2379 528.5,-387.2379 528.5,-393.2379 528.5,-393.2379 528.5,-396.2379 525.5,-399.2379 522.5,-399.2379"/>
<text text-anchor="middle" x="499.5" y="-388.0379" font-family="Helvetica,sans-Serif" font-size="9.00" fill="#000000">index.tsx</text>
</a>
</g>
</g>
<!-- src/components/sidebar/sidebar.tsx&#45;&gt;src/components/table&#45;of&#45;contents/index.tsx -->
<g id="edge26" class="edge">
<title>src/components/sidebar/sidebar.tsx&#45;&gt;src/components/table&#45;of&#45;contents/index.tsx</title>
<path fill="none" stroke="#000000" stroke-width="2" stroke-opacity="0.200000" d="M365.4968,-441.1252C393.4995,-430.4913 439.8063,-412.9064 469.9847,-401.4463"/>
<polygon fill="#000000" fill-opacity="0.200000" stroke="#000000" stroke-width="2" stroke-opacity="0.200000" points="470.9314,-403.3331 475.7951,-399.2398 469.4403,-399.4067 470.9314,-403.3331"/>
</g>
<!-- src/components/post&#45;link/post&#45;link.tsx -->
<g id="node18" class="node">
<title>src/components/post&#45;link/post&#45;link.tsx</title>
<g id="a_node18"><a xlink:href="src/components/post-link/post-link.tsx" xlink:title="post&#45;link.tsx">
<path fill="#bbfeff" stroke="#000000" d="M371,-249.2379C371,-249.2379 312,-249.2379 312,-249.2379 309,-249.2379 306,-246.2379 306,-243.2379 306,-243.2379 306,-237.2379 306,-237.2379 306,-234.2379 309,-231.2379 312,-231.2379 312,-231.2379 371,-231.2379 371,-231.2379 374,-231.2379 377,-234.2379 377,-237.2379 377,-237.2379 377,-243.2379 377,-243.2379 377,-246.2379 374,-249.2379 371,-249.2379"/>
<text text-anchor="middle" x="341.5" y="-238.0379" font-family="Helvetica,sans-Serif" font-size="9.00" fill="#000000">post&#45;link.tsx</text>
</a>
</g>
</g>
<!-- src/components/post&#45;link/post&#45;link.tsx&#45;&gt;src/styles/styleValues.ts -->
<g id="edge19" class="edge">
<title>src/components/post&#45;link/post&#45;link.tsx&#45;&gt;src/styles/styleValues.ts</title>
<path fill="none" stroke="#000000" stroke-width="2" stroke-opacity="0.200000" d="M348.6129,-231.0666C363.5358,-211.6193 398.8133,-164.5524 424,-122.2379 429.5914,-112.8442 425.7008,-105.9851 435,-100.2379 459.5156,-85.0865 537.0071,-95.1053 587.0377,-103.707"/>
<polygon fill="#000000" fill-opacity="0.200000" stroke="#000000" stroke-width="2" stroke-opacity="0.200000" points="586.7257,-105.7842 592.9975,-104.7472 587.4479,-101.6468 586.7257,-105.7842"/>
</g>
<!-- src/components/post&#45;link/tag&#45;list.tsx -->
<g id="node19" class="node">
<title>src/components/post&#45;link/tag&#45;list.tsx</title>
<g id="a_node19"><a xlink:href="src/components/post-link/tag-list.tsx" xlink:title="tag&#45;list.tsx">
<path fill="#bbfeff" stroke="#000000" d="M525.5,-249.2379C525.5,-249.2379 473.5,-249.2379 473.5,-249.2379 470.5,-249.2379 467.5,-246.2379 467.5,-243.2379 467.5,-243.2379 467.5,-237.2379 467.5,-237.2379 467.5,-234.2379 470.5,-231.2379 473.5,-231.2379 473.5,-231.2379 525.5,-231.2379 525.5,-231.2379 528.5,-231.2379 531.5,-234.2379 531.5,-237.2379 531.5,-237.2379 531.5,-243.2379 531.5,-243.2379 531.5,-246.2379 528.5,-249.2379 525.5,-249.2379"/>
<text text-anchor="middle" x="499.5" y="-238.0379" font-family="Helvetica,sans-Serif" font-size="9.00" fill="#000000">tag&#45;list.tsx</text>
</a>
</g>
</g>
<!-- src/components/post&#45;link/post&#45;link.tsx&#45;&gt;src/components/post&#45;link/tag&#45;list.tsx -->
<g id="edge20" class="edge">
<title>src/components/post&#45;link/post&#45;link.tsx&#45;&gt;src/components/post&#45;link/tag&#45;list.tsx</title>
<path fill="none" stroke="#000000" stroke-width="2" stroke-opacity="0.200000" d="M377.3526,-240.2379C402.2813,-240.2379 435.4785,-240.2379 460.9721,-240.2379"/>
<polygon fill="#000000" fill-opacity="0.200000" stroke="#000000" stroke-width="2" stroke-opacity="0.200000" points="461.2778,-242.338 467.2778,-240.2379 461.2778,-238.138 461.2778,-242.338"/>
</g>
<!-- src/components/post&#45;link/tag&#45;list.tsx&#45;&gt;src/styles/styleValues.ts -->
<g id="edge22" class="edge">
<title>src/components/post&#45;link/tag&#45;list.tsx&#45;&gt;src/styles/styleValues.ts</title>
<path fill="none" stroke="#000000" stroke-width="2" stroke-opacity="0.200000" d="M508.9931,-231.0325C532.0162,-208.707 590.8997,-151.6079 617.765,-125.5567"/>
<polygon fill="#000000" fill-opacity="0.200000" stroke="#000000" stroke-width="2" stroke-opacity="0.200000" points="619.2474,-127.0444 622.0929,-121.3599 616.3236,-124.0292 619.2474,-127.0444"/>
</g>
<!-- src/components/post&#45;link/post&#45;list.tsx -->
<g id="node20" class="node">
<title>src/components/post&#45;link/post&#45;list.tsx</title>
<g id="a_node20"><a xlink:href="src/components/post-link/post-list.tsx" xlink:title="post&#45;list.tsx">
<path fill="#bbfeff" stroke="#000000" d="M235.5,-249.2379C235.5,-249.2379 179.5,-249.2379 179.5,-249.2379 176.5,-249.2379 173.5,-246.2379 173.5,-243.2379 173.5,-243.2379 173.5,-237.2379 173.5,-237.2379 173.5,-234.2379 176.5,-231.2379 179.5,-231.2379 179.5,-231.2379 235.5,-231.2379 235.5,-231.2379 238.5,-231.2379 241.5,-234.2379 241.5,-237.2379 241.5,-237.2379 241.5,-243.2379 241.5,-243.2379 241.5,-246.2379 238.5,-249.2379 235.5,-249.2379"/>
<text text-anchor="middle" x="207.5" y="-238.0379" font-family="Helvetica,sans-Serif" font-size="9.00" fill="#000000">post&#45;list.tsx</text>
</a>
</g>
</g>
<!-- src/components/post&#45;link/post&#45;list.tsx&#45;&gt;src/components/post&#45;link/post&#45;link.tsx -->
<g id="edge21" class="edge">
<title>src/components/post&#45;link/post&#45;list.tsx&#45;&gt;src/components/post&#45;link/post&#45;link.tsx</title>
<path fill="none" stroke="#000000" stroke-width="2" stroke-opacity="0.200000" d="M241.6606,-240.2379C259.3556,-240.2379 281.1107,-240.2379 299.7915,-240.2379"/>
<polygon fill="#000000" fill-opacity="0.200000" stroke="#000000" stroke-width="2" stroke-opacity="0.200000" points="299.9986,-242.338 305.9985,-240.2379 299.9985,-238.138 299.9986,-242.338"/>
</g>
<!-- src/components/sidebar/button.tsx -->
<g id="node21" class="node">
<title>src/components/sidebar/button.tsx</title>
<g id="a_node21"><a xlink:href="src/components/sidebar/button.tsx" xlink:title="button.tsx">
<path fill="#bbfeff" stroke="#000000" d="M657.5,-459.2379C657.5,-459.2379 605.5,-459.2379 605.5,-459.2379 602.5,-459.2379 599.5,-456.2379 599.5,-453.2379 599.5,-453.2379 599.5,-447.2379 599.5,-447.2379 599.5,-444.2379 602.5,-441.2379 605.5,-441.2379 605.5,-441.2379 657.5,-441.2379 657.5,-441.2379 660.5,-441.2379 663.5,-444.2379 663.5,-447.2379 663.5,-447.2379 663.5,-453.2379 663.5,-453.2379 663.5,-456.2379 660.5,-459.2379 657.5,-459.2379"/>
<text text-anchor="middle" x="631.5" y="-448.0379" font-family="Helvetica,sans-Serif" font-size="9.00" fill="#000000">button.tsx</text>
</a>
</g>
</g>
<!-- src/components/sidebar/button.tsx&#45;&gt;src/components/atoms/anchor&#45;or&#45;link.tsx -->
<g id="edge23" class="edge">
<title>src/components/sidebar/button.tsx&#45;&gt;src/components/atoms/anchor&#45;or&#45;link.tsx</title>
<path fill="none" stroke="#000000" stroke-width="2" stroke-opacity="0.200000" d="M648.2826,-459.3506C667.4587,-469.763 698.9084,-486.8397 720.0244,-498.3054"/>
<polygon fill="#000000" fill-opacity="0.200000" stroke="#000000" stroke-width="2" stroke-opacity="0.200000" points="719.1466,-500.2184 725.4215,-501.236 721.1508,-496.5274 719.1466,-500.2184"/>
</g>
<!-- src/components/sidebar/buttons&#45;group.tsx&#45;&gt;src/components/sidebar/button.tsx -->
<g id="edge24" class="edge">
<title>src/components/sidebar/buttons&#45;group.tsx&#45;&gt;src/components/sidebar/button.tsx</title>
<path fill="none" stroke="#000000" stroke-width="2" stroke-opacity="0.200000" d="M548.6519,-450.2379C563.2718,-450.2379 579.0737,-450.2379 592.9181,-450.2379"/>
<polygon fill="#000000" fill-opacity="0.200000" stroke="#000000" stroke-width="2" stroke-opacity="0.200000" points="593.13,-452.338 599.13,-450.2379 593.1299,-448.138 593.13,-452.338"/>
</g>
<!-- src/components/table&#45;of&#45;contents/index.tsx&#45;&gt;src/styles/styleValues.ts -->
<g id="edge28" class="edge">
<title>src/components/table&#45;of&#45;contents/index.tsx&#45;&gt;src/styles/styleValues.ts</title>
<path fill="none" stroke="#000000" stroke-width="2" stroke-opacity="0.200000" d="M528.5446,-384.6884C538.5033,-381.434 548.9125,-376.3032 556,-368.2379 584.1065,-336.2541 567.3551,-316.1932 579,-275.2379 594.6476,-220.2048 616.4378,-155.7995 626.2926,-127.2128"/>
<polygon fill="#000000" fill-opacity="0.200000" stroke="#000000" stroke-width="2" stroke-opacity="0.200000" points="628.3399,-127.7178 628.316,-121.3609 624.3705,-126.3453 628.3399,-127.7178"/>
</g>
<!-- src/components/table&#45;of&#45;contents/index.tsx&#45;&gt;src/components/atoms/swiping&#45;anchor.tsx -->
<g id="edge29" class="edge">
<title>src/components/table&#45;of&#45;contents/index.tsx&#45;&gt;src/components/atoms/swiping&#45;anchor.tsx</title>
<path fill="none" stroke="#000000" stroke-width="2" stroke-opacity="0.200000" d="M517.3844,-399.2852C529.6796,-406.2865 545.6024,-417.0092 556,-430.2379 573.1362,-452.0401 559.5815,-468.4412 579,-488.2379 583.0148,-492.3309 587.9063,-495.6987 593.0708,-498.4597"/>
<polygon fill="#000000" fill-opacity="0.200000" stroke="#000000" stroke-width="2" stroke-opacity="0.200000" points="592.4392,-500.4877 598.7535,-501.2231 594.276,-496.7106 592.4392,-500.4877"/>
</g>
<!-- src/gatsby&#45;node/index.ts -->
<g id="node24" class="node">
<title>src/gatsby&#45;node/index.ts</title>
<g id="a_node24"><a xlink:href="src/gatsby-node/index.ts" xlink:title="index.ts">
<path fill="#ddfeff" stroke="#000000" d="M362.5,-769.2379C362.5,-769.2379 320.5,-769.2379 320.5,-769.2379 317.5,-769.2379 314.5,-766.2379 314.5,-763.2379 314.5,-763.2379 314.5,-757.2379 314.5,-757.2379 314.5,-754.2379 317.5,-751.2379 320.5,-751.2379 320.5,-751.2379 362.5,-751.2379 362.5,-751.2379 365.5,-751.2379 368.5,-754.2379 368.5,-757.2379 368.5,-757.2379 368.5,-763.2379 368.5,-763.2379 368.5,-766.2379 365.5,-769.2379 362.5,-769.2379"/>
<text text-anchor="middle" x="341.5" y="-758.0379" font-family="Helvetica,sans-Serif" font-size="9.00" fill="#000000">index.ts</text>
</a>
</g>
</g>
<!-- src/libs/post.ts -->
<g id="node25" class="node">
<title>src/libs/post.ts</title>
<g id="a_node25"><a xlink:href="src/libs/post.ts" xlink:title="post.ts">
<path fill="#ddfeff" stroke="#000000" d="M520.5,-755.2379C520.5,-755.2379 478.5,-755.2379 478.5,-755.2379 475.5,-755.2379 472.5,-752.2379 472.5,-749.2379 472.5,-749.2379 472.5,-743.2379 472.5,-743.2379 472.5,-740.2379 475.5,-737.2379 478.5,-737.2379 478.5,-737.2379 520.5,-737.2379 520.5,-737.2379 523.5,-737.2379 526.5,-740.2379 526.5,-743.2379 526.5,-743.2379 526.5,-749.2379 526.5,-749.2379 526.5,-752.2379 523.5,-755.2379 520.5,-755.2379"/>
<text text-anchor="middle" x="499.5" y="-744.0379" font-family="Helvetica,sans-Serif" font-size="9.00" fill="#000000">post.ts</text>
</a>
</g>
</g>
<!-- src/gatsby&#45;node/index.ts&#45;&gt;src/libs/post.ts -->
<g id="edge30" class="edge">
<title>src/gatsby&#45;node/index.ts&#45;&gt;src/libs/post.ts</title>
<path fill="none" stroke="#000000" stroke-width="2" stroke-opacity="0.200000" d="M368.6612,-757.8312C395.7617,-755.4299 437.434,-751.7374 466.4415,-749.1671"/>
<polygon fill="#000000" fill-opacity="0.200000" stroke="#000000" stroke-width="2" stroke-opacity="0.200000" points="466.6381,-751.258 472.4293,-748.6366 466.2674,-747.0744 466.6381,-751.258"/>
</g>
<!-- src/libs/post.ts&#45;&gt;src/libs/date.ts -->
<g id="edge31" class="edge">
<title>src/libs/post.ts&#45;&gt;src/libs/date.ts</title>
<path fill="none" stroke="#000000" stroke-width="2" stroke-opacity="0.200000" d="M526.7378,-740.6318C536.1923,-738.2632 546.7399,-735.1366 556,-731.2379 576.7922,-722.4839 598.7498,-708.8325 613.5921,-698.86"/>
<polygon fill="#000000" fill-opacity="0.200000" stroke="#000000" stroke-width="2" stroke-opacity="0.200000" points="614.9441,-700.4801 618.723,-695.3682 612.5811,-697.0078 614.9441,-700.4801"/>
</g>
<!-- src/libs/proto&#45;ext.ts -->
<g id="node26" class="node">
<title>src/libs/proto&#45;ext.ts</title>
<g id="a_node26"><a xlink:href="src/libs/proto-ext.ts" xlink:title="proto&#45;ext.ts">
<path fill="#ccffcc" stroke="#000000" d="M528,-725.2379C528,-725.2379 471,-725.2379 471,-725.2379 468,-725.2379 465,-722.2379 465,-719.2379 465,-719.2379 465,-713.2379 465,-713.2379 465,-710.2379 468,-707.2379 471,-707.2379 471,-707.2379 528,-707.2379 528,-707.2379 531,-707.2379 534,-710.2379 534,-713.2379 534,-713.2379 534,-719.2379 534,-719.2379 534,-722.2379 531,-725.2379 528,-725.2379"/>
<text text-anchor="middle" x="499.5" y="-714.0379" font-family="Helvetica,sans-Serif" font-size="9.00" fill="#000000">proto&#45;ext.ts</text>
</a>
</g>
</g>
<!-- src/libs/react&#45;fcx.d.ts -->
<g id="node27" class="node">
<title>src/libs/react&#45;fcx.d.ts</title>
<g id="a_node27"><a xlink:href="src/libs/react-fcx.d.ts" xlink:title="react&#45;fcx.d.ts">
<path fill="#ccffcc" stroke="#000000" d="M532,-695.2379C532,-695.2379 467,-695.2379 467,-695.2379 464,-695.2379 461,-692.2379 461,-689.2379 461,-689.2379 461,-683.2379 461,-683.2379 461,-680.2379 464,-677.2379 467,-677.2379 467,-677.2379 532,-677.2379 532,-677.2379 535,-677.2379 538,-680.2379 538,-683.2379 538,-683.2379 538,-689.2379 538,-689.2379 538,-692.2379 535,-695.2379 532,-695.2379"/>
<text text-anchor="middle" x="499.5" y="-684.0379" font-family="Helvetica,sans-Serif" font-size="9.00" fill="#000000">react&#45;fcx.d.ts</text>
</a>
</g>
</g>
<!-- src/libs/toc.ts -->
<g id="node28" class="node">
<title>src/libs/toc.ts</title>
<g id="a_node28"><a xlink:href="src/libs/toc.ts" xlink:title="toc.ts">
<path fill="#ccffcc" stroke="#000000" d="M520.5,-665.2379C520.5,-665.2379 478.5,-665.2379 478.5,-665.2379 475.5,-665.2379 472.5,-662.2379 472.5,-659.2379 472.5,-659.2379 472.5,-653.2379 472.5,-653.2379 472.5,-650.2379 475.5,-647.2379 478.5,-647.2379 478.5,-647.2379 520.5,-647.2379 520.5,-647.2379 523.5,-647.2379 526.5,-650.2379 526.5,-653.2379 526.5,-653.2379 526.5,-659.2379 526.5,-659.2379 526.5,-662.2379 523.5,-665.2379 520.5,-665.2379"/>
<text text-anchor="middle" x="499.5" y="-654.0379" font-family="Helvetica,sans-Serif" font-size="9.00" fill="#000000">toc.ts</text>
</a>
</g>
</g>
<!-- src/libs/withDefault.ts -->
<g id="node29" class="node">
<title>src/libs/withDefault.ts</title>
<g id="a_node29"><a xlink:href="src/libs/withDefault.ts" xlink:title="withDefault.ts">
<path fill="#ccffcc" stroke="#000000" d="M533.5,-635.2379C533.5,-635.2379 465.5,-635.2379 465.5,-635.2379 462.5,-635.2379 459.5,-632.2379 459.5,-629.2379 459.5,-629.2379 459.5,-623.2379 459.5,-623.2379 459.5,-620.2379 462.5,-617.2379 465.5,-617.2379 465.5,-617.2379 533.5,-617.2379 533.5,-617.2379 536.5,-617.2379 539.5,-620.2379 539.5,-623.2379 539.5,-623.2379 539.5,-629.2379 539.5,-629.2379 539.5,-632.2379 536.5,-635.2379 533.5,-635.2379"/>
<text text-anchor="middle" x="499.5" y="-624.0379" font-family="Helvetica,sans-Serif" font-size="9.00" fill="#000000">withDefault.ts</text>
</a>
</g>
</g>
<!-- src/pages/404.tsx -->
<g id="node30" class="node">
<title>src/pages/404.tsx</title>
<g id="a_node30"><a xlink:href="src/pages/404.tsx" xlink:title="404.tsx">
<path fill="#bbfeff" stroke="#000000" d="M103,-145.2379C103,-145.2379 61,-145.2379 61,-145.2379 58,-145.2379 55,-142.2379 55,-139.2379 55,-139.2379 55,-133.2379 55,-133.2379 55,-130.2379 58,-127.2379 61,-127.2379 61,-127.2379 103,-127.2379 103,-127.2379 106,-127.2379 109,-130.2379 109,-133.2379 109,-133.2379 109,-139.2379 109,-139.2379 109,-142.2379 106,-145.2379 103,-145.2379"/>
<text text-anchor="middle" x="82" y="-134.0379" font-family="Helvetica,sans-Serif" font-size="9.00" fill="#000000">404.tsx</text>
</a>
</g>
</g>
<!-- src/pages/404.tsx&#45;&gt;src/components/layout/index.tsx -->
<g id="edge32" class="edge">
<title>src/pages/404.tsx&#45;&gt;src/components/layout/index.tsx</title>
<path fill="none" stroke="#000000" stroke-width="2" stroke-opacity="0.200000" d="M109.0501,-140.9228C121.1482,-143.3894 135.4754,-146.8287 148,-151.2379 160.9226,-155.7872 174.7132,-162.3887 185.7608,-168.1443"/>
<polygon fill="#000000" fill-opacity="0.200000" stroke="#000000" stroke-width="2" stroke-opacity="0.200000" points="184.9836,-170.1091 191.2687,-171.0617 186.9495,-166.3975 184.9836,-170.1091"/>
</g>
<!-- src/pages/index.tsx -->
<g id="node31" class="node">
<title>src/pages/index.tsx</title>
<g id="a_node31"><a xlink:href="src/pages/index.tsx" xlink:title="index.tsx">
<path fill="#bbfeff" stroke="#000000" d="M105,-175.2379C105,-175.2379 59,-175.2379 59,-175.2379 56,-175.2379 53,-172.2379 53,-169.2379 53,-169.2379 53,-163.2379 53,-163.2379 53,-160.2379 56,-157.2379 59,-157.2379 59,-157.2379 105,-157.2379 105,-157.2379 108,-157.2379 111,-160.2379 111,-163.2379 111,-163.2379 111,-169.2379 111,-169.2379 111,-172.2379 108,-175.2379 105,-175.2379"/>
<text text-anchor="middle" x="82" y="-164.0379" font-family="Helvetica,sans-Serif" font-size="9.00" fill="#000000">index.tsx</text>
</a>
</g>
</g>
<!-- src/pages/index.tsx&#45;&gt;src/components/layout/index.tsx -->
<g id="edge33" class="edge">
<title>src/pages/index.tsx&#45;&gt;src/components/layout/index.tsx</title>
<path fill="none" stroke="#000000" stroke-width="2" stroke-opacity="0.200000" d="M111.1077,-169.485C129.2719,-171.5113 152.7757,-174.1332 172.0267,-176.2807"/>
<polygon fill="#000000" fill-opacity="0.200000" stroke="#000000" stroke-width="2" stroke-opacity="0.200000" points="171.9196,-178.3817 178.1154,-176.96 172.3853,-174.2076 171.9196,-178.3817"/>
</g>
<!-- src/pages/index.tsx&#45;&gt;src/components/post&#45;link/post&#45;list.tsx -->
<g id="edge34" class="edge">
<title>src/pages/index.tsx&#45;&gt;src/components/post&#45;link/post&#45;list.tsx</title>
<path fill="none" stroke="#000000" stroke-width="2" stroke-opacity="0.200000" d="M111.0251,-166.0964C123.9625,-167.5608 138.4126,-171.549 148,-181.2379 159.8338,-193.1971 145.2905,-205.2622 156,-218.2379 159.3362,-222.2801 163.5509,-225.5954 168.1262,-228.3107"/>
<polygon fill="#000000" fill-opacity="0.200000" stroke="#000000" stroke-width="2" stroke-opacity="0.200000" points="167.3471,-230.2746 173.6318,-231.2303 169.3149,-226.564 167.3471,-230.2746"/>
</g>
<!-- src/pages/tags.tsx -->
<g id="node32" class="node">
<title>src/pages/tags.tsx</title>
<g id="a_node32"><a xlink:href="src/pages/tags.tsx" xlink:title="tags.tsx">
<path fill="#bbfeff" stroke="#000000" d="M103,-205.2379C103,-205.2379 61,-205.2379 61,-205.2379 58,-205.2379 55,-202.2379 55,-199.2379 55,-199.2379 55,-193.2379 55,-193.2379 55,-190.2379 58,-187.2379 61,-187.2379 61,-187.2379 103,-187.2379 103,-187.2379 106,-187.2379 109,-190.2379 109,-193.2379 109,-193.2379 109,-199.2379 109,-199.2379 109,-202.2379 106,-205.2379 103,-205.2379"/>
<text text-anchor="middle" x="82" y="-194.0379" font-family="Helvetica,sans-Serif" font-size="9.00" fill="#000000">tags.tsx</text>
</a>
</g>
</g>
<!-- src/pages/tags.tsx&#45;&gt;src/components/layout/index.tsx -->
<g id="edge35" class="edge">
<title>src/pages/tags.tsx&#45;&gt;src/components/layout/index.tsx</title>
<path fill="none" stroke="#000000" stroke-width="2" stroke-opacity="0.200000" d="M109.2316,-192.7661C127.6554,-190.4173 152.1701,-187.2919 172.1049,-184.7504"/>
<polygon fill="#000000" fill-opacity="0.200000" stroke="#000000" stroke-width="2" stroke-opacity="0.200000" points="172.4466,-186.824 178.1328,-183.9819 171.9153,-182.6577 172.4466,-186.824"/>
</g>
<!-- src/pages/tags.tsx&#45;&gt;src/components/post&#45;link/post&#45;list.tsx -->
<g id="edge36" class="edge">
<title>src/pages/tags.tsx&#45;&gt;src/components/post&#45;link/post&#45;list.tsx</title>
<path fill="none" stroke="#000000" stroke-width="2" stroke-opacity="0.200000" d="M107.6996,-205.2481C127.3645,-212.1426 154.5927,-221.6887 175.6418,-229.0685"/>
<polygon fill="#000000" fill-opacity="0.200000" stroke="#000000" stroke-width="2" stroke-opacity="0.200000" points="175.0465,-231.0851 181.4034,-231.0885 176.4362,-227.1216 175.0465,-231.0851"/>
</g>
<!-- src/state/store.ts -->
<g id="node33" class="node">
<title>src/state/store.ts</title>
<g id="a_node33"><a xlink:href="src/state/store.ts" xlink:title="store.ts">
<path fill="#ddfeff" stroke="#000000" d="M103,-743.2379C103,-743.2379 61,-743.2379 61,-743.2379 58,-743.2379 55,-740.2379 55,-737.2379 55,-737.2379 55,-731.2379 55,-731.2379 55,-728.2379 58,-725.2379 61,-725.2379 61,-725.2379 103,-725.2379 103,-725.2379 106,-725.2379 109,-728.2379 109,-731.2379 109,-731.2379 109,-737.2379 109,-737.2379 109,-740.2379 106,-743.2379 103,-743.2379"/>
<text text-anchor="middle" x="82" y="-732.0379" font-family="Helvetica,sans-Serif" font-size="9.00" fill="#000000">store.ts</text>
</a>
</g>
</g>
<!-- src/state/ui/index.ts -->
<g id="node34" class="node">
<title>src/state/ui/index.ts</title>
<g id="a_node34"><a xlink:href="src/state/ui/index.ts" xlink:title="index.ts">
<path fill="#ddfeff" stroke="#000000" d="M228.5,-743.2379C228.5,-743.2379 186.5,-743.2379 186.5,-743.2379 183.5,-743.2379 180.5,-740.2379 180.5,-737.2379 180.5,-737.2379 180.5,-731.2379 180.5,-731.2379 180.5,-728.2379 183.5,-725.2379 186.5,-725.2379 186.5,-725.2379 228.5,-725.2379 228.5,-725.2379 231.5,-725.2379 234.5,-728.2379 234.5,-731.2379 234.5,-731.2379 234.5,-737.2379 234.5,-737.2379 234.5,-740.2379 231.5,-743.2379 228.5,-743.2379"/>
<text text-anchor="middle" x="207.5" y="-732.0379" font-family="Helvetica,sans-Serif" font-size="9.00" fill="#000000">index.ts</text>
</a>
</g>
</g>
<!-- src/state/store.ts&#45;&gt;src/state/ui/index.ts -->
<g id="edge37" class="edge">
<title>src/state/store.ts&#45;&gt;src/state/ui/index.ts</title>
<path fill="none" stroke="#000000" stroke-width="2" stroke-opacity="0.200000" d="M109.2316,-738.0235C125.9241,-738.7795 147.6165,-738.9355 166.3725,-738.4915"/>
<polygon fill="#000000" fill-opacity="0.200000" stroke="#000000" stroke-width="2" stroke-opacity="0.200000" points="174.3957,-740.3222 180.3215,-738.0211 174.2541,-736.1246 174.3957,-740.3222"/>
<polyline fill="none" stroke="#000000" stroke-width="2" stroke-opacity="0.200000" points="174.3249,-738.2234 171.3266,-738.3245 "/>
<ellipse fill="none" stroke="#000000" stroke-width="2" stroke-opacity="0.200000" cx="168.928" cy="-738.4054" rx="2.4" ry="2.4"/>
</g>
<!-- src/state/ui/index.ts&#45;&gt;src/state/store.ts -->
<g id="edge38" class="edge">
<title>src/state/ui/index.ts&#45;&gt;src/state/store.ts</title>
<path fill="none" stroke="#000000" stroke-width="2" stroke-opacity="0.200000" d="M180.3215,-730.4547C163.6397,-729.6975 141.9495,-729.5402 123.1872,-729.9829"/>
<polygon fill="#000000" fill-opacity="0.200000" stroke="#000000" stroke-width="2" stroke-opacity="0.200000" points="115.1576,-728.1517 109.2316,-730.4523 115.2989,-732.3494 115.1576,-728.1517"/>
<polyline fill="none" stroke="#000000" stroke-width="2" stroke-opacity="0.200000" points="115.2282,-730.2505 118.2265,-730.1497 "/>
<ellipse fill="none" stroke="#000000" stroke-width="2" stroke-opacity="0.200000" cx="120.6252" cy="-730.069" rx="2.4" ry="2.4"/>
</g>
<!-- src/templates/ArchiveMonthPage.tsx -->
<g id="node35" class="node">
<title>src/templates/ArchiveMonthPage.tsx</title>
<g id="a_node35"><a xlink:href="src/templates/ArchiveMonthPage.tsx" xlink:title="ArchiveMonthPage.tsx">
<path fill="#bbfeff" stroke="#000000" d="M134,-295.2379C134,-295.2379 30,-295.2379 30,-295.2379 27,-295.2379 24,-292.2379 24,-289.2379 24,-289.2379 24,-283.2379 24,-283.2379 24,-280.2379 27,-277.2379 30,-277.2379 30,-277.2379 134,-277.2379 134,-277.2379 137,-277.2379 140,-280.2379 140,-283.2379 140,-283.2379 140,-289.2379 140,-289.2379 140,-292.2379 137,-295.2379 134,-295.2379"/>
<text text-anchor="middle" x="82" y="-284.0379" font-family="Helvetica,sans-Serif" font-size="9.00" fill="#000000">ArchiveMonthPage.tsx</text>
</a>
</g>
</g>
<!-- src/templates/ArchiveMonthPage.tsx&#45;&gt;src/components/layout/index.tsx -->
<g id="edge40" class="edge">
<title>src/templates/ArchiveMonthPage.tsx&#45;&gt;src/components/layout/index.tsx</title>
<path fill="none" stroke="#000000" stroke-width="2" stroke-opacity="0.200000" d="M140.1634,-277.6451C143.0273,-275.8462 145.6736,-273.7279 148,-271.2379 163.6639,-254.473 144.3416,-239.999 156,-220.2379 162.7601,-208.7794 174.1661,-199.4119 184.528,-192.6303"/>
<polygon fill="#000000" fill-opacity="0.200000" stroke="#000000" stroke-width="2" stroke-opacity="0.200000" points="185.8462,-194.283 189.8214,-189.3223 183.6203,-190.7213 185.8462,-194.283"/>
</g>
<!-- src/templates/ArchiveMonthPage.tsx&#45;&gt;src/components/post&#45;link/post&#45;list.tsx -->
<g id="edge41" class="edge">
<title>src/templates/ArchiveMonthPage.tsx&#45;&gt;src/components/post&#45;link/post&#45;list.tsx</title>
<path fill="none" stroke="#000000" stroke-width="2" stroke-opacity="0.200000" d="M128.5966,-277.2302C135.1901,-275.4996 141.8229,-273.506 148,-271.2379 161.7188,-266.2007 176.2826,-258.6546 187.5677,-252.2688"/>
<polygon fill="#000000" fill-opacity="0.200000" stroke="#000000" stroke-width="2" stroke-opacity="0.200000" points="188.6729,-254.0558 192.8262,-249.2433 186.5783,-250.4153 188.6729,-254.0558"/>
</g>
<!-- src/templates/ArchiveYearPage.tsx -->
<g id="node36" class="node">
<title>src/templates/ArchiveYearPage.tsx</title>
<g id="a_node36"><a xlink:href="src/templates/ArchiveYearPage.tsx" xlink:title="ArchiveYearPage.tsx">
<path fill="#bbfeff" stroke="#000000" d="M129,-265.2379C129,-265.2379 35,-265.2379 35,-265.2379 32,-265.2379 29,-262.2379 29,-259.2379 29,-259.2379 29,-253.2379 29,-253.2379 29,-250.2379 32,-247.2379 35,-247.2379 35,-247.2379 129,-247.2379 129,-247.2379 132,-247.2379 135,-250.2379 135,-253.2379 135,-253.2379 135,-259.2379 135,-259.2379 135,-262.2379 132,-265.2379 129,-265.2379"/>
<text text-anchor="middle" x="82" y="-254.0379" font-family="Helvetica,sans-Serif" font-size="9.00" fill="#000000">ArchiveYearPage.tsx</text>
</a>
</g>
</g>
<!-- src/templates/ArchiveYearPage.tsx&#45;&gt;src/components/layout/index.tsx -->
<g id="edge42" class="edge">
<title>src/templates/ArchiveYearPage.tsx&#45;&gt;src/components/layout/index.tsx</title>
<path fill="none" stroke="#000000" stroke-width="2" stroke-opacity="0.200000" d="M124.5076,-247.1538C132.8848,-244.0186 141.1814,-239.8278 148,-234.2379 153.5421,-229.6945 151.3027,-225.6503 156,-220.2379 165.0993,-209.7534 177.2978,-200.1354 187.5387,-192.9593"/>
<polygon fill="#000000" fill-opacity="0.200000" stroke="#000000" stroke-width="2" stroke-opacity="0.200000" points="188.9214,-194.5579 192.6888,-189.4376 186.5506,-191.0909 188.9214,-194.5579"/>
</g>
<!-- src/templates/ArchiveYearPage.tsx&#45;&gt;src/components/post&#45;link/post&#45;list.tsx -->
<g id="edge43" class="edge">
<title>src/templates/ArchiveYearPage.tsx&#45;&gt;src/components/post&#45;link/post&#45;list.tsx</title>
<path fill="none" stroke="#000000" stroke-width="2" stroke-opacity="0.200000" d="M135.2233,-249.4525C145.9562,-248.0841 157.0698,-246.6673 167.2685,-245.367"/>
<polygon fill="#000000" fill-opacity="0.200000" stroke="#000000" stroke-width="2" stroke-opacity="0.200000" points="167.8026,-247.416 173.4888,-244.574 167.2713,-243.2497 167.8026,-247.416"/>
</g>
<!-- src/templates/BlogPost.tsx -->
<g id="node37" class="node">
<title>src/templates/BlogPost.tsx</title>
<g id="a_node37"><a xlink:href="src/templates/BlogPost.tsx" xlink:title="BlogPost.tsx">
<path fill="#bbfeff" stroke="#000000" d="M111.5,-355.2379C111.5,-355.2379 52.5,-355.2379 52.5,-355.2379 49.5,-355.2379 46.5,-352.2379 46.5,-349.2379 46.5,-349.2379 46.5,-343.2379 46.5,-343.2379 46.5,-340.2379 49.5,-337.2379 52.5,-337.2379 52.5,-337.2379 111.5,-337.2379 111.5,-337.2379 114.5,-337.2379 117.5,-340.2379 117.5,-343.2379 117.5,-343.2379 117.5,-349.2379 117.5,-349.2379 117.5,-352.2379 114.5,-355.2379 111.5,-355.2379"/>
<text text-anchor="middle" x="82" y="-344.0379" font-family="Helvetica,sans-Serif" font-size="9.00" fill="#000000">BlogPost.tsx</text>
</a>
</g>
</g>
<!-- src/templates/BlogPost.tsx&#45;&gt;src/components/atoms/mdx&#45;components.tsx -->
<g id="edge44" class="edge">
<title>src/templates/BlogPost.tsx&#45;&gt;src/components/atoms/mdx&#45;components.tsx</title>
<path fill="none" stroke="#000000" stroke-width="2" stroke-opacity="0.200000" d="M83.1296,-355.4171C89.4956,-402.6766 125.5171,-619.5333 259,-702.2379 321.3377,-740.8617 370.5615,-752.4585 424,-702.2379 452.7178,-675.2495 409.5461,-555.3242 435,-525.2379 435.8632,-524.2176 436.7811,-523.259 437.7468,-522.3586"/>
<polygon fill="#000000" fill-opacity="0.200000" stroke="#000000" stroke-width="2" stroke-opacity="0.200000" points="439.4905,-523.6636 442.9429,-518.3259 436.9154,-520.3456 439.4905,-523.6636"/>
</g>
<!-- src/templates/BlogPost.tsx&#45;&gt;src/components/content/tags.tsx -->
<g id="edge45" class="edge">
<title>src/templates/BlogPost.tsx&#45;&gt;src/components/content/tags.tsx</title>
<path fill="none" stroke="#000000" stroke-width="2" stroke-opacity="0.200000" d="M116.207,-355.2588C153.2719,-362.8614 212.2877,-368.3763 251,-339.2379 259.9833,-332.4763 250.5059,-322.6048 259,-315.2379 272.3012,-303.7018 291.4485,-299.718 307.9491,-298.7253"/>
<polygon fill="#000000" fill-opacity="0.200000" stroke="#000000" stroke-width="2" stroke-opacity="0.200000" points="308.446,-300.8077 314.3603,-298.4774 308.2837,-296.6109 308.446,-300.8077"/>
</g>
<!-- src/templates/BlogPost.tsx&#45;&gt;src/components/layout/index.tsx -->
<g id="edge46" class="edge">
<title>src/templates/BlogPost.tsx&#45;&gt;src/components/layout/index.tsx</title>
<path fill="none" stroke="#000000" stroke-width="2" stroke-opacity="0.200000" d="M117.815,-346.1323C129.0665,-344.2192 140.497,-339.9736 148,-331.2379 164.1134,-312.4772 144.3352,-242.0447 156,-220.2379 162.2297,-208.5918 173.4769,-199.2532 183.8747,-192.5376"/>
<polygon fill="#000000" fill-opacity="0.200000" stroke="#000000" stroke-width="2" stroke-opacity="0.200000" points="185.1887,-194.1952 189.2036,-189.2666 182.9915,-190.6157 185.1887,-194.1952"/>
</g>
<!-- src/templates/IndividualTagPage.tsx -->
<g id="node38" class="node">
<title>src/templates/IndividualTagPage.tsx</title>
<g id="a_node38"><a xlink:href="src/templates/IndividualTagPage.tsx" xlink:title="IndividualTagPage.tsx">
<path fill="#bbfeff" stroke="#000000" d="M132.5,-325.2379C132.5,-325.2379 31.5,-325.2379 31.5,-325.2379 28.5,-325.2379 25.5,-322.2379 25.5,-319.2379 25.5,-319.2379 25.5,-313.2379 25.5,-313.2379 25.5,-310.2379 28.5,-307.2379 31.5,-307.2379 31.5,-307.2379 132.5,-307.2379 132.5,-307.2379 135.5,-307.2379 138.5,-310.2379 138.5,-313.2379 138.5,-313.2379 138.5,-319.2379 138.5,-319.2379 138.5,-322.2379 135.5,-325.2379 132.5,-325.2379"/>
<text text-anchor="middle" x="82" y="-314.0379" font-family="Helvetica,sans-Serif" font-size="9.00" fill="#000000">IndividualTagPage.tsx</text>
</a>
</g>
</g>
<!-- src/templates/IndividualTagPage.tsx&#45;&gt;src/components/layout/index.tsx -->
<g id="edge47" class="edge">
<title>src/templates/IndividualTagPage.tsx&#45;&gt;src/components/layout/index.tsx</title>
<path fill="none" stroke="#000000" stroke-width="2" stroke-opacity="0.200000" d="M138.5534,-308.8977C142.0688,-306.8432 145.2793,-304.322 148,-301.2379 159.9658,-287.674 147.258,-236.0726 156,-220.2379 162.3834,-208.6753 173.6443,-199.3442 184.0113,-192.6119"/>
<polygon fill="#000000" fill-opacity="0.200000" stroke="#000000" stroke-width="2" stroke-opacity="0.200000" points="185.321,-194.2712 189.3206,-189.3302 183.1127,-190.6986 185.321,-194.2712"/>
</g>
<!-- src/templates/IndividualTagPage.tsx&#45;&gt;src/components/post&#45;link/post&#45;list.tsx -->
<g id="edge48" class="edge">
<title>src/templates/IndividualTagPage.tsx&#45;&gt;src/components/post&#45;link/post&#45;list.tsx</title>
<path fill="none" stroke="#000000" stroke-width="2" stroke-opacity="0.200000" d="M138.5968,-307.4917C141.9652,-305.746 145.1408,-303.68 148,-301.2379 155.2797,-295.0202 150.2868,-288.9199 156,-281.2379 164.3631,-269.9928 176.5307,-260.1134 186.9392,-252.8714"/>
<polygon fill="#000000" fill-opacity="0.200000" stroke="#000000" stroke-width="2" stroke-opacity="0.200000" points="188.3902,-254.426 192.1923,-249.3315 186.0431,-250.943 188.3902,-254.426"/>
</g>
<!-- src/tests/libs/Post.test.ts -->
<g id="node39" class="node">
<title>src/tests/libs/Post.test.ts</title>
<g id="a_node39"><a xlink:href="src/tests/libs/Post.test.ts" xlink:title="Post.test.ts">
<path fill="#ddfeff" stroke="#000000" d="M369,-673.2379C369,-673.2379 314,-673.2379 314,-673.2379 311,-673.2379 308,-670.2379 308,-667.2379 308,-667.2379 308,-661.2379 308,-661.2379 308,-658.2379 311,-655.2379 314,-655.2379 314,-655.2379 369,-655.2379 369,-655.2379 372,-655.2379 375,-658.2379 375,-661.2379 375,-661.2379 375,-667.2379 375,-667.2379 375,-670.2379 372,-673.2379 369,-673.2379"/>
<text text-anchor="middle" x="341.5" y="-662.0379" font-family="Helvetica,sans-Serif" font-size="9.00" fill="#000000">Post.test.ts</text>
</a>
</g>
</g>
<!-- src/tests/libs/Post.test.ts&#45;&gt;src/libs/post.ts -->
<g id="edge49" class="edge">
<title>src/tests/libs/Post.test.ts&#45;&gt;src/libs/post.ts</title>
<path fill="none" stroke="#000000" stroke-width="2" stroke-opacity="0.200000" d="M351.3203,-673.3239C367.5028,-687.7964 401.3441,-716.0005 435,-731.2379 444.8057,-735.6773 456.0661,-738.8759 466.4057,-741.1474"/>
<polygon fill="#000000" fill-opacity="0.200000" stroke="#000000" stroke-width="2" stroke-opacity="0.200000" points="466.0682,-743.2219 472.3691,-742.38 466.9184,-739.1089 466.0682,-743.2219"/>
</g>
<!-- src/tests/libs/generate_variables.test.ts -->
<g id="node40" class="node">
<title>src/tests/libs/generate_variables.test.ts</title>
<g id="a_node40"><a xlink:href="src/tests/libs/generate_variables.test.ts" xlink:title="generate_variables.test.ts">
<path fill="#ddfeff" stroke="#000000" d="M402,-643.2379C402,-643.2379 281,-643.2379 281,-643.2379 278,-643.2379 275,-640.2379 275,-637.2379 275,-637.2379 275,-631.2379 275,-631.2379 275,-628.2379 278,-625.2379 281,-625.2379 281,-625.2379 402,-625.2379 402,-625.2379 405,-625.2379 408,-628.2379 408,-631.2379 408,-631.2379 408,-637.2379 408,-637.2379 408,-640.2379 405,-643.2379 402,-643.2379"/>
<text text-anchor="middle" x="341.5" y="-632.0379" font-family="Helvetica,sans-Serif" font-size="9.00" fill="#000000">generate_variables.test.ts</text>
</a>
</g>
</g>
<!-- src/tests/libs/generate_variables.test.ts&#45;&gt;src/styles/variables.ts -->
<g id="edge50" class="edge">
<title>src/tests/libs/generate_variables.test.ts&#45;&gt;src/styles/variables.ts</title>
<path fill="none" stroke="#000000" stroke-width="2" stroke-opacity="0.200000" d="M348.8118,-625.0394C365.8327,-603.0006 407.8786,-544.7955 424,-488.2379 432.1697,-459.5767 421.6216,-246.8693 435,-220.2379 466.0652,-158.3987 505.5489,-169.6069 556,-122.2379 567.0068,-111.9035 566.1497,-105.1638 579,-97.2379 582.8273,-94.8773 587.0389,-92.8765 591.3609,-91.1832"/>
<polygon fill="#000000" fill-opacity="0.200000" stroke="#000000" stroke-width="2" stroke-opacity="0.200000" points="592.3551,-93.0579 597.2973,-89.0598 590.9405,-89.1033 592.3551,-93.0579"/>
</g>
<!-- src/utils/nage.ts -->
<g id="node41" class="node">
<title>src/utils/nage.ts</title>
<g id="a_node41"><a xlink:href="src/utils/nage.ts" xlink:title="nage.ts">
<path fill="#ccffcc" stroke="#000000" d="M103,-85.2379C103,-85.2379 61,-85.2379 61,-85.2379 58,-85.2379 55,-82.2379 55,-79.2379 55,-79.2379 55,-73.2379 55,-73.2379 55,-70.2379 58,-67.2379 61,-67.2379 61,-67.2379 103,-67.2379 103,-67.2379 106,-67.2379 109,-70.2379 109,-73.2379 109,-73.2379 109,-79.2379 109,-79.2379 109,-82.2379 106,-85.2379 103,-85.2379"/>
<text text-anchor="middle" x="82" y="-74.0379" font-family="Helvetica,sans-Serif" font-size="9.00" fill="#000000">nage.ts</text>
</a>
</g>
</g>
<!-- src/utils/throwIfNully.ts -->
<g id="node42" class="node">
<title>src/utils/throwIfNully.ts</title>
<g id="a_node42"><a xlink:href="src/utils/throwIfNully.ts" xlink:title="throwIfNully.ts">
<path fill="#ccffcc" stroke="#000000" d="M116.5,-55.2379C116.5,-55.2379 47.5,-55.2379 47.5,-55.2379 44.5,-55.2379 41.5,-52.2379 41.5,-49.2379 41.5,-49.2379 41.5,-43.2379 41.5,-43.2379 41.5,-40.2379 44.5,-37.2379 47.5,-37.2379 47.5,-37.2379 116.5,-37.2379 116.5,-37.2379 119.5,-37.2379 122.5,-40.2379 122.5,-43.2379 122.5,-43.2379 122.5,-49.2379 122.5,-49.2379 122.5,-52.2379 119.5,-55.2379 116.5,-55.2379"/>
<text text-anchor="middle" x="82" y="-44.0379" font-family="Helvetica,sans-Serif" font-size="9.00" fill="#000000">throwIfNully.ts</text>
</a>
</g>
</g>
</g>
</svg>
