<?xml version="1.0" encoding="UTF-8" standalone="no"?>
<!DOCTYPE svg PUBLIC "-//W3C//DTD SVG 1.1//EN"
 "http://www.w3.org/Graphics/SVG/1.1/DTD/svg11.dtd">
<!-- Generated by graphviz version 2.43.0 (0)
 -->
<!-- Title: dependency&#45;cruiser output Pages: 1 -->
<svg width="979pt" height="1467pt"
 viewBox="0.00 0.00 979.00 1466.88" xmlns="http://www.w3.org/2000/svg" xmlns:xlink="http://www.w3.org/1999/xlink">
<g id="graph0" class="graph" transform="scale(1 1) rotate(0) translate(4 1462.88)">
<title>dependency&#45;cruiser output</title>
<polygon fill="white" stroke="transparent" points="-4,4 -4,-1462.88 975,-1462.88 975,4 -4,4"/>
<g id="clust1" class="cluster">
<title>cluster_src</title>
<path fill="#ffffff" stroke="black" stroke-width="2" d="M20,-12.88C20,-12.88 951,-12.88 951,-12.88 957,-12.88 963,-18.88 963,-24.88 963,-24.88 963,-1438.88 963,-1438.88 963,-1444.88 957,-1450.88 951,-1450.88 951,-1450.88 20,-1450.88 20,-1450.88 14,-1450.88 8,-1444.88 8,-1438.88 8,-1438.88 8,-24.88 8,-24.88 8,-18.88 14,-12.88 20,-12.88"/>
<text text-anchor="middle" x="485.5" y="-1439.68" font-family="Helvetica,sans-Serif" font-weight="bold" font-size="9.00">src</text>
</g>
<g id="clust2" class="cluster">
<title>cluster_src/components</title>
<path fill="#ffffff" stroke="black" stroke-width="2" d="M293,-808.88C293,-808.88 873,-808.88 873,-808.88 879,-808.88 885,-814.88 885,-820.88 885,-820.88 885,-1412.88 885,-1412.88 885,-1418.88 879,-1424.88 873,-1424.88 873,-1424.88 293,-1424.88 293,-1424.88 287,-1424.88 281,-1418.88 281,-1412.88 281,-1412.88 281,-820.88 281,-820.88 281,-814.88 287,-808.88 293,-808.88"/>
<text text-anchor="middle" x="583" y="-1413.68" font-family="Helvetica,sans-Serif" font-weight="bold" font-size="9.00">components</text>
</g>
<g id="clust3" class="cluster">
<title>cluster_src/components/article&#45;elements</title>
<path fill="#ffffff" stroke="black" stroke-width="2" d="M448,-1196.88C448,-1196.88 721.5,-1196.88 721.5,-1196.88 727.5,-1196.88 733.5,-1202.88 733.5,-1208.88 733.5,-1208.88 733.5,-1386.88 733.5,-1386.88 733.5,-1392.88 727.5,-1398.88 721.5,-1398.88 721.5,-1398.88 448,-1398.88 448,-1398.88 442,-1398.88 436,-1392.88 436,-1386.88 436,-1386.88 436,-1208.88 436,-1208.88 436,-1202.88 442,-1196.88 448,-1196.88"/>
<text text-anchor="middle" x="584.75" y="-1387.68" font-family="Helvetica,sans-Serif" font-weight="bold" font-size="9.00">article&#45;elements</text>
</g>
<g id="clust4" class="cluster">
<title>cluster_src/components/atoms</title>
<path fill="#ffffff" stroke="black" stroke-width="2" d="M770,-1166.88C770,-1166.88 865,-1166.88 865,-1166.88 871,-1166.88 877,-1172.88 877,-1178.88 877,-1178.88 877,-1236.88 877,-1236.88 877,-1242.88 871,-1248.88 865,-1248.88 865,-1248.88 770,-1248.88 770,-1248.88 764,-1248.88 758,-1242.88 758,-1236.88 758,-1236.88 758,-1178.88 758,-1178.88 758,-1172.88 764,-1166.88 770,-1166.88"/>
<text text-anchor="middle" x="817.5" y="-1237.68" font-family="Helvetica,sans-Serif" font-weight="bold" font-size="9.00">atoms</text>
</g>
<g id="clust5" class="cluster">
<title>cluster_src/components/content</title>
<path fill="#ffffff" stroke="black" stroke-width="2" d="M462.5,-956.88C462.5,-956.88 720.5,-956.88 720.5,-956.88 726.5,-956.88 732.5,-962.88 732.5,-968.88 732.5,-968.88 732.5,-1086.88 732.5,-1086.88 732.5,-1092.88 726.5,-1098.88 720.5,-1098.88 720.5,-1098.88 462.5,-1098.88 462.5,-1098.88 456.5,-1098.88 450.5,-1092.88 450.5,-1086.88 450.5,-1086.88 450.5,-968.88 450.5,-968.88 450.5,-962.88 456.5,-956.88 462.5,-956.88"/>
<text text-anchor="middle" x="591.5" y="-1087.68" font-family="Helvetica,sans-Serif" font-weight="bold" font-size="9.00">content</text>
</g>
<g id="clust6" class="cluster">
<title>cluster_src/components/embeddeds</title>
<path fill="#ffffff" stroke="black" stroke-width="2" d="M306.5,-1196.88C306.5,-1196.88 369.5,-1196.88 369.5,-1196.88 375.5,-1196.88 381.5,-1202.88 381.5,-1208.88 381.5,-1208.88 381.5,-1236.88 381.5,-1236.88 381.5,-1242.88 375.5,-1248.88 369.5,-1248.88 369.5,-1248.88 306.5,-1248.88 306.5,-1248.88 300.5,-1248.88 294.5,-1242.88 294.5,-1236.88 294.5,-1236.88 294.5,-1208.88 294.5,-1208.88 294.5,-1202.88 300.5,-1196.88 306.5,-1196.88"/>
<text text-anchor="middle" x="338" y="-1237.68" font-family="Helvetica,sans-Serif" font-weight="bold" font-size="9.00">embeddeds</text>
</g>
<g id="clust7" class="cluster">
<title>cluster_src/components/header</title>
<path fill="#ffffff" stroke="black" stroke-width="2" d="M475.5,-876.88C475.5,-876.88 525.5,-876.88 525.5,-876.88 531.5,-876.88 537.5,-882.88 537.5,-888.88 537.5,-888.88 537.5,-916.88 537.5,-916.88 537.5,-922.88 531.5,-928.88 525.5,-928.88 525.5,-928.88 475.5,-928.88 475.5,-928.88 469.5,-928.88 463.5,-922.88 463.5,-916.88 463.5,-916.88 463.5,-888.88 463.5,-888.88 463.5,-882.88 469.5,-876.88 475.5,-876.88"/>
<text text-anchor="middle" x="500.5" y="-917.68" font-family="Helvetica,sans-Serif" font-weight="bold" font-size="9.00">header</text>
</g>
<g id="clust8" class="cluster">
<title>cluster_src/components/layout</title>
<path fill="#ffffff" stroke="black" stroke-width="2" d="M301,-897.88C301,-897.88 375,-897.88 375,-897.88 381,-897.88 387,-903.88 387,-909.88 387,-909.88 387,-967.88 387,-967.88 387,-973.88 381,-979.88 375,-979.88 375,-979.88 301,-979.88 301,-979.88 295,-979.88 289,-973.88 289,-967.88 289,-967.88 289,-909.88 289,-909.88 289,-903.88 295,-897.88 301,-897.88"/>
<text text-anchor="middle" x="338" y="-968.68" font-family="Helvetica,sans-Serif" font-weight="bold" font-size="9.00">layout</text>
</g>
<g id="clust9" class="cluster">
<title>cluster_src/components/post&#45;link</title>
<path fill="#ffffff" stroke="black" stroke-width="2" d="M308,-1106.88C308,-1106.88 711.5,-1106.88 711.5,-1106.88 717.5,-1106.88 723.5,-1112.88 723.5,-1118.88 723.5,-1118.88 723.5,-1176.88 723.5,-1176.88 723.5,-1182.88 717.5,-1188.88 711.5,-1188.88 711.5,-1188.88 308,-1188.88 308,-1188.88 302,-1188.88 296,-1182.88 296,-1176.88 296,-1176.88 296,-1118.88 296,-1118.88 296,-1112.88 302,-1106.88 308,-1106.88"/>
<text text-anchor="middle" x="509.75" y="-1177.68" font-family="Helvetica,sans-Serif" font-weight="bold" font-size="9.00">post&#45;link</text>
</g>
<g id="clust10" class="cluster">
<title>cluster_src/components/table&#45;of&#45;contents</title>
<path fill="#ffffff" stroke="black" stroke-width="2" d="M460.5,-816.88C460.5,-816.88 541.5,-816.88 541.5,-816.88 547.5,-816.88 553.5,-822.88 553.5,-828.88 553.5,-828.88 553.5,-856.88 553.5,-856.88 553.5,-862.88 547.5,-868.88 541.5,-868.88 541.5,-868.88 460.5,-868.88 460.5,-868.88 454.5,-868.88 448.5,-862.88 448.5,-856.88 448.5,-856.88 448.5,-828.88 448.5,-828.88 448.5,-822.88 454.5,-816.88 460.5,-816.88"/>
<text text-anchor="middle" x="501" y="-857.68" font-family="Helvetica,sans-Serif" font-weight="bold" font-size="9.00">table&#45;of&#45;contents</text>
</g>
<g id="clust11" class="cluster">
<title>cluster_src/components/theme&#45;switcher</title>
<path fill="#ffffff" stroke="black" stroke-width="2" d="M641.5,-846.88C641.5,-846.88 714.5,-846.88 714.5,-846.88 720.5,-846.88 726.5,-852.88 726.5,-858.88 726.5,-858.88 726.5,-886.88 726.5,-886.88 726.5,-892.88 720.5,-898.88 714.5,-898.88 714.5,-898.88 641.5,-898.88 641.5,-898.88 635.5,-898.88 629.5,-892.88 629.5,-886.88 629.5,-886.88 629.5,-858.88 629.5,-858.88 629.5,-852.88 635.5,-846.88 641.5,-846.88"/>
<text text-anchor="middle" x="678" y="-887.68" font-family="Helvetica,sans-Serif" font-weight="bold" font-size="9.00">theme&#45;switcher</text>
</g>
<g id="clust12" class="cluster">
<title>cluster_src/gatsby</title>
<path fill="#ffffff" stroke="black" stroke-width="2" d="M276,-58.88C276,-58.88 585,-58.88 585,-58.88 591,-58.88 597,-64.88 597,-70.88 597,-70.88 597,-248.88 597,-248.88 597,-254.88 591,-260.88 585,-260.88 585,-260.88 276,-260.88 276,-260.88 270,-260.88 264,-254.88 264,-248.88 264,-248.88 264,-70.88 264,-70.88 264,-64.88 270,-58.88 276,-58.88"/>
<text text-anchor="middle" x="430.5" y="-249.68" font-family="Helvetica,sans-Serif" font-weight="bold" font-size="9.00">gatsby</text>
</g>
<g id="clust13" class="cluster">
<title>cluster_src/gatsby/browser</title>
<path fill="#ffffff" stroke="black" stroke-width="2" d="M284,-182.88C284,-182.88 392,-182.88 392,-182.88 398,-182.88 404,-188.88 404,-194.88 404,-194.88 404,-222.88 404,-222.88 404,-228.88 398,-234.88 392,-234.88 392,-234.88 284,-234.88 284,-234.88 278,-234.88 272,-228.88 272,-222.88 272,-222.88 272,-194.88 272,-194.88 272,-188.88 278,-182.88 284,-182.88"/>
<text text-anchor="middle" x="338" y="-223.68" font-family="Helvetica,sans-Serif" font-weight="bold" font-size="9.00">browser</text>
</g>
<g id="clust14" class="cluster">
<title>cluster_src/gatsby/node</title>
<path fill="#ffffff" stroke="black" stroke-width="2" d="M424,-77.88C424,-77.88 577,-77.88 577,-77.88 583,-77.88 589,-83.88 589,-89.88 589,-89.88 589,-147.88 589,-147.88 589,-153.88 583,-159.88 577,-159.88 577,-159.88 424,-159.88 424,-159.88 418,-159.88 412,-153.88 412,-147.88 412,-147.88 412,-89.88 412,-89.88 412,-83.88 418,-77.88 424,-77.88"/>
<text text-anchor="middle" x="500.5" y="-148.68" font-family="Helvetica,sans-Serif" font-weight="bold" font-size="9.00">node</text>
</g>
<g id="clust15" class="cluster">
<title>cluster_src/hooks</title>
<path fill="#ffffff" stroke="black" stroke-width="2" d="M617,-388.88C617,-388.88 738,-388.88 738,-388.88 744,-388.88 750,-394.88 750,-400.88 750,-400.88 750,-458.88 750,-458.88 750,-464.88 744,-470.88 738,-470.88 738,-470.88 617,-470.88 617,-470.88 611,-470.88 605,-464.88 605,-458.88 605,-458.88 605,-400.88 605,-400.88 605,-394.88 611,-388.88 617,-388.88"/>
<text text-anchor="middle" x="677.5" y="-459.68" font-family="Helvetica,sans-Serif" font-weight="bold" font-size="9.00">hooks</text>
</g>
<g id="clust16" class="cluster">
<title>cluster_src/libs</title>
<path fill="#ffffff" stroke="black" stroke-width="2" d="M641.5,-478.88C641.5,-478.88 943,-478.88 943,-478.88 949,-478.88 955,-484.88 955,-490.88 955,-490.88 955,-788.88 955,-788.88 955,-794.88 949,-800.88 943,-800.88 943,-800.88 641.5,-800.88 641.5,-800.88 635.5,-800.88 629.5,-794.88 629.5,-788.88 629.5,-788.88 629.5,-490.88 629.5,-490.88 629.5,-484.88 635.5,-478.88 641.5,-478.88"/>
<text text-anchor="middle" x="792.25" y="-789.68" font-family="Helvetica,sans-Serif" font-weight="bold" font-size="9.00">libs</text>
</g>
<g id="clust17" class="cluster">
<title>cluster_src/libs/styleFn</title>
<path fill="#ffffff" stroke="black" stroke-width="2" d="M653,-632.88C653,-632.88 844.5,-632.88 844.5,-632.88 850.5,-632.88 856.5,-638.88 856.5,-644.88 856.5,-644.88 856.5,-762.88 856.5,-762.88 856.5,-768.88 850.5,-774.88 844.5,-774.88 844.5,-774.88 653,-774.88 653,-774.88 647,-774.88 641,-768.88 641,-762.88 641,-762.88 641,-644.88 641,-644.88 641,-638.88 647,-632.88 653,-632.88"/>
<text text-anchor="middle" x="748.75" y="-763.68" font-family="Helvetica,sans-Serif" font-weight="bold" font-size="9.00">styleFn</text>
</g>
<g id="clust18" class="cluster">
<title>cluster_src/pages</title>
<path fill="#ffffff" stroke="black" stroke-width="2" d="M57.5,-897.88C57.5,-897.88 107.5,-897.88 107.5,-897.88 113.5,-897.88 119.5,-903.88 119.5,-909.88 119.5,-909.88 119.5,-997.88 119.5,-997.88 119.5,-1003.88 113.5,-1009.88 107.5,-1009.88 107.5,-1009.88 57.5,-1009.88 57.5,-1009.88 51.5,-1009.88 45.5,-1003.88 45.5,-997.88 45.5,-997.88 45.5,-909.88 45.5,-909.88 45.5,-903.88 51.5,-897.88 57.5,-897.88"/>
<text text-anchor="middle" x="82.5" y="-998.68" font-family="Helvetica,sans-Serif" font-weight="bold" font-size="9.00">pages</text>
</g>
<g id="clust19" class="cluster">
<title>cluster_src/styles</title>
<path fill="#ffffff" stroke="black" stroke-width="2" d="M438,-268.88C438,-268.88 707.5,-268.88 707.5,-268.88 713.5,-268.88 719.5,-274.88 719.5,-280.88 719.5,-280.88 719.5,-368.88 719.5,-368.88 719.5,-374.88 713.5,-380.88 707.5,-380.88 707.5,-380.88 438,-380.88 438,-380.88 432,-380.88 426,-374.88 426,-368.88 426,-368.88 426,-280.88 426,-280.88 426,-274.88 432,-268.88 438,-268.88"/>
<text text-anchor="middle" x="572.75" y="-369.68" font-family="Helvetica,sans-Serif" font-weight="bold" font-size="9.00">styles</text>
</g>
<g id="clust20" class="cluster">
<title>cluster_src/templates</title>
<path fill="#ffffff" stroke="black" stroke-width="2" d="M28,-1167.88C28,-1167.88 244,-1167.88 244,-1167.88 250,-1167.88 256,-1173.88 256,-1179.88 256,-1179.88 256,-1297.88 256,-1297.88 256,-1303.88 250,-1309.88 244,-1309.88 244,-1309.88 28,-1309.88 28,-1309.88 22,-1309.88 16,-1303.88 16,-1297.88 16,-1297.88 16,-1179.88 16,-1179.88 16,-1173.88 22,-1167.88 28,-1167.88"/>
<text text-anchor="middle" x="136" y="-1298.68" font-family="Helvetica,sans-Serif" font-weight="bold" font-size="9.00">templates</text>
</g>
<g id="clust21" class="cluster">
<title>cluster_src/utils</title>
<path fill="#ffffff" stroke="black" stroke-width="2" d="M772,-21.88C772,-21.88 943,-21.88 943,-21.88 949,-21.88 955,-27.88 955,-33.88 955,-33.88 955,-91.88 955,-91.88 955,-97.88 949,-103.88 943,-103.88 943,-103.88 772,-103.88 772,-103.88 766,-103.88 760,-97.88 760,-91.88 760,-91.88 760,-33.88 760,-33.88 760,-27.88 766,-21.88 772,-21.88"/>
<text text-anchor="middle" x="857.5" y="-92.68" font-family="Helvetica,sans-Serif" font-weight="bold" font-size="9.00">utils</text>
</g>
<!-- src/components/article&#45;elements/anchor.tsx -->
<g id="node1" class="node">
<title>src/components/article&#45;elements/anchor.tsx</title>
<g id="a_node1"><a xlink:href="src/components/article-elements/anchor.tsx" xlink:title="anchor.tsx">
<path fill="#bbfeff" stroke="black" d="M703.5,-1222.88C703.5,-1222.88 651.5,-1222.88 651.5,-1222.88 648.5,-1222.88 645.5,-1219.88 645.5,-1216.88 645.5,-1216.88 645.5,-1210.88 645.5,-1210.88 645.5,-1207.88 648.5,-1204.88 651.5,-1204.88 651.5,-1204.88 703.5,-1204.88 703.5,-1204.88 706.5,-1204.88 709.5,-1207.88 709.5,-1210.88 709.5,-1210.88 709.5,-1216.88 709.5,-1216.88 709.5,-1219.88 706.5,-1222.88 703.5,-1222.88"/>
<text text-anchor="middle" x="677.5" y="-1211.68" font-family="Helvetica,sans-Serif" font-size="9.00">anchor.tsx</text>
</a>
</g>
</g>
<!-- src/components/atoms/autolink&#45;header.tsx -->
<g id="node2" class="node">
<title>src/components/atoms/autolink&#45;header.tsx</title>
<g id="a_node2"><a xlink:href="src/components/atoms/autolink-header.tsx" xlink:title="autolink&#45;header.tsx">
<path fill="#bbfeff" stroke="black" d="M863,-1222.88C863,-1222.88 772,-1222.88 772,-1222.88 769,-1222.88 766,-1219.88 766,-1216.88 766,-1216.88 766,-1210.88 766,-1210.88 766,-1207.88 769,-1204.88 772,-1204.88 772,-1204.88 863,-1204.88 863,-1204.88 866,-1204.88 869,-1207.88 869,-1210.88 869,-1210.88 869,-1216.88 869,-1216.88 869,-1219.88 866,-1222.88 863,-1222.88"/>
<text text-anchor="middle" x="817.5" y="-1211.68" font-family="Helvetica,sans-Serif" font-size="9.00">autolink&#45;header.tsx</text>
</a>
</g>
</g>
<!-- src/components/article&#45;elements/anchor.tsx&#45;&gt;src/components/atoms/autolink&#45;header.tsx -->
<g id="edge1" class="edge">
<title>src/components/article&#45;elements/anchor.tsx&#45;&gt;src/components/atoms/autolink&#45;header.tsx</title>
<path fill="none" stroke="#000000" stroke-width="2" stroke-opacity="0.200000" d="M709.81,-1213.88C724.55,-1213.88 742.58,-1213.88 759.61,-1213.88"/>
<polygon fill="#000000" fill-opacity="0.200000" stroke="#000000" stroke-width="2" stroke-opacity="0.200000" points="759.82,-1215.98 765.82,-1213.88 759.82,-1211.78 759.82,-1215.98"/>
</g>
<!-- src/components/article&#45;elements/headings.tsx -->
<g id="node3" class="node">
<title>src/components/article&#45;elements/headings.tsx</title>
<g id="a_node3"><a xlink:href="src/components/article-elements/headings.tsx" xlink:title="headings.tsx">
<path fill="#bbfeff" stroke="black" d="M708.5,-1312.88C708.5,-1312.88 646.5,-1312.88 646.5,-1312.88 643.5,-1312.88 640.5,-1309.88 640.5,-1306.88 640.5,-1306.88 640.5,-1300.88 640.5,-1300.88 640.5,-1297.88 643.5,-1294.88 646.5,-1294.88 646.5,-1294.88 708.5,-1294.88 708.5,-1294.88 711.5,-1294.88 714.5,-1297.88 714.5,-1300.88 714.5,-1300.88 714.5,-1306.88 714.5,-1306.88 714.5,-1309.88 711.5,-1312.88 708.5,-1312.88"/>
<text text-anchor="middle" x="677.5" y="-1301.68" font-family="Helvetica,sans-Serif" font-size="9.00">headings.tsx</text>
</a>
</g>
</g>
<!-- src/components/article&#45;elements/horizontal&#45;line.tsx -->
<g id="node4" class="node">
<title>src/components/article&#45;elements/horizontal&#45;line.tsx</title>
<g id="a_node4"><a xlink:href="src/components/article-elements/horizontal-line.tsx" xlink:title="horizontal&#45;line.tsx">
<path fill="#bbfeff" stroke="black" d="M719.5,-1252.88C719.5,-1252.88 635.5,-1252.88 635.5,-1252.88 632.5,-1252.88 629.5,-1249.88 629.5,-1246.88 629.5,-1246.88 629.5,-1240.88 629.5,-1240.88 629.5,-1237.88 632.5,-1234.88 635.5,-1234.88 635.5,-1234.88 719.5,-1234.88 719.5,-1234.88 722.5,-1234.88 725.5,-1237.88 725.5,-1240.88 725.5,-1240.88 725.5,-1246.88 725.5,-1246.88 725.5,-1249.88 722.5,-1252.88 719.5,-1252.88"/>
<text text-anchor="middle" x="677.5" y="-1241.68" font-family="Helvetica,sans-Serif" font-size="9.00">horizontal&#45;line.tsx</text>
</a>
</g>
</g>
<!-- src/components/article&#45;elements/list.tsx -->
<g id="node5" class="node">
<title>src/components/article&#45;elements/list.tsx</title>
<g id="a_node5"><a xlink:href="src/components/article-elements/list.tsx" xlink:title="list.tsx">
<path fill="#bbfeff" stroke="black" d="M698.5,-1282.88C698.5,-1282.88 656.5,-1282.88 656.5,-1282.88 653.5,-1282.88 650.5,-1279.88 650.5,-1276.88 650.5,-1276.88 650.5,-1270.88 650.5,-1270.88 650.5,-1267.88 653.5,-1264.88 656.5,-1264.88 656.5,-1264.88 698.5,-1264.88 698.5,-1264.88 701.5,-1264.88 704.5,-1267.88 704.5,-1270.88 704.5,-1270.88 704.5,-1276.88 704.5,-1276.88 704.5,-1279.88 701.5,-1282.88 698.5,-1282.88"/>
<text text-anchor="middle" x="677.5" y="-1271.68" font-family="Helvetica,sans-Serif" font-size="9.00">list.tsx</text>
</a>
</g>
</g>
<!-- src/components/article&#45;elements/mdx&#45;components.tsx -->
<g id="node6" class="node">
<title>src/components/article&#45;elements/mdx&#45;components.tsx</title>
<g id="a_node6"><a xlink:href="src/components/article-elements/mdx-components.tsx" xlink:title="mdx&#45;components.tsx">
<path fill="#bbfeff" stroke="black" d="M551,-1267.88C551,-1267.88 450,-1267.88 450,-1267.88 447,-1267.88 444,-1264.88 444,-1261.88 444,-1261.88 444,-1255.88 444,-1255.88 444,-1252.88 447,-1249.88 450,-1249.88 450,-1249.88 551,-1249.88 551,-1249.88 554,-1249.88 557,-1252.88 557,-1255.88 557,-1255.88 557,-1261.88 557,-1261.88 557,-1264.88 554,-1267.88 551,-1267.88"/>
<text text-anchor="middle" x="500.5" y="-1256.68" font-family="Helvetica,sans-Serif" font-size="9.00">mdx&#45;components.tsx</text>
</a>
</g>
</g>
<!-- src/components/article&#45;elements/mdx&#45;components.tsx&#45;&gt;src/components/article&#45;elements/anchor.tsx -->
<g id="edge2" class="edge">
<title>src/components/article&#45;elements/mdx&#45;components.tsx&#45;&gt;src/components/article&#45;elements/anchor.tsx</title>
<path fill="none" stroke="#000000" stroke-width="2" stroke-opacity="0.200000" d="M530.78,-1249.75C551.42,-1243.47 579.77,-1235.17 605,-1228.88 616.11,-1226.11 628.28,-1223.42 639.37,-1221.11"/>
<polygon fill="#000000" fill-opacity="0.200000" stroke="#000000" stroke-width="2" stroke-opacity="0.200000" points="639.96,-1223.13 645.41,-1219.87 639.11,-1219.02 639.96,-1223.13"/>
</g>
<!-- src/components/article&#45;elements/mdx&#45;components.tsx&#45;&gt;src/components/article&#45;elements/headings.tsx -->
<g id="edge3" class="edge">
<title>src/components/article&#45;elements/mdx&#45;components.tsx&#45;&gt;src/components/article&#45;elements/headings.tsx</title>
<path fill="none" stroke="#000000" stroke-width="2" stroke-opacity="0.200000" d="M557.39,-1261.84C571.18,-1264.54 585.32,-1269.15 597,-1276.88 602.35,-1280.41 599.69,-1285.28 605,-1288.88 613.61,-1294.7 624.03,-1298.33 634.22,-1300.58"/>
<polygon fill="#000000" fill-opacity="0.200000" stroke="#000000" stroke-width="2" stroke-opacity="0.200000" points="633.88,-1302.65 640.18,-1301.75 634.69,-1298.53 633.88,-1302.65"/>
</g>
<!-- src/components/article&#45;elements/mdx&#45;components.tsx&#45;&gt;src/components/article&#45;elements/horizontal&#45;line.tsx -->
<g id="edge4" class="edge">
<title>src/components/article&#45;elements/mdx&#45;components.tsx&#45;&gt;src/components/article&#45;elements/horizontal&#45;line.tsx</title>
<path fill="none" stroke="#000000" stroke-width="2" stroke-opacity="0.200000" d="M557.35,-1254.09C578.47,-1252.28 602.44,-1250.22 623.31,-1248.44"/>
<polygon fill="#000000" fill-opacity="0.200000" stroke="#000000" stroke-width="2" stroke-opacity="0.200000" points="623.6,-1250.52 629.39,-1247.91 623.24,-1246.33 623.6,-1250.52"/>
</g>
<!-- src/components/article&#45;elements/mdx&#45;components.tsx&#45;&gt;src/components/article&#45;elements/list.tsx -->
<g id="edge5" class="edge">
<title>src/components/article&#45;elements/mdx&#45;components.tsx&#45;&gt;src/components/article&#45;elements/list.tsx</title>
<path fill="none" stroke="#000000" stroke-width="2" stroke-opacity="0.200000" d="M557.35,-1263.66C586,-1266.12 619.88,-1269.02 644.18,-1271.11"/>
<polygon fill="#000000" fill-opacity="0.200000" stroke="#000000" stroke-width="2" stroke-opacity="0.200000" points="644.29,-1273.22 650.45,-1271.64 644.65,-1269.04 644.29,-1273.22"/>
</g>
<!-- src/components/article&#45;elements/paragraph.tsx -->
<g id="node7" class="node">
<title>src/components/article&#45;elements/paragraph.tsx</title>
<g id="a_node7"><a xlink:href="src/components/article-elements/paragraph.tsx" xlink:title="paragraph.tsx">
<path fill="#bbfeff" stroke="black" d="M711.5,-1342.88C711.5,-1342.88 643.5,-1342.88 643.5,-1342.88 640.5,-1342.88 637.5,-1339.88 637.5,-1336.88 637.5,-1336.88 637.5,-1330.88 637.5,-1330.88 637.5,-1327.88 640.5,-1324.88 643.5,-1324.88 643.5,-1324.88 711.5,-1324.88 711.5,-1324.88 714.5,-1324.88 717.5,-1327.88 717.5,-1330.88 717.5,-1330.88 717.5,-1336.88 717.5,-1336.88 717.5,-1339.88 714.5,-1342.88 711.5,-1342.88"/>
<text text-anchor="middle" x="677.5" y="-1331.68" font-family="Helvetica,sans-Serif" font-size="9.00">paragraph.tsx</text>
</a>
</g>
</g>
<!-- src/components/article&#45;elements/mdx&#45;components.tsx&#45;&gt;src/components/article&#45;elements/paragraph.tsx -->
<g id="edge6" class="edge">
<title>src/components/article&#45;elements/mdx&#45;components.tsx&#45;&gt;src/components/article&#45;elements/paragraph.tsx</title>
<path fill="none" stroke="#000000" stroke-width="2" stroke-opacity="0.200000" d="M514.22,-1268.06C533.1,-1281.27 570.09,-1305.49 605,-1318.88 613.28,-1322.05 622.36,-1324.61 631.2,-1326.65"/>
<polygon fill="#000000" fill-opacity="0.200000" stroke="#000000" stroke-width="2" stroke-opacity="0.200000" points="630.95,-1328.75 637.26,-1327.98 631.85,-1324.64 630.95,-1328.75"/>
</g>
<!-- src/components/article&#45;elements/strong.tsx -->
<g id="node8" class="node">
<title>src/components/article&#45;elements/strong.tsx</title>
<g id="a_node8"><a xlink:href="src/components/article-elements/strong.tsx" xlink:title="strong.tsx">
<path fill="#bbfeff" stroke="black" d="M702.5,-1372.88C702.5,-1372.88 652.5,-1372.88 652.5,-1372.88 649.5,-1372.88 646.5,-1369.88 646.5,-1366.88 646.5,-1366.88 646.5,-1360.88 646.5,-1360.88 646.5,-1357.88 649.5,-1354.88 652.5,-1354.88 652.5,-1354.88 702.5,-1354.88 702.5,-1354.88 705.5,-1354.88 708.5,-1357.88 708.5,-1360.88 708.5,-1360.88 708.5,-1366.88 708.5,-1366.88 708.5,-1369.88 705.5,-1372.88 702.5,-1372.88"/>
<text text-anchor="middle" x="677.5" y="-1361.68" font-family="Helvetica,sans-Serif" font-size="9.00">strong.tsx</text>
</a>
</g>
</g>
<!-- src/components/article&#45;elements/mdx&#45;components.tsx&#45;&gt;src/components/article&#45;elements/strong.tsx -->
<g id="edge7" class="edge">
<title>src/components/article&#45;elements/mdx&#45;components.tsx&#45;&gt;src/components/article&#45;elements/strong.tsx</title>
<path fill="none" stroke="#000000" stroke-width="2" stroke-opacity="0.200000" d="M509,-1267.97C524.74,-1286.38 563.21,-1328.1 605,-1348.88 615.83,-1354.26 628.52,-1357.71 640.17,-1359.93"/>
<polygon fill="#000000" fill-opacity="0.200000" stroke="#000000" stroke-width="2" stroke-opacity="0.200000" points="639.88,-1362.01 646.16,-1360.98 640.61,-1357.87 639.88,-1362.01"/>
</g>
<!-- src/components/atoms/anchor&#45;or&#45;link.tsx -->
<g id="node9" class="node">
<title>src/components/atoms/anchor&#45;or&#45;link.tsx</title>
<g id="a_node9"><a xlink:href="src/components/atoms/anchor-or-link.tsx" xlink:title="anchor&#45;or&#45;link.tsx">
<path fill="#ccffcc" stroke="black" d="M859,-1192.88C859,-1192.88 776,-1192.88 776,-1192.88 773,-1192.88 770,-1189.88 770,-1186.88 770,-1186.88 770,-1180.88 770,-1180.88 770,-1177.88 773,-1174.88 776,-1174.88 776,-1174.88 859,-1174.88 859,-1174.88 862,-1174.88 865,-1177.88 865,-1180.88 865,-1180.88 865,-1186.88 865,-1186.88 865,-1189.88 862,-1192.88 859,-1192.88"/>
<text text-anchor="middle" x="817.5" y="-1181.68" font-family="Helvetica,sans-Serif" font-size="9.00">anchor&#45;or&#45;link.tsx</text>
</a>
</g>
</g>
<!-- src/components/content/article&#45;styles.ts -->
<g id="node10" class="node">
<title>src/components/content/article&#45;styles.ts</title>
<g id="a_node10"><a xlink:href="src/components/content/article-styles.ts" xlink:title="article&#45;styles.ts">
<path fill="#ddfeff" stroke="black" d="M536.5,-1012.88C536.5,-1012.88 464.5,-1012.88 464.5,-1012.88 461.5,-1012.88 458.5,-1009.88 458.5,-1006.88 458.5,-1006.88 458.5,-1000.88 458.5,-1000.88 458.5,-997.88 461.5,-994.88 464.5,-994.88 464.5,-994.88 536.5,-994.88 536.5,-994.88 539.5,-994.88 542.5,-997.88 542.5,-1000.88 542.5,-1000.88 542.5,-1006.88 542.5,-1006.88 542.5,-1009.88 539.5,-1012.88 536.5,-1012.88"/>
<text text-anchor="middle" x="500.5" y="-1001.68" font-family="Helvetica,sans-Serif" font-size="9.00">article&#45;styles.ts</text>
</a>
</g>
</g>
<!-- src/components/content/article&#45;styles.ts&#45;&gt;src/components/article&#45;elements/headings.tsx -->
<g id="edge9" class="edge">
<title>src/components/content/article&#45;styles.ts&#45;&gt;src/components/article&#45;elements/headings.tsx</title>
<path fill="none" stroke="#000000" stroke-width="2" stroke-opacity="0.200000" d="M542.93,-999.29C562.23,-999.6 583.8,-1003.89 597,-1018.88 616.84,-1041.39 585.74,-1265.86 605,-1288.88 612.21,-1297.49 622.99,-1301.94 634.01,-1304.08"/>
<polygon fill="#000000" fill-opacity="0.200000" stroke="#000000" stroke-width="2" stroke-opacity="0.200000" points="633.89,-1306.18 640.14,-1305.04 634.54,-1302.03 633.89,-1306.18"/>
</g>
<!-- src/libs/styleFn/text.ts -->
<g id="node11" class="node">
<title>src/libs/styleFn/text.ts</title>
<g id="a_node11"><a xlink:href="src/libs/styleFn/text.ts" xlink:title="text.ts">
<path fill="#ddfeff" stroke="black" d="M698.5,-748.88C698.5,-748.88 656.5,-748.88 656.5,-748.88 653.5,-748.88 650.5,-745.88 650.5,-742.88 650.5,-742.88 650.5,-736.88 650.5,-736.88 650.5,-733.88 653.5,-730.88 656.5,-730.88 656.5,-730.88 698.5,-730.88 698.5,-730.88 701.5,-730.88 704.5,-733.88 704.5,-736.88 704.5,-736.88 704.5,-742.88 704.5,-742.88 704.5,-745.88 701.5,-748.88 698.5,-748.88"/>
<text text-anchor="middle" x="677.5" y="-737.68" font-family="Helvetica,sans-Serif" font-size="9.00">text.ts</text>
</a>
</g>
</g>
<!-- src/components/content/article&#45;styles.ts&#45;&gt;src/libs/styleFn/text.ts -->
<g id="edge8" class="edge">
<title>src/components/content/article&#45;styles.ts&#45;&gt;src/libs/styleFn/text.ts</title>
<path fill="none" stroke="#000000" stroke-width="2" stroke-opacity="0.200000" d="M542.77,-1008.32C562.03,-1007.97 583.61,-1003.69 597,-988.88 607.82,-976.91 599.79,-859.15 605,-843.88 617.35,-807.67 646.11,-772.48 663.15,-753.76"/>
<polygon fill="#000000" fill-opacity="0.200000" stroke="#000000" stroke-width="2" stroke-opacity="0.200000" points="665.09,-754.75 667.63,-748.93 662.01,-751.9 665.09,-754.75"/>
</g>
<!-- src/libs/styleFn/general.ts -->
<g id="node46" class="node">
<title>src/libs/styleFn/general.ts</title>
<g id="a_node46"><a xlink:href="src/libs/styleFn/general.ts" xlink:title="general.ts">
<path fill="#ddfeff" stroke="black" d="M842.5,-748.88C842.5,-748.88 792.5,-748.88 792.5,-748.88 789.5,-748.88 786.5,-745.88 786.5,-742.88 786.5,-742.88 786.5,-736.88 786.5,-736.88 786.5,-733.88 789.5,-730.88 792.5,-730.88 792.5,-730.88 842.5,-730.88 842.5,-730.88 845.5,-730.88 848.5,-733.88 848.5,-736.88 848.5,-736.88 848.5,-742.88 848.5,-742.88 848.5,-745.88 845.5,-748.88 842.5,-748.88"/>
<text text-anchor="middle" x="817.5" y="-737.68" font-family="Helvetica,sans-Serif" font-size="9.00">general.ts</text>
</a>
</g>
</g>
<!-- src/libs/styleFn/text.ts&#45;&gt;src/libs/styleFn/general.ts -->
<g id="edge33" class="edge">
<title>src/libs/styleFn/text.ts&#45;&gt;src/libs/styleFn/general.ts</title>
<path fill="none" stroke="#000000" stroke-width="2" stroke-opacity="0.200000" d="M704.78,-739.88C726.17,-739.88 756.6,-739.88 780.3,-739.88"/>
<polygon fill="#000000" fill-opacity="0.200000" stroke="#000000" stroke-width="2" stroke-opacity="0.200000" points="780.48,-741.98 786.48,-739.88 780.48,-737.78 780.48,-741.98"/>
</g>
<!-- src/components/content/breadcrumbs.tsx -->
<g id="node12" class="node">
<title>src/components/content/breadcrumbs.tsx</title>
<g id="a_node12"><a xlink:href="src/components/content/breadcrumbs.tsx" xlink:title="breadcrumbs.tsx">
<path fill="#bbfeff" stroke="black" d="M718.5,-997.88C718.5,-997.88 636.5,-997.88 636.5,-997.88 633.5,-997.88 630.5,-994.88 630.5,-991.88 630.5,-991.88 630.5,-985.88 630.5,-985.88 630.5,-982.88 633.5,-979.88 636.5,-979.88 636.5,-979.88 718.5,-979.88 718.5,-979.88 721.5,-979.88 724.5,-982.88 724.5,-985.88 724.5,-985.88 724.5,-991.88 724.5,-991.88 724.5,-994.88 721.5,-997.88 718.5,-997.88"/>
<text text-anchor="middle" x="677.5" y="-986.68" font-family="Helvetica,sans-Serif" font-size="9.00">breadcrumbs.tsx</text>
</a>
</g>
</g>
<!-- src/components/content/footer.tsx -->
<g id="node13" class="node">
<title>src/components/content/footer.tsx</title>
<g id="a_node13"><a xlink:href="src/components/content/footer.tsx" xlink:title="footer.tsx">
<path fill="#bbfeff" stroke="black" d="M524,-982.88C524,-982.88 477,-982.88 477,-982.88 474,-982.88 471,-979.88 471,-976.88 471,-976.88 471,-970.88 471,-970.88 471,-967.88 474,-964.88 477,-964.88 477,-964.88 524,-964.88 524,-964.88 527,-964.88 530,-967.88 530,-970.88 530,-970.88 530,-976.88 530,-976.88 530,-979.88 527,-982.88 524,-982.88"/>
<text text-anchor="middle" x="500.5" y="-971.68" font-family="Helvetica,sans-Serif" font-size="9.00">footer.tsx</text>
</a>
</g>
</g>
<!-- src/hooks/use&#45;site.ts -->
<g id="node14" class="node">
<title>src/hooks/use&#45;site.ts</title>
<g id="a_node14"><a xlink:href="src/hooks/use-site.ts" xlink:title="use&#45;site.ts">
<path fill="#ddfeff" stroke="black" d="M702.5,-444.88C702.5,-444.88 652.5,-444.88 652.5,-444.88 649.5,-444.88 646.5,-441.88 646.5,-438.88 646.5,-438.88 646.5,-432.88 646.5,-432.88 646.5,-429.88 649.5,-426.88 652.5,-426.88 652.5,-426.88 702.5,-426.88 702.5,-426.88 705.5,-426.88 708.5,-429.88 708.5,-432.88 708.5,-432.88 708.5,-438.88 708.5,-438.88 708.5,-441.88 705.5,-444.88 702.5,-444.88"/>
<text text-anchor="middle" x="677.5" y="-433.68" font-family="Helvetica,sans-Serif" font-size="9.00">use&#45;site.ts</text>
</a>
</g>
</g>
<!-- src/components/content/footer.tsx&#45;&gt;src/hooks/use&#45;site.ts -->
<g id="edge10" class="edge">
<title>src/components/content/footer.tsx&#45;&gt;src/hooks/use&#45;site.ts</title>
<path fill="none" stroke="#000000" stroke-width="2" stroke-opacity="0.200000" d="M530.22,-969.68C552.55,-964.75 582.15,-954.2 597,-931.88 611.03,-910.78 591.99,-497.62 605,-475.88 612.92,-462.63 626.97,-453.43 640.53,-447.22"/>
<polygon fill="#000000" fill-opacity="0.200000" stroke="#000000" stroke-width="2" stroke-opacity="0.200000" points="641.62,-449.04 646.3,-444.74 639.96,-445.18 641.62,-449.04"/>
</g>
<!-- src/utils/asserts&#45;non&#45;null.ts -->
<g id="node38" class="node">
<title>src/utils/asserts&#45;non&#45;null.ts</title>
<g id="a_node38"><a xlink:href="src/utils/asserts-non-null.ts" xlink:title="asserts&#45;non&#45;null.ts">
<path fill="#ddfeff" stroke="black" d="M861,-77.88C861,-77.88 774,-77.88 774,-77.88 771,-77.88 768,-74.88 768,-71.88 768,-71.88 768,-65.88 768,-65.88 768,-62.88 771,-59.88 774,-59.88 774,-59.88 861,-59.88 861,-59.88 864,-59.88 867,-62.88 867,-65.88 867,-65.88 867,-71.88 867,-71.88 867,-74.88 864,-77.88 861,-77.88"/>
<text text-anchor="middle" x="817.5" y="-66.68" font-family="Helvetica,sans-Serif" font-size="9.00">asserts&#45;non&#45;null.ts</text>
</a>
</g>
</g>
<!-- src/hooks/use&#45;site.ts&#45;&gt;src/utils/asserts&#45;non&#45;null.ts -->
<g id="edge30" class="edge">
<title>src/hooks/use&#45;site.ts&#45;&gt;src/utils/asserts&#45;non&#45;null.ts</title>
<path fill="none" stroke="#000000" stroke-width="2" stroke-opacity="0.200000" d="M708.58,-436.88C722.97,-435.72 739.35,-431.75 750,-420.88 798.09,-371.81 812.71,-145.23 815.81,-84.11"/>
<polygon fill="#000000" fill-opacity="0.200000" stroke="#000000" stroke-width="2" stroke-opacity="0.200000" points="817.9,-84.2 816.1,-78.1 813.71,-83.99 817.9,-84.2"/>
</g>
<!-- src/components/content/header.tsx -->
<g id="node15" class="node">
<title>src/components/content/header.tsx</title>
<g id="a_node15"><a xlink:href="src/components/content/header.tsx" xlink:title="header.tsx">
<path fill="#bbfeff" stroke="black" d="M703.5,-1034.88C703.5,-1034.88 651.5,-1034.88 651.5,-1034.88 648.5,-1034.88 645.5,-1031.88 645.5,-1028.88 645.5,-1028.88 645.5,-1022.88 645.5,-1022.88 645.5,-1019.88 648.5,-1016.88 651.5,-1016.88 651.5,-1016.88 703.5,-1016.88 703.5,-1016.88 706.5,-1016.88 709.5,-1019.88 709.5,-1022.88 709.5,-1022.88 709.5,-1028.88 709.5,-1028.88 709.5,-1031.88 706.5,-1034.88 703.5,-1034.88"/>
<text text-anchor="middle" x="677.5" y="-1023.68" font-family="Helvetica,sans-Serif" font-size="9.00">header.tsx</text>
</a>
</g>
</g>
<!-- src/components/content/index.tsx -->
<g id="node16" class="node">
<title>src/components/content/index.tsx</title>
<g id="a_node16"><a xlink:href="src/components/content/index.tsx" xlink:title="index.tsx">
<path fill="#bbfeff" stroke="black" d="M523.5,-1042.88C523.5,-1042.88 477.5,-1042.88 477.5,-1042.88 474.5,-1042.88 471.5,-1039.88 471.5,-1036.88 471.5,-1036.88 471.5,-1030.88 471.5,-1030.88 471.5,-1027.88 474.5,-1024.88 477.5,-1024.88 477.5,-1024.88 523.5,-1024.88 523.5,-1024.88 526.5,-1024.88 529.5,-1027.88 529.5,-1030.88 529.5,-1030.88 529.5,-1036.88 529.5,-1036.88 529.5,-1039.88 526.5,-1042.88 523.5,-1042.88"/>
<text text-anchor="middle" x="500.5" y="-1031.68" font-family="Helvetica,sans-Serif" font-size="9.00">index.tsx</text>
</a>
</g>
</g>
<!-- src/components/content/index.tsx&#45;&gt;src/components/content/breadcrumbs.tsx -->
<g id="edge11" class="edge">
<title>src/components/content/index.tsx&#45;&gt;src/components/content/breadcrumbs.tsx</title>
<path fill="none" stroke="#000000" stroke-width="2" stroke-opacity="0.200000" d="M529.66,-1033.99C549.46,-1033.02 576.06,-1029.53 597,-1018.88 601.48,-1016.6 600.69,-1013.47 605,-1010.88 612.41,-1006.41 620.81,-1002.78 629.18,-999.85"/>
<polygon fill="#000000" fill-opacity="0.200000" stroke="#000000" stroke-width="2" stroke-opacity="0.200000" points="629.92,-1001.82 634.95,-997.94 628.6,-997.83 629.92,-1001.82"/>
</g>
<!-- src/components/content/index.tsx&#45;&gt;src/components/content/header.tsx -->
<g id="edge12" class="edge">
<title>src/components/content/index.tsx&#45;&gt;src/components/content/header.tsx</title>
<path fill="none" stroke="#000000" stroke-width="2" stroke-opacity="0.200000" d="M529.62,-1032.59C559.24,-1031.24 606.04,-1029.1 638.84,-1027.6"/>
<polygon fill="#000000" fill-opacity="0.200000" stroke="#000000" stroke-width="2" stroke-opacity="0.200000" points="639.3,-1029.68 645.2,-1027.31 639.11,-1025.48 639.3,-1029.68"/>
</g>
<!-- src/components/content/tags.tsx -->
<g id="node17" class="node">
<title>src/components/content/tags.tsx</title>
<g id="a_node17"><a xlink:href="src/components/content/tags.tsx" xlink:title="tags.tsx">
<path fill="#bbfeff" stroke="black" d="M521.5,-1072.88C521.5,-1072.88 479.5,-1072.88 479.5,-1072.88 476.5,-1072.88 473.5,-1069.88 473.5,-1066.88 473.5,-1066.88 473.5,-1060.88 473.5,-1060.88 473.5,-1057.88 476.5,-1054.88 479.5,-1054.88 479.5,-1054.88 521.5,-1054.88 521.5,-1054.88 524.5,-1054.88 527.5,-1057.88 527.5,-1060.88 527.5,-1060.88 527.5,-1066.88 527.5,-1066.88 527.5,-1069.88 524.5,-1072.88 521.5,-1072.88"/>
<text text-anchor="middle" x="500.5" y="-1061.68" font-family="Helvetica,sans-Serif" font-size="9.00">tags.tsx</text>
</a>
</g>
</g>
<!-- src/components/embeddeds/niconico.tsx -->
<g id="node18" class="node">
<title>src/components/embeddeds/niconico.tsx</title>
<g id="a_node18"><a xlink:href="src/components/embeddeds/niconico.tsx" xlink:title="niconico.tsx">
<path fill="#ccffcc" stroke="black" d="M367.5,-1222.88C367.5,-1222.88 308.5,-1222.88 308.5,-1222.88 305.5,-1222.88 302.5,-1219.88 302.5,-1216.88 302.5,-1216.88 302.5,-1210.88 302.5,-1210.88 302.5,-1207.88 305.5,-1204.88 308.5,-1204.88 308.5,-1204.88 367.5,-1204.88 367.5,-1204.88 370.5,-1204.88 373.5,-1207.88 373.5,-1210.88 373.5,-1210.88 373.5,-1216.88 373.5,-1216.88 373.5,-1219.88 370.5,-1222.88 367.5,-1222.88"/>
<text text-anchor="middle" x="338" y="-1211.68" font-family="Helvetica,sans-Serif" font-size="9.00">niconico.tsx</text>
</a>
</g>
</g>
<!-- src/components/header/index.tsx -->
<g id="node19" class="node">
<title>src/components/header/index.tsx</title>
<g id="a_node19"><a xlink:href="src/components/header/index.tsx" xlink:title="index.tsx">
<path fill="#bbfeff" stroke="black" d="M523.5,-902.88C523.5,-902.88 477.5,-902.88 477.5,-902.88 474.5,-902.88 471.5,-899.88 471.5,-896.88 471.5,-896.88 471.5,-890.88 471.5,-890.88 471.5,-887.88 474.5,-884.88 477.5,-884.88 477.5,-884.88 523.5,-884.88 523.5,-884.88 526.5,-884.88 529.5,-887.88 529.5,-890.88 529.5,-890.88 529.5,-896.88 529.5,-896.88 529.5,-899.88 526.5,-902.88 523.5,-902.88"/>
<text text-anchor="middle" x="500.5" y="-891.68" font-family="Helvetica,sans-Serif" font-size="9.00">index.tsx</text>
</a>
</g>
</g>
<!-- src/components/header/index.tsx&#45;&gt;src/hooks/use&#45;site.ts -->
<g id="edge13" class="edge">
<title>src/components/header/index.tsx&#45;&gt;src/hooks/use&#45;site.ts</title>
<path fill="none" stroke="#000000" stroke-width="2" stroke-opacity="0.200000" d="M529.67,-895.87C551.68,-895.72 581.12,-891.42 597,-871.88 610.88,-854.8 593.68,-494.74 605,-475.88 612.94,-462.64 626.99,-453.44 640.55,-447.23"/>
<polygon fill="#000000" fill-opacity="0.200000" stroke="#000000" stroke-width="2" stroke-opacity="0.200000" points="641.63,-449.05 646.31,-444.75 639.97,-445.2 641.63,-449.05"/>
</g>
<!-- src/components/theme&#45;switcher/index.tsx -->
<g id="node20" class="node">
<title>src/components/theme&#45;switcher/index.tsx</title>
<g id="a_node20"><a xlink:href="src/components/theme-switcher/index.tsx" xlink:title="index.tsx">
<path fill="#bbfeff" stroke="black" d="M700.5,-872.88C700.5,-872.88 654.5,-872.88 654.5,-872.88 651.5,-872.88 648.5,-869.88 648.5,-866.88 648.5,-866.88 648.5,-860.88 648.5,-860.88 648.5,-857.88 651.5,-854.88 654.5,-854.88 654.5,-854.88 700.5,-854.88 700.5,-854.88 703.5,-854.88 706.5,-857.88 706.5,-860.88 706.5,-860.88 706.5,-866.88 706.5,-866.88 706.5,-869.88 703.5,-872.88 700.5,-872.88"/>
<text text-anchor="middle" x="677.5" y="-861.68" font-family="Helvetica,sans-Serif" font-size="9.00">index.tsx</text>
</a>
</g>
</g>
<!-- src/components/header/index.tsx&#45;&gt;src/components/theme&#45;switcher/index.tsx -->
<g id="edge14" class="edge">
<title>src/components/header/index.tsx&#45;&gt;src/components/theme&#45;switcher/index.tsx</title>
<path fill="none" stroke="#000000" stroke-width="2" stroke-opacity="0.200000" d="M529.62,-889.06C560.36,-883.79 609.62,-875.34 642.51,-869.7"/>
<polygon fill="#000000" fill-opacity="0.200000" stroke="#000000" stroke-width="2" stroke-opacity="0.200000" points="642.89,-871.77 648.45,-868.68 642.18,-867.63 642.89,-871.77"/>
</g>
<!-- src/styles/theme.tsx -->
<g id="node29" class="node">
<title>src/styles/theme.tsx</title>
<g id="a_node29"><a xlink:href="src/styles/theme.tsx" xlink:title="theme.tsx">
<path fill="#bbfeff" stroke="black" d="M525.5,-324.88C525.5,-324.88 475.5,-324.88 475.5,-324.88 472.5,-324.88 469.5,-321.88 469.5,-318.88 469.5,-318.88 469.5,-312.88 469.5,-312.88 469.5,-309.88 472.5,-306.88 475.5,-306.88 475.5,-306.88 525.5,-306.88 525.5,-306.88 528.5,-306.88 531.5,-309.88 531.5,-312.88 531.5,-312.88 531.5,-318.88 531.5,-318.88 531.5,-321.88 528.5,-324.88 525.5,-324.88"/>
<text text-anchor="middle" x="500.5" y="-313.68" font-family="Helvetica,sans-Serif" font-size="9.00">theme.tsx</text>
</a>
</g>
</g>
<!-- src/components/theme&#45;switcher/index.tsx&#45;&gt;src/styles/theme.tsx -->
<g id="edge24" class="edge">
<title>src/components/theme&#45;switcher/index.tsx&#45;&gt;src/styles/theme.tsx</title>
<path fill="none" stroke="#000000" stroke-width="2" stroke-opacity="0.200000" d="M665.12,-854.78C648.25,-840.49 617.31,-811 605,-777.88 596.35,-754.59 613.31,-349.61 597,-330.88 582.72,-314.47 558.42,-310.83 537.91,-311.24"/>
<polygon fill="#000000" fill-opacity="0.200000" stroke="#000000" stroke-width="2" stroke-opacity="0.200000" points="537.59,-309.15 531.68,-311.48 537.76,-313.35 537.59,-309.15"/>
</g>
<!-- src/components/layout/index.tsx -->
<g id="node21" class="node">
<title>src/components/layout/index.tsx</title>
<g id="a_node21"><a xlink:href="src/components/layout/index.tsx" xlink:title="index.tsx">
<path fill="#bbfeff" stroke="black" d="M361,-953.88C361,-953.88 315,-953.88 315,-953.88 312,-953.88 309,-950.88 309,-947.88 309,-947.88 309,-941.88 309,-941.88 309,-938.88 312,-935.88 315,-935.88 315,-935.88 361,-935.88 361,-935.88 364,-935.88 367,-938.88 367,-941.88 367,-941.88 367,-947.88 367,-947.88 367,-950.88 364,-953.88 361,-953.88"/>
<text text-anchor="middle" x="338" y="-942.68" font-family="Helvetica,sans-Serif" font-size="9.00">index.tsx</text>
</a>
</g>
</g>
<!-- src/components/layout/index.tsx&#45;&gt;src/components/content/breadcrumbs.tsx -->
<g id="edge16" class="edge">
<title>src/components/layout/index.tsx&#45;&gt;src/components/content/breadcrumbs.tsx</title>
<path fill="none" stroke="#000000" stroke-width="2" stroke-opacity="0.200000" d="M367.02,-941.05C414.98,-935.41 515.5,-927.59 597,-947.88 619.41,-953.45 642.62,-966.39 658.13,-976.25"/>
<polygon fill="#000000" fill-opacity="0.200000" stroke="#000000" stroke-width="2" stroke-opacity="0.200000" points="657.3,-978.22 663.48,-979.73 659.59,-974.7 657.3,-978.22"/>
</g>
<!-- src/components/layout/index.tsx&#45;&gt;src/components/content/footer.tsx -->
<g id="edge17" class="edge">
<title>src/components/layout/index.tsx&#45;&gt;src/components/content/footer.tsx</title>
<path fill="none" stroke="#000000" stroke-width="2" stroke-opacity="0.200000" d="M367.32,-949.99C394.55,-954.91 435.74,-962.36 464.89,-967.62"/>
<polygon fill="#000000" fill-opacity="0.200000" stroke="#000000" stroke-width="2" stroke-opacity="0.200000" points="464.64,-969.71 470.92,-968.71 465.39,-965.58 464.64,-969.71"/>
</g>
<!-- src/components/layout/index.tsx&#45;&gt;src/components/content/header.tsx -->
<g id="edge18" class="edge">
<title>src/components/layout/index.tsx&#45;&gt;src/components/content/header.tsx</title>
<path fill="none" stroke="#000000" stroke-width="2" stroke-opacity="0.200000" d="M367.46,-945.48C432.79,-946.99 588.52,-951.37 597,-958.88 612.21,-972.34 591.54,-988.66 605,-1003.88 613.72,-1013.74 626.76,-1019.24 639.31,-1022.29"/>
<polygon fill="#000000" fill-opacity="0.200000" stroke="#000000" stroke-width="2" stroke-opacity="0.200000" points="639.11,-1024.4 645.42,-1023.6 639.99,-1020.29 639.11,-1024.4"/>
</g>
<!-- src/components/layout/index.tsx&#45;&gt;src/components/header/index.tsx -->
<g id="edge19" class="edge">
<title>src/components/layout/index.tsx&#45;&gt;src/components/header/index.tsx</title>
<path fill="none" stroke="#000000" stroke-width="2" stroke-opacity="0.200000" d="M367.05,-939.26C378.59,-936.73 392.03,-933.5 404,-929.88 427.36,-922.81 453.23,-912.93 472.15,-905.3"/>
<polygon fill="#000000" fill-opacity="0.200000" stroke="#000000" stroke-width="2" stroke-opacity="0.200000" points="473.02,-907.22 477.79,-903.01 471.44,-903.32 473.02,-907.22"/>
</g>
<!-- src/styles/mediaQueries.ts -->
<g id="node22" class="node">
<title>src/styles/mediaQueries.ts</title>
<g id="a_node22"><a xlink:href="src/styles/mediaQueries.ts" xlink:title="mediaQueries.ts">
<path fill="#ddfeff" stroke="black" d="M539,-354.88C539,-354.88 462,-354.88 462,-354.88 459,-354.88 456,-351.88 456,-348.88 456,-348.88 456,-342.88 456,-342.88 456,-339.88 459,-336.88 462,-336.88 462,-336.88 539,-336.88 539,-336.88 542,-336.88 545,-339.88 545,-342.88 545,-342.88 545,-348.88 545,-348.88 545,-351.88 542,-354.88 539,-354.88"/>
<text text-anchor="middle" x="500.5" y="-343.68" font-family="Helvetica,sans-Serif" font-size="9.00">mediaQueries.ts</text>
</a>
</g>
</g>
<!-- src/components/layout/index.tsx&#45;&gt;src/styles/mediaQueries.ts -->
<g id="edge15" class="edge">
<title>src/components/layout/index.tsx&#45;&gt;src/styles/mediaQueries.ts</title>
<path fill="none" stroke="#000000" stroke-width="2" stroke-opacity="0.200000" d="M367.24,-945.59C380.38,-944.34 395.05,-940.36 404,-929.88 412.39,-920.05 410.37,-826.69 412,-813.88 434.91,-634.26 482.68,-419.36 495.99,-361.08"/>
<polygon fill="#000000" fill-opacity="0.200000" stroke="#000000" stroke-width="2" stroke-opacity="0.200000" points="498.08,-361.37 497.37,-355.05 493.99,-360.43 498.08,-361.37"/>
</g>
<!-- src/components/table&#45;of&#45;contents/index.tsx -->
<g id="node23" class="node">
<title>src/components/table&#45;of&#45;contents/index.tsx</title>
<g id="a_node23"><a xlink:href="src/components/table-of-contents/index.tsx" xlink:title="index.tsx">
<path fill="#bbfeff" stroke="black" d="M523.5,-842.88C523.5,-842.88 477.5,-842.88 477.5,-842.88 474.5,-842.88 471.5,-839.88 471.5,-836.88 471.5,-836.88 471.5,-830.88 471.5,-830.88 471.5,-827.88 474.5,-824.88 477.5,-824.88 477.5,-824.88 523.5,-824.88 523.5,-824.88 526.5,-824.88 529.5,-827.88 529.5,-830.88 529.5,-830.88 529.5,-836.88 529.5,-836.88 529.5,-839.88 526.5,-842.88 523.5,-842.88"/>
<text text-anchor="middle" x="500.5" y="-831.68" font-family="Helvetica,sans-Serif" font-size="9.00">index.tsx</text>
</a>
</g>
</g>
<!-- src/components/layout/index.tsx&#45;&gt;src/components/table&#45;of&#45;contents/index.tsx -->
<g id="edge20" class="edge">
<title>src/components/layout/index.tsx&#45;&gt;src/components/table&#45;of&#45;contents/index.tsx</title>
<path fill="none" stroke="#000000" stroke-width="2" stroke-opacity="0.200000" d="M367.24,-945.27C380.22,-943.91 394.76,-939.94 404,-929.88 421.01,-911.36 396.95,-894.01 412,-873.88 424.76,-856.81 446.53,-846.82 465.17,-841.09"/>
<polygon fill="#000000" fill-opacity="0.200000" stroke="#000000" stroke-width="2" stroke-opacity="0.200000" points="466.17,-842.99 471.35,-839.31 465,-838.95 466.17,-842.99"/>
</g>
<!-- src/components/layout/prism&#45;styles.ts -->
<g id="node24" class="node">
<title>src/components/layout/prism&#45;styles.ts</title>
<g id="a_node24"><a xlink:href="src/components/layout/prism-styles.ts" xlink:title="prism&#45;styles.ts">
<path fill="#ddfeff" stroke="black" d="M373,-923.88C373,-923.88 303,-923.88 303,-923.88 300,-923.88 297,-920.88 297,-917.88 297,-917.88 297,-911.88 297,-911.88 297,-908.88 300,-905.88 303,-905.88 303,-905.88 373,-905.88 373,-905.88 376,-905.88 379,-908.88 379,-911.88 379,-911.88 379,-917.88 379,-917.88 379,-920.88 376,-923.88 373,-923.88"/>
<text text-anchor="middle" x="338" y="-912.68" font-family="Helvetica,sans-Serif" font-size="9.00">prism&#45;styles.ts</text>
</a>
</g>
</g>
<!-- src/components/post&#45;link/post&#45;date.tsx -->
<g id="node25" class="node">
<title>src/components/post&#45;link/post&#45;date.tsx</title>
<g id="a_node25"><a xlink:href="src/components/post-link/post-date.tsx" xlink:title="post&#45;date.tsx">
<path fill="#bbfeff" stroke="black" d="M709.5,-1132.88C709.5,-1132.88 645.5,-1132.88 645.5,-1132.88 642.5,-1132.88 639.5,-1129.88 639.5,-1126.88 639.5,-1126.88 639.5,-1120.88 639.5,-1120.88 639.5,-1117.88 642.5,-1114.88 645.5,-1114.88 645.5,-1114.88 709.5,-1114.88 709.5,-1114.88 712.5,-1114.88 715.5,-1117.88 715.5,-1120.88 715.5,-1120.88 715.5,-1126.88 715.5,-1126.88 715.5,-1129.88 712.5,-1132.88 709.5,-1132.88"/>
<text text-anchor="middle" x="677.5" y="-1121.68" font-family="Helvetica,sans-Serif" font-size="9.00">post&#45;date.tsx</text>
</a>
</g>
</g>
<!-- src/components/post&#45;link/post&#45;link.tsx -->
<g id="node26" class="node">
<title>src/components/post&#45;link/post&#45;link.tsx</title>
<g id="a_node26"><a xlink:href="src/components/post-link/post-link.tsx" xlink:title="post&#45;link.tsx">
<path fill="#bbfeff" stroke="black" d="M530,-1147.88C530,-1147.88 471,-1147.88 471,-1147.88 468,-1147.88 465,-1144.88 465,-1141.88 465,-1141.88 465,-1135.88 465,-1135.88 465,-1132.88 468,-1129.88 471,-1129.88 471,-1129.88 530,-1129.88 530,-1129.88 533,-1129.88 536,-1132.88 536,-1135.88 536,-1135.88 536,-1141.88 536,-1141.88 536,-1144.88 533,-1147.88 530,-1147.88"/>
<text text-anchor="middle" x="500.5" y="-1136.68" font-family="Helvetica,sans-Serif" font-size="9.00">post&#45;link.tsx</text>
</a>
</g>
</g>
<!-- src/components/post&#45;link/post&#45;link.tsx&#45;&gt;src/components/post&#45;link/post&#45;date.tsx -->
<g id="edge21" class="edge">
<title>src/components/post&#45;link/post&#45;link.tsx&#45;&gt;src/components/post&#45;link/post&#45;date.tsx</title>
<path fill="none" stroke="#000000" stroke-width="2" stroke-opacity="0.200000" d="M536.07,-1135.91C563.88,-1133.53 603.11,-1130.17 633.04,-1127.6"/>
<polygon fill="#000000" fill-opacity="0.200000" stroke="#000000" stroke-width="2" stroke-opacity="0.200000" points="633.48,-1129.67 639.27,-1127.07 633.12,-1125.49 633.48,-1129.67"/>
</g>
<!-- src/components/post&#45;link/tag&#45;list.tsx -->
<g id="node27" class="node">
<title>src/components/post&#45;link/tag&#45;list.tsx</title>
<g id="a_node27"><a xlink:href="src/components/post-link/tag-list.tsx" xlink:title="tag&#45;list.tsx">
<path fill="#bbfeff" stroke="black" d="M703.5,-1162.88C703.5,-1162.88 651.5,-1162.88 651.5,-1162.88 648.5,-1162.88 645.5,-1159.88 645.5,-1156.88 645.5,-1156.88 645.5,-1150.88 645.5,-1150.88 645.5,-1147.88 648.5,-1144.88 651.5,-1144.88 651.5,-1144.88 703.5,-1144.88 703.5,-1144.88 706.5,-1144.88 709.5,-1147.88 709.5,-1150.88 709.5,-1150.88 709.5,-1156.88 709.5,-1156.88 709.5,-1159.88 706.5,-1162.88 703.5,-1162.88"/>
<text text-anchor="middle" x="677.5" y="-1151.68" font-family="Helvetica,sans-Serif" font-size="9.00">tag&#45;list.tsx</text>
</a>
</g>
</g>
<!-- src/components/post&#45;link/post&#45;link.tsx&#45;&gt;src/components/post&#45;link/tag&#45;list.tsx -->
<g id="edge22" class="edge">
<title>src/components/post&#45;link/post&#45;link.tsx&#45;&gt;src/components/post&#45;link/tag&#45;list.tsx</title>
<path fill="none" stroke="#000000" stroke-width="2" stroke-opacity="0.200000" d="M536.07,-1141.84C565.74,-1144.38 608.41,-1148.04 638.91,-1150.65"/>
<polygon fill="#000000" fill-opacity="0.200000" stroke="#000000" stroke-width="2" stroke-opacity="0.200000" points="639.07,-1152.78 645.23,-1151.2 639.43,-1148.59 639.07,-1152.78"/>
</g>
<!-- src/components/post&#45;link/post&#45;list.tsx -->
<g id="node28" class="node">
<title>src/components/post&#45;link/post&#45;list.tsx</title>
<g id="a_node28"><a xlink:href="src/components/post-link/post-list.tsx" xlink:title="post&#45;list.tsx">
<path fill="#bbfeff" stroke="black" d="M366,-1147.88C366,-1147.88 310,-1147.88 310,-1147.88 307,-1147.88 304,-1144.88 304,-1141.88 304,-1141.88 304,-1135.88 304,-1135.88 304,-1132.88 307,-1129.88 310,-1129.88 310,-1129.88 366,-1129.88 366,-1129.88 369,-1129.88 372,-1132.88 372,-1135.88 372,-1135.88 372,-1141.88 372,-1141.88 372,-1144.88 369,-1147.88 366,-1147.88"/>
<text text-anchor="middle" x="338" y="-1136.68" font-family="Helvetica,sans-Serif" font-size="9.00">post&#45;list.tsx</text>
</a>
</g>
</g>
<!-- src/components/post&#45;link/post&#45;list.tsx&#45;&gt;src/components/post&#45;link/post&#45;link.tsx -->
<g id="edge23" class="edge">
<title>src/components/post&#45;link/post&#45;list.tsx&#45;&gt;src/components/post&#45;link/post&#45;link.tsx</title>
<path fill="none" stroke="#000000" stroke-width="2" stroke-opacity="0.200000" d="M372.26,-1138.88C397.33,-1138.88 431.86,-1138.88 458.62,-1138.88"/>
<polygon fill="#000000" fill-opacity="0.200000" stroke="#000000" stroke-width="2" stroke-opacity="0.200000" points="458.9,-1140.98 464.9,-1138.88 458.9,-1136.78 458.9,-1140.98"/>
</g>
<!-- src/styles/theme.tsx&#45;&gt;src/components/layout/prism&#45;styles.ts -->
<g id="edge42" class="edge">
<title>src/styles/theme.tsx&#45;&gt;src/components/layout/prism&#45;styles.ts</title>
<path fill="none" stroke="#000000" stroke-width="2" stroke-opacity="0.200000" d="M469.39,-312.68C450.27,-312.44 426.48,-315.72 412,-330.88 371.41,-373.35 344.83,-810.93 339.85,-899.35"/>
<polygon fill="#000000" fill-opacity="0.200000" stroke="#000000" stroke-width="2" stroke-opacity="0.200000" points="337.74,-899.43 339.5,-905.54 341.94,-899.66 337.74,-899.43"/>
</g>
<!-- src/hooks/use&#45;local&#45;storage&#45;state.ts -->
<g id="node39" class="node">
<title>src/hooks/use&#45;local&#45;storage&#45;state.ts</title>
<g id="a_node39"><a xlink:href="src/hooks/use-local-storage-state.ts" xlink:title="use&#45;local&#45;storage&#45;state.ts">
<path fill="#ddfeff" stroke="black" d="M736,-414.88C736,-414.88 619,-414.88 619,-414.88 616,-414.88 613,-411.88 613,-408.88 613,-408.88 613,-402.88 613,-402.88 613,-399.88 616,-396.88 619,-396.88 619,-396.88 736,-396.88 736,-396.88 739,-396.88 742,-399.88 742,-402.88 742,-402.88 742,-408.88 742,-408.88 742,-411.88 739,-414.88 736,-414.88"/>
<text text-anchor="middle" x="677.5" y="-403.68" font-family="Helvetica,sans-Serif" font-size="9.00">use&#45;local&#45;storage&#45;state.ts</text>
</a>
</g>
</g>
<!-- src/styles/theme.tsx&#45;&gt;src/hooks/use&#45;local&#45;storage&#45;state.ts -->
<g id="edge43" class="edge">
<title>src/styles/theme.tsx&#45;&gt;src/hooks/use&#45;local&#45;storage&#45;state.ts</title>
<path fill="none" stroke="#000000" stroke-width="2" stroke-opacity="0.200000" d="M531.9,-312.08C553.04,-311.25 580.32,-314.09 597,-330.88 613.79,-347.77 589.45,-365.83 605,-383.88 608.47,-387.91 612.66,-391.21 617.26,-393.92"/>
<polygon fill="#000000" fill-opacity="0.200000" stroke="#000000" stroke-width="2" stroke-opacity="0.200000" points="616.52,-395.91 622.81,-396.83 618.47,-392.19 616.52,-395.91"/>
</g>
<!-- src/libs/styleFn/color.ts -->
<g id="node45" class="node">
<title>src/libs/styleFn/color.ts</title>
<g id="a_node45"><a xlink:href="src/libs/styleFn/color.ts" xlink:title="color.ts">
<path fill="#ddfeff" stroke="black" d="M698.5,-688.88C698.5,-688.88 656.5,-688.88 656.5,-688.88 653.5,-688.88 650.5,-685.88 650.5,-682.88 650.5,-682.88 650.5,-676.88 650.5,-676.88 650.5,-673.88 653.5,-670.88 656.5,-670.88 656.5,-670.88 698.5,-670.88 698.5,-670.88 701.5,-670.88 704.5,-673.88 704.5,-676.88 704.5,-676.88 704.5,-682.88 704.5,-682.88 704.5,-685.88 701.5,-688.88 698.5,-688.88"/>
<text text-anchor="middle" x="677.5" y="-677.68" font-family="Helvetica,sans-Serif" font-size="9.00">color.ts</text>
</a>
</g>
</g>
<!-- src/styles/theme.tsx&#45;&gt;src/libs/styleFn/color.ts -->
<g id="edge44" class="edge">
<title>src/styles/theme.tsx&#45;&gt;src/libs/styleFn/color.ts</title>
<path fill="none" stroke="#000000" stroke-width="2" stroke-opacity="0.200000" d="M531.65,-311.51C553.24,-310.26 581.18,-312.82 597,-330.88 609.23,-344.84 593.13,-650.61 605,-664.88 614.44,-676.22 630.07,-680.35 644.32,-681.48"/>
<polygon fill="#000000" fill-opacity="0.200000" stroke="#000000" stroke-width="2" stroke-opacity="0.200000" points="644.21,-683.58 650.32,-681.8 644.43,-679.39 644.21,-683.58"/>
</g>
<!-- src/styles/variables.ts -->
<g id="node55" class="node">
<title>src/styles/variables.ts</title>
<g id="a_node55"><a xlink:href="src/styles/variables.ts" xlink:title="variables.ts">
<path fill="#ddfeff" stroke="black" d="M705.5,-309.88C705.5,-309.88 649.5,-309.88 649.5,-309.88 646.5,-309.88 643.5,-306.88 643.5,-303.88 643.5,-303.88 643.5,-297.88 643.5,-297.88 643.5,-294.88 646.5,-291.88 649.5,-291.88 649.5,-291.88 705.5,-291.88 705.5,-291.88 708.5,-291.88 711.5,-294.88 711.5,-297.88 711.5,-297.88 711.5,-303.88 711.5,-303.88 711.5,-306.88 708.5,-309.88 705.5,-309.88"/>
<text text-anchor="middle" x="677.5" y="-298.68" font-family="Helvetica,sans-Serif" font-size="9.00">variables.ts</text>
</a>
</g>
</g>
<!-- src/styles/theme.tsx&#45;&gt;src/styles/variables.ts -->
<g id="edge45" class="edge">
<title>src/styles/theme.tsx&#45;&gt;src/styles/variables.ts</title>
<path fill="none" stroke="#000000" stroke-width="2" stroke-opacity="0.200000" d="M531.58,-313.3C560.72,-310.8 605.06,-307 637.02,-304.26"/>
<polygon fill="#000000" fill-opacity="0.200000" stroke="#000000" stroke-width="2" stroke-opacity="0.200000" points="637.44,-306.33 643.23,-303.73 637.08,-302.15 637.44,-306.33"/>
</g>
<!-- src/gatsby/browser/wrap&#45;root&#45;element.tsx -->
<g id="node30" class="node">
<title>src/gatsby/browser/wrap&#45;root&#45;element.tsx</title>
<g id="a_node30"><a xlink:href="src/gatsby/browser/wrap-root-element.tsx" xlink:title="wrap&#45;root&#45;element.tsx">
<path fill="#bbfeff" stroke="black" d="M390,-208.88C390,-208.88 286,-208.88 286,-208.88 283,-208.88 280,-205.88 280,-202.88 280,-202.88 280,-196.88 280,-196.88 280,-193.88 283,-190.88 286,-190.88 286,-190.88 390,-190.88 390,-190.88 393,-190.88 396,-193.88 396,-196.88 396,-196.88 396,-202.88 396,-202.88 396,-205.88 393,-208.88 390,-208.88"/>
<text text-anchor="middle" x="338" y="-197.68" font-family="Helvetica,sans-Serif" font-size="9.00">wrap&#45;root&#45;element.tsx</text>
</a>
</g>
</g>
<!-- src/gatsby/browser/wrap&#45;root&#45;element.tsx&#45;&gt;src/styles/theme.tsx -->
<g id="edge25" class="edge">
<title>src/gatsby/browser/wrap&#45;root&#45;element.tsx&#45;&gt;src/styles/theme.tsx</title>
<path fill="none" stroke="#000000" stroke-width="2" stroke-opacity="0.200000" d="M342.68,-208.98C351.38,-229.22 375.28,-277.99 412,-300.88 427.14,-310.32 446.49,-314.28 463.13,-315.8"/>
<polygon fill="#000000" fill-opacity="0.200000" stroke="#000000" stroke-width="2" stroke-opacity="0.200000" points="462.99,-317.9 469.13,-316.25 463.31,-313.71 462.99,-317.9"/>
</g>
<!-- src/gatsby/gatsby&#45;browser.ts -->
<g id="node31" class="node">
<title>src/gatsby/gatsby&#45;browser.ts</title>
<g id="a_node31"><a xlink:href="src/gatsby/gatsby-browser.ts" xlink:title="gatsby&#45;browser.ts">
<path fill="#ccffcc" stroke="black" d="M380.5,-174.88C380.5,-174.88 295.5,-174.88 295.5,-174.88 292.5,-174.88 289.5,-171.88 289.5,-168.88 289.5,-168.88 289.5,-162.88 289.5,-162.88 289.5,-159.88 292.5,-156.88 295.5,-156.88 295.5,-156.88 380.5,-156.88 380.5,-156.88 383.5,-156.88 386.5,-159.88 386.5,-162.88 386.5,-162.88 386.5,-168.88 386.5,-168.88 386.5,-171.88 383.5,-174.88 380.5,-174.88"/>
<text text-anchor="middle" x="338" y="-163.68" font-family="Helvetica,sans-Serif" font-size="9.00">gatsby&#45;browser.ts</text>
</a>
</g>
</g>
<!-- src/gatsby/gatsby&#45;config.ts -->
<g id="node32" class="node">
<title>src/gatsby/gatsby&#45;config.ts</title>
<g id="a_node32"><a xlink:href="src/gatsby/gatsby-config.ts" xlink:title="gatsby&#45;config.ts">
<path fill="#ccffcc" stroke="black" d="M377,-144.88C377,-144.88 299,-144.88 299,-144.88 296,-144.88 293,-141.88 293,-138.88 293,-138.88 293,-132.88 293,-132.88 293,-129.88 296,-126.88 299,-126.88 299,-126.88 377,-126.88 377,-126.88 380,-126.88 383,-129.88 383,-132.88 383,-132.88 383,-138.88 383,-138.88 383,-141.88 380,-144.88 377,-144.88"/>
<text text-anchor="middle" x="338" y="-133.68" font-family="Helvetica,sans-Serif" font-size="9.00">gatsby&#45;config.ts</text>
</a>
</g>
</g>
<!-- src/gatsby/gatsby&#45;node.ts -->
<g id="node33" class="node">
<title>src/gatsby/gatsby&#45;node.ts</title>
<g id="a_node33"><a xlink:href="src/gatsby/gatsby-node.ts" xlink:title="gatsby&#45;node.ts">
<path fill="#ddfeff" stroke="black" d="M374,-114.88C374,-114.88 302,-114.88 302,-114.88 299,-114.88 296,-111.88 296,-108.88 296,-108.88 296,-102.88 296,-102.88 296,-99.88 299,-96.88 302,-96.88 302,-96.88 374,-96.88 374,-96.88 377,-96.88 380,-99.88 380,-102.88 380,-102.88 380,-108.88 380,-108.88 380,-111.88 377,-114.88 374,-114.88"/>
<text text-anchor="middle" x="338" y="-103.68" font-family="Helvetica,sans-Serif" font-size="9.00">gatsby&#45;node.ts</text>
</a>
</g>
</g>
<!-- src/gatsby/node/create&#45;pages.ts -->
<g id="node34" class="node">
<title>src/gatsby/node/create&#45;pages.ts</title>
<g id="a_node34"><a xlink:href="src/gatsby/node/create-pages.ts" xlink:title="create&#45;pages.ts">
<path fill="#ddfeff" stroke="black" d="M537.5,-103.88C537.5,-103.88 463.5,-103.88 463.5,-103.88 460.5,-103.88 457.5,-100.88 457.5,-97.88 457.5,-97.88 457.5,-91.88 457.5,-91.88 457.5,-88.88 460.5,-85.88 463.5,-85.88 463.5,-85.88 537.5,-85.88 537.5,-85.88 540.5,-85.88 543.5,-88.88 543.5,-91.88 543.5,-91.88 543.5,-97.88 543.5,-97.88 543.5,-100.88 540.5,-103.88 537.5,-103.88"/>
<text text-anchor="middle" x="500.5" y="-92.68" font-family="Helvetica,sans-Serif" font-size="9.00">create&#45;pages.ts</text>
</a>
</g>
</g>
<!-- src/gatsby/gatsby&#45;node.ts&#45;&gt;src/gatsby/node/create&#45;pages.ts -->
<g id="edge26" class="edge">
<title>src/gatsby/gatsby&#45;node.ts&#45;&gt;src/gatsby/node/create&#45;pages.ts</title>
<path fill="none" stroke="#000000" stroke-width="2" stroke-opacity="0.200000" d="M380.33,-103.04C401.98,-101.56 428.62,-99.73 451.21,-98.19"/>
<polygon fill="#000000" fill-opacity="0.200000" stroke="#000000" stroke-width="2" stroke-opacity="0.200000" points="451.63,-100.26 457.47,-97.76 451.34,-96.07 451.63,-100.26"/>
</g>
<!-- src/gatsby/node/create&#45;schema&#45;customization.ts -->
<g id="node35" class="node">
<title>src/gatsby/node/create&#45;schema&#45;customization.ts</title>
<g id="a_node35"><a xlink:href="src/gatsby/node/create-schema-customization.ts" xlink:title="create&#45;schema&#45;customization.ts">
<path fill="#ddfeff" stroke="black" d="M575,-133.88C575,-133.88 426,-133.88 426,-133.88 423,-133.88 420,-130.88 420,-127.88 420,-127.88 420,-121.88 420,-121.88 420,-118.88 423,-115.88 426,-115.88 426,-115.88 575,-115.88 575,-115.88 578,-115.88 581,-118.88 581,-121.88 581,-121.88 581,-127.88 581,-127.88 581,-130.88 578,-133.88 575,-133.88"/>
<text text-anchor="middle" x="500.5" y="-122.68" font-family="Helvetica,sans-Serif" font-size="9.00">create&#45;schema&#45;customization.ts</text>
</a>
</g>
</g>
<!-- src/gatsby/gatsby&#45;node.ts&#45;&gt;src/gatsby/node/create&#45;schema&#45;customization.ts -->
<g id="edge27" class="edge">
<title>src/gatsby/gatsby&#45;node.ts&#45;&gt;src/gatsby/node/create&#45;schema&#45;customization.ts</title>
<path fill="none" stroke="#000000" stroke-width="2" stroke-opacity="0.200000" d="M380.33,-110.77C391.67,-112.11 404.37,-113.61 417.14,-115.13"/>
<polygon fill="#000000" fill-opacity="0.200000" stroke="#000000" stroke-width="2" stroke-opacity="0.200000" points="417.21,-117.25 423.41,-115.87 417.7,-113.08 417.21,-117.25"/>
</g>
<!-- src/libs/post.ts -->
<g id="node37" class="node">
<title>src/libs/post.ts</title>
<g id="a_node37"><a xlink:href="src/libs/post.ts" xlink:title="post.ts">
<path fill="#ddfeff" stroke="black" d="M838.5,-564.88C838.5,-564.88 796.5,-564.88 796.5,-564.88 793.5,-564.88 790.5,-561.88 790.5,-558.88 790.5,-558.88 790.5,-552.88 790.5,-552.88 790.5,-549.88 793.5,-546.88 796.5,-546.88 796.5,-546.88 838.5,-546.88 838.5,-546.88 841.5,-546.88 844.5,-549.88 844.5,-552.88 844.5,-552.88 844.5,-558.88 844.5,-558.88 844.5,-561.88 841.5,-564.88 838.5,-564.88"/>
<text text-anchor="middle" x="817.5" y="-553.68" font-family="Helvetica,sans-Serif" font-size="9.00">post.ts</text>
</a>
</g>
</g>
<!-- src/gatsby/node/create&#45;pages.ts&#45;&gt;src/libs/post.ts -->
<g id="edge28" class="edge">
<title>src/gatsby/node/create&#45;pages.ts&#45;&gt;src/libs/post.ts</title>
<path fill="none" stroke="#000000" stroke-width="2" stroke-opacity="0.200000" d="M543.72,-95.75C561.01,-97.54 580.74,-101.5 597,-109.88 683.34,-154.33 703.39,-180.68 750,-265.88 802.11,-361.14 813.48,-495.49 815.88,-540.5"/>
<polygon fill="#000000" fill-opacity="0.200000" stroke="#000000" stroke-width="2" stroke-opacity="0.200000" points="813.79,-540.82 816.18,-546.71 817.99,-540.62 813.79,-540.82"/>
</g>
<!-- src/gatsby/node/create&#45;pages.ts&#45;&gt;src/utils/asserts&#45;non&#45;null.ts -->
<g id="edge29" class="edge">
<title>src/gatsby/node/create&#45;pages.ts&#45;&gt;src/utils/asserts&#45;non&#45;null.ts</title>
<path fill="none" stroke="#000000" stroke-width="2" stroke-opacity="0.200000" d="M543.66,-91.4C599.9,-86.75 699.58,-78.53 761.62,-73.41"/>
<polygon fill="#000000" fill-opacity="0.200000" stroke="#000000" stroke-width="2" stroke-opacity="0.200000" points="762.07,-75.48 767.88,-72.89 761.73,-71.29 762.07,-75.48"/>
</g>
<!-- src/gatsby/gatsby&#45;ssr.tsx -->
<g id="node36" class="node">
<title>src/gatsby/gatsby&#45;ssr.tsx</title>
<g id="a_node36"><a xlink:href="src/gatsby/gatsby-ssr.tsx" xlink:title="gatsby&#45;ssr.tsx">
<path fill="#ccffcc" stroke="black" d="M371.5,-84.88C371.5,-84.88 304.5,-84.88 304.5,-84.88 301.5,-84.88 298.5,-81.88 298.5,-78.88 298.5,-78.88 298.5,-72.88 298.5,-72.88 298.5,-69.88 301.5,-66.88 304.5,-66.88 304.5,-66.88 371.5,-66.88 371.5,-66.88 374.5,-66.88 377.5,-69.88 377.5,-72.88 377.5,-72.88 377.5,-78.88 377.5,-78.88 377.5,-81.88 374.5,-84.88 371.5,-84.88"/>
<text text-anchor="middle" x="338" y="-73.68" font-family="Helvetica,sans-Serif" font-size="9.00">gatsby&#45;ssr.tsx</text>
</a>
</g>
</g>
<!-- src/libs/date.ts -->
<g id="node40" class="node">
<title>src/libs/date.ts</title>
<g id="a_node40"><a xlink:href="src/libs/date.ts" xlink:title="date.ts">
<path fill="#ddfeff" stroke="black" d="M941,-564.88C941,-564.88 899,-564.88 899,-564.88 896,-564.88 893,-561.88 893,-558.88 893,-558.88 893,-552.88 893,-552.88 893,-549.88 896,-546.88 899,-546.88 899,-546.88 941,-546.88 941,-546.88 944,-546.88 947,-549.88 947,-552.88 947,-552.88 947,-558.88 947,-558.88 947,-561.88 944,-564.88 941,-564.88"/>
<text text-anchor="middle" x="920" y="-553.68" font-family="Helvetica,sans-Serif" font-size="9.00">date.ts</text>
</a>
</g>
</g>
<!-- src/libs/post.ts&#45;&gt;src/libs/date.ts -->
<g id="edge32" class="edge">
<title>src/libs/post.ts&#45;&gt;src/libs/date.ts</title>
<path fill="none" stroke="#000000" stroke-width="2" stroke-opacity="0.200000" d="M844.64,-555.88C857.55,-555.88 873.25,-555.88 886.88,-555.88"/>
<polygon fill="#000000" fill-opacity="0.200000" stroke="#000000" stroke-width="2" stroke-opacity="0.200000" points="886.99,-557.98 892.99,-555.88 886.99,-553.78 886.99,-557.98"/>
</g>
<!-- src/utils/panic.ts -->
<g id="node61" class="node">
<title>src/utils/panic.ts</title>
<g id="a_node61"><a xlink:href="src/utils/panic.ts" xlink:title="panic.ts">
<path fill="#ddfeff" stroke="black" d="M941,-77.88C941,-77.88 899,-77.88 899,-77.88 896,-77.88 893,-74.88 893,-71.88 893,-71.88 893,-65.88 893,-65.88 893,-62.88 896,-59.88 899,-59.88 899,-59.88 941,-59.88 941,-59.88 944,-59.88 947,-62.88 947,-65.88 947,-65.88 947,-71.88 947,-71.88 947,-74.88 944,-77.88 941,-77.88"/>
<text text-anchor="middle" x="920" y="-66.68" font-family="Helvetica,sans-Serif" font-size="9.00">panic.ts</text>
</a>
</g>
</g>
<!-- src/utils/asserts&#45;non&#45;null.ts&#45;&gt;src/utils/panic.ts -->
<g id="edge57" class="edge">
<title>src/utils/asserts&#45;non&#45;null.ts&#45;&gt;src/utils/panic.ts</title>
<path fill="none" stroke="#000000" stroke-width="2" stroke-opacity="0.200000" d="M867.28,-68.88C873.88,-68.88 880.51,-68.88 886.73,-68.88"/>
<polygon fill="#000000" fill-opacity="0.200000" stroke="#000000" stroke-width="2" stroke-opacity="0.200000" points="886.78,-70.98 892.78,-68.88 886.78,-66.78 886.78,-70.98"/>
</g>
<!-- src/libs/post.test.ts -->
<g id="node41" class="node">
<title>src/libs/post.test.ts</title>
<g id="a_node41"><a xlink:href="src/libs/post.test.ts" xlink:title="post.test.ts">
<path fill="#ddfeff" stroke="black" d="M705.5,-624.88C705.5,-624.88 649.5,-624.88 649.5,-624.88 646.5,-624.88 643.5,-621.88 643.5,-618.88 643.5,-618.88 643.5,-612.88 643.5,-612.88 643.5,-609.88 646.5,-606.88 649.5,-606.88 649.5,-606.88 705.5,-606.88 705.5,-606.88 708.5,-606.88 711.5,-609.88 711.5,-612.88 711.5,-612.88 711.5,-618.88 711.5,-618.88 711.5,-621.88 708.5,-624.88 705.5,-624.88"/>
<text text-anchor="middle" x="677.5" y="-613.68" font-family="Helvetica,sans-Serif" font-size="9.00">post.test.ts</text>
</a>
</g>
</g>
<!-- src/libs/post.test.ts&#45;&gt;src/libs/post.ts -->
<g id="edge31" class="edge">
<title>src/libs/post.test.ts&#45;&gt;src/libs/post.ts</title>
<path fill="none" stroke="#000000" stroke-width="2" stroke-opacity="0.200000" d="M711.7,-611.67C724.05,-609.4 737.97,-605.97 750,-600.88 769.04,-592.81 788.34,-578.99 801.2,-568.78"/>
<polygon fill="#000000" fill-opacity="0.200000" stroke="#000000" stroke-width="2" stroke-opacity="0.200000" points="802.62,-570.34 805.97,-564.93 799.98,-567.07 802.62,-570.34"/>
</g>
<!-- src/libs/proto&#45;ext.ts -->
<g id="node42" class="node">
<title>src/libs/proto&#45;ext.ts</title>
<g id="a_node42"><a xlink:href="src/libs/proto-ext.ts" xlink:title="proto&#45;ext.ts">
<path fill="#ccffcc" stroke="black" d="M706.5,-594.88C706.5,-594.88 648.5,-594.88 648.5,-594.88 645.5,-594.88 642.5,-591.88 642.5,-588.88 642.5,-588.88 642.5,-582.88 642.5,-582.88 642.5,-579.88 645.5,-576.88 648.5,-576.88 648.5,-576.88 706.5,-576.88 706.5,-576.88 709.5,-576.88 712.5,-579.88 712.5,-582.88 712.5,-582.88 712.5,-588.88 712.5,-588.88 712.5,-591.88 709.5,-594.88 706.5,-594.88"/>
<text text-anchor="middle" x="677.5" y="-583.68" font-family="Helvetica,sans-Serif" font-size="9.00">proto&#45;ext.ts</text>
</a>
</g>
</g>
<!-- src/libs/react&#45;fcx.d.ts -->
<g id="node43" class="node">
<title>src/libs/react&#45;fcx.d.ts</title>
<g id="a_node43"><a xlink:href="src/libs/react-fcx.d.ts" xlink:title="react&#45;fcx.d.ts">
<path fill="#ccffcc" stroke="black" d="M710,-564.88C710,-564.88 645,-564.88 645,-564.88 642,-564.88 639,-561.88 639,-558.88 639,-558.88 639,-552.88 639,-552.88 639,-549.88 642,-546.88 645,-546.88 645,-546.88 710,-546.88 710,-546.88 713,-546.88 716,-549.88 716,-552.88 716,-552.88 716,-558.88 716,-558.88 716,-561.88 713,-564.88 710,-564.88"/>
<text text-anchor="middle" x="677.5" y="-553.68" font-family="Helvetica,sans-Serif" font-size="9.00">react&#45;fcx.d.ts</text>
</a>
</g>
</g>
<!-- src/libs/styleFn/angle.ts -->
<g id="node44" class="node">
<title>src/libs/styleFn/angle.ts</title>
<g id="a_node44"><a xlink:href="src/libs/styleFn/angle.ts" xlink:title="angle.ts">
<path fill="#ccffcc" stroke="black" d="M698.5,-718.88C698.5,-718.88 656.5,-718.88 656.5,-718.88 653.5,-718.88 650.5,-715.88 650.5,-712.88 650.5,-712.88 650.5,-706.88 650.5,-706.88 650.5,-703.88 653.5,-700.88 656.5,-700.88 656.5,-700.88 698.5,-700.88 698.5,-700.88 701.5,-700.88 704.5,-703.88 704.5,-706.88 704.5,-706.88 704.5,-712.88 704.5,-712.88 704.5,-715.88 701.5,-718.88 698.5,-718.88"/>
<text text-anchor="middle" x="677.5" y="-707.68" font-family="Helvetica,sans-Serif" font-size="9.00">angle.ts</text>
</a>
</g>
</g>
<!-- src/libs/styleFn/length.ts -->
<g id="node47" class="node">
<title>src/libs/styleFn/length.ts</title>
<g id="a_node47"><a xlink:href="src/libs/styleFn/length.ts" xlink:title="length.ts">
<path fill="#ccffcc" stroke="black" d="M700,-658.88C700,-658.88 655,-658.88 655,-658.88 652,-658.88 649,-655.88 649,-652.88 649,-652.88 649,-646.88 649,-646.88 649,-643.88 652,-640.88 655,-640.88 655,-640.88 700,-640.88 700,-640.88 703,-640.88 706,-643.88 706,-646.88 706,-646.88 706,-652.88 706,-652.88 706,-655.88 703,-658.88 700,-658.88"/>
<text text-anchor="middle" x="677.5" y="-647.68" font-family="Helvetica,sans-Serif" font-size="9.00">length.ts</text>
</a>
</g>
</g>
<!-- src/libs/toc.ts -->
<g id="node48" class="node">
<title>src/libs/toc.ts</title>
<g id="a_node48"><a xlink:href="src/libs/toc.ts" xlink:title="toc.ts">
<path fill="#ccffcc" stroke="black" d="M698.5,-534.88C698.5,-534.88 656.5,-534.88 656.5,-534.88 653.5,-534.88 650.5,-531.88 650.5,-528.88 650.5,-528.88 650.5,-522.88 650.5,-522.88 650.5,-519.88 653.5,-516.88 656.5,-516.88 656.5,-516.88 698.5,-516.88 698.5,-516.88 701.5,-516.88 704.5,-519.88 704.5,-522.88 704.5,-522.88 704.5,-528.88 704.5,-528.88 704.5,-531.88 701.5,-534.88 698.5,-534.88"/>
<text text-anchor="middle" x="677.5" y="-523.68" font-family="Helvetica,sans-Serif" font-size="9.00">toc.ts</text>
</a>
</g>
</g>
<!-- src/libs/withDefault.ts -->
<g id="node49" class="node">
<title>src/libs/withDefault.ts</title>
<g id="a_node49"><a xlink:href="src/libs/withDefault.ts" xlink:title="withDefault.ts">
<path fill="#ccffcc" stroke="black" d="M711.5,-504.88C711.5,-504.88 643.5,-504.88 643.5,-504.88 640.5,-504.88 637.5,-501.88 637.5,-498.88 637.5,-498.88 637.5,-492.88 637.5,-492.88 637.5,-489.88 640.5,-486.88 643.5,-486.88 643.5,-486.88 711.5,-486.88 711.5,-486.88 714.5,-486.88 717.5,-489.88 717.5,-492.88 717.5,-492.88 717.5,-498.88 717.5,-498.88 717.5,-501.88 714.5,-504.88 711.5,-504.88"/>
<text text-anchor="middle" x="677.5" y="-493.68" font-family="Helvetica,sans-Serif" font-size="9.00">withDefault.ts</text>
</a>
</g>
</g>
<!-- src/pages/404.tsx -->
<g id="node50" class="node">
<title>src/pages/404.tsx</title>
<g id="a_node50"><a xlink:href="src/pages/404.tsx" xlink:title="404.tsx">
<path fill="#bbfeff" stroke="black" d="M103.5,-953.88C103.5,-953.88 61.5,-953.88 61.5,-953.88 58.5,-953.88 55.5,-950.88 55.5,-947.88 55.5,-947.88 55.5,-941.88 55.5,-941.88 55.5,-938.88 58.5,-935.88 61.5,-935.88 61.5,-935.88 103.5,-935.88 103.5,-935.88 106.5,-935.88 109.5,-938.88 109.5,-941.88 109.5,-941.88 109.5,-947.88 109.5,-947.88 109.5,-950.88 106.5,-953.88 103.5,-953.88"/>
<text text-anchor="middle" x="82.5" y="-942.68" font-family="Helvetica,sans-Serif" font-size="9.00">404.tsx</text>
</a>
</g>
</g>
<!-- src/pages/404.tsx&#45;&gt;src/components/layout/index.tsx -->
<g id="edge34" class="edge">
<title>src/pages/404.tsx&#45;&gt;src/components/layout/index.tsx</title>
<path fill="none" stroke="#000000" stroke-width="2" stroke-opacity="0.200000" d="M109.67,-944.88C155.75,-944.88 251.3,-944.88 302.62,-944.88"/>
<polygon fill="#000000" fill-opacity="0.200000" stroke="#000000" stroke-width="2" stroke-opacity="0.200000" points="302.66,-946.98 308.66,-944.88 302.66,-942.78 302.66,-946.98"/>
</g>
<!-- src/pages/index.tsx -->
<g id="node51" class="node">
<title>src/pages/index.tsx</title>
<g id="a_node51"><a xlink:href="src/pages/index.tsx" xlink:title="index.tsx">
<path fill="#bbfeff" stroke="black" d="M105.5,-923.88C105.5,-923.88 59.5,-923.88 59.5,-923.88 56.5,-923.88 53.5,-920.88 53.5,-917.88 53.5,-917.88 53.5,-911.88 53.5,-911.88 53.5,-908.88 56.5,-905.88 59.5,-905.88 59.5,-905.88 105.5,-905.88 105.5,-905.88 108.5,-905.88 111.5,-908.88 111.5,-911.88 111.5,-911.88 111.5,-917.88 111.5,-917.88 111.5,-920.88 108.5,-923.88 105.5,-923.88"/>
<text text-anchor="middle" x="82.5" y="-912.68" font-family="Helvetica,sans-Serif" font-size="9.00">index.tsx</text>
</a>
</g>
</g>
<!-- src/pages/index.tsx&#45;&gt;src/hooks/use&#45;site.ts -->
<g id="edge35" class="edge">
<title>src/pages/index.tsx&#45;&gt;src/hooks/use&#45;site.ts</title>
<path fill="none" stroke="#000000" stroke-width="2" stroke-opacity="0.200000" d="M83.9,-905.8C87.83,-821.18 122.46,-170.76 264,-55.88 300.19,-26.5 588.41,-65.62 597,-74.88 610.08,-88.97 592.71,-406.09 605,-420.88 613.5,-431.1 627.03,-435.47 640.05,-437.06"/>
<polygon fill="#000000" fill-opacity="0.200000" stroke="#000000" stroke-width="2" stroke-opacity="0.200000" points="640.2,-439.18 646.37,-437.63 640.58,-435 640.2,-439.18"/>
</g>
<!-- src/pages/index.tsx&#45;&gt;src/utils/asserts&#45;non&#45;null.ts -->
<g id="edge37" class="edge">
<title>src/pages/index.tsx&#45;&gt;src/utils/asserts&#45;non&#45;null.ts</title>
<path fill="none" stroke="#000000" stroke-width="2" stroke-opacity="0.200000" d="M83.52,-905.71C83.78,-816 87.94,-96.3 154,-31.88 212.31,24.99 255.55,-21.88 337,-21.88 337,-21.88 337,-21.88 501.5,-21.88 612.03,-21.88 660.76,33.34 750,-31.88 758.4,-38.02 750.29,-46.89 758,-53.88 759.48,-55.21 761.05,-56.44 762.71,-57.55"/>
<polygon fill="#000000" fill-opacity="0.200000" stroke="#000000" stroke-width="2" stroke-opacity="0.200000" points="761.67,-59.37 767.91,-60.59 763.79,-55.75 761.67,-59.37"/>
</g>
<!-- src/templates/post&#45;list&#45;page.tsx -->
<g id="node52" class="node">
<title>src/templates/post&#45;list&#45;page.tsx</title>
<g id="a_node52"><a xlink:href="src/templates/post-list-page.tsx" xlink:title="post&#45;list&#45;page.tsx">
<path fill="#bbfeff" stroke="black" d="M242,-1193.88C242,-1193.88 160,-1193.88 160,-1193.88 157,-1193.88 154,-1190.88 154,-1187.88 154,-1187.88 154,-1181.88 154,-1181.88 154,-1178.88 157,-1175.88 160,-1175.88 160,-1175.88 242,-1175.88 242,-1175.88 245,-1175.88 248,-1178.88 248,-1181.88 248,-1181.88 248,-1187.88 248,-1187.88 248,-1190.88 245,-1193.88 242,-1193.88"/>
<text text-anchor="middle" x="201" y="-1182.68" font-family="Helvetica,sans-Serif" font-size="9.00">post&#45;list&#45;page.tsx</text>
</a>
</g>
</g>
<!-- src/pages/index.tsx&#45;&gt;src/templates/post&#45;list&#45;page.tsx -->
<g id="edge36" class="edge">
<title>src/pages/index.tsx&#45;&gt;src/templates/post&#45;list&#45;page.tsx</title>
<path fill="none" stroke="#000000" stroke-width="2" stroke-opacity="0.200000" d="M111.74,-916.22C122.21,-918.12 133.38,-922.04 141,-929.88 174.96,-964.79 193.42,-1120.05 198.52,-1169.61"/>
<polygon fill="#000000" fill-opacity="0.200000" stroke="#000000" stroke-width="2" stroke-opacity="0.200000" points="196.44,-1169.87 199.13,-1175.63 200.62,-1169.45 196.44,-1169.87"/>
</g>
<!-- src/templates/post&#45;list&#45;page.tsx&#45;&gt;src/components/layout/index.tsx -->
<g id="edge55" class="edge">
<title>src/templates/post&#45;list&#45;page.tsx&#45;&gt;src/components/layout/index.tsx</title>
<path fill="none" stroke="#000000" stroke-width="2" stroke-opacity="0.200000" d="M207.13,-1175.76C227.59,-1139.38 303.54,-1004.36 328.78,-959.48"/>
<polygon fill="#000000" fill-opacity="0.200000" stroke="#000000" stroke-width="2" stroke-opacity="0.200000" points="330.76,-960.26 331.87,-954 327.1,-958.2 330.76,-960.26"/>
</g>
<!-- src/templates/post&#45;list&#45;page.tsx&#45;&gt;src/components/post&#45;link/post&#45;list.tsx -->
<g id="edge56" class="edge">
<title>src/templates/post&#45;list&#45;page.tsx&#45;&gt;src/components/post&#45;link/post&#45;list.tsx</title>
<path fill="none" stroke="#000000" stroke-width="2" stroke-opacity="0.200000" d="M228.67,-1175.79C250.49,-1168.35 281.42,-1157.81 304.65,-1149.9"/>
<polygon fill="#000000" fill-opacity="0.200000" stroke="#000000" stroke-width="2" stroke-opacity="0.200000" points="305.38,-1151.87 310.38,-1147.95 304.03,-1147.89 305.38,-1151.87"/>
</g>
<!-- src/pages/tags.tsx -->
<g id="node53" class="node">
<title>src/pages/tags.tsx</title>
<g id="a_node53"><a xlink:href="src/pages/tags.tsx" xlink:title="tags.tsx">
<path fill="#bbfeff" stroke="black" d="M103.5,-983.88C103.5,-983.88 61.5,-983.88 61.5,-983.88 58.5,-983.88 55.5,-980.88 55.5,-977.88 55.5,-977.88 55.5,-971.88 55.5,-971.88 55.5,-968.88 58.5,-965.88 61.5,-965.88 61.5,-965.88 103.5,-965.88 103.5,-965.88 106.5,-965.88 109.5,-968.88 109.5,-971.88 109.5,-971.88 109.5,-977.88 109.5,-977.88 109.5,-980.88 106.5,-983.88 103.5,-983.88"/>
<text text-anchor="middle" x="82.5" y="-972.68" font-family="Helvetica,sans-Serif" font-size="9.00">tags.tsx</text>
</a>
</g>
</g>
<!-- src/pages/tags.tsx&#45;&gt;src/components/article&#45;elements/headings.tsx -->
<g id="edge38" class="edge">
<title>src/pages/tags.tsx&#45;&gt;src/components/article&#45;elements/headings.tsx</title>
<path fill="none" stroke="#000000" stroke-width="2" stroke-opacity="0.200000" d="M91.15,-984.24C103.92,-999.77 130.48,-1031.74 154,-1057.88 197.95,-1106.71 228.82,-1105.06 256,-1164.88 264.03,-1182.55 250.66,-1237.77 264,-1251.88 313.8,-1304.54 539.35,-1306.58 634.24,-1305.01"/>
<polygon fill="#000000" fill-opacity="0.200000" stroke="#000000" stroke-width="2" stroke-opacity="0.200000" points="634.33,-1307.11 640.29,-1304.9 634.26,-1302.91 634.33,-1307.11"/>
</g>
<!-- src/pages/tags.tsx&#45;&gt;src/components/layout/index.tsx -->
<g id="edge39" class="edge">
<title>src/pages/tags.tsx&#45;&gt;src/components/layout/index.tsx</title>
<path fill="none" stroke="#000000" stroke-width="2" stroke-opacity="0.200000" d="M109.67,-971.78C155.75,-966.33 251.3,-955.02 302.62,-948.94"/>
<polygon fill="#000000" fill-opacity="0.200000" stroke="#000000" stroke-width="2" stroke-opacity="0.200000" points="302.94,-951.02 308.66,-948.23 302.45,-946.85 302.94,-951.02"/>
</g>
<!-- src/pages/tags.tsx&#45;&gt;src/components/post&#45;link/post&#45;list.tsx -->
<g id="edge40" class="edge">
<title>src/pages/tags.tsx&#45;&gt;src/components/post&#45;link/post&#45;list.tsx</title>
<path fill="none" stroke="#000000" stroke-width="2" stroke-opacity="0.200000" d="M97.49,-983.93C140.17,-1011.54 268.75,-1094.72 317.75,-1126.42"/>
<polygon fill="#000000" fill-opacity="0.200000" stroke="#000000" stroke-width="2" stroke-opacity="0.200000" points="316.87,-1128.36 323.05,-1129.85 319.16,-1124.83 316.87,-1128.36"/>
</g>
<!-- src/styles/generate_variables.test.ts -->
<g id="node54" class="node">
<title>src/styles/generate_variables.test.ts</title>
<g id="a_node54"><a xlink:href="src/styles/generate_variables.test.ts" xlink:title="generate_variables.test.ts">
<path fill="#ddfeff" stroke="black" d="M561,-294.88C561,-294.88 440,-294.88 440,-294.88 437,-294.88 434,-291.88 434,-288.88 434,-288.88 434,-282.88 434,-282.88 434,-279.88 437,-276.88 440,-276.88 440,-276.88 561,-276.88 561,-276.88 564,-276.88 567,-279.88 567,-282.88 567,-282.88 567,-288.88 567,-288.88 567,-291.88 564,-294.88 561,-294.88"/>
<text text-anchor="middle" x="500.5" y="-283.68" font-family="Helvetica,sans-Serif" font-size="9.00">generate_variables.test.ts</text>
</a>
</g>
</g>
<!-- src/styles/generate_variables.test.ts&#45;&gt;src/styles/variables.ts -->
<g id="edge41" class="edge">
<title>src/styles/generate_variables.test.ts&#45;&gt;src/styles/variables.ts</title>
<path fill="none" stroke="#000000" stroke-width="2" stroke-opacity="0.200000" d="M567.16,-291.5C590.72,-293.52 616.53,-295.74 637.15,-297.5"/>
<polygon fill="#000000" fill-opacity="0.200000" stroke="#000000" stroke-width="2" stroke-opacity="0.200000" points="637.22,-299.62 643.38,-298.04 637.58,-295.43 637.22,-299.62"/>
</g>
<!-- src/templates/ArchiveMonthPage.tsx -->
<g id="node56" class="node">
<title>src/templates/ArchiveMonthPage.tsx</title>
<g id="a_node56"><a xlink:href="src/templates/ArchiveMonthPage.tsx" xlink:title="ArchiveMonthPage.tsx">
<path fill="#bbfeff" stroke="black" d="M135,-1193.88C135,-1193.88 30,-1193.88 30,-1193.88 27,-1193.88 24,-1190.88 24,-1187.88 24,-1187.88 24,-1181.88 24,-1181.88 24,-1178.88 27,-1175.88 30,-1175.88 30,-1175.88 135,-1175.88 135,-1175.88 138,-1175.88 141,-1178.88 141,-1181.88 141,-1181.88 141,-1187.88 141,-1187.88 141,-1190.88 138,-1193.88 135,-1193.88"/>
<text text-anchor="middle" x="82.5" y="-1182.68" font-family="Helvetica,sans-Serif" font-size="9.00">ArchiveMonthPage.tsx</text>
</a>
</g>
</g>
<!-- src/templates/ArchiveMonthPage.tsx&#45;&gt;src/templates/post&#45;list&#45;page.tsx -->
<g id="edge46" class="edge">
<title>src/templates/ArchiveMonthPage.tsx&#45;&gt;src/templates/post&#45;list&#45;page.tsx</title>
<path fill="none" stroke="#000000" stroke-width="2" stroke-opacity="0.200000" d="M141.07,-1184.88C143.19,-1184.88 145.31,-1184.88 147.42,-1184.88"/>
<polygon fill="#000000" fill-opacity="0.200000" stroke="#000000" stroke-width="2" stroke-opacity="0.200000" points="147.72,-1186.98 153.72,-1184.88 147.72,-1182.78 147.72,-1186.98"/>
</g>
<!-- src/templates/ArchiveYearPage.tsx -->
<g id="node57" class="node">
<title>src/templates/ArchiveYearPage.tsx</title>
<g id="a_node57"><a xlink:href="src/templates/ArchiveYearPage.tsx" xlink:title="ArchiveYearPage.tsx">
<path fill="#bbfeff" stroke="black" d="M130,-1253.88C130,-1253.88 35,-1253.88 35,-1253.88 32,-1253.88 29,-1250.88 29,-1247.88 29,-1247.88 29,-1241.88 29,-1241.88 29,-1238.88 32,-1235.88 35,-1235.88 35,-1235.88 130,-1235.88 130,-1235.88 133,-1235.88 136,-1238.88 136,-1241.88 136,-1241.88 136,-1247.88 136,-1247.88 136,-1250.88 133,-1253.88 130,-1253.88"/>
<text text-anchor="middle" x="82.5" y="-1242.68" font-family="Helvetica,sans-Serif" font-size="9.00">ArchiveYearPage.tsx</text>
</a>
</g>
</g>
<!-- src/templates/ArchiveYearPage.tsx&#45;&gt;src/templates/post&#45;list&#45;page.tsx -->
<g id="edge47" class="edge">
<title>src/templates/ArchiveYearPage.tsx&#45;&gt;src/templates/post&#45;list&#45;page.tsx</title>
<path fill="none" stroke="#000000" stroke-width="2" stroke-opacity="0.200000" d="M125.96,-1235.86C131.14,-1234.16 136.27,-1232.18 141,-1229.88 157.82,-1221.68 174.55,-1208.3 185.87,-1198.25"/>
<polygon fill="#000000" fill-opacity="0.200000" stroke="#000000" stroke-width="2" stroke-opacity="0.200000" points="187.34,-1199.76 190.38,-1194.18 184.52,-1196.65 187.34,-1199.76"/>
</g>
<!-- src/templates/BlogPost.tsx -->
<g id="node58" class="node">
<title>src/templates/BlogPost.tsx</title>
<g id="a_node58"><a xlink:href="src/templates/BlogPost.tsx" xlink:title="BlogPost.tsx">
<path fill="#bbfeff" stroke="black" d="M112,-1283.88C112,-1283.88 53,-1283.88 53,-1283.88 50,-1283.88 47,-1280.88 47,-1277.88 47,-1277.88 47,-1271.88 47,-1271.88 47,-1268.88 50,-1265.88 53,-1265.88 53,-1265.88 112,-1265.88 112,-1265.88 115,-1265.88 118,-1268.88 118,-1271.88 118,-1271.88 118,-1277.88 118,-1277.88 118,-1280.88 115,-1283.88 112,-1283.88"/>
<text text-anchor="middle" x="82.5" y="-1272.68" font-family="Helvetica,sans-Serif" font-size="9.00">BlogPost.tsx</text>
</a>
</g>
</g>
<!-- src/templates/BlogPost.tsx&#45;&gt;src/components/article&#45;elements/mdx&#45;components.tsx -->
<g id="edge48" class="edge">
<title>src/templates/BlogPost.tsx&#45;&gt;src/components/article&#45;elements/mdx&#45;components.tsx</title>
<path fill="none" stroke="#000000" stroke-width="2" stroke-opacity="0.200000" d="M118.05,-1283.74C129.42,-1286.25 142.18,-1288.63 154,-1289.88 264.5,-1301.5 294.25,-1307.24 404,-1289.88 427.72,-1286.12 453.56,-1277.43 472.38,-1270.21"/>
<polygon fill="#000000" fill-opacity="0.200000" stroke="#000000" stroke-width="2" stroke-opacity="0.200000" points="473.16,-1272.16 477.98,-1268.02 471.63,-1268.24 473.16,-1272.16"/>
</g>
<!-- src/templates/BlogPost.tsx&#45;&gt;src/components/content/tags.tsx -->
<g id="edge49" class="edge">
<title>src/templates/BlogPost.tsx&#45;&gt;src/components/content/tags.tsx</title>
<path fill="none" stroke="#000000" stroke-width="2" stroke-opacity="0.200000" d="M118.12,-1279.53C192.85,-1288.71 365.67,-1304.96 404,-1264.88 416.38,-1251.93 401.95,-1118.7 412,-1103.88 424.57,-1085.33 447.99,-1075.24 467.44,-1069.83"/>
<polygon fill="#000000" fill-opacity="0.200000" stroke="#000000" stroke-width="2" stroke-opacity="0.200000" points="468.05,-1071.84 473.33,-1068.3 466.99,-1067.78 468.05,-1071.84"/>
</g>
<!-- src/templates/BlogPost.tsx&#45;&gt;src/utils/asserts&#45;non&#45;null.ts -->
<g id="edge50" class="edge">
<title>src/templates/BlogPost.tsx&#45;&gt;src/utils/asserts&#45;non&#45;null.ts</title>
<path fill="none" stroke="#000000" stroke-width="2" stroke-opacity="0.200000" d="M118.25,-1272.73C126.84,-1270.52 135.23,-1266.61 141,-1259.88 151.94,-1247.11 253.14,-68.7 264,-55.88 285.74,-30.2 303.36,-35.88 337,-35.88 337,-35.88 337,-35.88 501.5,-35.88 593.25,-35.88 699.23,-49.9 761.9,-59.66"/>
<polygon fill="#000000" fill-opacity="0.200000" stroke="#000000" stroke-width="2" stroke-opacity="0.200000" points="761.58,-61.74 767.83,-60.59 762.23,-57.59 761.58,-61.74"/>
</g>
<!-- src/templates/article&#45;page.tsx -->
<g id="node59" class="node">
<title>src/templates/article&#45;page.tsx</title>
<g id="a_node59"><a xlink:href="src/templates/article-page.tsx" xlink:title="article&#45;page.tsx">
<path fill="#bbfeff" stroke="black" d="M238,-1272.88C238,-1272.88 164,-1272.88 164,-1272.88 161,-1272.88 158,-1269.88 158,-1266.88 158,-1266.88 158,-1260.88 158,-1260.88 158,-1257.88 161,-1254.88 164,-1254.88 164,-1254.88 238,-1254.88 238,-1254.88 241,-1254.88 244,-1257.88 244,-1260.88 244,-1260.88 244,-1266.88 244,-1266.88 244,-1269.88 241,-1272.88 238,-1272.88"/>
<text text-anchor="middle" x="201" y="-1261.68" font-family="Helvetica,sans-Serif" font-size="9.00">article&#45;page.tsx</text>
</a>
</g>
</g>
<!-- src/templates/BlogPost.tsx&#45;&gt;src/templates/article&#45;page.tsx -->
<g id="edge51" class="edge">
<title>src/templates/BlogPost.tsx&#45;&gt;src/templates/article&#45;page.tsx</title>
<path fill="none" stroke="#000000" stroke-width="2" stroke-opacity="0.200000" d="M118.14,-1271.61C128.66,-1270.61 140.43,-1269.5 151.68,-1268.44"/>
<polygon fill="#000000" fill-opacity="0.200000" stroke="#000000" stroke-width="2" stroke-opacity="0.200000" points="152.1,-1270.51 157.87,-1267.85 151.7,-1266.33 152.1,-1270.51"/>
</g>
<!-- src/templates/article&#45;page.tsx&#45;&gt;src/components/content/article&#45;styles.ts -->
<g id="edge53" class="edge">
<title>src/templates/article&#45;page.tsx&#45;&gt;src/components/content/article&#45;styles.ts</title>
<path fill="none" stroke="#000000" stroke-width="2" stroke-opacity="0.200000" d="M244.33,-1267.71C297.01,-1271.44 382.66,-1273.76 404,-1251.88 422.09,-1233.33 394.96,-1038.39 412,-1018.88 421.93,-1007.5 437.08,-1002.63 452,-1000.96"/>
<polygon fill="#000000" fill-opacity="0.200000" stroke="#000000" stroke-width="2" stroke-opacity="0.200000" points="452.56,-1003.02 458.37,-1000.43 452.21,-998.84 452.56,-1003.02"/>
</g>
<!-- src/templates/article&#45;page.tsx&#45;&gt;src/components/layout/index.tsx -->
<g id="edge54" class="edge">
<title>src/templates/article&#45;page.tsx&#45;&gt;src/components/layout/index.tsx</title>
<path fill="none" stroke="#000000" stroke-width="2" stroke-opacity="0.200000" d="M212.99,-1254.79C225.84,-1243.44 246.56,-1222.72 256,-1199.88 272.36,-1160.31 253.13,-1145.29 264,-1103.88 278.76,-1047.65 312.25,-986.63 328.22,-959.4"/>
<polygon fill="#000000" fill-opacity="0.200000" stroke="#000000" stroke-width="2" stroke-opacity="0.200000" points="330.1,-960.36 331.35,-954.12 326.48,-958.22 330.1,-960.36"/>
</g>
<!-- src/templates/IndividualTagPage.tsx -->
<g id="node60" class="node">
<title>src/templates/IndividualTagPage.tsx</title>
<g id="a_node60"><a xlink:href="src/templates/IndividualTagPage.tsx" xlink:title="IndividualTagPage.tsx">
<path fill="#bbfeff" stroke="black" d="M133.5,-1223.88C133.5,-1223.88 31.5,-1223.88 31.5,-1223.88 28.5,-1223.88 25.5,-1220.88 25.5,-1217.88 25.5,-1217.88 25.5,-1211.88 25.5,-1211.88 25.5,-1208.88 28.5,-1205.88 31.5,-1205.88 31.5,-1205.88 133.5,-1205.88 133.5,-1205.88 136.5,-1205.88 139.5,-1208.88 139.5,-1211.88 139.5,-1211.88 139.5,-1217.88 139.5,-1217.88 139.5,-1220.88 136.5,-1223.88 133.5,-1223.88"/>
<text text-anchor="middle" x="82.5" y="-1212.68" font-family="Helvetica,sans-Serif" font-size="9.00">IndividualTagPage.tsx</text>
</a>
</g>
</g>
<!-- src/templates/IndividualTagPage.tsx&#45;&gt;src/templates/post&#45;list&#45;page.tsx -->
<g id="edge52" class="edge">
<title>src/templates/IndividualTagPage.tsx&#45;&gt;src/templates/post&#45;list&#45;page.tsx</title>
<path fill="none" stroke="#000000" stroke-width="2" stroke-opacity="0.200000" d="M118.45,-1205.88C131.12,-1202.61 145.56,-1198.9 158.72,-1195.51"/>
<polygon fill="#000000" fill-opacity="0.200000" stroke="#000000" stroke-width="2" stroke-opacity="0.200000" points="159.38,-1197.5 164.67,-1193.97 158.33,-1193.44 159.38,-1197.5"/>
</g>
<!-- src/utils/type&#45;utils.ts -->
<g id="node62" class="node">
<title>src/utils/type&#45;utils.ts</title>
<g id="a_node62"><a xlink:href="src/utils/type-utils.ts" xlink:title="type&#45;utils.ts">
<path fill="#ccffcc" stroke="black" d="M846.5,-47.88C846.5,-47.88 788.5,-47.88 788.5,-47.88 785.5,-47.88 782.5,-44.88 782.5,-41.88 782.5,-41.88 782.5,-35.88 782.5,-35.88 782.5,-32.88 785.5,-29.88 788.5,-29.88 788.5,-29.88 846.5,-29.88 846.5,-29.88 849.5,-29.88 852.5,-32.88 852.5,-35.88 852.5,-35.88 852.5,-41.88 852.5,-41.88 852.5,-44.88 849.5,-47.88 846.5,-47.88"/>
<text text-anchor="middle" x="817.5" y="-36.68" font-family="Helvetica,sans-Serif" font-size="9.00">type&#45;utils.ts</text>
</a>
</g>
</g>
</g>
</svg>
