<?xml version="1.0" encoding="UTF-8" standalone="no"?>
<!DOCTYPE svg PUBLIC "-//W3C//DTD SVG 1.1//EN"
 "http://www.w3.org/Graphics/SVG/1.1/DTD/svg11.dtd">
<!-- Generated by graphviz version 2.40.1 (20161225.0304)
 -->
<!-- Title: dependency&#45;cruiser output Pages: 1 -->
<svg width="829pt" height="780pt"
 viewBox="0.00 0.00 829.00 779.82" xmlns="http://www.w3.org/2000/svg" xmlns:xlink="http://www.w3.org/1999/xlink">
<g id="graph0" class="graph" transform="scale(1 1) rotate(0) translate(4 775.8166)">
<title>dependency&#45;cruiser output</title>
<polygon fill="#ffffff" stroke="transparent" points="-4,4 -4,-775.8166 825,-775.8166 825,4 -4,4"/>
<g id="clust1" class="cluster">
<title>cluster_src</title>
<path fill="#ffffff" stroke="#000000" stroke-width="2" d="M20,-17.8166C20,-17.8166 801,-17.8166 801,-17.8166 807,-17.8166 813,-23.8166 813,-29.8166 813,-29.8166 813,-751.8166 813,-751.8166 813,-757.8166 807,-763.8166 801,-763.8166 801,-763.8166 20,-763.8166 20,-763.8166 14,-763.8166 8,-757.8166 8,-751.8166 8,-751.8166 8,-29.8166 8,-29.8166 8,-23.8166 14,-17.8166 20,-17.8166"/>
<text text-anchor="middle" x="410.5" y="-752.6166" font-family="Helvetica,sans-Serif" font-weight="bold" font-size="9.00" fill="#000000">src</text>
</g>
<g id="clust2" class="cluster">
<title>cluster_src/components</title>
<path fill="#ffffff" stroke="#000000" stroke-width="2" d="M28,-351.8166C28,-351.8166 793,-351.8166 793,-351.8166 799,-351.8166 805,-357.8166 805,-363.8166 805,-363.8166 805,-725.8166 805,-725.8166 805,-731.8166 799,-737.8166 793,-737.8166 793,-737.8166 28,-737.8166 28,-737.8166 22,-737.8166 16,-731.8166 16,-725.8166 16,-725.8166 16,-363.8166 16,-363.8166 16,-357.8166 22,-351.8166 28,-351.8166"/>
<text text-anchor="middle" x="410.5" y="-726.6166" font-family="Helvetica,sans-Serif" font-weight="bold" font-size="9.00" fill="#000000">components</text>
</g>
<g id="clust3" class="cluster">
<title>cluster_src/components/atoms</title>
<path fill="#ffffff" stroke="#000000" stroke-width="2" d="M447,-629.8166C447,-629.8166 785,-629.8166 785,-629.8166 791,-629.8166 797,-635.8166 797,-641.8166 797,-641.8166 797,-699.8166 797,-699.8166 797,-705.8166 791,-711.8166 785,-711.8166 785,-711.8166 447,-711.8166 447,-711.8166 441,-711.8166 435,-705.8166 435,-699.8166 435,-699.8166 435,-641.8166 435,-641.8166 435,-635.8166 441,-629.8166 447,-629.8166"/>
<text text-anchor="middle" x="616" y="-700.6166" font-family="Helvetica,sans-Serif" font-weight="bold" font-size="9.00" fill="#000000">atoms</text>
</g>
<g id="clust4" class="cluster">
<title>cluster_src/components/content</title>
<path fill="#ffffff" stroke="#000000" stroke-width="2" d="M314.5,-359.8166C314.5,-359.8166 526,-359.8166 526,-359.8166 532,-359.8166 538,-365.8166 538,-371.8166 538,-371.8166 538,-429.8166 538,-429.8166 538,-435.8166 532,-441.8166 526,-441.8166 526,-441.8166 314.5,-441.8166 314.5,-441.8166 308.5,-441.8166 302.5,-435.8166 302.5,-429.8166 302.5,-429.8166 302.5,-371.8166 302.5,-371.8166 302.5,-365.8166 308.5,-359.8166 314.5,-359.8166"/>
<text text-anchor="middle" x="420.25" y="-430.6166" font-family="Helvetica,sans-Serif" font-weight="bold" font-size="9.00" fill="#000000">content</text>
</g>
<g id="clust5" class="cluster">
<title>cluster_src/components/embeddeds</title>
<path fill="#ffffff" stroke="#000000" stroke-width="2" d="M58.5,-614.8166C58.5,-614.8166 121.5,-614.8166 121.5,-614.8166 127.5,-614.8166 133.5,-620.8166 133.5,-626.8166 133.5,-626.8166 133.5,-654.8166 133.5,-654.8166 133.5,-660.8166 127.5,-666.8166 121.5,-666.8166 121.5,-666.8166 58.5,-666.8166 58.5,-666.8166 52.5,-666.8166 46.5,-660.8166 46.5,-654.8166 46.5,-654.8166 46.5,-626.8166 46.5,-626.8166 46.5,-620.8166 52.5,-614.8166 58.5,-614.8166"/>
<text text-anchor="middle" x="90" y="-655.6166" font-family="Helvetica,sans-Serif" font-weight="bold" font-size="9.00" fill="#000000">embeddeds</text>
</g>
<g id="clust6" class="cluster">
<title>cluster_src/components/layout</title>
<path fill="#ffffff" stroke="#000000" stroke-width="2" d="M179.5,-419.8166C179.5,-419.8166 232.5,-419.8166 232.5,-419.8166 238.5,-419.8166 244.5,-425.8166 244.5,-431.8166 244.5,-431.8166 244.5,-459.8166 244.5,-459.8166 244.5,-465.8166 238.5,-471.8166 232.5,-471.8166 232.5,-471.8166 179.5,-471.8166 179.5,-471.8166 173.5,-471.8166 167.5,-465.8166 167.5,-459.8166 167.5,-459.8166 167.5,-431.8166 167.5,-431.8166 167.5,-425.8166 173.5,-419.8166 179.5,-419.8166"/>
<text text-anchor="middle" x="206" y="-460.6166" font-family="Helvetica,sans-Serif" font-weight="bold" font-size="9.00" fill="#000000">layout</text>
</g>
<g id="clust7" class="cluster">
<title>cluster_src/components/organisms</title>
<path fill="#ffffff" stroke="#000000" stroke-width="2" d="M176,-359.8166C176,-359.8166 236,-359.8166 236,-359.8166 242,-359.8166 248,-365.8166 248,-371.8166 248,-371.8166 248,-399.8166 248,-399.8166 248,-405.8166 242,-411.8166 236,-411.8166 236,-411.8166 176,-411.8166 176,-411.8166 170,-411.8166 164,-405.8166 164,-399.8166 164,-399.8166 164,-371.8166 164,-371.8166 164,-365.8166 170,-359.8166 176,-359.8166"/>
<text text-anchor="middle" x="206" y="-400.6166" font-family="Helvetica,sans-Serif" font-weight="bold" font-size="9.00" fill="#000000">organisms</text>
</g>
<g id="clust8" class="cluster">
<title>cluster_src/components/post&#45;link</title>
<path fill="#ffffff" stroke="#000000" stroke-width="2" d="M308,-449.8166C308,-449.8166 526,-449.8166 526,-449.8166 532,-449.8166 538,-455.8166 538,-461.8166 538,-461.8166 538,-489.8166 538,-489.8166 538,-495.8166 532,-501.8166 526,-501.8166 526,-501.8166 308,-501.8166 308,-501.8166 302,-501.8166 296,-495.8166 296,-489.8166 296,-489.8166 296,-461.8166 296,-461.8166 296,-455.8166 302,-449.8166 308,-449.8166"/>
<text text-anchor="middle" x="417" y="-490.6166" font-family="Helvetica,sans-Serif" font-weight="bold" font-size="9.00" fill="#000000">post&#45;link</text>
</g>
<g id="clust9" class="cluster">
<title>cluster_src/components/sidebar</title>
<path fill="#ffffff" stroke="#000000" stroke-width="2" d="M311,-569.8166C311,-569.8166 658.5,-569.8166 658.5,-569.8166 664.5,-569.8166 670.5,-575.8166 670.5,-581.8166 670.5,-581.8166 670.5,-609.8166 670.5,-609.8166 670.5,-615.8166 664.5,-621.8166 658.5,-621.8166 658.5,-621.8166 311,-621.8166 311,-621.8166 305,-621.8166 299,-615.8166 299,-609.8166 299,-609.8166 299,-581.8166 299,-581.8166 299,-575.8166 305,-569.8166 311,-569.8166"/>
<text text-anchor="middle" x="484.75" y="-610.6166" font-family="Helvetica,sans-Serif" font-weight="bold" font-size="9.00" fill="#000000">sidebar</text>
</g>
<g id="clust10" class="cluster">
<title>cluster_src/components/table&#45;of&#45;contents</title>
<path fill="#ffffff" stroke="#000000" stroke-width="2" d="M458,-509.8166C458,-509.8166 539,-509.8166 539,-509.8166 545,-509.8166 551,-515.8166 551,-521.8166 551,-521.8166 551,-549.8166 551,-549.8166 551,-555.8166 545,-561.8166 539,-561.8166 539,-561.8166 458,-561.8166 458,-561.8166 452,-561.8166 446,-555.8166 446,-549.8166 446,-549.8166 446,-521.8166 446,-521.8166 446,-515.8166 452,-509.8166 458,-509.8166"/>
<text text-anchor="middle" x="498.5" y="-550.6166" font-family="Helvetica,sans-Serif" font-weight="bold" font-size="9.00" fill="#000000">table&#45;of&#45;contents</text>
</g>
<g id="clust11" class="cluster">
<title>cluster_src/components/templates</title>
<path fill="#ffffff" stroke="#000000" stroke-width="2" d="M36,-419.8166C36,-419.8166 144,-419.8166 144,-419.8166 150,-419.8166 156,-425.8166 156,-431.8166 156,-431.8166 156,-549.8166 156,-549.8166 156,-555.8166 150,-561.8166 144,-561.8166 144,-561.8166 36,-561.8166 36,-561.8166 30,-561.8166 24,-555.8166 24,-549.8166 24,-549.8166 24,-431.8166 24,-431.8166 24,-425.8166 30,-419.8166 36,-419.8166"/>
<text text-anchor="middle" x="90" y="-550.6166" font-family="Helvetica,sans-Serif" font-weight="bold" font-size="9.00" fill="#000000">templates</text>
</g>
<g id="clust12" class="cluster">
<title>cluster_src/components/types</title>
<path fill="#ffffff" stroke="#000000" stroke-width="2" d="M43,-359.8166C43,-359.8166 137,-359.8166 137,-359.8166 143,-359.8166 149,-365.8166 149,-371.8166 149,-371.8166 149,-399.8166 149,-399.8166 149,-405.8166 143,-411.8166 137,-411.8166 137,-411.8166 43,-411.8166 43,-411.8166 37,-411.8166 31,-405.8166 31,-399.8166 31,-399.8166 31,-371.8166 31,-371.8166 31,-365.8166 37,-359.8166 43,-359.8166"/>
<text text-anchor="middle" x="90" y="-400.6166" font-family="Helvetica,sans-Serif" font-weight="bold" font-size="9.00" fill="#000000">types</text>
</g>
<g id="clust13" class="cluster">
<title>cluster_src/gatsby&#45;node</title>
<path fill="#ffffff" stroke="#000000" stroke-width="2" d="M311.5,-275.8166C311.5,-275.8166 368.5,-275.8166 368.5,-275.8166 374.5,-275.8166 380.5,-281.8166 380.5,-287.8166 380.5,-287.8166 380.5,-315.8166 380.5,-315.8166 380.5,-321.8166 374.5,-327.8166 368.5,-327.8166 368.5,-327.8166 311.5,-327.8166 311.5,-327.8166 305.5,-327.8166 299.5,-321.8166 299.5,-315.8166 299.5,-315.8166 299.5,-287.8166 299.5,-287.8166 299.5,-281.8166 305.5,-275.8166 311.5,-275.8166"/>
<text text-anchor="middle" x="340" y="-316.6166" font-family="Helvetica,sans-Serif" font-weight="bold" font-size="9.00" fill="#000000">gatsby&#45;node</text>
</g>
<g id="clust14" class="cluster">
<title>cluster_src/images</title>
<path fill="#ffffff" stroke="#000000" stroke-width="2" d="M315.5,-215.8166C315.5,-215.8166 363.5,-215.8166 363.5,-215.8166 369.5,-215.8166 375.5,-221.8166 375.5,-227.8166 375.5,-227.8166 375.5,-255.8166 375.5,-255.8166 375.5,-261.8166 369.5,-267.8166 363.5,-267.8166 363.5,-267.8166 315.5,-267.8166 315.5,-267.8166 309.5,-267.8166 303.5,-261.8166 303.5,-255.8166 303.5,-255.8166 303.5,-227.8166 303.5,-227.8166 303.5,-221.8166 309.5,-215.8166 315.5,-215.8166"/>
<text text-anchor="middle" x="339.5" y="-256.6166" font-family="Helvetica,sans-Serif" font-weight="bold" font-size="9.00" fill="#000000">images</text>
</g>
<g id="clust15" class="cluster">
<title>cluster_src/libs</title>
<path fill="#ffffff" stroke="#000000" stroke-width="2" d="M463.5,-25.8166C463.5,-25.8166 653.5,-25.8166 653.5,-25.8166 659.5,-25.8166 665.5,-31.8166 665.5,-37.8166 665.5,-37.8166 665.5,-155.8166 665.5,-155.8166 665.5,-161.8166 659.5,-167.8166 653.5,-167.8166 653.5,-167.8166 463.5,-167.8166 463.5,-167.8166 457.5,-167.8166 451.5,-161.8166 451.5,-155.8166 451.5,-155.8166 451.5,-37.8166 451.5,-37.8166 451.5,-31.8166 457.5,-25.8166 463.5,-25.8166"/>
<text text-anchor="middle" x="558.5" y="-156.6166" font-family="Helvetica,sans-Serif" font-weight="bold" font-size="9.00" fill="#000000">libs</text>
</g>
<g id="clust16" class="cluster">
<title>cluster_src/pages</title>
<path fill="#ffffff" stroke="#000000" stroke-width="2" d="M65,-231.8166C65,-231.8166 115,-231.8166 115,-231.8166 121,-231.8166 127,-237.8166 127,-243.8166 127,-243.8166 127,-331.8166 127,-331.8166 127,-337.8166 121,-343.8166 115,-343.8166 115,-343.8166 65,-343.8166 65,-343.8166 59,-343.8166 53,-337.8166 53,-331.8166 53,-331.8166 53,-243.8166 53,-243.8166 53,-237.8166 59,-231.8166 65,-231.8166"/>
<text text-anchor="middle" x="90" y="-332.6166" font-family="Helvetica,sans-Serif" font-weight="bold" font-size="9.00" fill="#000000">pages</text>
</g>
<g id="clust17" class="cluster">
<title>cluster_src/state</title>
<path fill="#ffffff" stroke="#000000" stroke-width="2" d="M67,-115.8166C67,-115.8166 237,-115.8166 237,-115.8166 243,-115.8166 249,-121.8166 249,-127.8166 249,-127.8166 249,-189.8166 249,-189.8166 249,-195.8166 243,-201.8166 237,-201.8166 237,-201.8166 67,-201.8166 67,-201.8166 61,-201.8166 55,-195.8166 55,-189.8166 55,-189.8166 55,-127.8166 55,-127.8166 55,-121.8166 61,-115.8166 67,-115.8166"/>
<text text-anchor="middle" x="152" y="-190.6166" font-family="Helvetica,sans-Serif" font-weight="bold" font-size="9.00" fill="#000000">state</text>
</g>
<g id="clust18" class="cluster">
<title>cluster_src/state/ui</title>
<path fill="#ffffff" stroke="#000000" stroke-width="2" d="M183,-123.8166C183,-123.8166 229,-123.8166 229,-123.8166 235,-123.8166 241,-129.8166 241,-135.8166 241,-135.8166 241,-163.8166 241,-163.8166 241,-169.8166 235,-175.8166 229,-175.8166 229,-175.8166 183,-175.8166 183,-175.8166 177,-175.8166 171,-169.8166 171,-163.8166 171,-163.8166 171,-135.8166 171,-135.8166 171,-129.8166 177,-123.8166 183,-123.8166"/>
<text text-anchor="middle" x="206" y="-164.6166" font-family="Helvetica,sans-Serif" font-weight="bold" font-size="9.00" fill="#000000">ui</text>
</g>
<g id="clust19" class="cluster">
<title>cluster_src/styles</title>
<path fill="#ffffff" stroke="#000000" stroke-width="2" d="M590,-231.8166C590,-231.8166 780.5,-231.8166 780.5,-231.8166 786.5,-231.8166 792.5,-237.8166 792.5,-243.8166 792.5,-243.8166 792.5,-331.8166 792.5,-331.8166 792.5,-337.8166 786.5,-343.8166 780.5,-343.8166 780.5,-343.8166 590,-343.8166 590,-343.8166 584,-343.8166 578,-337.8166 578,-331.8166 578,-331.8166 578,-243.8166 578,-243.8166 578,-237.8166 584,-231.8166 590,-231.8166"/>
<text text-anchor="middle" x="685.25" y="-332.6166" font-family="Helvetica,sans-Serif" font-weight="bold" font-size="9.00" fill="#000000">styles</text>
</g>
<g id="clust20" class="cluster">
<title>cluster_src/tests</title>
<path fill="#ffffff" stroke="#000000" stroke-width="2" d="M269,-91.8166C269,-91.8166 410,-91.8166 410,-91.8166 416,-91.8166 422,-97.8166 422,-103.8166 422,-103.8166 422,-195.8166 422,-195.8166 422,-201.8166 416,-207.8166 410,-207.8166 410,-207.8166 269,-207.8166 269,-207.8166 263,-207.8166 257,-201.8166 257,-195.8166 257,-195.8166 257,-103.8166 257,-103.8166 257,-97.8166 263,-91.8166 269,-91.8166"/>
<text text-anchor="middle" x="339.5" y="-196.6166" font-family="Helvetica,sans-Serif" font-weight="bold" font-size="9.00" fill="#000000">tests</text>
</g>
<g id="clust21" class="cluster">
<title>cluster_src/tests/libs</title>
<path fill="#ffffff" stroke="#000000" stroke-width="2" d="M277,-99.8166C277,-99.8166 402,-99.8166 402,-99.8166 408,-99.8166 414,-105.8166 414,-111.8166 414,-111.8166 414,-169.8166 414,-169.8166 414,-175.8166 408,-181.8166 402,-181.8166 402,-181.8166 277,-181.8166 277,-181.8166 271,-181.8166 265,-175.8166 265,-169.8166 265,-169.8166 265,-111.8166 265,-111.8166 265,-105.8166 271,-99.8166 277,-99.8166"/>
<text text-anchor="middle" x="339.5" y="-170.6166" font-family="Helvetica,sans-Serif" font-weight="bold" font-size="9.00" fill="#000000">libs</text>
</g>
<g id="clust22" class="cluster">
<title>cluster_src/utils</title>
<path fill="#ffffff" stroke="#000000" stroke-width="2" d="M53.5,-25.8166C53.5,-25.8166 126.5,-25.8166 126.5,-25.8166 132.5,-25.8166 138.5,-31.8166 138.5,-37.8166 138.5,-37.8166 138.5,-95.8166 138.5,-95.8166 138.5,-101.8166 132.5,-107.8166 126.5,-107.8166 126.5,-107.8166 53.5,-107.8166 53.5,-107.8166 47.5,-107.8166 41.5,-101.8166 41.5,-95.8166 41.5,-95.8166 41.5,-37.8166 41.5,-37.8166 41.5,-31.8166 47.5,-25.8166 53.5,-25.8166"/>
<text text-anchor="middle" x="90" y="-96.6166" font-family="Helvetica,sans-Serif" font-weight="bold" font-size="9.00" fill="#000000">utils</text>
</g>
<!-- src/components/atoms/AnchorOrLink.tsx -->
<g id="node1" class="node">
<title>src/components/atoms/AnchorOrLink.tsx</title>
<g id="a_node1"><a xlink:href="src/components/atoms/AnchorOrLink.tsx" xlink:title="AnchorOrLink.tsx">
<path fill="#bbfeff" stroke="#000000" d="M783,-655.8166C783,-655.8166 700,-655.8166 700,-655.8166 697,-655.8166 694,-652.8166 694,-649.8166 694,-649.8166 694,-643.8166 694,-643.8166 694,-640.8166 697,-637.8166 700,-637.8166 700,-637.8166 783,-637.8166 783,-637.8166 786,-637.8166 789,-640.8166 789,-643.8166 789,-643.8166 789,-649.8166 789,-649.8166 789,-652.8166 786,-655.8166 783,-655.8166"/>
<text text-anchor="middle" x="741.5" y="-644.6166" font-family="Helvetica,sans-Serif" font-size="9.00" fill="#000000">AnchorOrLink.tsx</text>
</a>
</g>
</g>
<!-- src/components/atoms/Colorized.tsx -->
<g id="node2" class="node">
<title>src/components/atoms/Colorized.tsx</title>
<g id="a_node2"><a xlink:href="src/components/atoms/Colorized.tsx" xlink:title="Colorized.tsx">
<path fill="#bbfeff" stroke="#000000" d="M529,-685.8166C529,-685.8166 467,-685.8166 467,-685.8166 464,-685.8166 461,-682.8166 461,-679.8166 461,-679.8166 461,-673.8166 461,-673.8166 461,-670.8166 464,-667.8166 467,-667.8166 467,-667.8166 529,-667.8166 529,-667.8166 532,-667.8166 535,-670.8166 535,-673.8166 535,-673.8166 535,-679.8166 535,-679.8166 535,-682.8166 532,-685.8166 529,-685.8166"/>
<text text-anchor="middle" x="498" y="-674.6166" font-family="Helvetica,sans-Serif" font-size="9.00" fill="#000000">Colorized.tsx</text>
</a>
</g>
</g>
<!-- src/styles/colorScheme.ts -->
<g id="node3" class="node">
<title>src/styles/colorScheme.ts</title>
<g id="a_node3"><a xlink:href="src/styles/colorScheme.ts" xlink:title="colorScheme.ts">
<path fill="#ddfeff" stroke="#000000" d="M778.5,-317.8166C778.5,-317.8166 704.5,-317.8166 704.5,-317.8166 701.5,-317.8166 698.5,-314.8166 698.5,-311.8166 698.5,-311.8166 698.5,-305.8166 698.5,-305.8166 698.5,-302.8166 701.5,-299.8166 704.5,-299.8166 704.5,-299.8166 778.5,-299.8166 778.5,-299.8166 781.5,-299.8166 784.5,-302.8166 784.5,-305.8166 784.5,-305.8166 784.5,-311.8166 784.5,-311.8166 784.5,-314.8166 781.5,-317.8166 778.5,-317.8166"/>
<text text-anchor="middle" x="741.5" y="-306.6166" font-family="Helvetica,sans-Serif" font-size="9.00" fill="#000000">colorScheme.ts</text>
</a>
</g>
</g>
<!-- src/components/atoms/Colorized.tsx&#45;&gt;src/styles/colorScheme.ts -->
<g id="edge1" class="edge">
<title>src/components/atoms/Colorized.tsx&#45;&gt;src/styles/colorScheme.ts</title>
<path fill="none" stroke="#000000" stroke-width="2" stroke-opacity="0.200000" d="M535.1885,-672.3608C541.8008,-670.0886 548.123,-666.7374 553,-661.8166 583.734,-630.807 560.5534,-606.839 578,-566.8166 621.6258,-466.7395 700.8253,-360.7683 730.1675,-323.1065"/>
<polygon fill="#000000" fill-opacity="0.200000" stroke="#000000" stroke-width="2" stroke-opacity="0.200000" points="732.0781,-324.0728 734.1247,-318.0544 728.7716,-321.483 732.0781,-324.0728"/>
</g>
<!-- src/components/atoms/MDXComponents.tsx -->
<g id="node4" class="node">
<title>src/components/atoms/MDXComponents.tsx</title>
<g id="a_node4"><a xlink:href="src/components/atoms/MDXComponents.tsx" xlink:title="MDXComponents.tsx">
<path fill="#bbfeff" stroke="#000000" d="M547,-655.8166C547,-655.8166 449,-655.8166 449,-655.8166 446,-655.8166 443,-652.8166 443,-649.8166 443,-649.8166 443,-643.8166 443,-643.8166 443,-640.8166 446,-637.8166 449,-637.8166 449,-637.8166 547,-637.8166 547,-637.8166 550,-637.8166 553,-640.8166 553,-643.8166 553,-643.8166 553,-649.8166 553,-649.8166 553,-652.8166 550,-655.8166 547,-655.8166"/>
<text text-anchor="middle" x="498" y="-644.6166" font-family="Helvetica,sans-Serif" font-size="9.00" fill="#000000">MDXComponents.tsx</text>
</a>
</g>
</g>
<!-- src/styles/styleValues.ts -->
<g id="node5" class="node">
<title>src/styles/styleValues.ts</title>
<g id="a_node5"><a xlink:href="src/styles/styleValues.ts" xlink:title="styleValues.ts">
<path fill="#ddfeff" stroke="#000000" d="M663,-317.8166C663,-317.8166 598,-317.8166 598,-317.8166 595,-317.8166 592,-314.8166 592,-311.8166 592,-311.8166 592,-305.8166 592,-305.8166 592,-302.8166 595,-299.8166 598,-299.8166 598,-299.8166 663,-299.8166 663,-299.8166 666,-299.8166 669,-302.8166 669,-305.8166 669,-305.8166 669,-311.8166 669,-311.8166 669,-314.8166 666,-317.8166 663,-317.8166"/>
<text text-anchor="middle" x="630.5" y="-306.6166" font-family="Helvetica,sans-Serif" font-size="9.00" fill="#000000">styleValues.ts</text>
</a>
</g>
</g>
<!-- src/components/atoms/MDXComponents.tsx&#45;&gt;src/styles/styleValues.ts -->
<g id="edge2" class="edge">
<title>src/components/atoms/MDXComponents.tsx&#45;&gt;src/styles/styleValues.ts</title>
<path fill="none" stroke="#000000" stroke-width="2" stroke-opacity="0.200000" d="M535.8254,-637.7824C542.3853,-634.6559 548.5252,-630.4558 553,-624.8166 598.8311,-567.0606 560.3365,-532.4005 578,-460.8166 590.6936,-409.3742 613.4203,-350.6665 624.3277,-323.7383"/>
<polygon fill="#000000" fill-opacity="0.200000" stroke="#000000" stroke-width="2" stroke-opacity="0.200000" points="626.3896,-324.2435 626.7118,-317.8948 622.5008,-322.6569 626.3896,-324.2435"/>
</g>
<!-- src/components/atoms/SwipingAnchor.tsx -->
<g id="node6" class="node">
<title>src/components/atoms/SwipingAnchor.tsx</title>
<g id="a_node6"><a xlink:href="src/components/atoms/SwipingAnchor.tsx" xlink:title="SwipingAnchor.tsx">
<path fill="#bbfeff" stroke="#000000" d="M675,-655.8166C675,-655.8166 586,-655.8166 586,-655.8166 583,-655.8166 580,-652.8166 580,-649.8166 580,-649.8166 580,-643.8166 580,-643.8166 580,-640.8166 583,-637.8166 586,-637.8166 586,-637.8166 675,-637.8166 675,-637.8166 678,-637.8166 681,-640.8166 681,-643.8166 681,-643.8166 681,-649.8166 681,-649.8166 681,-652.8166 678,-655.8166 675,-655.8166"/>
<text text-anchor="middle" x="630.5" y="-644.6166" font-family="Helvetica,sans-Serif" font-size="9.00" fill="#000000">SwipingAnchor.tsx</text>
</a>
</g>
</g>
<!-- src/components/atoms/MDXComponents.tsx&#45;&gt;src/components/atoms/SwipingAnchor.tsx -->
<g id="edge3" class="edge">
<title>src/components/atoms/MDXComponents.tsx&#45;&gt;src/components/atoms/SwipingAnchor.tsx</title>
<path fill="none" stroke="#000000" stroke-width="2" stroke-opacity="0.200000" d="M553.0408,-646.8166C559.7911,-646.8166 566.7012,-646.8166 573.4799,-646.8166"/>
<polygon fill="#000000" fill-opacity="0.200000" stroke="#000000" stroke-width="2" stroke-opacity="0.200000" points="573.6599,-648.9167 579.6599,-646.8166 573.6598,-644.7167 573.6599,-648.9167"/>
</g>
<!-- src/styles/styleValues.ts&#45;&gt;src/styles/colorScheme.ts -->
<g id="edge52" class="edge">
<title>src/styles/styleValues.ts&#45;&gt;src/styles/colorScheme.ts</title>
<path fill="none" stroke="#000000" stroke-width="2" stroke-opacity="0.200000" d="M669.0109,-308.8166C676.3487,-308.8166 684.125,-308.8166 691.7547,-308.8166"/>
<polygon fill="#000000" fill-opacity="0.200000" stroke="#000000" stroke-width="2" stroke-opacity="0.200000" points="692.1163,-310.9167 698.1163,-308.8166 692.1163,-306.7167 692.1163,-310.9167"/>
</g>
<!-- src/components/atoms/SwipingAnchor.tsx&#45;&gt;src/components/atoms/AnchorOrLink.tsx -->
<g id="edge5" class="edge">
<title>src/components/atoms/SwipingAnchor.tsx&#45;&gt;src/components/atoms/AnchorOrLink.tsx</title>
<path fill="none" stroke="#000000" stroke-width="2" stroke-opacity="0.200000" d="M681.1277,-646.8166C683.2432,-646.8166 685.3683,-646.8166 687.4905,-646.8166"/>
<polygon fill="#000000" fill-opacity="0.200000" stroke="#000000" stroke-width="2" stroke-opacity="0.200000" points="687.836,-648.9167 693.836,-646.8166 687.8359,-644.7167 687.836,-648.9167"/>
</g>
<!-- src/components/atoms/SwipingAnchor.tsx&#45;&gt;src/styles/styleValues.ts -->
<g id="edge4" class="edge">
<title>src/components/atoms/SwipingAnchor.tsx&#45;&gt;src/styles/styleValues.ts</title>
<path fill="none" stroke="#000000" stroke-width="2" stroke-opacity="0.200000" d="M589.3463,-637.7126C579.8846,-633.5699 570.9968,-627.5524 565.5,-618.8166 533.5643,-568.0633 603.219,-378.7922 624.5464,-323.8551"/>
<polygon fill="#000000" fill-opacity="0.200000" stroke="#000000" stroke-width="2" stroke-opacity="0.200000" points="626.5605,-324.4704 626.7883,-318.1176 622.6485,-322.9418 626.5605,-324.4704"/>
</g>
<!-- src/components/content/footer.tsx -->
<g id="node7" class="node">
<title>src/components/content/footer.tsx</title>
<g id="a_node7"><a xlink:href="src/components/content/footer.tsx" xlink:title="footer.tsx">
<path fill="#bbfeff" stroke="#000000" d="M521.5,-385.8166C521.5,-385.8166 474.5,-385.8166 474.5,-385.8166 471.5,-385.8166 468.5,-382.8166 468.5,-379.8166 468.5,-379.8166 468.5,-373.8166 468.5,-373.8166 468.5,-370.8166 471.5,-367.8166 474.5,-367.8166 474.5,-367.8166 521.5,-367.8166 521.5,-367.8166 524.5,-367.8166 527.5,-370.8166 527.5,-373.8166 527.5,-373.8166 527.5,-379.8166 527.5,-379.8166 527.5,-382.8166 524.5,-385.8166 521.5,-385.8166"/>
<text text-anchor="middle" x="498" y="-374.6166" font-family="Helvetica,sans-Serif" font-size="9.00" fill="#000000">footer.tsx</text>
</a>
</g>
</g>
<!-- src/components/content/header.tsx -->
<g id="node8" class="node">
<title>src/components/content/header.tsx</title>
<g id="a_node8"><a xlink:href="src/components/content/header.tsx" xlink:title="header.tsx">
<path fill="#bbfeff" stroke="#000000" d="M524,-415.8166C524,-415.8166 472,-415.8166 472,-415.8166 469,-415.8166 466,-412.8166 466,-409.8166 466,-409.8166 466,-403.8166 466,-403.8166 466,-400.8166 469,-397.8166 472,-397.8166 472,-397.8166 524,-397.8166 524,-397.8166 527,-397.8166 530,-400.8166 530,-403.8166 530,-403.8166 530,-409.8166 530,-409.8166 530,-412.8166 527,-415.8166 524,-415.8166"/>
<text text-anchor="middle" x="498" y="-404.6166" font-family="Helvetica,sans-Serif" font-size="9.00" fill="#000000">header.tsx</text>
</a>
</g>
</g>
<!-- src/components/content/header.tsx&#45;&gt;src/styles/styleValues.ts -->
<g id="edge7" class="edge">
<title>src/components/content/header.tsx&#45;&gt;src/styles/styleValues.ts</title>
<path fill="none" stroke="#000000" stroke-width="2" stroke-opacity="0.200000" d="M530.0557,-401.2591C537.9111,-399.0557 546.0513,-396.0098 553,-391.8166 582.5234,-374.0007 607.8814,-341.7851 620.9843,-323.1627"/>
<polygon fill="#000000" fill-opacity="0.200000" stroke="#000000" stroke-width="2" stroke-opacity="0.200000" points="622.9702,-323.9822 624.6483,-317.8508 619.5128,-321.5974 622.9702,-323.9822"/>
</g>
<!-- src/libs/date.ts -->
<g id="node9" class="node">
<title>src/libs/date.ts</title>
<g id="a_node9"><a xlink:href="src/libs/date.ts" xlink:title="date.ts">
<path fill="#ddfeff" stroke="#000000" d="M651.5,-141.8166C651.5,-141.8166 609.5,-141.8166 609.5,-141.8166 606.5,-141.8166 603.5,-138.8166 603.5,-135.8166 603.5,-135.8166 603.5,-129.8166 603.5,-129.8166 603.5,-126.8166 606.5,-123.8166 609.5,-123.8166 609.5,-123.8166 651.5,-123.8166 651.5,-123.8166 654.5,-123.8166 657.5,-126.8166 657.5,-129.8166 657.5,-129.8166 657.5,-135.8166 657.5,-135.8166 657.5,-138.8166 654.5,-141.8166 651.5,-141.8166"/>
<text text-anchor="middle" x="630.5" y="-130.6166" font-family="Helvetica,sans-Serif" font-size="9.00" fill="#000000">date.ts</text>
</a>
</g>
</g>
<!-- src/components/content/header.tsx&#45;&gt;src/libs/date.ts -->
<g id="edge6" class="edge">
<title>src/components/content/header.tsx&#45;&gt;src/libs/date.ts</title>
<path fill="none" stroke="#000000" stroke-width="2" stroke-opacity="0.200000" d="M530.1938,-404.3872C538.7024,-402.2061 547.1365,-398.3902 553,-391.8166 601.7866,-337.1218 554.5061,-298.2406 578,-228.8166 588.485,-197.8337 608.6165,-165.099 620.6744,-146.9857"/>
<polygon fill="#000000" fill-opacity="0.200000" stroke="#000000" stroke-width="2" stroke-opacity="0.200000" points="622.5231,-148.0004 624.1377,-141.8519 619.0413,-145.6515 622.5231,-148.0004"/>
</g>
<!-- src/components/content/index.tsx -->
<g id="node10" class="node">
<title>src/components/content/index.tsx</title>
<g id="a_node10"><a xlink:href="src/components/content/index.tsx" xlink:title="index.tsx">
<path fill="#bbfeff" stroke="#000000" d="M362.5,-415.8166C362.5,-415.8166 316.5,-415.8166 316.5,-415.8166 313.5,-415.8166 310.5,-412.8166 310.5,-409.8166 310.5,-409.8166 310.5,-403.8166 310.5,-403.8166 310.5,-400.8166 313.5,-397.8166 316.5,-397.8166 316.5,-397.8166 362.5,-397.8166 362.5,-397.8166 365.5,-397.8166 368.5,-400.8166 368.5,-403.8166 368.5,-403.8166 368.5,-409.8166 368.5,-409.8166 368.5,-412.8166 365.5,-415.8166 362.5,-415.8166"/>
<text text-anchor="middle" x="339.5" y="-404.6166" font-family="Helvetica,sans-Serif" font-size="9.00" fill="#000000">index.tsx</text>
</a>
</g>
</g>
<!-- src/components/content/index.tsx&#45;&gt;src/styles/styleValues.ts -->
<g id="edge8" class="edge">
<title>src/components/content/index.tsx&#45;&gt;src/styles/styleValues.ts</title>
<path fill="none" stroke="#000000" stroke-width="2" stroke-opacity="0.200000" d="M368.6082,-408.9865C386.237,-408.6732 407.9562,-405.1452 422,-391.8166 440.219,-374.5255 416.4592,-353.7622 435,-336.8166 440.5401,-331.7532 529.9824,-320.5149 585.9463,-313.919"/>
<polygon fill="#000000" fill-opacity="0.200000" stroke="#000000" stroke-width="2" stroke-opacity="0.200000" points="586.2106,-316.0025 591.9248,-313.2171 585.7208,-311.8312 586.2106,-316.0025"/>
</g>
<!-- src/components/content/index.tsx&#45;&gt;src/components/content/footer.tsx -->
<g id="edge9" class="edge">
<title>src/components/content/index.tsx&#45;&gt;src/components/content/footer.tsx</title>
<path fill="none" stroke="#000000" stroke-width="2" stroke-opacity="0.200000" d="M368.5369,-401.647C384.354,-398.8034 404.2643,-395.179 422,-391.8166 435.1723,-389.3194 449.6102,-386.4925 462.3307,-383.9713"/>
<polygon fill="#000000" fill-opacity="0.200000" stroke="#000000" stroke-width="2" stroke-opacity="0.200000" points="462.9484,-385.9898 468.4243,-382.761 462.1301,-381.8702 462.9484,-385.9898"/>
</g>
<!-- src/components/content/index.tsx&#45;&gt;src/components/content/header.tsx -->
<g id="edge10" class="edge">
<title>src/components/content/index.tsx&#45;&gt;src/components/content/header.tsx</title>
<path fill="none" stroke="#000000" stroke-width="2" stroke-opacity="0.200000" d="M368.5713,-406.8166C394.162,-406.8166 431.6111,-406.8166 459.6504,-406.8166"/>
<polygon fill="#000000" fill-opacity="0.200000" stroke="#000000" stroke-width="2" stroke-opacity="0.200000" points="459.8417,-408.9167 465.8416,-406.8166 459.8416,-404.7167 459.8417,-408.9167"/>
</g>
<!-- src/components/content/tags.tsx -->
<g id="node11" class="node">
<title>src/components/content/tags.tsx</title>
<g id="a_node11"><a xlink:href="src/components/content/tags.tsx" xlink:title="tags.tsx">
<path fill="#bbfeff" stroke="#000000" d="M360.5,-385.8166C360.5,-385.8166 318.5,-385.8166 318.5,-385.8166 315.5,-385.8166 312.5,-382.8166 312.5,-379.8166 312.5,-379.8166 312.5,-373.8166 312.5,-373.8166 312.5,-370.8166 315.5,-367.8166 318.5,-367.8166 318.5,-367.8166 360.5,-367.8166 360.5,-367.8166 363.5,-367.8166 366.5,-370.8166 366.5,-373.8166 366.5,-373.8166 366.5,-379.8166 366.5,-379.8166 366.5,-382.8166 363.5,-385.8166 360.5,-385.8166"/>
<text text-anchor="middle" x="339.5" y="-374.6166" font-family="Helvetica,sans-Serif" font-size="9.00" fill="#000000">tags.tsx</text>
</a>
</g>
</g>
<!-- src/components/content/tags.tsx&#45;&gt;src/styles/colorScheme.ts -->
<g id="edge11" class="edge">
<title>src/components/content/tags.tsx&#45;&gt;src/styles/colorScheme.ts</title>
<path fill="none" stroke="#000000" stroke-width="2" stroke-opacity="0.200000" d="M366.6656,-372.531C385.7755,-369.5209 411.9494,-365.4072 435,-361.8166 544.3118,-344.7892 572.5346,-345.5944 681,-323.8166 687.5797,-322.4955 694.522,-320.9343 701.265,-319.3267"/>
<polygon fill="#000000" fill-opacity="0.200000" stroke="#000000" stroke-width="2" stroke-opacity="0.200000" points="702.0492,-321.2975 707.3854,-317.8429 701.0596,-317.2157 702.0492,-321.2975"/>
</g>
<!-- src/components/content/tags.tsx&#45;&gt;src/styles/styleValues.ts -->
<g id="edge12" class="edge">
<title>src/components/content/tags.tsx&#45;&gt;src/styles/styleValues.ts</title>
<path fill="none" stroke="#000000" stroke-width="2" stroke-opacity="0.200000" d="M366.5334,-375.6826C384.2128,-373.6057 406.7692,-368.2495 422,-354.8166 433.513,-344.6626 422.5797,-331.8383 435,-322.8166 458.168,-305.9882 535.3709,-305.2358 585.5471,-306.6952"/>
<polygon fill="#000000" fill-opacity="0.200000" stroke="#000000" stroke-width="2" stroke-opacity="0.200000" points="585.7672,-308.8031 591.8305,-306.8935 585.8997,-304.6052 585.7672,-308.8031"/>
</g>
<!-- src/components/embeddeds/niconico.tsx -->
<g id="node12" class="node">
<title>src/components/embeddeds/niconico.tsx</title>
<g id="a_node12"><a xlink:href="src/components/embeddeds/niconico.tsx" xlink:title="niconico.tsx">
<path fill="#ccffcc" stroke="#000000" d="M119.5,-640.8166C119.5,-640.8166 60.5,-640.8166 60.5,-640.8166 57.5,-640.8166 54.5,-637.8166 54.5,-634.8166 54.5,-634.8166 54.5,-628.8166 54.5,-628.8166 54.5,-625.8166 57.5,-622.8166 60.5,-622.8166 60.5,-622.8166 119.5,-622.8166 119.5,-622.8166 122.5,-622.8166 125.5,-625.8166 125.5,-628.8166 125.5,-628.8166 125.5,-634.8166 125.5,-634.8166 125.5,-637.8166 122.5,-640.8166 119.5,-640.8166"/>
<text text-anchor="middle" x="90" y="-629.6166" font-family="Helvetica,sans-Serif" font-size="9.00" fill="#000000">niconico.tsx</text>
</a>
</g>
</g>
<!-- src/components/layout/layout.tsx -->
<g id="node13" class="node">
<title>src/components/layout/layout.tsx</title>
<g id="a_node13"><a xlink:href="src/components/layout/layout.tsx" xlink:title="layout.tsx">
<path fill="#bbfeff" stroke="#000000" d="M230.5,-445.8166C230.5,-445.8166 181.5,-445.8166 181.5,-445.8166 178.5,-445.8166 175.5,-442.8166 175.5,-439.8166 175.5,-439.8166 175.5,-433.8166 175.5,-433.8166 175.5,-430.8166 178.5,-427.8166 181.5,-427.8166 181.5,-427.8166 230.5,-427.8166 230.5,-427.8166 233.5,-427.8166 236.5,-430.8166 236.5,-433.8166 236.5,-433.8166 236.5,-439.8166 236.5,-439.8166 236.5,-442.8166 233.5,-445.8166 230.5,-445.8166"/>
<text text-anchor="middle" x="206" y="-434.6166" font-family="Helvetica,sans-Serif" font-size="9.00" fill="#000000">layout.tsx</text>
</a>
</g>
</g>
<!-- src/components/layout/layout.tsx&#45;&gt;src/styles/styleValues.ts -->
<g id="edge15" class="edge">
<title>src/components/layout/layout.tsx&#45;&gt;src/styles/styleValues.ts</title>
<path fill="none" stroke="#000000" stroke-width="2" stroke-opacity="0.200000" d="M233.5193,-427.675C239.4602,-424.4859 245.1159,-420.2863 249,-414.8166 264.0661,-393.6 238.2319,-374.8414 257,-356.8166 283.5697,-331.2992 393.0063,-363.5422 422,-340.8166 435.7181,-330.0642 420.7784,-313.8937 435,-303.8166 458.3594,-287.2647 535.7841,-294.6904 585.9037,-301.6855"/>
<polygon fill="#000000" fill-opacity="0.200000" stroke="#000000" stroke-width="2" stroke-opacity="0.200000" points="585.6391,-303.7689 591.875,-302.5348 586.2305,-299.6107 585.6391,-303.7689"/>
</g>
<!-- src/components/layout/layout.tsx&#45;&gt;src/components/content/index.tsx -->
<g id="edge17" class="edge">
<title>src/components/layout/layout.tsx&#45;&gt;src/components/content/index.tsx</title>
<path fill="none" stroke="#000000" stroke-width="2" stroke-opacity="0.200000" d="M236.6276,-429.934C256.806,-425.3996 283.2867,-419.4488 304.3277,-414.7205"/>
<polygon fill="#000000" fill-opacity="0.200000" stroke="#000000" stroke-width="2" stroke-opacity="0.200000" points="304.9949,-416.723 310.3884,-413.3586 304.074,-412.6252 304.9949,-416.723"/>
</g>
<!-- src/images/dark.svg -->
<g id="node14" class="node">
<title>src/images/dark.svg</title>
<g id="a_node14"><a xlink:href="src/images/dark.svg" xlink:title="dark.svg">
<path fill="#ffffcc" stroke="#000000" d="M361.5,-241.8166C361.5,-241.8166 317.5,-241.8166 317.5,-241.8166 314.5,-241.8166 311.5,-238.8166 311.5,-235.8166 311.5,-235.8166 311.5,-229.8166 311.5,-229.8166 311.5,-226.8166 314.5,-223.8166 317.5,-223.8166 317.5,-223.8166 361.5,-223.8166 361.5,-223.8166 364.5,-223.8166 367.5,-226.8166 367.5,-229.8166 367.5,-229.8166 367.5,-235.8166 367.5,-235.8166 367.5,-238.8166 364.5,-241.8166 361.5,-241.8166"/>
<text text-anchor="middle" x="339.5" y="-230.6166" font-family="Helvetica,sans-Serif" font-size="9.00" fill="#000000">dark.svg</text>
</a>
</g>
</g>
<!-- src/components/layout/layout.tsx&#45;&gt;src/images/dark.svg -->
<g id="edge13" class="edge">
<title>src/components/layout/layout.tsx&#45;&gt;src/images/dark.svg</title>
<path fill="none" stroke="#000000" stroke-width="2" stroke-opacity="0.200000" d="M234.2812,-427.6495C240.0456,-424.4818 245.4315,-420.2982 249,-414.8166 266.2435,-388.3293 239.4734,-299.1174 257,-272.8166 268.0234,-256.2747 287.9245,-246.353 305.4186,-240.529"/>
<polygon fill="#000000" fill-opacity="0.200000" stroke="#000000" stroke-width="2" stroke-opacity="0.200000" points="306.1432,-242.5027 311.2428,-238.7074 304.8894,-238.4942 306.1432,-242.5027"/>
</g>
<!-- src/styles/mediaQueries.ts -->
<g id="node15" class="node">
<title>src/styles/mediaQueries.ts</title>
<g id="a_node15"><a xlink:href="src/styles/mediaQueries.ts" xlink:title="mediaQueries.ts">
<path fill="#ddfeff" stroke="#000000" d="M669,-287.8166C669,-287.8166 592,-287.8166 592,-287.8166 589,-287.8166 586,-284.8166 586,-281.8166 586,-281.8166 586,-275.8166 586,-275.8166 586,-272.8166 589,-269.8166 592,-269.8166 592,-269.8166 669,-269.8166 669,-269.8166 672,-269.8166 675,-272.8166 675,-275.8166 675,-275.8166 675,-281.8166 675,-281.8166 675,-284.8166 672,-287.8166 669,-287.8166"/>
<text text-anchor="middle" x="630.5" y="-276.6166" font-family="Helvetica,sans-Serif" font-size="9.00" fill="#000000">mediaQueries.ts</text>
</a>
</g>
</g>
<!-- src/components/layout/layout.tsx&#45;&gt;src/styles/mediaQueries.ts -->
<g id="edge14" class="edge">
<title>src/components/layout/layout.tsx&#45;&gt;src/styles/mediaQueries.ts</title>
<path fill="none" stroke="#000000" stroke-width="2" stroke-opacity="0.200000" d="M233.6281,-427.7512C239.5656,-424.5597 245.1926,-420.34 249,-414.8166 258.262,-401.3802 245.2174,-353.1078 257,-341.8166 283.5322,-316.391 393.3115,-353.7816 422,-330.8166 437.919,-318.0735 418.9187,-299.3543 435,-286.8166 479.7757,-251.9074 549.4183,-259.1716 592.3713,-268.4207"/>
<polygon fill="#000000" fill-opacity="0.200000" stroke="#000000" stroke-width="2" stroke-opacity="0.200000" points="591.936,-270.4752 598.2496,-269.7348 592.8523,-266.3763 591.936,-270.4752"/>
</g>
<!-- src/styles/variables.ts -->
<g id="node16" class="node">
<title>src/styles/variables.ts</title>
<g id="a_node16"><a xlink:href="src/styles/variables.ts" xlink:title="variables.ts">
<path fill="#ddfeff" stroke="#000000" d="M658.5,-257.8166C658.5,-257.8166 602.5,-257.8166 602.5,-257.8166 599.5,-257.8166 596.5,-254.8166 596.5,-251.8166 596.5,-251.8166 596.5,-245.8166 596.5,-245.8166 596.5,-242.8166 599.5,-239.8166 602.5,-239.8166 602.5,-239.8166 658.5,-239.8166 658.5,-239.8166 661.5,-239.8166 664.5,-242.8166 664.5,-245.8166 664.5,-245.8166 664.5,-251.8166 664.5,-251.8166 664.5,-254.8166 661.5,-257.8166 658.5,-257.8166"/>
<text text-anchor="middle" x="630.5" y="-246.6166" font-family="Helvetica,sans-Serif" font-size="9.00" fill="#000000">variables.ts</text>
</a>
</g>
</g>
<!-- src/components/layout/layout.tsx&#45;&gt;src/styles/variables.ts -->
<g id="edge16" class="edge">
<title>src/components/layout/layout.tsx&#45;&gt;src/styles/variables.ts</title>
<path fill="none" stroke="#000000" stroke-width="2" stroke-opacity="0.200000" d="M234.4055,-427.729C240.1649,-424.5581 245.5172,-420.353 249,-414.8166 258.41,-399.858 244.3477,-109.1547 257,-96.8166 283.2512,-71.2175 393.9191,-73.2389 422,-96.8166 447.5734,-118.289 410.4518,-148.1793 435,-170.8166 454.3606,-188.6702 528.7729,-171.4905 553,-181.8166 580.5796,-193.5717 605.4401,-218.8946 619.2051,-234.8215"/>
<polygon fill="#000000" fill-opacity="0.200000" stroke="#000000" stroke-width="2" stroke-opacity="0.200000" points="617.6324,-236.2139 623.1115,-239.4373 620.8383,-233.5007 617.6324,-236.2139"/>
</g>
<!-- src/components/sidebar/sidebar.tsx -->
<g id="node17" class="node">
<title>src/components/sidebar/sidebar.tsx</title>
<g id="a_node17"><a xlink:href="src/components/sidebar/sidebar.tsx" xlink:title="sidebar.tsx">
<path fill="#bbfeff" stroke="#000000" d="M366,-595.8166C366,-595.8166 313,-595.8166 313,-595.8166 310,-595.8166 307,-592.8166 307,-589.8166 307,-589.8166 307,-583.8166 307,-583.8166 307,-580.8166 310,-577.8166 313,-577.8166 313,-577.8166 366,-577.8166 366,-577.8166 369,-577.8166 372,-580.8166 372,-583.8166 372,-583.8166 372,-589.8166 372,-589.8166 372,-592.8166 369,-595.8166 366,-595.8166"/>
<text text-anchor="middle" x="339.5" y="-584.6166" font-family="Helvetica,sans-Serif" font-size="9.00" fill="#000000">sidebar.tsx</text>
</a>
</g>
</g>
<!-- src/components/layout/layout.tsx&#45;&gt;src/components/sidebar/sidebar.tsx -->
<g id="edge18" class="edge">
<title>src/components/layout/layout.tsx&#45;&gt;src/components/sidebar/sidebar.tsx</title>
<path fill="none" stroke="#000000" stroke-width="2" stroke-opacity="0.200000" d="M212.2061,-445.9389C221.4348,-459.2996 239.5657,-484.7764 257,-504.8166 279.2925,-530.4413 307.9026,-557.7894 324.9071,-573.5361"/>
<polygon fill="#000000" fill-opacity="0.200000" stroke="#000000" stroke-width="2" stroke-opacity="0.200000" points="323.5454,-575.1369 329.3806,-577.6588 326.3916,-572.0484 323.5454,-575.1369"/>
</g>
<!-- src/components/sidebar/sidebar.tsx&#45;&gt;src/styles/mediaQueries.ts -->
<g id="edge25" class="edge">
<title>src/components/sidebar/sidebar.tsx&#45;&gt;src/styles/mediaQueries.ts</title>
<path fill="none" stroke="#000000" stroke-width="2" stroke-opacity="0.200000" d="M353.5632,-577.6841C372.8237,-564.2969 406.7534,-537.369 422,-504.8166 436.0036,-474.9181 415.7707,-383.6543 435,-356.8166 468.2016,-310.4783 533.5327,-291.6505 579.508,-284.0119"/>
<polygon fill="#000000" fill-opacity="0.200000" stroke="#000000" stroke-width="2" stroke-opacity="0.200000" points="579.9819,-286.0631 585.5789,-283.0492 579.324,-281.9149 579.9819,-286.0631"/>
</g>
<!-- src/components/sidebar/buttons&#45;group.tsx -->
<g id="node22" class="node">
<title>src/components/sidebar/buttons&#45;group.tsx</title>
<g id="a_node22"><a xlink:href="src/components/sidebar/buttons-group.tsx" xlink:title="buttons&#45;group.tsx">
<path fill="#bbfeff" stroke="#000000" d="M541,-595.8166C541,-595.8166 455,-595.8166 455,-595.8166 452,-595.8166 449,-592.8166 449,-589.8166 449,-589.8166 449,-583.8166 449,-583.8166 449,-580.8166 452,-577.8166 455,-577.8166 455,-577.8166 541,-577.8166 541,-577.8166 544,-577.8166 547,-580.8166 547,-583.8166 547,-583.8166 547,-589.8166 547,-589.8166 547,-592.8166 544,-595.8166 541,-595.8166"/>
<text text-anchor="middle" x="498" y="-584.6166" font-family="Helvetica,sans-Serif" font-size="9.00" fill="#000000">buttons&#45;group.tsx</text>
</a>
</g>
</g>
<!-- src/components/sidebar/sidebar.tsx&#45;&gt;src/components/sidebar/buttons&#45;group.tsx -->
<g id="edge27" class="edge">
<title>src/components/sidebar/sidebar.tsx&#45;&gt;src/components/sidebar/buttons&#45;group.tsx</title>
<path fill="none" stroke="#000000" stroke-width="2" stroke-opacity="0.200000" d="M372.3413,-586.8166C392.6511,-586.8166 419.2396,-586.8166 442.7264,-586.8166"/>
<polygon fill="#000000" fill-opacity="0.200000" stroke="#000000" stroke-width="2" stroke-opacity="0.200000" points="442.9419,-588.9167 448.9418,-586.8166 442.9418,-584.7167 442.9419,-588.9167"/>
</g>
<!-- src/components/table&#45;of&#45;contents/index.tsx -->
<g id="node23" class="node">
<title>src/components/table&#45;of&#45;contents/index.tsx</title>
<g id="a_node23"><a xlink:href="src/components/table-of-contents/index.tsx" xlink:title="index.tsx">
<path fill="#bbfeff" stroke="#000000" d="M521,-535.8166C521,-535.8166 475,-535.8166 475,-535.8166 472,-535.8166 469,-532.8166 469,-529.8166 469,-529.8166 469,-523.8166 469,-523.8166 469,-520.8166 472,-517.8166 475,-517.8166 475,-517.8166 521,-517.8166 521,-517.8166 524,-517.8166 527,-520.8166 527,-523.8166 527,-523.8166 527,-529.8166 527,-529.8166 527,-532.8166 524,-535.8166 521,-535.8166"/>
<text text-anchor="middle" x="498" y="-524.6166" font-family="Helvetica,sans-Serif" font-size="9.00" fill="#000000">index.tsx</text>
</a>
</g>
</g>
<!-- src/components/sidebar/sidebar.tsx&#45;&gt;src/components/table&#45;of&#45;contents/index.tsx -->
<g id="edge26" class="edge">
<title>src/components/sidebar/sidebar.tsx&#45;&gt;src/components/table&#45;of&#45;contents/index.tsx</title>
<path fill="none" stroke="#000000" stroke-width="2" stroke-opacity="0.200000" d="M363.5727,-577.7039C391.664,-567.07 438.1174,-549.4851 468.3913,-538.025"/>
<polygon fill="#000000" fill-opacity="0.200000" stroke="#000000" stroke-width="2" stroke-opacity="0.200000" points="469.3521,-539.9067 474.22,-535.8185 467.8652,-535.9788 469.3521,-539.9067"/>
</g>
<!-- src/components/organisms/PostList.tsx -->
<g id="node18" class="node">
<title>src/components/organisms/PostList.tsx</title>
<g id="a_node18"><a xlink:href="src/components/organisms/PostList.tsx" xlink:title="PostList.tsx">
<path fill="#bbfeff" stroke="#000000" d="M234,-385.8166C234,-385.8166 178,-385.8166 178,-385.8166 175,-385.8166 172,-382.8166 172,-379.8166 172,-379.8166 172,-373.8166 172,-373.8166 172,-370.8166 175,-367.8166 178,-367.8166 178,-367.8166 234,-367.8166 234,-367.8166 237,-367.8166 240,-370.8166 240,-373.8166 240,-373.8166 240,-379.8166 240,-379.8166 240,-382.8166 237,-385.8166 234,-385.8166"/>
<text text-anchor="middle" x="206" y="-374.6166" font-family="Helvetica,sans-Serif" font-size="9.00" fill="#000000">PostList.tsx</text>
</a>
</g>
</g>
<!-- src/components/post&#45;link/post&#45;link.tsx -->
<g id="node19" class="node">
<title>src/components/post&#45;link/post&#45;link.tsx</title>
<g id="a_node19"><a xlink:href="src/components/post-link/post-link.tsx" xlink:title="post&#45;link.tsx">
<path fill="#bbfeff" stroke="#000000" d="M369,-475.8166C369,-475.8166 310,-475.8166 310,-475.8166 307,-475.8166 304,-472.8166 304,-469.8166 304,-469.8166 304,-463.8166 304,-463.8166 304,-460.8166 307,-457.8166 310,-457.8166 310,-457.8166 369,-457.8166 369,-457.8166 372,-457.8166 375,-460.8166 375,-463.8166 375,-463.8166 375,-469.8166 375,-469.8166 375,-472.8166 372,-475.8166 369,-475.8166"/>
<text text-anchor="middle" x="339.5" y="-464.6166" font-family="Helvetica,sans-Serif" font-size="9.00" fill="#000000">post&#45;link.tsx</text>
</a>
</g>
</g>
<!-- src/components/organisms/PostList.tsx&#45;&gt;src/components/post&#45;link/post&#45;link.tsx -->
<g id="edge19" class="edge">
<title>src/components/organisms/PostList.tsx&#45;&gt;src/components/post&#45;link/post&#45;link.tsx</title>
<path fill="none" stroke="#000000" stroke-width="2" stroke-opacity="0.200000" d="M219.0837,-385.8984C228.6806,-393.2076 241.327,-404.2992 249,-416.8166 255.7639,-427.8509 247.7677,-435.7463 257,-444.8166 267.8252,-455.4519 283.1859,-461.0994 297.7234,-464.0474"/>
<polygon fill="#000000" fill-opacity="0.200000" stroke="#000000" stroke-width="2" stroke-opacity="0.200000" points="297.6114,-466.1607 303.8878,-465.1523 298.3524,-462.0266 297.6114,-466.1607"/>
</g>
<!-- src/components/post&#45;link/post&#45;link.tsx&#45;&gt;src/styles/styleValues.ts -->
<g id="edge20" class="edge">
<title>src/components/post&#45;link/post&#45;link.tsx&#45;&gt;src/styles/styleValues.ts</title>
<path fill="none" stroke="#000000" stroke-width="2" stroke-opacity="0.200000" d="M375.0042,-465.9679C391.6049,-463.6592 410.2571,-457.9799 422,-444.8166 448.3188,-415.3144 408.0425,-385.7364 435,-356.8166 471.6172,-317.5339 500.9239,-343.9328 553,-330.8166 566.5258,-327.4099 581.2745,-323.3188 594.2406,-319.5936"/>
<polygon fill="#000000" fill-opacity="0.200000" stroke="#000000" stroke-width="2" stroke-opacity="0.200000" points="594.8806,-321.5946 600.0618,-317.9115 593.7146,-317.5597 594.8806,-321.5946"/>
</g>
<!-- src/components/post&#45;link/tag&#45;list.tsx -->
<g id="node20" class="node">
<title>src/components/post&#45;link/tag&#45;list.tsx</title>
<g id="a_node20"><a xlink:href="src/components/post-link/tag-list.tsx" xlink:title="tag&#45;list.tsx">
<path fill="#bbfeff" stroke="#000000" d="M524,-475.8166C524,-475.8166 472,-475.8166 472,-475.8166 469,-475.8166 466,-472.8166 466,-469.8166 466,-469.8166 466,-463.8166 466,-463.8166 466,-460.8166 469,-457.8166 472,-457.8166 472,-457.8166 524,-457.8166 524,-457.8166 527,-457.8166 530,-460.8166 530,-463.8166 530,-463.8166 530,-469.8166 530,-469.8166 530,-472.8166 527,-475.8166 524,-475.8166"/>
<text text-anchor="middle" x="498" y="-464.6166" font-family="Helvetica,sans-Serif" font-size="9.00" fill="#000000">tag&#45;list.tsx</text>
</a>
</g>
</g>
<!-- src/components/post&#45;link/post&#45;link.tsx&#45;&gt;src/components/post&#45;link/tag&#45;list.tsx -->
<g id="edge21" class="edge">
<title>src/components/post&#45;link/post&#45;link.tsx&#45;&gt;src/components/post&#45;link/tag&#45;list.tsx</title>
<path fill="none" stroke="#000000" stroke-width="2" stroke-opacity="0.200000" d="M375.0705,-466.8166C400.2508,-466.8166 433.9866,-466.8166 459.7471,-466.8166"/>
<polygon fill="#000000" fill-opacity="0.200000" stroke="#000000" stroke-width="2" stroke-opacity="0.200000" points="459.7805,-468.9167 465.7804,-466.8166 459.7804,-464.7167 459.7805,-468.9167"/>
</g>
<!-- src/components/post&#45;link/tag&#45;list.tsx&#45;&gt;src/styles/styleValues.ts -->
<g id="edge22" class="edge">
<title>src/components/post&#45;link/tag&#45;list.tsx&#45;&gt;src/styles/styleValues.ts</title>
<path fill="none" stroke="#000000" stroke-width="2" stroke-opacity="0.200000" d="M530.0137,-458.1683C538.1313,-454.9132 546.4089,-450.5588 553,-444.8166 592.2422,-410.6289 616.1437,-351.4789 625.695,-323.8492"/>
<polygon fill="#000000" fill-opacity="0.200000" stroke="#000000" stroke-width="2" stroke-opacity="0.200000" points="627.6909,-324.5021 627.6162,-318.1457 623.7107,-323.1613 627.6909,-324.5021"/>
</g>
<!-- src/components/sidebar/button.tsx -->
<g id="node21" class="node">
<title>src/components/sidebar/button.tsx</title>
<g id="a_node21"><a xlink:href="src/components/sidebar/button.tsx" xlink:title="button.tsx">
<path fill="#bbfeff" stroke="#000000" d="M656.5,-595.8166C656.5,-595.8166 604.5,-595.8166 604.5,-595.8166 601.5,-595.8166 598.5,-592.8166 598.5,-589.8166 598.5,-589.8166 598.5,-583.8166 598.5,-583.8166 598.5,-580.8166 601.5,-577.8166 604.5,-577.8166 604.5,-577.8166 656.5,-577.8166 656.5,-577.8166 659.5,-577.8166 662.5,-580.8166 662.5,-583.8166 662.5,-583.8166 662.5,-589.8166 662.5,-589.8166 662.5,-592.8166 659.5,-595.8166 656.5,-595.8166"/>
<text text-anchor="middle" x="630.5" y="-584.6166" font-family="Helvetica,sans-Serif" font-size="9.00" fill="#000000">button.tsx</text>
</a>
</g>
</g>
<!-- src/components/sidebar/button.tsx&#45;&gt;src/components/atoms/AnchorOrLink.tsx -->
<g id="edge23" class="edge">
<title>src/components/sidebar/button.tsx&#45;&gt;src/components/atoms/AnchorOrLink.tsx</title>
<path fill="none" stroke="#000000" stroke-width="2" stroke-opacity="0.200000" d="M647.3585,-595.9293C666.6214,-606.3417 698.2134,-623.4185 719.4249,-634.8842"/>
<polygon fill="#000000" fill-opacity="0.200000" stroke="#000000" stroke-width="2" stroke-opacity="0.200000" points="718.5697,-636.809 724.8465,-637.8148 720.5669,-633.1142 718.5697,-636.809"/>
</g>
<!-- src/components/sidebar/buttons&#45;group.tsx&#45;&gt;src/components/sidebar/button.tsx -->
<g id="edge24" class="edge">
<title>src/components/sidebar/buttons&#45;group.tsx&#45;&gt;src/components/sidebar/button.tsx</title>
<path fill="none" stroke="#000000" stroke-width="2" stroke-opacity="0.200000" d="M547.3381,-586.8166C562.141,-586.8166 578.1511,-586.8166 592.134,-586.8166"/>
<polygon fill="#000000" fill-opacity="0.200000" stroke="#000000" stroke-width="2" stroke-opacity="0.200000" points="592.4043,-588.9167 598.4043,-586.8166 592.4043,-584.7167 592.4043,-588.9167"/>
</g>
<!-- src/components/table&#45;of&#45;contents/index.tsx&#45;&gt;src/styles/styleValues.ts -->
<g id="edge28" class="edge">
<title>src/components/table&#45;of&#45;contents/index.tsx&#45;&gt;src/styles/styleValues.ts</title>
<path fill="none" stroke="#000000" stroke-width="2" stroke-opacity="0.200000" d="M527.1479,-520.0781C536.3588,-516.7547 545.9602,-511.8844 553,-504.8166 566.5982,-491.1644 610.2882,-367.2819 625.3437,-323.8102"/>
<polygon fill="#000000" fill-opacity="0.200000" stroke="#000000" stroke-width="2" stroke-opacity="0.200000" points="627.3757,-324.3594 627.3503,-318.0025 623.406,-322.9878 627.3757,-324.3594"/>
</g>
<!-- src/components/table&#45;of&#45;contents/index.tsx&#45;&gt;src/components/atoms/SwipingAnchor.tsx -->
<g id="edge29" class="edge">
<title>src/components/table&#45;of&#45;contents/index.tsx&#45;&gt;src/components/atoms/SwipingAnchor.tsx</title>
<path fill="none" stroke="#000000" stroke-width="2" stroke-opacity="0.200000" d="M515.0311,-535.9088C526.9747,-543.0005 542.6036,-553.8144 553,-566.8166 570.5299,-588.7405 558.0507,-605.0688 578,-624.8166 582.214,-628.9881 587.3366,-632.4127 592.7104,-635.2113"/>
<polygon fill="#000000" fill-opacity="0.200000" stroke="#000000" stroke-width="2" stroke-opacity="0.200000" points="591.8243,-637.1153 598.1436,-637.8058 593.6342,-633.3252 591.8243,-637.1153"/>
</g>
<!-- src/components/templates/ArchiveMonthPage.tsx -->
<g id="node24" class="node">
<title>src/components/templates/ArchiveMonthPage.tsx</title>
<g id="a_node24"><a xlink:href="src/components/templates/ArchiveMonthPage.tsx" xlink:title="ArchiveMonthPage.tsx">
<path fill="#bbfeff" stroke="#000000" d="M142,-475.8166C142,-475.8166 38,-475.8166 38,-475.8166 35,-475.8166 32,-472.8166 32,-469.8166 32,-469.8166 32,-463.8166 32,-463.8166 32,-460.8166 35,-457.8166 38,-457.8166 38,-457.8166 142,-457.8166 142,-457.8166 145,-457.8166 148,-460.8166 148,-463.8166 148,-463.8166 148,-469.8166 148,-469.8166 148,-472.8166 145,-475.8166 142,-475.8166"/>
<text text-anchor="middle" x="90" y="-464.6166" font-family="Helvetica,sans-Serif" font-size="9.00" fill="#000000">ArchiveMonthPage.tsx</text>
</a>
</g>
</g>
<!-- src/components/templates/ArchiveMonthPage.tsx&#45;&gt;src/components/layout/layout.tsx -->
<g id="edge31" class="edge">
<title>src/components/templates/ArchiveMonthPage.tsx&#45;&gt;src/components/layout/layout.tsx</title>
<path fill="none" stroke="#000000" stroke-width="2" stroke-opacity="0.200000" d="M131.6496,-457.8031C139.7506,-455.9225 148.1594,-453.8811 156,-451.8166 160.9133,-450.5229 166.0726,-449.0764 171.1345,-447.6062"/>
<polygon fill="#000000" fill-opacity="0.200000" stroke="#000000" stroke-width="2" stroke-opacity="0.200000" points="171.8481,-449.5853 177.0113,-445.877 170.6625,-445.5561 171.8481,-449.5853"/>
</g>
<!-- src/components/templates/ArchiveMonthPage.tsx&#45;&gt;src/components/post&#45;link/post&#45;link.tsx -->
<g id="edge32" class="edge">
<title>src/components/templates/ArchiveMonthPage.tsx&#45;&gt;src/components/post&#45;link/post&#45;link.tsx</title>
<path fill="none" stroke="#000000" stroke-width="2" stroke-opacity="0.200000" d="M148.1214,-473.6976C153.4836,-474.1519 158.8387,-474.5384 164,-474.8166 201.723,-476.8498 211.2589,-476.4815 249,-474.8166 264.9978,-474.1109 282.5401,-472.7068 297.8858,-471.2691"/>
<polygon fill="#000000" fill-opacity="0.200000" stroke="#000000" stroke-width="2" stroke-opacity="0.200000" points="298.0994,-473.3584 303.8721,-470.6964 297.6993,-469.1775 298.0994,-473.3584"/>
</g>
<!-- src/libs/post.ts -->
<g id="node25" class="node">
<title>src/libs/post.ts</title>
<g id="a_node25"><a xlink:href="src/libs/post.ts" xlink:title="post.ts">
<path fill="#ddfeff" stroke="#000000" d="M519,-141.8166C519,-141.8166 477,-141.8166 477,-141.8166 474,-141.8166 471,-138.8166 471,-135.8166 471,-135.8166 471,-129.8166 471,-129.8166 471,-126.8166 474,-123.8166 477,-123.8166 477,-123.8166 519,-123.8166 519,-123.8166 522,-123.8166 525,-126.8166 525,-129.8166 525,-129.8166 525,-135.8166 525,-135.8166 525,-138.8166 522,-141.8166 519,-141.8166"/>
<text text-anchor="middle" x="498" y="-130.6166" font-family="Helvetica,sans-Serif" font-size="9.00" fill="#000000">post.ts</text>
</a>
</g>
</g>
<!-- src/components/templates/ArchiveMonthPage.tsx&#45;&gt;src/libs/post.ts -->
<g id="edge30" class="edge">
<title>src/components/templates/ArchiveMonthPage.tsx&#45;&gt;src/libs/post.ts</title>
<path fill="none" stroke="#000000" stroke-width="2" stroke-opacity="0.200000" d="M148.2256,-458.7254C151.1157,-456.8096 153.747,-454.5279 156,-451.8166 170.4269,-434.4555 150.2195,-266.6952 164,-248.8166 188.1175,-217.527 224.7077,-253.9707 249,-222.8166 259.8089,-208.9546 244.2601,-76.9278 257,-64.8166 283.5747,-39.5534 393.1493,-42.1873 422,-64.8166 441.0838,-79.7852 417.7918,-100.7249 435,-117.8166 442.802,-125.5658 453.8381,-129.5833 464.4983,-131.5894"/>
<polygon fill="#000000" fill-opacity="0.200000" stroke="#000000" stroke-width="2" stroke-opacity="0.200000" points="464.4533,-133.7074 470.7042,-132.5511 465.0966,-129.5569 464.4533,-133.7074"/>
</g>
<!-- src/libs/post.ts&#45;&gt;src/libs/date.ts -->
<g id="edge42" class="edge">
<title>src/libs/post.ts&#45;&gt;src/libs/date.ts</title>
<path fill="none" stroke="#000000" stroke-width="2" stroke-opacity="0.200000" d="M525.1331,-132.8166C546.0332,-132.8166 575.0253,-132.8166 597.3084,-132.8166"/>
<polygon fill="#000000" fill-opacity="0.200000" stroke="#000000" stroke-width="2" stroke-opacity="0.200000" points="597.4032,-134.9167 603.4032,-132.8166 597.4032,-130.7167 597.4032,-134.9167"/>
</g>
<!-- src/components/templates/ArchiveYearPage.tsx -->
<g id="node26" class="node">
<title>src/components/templates/ArchiveYearPage.tsx</title>
<g id="a_node26"><a xlink:href="src/components/templates/ArchiveYearPage.tsx" xlink:title="ArchiveYearPage.tsx">
<path fill="#bbfeff" stroke="#000000" d="M137,-505.8166C137,-505.8166 43,-505.8166 43,-505.8166 40,-505.8166 37,-502.8166 37,-499.8166 37,-499.8166 37,-493.8166 37,-493.8166 37,-490.8166 40,-487.8166 43,-487.8166 43,-487.8166 137,-487.8166 137,-487.8166 140,-487.8166 143,-490.8166 143,-493.8166 143,-493.8166 143,-499.8166 143,-499.8166 143,-502.8166 140,-505.8166 137,-505.8166"/>
<text text-anchor="middle" x="90" y="-494.6166" font-family="Helvetica,sans-Serif" font-size="9.00" fill="#000000">ArchiveYearPage.tsx</text>
</a>
</g>
</g>
<!-- src/components/templates/ArchiveYearPage.tsx&#45;&gt;src/components/layout/layout.tsx -->
<g id="edge34" class="edge">
<title>src/components/templates/ArchiveYearPage.tsx&#45;&gt;src/components/layout/layout.tsx</title>
<path fill="none" stroke="#000000" stroke-width="2" stroke-opacity="0.200000" d="M141.7225,-487.7725C146.6728,-486.1087 151.5139,-484.1416 156,-481.8166 164.0552,-477.642 180.7509,-461.9582 192.6314,-450.2737"/>
<polygon fill="#000000" fill-opacity="0.200000" stroke="#000000" stroke-width="2" stroke-opacity="0.200000" points="194.2931,-451.5834 197.0765,-445.8682 191.3366,-448.6003 194.2931,-451.5834"/>
</g>
<!-- src/components/templates/ArchiveYearPage.tsx&#45;&gt;src/components/post&#45;link/post&#45;link.tsx -->
<g id="edge35" class="edge">
<title>src/components/templates/ArchiveYearPage.tsx&#45;&gt;src/components/post&#45;link/post&#45;link.tsx</title>
<path fill="none" stroke="#000000" stroke-width="2" stroke-opacity="0.200000" d="M143.0299,-491.0696C173.9565,-487.6539 213.7065,-483.1539 249,-478.8166 264.9706,-476.854 282.5073,-474.5607 297.8561,-472.5078"/>
<polygon fill="#000000" fill-opacity="0.200000" stroke="#000000" stroke-width="2" stroke-opacity="0.200000" points="298.1767,-474.5837 303.8441,-471.7043 297.618,-470.421 298.1767,-474.5837"/>
</g>
<!-- src/components/templates/ArchiveYearPage.tsx&#45;&gt;src/libs/post.ts -->
<g id="edge33" class="edge">
<title>src/components/templates/ArchiveYearPage.tsx&#45;&gt;src/libs/post.ts</title>
<path fill="none" stroke="#000000" stroke-width="2" stroke-opacity="0.200000" d="M143.2966,-491.4017C148.1181,-489.0514 152.4947,-485.9312 156,-481.8166 165.0254,-471.2226 159.2788,-369.9087 164,-356.8166 185.8038,-296.3538 227.6644,-300.4463 249,-239.8166 255.0929,-222.5025 243.7106,-87.4773 257,-74.8166 270.2738,-62.1708 407.2796,-63.8886 422,-74.8166 438.0308,-86.7175 420.4663,-104.1277 435,-117.8166 443.0048,-125.3562 454.0887,-129.3242 464.7306,-131.3492"/>
<polygon fill="#000000" fill-opacity="0.200000" stroke="#000000" stroke-width="2" stroke-opacity="0.200000" points="464.6641,-133.4647 470.9187,-132.3292 465.3211,-129.3164 464.6641,-133.4647"/>
</g>
<!-- src/components/templates/BlogPost.tsx -->
<g id="node27" class="node">
<title>src/components/templates/BlogPost.tsx</title>
<g id="a_node27"><a xlink:href="src/components/templates/BlogPost.tsx" xlink:title="BlogPost.tsx">
<path fill="#bbfeff" stroke="#000000" d="M119.5,-535.8166C119.5,-535.8166 60.5,-535.8166 60.5,-535.8166 57.5,-535.8166 54.5,-532.8166 54.5,-529.8166 54.5,-529.8166 54.5,-523.8166 54.5,-523.8166 54.5,-520.8166 57.5,-517.8166 60.5,-517.8166 60.5,-517.8166 119.5,-517.8166 119.5,-517.8166 122.5,-517.8166 125.5,-520.8166 125.5,-523.8166 125.5,-523.8166 125.5,-529.8166 125.5,-529.8166 125.5,-532.8166 122.5,-535.8166 119.5,-535.8166"/>
<text text-anchor="middle" x="90" y="-524.6166" font-family="Helvetica,sans-Serif" font-size="9.00" fill="#000000">BlogPost.tsx</text>
</a>
</g>
</g>
<!-- src/components/templates/BlogPost.tsx&#45;&gt;src/components/atoms/MDXComponents.tsx -->
<g id="edge36" class="edge">
<title>src/components/templates/BlogPost.tsx&#45;&gt;src/components/atoms/MDXComponents.tsx</title>
<path fill="none" stroke="#000000" stroke-width="2" stroke-opacity="0.200000" d="M101.2884,-535.8812C127.0666,-556.0051 192.9893,-604.2519 257,-624.8166 315.8825,-643.7339 386.7333,-648.1698 436.3194,-648.5236"/>
<polygon fill="#000000" fill-opacity="0.200000" stroke="#000000" stroke-width="2" stroke-opacity="0.200000" points="436.5545,-650.6244 442.5624,-648.5474 436.5705,-646.4244 436.5545,-650.6244"/>
</g>
<!-- src/components/templates/BlogPost.tsx&#45;&gt;src/components/content/tags.tsx -->
<g id="edge37" class="edge">
<title>src/components/templates/BlogPost.tsx&#45;&gt;src/components/content/tags.tsx</title>
<path fill="none" stroke="#000000" stroke-width="2" stroke-opacity="0.200000" d="M125.7635,-526.2529C163.1889,-523.5323 220.3983,-512.9033 249,-474.8166 260.1271,-459.9995 244.4575,-405.4564 257,-391.8166 269.1987,-378.5507 288.892,-374.6074 305.9787,-374.0723"/>
<polygon fill="#000000" fill-opacity="0.200000" stroke="#000000" stroke-width="2" stroke-opacity="0.200000" points="306.1558,-376.171 312.1372,-374.0185 306.119,-371.9711 306.1558,-376.171"/>
</g>
<!-- src/components/templates/BlogPost.tsx&#45;&gt;src/components/layout/layout.tsx -->
<g id="edge38" class="edge">
<title>src/components/templates/BlogPost.tsx&#45;&gt;src/components/layout/layout.tsx</title>
<path fill="none" stroke="#000000" stroke-width="2" stroke-opacity="0.200000" d="M125.7639,-525.9044C136.7419,-523.8905 148.0185,-519.7882 156,-511.8166 167.2901,-500.5405 156.1096,-490.686 164,-476.8166 169.9377,-466.3796 179.4572,-456.9866 187.933,-449.9297"/>
<polygon fill="#000000" fill-opacity="0.200000" stroke="#000000" stroke-width="2" stroke-opacity="0.200000" points="189.6605,-451.237 193.0342,-445.8492 187.037,-447.9572 189.6605,-451.237"/>
</g>
<!-- src/components/templates/IndividualTagPage.tsx -->
<g id="node28" class="node">
<title>src/components/templates/IndividualTagPage.tsx</title>
<g id="a_node28"><a xlink:href="src/components/templates/IndividualTagPage.tsx" xlink:title="IndividualTagPage.tsx">
<path fill="#bbfeff" stroke="#000000" d="M140.5,-445.8166C140.5,-445.8166 39.5,-445.8166 39.5,-445.8166 36.5,-445.8166 33.5,-442.8166 33.5,-439.8166 33.5,-439.8166 33.5,-433.8166 33.5,-433.8166 33.5,-430.8166 36.5,-427.8166 39.5,-427.8166 39.5,-427.8166 140.5,-427.8166 140.5,-427.8166 143.5,-427.8166 146.5,-430.8166 146.5,-433.8166 146.5,-433.8166 146.5,-439.8166 146.5,-439.8166 146.5,-442.8166 143.5,-445.8166 140.5,-445.8166"/>
<text text-anchor="middle" x="90" y="-434.6166" font-family="Helvetica,sans-Serif" font-size="9.00" fill="#000000">IndividualTagPage.tsx</text>
</a>
</g>
</g>
<!-- src/components/templates/IndividualTagPage.tsx&#45;&gt;src/components/layout/layout.tsx -->
<g id="edge39" class="edge">
<title>src/components/templates/IndividualTagPage.tsx&#45;&gt;src/components/layout/layout.tsx</title>
<path fill="none" stroke="#000000" stroke-width="2" stroke-opacity="0.200000" d="M146.6407,-436.8166C154.2143,-436.8166 161.8188,-436.8166 168.9372,-436.8166"/>
<polygon fill="#000000" fill-opacity="0.200000" stroke="#000000" stroke-width="2" stroke-opacity="0.200000" points="169.3232,-438.9167 175.3232,-436.8166 169.3231,-434.7167 169.3232,-438.9167"/>
</g>
<!-- src/components/templates/IndividualTagPage.tsx&#45;&gt;src/components/organisms/PostList.tsx -->
<g id="edge40" class="edge">
<title>src/components/templates/IndividualTagPage.tsx&#45;&gt;src/components/organisms/PostList.tsx</title>
<path fill="none" stroke="#000000" stroke-width="2" stroke-opacity="0.200000" d="M124.117,-427.7963C134.6407,-424.399 146.067,-420.0614 156,-414.8166 168.8081,-408.0537 181.7874,-398.077 191.3112,-390.0431"/>
<polygon fill="#000000" fill-opacity="0.200000" stroke="#000000" stroke-width="2" stroke-opacity="0.200000" points="192.7783,-391.5511 195.9574,-386.0462 190.0393,-388.3671 192.7783,-391.5511"/>
</g>
<!-- src/components/types/TagsPageProps.d.ts -->
<g id="node29" class="node">
<title>src/components/types/TagsPageProps.d.ts</title>
<g id="a_node29"><a xlink:href="src/components/types/TagsPageProps.d.ts" xlink:title="TagsPageProps.d.ts">
<path fill="#ccffcc" stroke="#000000" d="M135,-385.8166C135,-385.8166 45,-385.8166 45,-385.8166 42,-385.8166 39,-382.8166 39,-379.8166 39,-379.8166 39,-373.8166 39,-373.8166 39,-370.8166 42,-367.8166 45,-367.8166 45,-367.8166 135,-367.8166 135,-367.8166 138,-367.8166 141,-370.8166 141,-373.8166 141,-373.8166 141,-379.8166 141,-379.8166 141,-382.8166 138,-385.8166 135,-385.8166"/>
<text text-anchor="middle" x="90" y="-374.6166" font-family="Helvetica,sans-Serif" font-size="9.00" fill="#000000">TagsPageProps.d.ts</text>
</a>
</g>
</g>
<!-- src/gatsby&#45;node/index.ts -->
<g id="node30" class="node">
<title>src/gatsby&#45;node/index.ts</title>
<g id="a_node30"><a xlink:href="src/gatsby-node/index.ts" xlink:title="index.ts">
<path fill="#ddfeff" stroke="#000000" d="M360.5,-301.8166C360.5,-301.8166 318.5,-301.8166 318.5,-301.8166 315.5,-301.8166 312.5,-298.8166 312.5,-295.8166 312.5,-295.8166 312.5,-289.8166 312.5,-289.8166 312.5,-286.8166 315.5,-283.8166 318.5,-283.8166 318.5,-283.8166 360.5,-283.8166 360.5,-283.8166 363.5,-283.8166 366.5,-286.8166 366.5,-289.8166 366.5,-289.8166 366.5,-295.8166 366.5,-295.8166 366.5,-298.8166 363.5,-301.8166 360.5,-301.8166"/>
<text text-anchor="middle" x="339.5" y="-290.6166" font-family="Helvetica,sans-Serif" font-size="9.00" fill="#000000">index.ts</text>
</a>
</g>
</g>
<!-- src/gatsby&#45;node/index.ts&#45;&gt;src/libs/post.ts -->
<g id="edge41" class="edge">
<title>src/gatsby&#45;node/index.ts&#45;&gt;src/libs/post.ts</title>
<path fill="none" stroke="#000000" stroke-width="2" stroke-opacity="0.200000" d="M366.8072,-290.9835C384.1595,-288.5928 406.2402,-283.1492 422,-270.8166 463.6532,-238.2216 485.7436,-176.1285 494.0589,-147.6995"/>
<polygon fill="#000000" fill-opacity="0.200000" stroke="#000000" stroke-width="2" stroke-opacity="0.200000" points="496.0999,-148.1993 495.7117,-141.8542 492.0583,-147.0565 496.0999,-148.1993"/>
</g>
<!-- src/libs/proto&#45;ext.ts -->
<g id="node31" class="node">
<title>src/libs/proto&#45;ext.ts</title>
<g id="a_node31"><a xlink:href="src/libs/proto-ext.ts" xlink:title="proto&#45;ext.ts">
<path fill="#ccffcc" stroke="#000000" d="M526.5,-111.8166C526.5,-111.8166 469.5,-111.8166 469.5,-111.8166 466.5,-111.8166 463.5,-108.8166 463.5,-105.8166 463.5,-105.8166 463.5,-99.8166 463.5,-99.8166 463.5,-96.8166 466.5,-93.8166 469.5,-93.8166 469.5,-93.8166 526.5,-93.8166 526.5,-93.8166 529.5,-93.8166 532.5,-96.8166 532.5,-99.8166 532.5,-99.8166 532.5,-105.8166 532.5,-105.8166 532.5,-108.8166 529.5,-111.8166 526.5,-111.8166"/>
<text text-anchor="middle" x="498" y="-100.6166" font-family="Helvetica,sans-Serif" font-size="9.00" fill="#000000">proto&#45;ext.ts</text>
</a>
</g>
</g>
<!-- src/libs/react&#45;fcx.d.ts -->
<g id="node32" class="node">
<title>src/libs/react&#45;fcx.d.ts</title>
<g id="a_node32"><a xlink:href="src/libs/react-fcx.d.ts" xlink:title="react&#45;fcx.d.ts">
<path fill="#ccffcc" stroke="#000000" d="M530.5,-81.8166C530.5,-81.8166 465.5,-81.8166 465.5,-81.8166 462.5,-81.8166 459.5,-78.8166 459.5,-75.8166 459.5,-75.8166 459.5,-69.8166 459.5,-69.8166 459.5,-66.8166 462.5,-63.8166 465.5,-63.8166 465.5,-63.8166 530.5,-63.8166 530.5,-63.8166 533.5,-63.8166 536.5,-66.8166 536.5,-69.8166 536.5,-69.8166 536.5,-75.8166 536.5,-75.8166 536.5,-78.8166 533.5,-81.8166 530.5,-81.8166"/>
<text text-anchor="middle" x="498" y="-70.6166" font-family="Helvetica,sans-Serif" font-size="9.00" fill="#000000">react&#45;fcx.d.ts</text>
</a>
</g>
</g>
<!-- src/libs/toc.ts -->
<g id="node33" class="node">
<title>src/libs/toc.ts</title>
<g id="a_node33"><a xlink:href="src/libs/toc.ts" xlink:title="toc.ts">
<path fill="#ccffcc" stroke="#000000" d="M519,-51.8166C519,-51.8166 477,-51.8166 477,-51.8166 474,-51.8166 471,-48.8166 471,-45.8166 471,-45.8166 471,-39.8166 471,-39.8166 471,-36.8166 474,-33.8166 477,-33.8166 477,-33.8166 519,-33.8166 519,-33.8166 522,-33.8166 525,-36.8166 525,-39.8166 525,-39.8166 525,-45.8166 525,-45.8166 525,-48.8166 522,-51.8166 519,-51.8166"/>
<text text-anchor="middle" x="498" y="-40.6166" font-family="Helvetica,sans-Serif" font-size="9.00" fill="#000000">toc.ts</text>
</a>
</g>
</g>
<!-- src/pages/404.tsx -->
<g id="node34" class="node">
<title>src/pages/404.tsx</title>
<g id="a_node34"><a xlink:href="src/pages/404.tsx" xlink:title="404.tsx">
<path fill="#bbfeff" stroke="#000000" d="M111,-317.8166C111,-317.8166 69,-317.8166 69,-317.8166 66,-317.8166 63,-314.8166 63,-311.8166 63,-311.8166 63,-305.8166 63,-305.8166 63,-302.8166 66,-299.8166 69,-299.8166 69,-299.8166 111,-299.8166 111,-299.8166 114,-299.8166 117,-302.8166 117,-305.8166 117,-305.8166 117,-311.8166 117,-311.8166 117,-314.8166 114,-317.8166 111,-317.8166"/>
<text text-anchor="middle" x="90" y="-306.6166" font-family="Helvetica,sans-Serif" font-size="9.00" fill="#000000">404.tsx</text>
</a>
</g>
</g>
<!-- src/pages/404.tsx&#45;&gt;src/components/layout/layout.tsx -->
<g id="edge43" class="edge">
<title>src/pages/404.tsx&#45;&gt;src/components/layout/layout.tsx</title>
<path fill="none" stroke="#000000" stroke-width="2" stroke-opacity="0.200000" d="M110.1988,-317.9575C125.4006,-325.9529 145.3731,-339.0695 156,-356.8166 169.3683,-379.142 149.0359,-393.5278 164,-414.8166 166.7292,-418.6993 170.3594,-421.9491 174.3465,-424.6539"/>
<polygon fill="#000000" fill-opacity="0.200000" stroke="#000000" stroke-width="2" stroke-opacity="0.200000" points="173.325,-426.4903 179.5465,-427.7954 175.4968,-422.8954 173.325,-426.4903"/>
</g>
<!-- src/pages/index.tsx -->
<g id="node35" class="node">
<title>src/pages/index.tsx</title>
<g id="a_node35"><a xlink:href="src/pages/index.tsx" xlink:title="index.tsx">
<path fill="#bbfeff" stroke="#000000" d="M113,-287.8166C113,-287.8166 67,-287.8166 67,-287.8166 64,-287.8166 61,-284.8166 61,-281.8166 61,-281.8166 61,-275.8166 61,-275.8166 61,-272.8166 64,-269.8166 67,-269.8166 67,-269.8166 113,-269.8166 113,-269.8166 116,-269.8166 119,-272.8166 119,-275.8166 119,-275.8166 119,-281.8166 119,-281.8166 119,-284.8166 116,-287.8166 113,-287.8166"/>
<text text-anchor="middle" x="90" y="-276.6166" font-family="Helvetica,sans-Serif" font-size="9.00" fill="#000000">index.tsx</text>
</a>
</g>
</g>
<!-- src/pages/index.tsx&#45;&gt;src/components/layout/layout.tsx -->
<g id="edge44" class="edge">
<title>src/pages/index.tsx&#45;&gt;src/components/layout/layout.tsx</title>
<path fill="none" stroke="#000000" stroke-width="2" stroke-opacity="0.200000" d="M119.0108,-278.0008C132.271,-279.2606 146.997,-283.2714 156,-293.8166 173.4972,-314.311 149.2963,-392.234 164,-414.8166 166.4703,-418.6106 169.8177,-421.7898 173.5514,-424.4433"/>
<polygon fill="#000000" fill-opacity="0.200000" stroke="#000000" stroke-width="2" stroke-opacity="0.200000" points="172.6347,-426.3467 178.8361,-427.7442 174.8598,-422.7845 172.6347,-426.3467"/>
</g>
<!-- src/pages/index.tsx&#45;&gt;src/components/organisms/PostList.tsx -->
<g id="edge45" class="edge">
<title>src/pages/index.tsx&#45;&gt;src/components/organisms/PostList.tsx</title>
<path fill="none" stroke="#000000" stroke-width="2" stroke-opacity="0.200000" d="M119.0321,-280.3958C131.3694,-282.2703 145.3353,-286.1053 156,-293.8166 179.6378,-310.9084 194.1934,-342.9256 201.1255,-361.8077"/>
<polygon fill="#000000" fill-opacity="0.200000" stroke="#000000" stroke-width="2" stroke-opacity="0.200000" points="199.2144,-362.7037 203.1862,-367.6671 203.1765,-361.3102 199.2144,-362.7037"/>
</g>
<!-- src/pages/index.tsx&#45;&gt;src/libs/post.ts -->
<g id="edge46" class="edge">
<title>src/pages/index.tsx&#45;&gt;src/libs/post.ts</title>
<path fill="none" stroke="#000000" stroke-width="2" stroke-opacity="0.200000" d="M119.1177,-278.6731C131.918,-277.1261 146.229,-273.1511 156,-263.8166 165.6677,-254.5808 154.985,-244.6906 164,-234.8166 191.217,-205.0061 225.1643,-235.3941 249,-202.8166 258.9864,-189.1676 244.731,-62.4569 257,-50.8166 283.5999,-25.5799 393.711,-27.489 422,-50.8166 445.4025,-70.1148 414.0074,-95.9212 435,-117.8166 442.7471,-125.8969 453.9973,-129.9609 464.8541,-131.9104"/>
<polygon fill="#000000" fill-opacity="0.200000" stroke="#000000" stroke-width="2" stroke-opacity="0.200000" points="464.5786,-133.9924 470.8204,-132.788 465.1899,-129.8371 464.5786,-133.9924"/>
</g>
<!-- src/pages/tags.tsx -->
<g id="node36" class="node">
<title>src/pages/tags.tsx</title>
<g id="a_node36"><a xlink:href="src/pages/tags.tsx" xlink:title="tags.tsx">
<path fill="#bbfeff" stroke="#000000" d="M111,-257.8166C111,-257.8166 69,-257.8166 69,-257.8166 66,-257.8166 63,-254.8166 63,-251.8166 63,-251.8166 63,-245.8166 63,-245.8166 63,-242.8166 66,-239.8166 69,-239.8166 69,-239.8166 111,-239.8166 111,-239.8166 114,-239.8166 117,-242.8166 117,-245.8166 117,-245.8166 117,-251.8166 117,-251.8166 117,-254.8166 114,-257.8166 111,-257.8166"/>
<text text-anchor="middle" x="90" y="-246.6166" font-family="Helvetica,sans-Serif" font-size="9.00" fill="#000000">tags.tsx</text>
</a>
</g>
</g>
<!-- src/pages/tags.tsx&#45;&gt;src/components/layout/layout.tsx -->
<g id="edge47" class="edge">
<title>src/pages/tags.tsx&#45;&gt;src/components/layout/layout.tsx</title>
<path fill="none" stroke="#000000" stroke-width="2" stroke-opacity="0.200000" d="M117.0584,-247.7803C130.8337,-248.806 146.6119,-252.6735 156,-263.8166 177.6506,-289.5146 145.8498,-386.5376 164,-414.8166 166.4454,-418.6267 169.7786,-421.8151 173.5054,-424.4731"/>
<polygon fill="#000000" fill-opacity="0.200000" stroke="#000000" stroke-width="2" stroke-opacity="0.200000" points="172.5847,-426.3742 178.7848,-427.7774 174.813,-422.814 172.5847,-426.3742"/>
</g>
<!-- src/pages/tags.tsx&#45;&gt;src/components/organisms/PostList.tsx -->
<g id="edge48" class="edge">
<title>src/pages/tags.tsx&#45;&gt;src/components/organisms/PostList.tsx</title>
<path fill="none" stroke="#000000" stroke-width="2" stroke-opacity="0.200000" d="M117.2002,-249.4697C130.185,-251.0621 145.2053,-254.9283 156,-263.8166 186.7092,-289.1025 199.1639,-337.0442 203.697,-361.5544"/>
<polygon fill="#000000" fill-opacity="0.200000" stroke="#000000" stroke-width="2" stroke-opacity="0.200000" points="201.6387,-361.9762 204.7299,-367.531 205.7774,-361.261 201.6387,-361.9762"/>
</g>
<!-- src/pages/tags.tsx&#45;&gt;src/libs/post.ts -->
<g id="edge49" class="edge">
<title>src/pages/tags.tsx&#45;&gt;src/libs/post.ts</title>
<path fill="none" stroke="#000000" stroke-width="2" stroke-opacity="0.200000" d="M114.2928,-239.7325C156.7668,-223.6196 240.8163,-190.6215 249,-178.8166 258.0033,-165.8294 245.5158,-47.6721 257,-36.8166 310.2929,13.5584 366.1879,10.7522 422,-36.8166 449.7493,-60.4674 410.1978,-91.0914 435,-117.8166 442.6147,-126.0217 453.8355,-130.1135 464.7058,-132.0503"/>
<polygon fill="#000000" fill-opacity="0.200000" stroke="#000000" stroke-width="2" stroke-opacity="0.200000" points="464.4443,-134.1343 470.6836,-132.917 465.0471,-129.9777 464.4443,-134.1343"/>
</g>
<!-- src/state/store.ts -->
<g id="node37" class="node">
<title>src/state/store.ts</title>
<g id="a_node37"><a xlink:href="src/state/store.ts" xlink:title="store.ts">
<path fill="#ddfeff" stroke="#000000" d="M111,-149.8166C111,-149.8166 69,-149.8166 69,-149.8166 66,-149.8166 63,-146.8166 63,-143.8166 63,-143.8166 63,-137.8166 63,-137.8166 63,-134.8166 66,-131.8166 69,-131.8166 69,-131.8166 111,-131.8166 111,-131.8166 114,-131.8166 117,-134.8166 117,-137.8166 117,-137.8166 117,-143.8166 117,-143.8166 117,-146.8166 114,-149.8166 111,-149.8166"/>
<text text-anchor="middle" x="90" y="-138.6166" font-family="Helvetica,sans-Serif" font-size="9.00" fill="#000000">store.ts</text>
</a>
</g>
</g>
<!-- src/state/ui/index.ts -->
<g id="node38" class="node">
<title>src/state/ui/index.ts</title>
<g id="a_node38"><a xlink:href="src/state/ui/index.ts" xlink:title="index.ts">
<path fill="#ddfeff" stroke="#000000" d="M227,-149.8166C227,-149.8166 185,-149.8166 185,-149.8166 182,-149.8166 179,-146.8166 179,-143.8166 179,-143.8166 179,-137.8166 179,-137.8166 179,-134.8166 182,-131.8166 185,-131.8166 185,-131.8166 227,-131.8166 227,-131.8166 230,-131.8166 233,-134.8166 233,-137.8166 233,-137.8166 233,-143.8166 233,-143.8166 233,-146.8166 230,-149.8166 227,-149.8166"/>
<text text-anchor="middle" x="206" y="-138.6166" font-family="Helvetica,sans-Serif" font-size="9.00" fill="#000000">index.ts</text>
</a>
</g>
</g>
<!-- src/state/store.ts&#45;&gt;src/state/ui/index.ts -->
<g id="edge50" class="edge">
<title>src/state/store.ts&#45;&gt;src/state/ui/index.ts</title>
<path fill="none" stroke="#000000" stroke-width="2" stroke-opacity="0.200000" d="M117.1968,-144.6969C131.4499,-145.3315 149.1992,-145.4787 165.0748,-145.1386"/>
<polygon fill="#000000" fill-opacity="0.200000" stroke="#000000" stroke-width="2" stroke-opacity="0.200000" points="173.0445,-146.9821 178.9735,-144.6893 172.9088,-142.7843 173.0445,-146.9821"/>
<polyline fill="none" stroke="#000000" stroke-width="2" stroke-opacity="0.200000" points="172.9767,-144.8832 169.9782,-144.9802 "/>
<ellipse fill="none" stroke="#000000" stroke-width="2" stroke-opacity="0.200000" cx="167.5795" cy="-145.0577" rx="2.4" ry="2.4"/>
</g>
<!-- src/state/ui/index.ts&#45;&gt;src/state/store.ts -->
<g id="edge51" class="edge">
<title>src/state/ui/index.ts&#45;&gt;src/state/store.ts</title>
<path fill="none" stroke="#000000" stroke-width="2" stroke-opacity="0.200000" d="M178.9735,-136.9439C164.7484,-136.3055 147.0057,-136.1544 131.1153,-136.4906"/>
<polygon fill="#000000" fill-opacity="0.200000" stroke="#000000" stroke-width="2" stroke-opacity="0.200000" points="123.1265,-134.6453 117.1968,-136.9363 123.261,-138.8432 123.1265,-134.6453"/>
<polyline fill="none" stroke="#000000" stroke-width="2" stroke-opacity="0.200000" points="123.1938,-136.7442 126.1922,-136.6482 "/>
<ellipse fill="none" stroke="#000000" stroke-width="2" stroke-opacity="0.200000" cx="128.591" cy="-136.5713" rx="2.4" ry="2.4"/>
</g>
<!-- src/tests/libs/Post.test.ts -->
<g id="node39" class="node">
<title>src/tests/libs/Post.test.ts</title>
<g id="a_node39"><a xlink:href="src/tests/libs/Post.test.ts" xlink:title="Post.test.ts">
<path fill="#ddfeff" stroke="#000000" d="M367,-125.8166C367,-125.8166 312,-125.8166 312,-125.8166 309,-125.8166 306,-122.8166 306,-119.8166 306,-119.8166 306,-113.8166 306,-113.8166 306,-110.8166 309,-107.8166 312,-107.8166 312,-107.8166 367,-107.8166 367,-107.8166 370,-107.8166 373,-110.8166 373,-113.8166 373,-113.8166 373,-119.8166 373,-119.8166 373,-122.8166 370,-125.8166 367,-125.8166"/>
<text text-anchor="middle" x="339.5" y="-114.6166" font-family="Helvetica,sans-Serif" font-size="9.00" fill="#000000">Post.test.ts</text>
</a>
</g>
</g>
<!-- src/tests/libs/Post.test.ts&#45;&gt;src/libs/post.ts -->
<g id="edge53" class="edge">
<title>src/tests/libs/Post.test.ts&#45;&gt;src/libs/post.ts</title>
<path fill="none" stroke="#000000" stroke-width="2" stroke-opacity="0.200000" d="M373.1138,-120.2098C400.0345,-122.9274 437.6129,-126.7208 464.5028,-129.4352"/>
<polygon fill="#000000" fill-opacity="0.200000" stroke="#000000" stroke-width="2" stroke-opacity="0.200000" points="464.5723,-131.5528 470.7529,-130.0661 464.9942,-127.374 464.5723,-131.5528"/>
</g>
<!-- src/tests/libs/generate_variables.test.ts -->
<g id="node40" class="node">
<title>src/tests/libs/generate_variables.test.ts</title>
<g id="a_node40"><a xlink:href="src/tests/libs/generate_variables.test.ts" xlink:title="generate_variables.test.ts">
<path fill="#ddfeff" stroke="#000000" d="M400,-155.8166C400,-155.8166 279,-155.8166 279,-155.8166 276,-155.8166 273,-152.8166 273,-149.8166 273,-149.8166 273,-143.8166 273,-143.8166 273,-140.8166 276,-137.8166 279,-137.8166 279,-137.8166 400,-137.8166 400,-137.8166 403,-137.8166 406,-140.8166 406,-143.8166 406,-143.8166 406,-149.8166 406,-149.8166 406,-152.8166 403,-155.8166 400,-155.8166"/>
<text text-anchor="middle" x="339.5" y="-144.6166" font-family="Helvetica,sans-Serif" font-size="9.00" fill="#000000">generate_variables.test.ts</text>
</a>
</g>
</g>
<!-- src/tests/libs/generate_variables.test.ts&#45;&gt;src/styles/variables.ts -->
<g id="edge54" class="edge">
<title>src/tests/libs/generate_variables.test.ts&#45;&gt;src/styles/variables.ts</title>
<path fill="none" stroke="#000000" stroke-width="2" stroke-opacity="0.200000" d="M365.0185,-155.9587C384.2436,-162.8323 411.2602,-172.4622 435,-180.8166 492.4348,-201.029 559.4821,-224.2737 598.2581,-237.6827"/>
<polygon fill="#000000" fill-opacity="0.200000" stroke="#000000" stroke-width="2" stroke-opacity="0.200000" points="597.876,-239.7725 604.2329,-239.7483 599.2484,-235.803 597.876,-239.7725"/>
</g>
<!-- src/utils/nage.ts -->
<g id="node41" class="node">
<title>src/utils/nage.ts</title>
<g id="a_node41"><a xlink:href="src/utils/nage.ts" xlink:title="nage.ts">
<path fill="#ccffcc" stroke="#000000" d="M111,-81.8166C111,-81.8166 69,-81.8166 69,-81.8166 66,-81.8166 63,-78.8166 63,-75.8166 63,-75.8166 63,-69.8166 63,-69.8166 63,-66.8166 66,-63.8166 69,-63.8166 69,-63.8166 111,-63.8166 111,-63.8166 114,-63.8166 117,-66.8166 117,-69.8166 117,-69.8166 117,-75.8166 117,-75.8166 117,-78.8166 114,-81.8166 111,-81.8166"/>
<text text-anchor="middle" x="90" y="-70.6166" font-family="Helvetica,sans-Serif" font-size="9.00" fill="#000000">nage.ts</text>
</a>
</g>
</g>
<!-- src/utils/throwIfNully.ts -->
<g id="node42" class="node">
<title>src/utils/throwIfNully.ts</title>
<g id="a_node42"><a xlink:href="src/utils/throwIfNully.ts" xlink:title="throwIfNully.ts">
<path fill="#ccffcc" stroke="#000000" d="M124.5,-51.8166C124.5,-51.8166 55.5,-51.8166 55.5,-51.8166 52.5,-51.8166 49.5,-48.8166 49.5,-45.8166 49.5,-45.8166 49.5,-39.8166 49.5,-39.8166 49.5,-36.8166 52.5,-33.8166 55.5,-33.8166 55.5,-33.8166 124.5,-33.8166 124.5,-33.8166 127.5,-33.8166 130.5,-36.8166 130.5,-39.8166 130.5,-39.8166 130.5,-45.8166 130.5,-45.8166 130.5,-48.8166 127.5,-51.8166 124.5,-51.8166"/>
<text text-anchor="middle" x="90" y="-40.6166" font-family="Helvetica,sans-Serif" font-size="9.00" fill="#000000">throwIfNully.ts</text>
</a>
</g>
</g>
</g>
</svg>
