<?xml version="1.0" encoding="UTF-8" standalone="no"?>
<!DOCTYPE svg PUBLIC "-//W3C//DTD SVG 1.1//EN"
 "http://www.w3.org/Graphics/SVG/1.1/DTD/svg11.dtd">
<!-- Generated by graphviz version 2.43.0 (0)
 -->
<!-- Title: dependency&#45;cruiser output Pages: 1 -->
<svg width="1078pt" height="1113pt"
 viewBox="0.00 0.00 1078.00 1112.56" xmlns="http://www.w3.org/2000/svg" xmlns:xlink="http://www.w3.org/1999/xlink">
<g id="graph0" class="graph" transform="scale(1 1) rotate(0) translate(4 1108.56)">
<title>dependency&#45;cruiser output</title>
<polygon fill="white" stroke="transparent" points="-4,4 -4,-1108.56 1074,-1108.56 1074,4 -4,4"/>
<g id="clust1" class="cluster">
<title>cluster_src</title>
<path fill="#ffffff" stroke="black" stroke-width="2" d="M20,-16.56C20,-16.56 1050,-16.56 1050,-16.56 1056,-16.56 1062,-22.56 1062,-28.56 1062,-28.56 1062,-1084.56 1062,-1084.56 1062,-1090.56 1056,-1096.56 1050,-1096.56 1050,-1096.56 20,-1096.56 20,-1096.56 14,-1096.56 8,-1090.56 8,-1084.56 8,-1084.56 8,-28.56 8,-28.56 8,-22.56 14,-16.56 20,-16.56"/>
<text text-anchor="middle" x="535" y="-1085.36" font-family="Helvetica,sans-Serif" font-weight="bold" font-size="9.00">src</text>
</g>
<g id="clust2" class="cluster">
<title>cluster_src/@types</title>
<path fill="#ffffff" stroke="black" stroke-width="2" d="M43.5,-710.56C43.5,-710.56 121.5,-710.56 121.5,-710.56 127.5,-710.56 133.5,-716.56 133.5,-722.56 133.5,-722.56 133.5,-750.56 133.5,-750.56 133.5,-756.56 127.5,-762.56 121.5,-762.56 121.5,-762.56 43.5,-762.56 43.5,-762.56 37.5,-762.56 31.5,-756.56 31.5,-750.56 31.5,-750.56 31.5,-722.56 31.5,-722.56 31.5,-716.56 37.5,-710.56 43.5,-710.56"/>
<text text-anchor="middle" x="82.5" y="-751.36" font-family="Helvetica,sans-Serif" font-weight="bold" font-size="9.00">@types</text>
</g>
<g id="clust3" class="cluster">
<title>cluster_src/components</title>
<path fill="#ffffff" stroke="black" stroke-width="2" d="M276,-34.56C276,-34.56 847,-34.56 847,-34.56 853,-34.56 859,-40.56 859,-46.56 859,-46.56 859,-498.56 859,-498.56 859,-504.56 853,-510.56 847,-510.56 847,-510.56 276,-510.56 276,-510.56 270,-510.56 264,-504.56 264,-498.56 264,-498.56 264,-46.56 264,-46.56 264,-40.56 270,-34.56 276,-34.56"/>
<text text-anchor="middle" x="561.5" y="-499.36" font-family="Helvetica,sans-Serif" font-weight="bold" font-size="9.00">components</text>
</g>
<g id="clust4" class="cluster">
<title>cluster_src/components/article&#45;elements</title>
<path fill="#ffffff" stroke="black" stroke-width="2" d="M576.5,-42.56C576.5,-42.56 652.5,-42.56 652.5,-42.56 658.5,-42.56 664.5,-48.56 664.5,-54.56 664.5,-54.56 664.5,-82.56 664.5,-82.56 664.5,-88.56 658.5,-94.56 652.5,-94.56 652.5,-94.56 576.5,-94.56 576.5,-94.56 570.5,-94.56 564.5,-88.56 564.5,-82.56 564.5,-82.56 564.5,-54.56 564.5,-54.56 564.5,-48.56 570.5,-42.56 576.5,-42.56"/>
<text text-anchor="middle" x="614.5" y="-83.36" font-family="Helvetica,sans-Serif" font-weight="bold" font-size="9.00">article&#45;elements</text>
</g>
<g id="clust5" class="cluster">
<title>cluster_src/components/article</title>
<path fill="#ffffff" stroke="black" stroke-width="2" d="M296,-432.56C296,-432.56 346,-432.56 346,-432.56 352,-432.56 358,-438.56 358,-444.56 358,-444.56 358,-472.56 358,-472.56 358,-478.56 352,-484.56 346,-484.56 346,-484.56 296,-484.56 296,-484.56 290,-484.56 284,-478.56 284,-472.56 284,-472.56 284,-444.56 284,-444.56 284,-438.56 290,-432.56 296,-432.56"/>
<text text-anchor="middle" x="321" y="-473.36" font-family="Helvetica,sans-Serif" font-weight="bold" font-size="9.00">article</text>
</g>
<g id="clust6" class="cluster">
<title>cluster_src/components/atoms</title>
<path fill="#ffffff" stroke="black" stroke-width="2" d="M744,-42.56C744,-42.56 839,-42.56 839,-42.56 845,-42.56 851,-48.56 851,-54.56 851,-54.56 851,-112.56 851,-112.56 851,-118.56 845,-124.56 839,-124.56 839,-124.56 744,-124.56 744,-124.56 738,-124.56 732,-118.56 732,-112.56 732,-112.56 732,-54.56 732,-54.56 732,-48.56 738,-42.56 744,-42.56"/>
<text text-anchor="middle" x="791.5" y="-113.36" font-family="Helvetica,sans-Serif" font-weight="bold" font-size="9.00">atoms</text>
</g>
<g id="clust7" class="cluster">
<title>cluster_src/components/content</title>
<path fill="#ffffff" stroke="black" stroke-width="2" d="M406,-192.56C406,-192.56 492,-192.56 492,-192.56 498,-192.56 504,-198.56 504,-204.56 504,-204.56 504,-352.56 504,-352.56 504,-358.56 498,-364.56 492,-364.56 492,-364.56 406,-364.56 406,-364.56 400,-364.56 394,-358.56 394,-352.56 394,-352.56 394,-204.56 394,-204.56 394,-198.56 400,-192.56 406,-192.56"/>
<text text-anchor="middle" x="449" y="-353.36" font-family="Helvetica,sans-Serif" font-weight="bold" font-size="9.00">content</text>
</g>
<g id="clust8" class="cluster">
<title>cluster_src/components/embeddeds</title>
<path fill="#ffffff" stroke="black" stroke-width="2" d="M289.5,-372.56C289.5,-372.56 352.5,-372.56 352.5,-372.56 358.5,-372.56 364.5,-378.56 364.5,-384.56 364.5,-384.56 364.5,-412.56 364.5,-412.56 364.5,-418.56 358.5,-424.56 352.5,-424.56 352.5,-424.56 289.5,-424.56 289.5,-424.56 283.5,-424.56 277.5,-418.56 277.5,-412.56 277.5,-412.56 277.5,-384.56 277.5,-384.56 277.5,-378.56 283.5,-372.56 289.5,-372.56"/>
<text text-anchor="middle" x="321" y="-413.36" font-family="Helvetica,sans-Serif" font-weight="bold" font-size="9.00">embeddeds</text>
</g>
<g id="clust9" class="cluster">
<title>cluster_src/components/header</title>
<path fill="#ffffff" stroke="black" stroke-width="2" d="M424,-372.56C424,-372.56 474,-372.56 474,-372.56 480,-372.56 486,-378.56 486,-384.56 486,-384.56 486,-412.56 486,-412.56 486,-418.56 480,-424.56 474,-424.56 474,-424.56 424,-424.56 424,-424.56 418,-424.56 412,-418.56 412,-412.56 412,-412.56 412,-384.56 412,-384.56 412,-378.56 418,-372.56 424,-372.56"/>
<text text-anchor="middle" x="449" y="-413.36" font-family="Helvetica,sans-Serif" font-weight="bold" font-size="9.00">header</text>
</g>
<g id="clust10" class="cluster">
<title>cluster_src/components/layout</title>
<path fill="#ffffff" stroke="black" stroke-width="2" d="M284,-282.56C284,-282.56 358,-282.56 358,-282.56 364,-282.56 370,-288.56 370,-294.56 370,-294.56 370,-352.56 370,-352.56 370,-358.56 364,-364.56 358,-364.56 358,-364.56 284,-364.56 284,-364.56 278,-364.56 272,-358.56 272,-352.56 272,-352.56 272,-294.56 272,-294.56 272,-288.56 278,-282.56 284,-282.56"/>
<text text-anchor="middle" x="321" y="-353.36" font-family="Helvetica,sans-Serif" font-weight="bold" font-size="9.00">layout</text>
</g>
<g id="clust11" class="cluster">
<title>cluster_src/components/post&#45;link</title>
<path fill="#ffffff" stroke="black" stroke-width="2" d="M291,-102.56C291,-102.56 648.5,-102.56 648.5,-102.56 654.5,-102.56 660.5,-108.56 660.5,-114.56 660.5,-114.56 660.5,-172.56 660.5,-172.56 660.5,-178.56 654.5,-184.56 648.5,-184.56 648.5,-184.56 291,-184.56 291,-184.56 285,-184.56 279,-178.56 279,-172.56 279,-172.56 279,-114.56 279,-114.56 279,-108.56 285,-102.56 291,-102.56"/>
<text text-anchor="middle" x="469.75" y="-173.36" font-family="Helvetica,sans-Serif" font-weight="bold" font-size="9.00">post&#45;link</text>
</g>
<g id="clust12" class="cluster">
<title>cluster_src/components/table&#45;of&#45;contents</title>
<path fill="#ffffff" stroke="black" stroke-width="2" d="M409,-432.56C409,-432.56 490,-432.56 490,-432.56 496,-432.56 502,-438.56 502,-444.56 502,-444.56 502,-472.56 502,-472.56 502,-478.56 496,-484.56 490,-484.56 490,-484.56 409,-484.56 409,-484.56 403,-484.56 397,-478.56 397,-472.56 397,-472.56 397,-444.56 397,-444.56 397,-438.56 403,-432.56 409,-432.56"/>
<text text-anchor="middle" x="449.5" y="-473.36" font-family="Helvetica,sans-Serif" font-weight="bold" font-size="9.00">table&#45;of&#45;contents</text>
</g>
<g id="clust13" class="cluster">
<title>cluster_src/components/theme&#45;switcher</title>
<path fill="#ffffff" stroke="black" stroke-width="2" d="M578.5,-383.56C578.5,-383.56 651.5,-383.56 651.5,-383.56 657.5,-383.56 663.5,-389.56 663.5,-395.56 663.5,-395.56 663.5,-423.56 663.5,-423.56 663.5,-429.56 657.5,-435.56 651.5,-435.56 651.5,-435.56 578.5,-435.56 578.5,-435.56 572.5,-435.56 566.5,-429.56 566.5,-423.56 566.5,-423.56 566.5,-395.56 566.5,-395.56 566.5,-389.56 572.5,-383.56 578.5,-383.56"/>
<text text-anchor="middle" x="615" y="-424.36" font-family="Helvetica,sans-Serif" font-weight="bold" font-size="9.00">theme&#45;switcher</text>
</g>
<g id="clust14" class="cluster">
<title>cluster_src/gatsby</title>
<path fill="#ffffff" stroke="black" stroke-width="2" d="M387,-738.56C387,-738.56 699,-738.56 699,-738.56 705,-738.56 711,-744.56 711,-750.56 711,-750.56 711,-924.56 711,-924.56 711,-930.56 705,-936.56 699,-936.56 699,-936.56 387,-936.56 387,-936.56 381,-936.56 375,-930.56 375,-924.56 375,-924.56 375,-750.56 375,-750.56 375,-744.56 381,-738.56 387,-738.56"/>
<text text-anchor="middle" x="543" y="-925.36" font-family="Helvetica,sans-Serif" font-weight="bold" font-size="9.00">gatsby</text>
</g>
<g id="clust15" class="cluster">
<title>cluster_src/gatsby/browser</title>
<path fill="#ffffff" stroke="black" stroke-width="2" d="M395,-772.56C395,-772.56 503,-772.56 503,-772.56 509,-772.56 515,-778.56 515,-784.56 515,-784.56 515,-812.56 515,-812.56 515,-818.56 509,-824.56 503,-824.56 503,-824.56 395,-824.56 395,-824.56 389,-824.56 383,-818.56 383,-812.56 383,-812.56 383,-784.56 383,-784.56 383,-778.56 389,-772.56 395,-772.56"/>
<text text-anchor="middle" x="449" y="-813.36" font-family="Helvetica,sans-Serif" font-weight="bold" font-size="9.00">browser</text>
</g>
<g id="clust16" class="cluster">
<title>cluster_src/gatsby/node</title>
<path fill="#ffffff" stroke="black" stroke-width="2" d="M538,-828.56C538,-828.56 691,-828.56 691,-828.56 697,-828.56 703,-834.56 703,-840.56 703,-840.56 703,-898.56 703,-898.56 703,-904.56 697,-910.56 691,-910.56 691,-910.56 538,-910.56 538,-910.56 532,-910.56 526,-904.56 526,-898.56 526,-898.56 526,-840.56 526,-840.56 526,-834.56 532,-828.56 538,-828.56"/>
<text text-anchor="middle" x="614.5" y="-899.36" font-family="Helvetica,sans-Serif" font-weight="bold" font-size="9.00">node</text>
</g>
<g id="clust17" class="cluster">
<title>cluster_src/hooks</title>
<path fill="#ffffff" stroke="black" stroke-width="2" d="M731,-518.56C731,-518.56 852,-518.56 852,-518.56 858,-518.56 864,-524.56 864,-530.56 864,-530.56 864,-588.56 864,-588.56 864,-594.56 858,-600.56 852,-600.56 852,-600.56 731,-600.56 731,-600.56 725,-600.56 719,-594.56 719,-588.56 719,-588.56 719,-530.56 719,-530.56 719,-524.56 725,-518.56 731,-518.56"/>
<text text-anchor="middle" x="791.5" y="-589.36" font-family="Helvetica,sans-Serif" font-weight="bold" font-size="9.00">hooks</text>
</g>
<g id="clust18" class="cluster">
<title>cluster_src/libs</title>
<path fill="#ffffff" stroke="black" stroke-width="2" d="M755.5,-752.56C755.5,-752.56 1042,-752.56 1042,-752.56 1048,-752.56 1054,-758.56 1054,-764.56 1054,-764.56 1054,-1058.56 1054,-1058.56 1054,-1064.56 1048,-1070.56 1042,-1070.56 1042,-1070.56 755.5,-1070.56 755.5,-1070.56 749.5,-1070.56 743.5,-1064.56 743.5,-1058.56 743.5,-1058.56 743.5,-764.56 743.5,-764.56 743.5,-758.56 749.5,-752.56 755.5,-752.56"/>
<text text-anchor="middle" x="898.75" y="-1059.36" font-family="Helvetica,sans-Serif" font-weight="bold" font-size="9.00">libs</text>
</g>
<g id="clust19" class="cluster">
<title>cluster_src/libs/styleFn</title>
<path fill="#ffffff" stroke="black" stroke-width="2" d="M767,-876.56C767,-876.56 956.5,-876.56 956.5,-876.56 962.5,-876.56 968.5,-882.56 968.5,-888.56 968.5,-888.56 968.5,-1006.56 968.5,-1006.56 968.5,-1012.56 962.5,-1018.56 956.5,-1018.56 956.5,-1018.56 767,-1018.56 767,-1018.56 761,-1018.56 755,-1012.56 755,-1006.56 755,-1006.56 755,-888.56 755,-888.56 755,-882.56 761,-876.56 767,-876.56"/>
<text text-anchor="middle" x="861.75" y="-1007.36" font-family="Helvetica,sans-Serif" font-weight="bold" font-size="9.00">styleFn</text>
</g>
<g id="clust20" class="cluster">
<title>cluster_src/pages</title>
<path fill="#ffffff" stroke="black" stroke-width="2" d="M57.5,-282.56C57.5,-282.56 107.5,-282.56 107.5,-282.56 113.5,-282.56 119.5,-288.56 119.5,-294.56 119.5,-294.56 119.5,-382.56 119.5,-382.56 119.5,-388.56 113.5,-394.56 107.5,-394.56 107.5,-394.56 57.5,-394.56 57.5,-394.56 51.5,-394.56 45.5,-388.56 45.5,-382.56 45.5,-382.56 45.5,-294.56 45.5,-294.56 45.5,-288.56 51.5,-282.56 57.5,-282.56"/>
<text text-anchor="middle" x="82.5" y="-383.36" font-family="Helvetica,sans-Serif" font-weight="bold" font-size="9.00">pages</text>
</g>
<g id="clust21" class="cluster">
<title>cluster_src/styles</title>
<path fill="#ffffff" stroke="black" stroke-width="2" d="M552,-608.56C552,-608.56 821.5,-608.56 821.5,-608.56 827.5,-608.56 833.5,-614.56 833.5,-620.56 833.5,-620.56 833.5,-708.56 833.5,-708.56 833.5,-714.56 827.5,-720.56 821.5,-720.56 821.5,-720.56 552,-720.56 552,-720.56 546,-720.56 540,-714.56 540,-708.56 540,-708.56 540,-620.56 540,-620.56 540,-614.56 546,-608.56 552,-608.56"/>
<text text-anchor="middle" x="686.75" y="-709.36" font-family="Helvetica,sans-Serif" font-weight="bold" font-size="9.00">styles</text>
</g>
<g id="clust22" class="cluster">
<title>cluster_src/templates</title>
<path fill="#ffffff" stroke="black" stroke-width="2" d="M28,-59.56C28,-59.56 244,-59.56 244,-59.56 250,-59.56 256,-65.56 256,-71.56 256,-71.56 256,-189.56 256,-189.56 256,-195.56 250,-201.56 244,-201.56 244,-201.56 28,-201.56 28,-201.56 22,-201.56 16,-195.56 16,-189.56 16,-189.56 16,-71.56 16,-71.56 16,-65.56 22,-59.56 28,-59.56"/>
<text text-anchor="middle" x="136" y="-190.36" font-family="Helvetica,sans-Serif" font-weight="bold" font-size="9.00">templates</text>
</g>
<g id="clust23" class="cluster">
<title>cluster_src/utils</title>
<path fill="#ffffff" stroke="black" stroke-width="2" d="M884,-575.56C884,-575.56 1042,-575.56 1042,-575.56 1048,-575.56 1054,-581.56 1054,-587.56 1054,-587.56 1054,-645.56 1054,-645.56 1054,-651.56 1048,-657.56 1042,-657.56 1042,-657.56 884,-657.56 884,-657.56 878,-657.56 872,-651.56 872,-645.56 872,-645.56 872,-587.56 872,-587.56 872,-581.56 878,-575.56 884,-575.56"/>
<text text-anchor="middle" x="963" y="-646.36" font-family="Helvetica,sans-Serif" font-weight="bold" font-size="9.00">utils</text>
</g>
<!-- src/@types/tailwindcss.d.ts -->
<g id="node1" class="node">
<title>src/@types/tailwindcss.d.ts</title>
<g id="a_node1"><a xlink:href="src/@types/tailwindcss.d.ts" xlink:title="tailwindcss.d.ts">
<path fill="#ccffcc" stroke="black" d="M119.5,-736.56C119.5,-736.56 45.5,-736.56 45.5,-736.56 42.5,-736.56 39.5,-733.56 39.5,-730.56 39.5,-730.56 39.5,-724.56 39.5,-724.56 39.5,-721.56 42.5,-718.56 45.5,-718.56 45.5,-718.56 119.5,-718.56 119.5,-718.56 122.5,-718.56 125.5,-721.56 125.5,-724.56 125.5,-724.56 125.5,-730.56 125.5,-730.56 125.5,-733.56 122.5,-736.56 119.5,-736.56"/>
<text text-anchor="middle" x="82.5" y="-725.36" font-family="Helvetica,sans-Serif" font-size="9.00">tailwindcss.d.ts</text>
</a>
</g>
</g>
<!-- src/components/article&#45;elements/index.tsx -->
<g id="node2" class="node">
<title>src/components/article&#45;elements/index.tsx</title>
<g id="a_node2"><a xlink:href="src/components/article-elements/index.tsx" xlink:title="index.tsx">
<path fill="#bbfeff" stroke="black" d="M637.5,-68.56C637.5,-68.56 591.5,-68.56 591.5,-68.56 588.5,-68.56 585.5,-65.56 585.5,-62.56 585.5,-62.56 585.5,-56.56 585.5,-56.56 585.5,-53.56 588.5,-50.56 591.5,-50.56 591.5,-50.56 637.5,-50.56 637.5,-50.56 640.5,-50.56 643.5,-53.56 643.5,-56.56 643.5,-56.56 643.5,-62.56 643.5,-62.56 643.5,-65.56 640.5,-68.56 637.5,-68.56"/>
<text text-anchor="middle" x="614.5" y="-57.36" font-family="Helvetica,sans-Serif" font-size="9.00">index.tsx</text>
</a>
</g>
</g>
<!-- src/components/atoms/anchor&#45;or&#45;link.tsx -->
<g id="node3" class="node">
<title>src/components/atoms/anchor&#45;or&#45;link.tsx</title>
<g id="a_node3"><a xlink:href="src/components/atoms/anchor-or-link.tsx" xlink:title="anchor&#45;or&#45;link.tsx">
<path fill="#bbfeff" stroke="black" d="M833,-98.56C833,-98.56 750,-98.56 750,-98.56 747,-98.56 744,-95.56 744,-92.56 744,-92.56 744,-86.56 744,-86.56 744,-83.56 747,-80.56 750,-80.56 750,-80.56 833,-80.56 833,-80.56 836,-80.56 839,-83.56 839,-86.56 839,-86.56 839,-92.56 839,-92.56 839,-95.56 836,-98.56 833,-98.56"/>
<text text-anchor="middle" x="791.5" y="-87.36" font-family="Helvetica,sans-Serif" font-size="9.00">anchor&#45;or&#45;link.tsx</text>
</a>
</g>
</g>
<!-- src/components/article&#45;elements/index.tsx&#45;&gt;src/components/atoms/anchor&#45;or&#45;link.tsx -->
<g id="edge1" class="edge">
<title>src/components/article&#45;elements/index.tsx&#45;&gt;src/components/atoms/anchor&#45;or&#45;link.tsx</title>
<path fill="none" stroke="#000000" stroke-width="2" stroke-opacity="0.200000" d="M643.62,-64.38C668.89,-68.71 706.67,-75.19 737.59,-80.49"/>
<polygon fill="#000000" fill-opacity="0.200000" stroke="#000000" stroke-width="2" stroke-opacity="0.200000" points="737.41,-82.59 743.68,-81.53 738.12,-78.45 737.41,-82.59"/>
</g>
<!-- src/components/atoms/autolink&#45;header.tsx -->
<g id="node4" class="node">
<title>src/components/atoms/autolink&#45;header.tsx</title>
<g id="a_node4"><a xlink:href="src/components/atoms/autolink-header.tsx" xlink:title="autolink&#45;header.tsx">
<path fill="#bbfeff" stroke="black" d="M837,-68.56C837,-68.56 746,-68.56 746,-68.56 743,-68.56 740,-65.56 740,-62.56 740,-62.56 740,-56.56 740,-56.56 740,-53.56 743,-50.56 746,-50.56 746,-50.56 837,-50.56 837,-50.56 840,-50.56 843,-53.56 843,-56.56 843,-56.56 843,-62.56 843,-62.56 843,-65.56 840,-68.56 837,-68.56"/>
<text text-anchor="middle" x="791.5" y="-57.36" font-family="Helvetica,sans-Serif" font-size="9.00">autolink&#45;header.tsx</text>
</a>
</g>
</g>
<!-- src/components/article&#45;elements/index.tsx&#45;&gt;src/components/atoms/autolink&#45;header.tsx -->
<g id="edge2" class="edge">
<title>src/components/article&#45;elements/index.tsx&#45;&gt;src/components/atoms/autolink&#45;header.tsx</title>
<path fill="none" stroke="#000000" stroke-width="2" stroke-opacity="0.200000" d="M643.62,-59.56C667.79,-59.56 703.41,-59.56 733.53,-59.56"/>
<polygon fill="#000000" fill-opacity="0.200000" stroke="#000000" stroke-width="2" stroke-opacity="0.200000" points="733.86,-61.66 739.86,-59.56 733.86,-57.46 733.86,-61.66"/>
</g>
<!-- src/components/article/index.tsx -->
<g id="node5" class="node">
<title>src/components/article/index.tsx</title>
<g id="a_node5"><a xlink:href="src/components/article/index.tsx" xlink:title="index.tsx">
<path fill="#bbfeff" stroke="black" d="M344,-458.56C344,-458.56 298,-458.56 298,-458.56 295,-458.56 292,-455.56 292,-452.56 292,-452.56 292,-446.56 292,-446.56 292,-443.56 295,-440.56 298,-440.56 298,-440.56 344,-440.56 344,-440.56 347,-440.56 350,-443.56 350,-446.56 350,-446.56 350,-452.56 350,-452.56 350,-455.56 347,-458.56 344,-458.56"/>
<text text-anchor="middle" x="321" y="-447.36" font-family="Helvetica,sans-Serif" font-size="9.00">index.tsx</text>
</a>
</g>
</g>
<!-- src/components/content/article&#45;styles.ts -->
<g id="node6" class="node">
<title>src/components/content/article&#45;styles.ts</title>
<g id="a_node6"><a xlink:href="src/components/content/article-styles.ts" xlink:title="article&#45;styles.ts">
<path fill="#ddfeff" stroke="black" d="M485,-278.56C485,-278.56 413,-278.56 413,-278.56 410,-278.56 407,-275.56 407,-272.56 407,-272.56 407,-266.56 407,-266.56 407,-263.56 410,-260.56 413,-260.56 413,-260.56 485,-260.56 485,-260.56 488,-260.56 491,-263.56 491,-266.56 491,-266.56 491,-272.56 491,-272.56 491,-275.56 488,-278.56 485,-278.56"/>
<text text-anchor="middle" x="449" y="-267.36" font-family="Helvetica,sans-Serif" font-size="9.00">article&#45;styles.ts</text>
</a>
</g>
</g>
<!-- src/components/article/index.tsx&#45;&gt;src/components/content/article&#45;styles.ts -->
<g id="edge3" class="edge">
<title>src/components/article/index.tsx&#45;&gt;src/components/content/article&#45;styles.ts</title>
<path fill="none" stroke="#000000" stroke-width="2" stroke-opacity="0.200000" d="M350.1,-442.68C357.81,-439.39 365.32,-434.58 370,-427.56 378.82,-414.33 364.74,-296.71 375,-284.56 381.5,-276.87 390.8,-272.47 400.59,-270.07"/>
<polygon fill="#000000" fill-opacity="0.200000" stroke="#000000" stroke-width="2" stroke-opacity="0.200000" points="401.27,-272.07 406.73,-268.82 400.43,-267.96 401.27,-272.07"/>
</g>
<!-- src/components/content/article&#45;styles.ts&#45;&gt;src/components/article&#45;elements/index.tsx -->
<g id="edge4" class="edge">
<title>src/components/content/article&#45;styles.ts&#45;&gt;src/components/article&#45;elements/index.tsx</title>
<path fill="none" stroke="#000000" stroke-width="2" stroke-opacity="0.200000" d="M491.05,-268.11C500.16,-265.81 508.9,-261.69 515,-254.56 537.44,-228.32 506.32,-127.94 526,-99.56 538.23,-81.93 560.22,-71.92 579.1,-66.32"/>
<polygon fill="#000000" fill-opacity="0.200000" stroke="#000000" stroke-width="2" stroke-opacity="0.200000" points="580.14,-68.21 585.36,-64.59 579.02,-64.17 580.14,-68.21"/>
</g>
<!-- src/components/content/breadcrumbs.tsx -->
<g id="node7" class="node">
<title>src/components/content/breadcrumbs.tsx</title>
<g id="a_node7"><a xlink:href="src/components/content/breadcrumbs.tsx" xlink:title="breadcrumbs.tsx">
<path fill="#bbfeff" stroke="black" d="M490,-338.56C490,-338.56 408,-338.56 408,-338.56 405,-338.56 402,-335.56 402,-332.56 402,-332.56 402,-326.56 402,-326.56 402,-323.56 405,-320.56 408,-320.56 408,-320.56 490,-320.56 490,-320.56 493,-320.56 496,-323.56 496,-326.56 496,-326.56 496,-332.56 496,-332.56 496,-335.56 493,-338.56 490,-338.56"/>
<text text-anchor="middle" x="449" y="-327.36" font-family="Helvetica,sans-Serif" font-size="9.00">breadcrumbs.tsx</text>
</a>
</g>
</g>
<!-- src/styles/styles.ts -->
<g id="node8" class="node">
<title>src/styles/styles.ts</title>
<g id="a_node8"><a xlink:href="src/styles/styles.ts" xlink:title="styles.ts">
<path fill="#ddfeff" stroke="black" d="M812.5,-634.56C812.5,-634.56 770.5,-634.56 770.5,-634.56 767.5,-634.56 764.5,-631.56 764.5,-628.56 764.5,-628.56 764.5,-622.56 764.5,-622.56 764.5,-619.56 767.5,-616.56 770.5,-616.56 770.5,-616.56 812.5,-616.56 812.5,-616.56 815.5,-616.56 818.5,-619.56 818.5,-622.56 818.5,-622.56 818.5,-628.56 818.5,-628.56 818.5,-631.56 815.5,-634.56 812.5,-634.56"/>
<text text-anchor="middle" x="791.5" y="-623.36" font-family="Helvetica,sans-Serif" font-size="9.00">styles.ts</text>
</a>
</g>
</g>
<!-- src/components/content/breadcrumbs.tsx&#45;&gt;src/styles/styles.ts -->
<g id="edge5" class="edge">
<title>src/components/content/breadcrumbs.tsx&#45;&gt;src/styles/styles.ts</title>
<path fill="none" stroke="#000000" stroke-width="2" stroke-opacity="0.200000" d="M475.99,-338.63C490.07,-344.99 506.32,-354.99 515,-369.56 537.77,-407.81 497.03,-535.76 526,-569.56 529.81,-574.01 688.28,-605.53 758.07,-619.23"/>
<polygon fill="#000000" fill-opacity="0.200000" stroke="#000000" stroke-width="2" stroke-opacity="0.200000" points="757.85,-621.32 764.14,-620.42 758.66,-617.2 757.85,-621.32"/>
</g>
<!-- src/components/content/footer.tsx -->
<g id="node9" class="node">
<title>src/components/content/footer.tsx</title>
<g id="a_node9"><a xlink:href="src/components/content/footer.tsx" xlink:title="footer.tsx">
<path fill="#bbfeff" stroke="black" d="M472.5,-308.56C472.5,-308.56 425.5,-308.56 425.5,-308.56 422.5,-308.56 419.5,-305.56 419.5,-302.56 419.5,-302.56 419.5,-296.56 419.5,-296.56 419.5,-293.56 422.5,-290.56 425.5,-290.56 425.5,-290.56 472.5,-290.56 472.5,-290.56 475.5,-290.56 478.5,-293.56 478.5,-296.56 478.5,-296.56 478.5,-302.56 478.5,-302.56 478.5,-305.56 475.5,-308.56 472.5,-308.56"/>
<text text-anchor="middle" x="449" y="-297.36" font-family="Helvetica,sans-Serif" font-size="9.00">footer.tsx</text>
</a>
</g>
</g>
<!-- src/hooks/use&#45;site.ts -->
<g id="node10" class="node">
<title>src/hooks/use&#45;site.ts</title>
<g id="a_node10"><a xlink:href="src/hooks/use-site.ts" xlink:title="use&#45;site.ts">
<path fill="#ddfeff" stroke="black" d="M816.5,-544.56C816.5,-544.56 766.5,-544.56 766.5,-544.56 763.5,-544.56 760.5,-541.56 760.5,-538.56 760.5,-538.56 760.5,-532.56 760.5,-532.56 760.5,-529.56 763.5,-526.56 766.5,-526.56 766.5,-526.56 816.5,-526.56 816.5,-526.56 819.5,-526.56 822.5,-529.56 822.5,-532.56 822.5,-532.56 822.5,-538.56 822.5,-538.56 822.5,-541.56 819.5,-544.56 816.5,-544.56"/>
<text text-anchor="middle" x="791.5" y="-533.36" font-family="Helvetica,sans-Serif" font-size="9.00">use&#45;site.ts</text>
</a>
</g>
</g>
<!-- src/components/content/footer.tsx&#45;&gt;src/hooks/use&#45;site.ts -->
<g id="edge6" class="edge">
<title>src/components/content/footer.tsx&#45;&gt;src/hooks/use&#45;site.ts</title>
<path fill="none" stroke="#000000" stroke-width="2" stroke-opacity="0.200000" d="M478.81,-298.99C491.76,-300.33 506.1,-304.34 515,-314.56 533.16,-335.43 507.69,-417.82 526,-438.56 581.67,-501.63 634.1,-444.45 711,-478.56 735.83,-489.57 760.66,-509.07 775.8,-522.16"/>
<polygon fill="#000000" fill-opacity="0.200000" stroke="#000000" stroke-width="2" stroke-opacity="0.200000" points="774.66,-523.94 780.55,-526.33 777.43,-520.79 774.66,-523.94"/>
</g>
<!-- src/utils/asserts&#45;non&#45;null.ts -->
<g id="node32" class="node">
<title>src/utils/asserts&#45;non&#45;null.ts</title>
<g id="a_node32"><a xlink:href="src/utils/asserts-non-null.ts" xlink:title="asserts&#45;non&#45;null.ts">
<path fill="#ddfeff" stroke="black" d="M973,-631.56C973,-631.56 886,-631.56 886,-631.56 883,-631.56 880,-628.56 880,-625.56 880,-625.56 880,-619.56 880,-619.56 880,-616.56 883,-613.56 886,-613.56 886,-613.56 973,-613.56 973,-613.56 976,-613.56 979,-616.56 979,-619.56 979,-619.56 979,-625.56 979,-625.56 979,-628.56 976,-631.56 973,-631.56"/>
<text text-anchor="middle" x="929.5" y="-620.36" font-family="Helvetica,sans-Serif" font-size="9.00">asserts&#45;non&#45;null.ts</text>
</a>
</g>
</g>
<!-- src/hooks/use&#45;site.ts&#45;&gt;src/utils/asserts&#45;non&#45;null.ts -->
<g id="edge29" class="edge">
<title>src/hooks/use&#45;site.ts&#45;&gt;src/utils/asserts&#45;non&#45;null.ts</title>
<path fill="none" stroke="#000000" stroke-width="2" stroke-opacity="0.200000" d="M822.8,-534.35C837.25,-535.45 853.61,-539.44 864,-550.56 881.47,-569.25 855.03,-588.42 872,-607.56 872.86,-608.53 873.77,-609.44 874.73,-610.29"/>
<polygon fill="#000000" fill-opacity="0.200000" stroke="#000000" stroke-width="2" stroke-opacity="0.200000" points="873.82,-612.23 879.89,-614.11 876.32,-608.85 873.82,-612.23"/>
</g>
<!-- src/components/content/header.tsx -->
<g id="node11" class="node">
<title>src/components/content/header.tsx</title>
<g id="a_node11"><a xlink:href="src/components/content/header.tsx" xlink:title="header.tsx">
<path fill="#bbfeff" stroke="black" d="M475,-248.56C475,-248.56 423,-248.56 423,-248.56 420,-248.56 417,-245.56 417,-242.56 417,-242.56 417,-236.56 417,-236.56 417,-233.56 420,-230.56 423,-230.56 423,-230.56 475,-230.56 475,-230.56 478,-230.56 481,-233.56 481,-236.56 481,-236.56 481,-242.56 481,-242.56 481,-245.56 478,-248.56 475,-248.56"/>
<text text-anchor="middle" x="449" y="-237.36" font-family="Helvetica,sans-Serif" font-size="9.00">header.tsx</text>
</a>
</g>
</g>
<!-- src/components/content/tags.tsx -->
<g id="node12" class="node">
<title>src/components/content/tags.tsx</title>
<g id="a_node12"><a xlink:href="src/components/content/tags.tsx" xlink:title="tags.tsx">
<path fill="#bbfeff" stroke="black" d="M470,-218.56C470,-218.56 428,-218.56 428,-218.56 425,-218.56 422,-215.56 422,-212.56 422,-212.56 422,-206.56 422,-206.56 422,-203.56 425,-200.56 428,-200.56 428,-200.56 470,-200.56 470,-200.56 473,-200.56 476,-203.56 476,-206.56 476,-206.56 476,-212.56 476,-212.56 476,-215.56 473,-218.56 470,-218.56"/>
<text text-anchor="middle" x="449" y="-207.36" font-family="Helvetica,sans-Serif" font-size="9.00">tags.tsx</text>
</a>
</g>
</g>
<!-- src/components/embeddeds/niconico.tsx -->
<g id="node13" class="node">
<title>src/components/embeddeds/niconico.tsx</title>
<g id="a_node13"><a xlink:href="src/components/embeddeds/niconico.tsx" xlink:title="niconico.tsx">
<path fill="#ccffcc" stroke="black" d="M350.5,-398.56C350.5,-398.56 291.5,-398.56 291.5,-398.56 288.5,-398.56 285.5,-395.56 285.5,-392.56 285.5,-392.56 285.5,-386.56 285.5,-386.56 285.5,-383.56 288.5,-380.56 291.5,-380.56 291.5,-380.56 350.5,-380.56 350.5,-380.56 353.5,-380.56 356.5,-383.56 356.5,-386.56 356.5,-386.56 356.5,-392.56 356.5,-392.56 356.5,-395.56 353.5,-398.56 350.5,-398.56"/>
<text text-anchor="middle" x="321" y="-387.36" font-family="Helvetica,sans-Serif" font-size="9.00">niconico.tsx</text>
</a>
</g>
</g>
<!-- src/components/header/index.tsx -->
<g id="node14" class="node">
<title>src/components/header/index.tsx</title>
<g id="a_node14"><a xlink:href="src/components/header/index.tsx" xlink:title="index.tsx">
<path fill="#bbfeff" stroke="black" d="M472,-398.56C472,-398.56 426,-398.56 426,-398.56 423,-398.56 420,-395.56 420,-392.56 420,-392.56 420,-386.56 420,-386.56 420,-383.56 423,-380.56 426,-380.56 426,-380.56 472,-380.56 472,-380.56 475,-380.56 478,-383.56 478,-386.56 478,-386.56 478,-392.56 478,-392.56 478,-395.56 475,-398.56 472,-398.56"/>
<text text-anchor="middle" x="449" y="-387.36" font-family="Helvetica,sans-Serif" font-size="9.00">index.tsx</text>
</a>
</g>
</g>
<!-- src/components/header/index.tsx&#45;&gt;src/components/atoms/anchor&#45;or&#45;link.tsx -->
<g id="edge9" class="edge">
<title>src/components/header/index.tsx&#45;&gt;src/components/atoms/anchor&#45;or&#45;link.tsx</title>
<path fill="none" stroke="#000000" stroke-width="2" stroke-opacity="0.200000" d="M478.31,-382.77C490.14,-379.24 503.72,-374.24 515,-367.56 616.77,-307.3 629.97,-273.72 711,-187.56 737.62,-159.26 765.5,-123.15 780.13,-103.62"/>
<polygon fill="#000000" fill-opacity="0.200000" stroke="#000000" stroke-width="2" stroke-opacity="0.200000" points="781.99,-104.64 783.89,-98.57 778.62,-102.13 781.99,-104.64"/>
</g>
<!-- src/components/header/index.tsx&#45;&gt;src/hooks/use&#45;site.ts -->
<g id="edge7" class="edge">
<title>src/components/header/index.tsx&#45;&gt;src/hooks/use&#45;site.ts</title>
<path fill="none" stroke="#000000" stroke-width="2" stroke-opacity="0.200000" d="M473.8,-398.62C487.84,-405.16 504.81,-415.35 515,-429.56 527.76,-447.35 510.45,-462.16 526,-477.56 542.21,-493.62 685.95,-518.68 754.47,-529.85"/>
<polygon fill="#000000" fill-opacity="0.200000" stroke="#000000" stroke-width="2" stroke-opacity="0.200000" points="754.21,-531.94 760.46,-530.82 754.88,-527.79 754.21,-531.94"/>
</g>
<!-- src/styles/theme.tsx -->
<g id="node15" class="node">
<title>src/styles/theme.tsx</title>
<g id="a_node15"><a xlink:href="src/styles/theme.tsx" xlink:title="theme.tsx">
<path fill="#bbfeff" stroke="black" d="M639.5,-664.56C639.5,-664.56 589.5,-664.56 589.5,-664.56 586.5,-664.56 583.5,-661.56 583.5,-658.56 583.5,-658.56 583.5,-652.56 583.5,-652.56 583.5,-649.56 586.5,-646.56 589.5,-646.56 589.5,-646.56 639.5,-646.56 639.5,-646.56 642.5,-646.56 645.5,-649.56 645.5,-652.56 645.5,-652.56 645.5,-658.56 645.5,-658.56 645.5,-661.56 642.5,-664.56 639.5,-664.56"/>
<text text-anchor="middle" x="614.5" y="-653.36" font-family="Helvetica,sans-Serif" font-size="9.00">theme.tsx</text>
</a>
</g>
</g>
<!-- src/components/header/index.tsx&#45;&gt;src/styles/theme.tsx -->
<g id="edge8" class="edge">
<title>src/components/header/index.tsx&#45;&gt;src/styles/theme.tsx</title>
<path fill="none" stroke="#000000" stroke-width="2" stroke-opacity="0.200000" d="M476.01,-398.62C490.09,-404.98 506.34,-414.98 515,-429.56 526.98,-449.75 510.4,-623.01 526,-640.56 538.6,-654.74 559.31,-658.75 577.42,-659.1"/>
<polygon fill="#000000" fill-opacity="0.200000" stroke="#000000" stroke-width="2" stroke-opacity="0.200000" points="577.45,-661.2 583.45,-659.08 577.44,-657 577.45,-661.2"/>
</g>
<!-- src/components/theme&#45;switcher/index.tsx -->
<g id="node16" class="node">
<title>src/components/theme&#45;switcher/index.tsx</title>
<g id="a_node16"><a xlink:href="src/components/theme-switcher/index.tsx" xlink:title="index.tsx">
<path fill="#bbfeff" stroke="black" d="M637.5,-409.56C637.5,-409.56 591.5,-409.56 591.5,-409.56 588.5,-409.56 585.5,-406.56 585.5,-403.56 585.5,-403.56 585.5,-397.56 585.5,-397.56 585.5,-394.56 588.5,-391.56 591.5,-391.56 591.5,-391.56 637.5,-391.56 637.5,-391.56 640.5,-391.56 643.5,-394.56 643.5,-397.56 643.5,-397.56 643.5,-403.56 643.5,-403.56 643.5,-406.56 640.5,-409.56 637.5,-409.56"/>
<text text-anchor="middle" x="614.5" y="-398.36" font-family="Helvetica,sans-Serif" font-size="9.00">index.tsx</text>
</a>
</g>
</g>
<!-- src/components/header/index.tsx&#45;&gt;src/components/theme&#45;switcher/index.tsx -->
<g id="edge10" class="edge">
<title>src/components/header/index.tsx&#45;&gt;src/components/theme&#45;switcher/index.tsx</title>
<path fill="none" stroke="#000000" stroke-width="2" stroke-opacity="0.200000" d="M478.11,-391.45C506.15,-393.34 549.27,-396.24 579.29,-398.26"/>
<polygon fill="#000000" fill-opacity="0.200000" stroke="#000000" stroke-width="2" stroke-opacity="0.200000" points="579.36,-400.37 585.49,-398.68 579.64,-396.18 579.36,-400.37"/>
</g>
<!-- src/styles/theme.tsx&#45;&gt;src/styles/styles.ts -->
<g id="edge44" class="edge">
<title>src/styles/theme.tsx&#45;&gt;src/styles/styles.ts</title>
<path fill="none" stroke="#000000" stroke-width="2" stroke-opacity="0.200000" d="M645.65,-651.07C664.46,-648.2 689.17,-644.33 711,-640.56 726.62,-637.86 743.92,-634.63 758.39,-631.85"/>
<polygon fill="#000000" fill-opacity="0.200000" stroke="#000000" stroke-width="2" stroke-opacity="0.200000" points="758.9,-633.89 764.4,-630.7 758.11,-629.77 758.9,-633.89"/>
</g>
<!-- src/components/layout/prism&#45;styles.ts -->
<g id="node19" class="node">
<title>src/components/layout/prism&#45;styles.ts</title>
<g id="a_node19"><a xlink:href="src/components/layout/prism-styles.ts" xlink:title="prism&#45;styles.ts">
<path fill="#ddfeff" stroke="black" d="M356,-338.56C356,-338.56 286,-338.56 286,-338.56 283,-338.56 280,-335.56 280,-332.56 280,-332.56 280,-326.56 280,-326.56 280,-323.56 283,-320.56 286,-320.56 286,-320.56 356,-320.56 356,-320.56 359,-320.56 362,-323.56 362,-326.56 362,-326.56 362,-332.56 362,-332.56 362,-335.56 359,-338.56 356,-338.56"/>
<text text-anchor="middle" x="321" y="-327.36" font-family="Helvetica,sans-Serif" font-size="9.00">prism&#45;styles.ts</text>
</a>
</g>
</g>
<!-- src/styles/theme.tsx&#45;&gt;src/components/layout/prism&#45;styles.ts -->
<g id="edge41" class="edge">
<title>src/styles/theme.tsx&#45;&gt;src/components/layout/prism&#45;styles.ts</title>
<path fill="none" stroke="#000000" stroke-width="2" stroke-opacity="0.200000" d="M583.11,-654.72C529.62,-651.36 420.09,-635.68 375,-564.56 363.39,-546.26 379.44,-389.07 370,-369.56 364.45,-358.09 353.88,-348.72 344.07,-341.94"/>
<polygon fill="#000000" fill-opacity="0.200000" stroke="#000000" stroke-width="2" stroke-opacity="0.200000" points="345.2,-340.18 339.04,-338.63 342.9,-343.68 345.2,-340.18"/>
</g>
<!-- src/hooks/use&#45;local&#45;storage&#45;state.ts -->
<g id="node33" class="node">
<title>src/hooks/use&#45;local&#45;storage&#45;state.ts</title>
<g id="a_node33"><a xlink:href="src/hooks/use-local-storage-state.ts" xlink:title="use&#45;local&#45;storage&#45;state.ts">
<path fill="#ddfeff" stroke="black" d="M850,-574.56C850,-574.56 733,-574.56 733,-574.56 730,-574.56 727,-571.56 727,-568.56 727,-568.56 727,-562.56 727,-562.56 727,-559.56 730,-556.56 733,-556.56 733,-556.56 850,-556.56 850,-556.56 853,-556.56 856,-559.56 856,-562.56 856,-562.56 856,-568.56 856,-568.56 856,-571.56 853,-574.56 850,-574.56"/>
<text text-anchor="middle" x="791.5" y="-563.36" font-family="Helvetica,sans-Serif" font-size="9.00">use&#45;local&#45;storage&#45;state.ts</text>
</a>
</g>
</g>
<!-- src/styles/theme.tsx&#45;&gt;src/hooks/use&#45;local&#45;storage&#45;state.ts -->
<g id="edge42" class="edge">
<title>src/styles/theme.tsx&#45;&gt;src/hooks/use&#45;local&#45;storage&#45;state.ts</title>
<path fill="none" stroke="#000000" stroke-width="2" stroke-opacity="0.200000" d="M645.53,-658.98C666.49,-659.62 693.7,-656.71 711,-640.56 722.67,-629.67 709.44,-618.33 719,-605.56 728.55,-592.81 743.43,-583.56 757.15,-577.19"/>
<polygon fill="#000000" fill-opacity="0.200000" stroke="#000000" stroke-width="2" stroke-opacity="0.200000" points="758.29,-578.98 762.93,-574.63 756.6,-575.13 758.29,-578.98"/>
</g>
<!-- src/libs/styleFn/color.ts -->
<g id="node39" class="node">
<title>src/libs/styleFn/color.ts</title>
<g id="a_node39"><a xlink:href="src/libs/styleFn/color.ts" xlink:title="color.ts">
<path fill="#ddfeff" stroke="black" d="M812.5,-962.56C812.5,-962.56 770.5,-962.56 770.5,-962.56 767.5,-962.56 764.5,-959.56 764.5,-956.56 764.5,-956.56 764.5,-950.56 764.5,-950.56 764.5,-947.56 767.5,-944.56 770.5,-944.56 770.5,-944.56 812.5,-944.56 812.5,-944.56 815.5,-944.56 818.5,-947.56 818.5,-950.56 818.5,-950.56 818.5,-956.56 818.5,-956.56 818.5,-959.56 815.5,-962.56 812.5,-962.56"/>
<text text-anchor="middle" x="791.5" y="-951.36" font-family="Helvetica,sans-Serif" font-size="9.00">color.ts</text>
</a>
</g>
</g>
<!-- src/styles/theme.tsx&#45;&gt;src/libs/styleFn/color.ts -->
<g id="edge43" class="edge">
<title>src/styles/theme.tsx&#45;&gt;src/libs/styleFn/color.ts</title>
<path fill="none" stroke="#000000" stroke-width="2" stroke-opacity="0.200000" d="M645.62,-651.23C667.19,-649.99 695.13,-652.56 711,-670.56 730.7,-692.91 699.88,-915.72 719,-938.56 728.47,-949.88 744.11,-954.01 758.35,-955.14"/>
<polygon fill="#000000" fill-opacity="0.200000" stroke="#000000" stroke-width="2" stroke-opacity="0.200000" points="758.24,-957.24 764.34,-955.46 758.46,-953.05 758.24,-957.24"/>
</g>
<!-- src/styles/variables.ts -->
<g id="node50" class="node">
<title>src/styles/variables.ts</title>
<g id="a_node50"><a xlink:href="src/styles/variables.ts" xlink:title="variables.ts">
<path fill="#ddfeff" stroke="black" d="M819.5,-679.56C819.5,-679.56 763.5,-679.56 763.5,-679.56 760.5,-679.56 757.5,-676.56 757.5,-673.56 757.5,-673.56 757.5,-667.56 757.5,-667.56 757.5,-664.56 760.5,-661.56 763.5,-661.56 763.5,-661.56 819.5,-661.56 819.5,-661.56 822.5,-661.56 825.5,-664.56 825.5,-667.56 825.5,-667.56 825.5,-673.56 825.5,-673.56 825.5,-676.56 822.5,-679.56 819.5,-679.56"/>
<text text-anchor="middle" x="791.5" y="-668.36" font-family="Helvetica,sans-Serif" font-size="9.00">variables.ts</text>
</a>
</g>
</g>
<!-- src/styles/theme.tsx&#45;&gt;src/styles/variables.ts -->
<g id="edge45" class="edge">
<title>src/styles/theme.tsx&#45;&gt;src/styles/variables.ts</title>
<path fill="none" stroke="#000000" stroke-width="2" stroke-opacity="0.200000" d="M645.58,-658.14C674.72,-660.64 719.06,-664.44 751.02,-667.18"/>
<polygon fill="#000000" fill-opacity="0.200000" stroke="#000000" stroke-width="2" stroke-opacity="0.200000" points="751.08,-669.29 757.23,-667.71 751.44,-665.11 751.08,-669.29"/>
</g>
<!-- src/components/theme&#45;switcher/index.tsx&#45;&gt;src/styles/theme.tsx -->
<g id="edge23" class="edge">
<title>src/components/theme&#45;switcher/index.tsx&#45;&gt;src/styles/theme.tsx</title>
<path fill="none" stroke="#000000" stroke-width="2" stroke-opacity="0.200000" d="M608.88,-409.7C586.13,-447.2 502.92,-589.37 520.5,-634.56 528.7,-655.64 554.48,-660.31 576.98,-660.02"/>
<polygon fill="#000000" fill-opacity="0.200000" stroke="#000000" stroke-width="2" stroke-opacity="0.200000" points="577.29,-662.11 583.22,-659.82 577.15,-657.91 577.29,-662.11"/>
</g>
<!-- src/components/layout/index.tsx -->
<g id="node17" class="node">
<title>src/components/layout/index.tsx</title>
<g id="a_node17"><a xlink:href="src/components/layout/index.tsx" xlink:title="index.tsx">
<path fill="#bbfeff" stroke="black" d="M344,-308.56C344,-308.56 298,-308.56 298,-308.56 295,-308.56 292,-305.56 292,-302.56 292,-302.56 292,-296.56 292,-296.56 292,-293.56 295,-290.56 298,-290.56 298,-290.56 344,-290.56 344,-290.56 347,-290.56 350,-293.56 350,-296.56 350,-296.56 350,-302.56 350,-302.56 350,-305.56 347,-308.56 344,-308.56"/>
<text text-anchor="middle" x="321" y="-297.36" font-family="Helvetica,sans-Serif" font-size="9.00">index.tsx</text>
</a>
</g>
</g>
<!-- src/components/layout/index.tsx&#45;&gt;src/components/content/breadcrumbs.tsx -->
<g id="edge12" class="edge">
<title>src/components/layout/index.tsx&#45;&gt;src/components/content/breadcrumbs.tsx</title>
<path fill="none" stroke="#000000" stroke-width="2" stroke-opacity="0.200000" d="M350.23,-307.96C358.21,-310.23 366.92,-312.59 375,-314.56 381.78,-316.21 388.94,-317.84 396.02,-319.37"/>
<polygon fill="#000000" fill-opacity="0.200000" stroke="#000000" stroke-width="2" stroke-opacity="0.200000" points="395.63,-321.43 401.93,-320.63 396.5,-317.32 395.63,-321.43"/>
</g>
<!-- src/components/layout/index.tsx&#45;&gt;src/components/content/footer.tsx -->
<g id="edge13" class="edge">
<title>src/components/layout/index.tsx&#45;&gt;src/components/content/footer.tsx</title>
<path fill="none" stroke="#000000" stroke-width="2" stroke-opacity="0.200000" d="M350.28,-299.56C368.87,-299.56 393.33,-299.56 413.13,-299.56"/>
<polygon fill="#000000" fill-opacity="0.200000" stroke="#000000" stroke-width="2" stroke-opacity="0.200000" points="413.38,-301.66 419.38,-299.56 413.38,-297.46 413.38,-301.66"/>
</g>
<!-- src/components/layout/index.tsx&#45;&gt;src/components/content/header.tsx -->
<g id="edge14" class="edge">
<title>src/components/layout/index.tsx&#45;&gt;src/components/content/header.tsx</title>
<path fill="none" stroke="#000000" stroke-width="2" stroke-opacity="0.200000" d="M330.02,-290.41C339.64,-280.05 356.77,-263.44 375,-254.56 385.99,-249.21 398.82,-245.76 410.63,-243.54"/>
<polygon fill="#000000" fill-opacity="0.200000" stroke="#000000" stroke-width="2" stroke-opacity="0.200000" points="411.14,-245.59 416.7,-242.49 410.43,-241.45 411.14,-245.59"/>
</g>
<!-- src/components/layout/index.tsx&#45;&gt;src/components/header/index.tsx -->
<g id="edge15" class="edge">
<title>src/components/layout/index.tsx&#45;&gt;src/components/header/index.tsx</title>
<path fill="none" stroke="#000000" stroke-width="2" stroke-opacity="0.200000" d="M350.13,-302.6C357.65,-304.79 365.05,-308.46 370,-314.56 377.45,-323.75 367.51,-358.41 375,-367.56 384.47,-379.12 399.78,-384.76 413.94,-387.46"/>
<polygon fill="#000000" fill-opacity="0.200000" stroke="#000000" stroke-width="2" stroke-opacity="0.200000" points="413.65,-389.54 419.91,-388.45 414.34,-385.4 413.65,-389.54"/>
</g>
<!-- src/components/layout/index.tsx&#45;&gt;src/styles/theme.tsx -->
<g id="edge11" class="edge">
<title>src/components/layout/index.tsx&#45;&gt;src/styles/theme.tsx</title>
<path fill="none" stroke="#000000" stroke-width="2" stroke-opacity="0.200000" d="M350.14,-302.33C357.75,-304.5 365.2,-308.23 370,-314.56 381.61,-329.89 365.02,-471.12 375,-487.56 411.97,-548.44 474.54,-506.94 515,-565.56 534.14,-593.29 502.47,-616.45 526,-640.56 539.04,-653.92 559.33,-658 577.09,-658.58"/>
<polygon fill="#000000" fill-opacity="0.200000" stroke="#000000" stroke-width="2" stroke-opacity="0.200000" points="577.48,-660.69 583.5,-658.65 577.52,-656.49 577.48,-660.69"/>
</g>
<!-- src/components/table&#45;of&#45;contents/index.tsx -->
<g id="node18" class="node">
<title>src/components/table&#45;of&#45;contents/index.tsx</title>
<g id="a_node18"><a xlink:href="src/components/table-of-contents/index.tsx" xlink:title="index.tsx">
<path fill="#bbfeff" stroke="black" d="M472,-458.56C472,-458.56 426,-458.56 426,-458.56 423,-458.56 420,-455.56 420,-452.56 420,-452.56 420,-446.56 420,-446.56 420,-443.56 423,-440.56 426,-440.56 426,-440.56 472,-440.56 472,-440.56 475,-440.56 478,-443.56 478,-446.56 478,-446.56 478,-452.56 478,-452.56 478,-455.56 475,-458.56 472,-458.56"/>
<text text-anchor="middle" x="449" y="-447.36" font-family="Helvetica,sans-Serif" font-size="9.00">index.tsx</text>
</a>
</g>
</g>
<!-- src/components/layout/index.tsx&#45;&gt;src/components/table&#45;of&#45;contents/index.tsx -->
<g id="edge16" class="edge">
<title>src/components/layout/index.tsx&#45;&gt;src/components/table&#45;of&#45;contents/index.tsx</title>
<path fill="none" stroke="#000000" stroke-width="2" stroke-opacity="0.200000" d="M350.08,-302.38C357.69,-304.55 365.15,-308.27 370,-314.56 377.67,-324.52 367.28,-417.64 375,-427.56 384.17,-439.35 399.45,-445.02 413.66,-447.68"/>
<polygon fill="#000000" fill-opacity="0.200000" stroke="#000000" stroke-width="2" stroke-opacity="0.200000" points="413.41,-449.77 419.67,-448.64 414.08,-445.62 413.41,-449.77"/>
</g>
<!-- src/components/table&#45;of&#45;contents/index.tsx&#45;&gt;src/styles/theme.tsx -->
<g id="edge22" class="edge">
<title>src/components/table&#45;of&#45;contents/index.tsx&#45;&gt;src/styles/theme.tsx</title>
<path fill="none" stroke="#000000" stroke-width="2" stroke-opacity="0.200000" d="M457.34,-458.62C471.21,-476.27 501.09,-516.99 515,-556.56 521.24,-574.32 512.95,-626.99 526,-640.56 538.94,-654.02 559.22,-658.1 577,-658.67"/>
<polygon fill="#000000" fill-opacity="0.200000" stroke="#000000" stroke-width="2" stroke-opacity="0.200000" points="577.4,-660.77 583.42,-658.73 577.44,-656.57 577.4,-660.77"/>
</g>
<!-- src/components/post&#45;link/post&#45;date.tsx -->
<g id="node20" class="node">
<title>src/components/post&#45;link/post&#45;date.tsx</title>
<g id="a_node20"><a xlink:href="src/components/post-link/post-date.tsx" xlink:title="post&#45;date.tsx">
<path fill="#bbfeff" stroke="black" d="M646.5,-158.56C646.5,-158.56 582.5,-158.56 582.5,-158.56 579.5,-158.56 576.5,-155.56 576.5,-152.56 576.5,-152.56 576.5,-146.56 576.5,-146.56 576.5,-143.56 579.5,-140.56 582.5,-140.56 582.5,-140.56 646.5,-140.56 646.5,-140.56 649.5,-140.56 652.5,-143.56 652.5,-146.56 652.5,-146.56 652.5,-152.56 652.5,-152.56 652.5,-155.56 649.5,-158.56 646.5,-158.56"/>
<text text-anchor="middle" x="614.5" y="-147.36" font-family="Helvetica,sans-Serif" font-size="9.00">post&#45;date.tsx</text>
</a>
</g>
</g>
<!-- src/components/post&#45;link/post&#45;link.tsx -->
<g id="node21" class="node">
<title>src/components/post&#45;link/post&#45;link.tsx</title>
<g id="a_node21"><a xlink:href="src/components/post-link/post-link.tsx" xlink:title="post&#45;link.tsx">
<path fill="#bbfeff" stroke="black" d="M478.5,-158.56C478.5,-158.56 419.5,-158.56 419.5,-158.56 416.5,-158.56 413.5,-155.56 413.5,-152.56 413.5,-152.56 413.5,-146.56 413.5,-146.56 413.5,-143.56 416.5,-140.56 419.5,-140.56 419.5,-140.56 478.5,-140.56 478.5,-140.56 481.5,-140.56 484.5,-143.56 484.5,-146.56 484.5,-146.56 484.5,-152.56 484.5,-152.56 484.5,-155.56 481.5,-158.56 478.5,-158.56"/>
<text text-anchor="middle" x="449" y="-147.36" font-family="Helvetica,sans-Serif" font-size="9.00">post&#45;link.tsx</text>
</a>
</g>
</g>
<!-- src/components/post&#45;link/post&#45;link.tsx&#45;&gt;src/styles/styles.ts -->
<g id="edge17" class="edge">
<title>src/components/post&#45;link/post&#45;link.tsx&#45;&gt;src/styles/styles.ts</title>
<path fill="none" stroke="#000000" stroke-width="2" stroke-opacity="0.200000" d="M476.05,-158.6C490.15,-164.94 506.4,-174.94 515,-189.56 543.08,-237.3 499.56,-389.89 526,-438.56 574.21,-527.32 654.43,-486.88 711,-570.56 719.45,-583.06 708.66,-592.57 719,-603.56 729.11,-614.31 744.33,-619.85 758.13,-622.69"/>
<polygon fill="#000000" fill-opacity="0.200000" stroke="#000000" stroke-width="2" stroke-opacity="0.200000" points="758.07,-624.81 764.35,-623.81 758.82,-620.68 758.07,-624.81"/>
</g>
<!-- src/components/post&#45;link/post&#45;link.tsx&#45;&gt;src/styles/theme.tsx -->
<g id="edge18" class="edge">
<title>src/components/post&#45;link/post&#45;link.tsx&#45;&gt;src/styles/theme.tsx</title>
<path fill="none" stroke="#000000" stroke-width="2" stroke-opacity="0.200000" d="M476.49,-158.68C490.55,-165.01 506.61,-174.97 515,-189.56 527.49,-211.29 509.61,-621.6 526,-640.56 538.4,-654.91 559.11,-658.93 577.26,-659.24"/>
<polygon fill="#000000" fill-opacity="0.200000" stroke="#000000" stroke-width="2" stroke-opacity="0.200000" points="577.32,-661.34 583.31,-659.21 577.3,-657.14 577.32,-661.34"/>
</g>
<!-- src/components/post&#45;link/post&#45;link.tsx&#45;&gt;src/components/post&#45;link/post&#45;date.tsx -->
<g id="edge19" class="edge">
<title>src/components/post&#45;link/post&#45;link.tsx&#45;&gt;src/components/post&#45;link/post&#45;date.tsx</title>
<path fill="none" stroke="#000000" stroke-width="2" stroke-opacity="0.200000" d="M484.67,-149.56C509.58,-149.56 543.33,-149.56 570.04,-149.56"/>
<polygon fill="#000000" fill-opacity="0.200000" stroke="#000000" stroke-width="2" stroke-opacity="0.200000" points="570.32,-151.66 576.32,-149.56 570.32,-147.46 570.32,-151.66"/>
</g>
<!-- src/components/post&#45;link/tag&#45;list.tsx -->
<g id="node22" class="node">
<title>src/components/post&#45;link/tag&#45;list.tsx</title>
<g id="a_node22"><a xlink:href="src/components/post-link/tag-list.tsx" xlink:title="tag&#45;list.tsx">
<path fill="#bbfeff" stroke="black" d="M640.5,-128.56C640.5,-128.56 588.5,-128.56 588.5,-128.56 585.5,-128.56 582.5,-125.56 582.5,-122.56 582.5,-122.56 582.5,-116.56 582.5,-116.56 582.5,-113.56 585.5,-110.56 588.5,-110.56 588.5,-110.56 640.5,-110.56 640.5,-110.56 643.5,-110.56 646.5,-113.56 646.5,-116.56 646.5,-116.56 646.5,-122.56 646.5,-122.56 646.5,-125.56 643.5,-128.56 640.5,-128.56"/>
<text text-anchor="middle" x="614.5" y="-117.36" font-family="Helvetica,sans-Serif" font-size="9.00">tag&#45;list.tsx</text>
</a>
</g>
</g>
<!-- src/components/post&#45;link/post&#45;link.tsx&#45;&gt;src/components/post&#45;link/tag&#45;list.tsx -->
<g id="edge20" class="edge">
<title>src/components/post&#45;link/post&#45;link.tsx&#45;&gt;src/components/post&#45;link/tag&#45;list.tsx</title>
<path fill="none" stroke="#000000" stroke-width="2" stroke-opacity="0.200000" d="M484.77,-142.51C497.7,-139.94 512.51,-137.05 526,-134.56 542.46,-131.53 560.7,-128.37 576.25,-125.74"/>
<polygon fill="#000000" fill-opacity="0.200000" stroke="#000000" stroke-width="2" stroke-opacity="0.200000" points="576.72,-127.79 582.28,-124.72 576.02,-123.65 576.72,-127.79"/>
</g>
<!-- src/components/post&#45;link/post&#45;list.tsx -->
<g id="node23" class="node">
<title>src/components/post&#45;link/post&#45;list.tsx</title>
<g id="a_node23"><a xlink:href="src/components/post-link/post-list.tsx" xlink:title="post&#45;list.tsx">
<path fill="#bbfeff" stroke="black" d="M349,-158.56C349,-158.56 293,-158.56 293,-158.56 290,-158.56 287,-155.56 287,-152.56 287,-152.56 287,-146.56 287,-146.56 287,-143.56 290,-140.56 293,-140.56 293,-140.56 349,-140.56 349,-140.56 352,-140.56 355,-143.56 355,-146.56 355,-146.56 355,-152.56 355,-152.56 355,-155.56 352,-158.56 349,-158.56"/>
<text text-anchor="middle" x="321" y="-147.36" font-family="Helvetica,sans-Serif" font-size="9.00">post&#45;list.tsx</text>
</a>
</g>
</g>
<!-- src/components/post&#45;link/post&#45;list.tsx&#45;&gt;src/components/post&#45;link/post&#45;link.tsx -->
<g id="edge21" class="edge">
<title>src/components/post&#45;link/post&#45;list.tsx&#45;&gt;src/components/post&#45;link/post&#45;link.tsx</title>
<path fill="none" stroke="#000000" stroke-width="2" stroke-opacity="0.200000" d="M355.11,-149.56C371.08,-149.56 390.39,-149.56 407.26,-149.56"/>
<polygon fill="#000000" fill-opacity="0.200000" stroke="#000000" stroke-width="2" stroke-opacity="0.200000" points="407.36,-151.66 413.36,-149.56 407.36,-147.46 407.36,-151.66"/>
</g>
<!-- src/gatsby/browser/wrap&#45;root&#45;element.tsx -->
<g id="node24" class="node">
<title>src/gatsby/browser/wrap&#45;root&#45;element.tsx</title>
<g id="a_node24"><a xlink:href="src/gatsby/browser/wrap-root-element.tsx" xlink:title="wrap&#45;root&#45;element.tsx">
<path fill="#bbfeff" stroke="black" d="M501,-798.56C501,-798.56 397,-798.56 397,-798.56 394,-798.56 391,-795.56 391,-792.56 391,-792.56 391,-786.56 391,-786.56 391,-783.56 394,-780.56 397,-780.56 397,-780.56 501,-780.56 501,-780.56 504,-780.56 507,-783.56 507,-786.56 507,-786.56 507,-792.56 507,-792.56 507,-795.56 504,-798.56 501,-798.56"/>
<text text-anchor="middle" x="449" y="-787.36" font-family="Helvetica,sans-Serif" font-size="9.00">wrap&#45;root&#45;element.tsx</text>
</a>
</g>
</g>
<!-- src/gatsby/browser/wrap&#45;root&#45;element.tsx&#45;&gt;src/styles/theme.tsx -->
<g id="edge24" class="edge">
<title>src/gatsby/browser/wrap&#45;root&#45;element.tsx&#45;&gt;src/styles/theme.tsx</title>
<path fill="none" stroke="#000000" stroke-width="2" stroke-opacity="0.200000" d="M507.1,-783.03C510,-781.25 512.68,-779.11 515,-776.56 546.88,-741.53 493.64,-705.15 526,-670.56 538.76,-656.93 559.03,-652.84 576.85,-652.31"/>
<polygon fill="#000000" fill-opacity="0.200000" stroke="#000000" stroke-width="2" stroke-opacity="0.200000" points="577.3,-654.41 583.29,-652.27 577.27,-650.21 577.3,-654.41"/>
</g>
<!-- src/gatsby/gatsby&#45;browser.ts -->
<g id="node25" class="node">
<title>src/gatsby/gatsby&#45;browser.ts</title>
<g id="a_node25"><a xlink:href="src/gatsby/gatsby-browser.ts" xlink:title="gatsby&#45;browser.ts">
<path fill="#ccffcc" stroke="black" d="M491.5,-880.56C491.5,-880.56 406.5,-880.56 406.5,-880.56 403.5,-880.56 400.5,-877.56 400.5,-874.56 400.5,-874.56 400.5,-868.56 400.5,-868.56 400.5,-865.56 403.5,-862.56 406.5,-862.56 406.5,-862.56 491.5,-862.56 491.5,-862.56 494.5,-862.56 497.5,-865.56 497.5,-868.56 497.5,-868.56 497.5,-874.56 497.5,-874.56 497.5,-877.56 494.5,-880.56 491.5,-880.56"/>
<text text-anchor="middle" x="449" y="-869.36" font-family="Helvetica,sans-Serif" font-size="9.00">gatsby&#45;browser.ts</text>
</a>
</g>
</g>
<!-- src/gatsby/gatsby&#45;config.ts -->
<g id="node26" class="node">
<title>src/gatsby/gatsby&#45;config.ts</title>
<g id="a_node26"><a xlink:href="src/gatsby/gatsby-config.ts" xlink:title="gatsby&#45;config.ts">
<path fill="#ccffcc" stroke="black" d="M488,-850.56C488,-850.56 410,-850.56 410,-850.56 407,-850.56 404,-847.56 404,-844.56 404,-844.56 404,-838.56 404,-838.56 404,-835.56 407,-832.56 410,-832.56 410,-832.56 488,-832.56 488,-832.56 491,-832.56 494,-835.56 494,-838.56 494,-838.56 494,-844.56 494,-844.56 494,-847.56 491,-850.56 488,-850.56"/>
<text text-anchor="middle" x="449" y="-839.36" font-family="Helvetica,sans-Serif" font-size="9.00">gatsby&#45;config.ts</text>
</a>
</g>
</g>
<!-- src/gatsby/gatsby&#45;node.ts -->
<g id="node27" class="node">
<title>src/gatsby/gatsby&#45;node.ts</title>
<g id="a_node27"><a xlink:href="src/gatsby/gatsby-node.ts" xlink:title="gatsby&#45;node.ts">
<path fill="#ddfeff" stroke="black" d="M485,-910.56C485,-910.56 413,-910.56 413,-910.56 410,-910.56 407,-907.56 407,-904.56 407,-904.56 407,-898.56 407,-898.56 407,-895.56 410,-892.56 413,-892.56 413,-892.56 485,-892.56 485,-892.56 488,-892.56 491,-895.56 491,-898.56 491,-898.56 491,-904.56 491,-904.56 491,-907.56 488,-910.56 485,-910.56"/>
<text text-anchor="middle" x="449" y="-899.36" font-family="Helvetica,sans-Serif" font-size="9.00">gatsby&#45;node.ts</text>
</a>
</g>
</g>
<!-- src/gatsby/node/create&#45;pages.ts -->
<g id="node28" class="node">
<title>src/gatsby/node/create&#45;pages.ts</title>
<g id="a_node28"><a xlink:href="src/gatsby/node/create-pages.ts" xlink:title="create&#45;pages.ts">
<path fill="#ddfeff" stroke="black" d="M651.5,-884.56C651.5,-884.56 577.5,-884.56 577.5,-884.56 574.5,-884.56 571.5,-881.56 571.5,-878.56 571.5,-878.56 571.5,-872.56 571.5,-872.56 571.5,-869.56 574.5,-866.56 577.5,-866.56 577.5,-866.56 651.5,-866.56 651.5,-866.56 654.5,-866.56 657.5,-869.56 657.5,-872.56 657.5,-872.56 657.5,-878.56 657.5,-878.56 657.5,-881.56 654.5,-884.56 651.5,-884.56"/>
<text text-anchor="middle" x="614.5" y="-873.36" font-family="Helvetica,sans-Serif" font-size="9.00">create&#45;pages.ts</text>
</a>
</g>
</g>
<!-- src/gatsby/gatsby&#45;node.ts&#45;&gt;src/gatsby/node/create&#45;pages.ts -->
<g id="edge25" class="edge">
<title>src/gatsby/gatsby&#45;node.ts&#45;&gt;src/gatsby/node/create&#45;pages.ts</title>
<path fill="none" stroke="#000000" stroke-width="2" stroke-opacity="0.200000" d="M491.26,-895C513.75,-891.42 541.71,-886.98 565.21,-883.24"/>
<polygon fill="#000000" fill-opacity="0.200000" stroke="#000000" stroke-width="2" stroke-opacity="0.200000" points="565.81,-885.27 571.4,-882.26 565.15,-881.12 565.81,-885.27"/>
</g>
<!-- src/gatsby/node/create&#45;schema&#45;customization.ts -->
<g id="node29" class="node">
<title>src/gatsby/node/create&#45;schema&#45;customization.ts</title>
<g id="a_node29"><a xlink:href="src/gatsby/node/create-schema-customization.ts" xlink:title="create&#45;schema&#45;customization.ts">
<path fill="#ddfeff" stroke="black" d="M689,-854.56C689,-854.56 540,-854.56 540,-854.56 537,-854.56 534,-851.56 534,-848.56 534,-848.56 534,-842.56 534,-842.56 534,-839.56 537,-836.56 540,-836.56 540,-836.56 689,-836.56 689,-836.56 692,-836.56 695,-839.56 695,-842.56 695,-842.56 695,-848.56 695,-848.56 695,-851.56 692,-854.56 689,-854.56"/>
<text text-anchor="middle" x="614.5" y="-843.36" font-family="Helvetica,sans-Serif" font-size="9.00">create&#45;schema&#45;customization.ts</text>
</a>
</g>
</g>
<!-- src/gatsby/gatsby&#45;node.ts&#45;&gt;src/gatsby/node/create&#45;schema&#45;customization.ts -->
<g id="edge26" class="edge">
<title>src/gatsby/gatsby&#45;node.ts&#45;&gt;src/gatsby/node/create&#45;schema&#45;customization.ts</title>
<path fill="none" stroke="#000000" stroke-width="2" stroke-opacity="0.200000" d="M491.22,-898.14C499.79,-895.84 508.26,-892.22 515,-886.56 524.61,-878.49 516.17,-868.35 526,-860.56 527.13,-859.67 528.29,-858.82 529.48,-858.01"/>
<polygon fill="#000000" fill-opacity="0.200000" stroke="#000000" stroke-width="2" stroke-opacity="0.200000" points="530.84,-859.65 534.9,-854.75 528.67,-856.05 530.84,-859.65"/>
</g>
<!-- src/libs/post.ts -->
<g id="node31" class="node">
<title>src/libs/post.ts</title>
<g id="a_node31"><a xlink:href="src/libs/post.ts" xlink:title="post.ts">
<path fill="#ddfeff" stroke="black" d="M950.5,-1044.56C950.5,-1044.56 908.5,-1044.56 908.5,-1044.56 905.5,-1044.56 902.5,-1041.56 902.5,-1038.56 902.5,-1038.56 902.5,-1032.56 902.5,-1032.56 902.5,-1029.56 905.5,-1026.56 908.5,-1026.56 908.5,-1026.56 950.5,-1026.56 950.5,-1026.56 953.5,-1026.56 956.5,-1029.56 956.5,-1032.56 956.5,-1032.56 956.5,-1038.56 956.5,-1038.56 956.5,-1041.56 953.5,-1044.56 950.5,-1044.56"/>
<text text-anchor="middle" x="929.5" y="-1033.36" font-family="Helvetica,sans-Serif" font-size="9.00">post.ts</text>
</a>
</g>
</g>
<!-- src/gatsby/node/create&#45;pages.ts&#45;&gt;src/libs/post.ts -->
<g id="edge27" class="edge">
<title>src/gatsby/node/create&#45;pages.ts&#45;&gt;src/libs/post.ts</title>
<path fill="none" stroke="#000000" stroke-width="2" stroke-opacity="0.200000" d="M617.54,-884.7C624.88,-915.08 653.08,-1012.96 719,-1050.56 776.78,-1083.52 858.59,-1061.89 900.85,-1046.73"/>
<polygon fill="#000000" fill-opacity="0.200000" stroke="#000000" stroke-width="2" stroke-opacity="0.200000" points="901.63,-1048.68 906.54,-1044.65 900.18,-1044.74 901.63,-1048.68"/>
</g>
<!-- src/gatsby/node/create&#45;pages.ts&#45;&gt;src/utils/asserts&#45;non&#45;null.ts -->
<g id="edge28" class="edge">
<title>src/gatsby/node/create&#45;pages.ts&#45;&gt;src/utils/asserts&#45;non&#45;null.ts</title>
<path fill="none" stroke="#000000" stroke-width="2" stroke-opacity="0.200000" d="M657.64,-879.88C676.62,-879.39 697.71,-875.02 711,-860.56 727.74,-842.36 701.85,-767.38 719,-749.56 741.48,-726.21 836.83,-751.25 864,-733.56 898.81,-710.9 917.12,-662.41 924.5,-637.71"/>
<polygon fill="#000000" fill-opacity="0.200000" stroke="#000000" stroke-width="2" stroke-opacity="0.200000" points="926.59,-638.04 926.23,-631.69 922.56,-636.88 926.59,-638.04"/>
</g>
<!-- src/gatsby/gatsby&#45;ssr.tsx -->
<g id="node30" class="node">
<title>src/gatsby/gatsby&#45;ssr.tsx</title>
<g id="a_node30"><a xlink:href="src/gatsby/gatsby-ssr.tsx" xlink:title="gatsby&#45;ssr.tsx">
<path fill="#ccffcc" stroke="black" d="M482.5,-764.56C482.5,-764.56 415.5,-764.56 415.5,-764.56 412.5,-764.56 409.5,-761.56 409.5,-758.56 409.5,-758.56 409.5,-752.56 409.5,-752.56 409.5,-749.56 412.5,-746.56 415.5,-746.56 415.5,-746.56 482.5,-746.56 482.5,-746.56 485.5,-746.56 488.5,-749.56 488.5,-752.56 488.5,-752.56 488.5,-758.56 488.5,-758.56 488.5,-761.56 485.5,-764.56 482.5,-764.56"/>
<text text-anchor="middle" x="449" y="-753.36" font-family="Helvetica,sans-Serif" font-size="9.00">gatsby&#45;ssr.tsx</text>
</a>
</g>
</g>
<!-- src/libs/date.ts -->
<g id="node34" class="node">
<title>src/libs/date.ts</title>
<g id="a_node34"><a xlink:href="src/libs/date.ts" xlink:title="date.ts">
<path fill="#ddfeff" stroke="black" d="M1040,-1044.56C1040,-1044.56 998,-1044.56 998,-1044.56 995,-1044.56 992,-1041.56 992,-1038.56 992,-1038.56 992,-1032.56 992,-1032.56 992,-1029.56 995,-1026.56 998,-1026.56 998,-1026.56 1040,-1026.56 1040,-1026.56 1043,-1026.56 1046,-1029.56 1046,-1032.56 1046,-1032.56 1046,-1038.56 1046,-1038.56 1046,-1041.56 1043,-1044.56 1040,-1044.56"/>
<text text-anchor="middle" x="1019" y="-1033.36" font-family="Helvetica,sans-Serif" font-size="9.00">date.ts</text>
</a>
</g>
</g>
<!-- src/libs/post.ts&#45;&gt;src/libs/date.ts -->
<g id="edge31" class="edge">
<title>src/libs/post.ts&#45;&gt;src/libs/date.ts</title>
<path fill="none" stroke="#000000" stroke-width="2" stroke-opacity="0.200000" d="M956.75,-1035.56C965.84,-1035.56 976.13,-1035.56 985.64,-1035.56"/>
<polygon fill="#000000" fill-opacity="0.200000" stroke="#000000" stroke-width="2" stroke-opacity="0.200000" points="985.77,-1037.66 991.77,-1035.56 985.77,-1033.46 985.77,-1037.66"/>
</g>
<!-- src/utils/panic.ts -->
<g id="node57" class="node">
<title>src/utils/panic.ts</title>
<g id="a_node57"><a xlink:href="src/utils/panic.ts" xlink:title="panic.ts">
<path fill="#ddfeff" stroke="black" d="M1040,-631.56C1040,-631.56 998,-631.56 998,-631.56 995,-631.56 992,-628.56 992,-625.56 992,-625.56 992,-619.56 992,-619.56 992,-616.56 995,-613.56 998,-613.56 998,-613.56 1040,-613.56 1040,-613.56 1043,-613.56 1046,-616.56 1046,-619.56 1046,-619.56 1046,-625.56 1046,-625.56 1046,-628.56 1043,-631.56 1040,-631.56"/>
<text text-anchor="middle" x="1019" y="-620.36" font-family="Helvetica,sans-Serif" font-size="9.00">panic.ts</text>
</a>
</g>
</g>
<!-- src/utils/asserts&#45;non&#45;null.ts&#45;&gt;src/utils/panic.ts -->
<g id="edge57" class="edge">
<title>src/utils/asserts&#45;non&#45;null.ts&#45;&gt;src/utils/panic.ts</title>
<path fill="none" stroke="#000000" stroke-width="2" stroke-opacity="0.200000" d="M979.11,-622.56C981.31,-622.56 983.5,-622.56 985.65,-622.56"/>
<polygon fill="#000000" fill-opacity="0.200000" stroke="#000000" stroke-width="2" stroke-opacity="0.200000" points="985.95,-624.66 991.95,-622.56 985.95,-620.46 985.95,-624.66"/>
</g>
<!-- src/libs/post.test.ts -->
<g id="node35" class="node">
<title>src/libs/post.test.ts</title>
<g id="a_node35"><a xlink:href="src/libs/post.test.ts" xlink:title="post.test.ts">
<path fill="#ddfeff" stroke="black" d="M819.5,-1044.56C819.5,-1044.56 763.5,-1044.56 763.5,-1044.56 760.5,-1044.56 757.5,-1041.56 757.5,-1038.56 757.5,-1038.56 757.5,-1032.56 757.5,-1032.56 757.5,-1029.56 760.5,-1026.56 763.5,-1026.56 763.5,-1026.56 819.5,-1026.56 819.5,-1026.56 822.5,-1026.56 825.5,-1029.56 825.5,-1032.56 825.5,-1032.56 825.5,-1038.56 825.5,-1038.56 825.5,-1041.56 822.5,-1044.56 819.5,-1044.56"/>
<text text-anchor="middle" x="791.5" y="-1033.36" font-family="Helvetica,sans-Serif" font-size="9.00">post.test.ts</text>
</a>
</g>
</g>
<!-- src/libs/post.test.ts&#45;&gt;src/libs/post.ts -->
<g id="edge30" class="edge">
<title>src/libs/post.test.ts&#45;&gt;src/libs/post.ts</title>
<path fill="none" stroke="#000000" stroke-width="2" stroke-opacity="0.200000" d="M825.77,-1035.56C847.24,-1035.56 875.03,-1035.56 896.29,-1035.56"/>
<polygon fill="#000000" fill-opacity="0.200000" stroke="#000000" stroke-width="2" stroke-opacity="0.200000" points="896.38,-1037.66 902.38,-1035.56 896.38,-1033.46 896.38,-1037.66"/>
</g>
<!-- src/libs/proto&#45;ext.ts -->
<g id="node36" class="node">
<title>src/libs/proto&#45;ext.ts</title>
<g id="a_node36"><a xlink:href="src/libs/proto-ext.ts" xlink:title="proto&#45;ext.ts">
<path fill="#ccffcc" stroke="black" d="M820.5,-868.56C820.5,-868.56 762.5,-868.56 762.5,-868.56 759.5,-868.56 756.5,-865.56 756.5,-862.56 756.5,-862.56 756.5,-856.56 756.5,-856.56 756.5,-853.56 759.5,-850.56 762.5,-850.56 762.5,-850.56 820.5,-850.56 820.5,-850.56 823.5,-850.56 826.5,-853.56 826.5,-856.56 826.5,-856.56 826.5,-862.56 826.5,-862.56 826.5,-865.56 823.5,-868.56 820.5,-868.56"/>
<text text-anchor="middle" x="791.5" y="-857.36" font-family="Helvetica,sans-Serif" font-size="9.00">proto&#45;ext.ts</text>
</a>
</g>
</g>
<!-- src/libs/react&#45;fcx.d.ts -->
<g id="node37" class="node">
<title>src/libs/react&#45;fcx.d.ts</title>
<g id="a_node37"><a xlink:href="src/libs/react-fcx.d.ts" xlink:title="react&#45;fcx.d.ts">
<path fill="#ccffcc" stroke="black" d="M824,-838.56C824,-838.56 759,-838.56 759,-838.56 756,-838.56 753,-835.56 753,-832.56 753,-832.56 753,-826.56 753,-826.56 753,-823.56 756,-820.56 759,-820.56 759,-820.56 824,-820.56 824,-820.56 827,-820.56 830,-823.56 830,-826.56 830,-826.56 830,-832.56 830,-832.56 830,-835.56 827,-838.56 824,-838.56"/>
<text text-anchor="middle" x="791.5" y="-827.36" font-family="Helvetica,sans-Serif" font-size="9.00">react&#45;fcx.d.ts</text>
</a>
</g>
</g>
<!-- src/libs/styleFn/angle.ts -->
<g id="node38" class="node">
<title>src/libs/styleFn/angle.ts</title>
<g id="a_node38"><a xlink:href="src/libs/styleFn/angle.ts" xlink:title="angle.ts">
<path fill="#ccffcc" stroke="black" d="M812.5,-992.56C812.5,-992.56 770.5,-992.56 770.5,-992.56 767.5,-992.56 764.5,-989.56 764.5,-986.56 764.5,-986.56 764.5,-980.56 764.5,-980.56 764.5,-977.56 767.5,-974.56 770.5,-974.56 770.5,-974.56 812.5,-974.56 812.5,-974.56 815.5,-974.56 818.5,-977.56 818.5,-980.56 818.5,-980.56 818.5,-986.56 818.5,-986.56 818.5,-989.56 815.5,-992.56 812.5,-992.56"/>
<text text-anchor="middle" x="791.5" y="-981.36" font-family="Helvetica,sans-Serif" font-size="9.00">angle.ts</text>
</a>
</g>
</g>
<!-- src/libs/styleFn/general.ts -->
<g id="node40" class="node">
<title>src/libs/styleFn/general.ts</title>
<g id="a_node40"><a xlink:href="src/libs/styleFn/general.ts" xlink:title="general.ts">
<path fill="#ddfeff" stroke="black" d="M954.5,-902.56C954.5,-902.56 904.5,-902.56 904.5,-902.56 901.5,-902.56 898.5,-899.56 898.5,-896.56 898.5,-896.56 898.5,-890.56 898.5,-890.56 898.5,-887.56 901.5,-884.56 904.5,-884.56 904.5,-884.56 954.5,-884.56 954.5,-884.56 957.5,-884.56 960.5,-887.56 960.5,-890.56 960.5,-890.56 960.5,-896.56 960.5,-896.56 960.5,-899.56 957.5,-902.56 954.5,-902.56"/>
<text text-anchor="middle" x="929.5" y="-891.36" font-family="Helvetica,sans-Serif" font-size="9.00">general.ts</text>
</a>
</g>
</g>
<!-- src/libs/styleFn/length.ts -->
<g id="node41" class="node">
<title>src/libs/styleFn/length.ts</title>
<g id="a_node41"><a xlink:href="src/libs/styleFn/length.ts" xlink:title="length.ts">
<path fill="#ccffcc" stroke="black" d="M814,-932.56C814,-932.56 769,-932.56 769,-932.56 766,-932.56 763,-929.56 763,-926.56 763,-926.56 763,-920.56 763,-920.56 763,-917.56 766,-914.56 769,-914.56 769,-914.56 814,-914.56 814,-914.56 817,-914.56 820,-917.56 820,-920.56 820,-920.56 820,-926.56 820,-926.56 820,-929.56 817,-932.56 814,-932.56"/>
<text text-anchor="middle" x="791.5" y="-921.36" font-family="Helvetica,sans-Serif" font-size="9.00">length.ts</text>
</a>
</g>
</g>
<!-- src/libs/styleFn/text.ts -->
<g id="node42" class="node">
<title>src/libs/styleFn/text.ts</title>
<g id="a_node42"><a xlink:href="src/libs/styleFn/text.ts" xlink:title="text.ts">
<path fill="#ddfeff" stroke="black" d="M812.5,-902.56C812.5,-902.56 770.5,-902.56 770.5,-902.56 767.5,-902.56 764.5,-899.56 764.5,-896.56 764.5,-896.56 764.5,-890.56 764.5,-890.56 764.5,-887.56 767.5,-884.56 770.5,-884.56 770.5,-884.56 812.5,-884.56 812.5,-884.56 815.5,-884.56 818.5,-887.56 818.5,-890.56 818.5,-890.56 818.5,-896.56 818.5,-896.56 818.5,-899.56 815.5,-902.56 812.5,-902.56"/>
<text text-anchor="middle" x="791.5" y="-891.36" font-family="Helvetica,sans-Serif" font-size="9.00">text.ts</text>
</a>
</g>
</g>
<!-- src/libs/styleFn/text.ts&#45;&gt;src/libs/styleFn/general.ts -->
<g id="edge32" class="edge">
<title>src/libs/styleFn/text.ts&#45;&gt;src/libs/styleFn/general.ts</title>
<path fill="none" stroke="#000000" stroke-width="2" stroke-opacity="0.200000" d="M818.72,-893.56C839.55,-893.56 868.93,-893.56 892.05,-893.56"/>
<polygon fill="#000000" fill-opacity="0.200000" stroke="#000000" stroke-width="2" stroke-opacity="0.200000" points="892.08,-895.66 898.08,-893.56 892.08,-891.46 892.08,-895.66"/>
</g>
<!-- src/libs/toc.ts -->
<g id="node43" class="node">
<title>src/libs/toc.ts</title>
<g id="a_node43"><a xlink:href="src/libs/toc.ts" xlink:title="toc.ts">
<path fill="#ccffcc" stroke="black" d="M812.5,-808.56C812.5,-808.56 770.5,-808.56 770.5,-808.56 767.5,-808.56 764.5,-805.56 764.5,-802.56 764.5,-802.56 764.5,-796.56 764.5,-796.56 764.5,-793.56 767.5,-790.56 770.5,-790.56 770.5,-790.56 812.5,-790.56 812.5,-790.56 815.5,-790.56 818.5,-793.56 818.5,-796.56 818.5,-796.56 818.5,-802.56 818.5,-802.56 818.5,-805.56 815.5,-808.56 812.5,-808.56"/>
<text text-anchor="middle" x="791.5" y="-797.36" font-family="Helvetica,sans-Serif" font-size="9.00">toc.ts</text>
</a>
</g>
</g>
<!-- src/libs/withDefault.ts -->
<g id="node44" class="node">
<title>src/libs/withDefault.ts</title>
<g id="a_node44"><a xlink:href="src/libs/withDefault.ts" xlink:title="withDefault.ts">
<path fill="#ccffcc" stroke="black" d="M825.5,-778.56C825.5,-778.56 757.5,-778.56 757.5,-778.56 754.5,-778.56 751.5,-775.56 751.5,-772.56 751.5,-772.56 751.5,-766.56 751.5,-766.56 751.5,-763.56 754.5,-760.56 757.5,-760.56 757.5,-760.56 825.5,-760.56 825.5,-760.56 828.5,-760.56 831.5,-763.56 831.5,-766.56 831.5,-766.56 831.5,-772.56 831.5,-772.56 831.5,-775.56 828.5,-778.56 825.5,-778.56"/>
<text text-anchor="middle" x="791.5" y="-767.36" font-family="Helvetica,sans-Serif" font-size="9.00">withDefault.ts</text>
</a>
</g>
</g>
<!-- src/pages/404.tsx -->
<g id="node45" class="node">
<title>src/pages/404.tsx</title>
<g id="a_node45"><a xlink:href="src/pages/404.tsx" xlink:title="404.tsx">
<path fill="#bbfeff" stroke="black" d="M103.5,-338.56C103.5,-338.56 61.5,-338.56 61.5,-338.56 58.5,-338.56 55.5,-335.56 55.5,-332.56 55.5,-332.56 55.5,-326.56 55.5,-326.56 55.5,-323.56 58.5,-320.56 61.5,-320.56 61.5,-320.56 103.5,-320.56 103.5,-320.56 106.5,-320.56 109.5,-323.56 109.5,-326.56 109.5,-326.56 109.5,-332.56 109.5,-332.56 109.5,-335.56 106.5,-338.56 103.5,-338.56"/>
<text text-anchor="middle" x="82.5" y="-327.36" font-family="Helvetica,sans-Serif" font-size="9.00">404.tsx</text>
</a>
</g>
</g>
<!-- src/pages/404.tsx&#45;&gt;src/components/layout/index.tsx -->
<g id="edge33" class="edge">
<title>src/pages/404.tsx&#45;&gt;src/components/layout/index.tsx</title>
<path fill="none" stroke="#000000" stroke-width="2" stroke-opacity="0.200000" d="M109.71,-326.24C152.64,-320.79 237.93,-309.97 285.65,-303.92"/>
<polygon fill="#000000" fill-opacity="0.200000" stroke="#000000" stroke-width="2" stroke-opacity="0.200000" points="286.15,-305.97 291.84,-303.13 285.62,-301.81 286.15,-305.97"/>
</g>
<!-- src/pages/index.tsx -->
<g id="node46" class="node">
<title>src/pages/index.tsx</title>
<g id="a_node46"><a xlink:href="src/pages/index.tsx" xlink:title="index.tsx">
<path fill="#bbfeff" stroke="black" d="M105.5,-368.56C105.5,-368.56 59.5,-368.56 59.5,-368.56 56.5,-368.56 53.5,-365.56 53.5,-362.56 53.5,-362.56 53.5,-356.56 53.5,-356.56 53.5,-353.56 56.5,-350.56 59.5,-350.56 59.5,-350.56 105.5,-350.56 105.5,-350.56 108.5,-350.56 111.5,-353.56 111.5,-356.56 111.5,-356.56 111.5,-362.56 111.5,-362.56 111.5,-365.56 108.5,-368.56 105.5,-368.56"/>
<text text-anchor="middle" x="82.5" y="-357.36" font-family="Helvetica,sans-Serif" font-size="9.00">index.tsx</text>
</a>
</g>
</g>
<!-- src/pages/index.tsx&#45;&gt;src/hooks/use&#45;site.ts -->
<g id="edge34" class="edge">
<title>src/pages/index.tsx&#45;&gt;src/hooks/use&#45;site.ts</title>
<path fill="none" stroke="#000000" stroke-width="2" stroke-opacity="0.200000" d="M89.64,-368.59C114.18,-403.49 209.2,-527.56 320,-527.56 320,-527.56 320,-527.56 450,-527.56 560.91,-527.56 692.07,-531.86 754.28,-534.15"/>
<polygon fill="#000000" fill-opacity="0.200000" stroke="#000000" stroke-width="2" stroke-opacity="0.200000" points="754.37,-536.26 760.44,-534.38 754.53,-532.06 754.37,-536.26"/>
</g>
<!-- src/pages/index.tsx&#45;&gt;src/utils/asserts&#45;non&#45;null.ts -->
<g id="edge36" class="edge">
<title>src/pages/index.tsx&#45;&gt;src/utils/asserts&#45;non&#45;null.ts</title>
<path fill="none" stroke="#000000" stroke-width="2" stroke-opacity="0.200000" d="M84.68,-368.71C92.6,-425.68 143.13,-729.56 320,-729.56 320,-729.56 320,-729.56 615.5,-729.56 643.12,-729.56 839.94,-737.12 864,-723.56 897.3,-704.79 916.02,-660.94 923.94,-637.68"/>
<polygon fill="#000000" fill-opacity="0.200000" stroke="#000000" stroke-width="2" stroke-opacity="0.200000" points="926.03,-638.06 925.89,-631.7 922.03,-636.75 926.03,-638.06"/>
</g>
<!-- src/templates/post&#45;list&#45;page.tsx -->
<g id="node47" class="node">
<title>src/templates/post&#45;list&#45;page.tsx</title>
<g id="a_node47"><a xlink:href="src/templates/post-list-page.tsx" xlink:title="post&#45;list&#45;page.tsx">
<path fill="#bbfeff" stroke="black" d="M242,-166.56C242,-166.56 160,-166.56 160,-166.56 157,-166.56 154,-163.56 154,-160.56 154,-160.56 154,-154.56 154,-154.56 154,-151.56 157,-148.56 160,-148.56 160,-148.56 242,-148.56 242,-148.56 245,-148.56 248,-151.56 248,-154.56 248,-154.56 248,-160.56 248,-160.56 248,-163.56 245,-166.56 242,-166.56"/>
<text text-anchor="middle" x="201" y="-155.36" font-family="Helvetica,sans-Serif" font-size="9.00">post&#45;list&#45;page.tsx</text>
</a>
</g>
</g>
<!-- src/pages/index.tsx&#45;&gt;src/templates/post&#45;list&#45;page.tsx -->
<g id="edge35" class="edge">
<title>src/pages/index.tsx&#45;&gt;src/templates/post&#45;list&#45;page.tsx</title>
<path fill="none" stroke="#000000" stroke-width="2" stroke-opacity="0.200000" d="M111.72,-357.85C122.07,-355.89 133.15,-352.03 141,-344.56 190.7,-297.3 198.72,-208.62 199.88,-172.97"/>
<polygon fill="#000000" fill-opacity="0.200000" stroke="#000000" stroke-width="2" stroke-opacity="0.200000" points="201.97,-173.01 200.02,-166.96 197.78,-172.9 201.97,-173.01"/>
</g>
<!-- src/templates/post&#45;list&#45;page.tsx&#45;&gt;src/components/layout/index.tsx -->
<g id="edge55" class="edge">
<title>src/templates/post&#45;list&#45;page.tsx&#45;&gt;src/components/layout/index.tsx</title>
<path fill="none" stroke="#000000" stroke-width="2" stroke-opacity="0.200000" d="M209.74,-166.88C229.92,-191.16 284.21,-256.49 308.26,-285.43"/>
<polygon fill="#000000" fill-opacity="0.200000" stroke="#000000" stroke-width="2" stroke-opacity="0.200000" points="306.93,-287.12 312.38,-290.39 310.16,-284.44 306.93,-287.12"/>
</g>
<!-- src/templates/post&#45;list&#45;page.tsx&#45;&gt;src/components/post&#45;link/post&#45;list.tsx -->
<g id="edge56" class="edge">
<title>src/templates/post&#45;list&#45;page.tsx&#45;&gt;src/components/post&#45;link/post&#45;list.tsx</title>
<path fill="none" stroke="#000000" stroke-width="2" stroke-opacity="0.200000" d="M248.3,-154.42C259.09,-153.69 270.48,-152.92 280.93,-152.21"/>
<polygon fill="#000000" fill-opacity="0.200000" stroke="#000000" stroke-width="2" stroke-opacity="0.200000" points="281.11,-154.3 286.96,-151.8 280.83,-150.11 281.11,-154.3"/>
</g>
<!-- src/pages/tags.tsx -->
<g id="node48" class="node">
<title>src/pages/tags.tsx</title>
<g id="a_node48"><a xlink:href="src/pages/tags.tsx" xlink:title="tags.tsx">
<path fill="#bbfeff" stroke="black" d="M103.5,-308.56C103.5,-308.56 61.5,-308.56 61.5,-308.56 58.5,-308.56 55.5,-305.56 55.5,-302.56 55.5,-302.56 55.5,-296.56 55.5,-296.56 55.5,-293.56 58.5,-290.56 61.5,-290.56 61.5,-290.56 103.5,-290.56 103.5,-290.56 106.5,-290.56 109.5,-293.56 109.5,-296.56 109.5,-296.56 109.5,-302.56 109.5,-302.56 109.5,-305.56 106.5,-308.56 103.5,-308.56"/>
<text text-anchor="middle" x="82.5" y="-297.36" font-family="Helvetica,sans-Serif" font-size="9.00">tags.tsx</text>
</a>
</g>
</g>
<!-- src/pages/tags.tsx&#45;&gt;src/components/article/index.tsx -->
<g id="edge37" class="edge">
<title>src/pages/tags.tsx&#45;&gt;src/components/article/index.tsx</title>
<path fill="none" stroke="#000000" stroke-width="2" stroke-opacity="0.200000" d="M109.7,-303.58C119.89,-305.86 131.4,-309.33 141,-314.56 206.18,-350.09 201.05,-388.21 264,-427.56 270.85,-431.84 278.66,-435.54 286.24,-438.62"/>
<polygon fill="#000000" fill-opacity="0.200000" stroke="#000000" stroke-width="2" stroke-opacity="0.200000" points="285.62,-440.63 291.97,-440.86 287.14,-436.72 285.62,-440.63"/>
</g>
<!-- src/pages/tags.tsx&#45;&gt;src/components/layout/index.tsx -->
<g id="edge38" class="edge">
<title>src/pages/tags.tsx&#45;&gt;src/components/layout/index.tsx</title>
<path fill="none" stroke="#000000" stroke-width="2" stroke-opacity="0.200000" d="M109.71,-299.56C152.64,-299.56 237.93,-299.56 285.65,-299.56"/>
<polygon fill="#000000" fill-opacity="0.200000" stroke="#000000" stroke-width="2" stroke-opacity="0.200000" points="285.84,-301.66 291.84,-299.56 285.84,-297.46 285.84,-301.66"/>
</g>
<!-- src/pages/tags.tsx&#45;&gt;src/components/post&#45;link/post&#45;list.tsx -->
<g id="edge39" class="edge">
<title>src/pages/tags.tsx&#45;&gt;src/components/post&#45;link/post&#45;list.tsx</title>
<path fill="none" stroke="#000000" stroke-width="2" stroke-opacity="0.200000" d="M102.89,-290.52C135.64,-274.9 203.47,-241.01 256,-204.56 274.28,-191.88 293.39,-174.89 305.91,-163.17"/>
<polygon fill="#000000" fill-opacity="0.200000" stroke="#000000" stroke-width="2" stroke-opacity="0.200000" points="307.62,-164.45 310.54,-158.8 304.73,-161.39 307.62,-164.45"/>
</g>
<!-- src/styles/generate_variables.test.ts -->
<g id="node49" class="node">
<title>src/styles/generate_variables.test.ts</title>
<g id="a_node49"><a xlink:href="src/styles/generate_variables.test.ts" xlink:title="generate_variables.test.ts">
<path fill="#ddfeff" stroke="black" d="M675,-694.56C675,-694.56 554,-694.56 554,-694.56 551,-694.56 548,-691.56 548,-688.56 548,-688.56 548,-682.56 548,-682.56 548,-679.56 551,-676.56 554,-676.56 554,-676.56 675,-676.56 675,-676.56 678,-676.56 681,-679.56 681,-682.56 681,-682.56 681,-688.56 681,-688.56 681,-691.56 678,-694.56 675,-694.56"/>
<text text-anchor="middle" x="614.5" y="-683.36" font-family="Helvetica,sans-Serif" font-size="9.00">generate_variables.test.ts</text>
</a>
</g>
</g>
<!-- src/styles/generate_variables.test.ts&#45;&gt;src/styles/variables.ts -->
<g id="edge40" class="edge">
<title>src/styles/generate_variables.test.ts&#45;&gt;src/styles/variables.ts</title>
<path fill="none" stroke="#000000" stroke-width="2" stroke-opacity="0.200000" d="M681.16,-679.93C704.72,-677.91 730.53,-675.7 751.15,-673.93"/>
<polygon fill="#000000" fill-opacity="0.200000" stroke="#000000" stroke-width="2" stroke-opacity="0.200000" points="751.58,-676.01 757.38,-673.4 751.22,-671.82 751.58,-676.01"/>
</g>
<!-- src/styles/mediaQueries.ts -->
<g id="node51" class="node">
<title>src/styles/mediaQueries.ts</title>
<g id="a_node51"><a xlink:href="src/styles/mediaQueries.ts" xlink:title="mediaQueries.ts">
<path fill="#ccffcc" stroke="black" d="M653,-634.56C653,-634.56 576,-634.56 576,-634.56 573,-634.56 570,-631.56 570,-628.56 570,-628.56 570,-622.56 570,-622.56 570,-619.56 573,-616.56 576,-616.56 576,-616.56 653,-616.56 653,-616.56 656,-616.56 659,-619.56 659,-622.56 659,-622.56 659,-628.56 659,-628.56 659,-631.56 656,-634.56 653,-634.56"/>
<text text-anchor="middle" x="614.5" y="-623.36" font-family="Helvetica,sans-Serif" font-size="9.00">mediaQueries.ts</text>
</a>
</g>
</g>
<!-- src/templates/ArchiveMonthPage.tsx -->
<g id="node52" class="node">
<title>src/templates/ArchiveMonthPage.tsx</title>
<g id="a_node52"><a xlink:href="src/templates/ArchiveMonthPage.tsx" xlink:title="ArchiveMonthPage.tsx">
<path fill="#bbfeff" stroke="black" d="M135,-115.56C135,-115.56 30,-115.56 30,-115.56 27,-115.56 24,-112.56 24,-109.56 24,-109.56 24,-103.56 24,-103.56 24,-100.56 27,-97.56 30,-97.56 30,-97.56 135,-97.56 135,-97.56 138,-97.56 141,-100.56 141,-103.56 141,-103.56 141,-109.56 141,-109.56 141,-112.56 138,-115.56 135,-115.56"/>
<text text-anchor="middle" x="82.5" y="-104.36" font-family="Helvetica,sans-Serif" font-size="9.00">ArchiveMonthPage.tsx</text>
</a>
</g>
</g>
<!-- src/templates/ArchiveMonthPage.tsx&#45;&gt;src/templates/post&#45;list&#45;page.tsx -->
<g id="edge46" class="edge">
<title>src/templates/ArchiveMonthPage.tsx&#45;&gt;src/templates/post&#45;list&#45;page.tsx</title>
<path fill="none" stroke="#000000" stroke-width="2" stroke-opacity="0.200000" d="M124.21,-115.59C129.94,-117.32 135.68,-119.3 141,-121.56 155.62,-127.77 170.89,-137.18 182.23,-144.82"/>
<polygon fill="#000000" fill-opacity="0.200000" stroke="#000000" stroke-width="2" stroke-opacity="0.200000" points="181.33,-146.75 187.47,-148.41 183.7,-143.28 181.33,-146.75"/>
</g>
<!-- src/templates/ArchiveYearPage.tsx -->
<g id="node53" class="node">
<title>src/templates/ArchiveYearPage.tsx</title>
<g id="a_node53"><a xlink:href="src/templates/ArchiveYearPage.tsx" xlink:title="ArchiveYearPage.tsx">
<path fill="#bbfeff" stroke="black" d="M130,-175.56C130,-175.56 35,-175.56 35,-175.56 32,-175.56 29,-172.56 29,-169.56 29,-169.56 29,-163.56 29,-163.56 29,-160.56 32,-157.56 35,-157.56 35,-157.56 130,-157.56 130,-157.56 133,-157.56 136,-160.56 136,-163.56 136,-163.56 136,-169.56 136,-169.56 136,-172.56 133,-175.56 130,-175.56"/>
<text text-anchor="middle" x="82.5" y="-164.36" font-family="Helvetica,sans-Serif" font-size="9.00">ArchiveYearPage.tsx</text>
</a>
</g>
</g>
<!-- src/templates/ArchiveYearPage.tsx&#45;&gt;src/templates/post&#45;list&#45;page.tsx -->
<g id="edge47" class="edge">
<title>src/templates/ArchiveYearPage.tsx&#45;&gt;src/templates/post&#45;list&#45;page.tsx</title>
<path fill="none" stroke="#000000" stroke-width="2" stroke-opacity="0.200000" d="M136.3,-162.48C140.17,-162.18 144.07,-161.88 147.94,-161.58"/>
<polygon fill="#000000" fill-opacity="0.200000" stroke="#000000" stroke-width="2" stroke-opacity="0.200000" points="148.16,-163.67 153.98,-161.12 147.83,-159.49 148.16,-163.67"/>
</g>
<!-- src/templates/BlogPost.tsx -->
<g id="node54" class="node">
<title>src/templates/BlogPost.tsx</title>
<g id="a_node54"><a xlink:href="src/templates/BlogPost.tsx" xlink:title="BlogPost.tsx">
<path fill="#bbfeff" stroke="black" d="M112,-85.56C112,-85.56 53,-85.56 53,-85.56 50,-85.56 47,-82.56 47,-79.56 47,-79.56 47,-73.56 47,-73.56 47,-70.56 50,-67.56 53,-67.56 53,-67.56 112,-67.56 112,-67.56 115,-67.56 118,-70.56 118,-73.56 118,-73.56 118,-79.56 118,-79.56 118,-82.56 115,-85.56 112,-85.56"/>
<text text-anchor="middle" x="82.5" y="-74.36" font-family="Helvetica,sans-Serif" font-size="9.00">BlogPost.tsx</text>
</a>
</g>
</g>
<!-- src/templates/BlogPost.tsx&#45;&gt;src/components/article&#45;elements/index.tsx -->
<g id="edge48" class="edge">
<title>src/templates/BlogPost.tsx&#45;&gt;src/components/article&#45;elements/index.tsx</title>
<path fill="none" stroke="#000000" stroke-width="2" stroke-opacity="0.200000" d="M118.22,-71.97C129.6,-70.64 142.32,-69.34 154,-68.56 312.75,-58.02 502.96,-58.44 579.32,-59.14"/>
<polygon fill="#000000" fill-opacity="0.200000" stroke="#000000" stroke-width="2" stroke-opacity="0.200000" points="579.47,-61.24 585.49,-59.2 579.51,-57.04 579.47,-61.24"/>
</g>
<!-- src/templates/BlogPost.tsx&#45;&gt;src/components/content/tags.tsx -->
<g id="edge49" class="edge">
<title>src/templates/BlogPost.tsx&#45;&gt;src/components/content/tags.tsx</title>
<path fill="none" stroke="#000000" stroke-width="2" stroke-opacity="0.200000" d="M118.25,-74.95C190.64,-71.97 352.41,-67.33 370,-84.56 378.18,-92.58 367.95,-178.53 375,-187.56 384.63,-199.88 400.91,-205.52 415.66,-208.01"/>
<polygon fill="#000000" fill-opacity="0.200000" stroke="#000000" stroke-width="2" stroke-opacity="0.200000" points="415.63,-210.13 421.87,-208.9 416.22,-205.97 415.63,-210.13"/>
</g>
<!-- src/templates/BlogPost.tsx&#45;&gt;src/utils/asserts&#45;non&#45;null.ts -->
<g id="edge50" class="edge">
<title>src/templates/BlogPost.tsx&#45;&gt;src/utils/asserts&#45;non&#45;null.ts</title>
<path fill="none" stroke="#000000" stroke-width="2" stroke-opacity="0.200000" d="M108.32,-67.56C150.99,-52.92 241.24,-25.56 320,-25.56 320,-25.56 320,-25.56 615.5,-25.56 726.12,-25.56 787.45,40.29 864,-39.56 885.84,-62.34 852.58,-582.68 872,-607.56 872.82,-608.61 873.7,-609.59 874.64,-610.51"/>
<polygon fill="#000000" fill-opacity="0.200000" stroke="#000000" stroke-width="2" stroke-opacity="0.200000" points="873.76,-612.49 879.77,-614.59 876.38,-609.21 873.76,-612.49"/>
</g>
<!-- src/templates/article&#45;page.tsx -->
<g id="node55" class="node">
<title>src/templates/article&#45;page.tsx</title>
<g id="a_node55"><a xlink:href="src/templates/article-page.tsx" xlink:title="article&#45;page.tsx">
<path fill="#bbfeff" stroke="black" d="M238,-107.56C238,-107.56 164,-107.56 164,-107.56 161,-107.56 158,-104.56 158,-101.56 158,-101.56 158,-95.56 158,-95.56 158,-92.56 161,-89.56 164,-89.56 164,-89.56 238,-89.56 238,-89.56 241,-89.56 244,-92.56 244,-95.56 244,-95.56 244,-101.56 244,-101.56 244,-104.56 241,-107.56 238,-107.56"/>
<text text-anchor="middle" x="201" y="-96.36" font-family="Helvetica,sans-Serif" font-size="9.00">article&#45;page.tsx</text>
</a>
</g>
</g>
<!-- src/templates/BlogPost.tsx&#45;&gt;src/templates/article&#45;page.tsx -->
<g id="edge51" class="edge">
<title>src/templates/BlogPost.tsx&#45;&gt;src/templates/article&#45;page.tsx</title>
<path fill="none" stroke="#000000" stroke-width="2" stroke-opacity="0.200000" d="M118.14,-83.1C128.66,-85.09 140.43,-87.31 151.68,-89.44"/>
<polygon fill="#000000" fill-opacity="0.200000" stroke="#000000" stroke-width="2" stroke-opacity="0.200000" points="151.59,-91.56 157.87,-90.61 152.37,-87.43 151.59,-91.56"/>
</g>
<!-- src/templates/article&#45;page.tsx&#45;&gt;src/components/content/article&#45;styles.ts -->
<g id="edge53" class="edge">
<title>src/templates/article&#45;page.tsx&#45;&gt;src/components/content/article&#45;styles.ts</title>
<path fill="none" stroke="#000000" stroke-width="2" stroke-opacity="0.200000" d="M244.06,-92.49C287.95,-87.21 352.76,-82.77 370,-99.56 382.34,-111.58 363.9,-241.38 375,-254.56 381.49,-262.26 390.78,-266.67 400.57,-269.07"/>
<polygon fill="#000000" fill-opacity="0.200000" stroke="#000000" stroke-width="2" stroke-opacity="0.200000" points="400.42,-271.18 406.71,-270.32 401.25,-267.06 400.42,-271.18"/>
</g>
<!-- src/templates/article&#45;page.tsx&#45;&gt;src/components/layout/index.tsx -->
<g id="edge54" class="edge">
<title>src/templates/article&#45;page.tsx&#45;&gt;src/components/layout/index.tsx</title>
<path fill="none" stroke="#000000" stroke-width="2" stroke-opacity="0.200000" d="M218.64,-107.68C230.97,-115.34 247.11,-127.45 256,-142.56 266.3,-160.07 257.61,-168.28 264,-187.56 276.18,-224.35 298.55,-264.2 311.01,-285.02"/>
<polygon fill="#000000" fill-opacity="0.200000" stroke="#000000" stroke-width="2" stroke-opacity="0.200000" points="309.34,-286.32 314.25,-290.37 312.94,-284.15 309.34,-286.32"/>
</g>
<!-- src/templates/IndividualTagPage.tsx -->
<g id="node56" class="node">
<title>src/templates/IndividualTagPage.tsx</title>
<g id="a_node56"><a xlink:href="src/templates/IndividualTagPage.tsx" xlink:title="IndividualTagPage.tsx">
<path fill="#bbfeff" stroke="black" d="M133.5,-145.56C133.5,-145.56 31.5,-145.56 31.5,-145.56 28.5,-145.56 25.5,-142.56 25.5,-139.56 25.5,-139.56 25.5,-133.56 25.5,-133.56 25.5,-130.56 28.5,-127.56 31.5,-127.56 31.5,-127.56 133.5,-127.56 133.5,-127.56 136.5,-127.56 139.5,-130.56 139.5,-133.56 139.5,-133.56 139.5,-139.56 139.5,-139.56 139.5,-142.56 136.5,-145.56 133.5,-145.56"/>
<text text-anchor="middle" x="82.5" y="-134.36" font-family="Helvetica,sans-Serif" font-size="9.00">IndividualTagPage.tsx</text>
</a>
</g>
</g>
<!-- src/templates/IndividualTagPage.tsx&#45;&gt;src/templates/post&#45;list&#45;page.tsx -->
<g id="edge52" class="edge">
<title>src/templates/IndividualTagPage.tsx&#45;&gt;src/templates/post&#45;list&#45;page.tsx</title>
<path fill="none" stroke="#000000" stroke-width="2" stroke-opacity="0.200000" d="M133.58,-145.59C138.27,-146.43 143.02,-147.29 147.72,-148.14"/>
<polygon fill="#000000" fill-opacity="0.200000" stroke="#000000" stroke-width="2" stroke-opacity="0.200000" points="147.36,-150.21 153.64,-149.21 148.11,-146.07 147.36,-150.21"/>
</g>
<!-- src/utils/type&#45;utils.ts -->
<g id="node58" class="node">
<title>src/utils/type&#45;utils.ts</title>
<g id="a_node58"><a xlink:href="src/utils/type-utils.ts" xlink:title="type&#45;utils.ts">
<path fill="#ccffcc" stroke="black" d="M958.5,-601.56C958.5,-601.56 900.5,-601.56 900.5,-601.56 897.5,-601.56 894.5,-598.56 894.5,-595.56 894.5,-595.56 894.5,-589.56 894.5,-589.56 894.5,-586.56 897.5,-583.56 900.5,-583.56 900.5,-583.56 958.5,-583.56 958.5,-583.56 961.5,-583.56 964.5,-586.56 964.5,-589.56 964.5,-589.56 964.5,-595.56 964.5,-595.56 964.5,-598.56 961.5,-601.56 958.5,-601.56"/>
<text text-anchor="middle" x="929.5" y="-590.36" font-family="Helvetica,sans-Serif" font-size="9.00">type&#45;utils.ts</text>
</a>
</g>
</g>
</g>
</svg>
