<?xml version="1.0" encoding="UTF-8" standalone="no"?>
<!DOCTYPE svg PUBLIC "-//W3C//DTD SVG 1.1//EN"
 "http://www.w3.org/Graphics/SVG/1.1/DTD/svg11.dtd">
<!-- Generated by graphviz version 2.40.1 (20161225.0304)
 -->
<!-- Title: dependency&#45;cruiser output Pages: 1 -->
<svg width="796pt" height="875pt"
 viewBox="0.00 0.00 796.00 874.66" xmlns="http://www.w3.org/2000/svg" xmlns:xlink="http://www.w3.org/1999/xlink">
<g id="graph0" class="graph" transform="scale(1 1) rotate(0) translate(4 870.6574)">
<title>dependency&#45;cruiser output</title>
<polygon fill="#ffffff" stroke="transparent" points="-4,4 -4,-870.6574 792,-870.6574 792,4 -4,4"/>
<g id="clust1" class="cluster">
<title>cluster_src</title>
<path fill="#ffffff" stroke="#000000" stroke-width="2" d="M20,-8.6574C20,-8.6574 768,-8.6574 768,-8.6574 774,-8.6574 780,-14.6574 780,-20.6574 780,-20.6574 780,-846.6574 780,-846.6574 780,-852.6574 774,-858.6574 768,-858.6574 768,-858.6574 20,-858.6574 20,-858.6574 14,-858.6574 8,-852.6574 8,-846.6574 8,-846.6574 8,-20.6574 8,-20.6574 8,-14.6574 14,-8.6574 20,-8.6574"/>
<text text-anchor="middle" x="394" y="-847.4574" font-family="Helvetica,sans-Serif" font-weight="bold" font-size="9.00" fill="#000000">src</text>
</g>
<g id="clust2" class="cluster">
<title>cluster_src/components</title>
<path fill="#ffffff" stroke="#000000" stroke-width="2" d="M168,-142.6574C168,-142.6574 760,-142.6574 760,-142.6574 766,-142.6574 772,-148.6574 772,-154.6574 772,-154.6574 772,-636.6574 772,-636.6574 772,-642.6574 766,-648.6574 760,-648.6574 760,-648.6574 168,-648.6574 168,-648.6574 162,-648.6574 156,-642.6574 156,-636.6574 156,-636.6574 156,-154.6574 156,-154.6574 156,-148.6574 162,-142.6574 168,-142.6574"/>
<text text-anchor="middle" x="464" y="-637.4574" font-family="Helvetica,sans-Serif" font-weight="bold" font-size="9.00" fill="#000000">components</text>
</g>
<g id="clust3" class="cluster">
<title>cluster_src/components/atoms</title>
<path fill="#ffffff" stroke="#000000" stroke-width="2" d="M403,-540.6574C403,-540.6574 752,-540.6574 752,-540.6574 758,-540.6574 764,-546.6574 764,-552.6574 764,-552.6574 764,-610.6574 764,-610.6574 764,-616.6574 758,-622.6574 752,-622.6574 752,-622.6574 403,-622.6574 403,-622.6574 397,-622.6574 391,-616.6574 391,-610.6574 391,-610.6574 391,-552.6574 391,-552.6574 391,-546.6574 397,-540.6574 403,-540.6574"/>
<text text-anchor="middle" x="577.5" y="-611.4574" font-family="Helvetica,sans-Serif" font-weight="bold" font-size="9.00" fill="#000000">atoms</text>
</g>
<g id="clust4" class="cluster">
<title>cluster_src/components/content</title>
<path fill="#ffffff" stroke="#000000" stroke-width="2" d="M288,-270.6574C288,-270.6574 481,-270.6574 481,-270.6574 487,-270.6574 493,-276.6574 493,-282.6574 493,-282.6574 493,-370.6574 493,-370.6574 493,-376.6574 487,-382.6574 481,-382.6574 481,-382.6574 288,-382.6574 288,-382.6574 282,-382.6574 276,-376.6574 276,-370.6574 276,-370.6574 276,-282.6574 276,-282.6574 276,-276.6574 282,-270.6574 288,-270.6574"/>
<text text-anchor="middle" x="384.5" y="-371.4574" font-family="Helvetica,sans-Serif" font-weight="bold" font-size="9.00" fill="#000000">content</text>
</g>
<g id="clust5" class="cluster">
<title>cluster_src/components/embeddeds</title>
<path fill="#ffffff" stroke="#000000" stroke-width="2" d="M176,-271.6574C176,-271.6574 239,-271.6574 239,-271.6574 245,-271.6574 251,-277.6574 251,-283.6574 251,-283.6574 251,-311.6574 251,-311.6574 251,-317.6574 245,-323.6574 239,-323.6574 239,-323.6574 176,-323.6574 176,-323.6574 170,-323.6574 164,-317.6574 164,-311.6574 164,-311.6574 164,-283.6574 164,-283.6574 164,-277.6574 170,-271.6574 176,-271.6574"/>
<text text-anchor="middle" x="207.5" y="-312.4574" font-family="Helvetica,sans-Serif" font-weight="bold" font-size="9.00" fill="#000000">embeddeds</text>
</g>
<g id="clust6" class="cluster">
<title>cluster_src/components/header</title>
<path fill="#ffffff" stroke="#000000" stroke-width="2" d="M291,-150.6574C291,-150.6574 341,-150.6574 341,-150.6574 347,-150.6574 353,-156.6574 353,-162.6574 353,-162.6574 353,-190.6574 353,-190.6574 353,-196.6574 347,-202.6574 341,-202.6574 341,-202.6574 291,-202.6574 291,-202.6574 285,-202.6574 279,-196.6574 279,-190.6574 279,-190.6574 279,-162.6574 279,-162.6574 279,-156.6574 285,-150.6574 291,-150.6574"/>
<text text-anchor="middle" x="316" y="-191.4574" font-family="Helvetica,sans-Serif" font-weight="bold" font-size="9.00" fill="#000000">header</text>
</g>
<g id="clust7" class="cluster">
<title>cluster_src/components/layout</title>
<path fill="#ffffff" stroke="#000000" stroke-width="2" d="M182.5,-150.6574C182.5,-150.6574 232.5,-150.6574 232.5,-150.6574 238.5,-150.6574 244.5,-156.6574 244.5,-162.6574 244.5,-162.6574 244.5,-190.6574 244.5,-190.6574 244.5,-196.6574 238.5,-202.6574 232.5,-202.6574 232.5,-202.6574 182.5,-202.6574 182.5,-202.6574 176.5,-202.6574 170.5,-196.6574 170.5,-190.6574 170.5,-190.6574 170.5,-162.6574 170.5,-162.6574 170.5,-156.6574 176.5,-150.6574 182.5,-150.6574"/>
<text text-anchor="middle" x="207.5" y="-191.4574" font-family="Helvetica,sans-Serif" font-weight="bold" font-size="9.00" fill="#000000">layout</text>
</g>
<g id="clust8" class="cluster">
<title>cluster_src/components/post&#45;link</title>
<path fill="#ffffff" stroke="#000000" stroke-width="2" d="M177.5,-210.6574C177.5,-210.6574 483.5,-210.6574 483.5,-210.6574 489.5,-210.6574 495.5,-216.6574 495.5,-222.6574 495.5,-222.6574 495.5,-250.6574 495.5,-250.6574 495.5,-256.6574 489.5,-262.6574 483.5,-262.6574 483.5,-262.6574 177.5,-262.6574 177.5,-262.6574 171.5,-262.6574 165.5,-256.6574 165.5,-250.6574 165.5,-250.6574 165.5,-222.6574 165.5,-222.6574 165.5,-216.6574 171.5,-210.6574 177.5,-210.6574"/>
<text text-anchor="middle" x="330.5" y="-251.4574" font-family="Helvetica,sans-Serif" font-weight="bold" font-size="9.00" fill="#000000">post&#45;link</text>
</g>
<g id="clust9" class="cluster">
<title>cluster_src/components/sidebar</title>
<path fill="#ffffff" stroke="#000000" stroke-width="2" d="M271,-390.6574C271,-390.6574 483.5,-390.6574 483.5,-390.6574 489.5,-390.6574 495.5,-396.6574 495.5,-402.6574 495.5,-402.6574 495.5,-460.6574 495.5,-460.6574 495.5,-466.6574 489.5,-472.6574 483.5,-472.6574 483.5,-472.6574 271,-472.6574 271,-472.6574 265,-472.6574 259,-466.6574 259,-460.6574 259,-460.6574 259,-402.6574 259,-402.6574 259,-396.6574 265,-390.6574 271,-390.6574"/>
<text text-anchor="middle" x="377.25" y="-461.4574" font-family="Helvetica,sans-Serif" font-weight="bold" font-size="9.00" fill="#000000">sidebar</text>
</g>
<g id="clust10" class="cluster">
<title>cluster_src/components/table&#45;of&#45;contents</title>
<path fill="#ffffff" stroke="#000000" stroke-width="2" d="M415.5,-480.6574C415.5,-480.6574 496.5,-480.6574 496.5,-480.6574 502.5,-480.6574 508.5,-486.6574 508.5,-492.6574 508.5,-492.6574 508.5,-520.6574 508.5,-520.6574 508.5,-526.6574 502.5,-532.6574 496.5,-532.6574 496.5,-532.6574 415.5,-532.6574 415.5,-532.6574 409.5,-532.6574 403.5,-526.6574 403.5,-520.6574 403.5,-520.6574 403.5,-492.6574 403.5,-492.6574 403.5,-486.6574 409.5,-480.6574 415.5,-480.6574"/>
<text text-anchor="middle" x="456" y="-521.4574" font-family="Helvetica,sans-Serif" font-weight="bold" font-size="9.00" fill="#000000">table&#45;of&#45;contents</text>
</g>
<g id="clust11" class="cluster">
<title>cluster_src/gatsby&#45;node</title>
<path fill="#ffffff" stroke="#000000" stroke-width="2" d="M427.5,-780.6574C427.5,-780.6574 484.5,-780.6574 484.5,-780.6574 490.5,-780.6574 496.5,-786.6574 496.5,-792.6574 496.5,-792.6574 496.5,-820.6574 496.5,-820.6574 496.5,-826.6574 490.5,-832.6574 484.5,-832.6574 484.5,-832.6574 427.5,-832.6574 427.5,-832.6574 421.5,-832.6574 415.5,-826.6574 415.5,-820.6574 415.5,-820.6574 415.5,-792.6574 415.5,-792.6574 415.5,-786.6574 421.5,-780.6574 427.5,-780.6574"/>
<text text-anchor="middle" x="456" y="-821.4574" font-family="Helvetica,sans-Serif" font-weight="bold" font-size="9.00" fill="#000000">gatsby&#45;node</text>
</g>
<g id="clust12" class="cluster">
<title>cluster_src/libs</title>
<path fill="#ffffff" stroke="#000000" stroke-width="2" d="M562.5,-658.6574C562.5,-658.6574 732,-658.6574 732,-658.6574 738,-658.6574 744,-664.6574 744,-670.6574 744,-670.6574 744,-818.6574 744,-818.6574 744,-824.6574 738,-830.6574 732,-830.6574 732,-830.6574 562.5,-830.6574 562.5,-830.6574 556.5,-830.6574 550.5,-824.6574 550.5,-818.6574 550.5,-818.6574 550.5,-670.6574 550.5,-670.6574 550.5,-664.6574 556.5,-658.6574 562.5,-658.6574"/>
<text text-anchor="middle" x="647.25" y="-819.4574" font-family="Helvetica,sans-Serif" font-weight="bold" font-size="9.00" fill="#000000">libs</text>
</g>
<g id="clust13" class="cluster">
<title>cluster_src/pages</title>
<path fill="#ffffff" stroke="#000000" stroke-width="2" d="M57,-106.6574C57,-106.6574 107,-106.6574 107,-106.6574 113,-106.6574 119,-112.6574 119,-118.6574 119,-118.6574 119,-206.6574 119,-206.6574 119,-212.6574 113,-218.6574 107,-218.6574 107,-218.6574 57,-218.6574 57,-218.6574 51,-218.6574 45,-212.6574 45,-206.6574 45,-206.6574 45,-118.6574 45,-118.6574 45,-112.6574 51,-106.6574 57,-106.6574"/>
<text text-anchor="middle" x="82" y="-207.4574" font-family="Helvetica,sans-Serif" font-weight="bold" font-size="9.00" fill="#000000">pages</text>
</g>
<g id="clust14" class="cluster">
<title>cluster_src/state</title>
<path fill="#ffffff" stroke="#000000" stroke-width="2" d="M59,-701.6574C59,-701.6574 238.5,-701.6574 238.5,-701.6574 244.5,-701.6574 250.5,-707.6574 250.5,-713.6574 250.5,-713.6574 250.5,-775.6574 250.5,-775.6574 250.5,-781.6574 244.5,-787.6574 238.5,-787.6574 238.5,-787.6574 59,-787.6574 59,-787.6574 53,-787.6574 47,-781.6574 47,-775.6574 47,-775.6574 47,-713.6574 47,-713.6574 47,-707.6574 53,-701.6574 59,-701.6574"/>
<text text-anchor="middle" x="148.75" y="-776.4574" font-family="Helvetica,sans-Serif" font-weight="bold" font-size="9.00" fill="#000000">state</text>
</g>
<g id="clust15" class="cluster">
<title>cluster_src/state/ui</title>
<path fill="#ffffff" stroke="#000000" stroke-width="2" d="M184.5,-709.6574C184.5,-709.6574 230.5,-709.6574 230.5,-709.6574 236.5,-709.6574 242.5,-715.6574 242.5,-721.6574 242.5,-721.6574 242.5,-749.6574 242.5,-749.6574 242.5,-755.6574 236.5,-761.6574 230.5,-761.6574 230.5,-761.6574 184.5,-761.6574 184.5,-761.6574 178.5,-761.6574 172.5,-755.6574 172.5,-749.6574 172.5,-749.6574 172.5,-721.6574 172.5,-721.6574 172.5,-715.6574 178.5,-709.6574 184.5,-709.6574"/>
<text text-anchor="middle" x="207.5" y="-750.4574" font-family="Helvetica,sans-Serif" font-weight="bold" font-size="9.00" fill="#000000">ui</text>
</g>
<g id="clust16" class="cluster">
<title>cluster_src/styles</title>
<path fill="#ffffff" stroke="#000000" stroke-width="2" d="M558,-22.6574C558,-22.6574 748,-22.6574 748,-22.6574 754,-22.6574 760,-28.6574 760,-34.6574 760,-34.6574 760,-122.6574 760,-122.6574 760,-128.6574 754,-134.6574 748,-134.6574 748,-134.6574 558,-134.6574 558,-134.6574 552,-134.6574 546,-128.6574 546,-122.6574 546,-122.6574 546,-34.6574 546,-34.6574 546,-28.6574 552,-22.6574 558,-22.6574"/>
<text text-anchor="middle" x="653" y="-123.4574" font-family="Helvetica,sans-Serif" font-weight="bold" font-size="9.00" fill="#000000">styles</text>
</g>
<g id="clust17" class="cluster">
<title>cluster_src/templates</title>
<path fill="#ffffff" stroke="#000000" stroke-width="2" d="M28,-226.6574C28,-226.6574 136,-226.6574 136,-226.6574 142,-226.6574 148,-232.6574 148,-238.6574 148,-238.6574 148,-356.6574 148,-356.6574 148,-362.6574 142,-368.6574 136,-368.6574 136,-368.6574 28,-368.6574 28,-368.6574 22,-368.6574 16,-362.6574 16,-356.6574 16,-356.6574 16,-238.6574 16,-238.6574 16,-232.6574 22,-226.6574 28,-226.6574"/>
<text text-anchor="middle" x="82" y="-357.4574" font-family="Helvetica,sans-Serif" font-weight="bold" font-size="9.00" fill="#000000">templates</text>
</g>
<g id="clust18" class="cluster">
<title>cluster_src/tests</title>
<path fill="#ffffff" stroke="#000000" stroke-width="2" d="M385,-656.6574C385,-656.6574 526,-656.6574 526,-656.6574 532,-656.6574 538,-662.6574 538,-668.6574 538,-668.6574 538,-760.6574 538,-760.6574 538,-766.6574 532,-772.6574 526,-772.6574 526,-772.6574 385,-772.6574 385,-772.6574 379,-772.6574 373,-766.6574 373,-760.6574 373,-760.6574 373,-668.6574 373,-668.6574 373,-662.6574 379,-656.6574 385,-656.6574"/>
<text text-anchor="middle" x="455.5" y="-761.4574" font-family="Helvetica,sans-Serif" font-weight="bold" font-size="9.00" fill="#000000">tests</text>
</g>
<g id="clust19" class="cluster">
<title>cluster_src/tests/libs</title>
<path fill="#ffffff" stroke="#000000" stroke-width="2" d="M393,-664.6574C393,-664.6574 518,-664.6574 518,-664.6574 524,-664.6574 530,-670.6574 530,-676.6574 530,-676.6574 530,-734.6574 530,-734.6574 530,-740.6574 524,-746.6574 518,-746.6574 518,-746.6574 393,-746.6574 393,-746.6574 387,-746.6574 381,-740.6574 381,-734.6574 381,-734.6574 381,-676.6574 381,-676.6574 381,-670.6574 387,-664.6574 393,-664.6574"/>
<text text-anchor="middle" x="455.5" y="-735.4574" font-family="Helvetica,sans-Serif" font-weight="bold" font-size="9.00" fill="#000000">libs</text>
</g>
<g id="clust20" class="cluster">
<title>cluster_src/utils</title>
<path fill="#ffffff" stroke="#000000" stroke-width="2" d="M45.5,-16.6574C45.5,-16.6574 118.5,-16.6574 118.5,-16.6574 124.5,-16.6574 130.5,-22.6574 130.5,-28.6574 130.5,-28.6574 130.5,-86.6574 130.5,-86.6574 130.5,-92.6574 124.5,-98.6574 118.5,-98.6574 118.5,-98.6574 45.5,-98.6574 45.5,-98.6574 39.5,-98.6574 33.5,-92.6574 33.5,-86.6574 33.5,-86.6574 33.5,-28.6574 33.5,-28.6574 33.5,-22.6574 39.5,-16.6574 45.5,-16.6574"/>
<text text-anchor="middle" x="82" y="-87.4574" font-family="Helvetica,sans-Serif" font-weight="bold" font-size="9.00" fill="#000000">utils</text>
</g>
<!-- src/components/atoms/Colorized.tsx -->
<g id="node1" class="node">
<title>src/components/atoms/Colorized.tsx</title>
<g id="a_node1"><a xlink:href="src/components/atoms/Colorized.tsx" xlink:title="Colorized.tsx">
<path fill="#bbfeff" stroke="#000000" d="M486.5,-566.6574C486.5,-566.6574 424.5,-566.6574 424.5,-566.6574 421.5,-566.6574 418.5,-563.6574 418.5,-560.6574 418.5,-560.6574 418.5,-554.6574 418.5,-554.6574 418.5,-551.6574 421.5,-548.6574 424.5,-548.6574 424.5,-548.6574 486.5,-548.6574 486.5,-548.6574 489.5,-548.6574 492.5,-551.6574 492.5,-554.6574 492.5,-554.6574 492.5,-560.6574 492.5,-560.6574 492.5,-563.6574 489.5,-566.6574 486.5,-566.6574"/>
<text text-anchor="middle" x="455.5" y="-555.4574" font-family="Helvetica,sans-Serif" font-size="9.00" fill="#000000">Colorized.tsx</text>
</a>
</g>
</g>
<!-- src/styles/colorScheme.ts -->
<g id="node2" class="node">
<title>src/styles/colorScheme.ts</title>
<g id="a_node2"><a xlink:href="src/styles/colorScheme.ts" xlink:title="colorScheme.ts">
<path fill="#ddfeff" stroke="#000000" d="M746,-78.6574C746,-78.6574 672,-78.6574 672,-78.6574 669,-78.6574 666,-75.6574 666,-72.6574 666,-72.6574 666,-66.6574 666,-66.6574 666,-63.6574 669,-60.6574 672,-60.6574 672,-60.6574 746,-60.6574 746,-60.6574 749,-60.6574 752,-63.6574 752,-66.6574 752,-66.6574 752,-72.6574 752,-72.6574 752,-75.6574 749,-78.6574 746,-78.6574"/>
<text text-anchor="middle" x="709" y="-67.4574" font-family="Helvetica,sans-Serif" font-size="9.00" fill="#000000">colorScheme.ts</text>
</a>
</g>
</g>
<!-- src/components/atoms/Colorized.tsx&#45;&gt;src/styles/colorScheme.ts -->
<g id="edge1" class="edge">
<title>src/components/atoms/Colorized.tsx&#45;&gt;src/styles/colorScheme.ts</title>
<path fill="none" stroke="#000000" stroke-width="2" stroke-opacity="0.200000" d="M492.8049,-555.2301C508.4143,-552.4603 525.7381,-546.8503 538,-535.6574 679.5303,-406.4663 704.2079,-150.1212 708.2495,-84.9875"/>
<polygon fill="#000000" fill-opacity="0.200000" stroke="#000000" stroke-width="2" stroke-opacity="0.200000" points="710.3477,-85.0772 708.5968,-78.9662 706.1547,-84.8353 710.3477,-85.0772"/>
</g>
<!-- src/components/atoms/anchor&#45;or&#45;link.tsx -->
<g id="node3" class="node">
<title>src/components/atoms/anchor&#45;or&#45;link.tsx</title>
<g id="a_node3"><a xlink:href="src/components/atoms/anchor-or-link.tsx" xlink:title="anchor&#45;or&#45;link.tsx">
<path fill="#bbfeff" stroke="#000000" d="M750,-566.6574C750,-566.6574 668,-566.6574 668,-566.6574 665,-566.6574 662,-563.6574 662,-560.6574 662,-560.6574 662,-554.6574 662,-554.6574 662,-551.6574 665,-548.6574 668,-548.6574 668,-548.6574 750,-548.6574 750,-548.6574 753,-548.6574 756,-551.6574 756,-554.6574 756,-554.6574 756,-560.6574 756,-560.6574 756,-563.6574 753,-566.6574 750,-566.6574"/>
<text text-anchor="middle" x="709" y="-555.4574" font-family="Helvetica,sans-Serif" font-size="9.00" fill="#000000">anchor&#45;or&#45;link.tsx</text>
</a>
</g>
</g>
<!-- src/components/atoms/mdx&#45;components.tsx -->
<g id="node4" class="node">
<title>src/components/atoms/mdx&#45;components.tsx</title>
<g id="a_node4"><a xlink:href="src/components/atoms/mdx-components.tsx" xlink:title="mdx&#45;components.tsx">
<path fill="#bbfeff" stroke="#000000" d="M506,-596.6574C506,-596.6574 405,-596.6574 405,-596.6574 402,-596.6574 399,-593.6574 399,-590.6574 399,-590.6574 399,-584.6574 399,-584.6574 399,-581.6574 402,-578.6574 405,-578.6574 405,-578.6574 506,-578.6574 506,-578.6574 509,-578.6574 512,-581.6574 512,-584.6574 512,-584.6574 512,-590.6574 512,-590.6574 512,-593.6574 509,-596.6574 506,-596.6574"/>
<text text-anchor="middle" x="455.5" y="-585.4574" font-family="Helvetica,sans-Serif" font-size="9.00" fill="#000000">mdx&#45;components.tsx</text>
</a>
</g>
</g>
<!-- src/styles/styleValues.ts -->
<g id="node5" class="node">
<title>src/styles/styleValues.ts</title>
<g id="a_node5"><a xlink:href="src/styles/styleValues.ts" xlink:title="styleValues.ts">
<path fill="#ddfeff" stroke="#000000" d="M631,-78.6574C631,-78.6574 566,-78.6574 566,-78.6574 563,-78.6574 560,-75.6574 560,-72.6574 560,-72.6574 560,-66.6574 560,-66.6574 560,-63.6574 563,-60.6574 566,-60.6574 566,-60.6574 631,-60.6574 631,-60.6574 634,-60.6574 637,-63.6574 637,-66.6574 637,-66.6574 637,-72.6574 637,-72.6574 637,-75.6574 634,-78.6574 631,-78.6574"/>
<text text-anchor="middle" x="598.5" y="-67.4574" font-family="Helvetica,sans-Serif" font-size="9.00" fill="#000000">styleValues.ts</text>
</a>
</g>
</g>
<!-- src/components/atoms/mdx&#45;components.tsx&#45;&gt;src/styles/styleValues.ts -->
<g id="edge2" class="edge">
<title>src/components/atoms/mdx&#45;components.tsx&#45;&gt;src/styles/styleValues.ts</title>
<path fill="none" stroke="#000000" stroke-width="2" stroke-opacity="0.200000" d="M512.005,-587.8258C521.9885,-585.2016 531.3124,-580.5383 538,-572.6574 555.5437,-551.9831 529.4947,-106.1699 546,-84.6574 548.3478,-81.5974 551.2754,-79.1312 554.5393,-77.1473"/>
<polygon fill="#000000" fill-opacity="0.200000" stroke="#000000" stroke-width="2" stroke-opacity="0.200000" points="555.5174,-79.0059 559.9101,-74.4107 553.6106,-75.2636 555.5174,-79.0059"/>
</g>
<!-- src/components/atoms/swiping&#45;anchor.tsx -->
<g id="node6" class="node">
<title>src/components/atoms/swiping&#45;anchor.tsx</title>
<g id="a_node6"><a xlink:href="src/components/atoms/swiping-anchor.tsx" xlink:title="swiping&#45;anchor.tsx">
<path fill="#bbfeff" stroke="#000000" d="M643,-566.6574C643,-566.6574 554,-566.6574 554,-566.6574 551,-566.6574 548,-563.6574 548,-560.6574 548,-560.6574 548,-554.6574 548,-554.6574 548,-551.6574 551,-548.6574 554,-548.6574 554,-548.6574 643,-548.6574 643,-548.6574 646,-548.6574 649,-551.6574 649,-554.6574 649,-554.6574 649,-560.6574 649,-560.6574 649,-563.6574 646,-566.6574 643,-566.6574"/>
<text text-anchor="middle" x="598.5" y="-555.4574" font-family="Helvetica,sans-Serif" font-size="9.00" fill="#000000">swiping&#45;anchor.tsx</text>
</a>
</g>
</g>
<!-- src/components/atoms/mdx&#45;components.tsx&#45;&gt;src/components/atoms/swiping&#45;anchor.tsx -->
<g id="edge3" class="edge">
<title>src/components/atoms/mdx&#45;components.tsx&#45;&gt;src/components/atoms/swiping&#45;anchor.tsx</title>
<path fill="none" stroke="#000000" stroke-width="2" stroke-opacity="0.200000" d="M507.9701,-578.6316C517.9633,-576.7672 528.3212,-574.735 538,-572.6574 544.3995,-571.2837 551.1523,-569.7218 557.7342,-568.1373"/>
<polygon fill="#000000" fill-opacity="0.200000" stroke="#000000" stroke-width="2" stroke-opacity="0.200000" points="558.383,-570.1408 563.7157,-566.6806 557.3891,-566.0601 558.383,-570.1408"/>
</g>
<!-- src/styles/styleValues.ts&#45;&gt;src/styles/colorScheme.ts -->
<g id="edge35" class="edge">
<title>src/styles/styleValues.ts&#45;&gt;src/styles/colorScheme.ts</title>
<path fill="none" stroke="#000000" stroke-width="2" stroke-opacity="0.200000" d="M637.1475,-69.6574C644.3436,-69.6574 651.9539,-69.6574 659.4244,-69.6574"/>
<polygon fill="#000000" fill-opacity="0.200000" stroke="#000000" stroke-width="2" stroke-opacity="0.200000" points="659.6546,-71.7575 665.6545,-69.6574 659.6545,-67.5575 659.6546,-71.7575"/>
</g>
<!-- src/components/atoms/swiping&#45;anchor.tsx&#45;&gt;src/components/atoms/anchor&#45;or&#45;link.tsx -->
<g id="edge5" class="edge">
<title>src/components/atoms/swiping&#45;anchor.tsx&#45;&gt;src/components/atoms/anchor&#45;or&#45;link.tsx</title>
<path fill="none" stroke="#000000" stroke-width="2" stroke-opacity="0.200000" d="M649.2223,-557.6574C651.3215,-557.6574 653.4295,-557.6574 655.534,-557.6574"/>
<polygon fill="#000000" fill-opacity="0.200000" stroke="#000000" stroke-width="2" stroke-opacity="0.200000" points="655.8251,-559.7575 661.825,-557.6574 655.825,-555.5575 655.8251,-559.7575"/>
</g>
<!-- src/components/atoms/swiping&#45;anchor.tsx&#45;&gt;src/styles/styleValues.ts -->
<g id="edge4" class="edge">
<title>src/components/atoms/swiping&#45;anchor.tsx&#45;&gt;src/styles/styleValues.ts</title>
<path fill="none" stroke="#000000" stroke-width="2" stroke-opacity="0.200000" d="M588.8825,-548.2893C575.2428,-534.2407 550.9433,-506.1952 542,-476.6574 538.8929,-466.3953 538.8929,-100.9196 542,-90.6574 543.9503,-84.2161 548.4865,-79.6858 554.1862,-76.5129"/>
<polygon fill="#000000" fill-opacity="0.200000" stroke="#000000" stroke-width="2" stroke-opacity="0.200000" points="555.1394,-78.386 559.707,-73.9647 553.3792,-74.5725 555.1394,-78.386"/>
</g>
<!-- src/components/content/footer.tsx -->
<g id="node7" class="node">
<title>src/components/content/footer.tsx</title>
<g id="a_node7"><a xlink:href="src/components/content/footer.tsx" xlink:title="footer.tsx">
<path fill="#bbfeff" stroke="#000000" d="M479,-356.6574C479,-356.6574 432,-356.6574 432,-356.6574 429,-356.6574 426,-353.6574 426,-350.6574 426,-350.6574 426,-344.6574 426,-344.6574 426,-341.6574 429,-338.6574 432,-338.6574 432,-338.6574 479,-338.6574 479,-338.6574 482,-338.6574 485,-341.6574 485,-344.6574 485,-344.6574 485,-350.6574 485,-350.6574 485,-353.6574 482,-356.6574 479,-356.6574"/>
<text text-anchor="middle" x="455.5" y="-345.4574" font-family="Helvetica,sans-Serif" font-size="9.00" fill="#000000">footer.tsx</text>
</a>
</g>
</g>
<!-- src/components/content/header.tsx -->
<g id="node8" class="node">
<title>src/components/content/header.tsx</title>
<g id="a_node8"><a xlink:href="src/components/content/header.tsx" xlink:title="header.tsx">
<path fill="#bbfeff" stroke="#000000" d="M342,-326.6574C342,-326.6574 290,-326.6574 290,-326.6574 287,-326.6574 284,-323.6574 284,-320.6574 284,-320.6574 284,-314.6574 284,-314.6574 284,-311.6574 287,-308.6574 290,-308.6574 290,-308.6574 342,-308.6574 342,-308.6574 345,-308.6574 348,-311.6574 348,-314.6574 348,-314.6574 348,-320.6574 348,-320.6574 348,-323.6574 345,-326.6574 342,-326.6574"/>
<text text-anchor="middle" x="316" y="-315.4574" font-family="Helvetica,sans-Serif" font-size="9.00" fill="#000000">header.tsx</text>
</a>
</g>
</g>
<!-- src/components/content/header.tsx&#45;&gt;src/styles/styleValues.ts -->
<g id="edge6" class="edge">
<title>src/components/content/header.tsx&#45;&gt;src/styles/styleValues.ts</title>
<path fill="none" stroke="#000000" stroke-width="2" stroke-opacity="0.200000" d="M348.2147,-313.8554C354.7004,-311.5879 360.8049,-308.0731 365,-302.6574 377.2598,-286.8306 359.3496,-137.3018 373,-122.6574 398.1662,-95.6586 508.4719,-125.8016 538,-103.6574 545.3302,-98.1602 539.1436,-90.7353 546,-84.6574 548.527,-82.4173 551.3675,-80.5101 554.3851,-78.8867"/>
<polygon fill="#000000" fill-opacity="0.200000" stroke="#000000" stroke-width="2" stroke-opacity="0.200000" points="555.4402,-80.7113 559.9788,-76.2602 553.6551,-76.9095 555.4402,-80.7113"/>
</g>
<!-- src/components/content/index.tsx -->
<g id="node9" class="node">
<title>src/components/content/index.tsx</title>
<g id="a_node9"><a xlink:href="src/components/content/index.tsx" xlink:title="index.tsx">
<path fill="#bbfeff" stroke="#000000" d="M339,-356.6574C339,-356.6574 293,-356.6574 293,-356.6574 290,-356.6574 287,-353.6574 287,-350.6574 287,-350.6574 287,-344.6574 287,-344.6574 287,-341.6574 290,-338.6574 293,-338.6574 293,-338.6574 339,-338.6574 339,-338.6574 342,-338.6574 345,-341.6574 345,-344.6574 345,-344.6574 345,-350.6574 345,-350.6574 345,-353.6574 342,-356.6574 339,-356.6574"/>
<text text-anchor="middle" x="316" y="-345.4574" font-family="Helvetica,sans-Serif" font-size="9.00" fill="#000000">index.tsx</text>
</a>
</g>
</g>
<!-- src/components/content/index.tsx&#45;&gt;src/styles/styleValues.ts -->
<g id="edge7" class="edge">
<title>src/components/content/index.tsx&#45;&gt;src/styles/styleValues.ts</title>
<path fill="none" stroke="#000000" stroke-width="2" stroke-opacity="0.200000" d="M345.0828,-344.7664C352.6721,-342.5752 360.0904,-338.8695 365,-332.6574 382.2592,-310.8197 358.0339,-231.1262 373,-207.6574 417.9139,-137.2265 487.1387,-183.9213 538,-117.6574 547.1888,-105.6859 535.5468,-95.5424 546,-84.6574 548.4212,-82.1362 551.2341,-80.0301 554.2758,-78.2719"/>
<polygon fill="#000000" fill-opacity="0.200000" stroke="#000000" stroke-width="2" stroke-opacity="0.200000" points="555.5097,-80.0049 559.9625,-75.4681 553.6523,-76.2379 555.5097,-80.0049"/>
</g>
<!-- src/components/content/index.tsx&#45;&gt;src/components/content/footer.tsx -->
<g id="edge8" class="edge">
<title>src/components/content/index.tsx&#45;&gt;src/components/content/footer.tsx</title>
<path fill="none" stroke="#000000" stroke-width="2" stroke-opacity="0.200000" d="M345.2438,-347.6574C366.9525,-347.6574 396.6725,-347.6574 419.7865,-347.6574"/>
<polygon fill="#000000" fill-opacity="0.200000" stroke="#000000" stroke-width="2" stroke-opacity="0.200000" points="419.8143,-349.7575 425.8143,-347.6574 419.8142,-345.5575 419.8143,-349.7575"/>
</g>
<!-- src/components/content/tags.tsx -->
<g id="node10" class="node">
<title>src/components/content/tags.tsx</title>
<g id="a_node10"><a xlink:href="src/components/content/tags.tsx" xlink:title="tags.tsx">
<path fill="#bbfeff" stroke="#000000" d="M337,-296.6574C337,-296.6574 295,-296.6574 295,-296.6574 292,-296.6574 289,-293.6574 289,-290.6574 289,-290.6574 289,-284.6574 289,-284.6574 289,-281.6574 292,-278.6574 295,-278.6574 295,-278.6574 337,-278.6574 337,-278.6574 340,-278.6574 343,-281.6574 343,-284.6574 343,-284.6574 343,-290.6574 343,-290.6574 343,-293.6574 340,-296.6574 337,-296.6574"/>
<text text-anchor="middle" x="316" y="-285.4574" font-family="Helvetica,sans-Serif" font-size="9.00" fill="#000000">tags.tsx</text>
</a>
</g>
</g>
<!-- src/components/content/tags.tsx&#45;&gt;src/styles/colorScheme.ts -->
<g id="edge9" class="edge">
<title>src/components/content/tags.tsx&#45;&gt;src/styles/colorScheme.ts</title>
<path fill="none" stroke="#000000" stroke-width="2" stroke-opacity="0.200000" d="M343.0872,-281.4994C351.4804,-278.2123 359.8647,-273.2166 365,-265.6574 376.1875,-249.1893 361.1799,-102.6775 373,-86.6574 447.6441,14.5092 529.7281,15.0999 649,-24.6574 667.5907,-30.8543 685.0598,-45.3177 696.3007,-56.1863"/>
<polygon fill="#000000" fill-opacity="0.200000" stroke="#000000" stroke-width="2" stroke-opacity="0.200000" points="694.9888,-57.8435 700.7221,-60.5895 697.9526,-54.8676 694.9888,-57.8435"/>
</g>
<!-- src/components/content/tags.tsx&#45;&gt;src/styles/styleValues.ts -->
<g id="edge10" class="edge">
<title>src/components/content/tags.tsx&#45;&gt;src/styles/styleValues.ts</title>
<path fill="none" stroke="#000000" stroke-width="2" stroke-opacity="0.200000" d="M343.0602,-281.481C351.4513,-278.1925 359.8411,-273.2005 365,-265.6574 374.8605,-251.2397 361.0487,-121.3958 373,-108.6574 398.2538,-81.7405 503.1625,-101.8485 538,-89.6574 541.9576,-88.2725 542.1689,-86.3612 546,-84.6574 549.2183,-83.2262 552.6083,-81.8945 556.0524,-80.6635"/>
<polygon fill="#000000" fill-opacity="0.200000" stroke="#000000" stroke-width="2" stroke-opacity="0.200000" points="556.8715,-82.6032 561.879,-78.6871 555.5223,-78.6258 556.8715,-82.6032"/>
</g>
<!-- src/components/embeddeds/niconico.tsx -->
<g id="node11" class="node">
<title>src/components/embeddeds/niconico.tsx</title>
<g id="a_node11"><a xlink:href="src/components/embeddeds/niconico.tsx" xlink:title="niconico.tsx">
<path fill="#ccffcc" stroke="#000000" d="M237,-297.6574C237,-297.6574 178,-297.6574 178,-297.6574 175,-297.6574 172,-294.6574 172,-291.6574 172,-291.6574 172,-285.6574 172,-285.6574 172,-282.6574 175,-279.6574 178,-279.6574 178,-279.6574 237,-279.6574 237,-279.6574 240,-279.6574 243,-282.6574 243,-285.6574 243,-285.6574 243,-291.6574 243,-291.6574 243,-294.6574 240,-297.6574 237,-297.6574"/>
<text text-anchor="middle" x="207.5" y="-286.4574" font-family="Helvetica,sans-Serif" font-size="9.00" fill="#000000">niconico.tsx</text>
</a>
</g>
</g>
<!-- src/components/header/index.tsx -->
<g id="node12" class="node">
<title>src/components/header/index.tsx</title>
<g id="a_node12"><a xlink:href="src/components/header/index.tsx" xlink:title="index.tsx">
<path fill="#bbfeff" stroke="#000000" d="M339,-176.6574C339,-176.6574 293,-176.6574 293,-176.6574 290,-176.6574 287,-173.6574 287,-170.6574 287,-170.6574 287,-164.6574 287,-164.6574 287,-161.6574 290,-158.6574 293,-158.6574 293,-158.6574 339,-158.6574 339,-158.6574 342,-158.6574 345,-161.6574 345,-164.6574 345,-164.6574 345,-170.6574 345,-170.6574 345,-173.6574 342,-176.6574 339,-176.6574"/>
<text text-anchor="middle" x="316" y="-165.4574" font-family="Helvetica,sans-Serif" font-size="9.00" fill="#000000">index.tsx</text>
</a>
</g>
</g>
<!-- src/components/layout/index.tsx -->
<g id="node13" class="node">
<title>src/components/layout/index.tsx</title>
<g id="a_node13"><a xlink:href="src/components/layout/index.tsx" xlink:title="index.tsx">
<path fill="#bbfeff" stroke="#000000" d="M230.5,-176.6574C230.5,-176.6574 184.5,-176.6574 184.5,-176.6574 181.5,-176.6574 178.5,-173.6574 178.5,-170.6574 178.5,-170.6574 178.5,-164.6574 178.5,-164.6574 178.5,-161.6574 181.5,-158.6574 184.5,-158.6574 184.5,-158.6574 230.5,-158.6574 230.5,-158.6574 233.5,-158.6574 236.5,-161.6574 236.5,-164.6574 236.5,-164.6574 236.5,-170.6574 236.5,-170.6574 236.5,-173.6574 233.5,-176.6574 230.5,-176.6574"/>
<text text-anchor="middle" x="207.5" y="-165.4574" font-family="Helvetica,sans-Serif" font-size="9.00" fill="#000000">index.tsx</text>
</a>
</g>
</g>
<!-- src/components/layout/index.tsx&#45;&gt;src/styles/styleValues.ts -->
<g id="edge12" class="edge">
<title>src/components/layout/index.tsx&#45;&gt;src/styles/styleValues.ts</title>
<path fill="none" stroke="#000000" stroke-width="2" stroke-opacity="0.200000" d="M216.2743,-158.3962C225.9941,-148.54 242.4848,-132.9733 259,-122.6574 305.6263,-93.5333 319.237,-86.136 373,-74.6574 434.5725,-61.5114 507.7518,-62.9059 553.6714,-65.762"/>
<polygon fill="#000000" fill-opacity="0.200000" stroke="#000000" stroke-width="2" stroke-opacity="0.200000" points="553.5641,-67.8593 559.6881,-66.1543 553.8375,-63.6682 553.5641,-67.8593"/>
</g>
<!-- src/components/layout/index.tsx&#45;&gt;src/components/content/index.tsx -->
<g id="edge14" class="edge">
<title>src/components/layout/index.tsx&#45;&gt;src/components/content/index.tsx</title>
<path fill="none" stroke="#000000" stroke-width="2" stroke-opacity="0.200000" d="M222.3871,-176.8697C232.3801,-183.9487 244.8094,-194.6965 251,-207.6574 262.9967,-232.774 241.3103,-311.1669 259,-332.6574 264.3895,-339.2049 272.2632,-343.0852 280.4479,-345.339"/>
<polygon fill="#000000" fill-opacity="0.200000" stroke="#000000" stroke-width="2" stroke-opacity="0.200000" points="280.4156,-347.4848 286.7313,-346.7627 281.3437,-343.3887 280.4156,-347.4848"/>
</g>
<!-- src/components/layout/index.tsx&#45;&gt;src/components/header/index.tsx -->
<g id="edge15" class="edge">
<title>src/components/layout/index.tsx&#45;&gt;src/components/header/index.tsx</title>
<path fill="none" stroke="#000000" stroke-width="2" stroke-opacity="0.200000" d="M236.576,-167.6574C250.0758,-167.6574 266.2479,-167.6574 280.4655,-167.6574"/>
<polygon fill="#000000" fill-opacity="0.200000" stroke="#000000" stroke-width="2" stroke-opacity="0.200000" points="280.8438,-169.7575 286.8437,-167.6574 280.8437,-165.5575 280.8438,-169.7575"/>
</g>
<!-- src/styles/mediaQueries.ts -->
<g id="node14" class="node">
<title>src/styles/mediaQueries.ts</title>
<g id="a_node14"><a xlink:href="src/styles/mediaQueries.ts" xlink:title="mediaQueries.ts">
<path fill="#ddfeff" stroke="#000000" d="M637,-48.6574C637,-48.6574 560,-48.6574 560,-48.6574 557,-48.6574 554,-45.6574 554,-42.6574 554,-42.6574 554,-36.6574 554,-36.6574 554,-33.6574 557,-30.6574 560,-30.6574 560,-30.6574 637,-30.6574 637,-30.6574 640,-30.6574 643,-33.6574 643,-36.6574 643,-36.6574 643,-42.6574 643,-42.6574 643,-45.6574 640,-48.6574 637,-48.6574"/>
<text text-anchor="middle" x="598.5" y="-37.4574" font-family="Helvetica,sans-Serif" font-size="9.00" fill="#000000">mediaQueries.ts</text>
</a>
</g>
</g>
<!-- src/components/layout/index.tsx&#45;&gt;src/styles/mediaQueries.ts -->
<g id="edge11" class="edge">
<title>src/components/layout/index.tsx&#45;&gt;src/styles/mediaQueries.ts</title>
<path fill="none" stroke="#000000" stroke-width="2" stroke-opacity="0.200000" d="M209.5095,-158.5121C214.2942,-139.1388 228.328,-94.0713 259,-73.6574 346.7177,-15.2765 476.45,-21.6117 547.4579,-30.9144"/>
<polygon fill="#000000" fill-opacity="0.200000" stroke="#000000" stroke-width="2" stroke-opacity="0.200000" points="547.4963,-33.0387 553.7239,-31.7631 548.0601,-28.8767 547.4963,-33.0387"/>
</g>
<!-- src/styles/variables.ts -->
<g id="node15" class="node">
<title>src/styles/variables.ts</title>
<g id="a_node15"><a xlink:href="src/styles/variables.ts" xlink:title="variables.ts">
<path fill="#ddfeff" stroke="#000000" d="M626.5,-108.6574C626.5,-108.6574 570.5,-108.6574 570.5,-108.6574 567.5,-108.6574 564.5,-105.6574 564.5,-102.6574 564.5,-102.6574 564.5,-96.6574 564.5,-96.6574 564.5,-93.6574 567.5,-90.6574 570.5,-90.6574 570.5,-90.6574 626.5,-90.6574 626.5,-90.6574 629.5,-90.6574 632.5,-93.6574 632.5,-96.6574 632.5,-96.6574 632.5,-102.6574 632.5,-102.6574 632.5,-105.6574 629.5,-108.6574 626.5,-108.6574"/>
<text text-anchor="middle" x="598.5" y="-97.4574" font-family="Helvetica,sans-Serif" font-size="9.00" fill="#000000">variables.ts</text>
</a>
</g>
</g>
<!-- src/components/layout/index.tsx&#45;&gt;src/styles/variables.ts -->
<g id="edge13" class="edge">
<title>src/components/layout/index.tsx&#45;&gt;src/styles/variables.ts</title>
<path fill="none" stroke="#000000" stroke-width="2" stroke-opacity="0.200000" d="M227.6925,-158.5735C237.0507,-154.6884 248.4205,-150.4202 259,-147.6574 365.012,-119.9732 494.0854,-107.2848 558.255,-102.3399"/>
<polygon fill="#000000" fill-opacity="0.200000" stroke="#000000" stroke-width="2" stroke-opacity="0.200000" points="558.4351,-104.4324 564.2594,-101.8853 558.1179,-100.2443 558.4351,-104.4324"/>
</g>
<!-- src/components/sidebar/sidebar.tsx -->
<g id="node16" class="node">
<title>src/components/sidebar/sidebar.tsx</title>
<g id="a_node16"><a xlink:href="src/components/sidebar/sidebar.tsx" xlink:title="sidebar.tsx">
<path fill="#bbfeff" stroke="#000000" d="M342.5,-446.6574C342.5,-446.6574 289.5,-446.6574 289.5,-446.6574 286.5,-446.6574 283.5,-443.6574 283.5,-440.6574 283.5,-440.6574 283.5,-434.6574 283.5,-434.6574 283.5,-431.6574 286.5,-428.6574 289.5,-428.6574 289.5,-428.6574 342.5,-428.6574 342.5,-428.6574 345.5,-428.6574 348.5,-431.6574 348.5,-434.6574 348.5,-434.6574 348.5,-440.6574 348.5,-440.6574 348.5,-443.6574 345.5,-446.6574 342.5,-446.6574"/>
<text text-anchor="middle" x="316" y="-435.4574" font-family="Helvetica,sans-Serif" font-size="9.00" fill="#000000">sidebar.tsx</text>
</a>
</g>
</g>
<!-- src/components/layout/index.tsx&#45;&gt;src/components/sidebar/sidebar.tsx -->
<g id="edge16" class="edge">
<title>src/components/layout/index.tsx&#45;&gt;src/components/sidebar/sidebar.tsx</title>
<path fill="none" stroke="#000000" stroke-width="2" stroke-opacity="0.200000" d="M222.4941,-176.8195C232.5375,-183.8748 244.9831,-194.615 251,-207.6574 261.0141,-229.3642 244.0554,-403.9992 259,-422.6574 263.6479,-428.4602 270.2488,-432.1774 277.3199,-434.5255"/>
<polygon fill="#000000" fill-opacity="0.200000" stroke="#000000" stroke-width="2" stroke-opacity="0.200000" points="276.9948,-436.6144 283.3376,-436.1916 278.1155,-432.5667 276.9948,-436.6144"/>
</g>
<!-- src/components/table&#45;of&#45;contents/index.tsx -->
<g id="node22" class="node">
<title>src/components/table&#45;of&#45;contents/index.tsx</title>
<g id="a_node22"><a xlink:href="src/components/table-of-contents/index.tsx" xlink:title="index.tsx">
<path fill="#bbfeff" stroke="#000000" d="M478.5,-506.6574C478.5,-506.6574 432.5,-506.6574 432.5,-506.6574 429.5,-506.6574 426.5,-503.6574 426.5,-500.6574 426.5,-500.6574 426.5,-494.6574 426.5,-494.6574 426.5,-491.6574 429.5,-488.6574 432.5,-488.6574 432.5,-488.6574 478.5,-488.6574 478.5,-488.6574 481.5,-488.6574 484.5,-491.6574 484.5,-494.6574 484.5,-494.6574 484.5,-500.6574 484.5,-500.6574 484.5,-503.6574 481.5,-506.6574 478.5,-506.6574"/>
<text text-anchor="middle" x="455.5" y="-495.4574" font-family="Helvetica,sans-Serif" font-size="9.00" fill="#000000">index.tsx</text>
</a>
</g>
</g>
<!-- src/components/sidebar/sidebar.tsx&#45;&gt;src/components/table&#45;of&#45;contents/index.tsx -->
<g id="edge23" class="edge">
<title>src/components/sidebar/sidebar.tsx&#45;&gt;src/components/table&#45;of&#45;contents/index.tsx</title>
<path fill="none" stroke="#000000" stroke-width="2" stroke-opacity="0.200000" d="M327.1351,-446.6989C338.1761,-455.2594 355.8749,-467.9213 373,-475.6574 387.8936,-482.3855 405.2604,-487.3989 420.2077,-490.9266"/>
<polygon fill="#000000" fill-opacity="0.200000" stroke="#000000" stroke-width="2" stroke-opacity="0.200000" points="420.1348,-493.0637 426.4513,-492.3482 421.0673,-488.9685 420.1348,-493.0637"/>
</g>
<!-- src/components/post&#45;link/post&#45;link.tsx -->
<g id="node17" class="node">
<title>src/components/post&#45;link/post&#45;link.tsx</title>
<g id="a_node17"><a xlink:href="src/components/post-link/post-link.tsx" xlink:title="post&#45;link.tsx">
<path fill="#bbfeff" stroke="#000000" d="M345.5,-236.6574C345.5,-236.6574 286.5,-236.6574 286.5,-236.6574 283.5,-236.6574 280.5,-233.6574 280.5,-230.6574 280.5,-230.6574 280.5,-224.6574 280.5,-224.6574 280.5,-221.6574 283.5,-218.6574 286.5,-218.6574 286.5,-218.6574 345.5,-218.6574 345.5,-218.6574 348.5,-218.6574 351.5,-221.6574 351.5,-224.6574 351.5,-224.6574 351.5,-230.6574 351.5,-230.6574 351.5,-233.6574 348.5,-236.6574 345.5,-236.6574"/>
<text text-anchor="middle" x="316" y="-225.4574" font-family="Helvetica,sans-Serif" font-size="9.00" fill="#000000">post&#45;link.tsx</text>
</a>
</g>
</g>
<!-- src/components/post&#45;link/post&#45;link.tsx&#45;&gt;src/styles/styleValues.ts -->
<g id="edge17" class="edge">
<title>src/components/post&#45;link/post&#45;link.tsx&#45;&gt;src/styles/styleValues.ts</title>
<path fill="none" stroke="#000000" stroke-width="2" stroke-opacity="0.200000" d="M349.3378,-218.5552C355.4374,-215.4213 361.0983,-211.2355 365,-205.6574 379.1749,-185.3922 355.8523,-112.4777 373,-94.6574 379.1928,-88.2217 489.8321,-78.3541 553.7895,-73.1495"/>
<polygon fill="#000000" fill-opacity="0.200000" stroke="#000000" stroke-width="2" stroke-opacity="0.200000" points="554.0171,-75.2381 559.8281,-72.6607 553.6782,-71.0518 554.0171,-75.2381"/>
</g>
<!-- src/components/post&#45;link/tag&#45;list.tsx -->
<g id="node18" class="node">
<title>src/components/post&#45;link/tag&#45;list.tsx</title>
<g id="a_node18"><a xlink:href="src/components/post-link/tag-list.tsx" xlink:title="tag&#45;list.tsx">
<path fill="#bbfeff" stroke="#000000" d="M481.5,-236.6574C481.5,-236.6574 429.5,-236.6574 429.5,-236.6574 426.5,-236.6574 423.5,-233.6574 423.5,-230.6574 423.5,-230.6574 423.5,-224.6574 423.5,-224.6574 423.5,-221.6574 426.5,-218.6574 429.5,-218.6574 429.5,-218.6574 481.5,-218.6574 481.5,-218.6574 484.5,-218.6574 487.5,-221.6574 487.5,-224.6574 487.5,-224.6574 487.5,-230.6574 487.5,-230.6574 487.5,-233.6574 484.5,-236.6574 481.5,-236.6574"/>
<text text-anchor="middle" x="455.5" y="-225.4574" font-family="Helvetica,sans-Serif" font-size="9.00" fill="#000000">tag&#45;list.tsx</text>
</a>
</g>
</g>
<!-- src/components/post&#45;link/post&#45;link.tsx&#45;&gt;src/components/post&#45;link/tag&#45;list.tsx -->
<g id="edge18" class="edge">
<title>src/components/post&#45;link/post&#45;link.tsx&#45;&gt;src/components/post&#45;link/tag&#45;list.tsx</title>
<path fill="none" stroke="#000000" stroke-width="2" stroke-opacity="0.200000" d="M351.5627,-227.6574C371.6073,-227.6574 396.6564,-227.6574 417.1411,-227.6574"/>
<polygon fill="#000000" fill-opacity="0.200000" stroke="#000000" stroke-width="2" stroke-opacity="0.200000" points="417.3413,-229.7575 423.3413,-227.6574 417.3412,-225.5575 417.3413,-229.7575"/>
</g>
<!-- src/components/post&#45;link/tag&#45;list.tsx&#45;&gt;src/styles/styleValues.ts -->
<g id="edge20" class="edge">
<title>src/components/post&#45;link/tag&#45;list.tsx&#45;&gt;src/styles/styleValues.ts</title>
<path fill="none" stroke="#000000" stroke-width="2" stroke-opacity="0.200000" d="M466.424,-218.4733C484.5175,-202.5921 520.4477,-168.0873 538,-130.6574 546.8105,-111.8693 532.1254,-100.0883 546,-84.6574 548.3768,-82.0141 551.1837,-79.8233 554.2439,-78.0092"/>
<polygon fill="#000000" fill-opacity="0.200000" stroke="#000000" stroke-width="2" stroke-opacity="0.200000" points="555.5619,-79.6979 559.9873,-75.1342 553.6819,-75.9421 555.5619,-79.6979"/>
</g>
<!-- src/components/post&#45;link/post&#45;list.tsx -->
<g id="node19" class="node">
<title>src/components/post&#45;link/post&#45;list.tsx</title>
<g id="a_node19"><a xlink:href="src/components/post-link/post-list.tsx" xlink:title="post&#45;list.tsx">
<path fill="#bbfeff" stroke="#000000" d="M235.5,-236.6574C235.5,-236.6574 179.5,-236.6574 179.5,-236.6574 176.5,-236.6574 173.5,-233.6574 173.5,-230.6574 173.5,-230.6574 173.5,-224.6574 173.5,-224.6574 173.5,-221.6574 176.5,-218.6574 179.5,-218.6574 179.5,-218.6574 235.5,-218.6574 235.5,-218.6574 238.5,-218.6574 241.5,-221.6574 241.5,-224.6574 241.5,-224.6574 241.5,-230.6574 241.5,-230.6574 241.5,-233.6574 238.5,-236.6574 235.5,-236.6574"/>
<text text-anchor="middle" x="207.5" y="-225.4574" font-family="Helvetica,sans-Serif" font-size="9.00" fill="#000000">post&#45;list.tsx</text>
</a>
</g>
</g>
<!-- src/components/post&#45;link/post&#45;list.tsx&#45;&gt;src/components/post&#45;link/post&#45;link.tsx -->
<g id="edge19" class="edge">
<title>src/components/post&#45;link/post&#45;list.tsx&#45;&gt;src/components/post&#45;link/post&#45;link.tsx</title>
<path fill="none" stroke="#000000" stroke-width="2" stroke-opacity="0.200000" d="M241.5324,-227.6574C251.8188,-227.6574 263.2368,-227.6574 273.9798,-227.6574"/>
<polygon fill="#000000" fill-opacity="0.200000" stroke="#000000" stroke-width="2" stroke-opacity="0.200000" points="274.2135,-229.7575 280.2135,-227.6574 274.2135,-225.5575 274.2135,-229.7575"/>
</g>
<!-- src/components/sidebar/button.tsx -->
<g id="node20" class="node">
<title>src/components/sidebar/button.tsx</title>
<g id="a_node20"><a xlink:href="src/components/sidebar/button.tsx" xlink:title="button.tsx">
<path fill="#bbfeff" stroke="#000000" d="M481.5,-431.6574C481.5,-431.6574 429.5,-431.6574 429.5,-431.6574 426.5,-431.6574 423.5,-428.6574 423.5,-425.6574 423.5,-425.6574 423.5,-419.6574 423.5,-419.6574 423.5,-416.6574 426.5,-413.6574 429.5,-413.6574 429.5,-413.6574 481.5,-413.6574 481.5,-413.6574 484.5,-413.6574 487.5,-416.6574 487.5,-419.6574 487.5,-419.6574 487.5,-425.6574 487.5,-425.6574 487.5,-428.6574 484.5,-431.6574 481.5,-431.6574"/>
<text text-anchor="middle" x="455.5" y="-420.4574" font-family="Helvetica,sans-Serif" font-size="9.00" fill="#000000">button.tsx</text>
</a>
</g>
</g>
<!-- src/components/sidebar/button.tsx&#45;&gt;src/components/atoms/anchor&#45;or&#45;link.tsx -->
<g id="edge21" class="edge">
<title>src/components/sidebar/button.tsx&#45;&gt;src/components/atoms/anchor&#45;or&#45;link.tsx</title>
<path fill="none" stroke="#000000" stroke-width="2" stroke-opacity="0.200000" d="M472.5265,-431.7248C516.9935,-455.4054 636.6213,-519.1125 686.5891,-545.7226"/>
<polygon fill="#000000" fill-opacity="0.200000" stroke="#000000" stroke-width="2" stroke-opacity="0.200000" points="685.7647,-547.6627 692.0476,-548.6295 687.7389,-543.9556 685.7647,-547.6627"/>
</g>
<!-- src/components/sidebar/buttons&#45;group.tsx -->
<g id="node21" class="node">
<title>src/components/sidebar/buttons&#45;group.tsx</title>
<g id="a_node21"><a xlink:href="src/components/sidebar/buttons-group.tsx" xlink:title="buttons&#45;group.tsx">
<path fill="#bbfeff" stroke="#000000" d="M359,-416.6574C359,-416.6574 273,-416.6574 273,-416.6574 270,-416.6574 267,-413.6574 267,-410.6574 267,-410.6574 267,-404.6574 267,-404.6574 267,-401.6574 270,-398.6574 273,-398.6574 273,-398.6574 359,-398.6574 359,-398.6574 362,-398.6574 365,-401.6574 365,-404.6574 365,-404.6574 365,-410.6574 365,-410.6574 365,-413.6574 362,-416.6574 359,-416.6574"/>
<text text-anchor="middle" x="316" y="-405.4574" font-family="Helvetica,sans-Serif" font-size="9.00" fill="#000000">buttons&#45;group.tsx</text>
</a>
</g>
</g>
<!-- src/components/sidebar/buttons&#45;group.tsx&#45;&gt;src/components/sidebar/button.tsx -->
<g id="edge22" class="edge">
<title>src/components/sidebar/buttons&#45;group.tsx&#45;&gt;src/components/sidebar/button.tsx</title>
<path fill="none" stroke="#000000" stroke-width="2" stroke-opacity="0.200000" d="M365.1825,-412.9459C382.2181,-414.7776 401.0514,-416.8027 417.0924,-418.5276"/>
<polygon fill="#000000" fill-opacity="0.200000" stroke="#000000" stroke-width="2" stroke-opacity="0.200000" points="417.1319,-420.6438 423.3221,-419.1974 417.581,-416.4679 417.1319,-420.6438"/>
</g>
<!-- src/components/table&#45;of&#45;contents/index.tsx&#45;&gt;src/styles/styleValues.ts -->
<g id="edge24" class="edge">
<title>src/components/table&#45;of&#45;contents/index.tsx&#45;&gt;src/styles/styleValues.ts</title>
<path fill="none" stroke="#000000" stroke-width="2" stroke-opacity="0.200000" d="M484.6844,-498.142C503.0491,-496.7352 525.555,-491.5175 538,-475.6574 551.4123,-458.5646 532.7395,-101.8682 546,-84.6574 548.354,-81.6022 551.2859,-79.1392 554.5525,-77.1574"/>
<polygon fill="#000000" fill-opacity="0.200000" stroke="#000000" stroke-width="2" stroke-opacity="0.200000" points="555.531,-79.0158 559.9264,-74.4233 553.6265,-75.2724 555.531,-79.0158"/>
</g>
<!-- src/components/table&#45;of&#45;contents/index.tsx&#45;&gt;src/components/atoms/swiping&#45;anchor.tsx -->
<g id="edge25" class="edge">
<title>src/components/table&#45;of&#45;contents/index.tsx&#45;&gt;src/components/atoms/swiping&#45;anchor.tsx</title>
<path fill="none" stroke="#000000" stroke-width="2" stroke-opacity="0.200000" d="M477.2186,-506.7701C502.4572,-517.3597 544.1245,-534.8425 571.4446,-546.3055"/>
<polygon fill="#000000" fill-opacity="0.200000" stroke="#000000" stroke-width="2" stroke-opacity="0.200000" points="570.7003,-548.2705 577.0455,-548.6555 572.3253,-544.3976 570.7003,-548.2705"/>
</g>
<!-- src/gatsby&#45;node/index.ts -->
<g id="node23" class="node">
<title>src/gatsby&#45;node/index.ts</title>
<g id="a_node23"><a xlink:href="src/gatsby-node/index.ts" xlink:title="index.ts">
<path fill="#ddfeff" stroke="#000000" d="M476.5,-806.6574C476.5,-806.6574 434.5,-806.6574 434.5,-806.6574 431.5,-806.6574 428.5,-803.6574 428.5,-800.6574 428.5,-800.6574 428.5,-794.6574 428.5,-794.6574 428.5,-791.6574 431.5,-788.6574 434.5,-788.6574 434.5,-788.6574 476.5,-788.6574 476.5,-788.6574 479.5,-788.6574 482.5,-791.6574 482.5,-794.6574 482.5,-794.6574 482.5,-800.6574 482.5,-800.6574 482.5,-803.6574 479.5,-806.6574 476.5,-806.6574"/>
<text text-anchor="middle" x="455.5" y="-795.4574" font-family="Helvetica,sans-Serif" font-size="9.00" fill="#000000">index.ts</text>
</a>
</g>
</g>
<!-- src/libs/post.ts -->
<g id="node24" class="node">
<title>src/libs/post.ts</title>
<g id="a_node24"><a xlink:href="src/libs/post.ts" xlink:title="post.ts">
<path fill="#ddfeff" stroke="#000000" d="M619.5,-804.6574C619.5,-804.6574 577.5,-804.6574 577.5,-804.6574 574.5,-804.6574 571.5,-801.6574 571.5,-798.6574 571.5,-798.6574 571.5,-792.6574 571.5,-792.6574 571.5,-789.6574 574.5,-786.6574 577.5,-786.6574 577.5,-786.6574 619.5,-786.6574 619.5,-786.6574 622.5,-786.6574 625.5,-789.6574 625.5,-792.6574 625.5,-792.6574 625.5,-798.6574 625.5,-798.6574 625.5,-801.6574 622.5,-804.6574 619.5,-804.6574"/>
<text text-anchor="middle" x="598.5" y="-793.4574" font-family="Helvetica,sans-Serif" font-size="9.00" fill="#000000">post.ts</text>
</a>
</g>
</g>
<!-- src/gatsby&#45;node/index.ts&#45;&gt;src/libs/post.ts -->
<g id="edge26" class="edge">
<title>src/gatsby&#45;node/index.ts&#45;&gt;src/libs/post.ts</title>
<path fill="none" stroke="#000000" stroke-width="2" stroke-opacity="0.200000" d="M482.7338,-797.2765C506.191,-796.9484 540.128,-796.4738 565.197,-796.1232"/>
<polygon fill="#000000" fill-opacity="0.200000" stroke="#000000" stroke-width="2" stroke-opacity="0.200000" points="565.3976,-798.2207 571.3676,-796.0369 565.3388,-794.0211 565.3976,-798.2207"/>
</g>
<!-- src/libs/date.ts -->
<g id="node25" class="node">
<title>src/libs/date.ts</title>
<g id="a_node25"><a xlink:href="src/libs/date.ts" xlink:title="date.ts">
<path fill="#ddfeff" stroke="#000000" d="M730,-804.6574C730,-804.6574 688,-804.6574 688,-804.6574 685,-804.6574 682,-801.6574 682,-798.6574 682,-798.6574 682,-792.6574 682,-792.6574 682,-789.6574 685,-786.6574 688,-786.6574 688,-786.6574 730,-786.6574 730,-786.6574 733,-786.6574 736,-789.6574 736,-792.6574 736,-792.6574 736,-798.6574 736,-798.6574 736,-801.6574 733,-804.6574 730,-804.6574"/>
<text text-anchor="middle" x="709" y="-793.4574" font-family="Helvetica,sans-Serif" font-size="9.00" fill="#000000">date.ts</text>
</a>
</g>
</g>
<!-- src/libs/post.ts&#45;&gt;src/libs/date.ts -->
<g id="edge27" class="edge">
<title>src/libs/post.ts&#45;&gt;src/libs/date.ts</title>
<path fill="none" stroke="#000000" stroke-width="2" stroke-opacity="0.200000" d="M625.5313,-795.6574C640.6481,-795.6574 659.6174,-795.6574 675.6508,-795.6574"/>
<polygon fill="#000000" fill-opacity="0.200000" stroke="#000000" stroke-width="2" stroke-opacity="0.200000" points="675.8648,-797.7575 681.8647,-795.6574 675.8647,-793.5575 675.8648,-797.7575"/>
</g>
<!-- src/libs/proto&#45;ext.ts -->
<g id="node26" class="node">
<title>src/libs/proto&#45;ext.ts</title>
<g id="a_node26"><a xlink:href="src/libs/proto-ext.ts" xlink:title="proto&#45;ext.ts">
<path fill="#ccffcc" stroke="#000000" d="M627,-774.6574C627,-774.6574 570,-774.6574 570,-774.6574 567,-774.6574 564,-771.6574 564,-768.6574 564,-768.6574 564,-762.6574 564,-762.6574 564,-759.6574 567,-756.6574 570,-756.6574 570,-756.6574 627,-756.6574 627,-756.6574 630,-756.6574 633,-759.6574 633,-762.6574 633,-762.6574 633,-768.6574 633,-768.6574 633,-771.6574 630,-774.6574 627,-774.6574"/>
<text text-anchor="middle" x="598.5" y="-763.4574" font-family="Helvetica,sans-Serif" font-size="9.00" fill="#000000">proto&#45;ext.ts</text>
</a>
</g>
</g>
<!-- src/libs/react&#45;fcx.d.ts -->
<g id="node27" class="node">
<title>src/libs/react&#45;fcx.d.ts</title>
<g id="a_node27"><a xlink:href="src/libs/react-fcx.d.ts" xlink:title="react&#45;fcx.d.ts">
<path fill="#ccffcc" stroke="#000000" d="M631,-744.6574C631,-744.6574 566,-744.6574 566,-744.6574 563,-744.6574 560,-741.6574 560,-738.6574 560,-738.6574 560,-732.6574 560,-732.6574 560,-729.6574 563,-726.6574 566,-726.6574 566,-726.6574 631,-726.6574 631,-726.6574 634,-726.6574 637,-729.6574 637,-732.6574 637,-732.6574 637,-738.6574 637,-738.6574 637,-741.6574 634,-744.6574 631,-744.6574"/>
<text text-anchor="middle" x="598.5" y="-733.4574" font-family="Helvetica,sans-Serif" font-size="9.00" fill="#000000">react&#45;fcx.d.ts</text>
</a>
</g>
</g>
<!-- src/libs/toc.ts -->
<g id="node28" class="node">
<title>src/libs/toc.ts</title>
<g id="a_node28"><a xlink:href="src/libs/toc.ts" xlink:title="toc.ts">
<path fill="#ccffcc" stroke="#000000" d="M619.5,-714.6574C619.5,-714.6574 577.5,-714.6574 577.5,-714.6574 574.5,-714.6574 571.5,-711.6574 571.5,-708.6574 571.5,-708.6574 571.5,-702.6574 571.5,-702.6574 571.5,-699.6574 574.5,-696.6574 577.5,-696.6574 577.5,-696.6574 619.5,-696.6574 619.5,-696.6574 622.5,-696.6574 625.5,-699.6574 625.5,-702.6574 625.5,-702.6574 625.5,-708.6574 625.5,-708.6574 625.5,-711.6574 622.5,-714.6574 619.5,-714.6574"/>
<text text-anchor="middle" x="598.5" y="-703.4574" font-family="Helvetica,sans-Serif" font-size="9.00" fill="#000000">toc.ts</text>
</a>
</g>
</g>
<!-- src/libs/withDefault.ts -->
<g id="node29" class="node">
<title>src/libs/withDefault.ts</title>
<g id="a_node29"><a xlink:href="src/libs/withDefault.ts" xlink:title="withDefault.ts">
<path fill="#ccffcc" stroke="#000000" d="M632.5,-684.6574C632.5,-684.6574 564.5,-684.6574 564.5,-684.6574 561.5,-684.6574 558.5,-681.6574 558.5,-678.6574 558.5,-678.6574 558.5,-672.6574 558.5,-672.6574 558.5,-669.6574 561.5,-666.6574 564.5,-666.6574 564.5,-666.6574 632.5,-666.6574 632.5,-666.6574 635.5,-666.6574 638.5,-669.6574 638.5,-672.6574 638.5,-672.6574 638.5,-678.6574 638.5,-678.6574 638.5,-681.6574 635.5,-684.6574 632.5,-684.6574"/>
<text text-anchor="middle" x="598.5" y="-673.4574" font-family="Helvetica,sans-Serif" font-size="9.00" fill="#000000">withDefault.ts</text>
</a>
</g>
</g>
<!-- src/pages/404.tsx -->
<g id="node30" class="node">
<title>src/pages/404.tsx</title>
<g id="a_node30"><a xlink:href="src/pages/404.tsx" xlink:title="404.tsx">
<path fill="#bbfeff" stroke="#000000" d="M103,-132.6574C103,-132.6574 61,-132.6574 61,-132.6574 58,-132.6574 55,-129.6574 55,-126.6574 55,-126.6574 55,-120.6574 55,-120.6574 55,-117.6574 58,-114.6574 61,-114.6574 61,-114.6574 103,-114.6574 103,-114.6574 106,-114.6574 109,-117.6574 109,-120.6574 109,-120.6574 109,-126.6574 109,-126.6574 109,-129.6574 106,-132.6574 103,-132.6574"/>
<text text-anchor="middle" x="82" y="-121.4574" font-family="Helvetica,sans-Serif" font-size="9.00" fill="#000000">404.tsx</text>
</a>
</g>
</g>
<!-- src/pages/404.tsx&#45;&gt;src/components/layout/index.tsx -->
<g id="edge28" class="edge">
<title>src/pages/404.tsx&#45;&gt;src/components/layout/index.tsx</title>
<path fill="none" stroke="#000000" stroke-width="2" stroke-opacity="0.200000" d="M109.0501,-128.3423C121.1482,-130.8089 135.4754,-134.2482 148,-138.6574 160.9226,-143.2067 174.7132,-149.8082 185.7608,-155.5638"/>
<polygon fill="#000000" fill-opacity="0.200000" stroke="#000000" stroke-width="2" stroke-opacity="0.200000" points="184.9836,-157.5286 191.2687,-158.4812 186.9495,-153.817 184.9836,-157.5286"/>
</g>
<!-- src/pages/index.tsx -->
<g id="node31" class="node">
<title>src/pages/index.tsx</title>
<g id="a_node31"><a xlink:href="src/pages/index.tsx" xlink:title="index.tsx">
<path fill="#bbfeff" stroke="#000000" d="M105,-162.6574C105,-162.6574 59,-162.6574 59,-162.6574 56,-162.6574 53,-159.6574 53,-156.6574 53,-156.6574 53,-150.6574 53,-150.6574 53,-147.6574 56,-144.6574 59,-144.6574 59,-144.6574 105,-144.6574 105,-144.6574 108,-144.6574 111,-147.6574 111,-150.6574 111,-150.6574 111,-156.6574 111,-156.6574 111,-159.6574 108,-162.6574 105,-162.6574"/>
<text text-anchor="middle" x="82" y="-151.4574" font-family="Helvetica,sans-Serif" font-size="9.00" fill="#000000">index.tsx</text>
</a>
</g>
</g>
<!-- src/pages/index.tsx&#45;&gt;src/components/layout/index.tsx -->
<g id="edge29" class="edge">
<title>src/pages/index.tsx&#45;&gt;src/components/layout/index.tsx</title>
<path fill="none" stroke="#000000" stroke-width="2" stroke-opacity="0.200000" d="M111.1077,-156.9045C129.2719,-158.9308 152.7757,-161.5527 172.0267,-163.7002"/>
<polygon fill="#000000" fill-opacity="0.200000" stroke="#000000" stroke-width="2" stroke-opacity="0.200000" points="171.9196,-165.8012 178.1154,-164.3795 172.3853,-161.6271 171.9196,-165.8012"/>
</g>
<!-- src/pages/index.tsx&#45;&gt;src/components/post&#45;link/post&#45;list.tsx -->
<g id="edge30" class="edge">
<title>src/pages/index.tsx&#45;&gt;src/components/post&#45;link/post&#45;list.tsx</title>
<path fill="none" stroke="#000000" stroke-width="2" stroke-opacity="0.200000" d="M111.0251,-153.5159C123.9625,-154.9803 138.4126,-158.9685 148,-168.6574 159.8338,-180.6166 145.2905,-192.6817 156,-205.6574 159.3362,-209.6996 163.5509,-213.0149 168.1262,-215.7302"/>
<polygon fill="#000000" fill-opacity="0.200000" stroke="#000000" stroke-width="2" stroke-opacity="0.200000" points="167.3471,-217.6941 173.6318,-218.6498 169.3149,-213.9835 167.3471,-217.6941"/>
</g>
<!-- src/pages/tags.tsx -->
<g id="node32" class="node">
<title>src/pages/tags.tsx</title>
<g id="a_node32"><a xlink:href="src/pages/tags.tsx" xlink:title="tags.tsx">
<path fill="#bbfeff" stroke="#000000" d="M103,-192.6574C103,-192.6574 61,-192.6574 61,-192.6574 58,-192.6574 55,-189.6574 55,-186.6574 55,-186.6574 55,-180.6574 55,-180.6574 55,-177.6574 58,-174.6574 61,-174.6574 61,-174.6574 103,-174.6574 103,-174.6574 106,-174.6574 109,-177.6574 109,-180.6574 109,-180.6574 109,-186.6574 109,-186.6574 109,-189.6574 106,-192.6574 103,-192.6574"/>
<text text-anchor="middle" x="82" y="-181.4574" font-family="Helvetica,sans-Serif" font-size="9.00" fill="#000000">tags.tsx</text>
</a>
</g>
</g>
<!-- src/pages/tags.tsx&#45;&gt;src/components/layout/index.tsx -->
<g id="edge31" class="edge">
<title>src/pages/tags.tsx&#45;&gt;src/components/layout/index.tsx</title>
<path fill="none" stroke="#000000" stroke-width="2" stroke-opacity="0.200000" d="M109.2316,-180.1856C127.6554,-177.8368 152.1701,-174.7114 172.1049,-172.1699"/>
<polygon fill="#000000" fill-opacity="0.200000" stroke="#000000" stroke-width="2" stroke-opacity="0.200000" points="172.4466,-174.2435 178.1328,-171.4014 171.9153,-170.0772 172.4466,-174.2435"/>
</g>
<!-- src/pages/tags.tsx&#45;&gt;src/components/post&#45;link/post&#45;list.tsx -->
<g id="edge32" class="edge">
<title>src/pages/tags.tsx&#45;&gt;src/components/post&#45;link/post&#45;list.tsx</title>
<path fill="none" stroke="#000000" stroke-width="2" stroke-opacity="0.200000" d="M107.6996,-192.6676C127.3645,-199.5621 154.5927,-209.1082 175.6418,-216.488"/>
<polygon fill="#000000" fill-opacity="0.200000" stroke="#000000" stroke-width="2" stroke-opacity="0.200000" points="175.0465,-218.5046 181.4034,-218.508 176.4362,-214.5411 175.0465,-218.5046"/>
</g>
<!-- src/state/store.ts -->
<g id="node33" class="node">
<title>src/state/store.ts</title>
<g id="a_node33"><a xlink:href="src/state/store.ts" xlink:title="store.ts">
<path fill="#ddfeff" stroke="#000000" d="M103,-735.6574C103,-735.6574 61,-735.6574 61,-735.6574 58,-735.6574 55,-732.6574 55,-729.6574 55,-729.6574 55,-723.6574 55,-723.6574 55,-720.6574 58,-717.6574 61,-717.6574 61,-717.6574 103,-717.6574 103,-717.6574 106,-717.6574 109,-720.6574 109,-723.6574 109,-723.6574 109,-729.6574 109,-729.6574 109,-732.6574 106,-735.6574 103,-735.6574"/>
<text text-anchor="middle" x="82" y="-724.4574" font-family="Helvetica,sans-Serif" font-size="9.00" fill="#000000">store.ts</text>
</a>
</g>
</g>
<!-- src/state/ui/index.ts -->
<g id="node34" class="node">
<title>src/state/ui/index.ts</title>
<g id="a_node34"><a xlink:href="src/state/ui/index.ts" xlink:title="index.ts">
<path fill="#ddfeff" stroke="#000000" d="M228.5,-735.6574C228.5,-735.6574 186.5,-735.6574 186.5,-735.6574 183.5,-735.6574 180.5,-732.6574 180.5,-729.6574 180.5,-729.6574 180.5,-723.6574 180.5,-723.6574 180.5,-720.6574 183.5,-717.6574 186.5,-717.6574 186.5,-717.6574 228.5,-717.6574 228.5,-717.6574 231.5,-717.6574 234.5,-720.6574 234.5,-723.6574 234.5,-723.6574 234.5,-729.6574 234.5,-729.6574 234.5,-732.6574 231.5,-735.6574 228.5,-735.6574"/>
<text text-anchor="middle" x="207.5" y="-724.4574" font-family="Helvetica,sans-Serif" font-size="9.00" fill="#000000">index.ts</text>
</a>
</g>
</g>
<!-- src/state/store.ts&#45;&gt;src/state/ui/index.ts -->
<g id="edge33" class="edge">
<title>src/state/store.ts&#45;&gt;src/state/ui/index.ts</title>
<path fill="none" stroke="#000000" stroke-width="2" stroke-opacity="0.200000" d="M109.2316,-730.443C125.9241,-731.199 147.6165,-731.355 166.3725,-730.911"/>
<polygon fill="#000000" fill-opacity="0.200000" stroke="#000000" stroke-width="2" stroke-opacity="0.200000" points="174.3957,-732.7417 180.3215,-730.4406 174.2541,-728.5441 174.3957,-732.7417"/>
<polyline fill="none" stroke="#000000" stroke-width="2" stroke-opacity="0.200000" points="174.3249,-730.6429 171.3266,-730.744 "/>
<ellipse fill="none" stroke="#000000" stroke-width="2" stroke-opacity="0.200000" cx="168.928" cy="-730.8249" rx="2.4" ry="2.4"/>
</g>
<!-- src/state/ui/index.ts&#45;&gt;src/state/store.ts -->
<g id="edge34" class="edge">
<title>src/state/ui/index.ts&#45;&gt;src/state/store.ts</title>
<path fill="none" stroke="#000000" stroke-width="2" stroke-opacity="0.200000" d="M180.3215,-722.8742C163.6397,-722.117 141.9495,-721.9597 123.1872,-722.4024"/>
<polygon fill="#000000" fill-opacity="0.200000" stroke="#000000" stroke-width="2" stroke-opacity="0.200000" points="115.1576,-720.5712 109.2316,-722.8718 115.2989,-724.7689 115.1576,-720.5712"/>
<polyline fill="none" stroke="#000000" stroke-width="2" stroke-opacity="0.200000" points="115.2282,-722.6701 118.2265,-722.5692 "/>
<ellipse fill="none" stroke="#000000" stroke-width="2" stroke-opacity="0.200000" cx="120.6252" cy="-722.4885" rx="2.4" ry="2.4"/>
</g>
<!-- src/templates/ArchiveMonthPage.tsx -->
<g id="node35" class="node">
<title>src/templates/ArchiveMonthPage.tsx</title>
<g id="a_node35"><a xlink:href="src/templates/ArchiveMonthPage.tsx" xlink:title="ArchiveMonthPage.tsx">
<path fill="#bbfeff" stroke="#000000" d="M134,-312.6574C134,-312.6574 30,-312.6574 30,-312.6574 27,-312.6574 24,-309.6574 24,-306.6574 24,-306.6574 24,-300.6574 24,-300.6574 24,-297.6574 27,-294.6574 30,-294.6574 30,-294.6574 134,-294.6574 134,-294.6574 137,-294.6574 140,-297.6574 140,-300.6574 140,-300.6574 140,-306.6574 140,-306.6574 140,-309.6574 137,-312.6574 134,-312.6574"/>
<text text-anchor="middle" x="82" y="-301.4574" font-family="Helvetica,sans-Serif" font-size="9.00" fill="#000000">ArchiveMonthPage.tsx</text>
</a>
</g>
</g>
<!-- src/templates/ArchiveMonthPage.tsx&#45;&gt;src/components/layout/index.tsx -->
<g id="edge36" class="edge">
<title>src/templates/ArchiveMonthPage.tsx&#45;&gt;src/components/layout/index.tsx</title>
<path fill="none" stroke="#000000" stroke-width="2" stroke-opacity="0.200000" d="M140.0408,-295.4079C142.9761,-293.5309 145.6679,-291.3009 148,-288.6574 159.9658,-275.0935 147.258,-223.4921 156,-207.6574 162.3834,-196.0949 173.6443,-186.7637 184.0113,-180.0314"/>
<polygon fill="#000000" fill-opacity="0.200000" stroke="#000000" stroke-width="2" stroke-opacity="0.200000" points="185.321,-181.6907 189.3206,-176.7497 183.1127,-178.1181 185.321,-181.6907"/>
</g>
<!-- src/templates/ArchiveMonthPage.tsx&#45;&gt;src/components/post&#45;link/post&#45;list.tsx -->
<g id="edge37" class="edge">
<title>src/templates/ArchiveMonthPage.tsx&#45;&gt;src/components/post&#45;link/post&#45;list.tsx</title>
<path fill="none" stroke="#000000" stroke-width="2" stroke-opacity="0.200000" d="M139.2261,-294.5801C142.3609,-292.9058 145.3195,-290.9469 148,-288.6574 155.2797,-282.4397 150.2868,-276.3394 156,-268.6574 164.3631,-257.4124 176.5307,-247.5329 186.9392,-240.2909"/>
<polygon fill="#000000" fill-opacity="0.200000" stroke="#000000" stroke-width="2" stroke-opacity="0.200000" points="188.3902,-241.8455 192.1923,-236.751 186.0431,-238.3625 188.3902,-241.8455"/>
</g>
<!-- src/templates/ArchiveYearPage.tsx -->
<g id="node36" class="node">
<title>src/templates/ArchiveYearPage.tsx</title>
<g id="a_node36"><a xlink:href="src/templates/ArchiveYearPage.tsx" xlink:title="ArchiveYearPage.tsx">
<path fill="#bbfeff" stroke="#000000" d="M129,-282.6574C129,-282.6574 35,-282.6574 35,-282.6574 32,-282.6574 29,-279.6574 29,-276.6574 29,-276.6574 29,-270.6574 29,-270.6574 29,-267.6574 32,-264.6574 35,-264.6574 35,-264.6574 129,-264.6574 129,-264.6574 132,-264.6574 135,-267.6574 135,-270.6574 135,-270.6574 135,-276.6574 135,-276.6574 135,-279.6574 132,-282.6574 129,-282.6574"/>
<text text-anchor="middle" x="82" y="-271.4574" font-family="Helvetica,sans-Serif" font-size="9.00" fill="#000000">ArchiveYearPage.tsx</text>
</a>
</g>
</g>
<!-- src/templates/ArchiveYearPage.tsx&#45;&gt;src/components/layout/index.tsx -->
<g id="edge38" class="edge">
<title>src/templates/ArchiveYearPage.tsx&#45;&gt;src/components/layout/index.tsx</title>
<path fill="none" stroke="#000000" stroke-width="2" stroke-opacity="0.200000" d="M135.2418,-267.7592C140.0099,-265.49 144.39,-262.5211 148,-258.6574 163.6639,-241.8925 144.3416,-227.4185 156,-207.6574 162.7601,-196.1989 174.1661,-186.8315 184.528,-180.0498"/>
<polygon fill="#000000" fill-opacity="0.200000" stroke="#000000" stroke-width="2" stroke-opacity="0.200000" points="185.8462,-181.7025 189.8214,-176.7418 183.6203,-178.1408 185.8462,-181.7025"/>
</g>
<!-- src/templates/ArchiveYearPage.tsx&#45;&gt;src/components/post&#45;link/post&#45;list.tsx -->
<g id="edge39" class="edge">
<title>src/templates/ArchiveYearPage.tsx&#45;&gt;src/components/post&#45;link/post&#45;list.tsx</title>
<path fill="none" stroke="#000000" stroke-width="2" stroke-opacity="0.200000" d="M128.5966,-264.6497C135.1901,-262.9191 141.8229,-260.9255 148,-258.6574 161.7188,-253.6202 176.2826,-246.0741 187.5677,-239.6883"/>
<polygon fill="#000000" fill-opacity="0.200000" stroke="#000000" stroke-width="2" stroke-opacity="0.200000" points="188.6729,-241.4753 192.8262,-236.6628 186.5783,-237.8348 188.6729,-241.4753"/>
</g>
<!-- src/templates/BlogPost.tsx -->
<g id="node37" class="node">
<title>src/templates/BlogPost.tsx</title>
<g id="a_node37"><a xlink:href="src/templates/BlogPost.tsx" xlink:title="BlogPost.tsx">
<path fill="#bbfeff" stroke="#000000" d="M111.5,-342.6574C111.5,-342.6574 52.5,-342.6574 52.5,-342.6574 49.5,-342.6574 46.5,-339.6574 46.5,-336.6574 46.5,-336.6574 46.5,-330.6574 46.5,-330.6574 46.5,-327.6574 49.5,-324.6574 52.5,-324.6574 52.5,-324.6574 111.5,-324.6574 111.5,-324.6574 114.5,-324.6574 117.5,-327.6574 117.5,-330.6574 117.5,-330.6574 117.5,-336.6574 117.5,-336.6574 117.5,-339.6574 114.5,-342.6574 111.5,-342.6574"/>
<text text-anchor="middle" x="82" y="-331.4574" font-family="Helvetica,sans-Serif" font-size="9.00" fill="#000000">BlogPost.tsx</text>
</a>
</g>
</g>
<!-- src/templates/BlogPost.tsx&#45;&gt;src/components/atoms/mdx&#45;components.tsx -->
<g id="edge40" class="edge">
<title>src/templates/BlogPost.tsx&#45;&gt;src/components/atoms/mdx&#45;components.tsx</title>
<path fill="none" stroke="#000000" stroke-width="2" stroke-opacity="0.200000" d="M89.9028,-342.9212C121.3832,-379.1499 242.4902,-512.2133 373,-572.6574 379.2953,-575.573 386.1057,-577.9229 393.0214,-579.8167"/>
<polygon fill="#000000" fill-opacity="0.200000" stroke="#000000" stroke-width="2" stroke-opacity="0.200000" points="392.5134,-581.8542 398.8463,-581.3026 393.5516,-577.7846 392.5134,-581.8542"/>
</g>
<!-- src/templates/BlogPost.tsx&#45;&gt;src/components/content/tags.tsx -->
<g id="edge41" class="edge">
<title>src/templates/BlogPost.tsx&#45;&gt;src/components/content/tags.tsx</title>
<path fill="none" stroke="#000000" stroke-width="2" stroke-opacity="0.200000" d="M116.207,-342.6783C153.2719,-350.2809 212.2877,-355.7958 251,-326.6574 259.9833,-319.8958 250.7976,-310.3477 259,-302.6574 265.5505,-296.5159 274.3074,-292.8223 282.9886,-290.62"/>
<polygon fill="#000000" fill-opacity="0.200000" stroke="#000000" stroke-width="2" stroke-opacity="0.200000" points="283.5417,-292.6489 288.9585,-289.3219 282.6492,-288.5448 283.5417,-292.6489"/>
</g>
<!-- src/templates/BlogPost.tsx&#45;&gt;src/components/layout/index.tsx -->
<g id="edge42" class="edge">
<title>src/templates/BlogPost.tsx&#45;&gt;src/components/layout/index.tsx</title>
<path fill="none" stroke="#000000" stroke-width="2" stroke-opacity="0.200000" d="M117.815,-333.5518C129.0665,-331.6387 140.497,-327.3931 148,-318.6574 164.1134,-299.8967 144.3352,-229.4642 156,-207.6574 162.2297,-196.0113 173.4769,-186.6727 183.8747,-179.9571"/>
<polygon fill="#000000" fill-opacity="0.200000" stroke="#000000" stroke-width="2" stroke-opacity="0.200000" points="185.1887,-181.6147 189.2036,-176.6861 182.9915,-178.0352 185.1887,-181.6147"/>
</g>
<!-- src/templates/IndividualTagPage.tsx -->
<g id="node38" class="node">
<title>src/templates/IndividualTagPage.tsx</title>
<g id="a_node38"><a xlink:href="src/templates/IndividualTagPage.tsx" xlink:title="IndividualTagPage.tsx">
<path fill="#bbfeff" stroke="#000000" d="M132.5,-252.6574C132.5,-252.6574 31.5,-252.6574 31.5,-252.6574 28.5,-252.6574 25.5,-249.6574 25.5,-246.6574 25.5,-246.6574 25.5,-240.6574 25.5,-240.6574 25.5,-237.6574 28.5,-234.6574 31.5,-234.6574 31.5,-234.6574 132.5,-234.6574 132.5,-234.6574 135.5,-234.6574 138.5,-237.6574 138.5,-240.6574 138.5,-240.6574 138.5,-246.6574 138.5,-246.6574 138.5,-249.6574 135.5,-252.6574 132.5,-252.6574"/>
<text text-anchor="middle" x="82" y="-241.4574" font-family="Helvetica,sans-Serif" font-size="9.00" fill="#000000">IndividualTagPage.tsx</text>
</a>
</g>
</g>
<!-- src/templates/IndividualTagPage.tsx&#45;&gt;src/components/layout/index.tsx -->
<g id="edge43" class="edge">
<title>src/templates/IndividualTagPage.tsx&#45;&gt;src/components/layout/index.tsx</title>
<path fill="none" stroke="#000000" stroke-width="2" stroke-opacity="0.200000" d="M124.5076,-234.5733C132.8848,-231.4381 141.1814,-227.2473 148,-221.6574 153.5421,-217.114 151.3027,-213.0698 156,-207.6574 165.0993,-197.1729 177.2978,-187.5549 187.5387,-180.3788"/>
<polygon fill="#000000" fill-opacity="0.200000" stroke="#000000" stroke-width="2" stroke-opacity="0.200000" points="188.9214,-181.9774 192.6888,-176.8571 186.5506,-178.5104 188.9214,-181.9774"/>
</g>
<!-- src/templates/IndividualTagPage.tsx&#45;&gt;src/components/post&#45;link/post&#45;list.tsx -->
<g id="edge44" class="edge">
<title>src/templates/IndividualTagPage.tsx&#45;&gt;src/components/post&#45;link/post&#45;list.tsx</title>
<path fill="none" stroke="#000000" stroke-width="2" stroke-opacity="0.200000" d="M138.5087,-236.4531C148.1295,-235.2266 157.948,-233.9748 167.0474,-232.8147"/>
<polygon fill="#000000" fill-opacity="0.200000" stroke="#000000" stroke-width="2" stroke-opacity="0.200000" points="167.5346,-234.8697 173.2208,-232.0277 167.0034,-230.7034 167.5346,-234.8697"/>
</g>
<!-- src/tests/libs/Post.test.ts -->
<g id="node39" class="node">
<title>src/tests/libs/Post.test.ts</title>
<g id="a_node39"><a xlink:href="src/tests/libs/Post.test.ts" xlink:title="Post.test.ts">
<path fill="#ddfeff" stroke="#000000" d="M483,-720.6574C483,-720.6574 428,-720.6574 428,-720.6574 425,-720.6574 422,-717.6574 422,-714.6574 422,-714.6574 422,-708.6574 422,-708.6574 422,-705.6574 425,-702.6574 428,-702.6574 428,-702.6574 483,-702.6574 483,-702.6574 486,-702.6574 489,-705.6574 489,-708.6574 489,-708.6574 489,-714.6574 489,-714.6574 489,-717.6574 486,-720.6574 483,-720.6574"/>
<text text-anchor="middle" x="455.5" y="-709.4574" font-family="Helvetica,sans-Serif" font-size="9.00" fill="#000000">Post.test.ts</text>
</a>
</g>
</g>
<!-- src/tests/libs/Post.test.ts&#45;&gt;src/libs/post.ts -->
<g id="edge45" class="edge">
<title>src/tests/libs/Post.test.ts&#45;&gt;src/libs/post.ts</title>
<path fill="none" stroke="#000000" stroke-width="2" stroke-opacity="0.200000" d="M465.2378,-721.0939C480.9684,-735.8447 513.5037,-764.3602 546,-780.6574 552.0333,-783.6832 558.7719,-786.1862 565.3567,-788.2232"/>
<polygon fill="#000000" fill-opacity="0.200000" stroke="#000000" stroke-width="2" stroke-opacity="0.200000" points="564.9881,-790.303 571.336,-789.9645 566.1625,-786.2706 564.9881,-790.303"/>
</g>
<!-- src/tests/libs/generate_variables.test.ts -->
<g id="node40" class="node">
<title>src/tests/libs/generate_variables.test.ts</title>
<g id="a_node40"><a xlink:href="src/tests/libs/generate_variables.test.ts" xlink:title="generate_variables.test.ts">
<path fill="#ddfeff" stroke="#000000" d="M516,-690.6574C516,-690.6574 395,-690.6574 395,-690.6574 392,-690.6574 389,-687.6574 389,-684.6574 389,-684.6574 389,-678.6574 389,-678.6574 389,-675.6574 392,-672.6574 395,-672.6574 395,-672.6574 516,-672.6574 516,-672.6574 519,-672.6574 522,-675.6574 522,-678.6574 522,-678.6574 522,-684.6574 522,-684.6574 522,-687.6574 519,-690.6574 516,-690.6574"/>
<text text-anchor="middle" x="455.5" y="-679.4574" font-family="Helvetica,sans-Serif" font-size="9.00" fill="#000000">generate_variables.test.ts</text>
</a>
</g>
</g>
<!-- src/tests/libs/generate_variables.test.ts&#45;&gt;src/styles/variables.ts -->
<g id="edge46" class="edge">
<title>src/tests/libs/generate_variables.test.ts&#45;&gt;src/styles/variables.ts</title>
<path fill="none" stroke="#000000" stroke-width="2" stroke-opacity="0.200000" d="M479.0534,-672.4883C498.4098,-663.6137 524.7281,-648.1769 538,-625.6574 547.97,-608.7406 543.9424,-557.1855 546,-537.6574 563.4666,-371.8839 589.1823,-171.3859 596.4946,-115.0382"/>
<polygon fill="#000000" fill-opacity="0.200000" stroke="#000000" stroke-width="2" stroke-opacity="0.200000" points="598.6024,-115.1138 597.2933,-108.8932 594.4374,-114.5724 598.6024,-115.1138"/>
</g>
<!-- src/utils/nage.ts -->
<g id="node41" class="node">
<title>src/utils/nage.ts</title>
<g id="a_node41"><a xlink:href="src/utils/nage.ts" xlink:title="nage.ts">
<path fill="#ccffcc" stroke="#000000" d="M103,-72.6574C103,-72.6574 61,-72.6574 61,-72.6574 58,-72.6574 55,-69.6574 55,-66.6574 55,-66.6574 55,-60.6574 55,-60.6574 55,-57.6574 58,-54.6574 61,-54.6574 61,-54.6574 103,-54.6574 103,-54.6574 106,-54.6574 109,-57.6574 109,-60.6574 109,-60.6574 109,-66.6574 109,-66.6574 109,-69.6574 106,-72.6574 103,-72.6574"/>
<text text-anchor="middle" x="82" y="-61.4574" font-family="Helvetica,sans-Serif" font-size="9.00" fill="#000000">nage.ts</text>
</a>
</g>
</g>
<!-- src/utils/throwIfNully.ts -->
<g id="node42" class="node">
<title>src/utils/throwIfNully.ts</title>
<g id="a_node42"><a xlink:href="src/utils/throwIfNully.ts" xlink:title="throwIfNully.ts">
<path fill="#ccffcc" stroke="#000000" d="M116.5,-42.6574C116.5,-42.6574 47.5,-42.6574 47.5,-42.6574 44.5,-42.6574 41.5,-39.6574 41.5,-36.6574 41.5,-36.6574 41.5,-30.6574 41.5,-30.6574 41.5,-27.6574 44.5,-24.6574 47.5,-24.6574 47.5,-24.6574 116.5,-24.6574 116.5,-24.6574 119.5,-24.6574 122.5,-27.6574 122.5,-30.6574 122.5,-30.6574 122.5,-36.6574 122.5,-36.6574 122.5,-39.6574 119.5,-42.6574 116.5,-42.6574"/>
<text text-anchor="middle" x="82" y="-31.4574" font-family="Helvetica,sans-Serif" font-size="9.00" fill="#000000">throwIfNully.ts</text>
</a>
</g>
</g>
</g>
</svg>
