<?xml version="1.0" encoding="UTF-8" standalone="no"?>
<!DOCTYPE svg PUBLIC "-//W3C//DTD SVG 1.1//EN"
 "http://www.w3.org/Graphics/SVG/1.1/DTD/svg11.dtd">
<!-- Generated by graphviz version 2.40.1 (20161225.0304)
 -->
<!-- Title: dependency&#45;cruiser output Pages: 1 -->
<svg width="1005pt" height="797pt"
 viewBox="0.00 0.00 1005.00 797.04" xmlns="http://www.w3.org/2000/svg" xmlns:xlink="http://www.w3.org/1999/xlink">
<g id="graph0" class="graph" transform="scale(1 1) rotate(0) translate(4 793.0389)">
<title>dependency&#45;cruiser output</title>
<polygon fill="#ffffff" stroke="transparent" points="-4,4 -4,-793.0389 1001,-793.0389 1001,4 -4,4"/>
<g id="clust1" class="cluster">
<title>cluster_src</title>
<path fill="#ffffff" stroke="#000000" stroke-width="2" d="M20,-37.0389C20,-37.0389 977,-37.0389 977,-37.0389 983,-37.0389 989,-43.0389 989,-49.0389 989,-49.0389 989,-769.0389 989,-769.0389 989,-775.0389 983,-781.0389 977,-781.0389 977,-781.0389 20,-781.0389 20,-781.0389 14,-781.0389 8,-775.0389 8,-769.0389 8,-769.0389 8,-49.0389 8,-49.0389 8,-43.0389 14,-37.0389 20,-37.0389"/>
<text text-anchor="middle" x="498.5" y="-769.8389" font-family="Helvetica,sans-Serif" font-weight="bold" font-size="9.00" fill="#000000">src</text>
</g>
<g id="clust2" class="cluster">
<title>cluster_src/components</title>
<path fill="#ffffff" stroke="#000000" stroke-width="2" d="M286,-69.0389C286,-69.0389 969,-69.0389 969,-69.0389 975,-69.0389 981,-75.0389 981,-81.0389 981,-81.0389 981,-413.0389 981,-413.0389 981,-419.0389 975,-425.0389 969,-425.0389 969,-425.0389 286,-425.0389 286,-425.0389 280,-425.0389 274,-419.0389 274,-413.0389 274,-413.0389 274,-81.0389 274,-81.0389 274,-75.0389 280,-69.0389 286,-69.0389"/>
<text text-anchor="middle" x="627.5" y="-413.8389" font-family="Helvetica,sans-Serif" font-weight="bold" font-size="9.00" fill="#000000">components</text>
</g>
<g id="clust3" class="cluster">
<title>cluster_src/components/atoms</title>
<path fill="#ffffff" stroke="#000000" stroke-width="2" d="M623,-241.0389C623,-241.0389 961,-241.0389 961,-241.0389 967,-241.0389 973,-247.0389 973,-253.0389 973,-253.0389 973,-311.0389 973,-311.0389 973,-317.0389 967,-323.0389 961,-323.0389 961,-323.0389 623,-323.0389 623,-323.0389 617,-323.0389 611,-317.0389 611,-311.0389 611,-311.0389 611,-253.0389 611,-253.0389 611,-247.0389 617,-241.0389 623,-241.0389"/>
<text text-anchor="middle" x="792" y="-311.8389" font-family="Helvetica,sans-Serif" font-weight="bold" font-size="9.00" fill="#000000">atoms</text>
</g>
<g id="clust4" class="cluster">
<title>cluster_src/components/content</title>
<path fill="#ffffff" stroke="#000000" stroke-width="2" d="M403.5,-227.0389C403.5,-227.0389 588,-227.0389 588,-227.0389 594,-227.0389 600,-233.0389 600,-239.0389 600,-239.0389 600,-327.0389 600,-327.0389 600,-333.0389 594,-339.0389 588,-339.0389 588,-339.0389 403.5,-339.0389 403.5,-339.0389 397.5,-339.0389 391.5,-333.0389 391.5,-327.0389 391.5,-327.0389 391.5,-239.0389 391.5,-239.0389 391.5,-233.0389 397.5,-227.0389 403.5,-227.0389"/>
<text text-anchor="middle" x="495.75" y="-327.8389" font-family="Helvetica,sans-Serif" font-weight="bold" font-size="9.00" fill="#000000">content</text>
</g>
<g id="clust5" class="cluster">
<title>cluster_src/components/embeddeds</title>
<path fill="#ffffff" stroke="#000000" stroke-width="2" d="M294,-347.0389C294,-347.0389 357,-347.0389 357,-347.0389 363,-347.0389 369,-353.0389 369,-359.0389 369,-359.0389 369,-387.0389 369,-387.0389 369,-393.0389 363,-399.0389 357,-399.0389 357,-399.0389 294,-399.0389 294,-399.0389 288,-399.0389 282,-393.0389 282,-387.0389 282,-387.0389 282,-359.0389 282,-359.0389 282,-353.0389 288,-347.0389 294,-347.0389"/>
<text text-anchor="middle" x="325.5" y="-387.8389" font-family="Helvetica,sans-Serif" font-weight="bold" font-size="9.00" fill="#000000">embeddeds</text>
</g>
<g id="clust6" class="cluster">
<title>cluster_src/components/header</title>
<path fill="#ffffff" stroke="#000000" stroke-width="2" d="M406.5,-347.0389C406.5,-347.0389 456.5,-347.0389 456.5,-347.0389 462.5,-347.0389 468.5,-353.0389 468.5,-359.0389 468.5,-359.0389 468.5,-387.0389 468.5,-387.0389 468.5,-393.0389 462.5,-399.0389 456.5,-399.0389 456.5,-399.0389 406.5,-399.0389 406.5,-399.0389 400.5,-399.0389 394.5,-393.0389 394.5,-387.0389 394.5,-387.0389 394.5,-359.0389 394.5,-359.0389 394.5,-353.0389 400.5,-347.0389 406.5,-347.0389"/>
<text text-anchor="middle" x="431.5" y="-387.8389" font-family="Helvetica,sans-Serif" font-weight="bold" font-size="9.00" fill="#000000">header</text>
</g>
<g id="clust7" class="cluster">
<title>cluster_src/components/layout</title>
<path fill="#ffffff" stroke="#000000" stroke-width="2" d="M300.5,-287.0389C300.5,-287.0389 350.5,-287.0389 350.5,-287.0389 356.5,-287.0389 362.5,-293.0389 362.5,-299.0389 362.5,-299.0389 362.5,-327.0389 362.5,-327.0389 362.5,-333.0389 356.5,-339.0389 350.5,-339.0389 350.5,-339.0389 300.5,-339.0389 300.5,-339.0389 294.5,-339.0389 288.5,-333.0389 288.5,-327.0389 288.5,-327.0389 288.5,-299.0389 288.5,-299.0389 288.5,-293.0389 294.5,-287.0389 300.5,-287.0389"/>
<text text-anchor="middle" x="325.5" y="-327.8389" font-family="Helvetica,sans-Serif" font-weight="bold" font-size="9.00" fill="#000000">layout</text>
</g>
<g id="clust8" class="cluster">
<title>cluster_src/components/post&#45;link</title>
<path fill="#ffffff" stroke="#000000" stroke-width="2" d="M295.5,-167.0389C295.5,-167.0389 573,-167.0389 573,-167.0389 579,-167.0389 585,-173.0389 585,-179.0389 585,-179.0389 585,-207.0389 585,-207.0389 585,-213.0389 579,-219.0389 573,-219.0389 573,-219.0389 295.5,-219.0389 295.5,-219.0389 289.5,-219.0389 283.5,-213.0389 283.5,-207.0389 283.5,-207.0389 283.5,-179.0389 283.5,-179.0389 283.5,-173.0389 289.5,-167.0389 295.5,-167.0389"/>
<text text-anchor="middle" x="434.25" y="-207.8389" font-family="Helvetica,sans-Serif" font-weight="bold" font-size="9.00" fill="#000000">post&#45;link</text>
</g>
<g id="clust9" class="cluster">
<title>cluster_src/components/sidebar</title>
<path fill="#ffffff" stroke="#000000" stroke-width="2" d="M500,-77.0389C500,-77.0389 703.5,-77.0389 703.5,-77.0389 709.5,-77.0389 715.5,-83.0389 715.5,-89.0389 715.5,-89.0389 715.5,-147.0389 715.5,-147.0389 715.5,-153.0389 709.5,-159.0389 703.5,-159.0389 703.5,-159.0389 500,-159.0389 500,-159.0389 494,-159.0389 488,-153.0389 488,-147.0389 488,-147.0389 488,-89.0389 488,-89.0389 488,-83.0389 494,-77.0389 500,-77.0389"/>
<text text-anchor="middle" x="601.75" y="-147.8389" font-family="Helvetica,sans-Serif" font-weight="bold" font-size="9.00" fill="#000000">sidebar</text>
</g>
<g id="clust10" class="cluster">
<title>cluster_src/components/table&#45;of&#45;contents</title>
<path fill="#ffffff" stroke="#000000" stroke-width="2" d="M635.5,-331.0389C635.5,-331.0389 716.5,-331.0389 716.5,-331.0389 722.5,-331.0389 728.5,-337.0389 728.5,-343.0389 728.5,-343.0389 728.5,-371.0389 728.5,-371.0389 728.5,-377.0389 722.5,-383.0389 716.5,-383.0389 716.5,-383.0389 635.5,-383.0389 635.5,-383.0389 629.5,-383.0389 623.5,-377.0389 623.5,-371.0389 623.5,-371.0389 623.5,-343.0389 623.5,-343.0389 623.5,-337.0389 629.5,-331.0389 635.5,-331.0389"/>
<text text-anchor="middle" x="676" y="-371.8389" font-family="Helvetica,sans-Serif" font-weight="bold" font-size="9.00" fill="#000000">table&#45;of&#45;contents</text>
</g>
<g id="clust11" class="cluster">
<title>cluster_src/gatsby&#45;node</title>
<path fill="#ffffff" stroke="#000000" stroke-width="2" d="M28,-673.0389C28,-673.0389 248,-673.0389 248,-673.0389 254,-673.0389 260,-679.0389 260,-685.0389 260,-685.0389 260,-743.0389 260,-743.0389 260,-749.0389 254,-755.0389 248,-755.0389 248,-755.0389 28,-755.0389 28,-755.0389 22,-755.0389 16,-749.0389 16,-743.0389 16,-743.0389 16,-685.0389 16,-685.0389 16,-679.0389 22,-673.0389 28,-673.0389"/>
<text text-anchor="middle" x="138" y="-743.8389" font-family="Helvetica,sans-Serif" font-weight="bold" font-size="9.00" fill="#000000">gatsby&#45;node</text>
</g>
<g id="clust12" class="cluster">
<title>cluster_src/libs</title>
<path fill="#ffffff" stroke="#000000" stroke-width="2" d="M280,-523.0389C280,-523.0389 454.5,-523.0389 454.5,-523.0389 460.5,-523.0389 466.5,-529.0389 466.5,-535.0389 466.5,-535.0389 466.5,-743.0389 466.5,-743.0389 466.5,-749.0389 460.5,-755.0389 454.5,-755.0389 454.5,-755.0389 280,-755.0389 280,-755.0389 274,-755.0389 268,-749.0389 268,-743.0389 268,-743.0389 268,-535.0389 268,-535.0389 268,-529.0389 274,-523.0389 280,-523.0389"/>
<text text-anchor="middle" x="367.25" y="-743.8389" font-family="Helvetica,sans-Serif" font-weight="bold" font-size="9.00" fill="#000000">libs</text>
</g>
<g id="clust13" class="cluster">
<title>cluster_src/pages</title>
<path fill="#ffffff" stroke="#000000" stroke-width="2" d="M146.5,-475.0389C146.5,-475.0389 196.5,-475.0389 196.5,-475.0389 202.5,-475.0389 208.5,-481.0389 208.5,-487.0389 208.5,-487.0389 208.5,-575.0389 208.5,-575.0389 208.5,-581.0389 202.5,-587.0389 196.5,-587.0389 196.5,-587.0389 146.5,-587.0389 146.5,-587.0389 140.5,-587.0389 134.5,-581.0389 134.5,-575.0389 134.5,-575.0389 134.5,-487.0389 134.5,-487.0389 134.5,-481.0389 140.5,-475.0389 146.5,-475.0389"/>
<text text-anchor="middle" x="171.5" y="-575.8389" font-family="Helvetica,sans-Serif" font-weight="bold" font-size="9.00" fill="#000000">pages</text>
</g>
<g id="clust14" class="cluster">
<title>cluster_src/state</title>
<path fill="#ffffff" stroke="#000000" stroke-width="2" d="M28,-381.0389C28,-381.0389 202.5,-381.0389 202.5,-381.0389 208.5,-381.0389 214.5,-387.0389 214.5,-393.0389 214.5,-393.0389 214.5,-455.0389 214.5,-455.0389 214.5,-461.0389 208.5,-467.0389 202.5,-467.0389 202.5,-467.0389 28,-467.0389 28,-467.0389 22,-467.0389 16,-461.0389 16,-455.0389 16,-455.0389 16,-393.0389 16,-393.0389 16,-387.0389 22,-381.0389 28,-381.0389"/>
<text text-anchor="middle" x="115.25" y="-455.8389" font-family="Helvetica,sans-Serif" font-weight="bold" font-size="9.00" fill="#000000">state</text>
</g>
<g id="clust15" class="cluster">
<title>cluster_src/state/ui</title>
<path fill="#ffffff" stroke="#000000" stroke-width="2" d="M148.5,-389.0389C148.5,-389.0389 194.5,-389.0389 194.5,-389.0389 200.5,-389.0389 206.5,-395.0389 206.5,-401.0389 206.5,-401.0389 206.5,-429.0389 206.5,-429.0389 206.5,-435.0389 200.5,-441.0389 194.5,-441.0389 194.5,-441.0389 148.5,-441.0389 148.5,-441.0389 142.5,-441.0389 136.5,-435.0389 136.5,-429.0389 136.5,-429.0389 136.5,-401.0389 136.5,-401.0389 136.5,-395.0389 142.5,-389.0389 148.5,-389.0389"/>
<text text-anchor="middle" x="171.5" y="-429.8389" font-family="Helvetica,sans-Serif" font-weight="bold" font-size="9.00" fill="#000000">ui</text>
</g>
<g id="clust16" class="cluster">
<title>cluster_src/styles</title>
<path fill="#ffffff" stroke="#000000" stroke-width="2" d="M767,-433.0389C767,-433.0389 957,-433.0389 957,-433.0389 963,-433.0389 969,-439.0389 969,-445.0389 969,-445.0389 969,-533.0389 969,-533.0389 969,-539.0389 963,-545.0389 957,-545.0389 957,-545.0389 767,-545.0389 767,-545.0389 761,-545.0389 755,-539.0389 755,-533.0389 755,-533.0389 755,-445.0389 755,-445.0389 755,-439.0389 761,-433.0389 767,-433.0389"/>
<text text-anchor="middle" x="862" y="-533.8389" font-family="Helvetica,sans-Serif" font-weight="bold" font-size="9.00" fill="#000000">styles</text>
</g>
<g id="clust17" class="cluster">
<title>cluster_src/templates</title>
<path fill="#ffffff" stroke="#000000" stroke-width="2" d="M117.5,-107.0389C117.5,-107.0389 225.5,-107.0389 225.5,-107.0389 231.5,-107.0389 237.5,-113.0389 237.5,-119.0389 237.5,-119.0389 237.5,-237.0389 237.5,-237.0389 237.5,-243.0389 231.5,-249.0389 225.5,-249.0389 225.5,-249.0389 117.5,-249.0389 117.5,-249.0389 111.5,-249.0389 105.5,-243.0389 105.5,-237.0389 105.5,-237.0389 105.5,-119.0389 105.5,-119.0389 105.5,-113.0389 111.5,-107.0389 117.5,-107.0389"/>
<text text-anchor="middle" x="171.5" y="-237.8389" font-family="Helvetica,sans-Serif" font-weight="bold" font-size="9.00" fill="#000000">templates</text>
</g>
<g id="clust18" class="cluster">
<title>cluster_src/tests</title>
<path fill="#ffffff" stroke="#000000" stroke-width="2" d="M101,-257.0389C101,-257.0389 242,-257.0389 242,-257.0389 248,-257.0389 254,-263.0389 254,-269.0389 254,-269.0389 254,-361.0389 254,-361.0389 254,-367.0389 248,-373.0389 242,-373.0389 242,-373.0389 101,-373.0389 101,-373.0389 95,-373.0389 89,-367.0389 89,-361.0389 89,-361.0389 89,-269.0389 89,-269.0389 89,-263.0389 95,-257.0389 101,-257.0389"/>
<text text-anchor="middle" x="171.5" y="-361.8389" font-family="Helvetica,sans-Serif" font-weight="bold" font-size="9.00" fill="#000000">tests</text>
</g>
<g id="clust19" class="cluster">
<title>cluster_src/tests/libs</title>
<path fill="#ffffff" stroke="#000000" stroke-width="2" d="M109,-265.0389C109,-265.0389 234,-265.0389 234,-265.0389 240,-265.0389 246,-271.0389 246,-277.0389 246,-277.0389 246,-335.0389 246,-335.0389 246,-341.0389 240,-347.0389 234,-347.0389 234,-347.0389 109,-347.0389 109,-347.0389 103,-347.0389 97,-341.0389 97,-335.0389 97,-335.0389 97,-277.0389 97,-277.0389 97,-271.0389 103,-265.0389 109,-265.0389"/>
<text text-anchor="middle" x="171.5" y="-335.8389" font-family="Helvetica,sans-Serif" font-weight="bold" font-size="9.00" fill="#000000">libs</text>
</g>
<g id="clust20" class="cluster">
<title>cluster_src/utils</title>
<path fill="#ffffff" stroke="#000000" stroke-width="2" d="M395,-433.0389C395,-433.0389 468,-433.0389 468,-433.0389 474,-433.0389 480,-439.0389 480,-445.0389 480,-445.0389 480,-503.0389 480,-503.0389 480,-509.0389 474,-515.0389 468,-515.0389 468,-515.0389 395,-515.0389 395,-515.0389 389,-515.0389 383,-509.0389 383,-503.0389 383,-503.0389 383,-445.0389 383,-445.0389 383,-439.0389 389,-433.0389 395,-433.0389"/>
<text text-anchor="middle" x="431.5" y="-503.8389" font-family="Helvetica,sans-Serif" font-weight="bold" font-size="9.00" fill="#000000">utils</text>
</g>
<!-- src/components/atoms/Colorized.tsx -->
<g id="node1" class="node">
<title>src/components/atoms/Colorized.tsx</title>
<g id="a_node1"><a xlink:href="src/components/atoms/Colorized.tsx" xlink:title="Colorized.tsx">
<path fill="#bbfeff" stroke="#000000" d="M706.5,-297.0389C706.5,-297.0389 644.5,-297.0389 644.5,-297.0389 641.5,-297.0389 638.5,-294.0389 638.5,-291.0389 638.5,-291.0389 638.5,-285.0389 638.5,-285.0389 638.5,-282.0389 641.5,-279.0389 644.5,-279.0389 644.5,-279.0389 706.5,-279.0389 706.5,-279.0389 709.5,-279.0389 712.5,-282.0389 712.5,-285.0389 712.5,-285.0389 712.5,-291.0389 712.5,-291.0389 712.5,-294.0389 709.5,-297.0389 706.5,-297.0389"/>
<text text-anchor="middle" x="675.5" y="-285.8389" font-family="Helvetica,sans-Serif" font-size="9.00" fill="#000000">Colorized.tsx</text>
</a>
</g>
</g>
<!-- src/styles/colorScheme.ts -->
<g id="node2" class="node">
<title>src/styles/colorScheme.ts</title>
<g id="a_node2"><a xlink:href="src/styles/colorScheme.ts" xlink:title="colorScheme.ts">
<path fill="#ddfeff" stroke="#000000" d="M955,-459.0389C955,-459.0389 881,-459.0389 881,-459.0389 878,-459.0389 875,-456.0389 875,-453.0389 875,-453.0389 875,-447.0389 875,-447.0389 875,-444.0389 878,-441.0389 881,-441.0389 881,-441.0389 955,-441.0389 955,-441.0389 958,-441.0389 961,-444.0389 961,-447.0389 961,-447.0389 961,-453.0389 961,-453.0389 961,-456.0389 958,-459.0389 955,-459.0389"/>
<text text-anchor="middle" x="918" y="-447.8389" font-family="Helvetica,sans-Serif" font-size="9.00" fill="#000000">colorScheme.ts</text>
</a>
</g>
</g>
<!-- src/components/atoms/Colorized.tsx&#45;&gt;src/styles/colorScheme.ts -->
<g id="edge1" class="edge">
<title>src/components/atoms/Colorized.tsx&#45;&gt;src/styles/colorScheme.ts</title>
<path fill="none" stroke="#000000" stroke-width="2" stroke-opacity="0.200000" d="M689.2327,-297.2129C730.3314,-324.6686 852.4114,-406.223 899.3364,-437.5708"/>
<polygon fill="#000000" fill-opacity="0.200000" stroke="#000000" stroke-width="2" stroke-opacity="0.200000" points="898.2623,-439.3788 904.4179,-440.9656 900.5953,-435.8864 898.2623,-439.3788"/>
</g>
<!-- src/components/atoms/anchor&#45;or&#45;link.tsx -->
<g id="node3" class="node">
<title>src/components/atoms/anchor&#45;or&#45;link.tsx</title>
<g id="a_node3"><a xlink:href="src/components/atoms/anchor-or-link.tsx" xlink:title="anchor&#45;or&#45;link.tsx">
<path fill="#bbfeff" stroke="#000000" d="M959,-271.0389C959,-271.0389 877,-271.0389 877,-271.0389 874,-271.0389 871,-268.0389 871,-265.0389 871,-265.0389 871,-259.0389 871,-259.0389 871,-256.0389 874,-253.0389 877,-253.0389 877,-253.0389 959,-253.0389 959,-253.0389 962,-253.0389 965,-256.0389 965,-259.0389 965,-259.0389 965,-265.0389 965,-265.0389 965,-268.0389 962,-271.0389 959,-271.0389"/>
<text text-anchor="middle" x="918" y="-259.8389" font-family="Helvetica,sans-Serif" font-size="9.00" fill="#000000">anchor&#45;or&#45;link.tsx</text>
</a>
</g>
</g>
<!-- src/components/atoms/mdx&#45;components.tsx -->
<g id="node4" class="node">
<title>src/components/atoms/mdx&#45;components.tsx</title>
<g id="a_node4"><a xlink:href="src/components/atoms/mdx-components.tsx" xlink:title="mdx&#45;components.tsx">
<path fill="#bbfeff" stroke="#000000" d="M726,-267.0389C726,-267.0389 625,-267.0389 625,-267.0389 622,-267.0389 619,-264.0389 619,-261.0389 619,-261.0389 619,-255.0389 619,-255.0389 619,-252.0389 622,-249.0389 625,-249.0389 625,-249.0389 726,-249.0389 726,-249.0389 729,-249.0389 732,-252.0389 732,-255.0389 732,-255.0389 732,-261.0389 732,-261.0389 732,-264.0389 729,-267.0389 726,-267.0389"/>
<text text-anchor="middle" x="675.5" y="-255.8389" font-family="Helvetica,sans-Serif" font-size="9.00" fill="#000000">mdx&#45;components.tsx</text>
</a>
</g>
</g>
<!-- src/styles/styleValues.ts -->
<g id="node5" class="node">
<title>src/styles/styleValues.ts</title>
<g id="a_node5"><a xlink:href="src/styles/styleValues.ts" xlink:title="styleValues.ts">
<path fill="#ddfeff" stroke="#000000" d="M840,-459.0389C840,-459.0389 775,-459.0389 775,-459.0389 772,-459.0389 769,-456.0389 769,-453.0389 769,-453.0389 769,-447.0389 769,-447.0389 769,-444.0389 772,-441.0389 775,-441.0389 775,-441.0389 840,-441.0389 840,-441.0389 843,-441.0389 846,-444.0389 846,-447.0389 846,-447.0389 846,-453.0389 846,-453.0389 846,-456.0389 843,-459.0389 840,-459.0389"/>
<text text-anchor="middle" x="807.5" y="-447.8389" font-family="Helvetica,sans-Serif" font-size="9.00" fill="#000000">styleValues.ts</text>
</a>
</g>
</g>
<!-- src/components/atoms/mdx&#45;components.tsx&#45;&gt;src/styles/styleValues.ts -->
<g id="edge2" class="edge">
<title>src/components/atoms/mdx&#45;components.tsx&#45;&gt;src/styles/styleValues.ts</title>
<path fill="none" stroke="#000000" stroke-width="2" stroke-opacity="0.200000" d="M723.1163,-267.0764C726.3072,-268.7444 729.3145,-270.714 732,-273.0389 732.8275,-273.7553 782.9532,-392.0494 801.0624,-434.8267"/>
<polygon fill="#000000" fill-opacity="0.200000" stroke="#000000" stroke-width="2" stroke-opacity="0.200000" points="799.2195,-435.8604 803.4923,-440.5672 803.0873,-434.2232 799.2195,-435.8604"/>
</g>
<!-- src/components/atoms/swiping&#45;anchor.tsx -->
<g id="node6" class="node">
<title>src/components/atoms/swiping&#45;anchor.tsx</title>
<g id="a_node6"><a xlink:href="src/components/atoms/swiping-anchor.tsx" xlink:title="swiping&#45;anchor.tsx">
<path fill="#bbfeff" stroke="#000000" d="M852,-273.0389C852,-273.0389 763,-273.0389 763,-273.0389 760,-273.0389 757,-270.0389 757,-267.0389 757,-267.0389 757,-261.0389 757,-261.0389 757,-258.0389 760,-255.0389 763,-255.0389 763,-255.0389 852,-255.0389 852,-255.0389 855,-255.0389 858,-258.0389 858,-261.0389 858,-261.0389 858,-267.0389 858,-267.0389 858,-270.0389 855,-273.0389 852,-273.0389"/>
<text text-anchor="middle" x="807.5" y="-261.8389" font-family="Helvetica,sans-Serif" font-size="9.00" fill="#000000">swiping&#45;anchor.tsx</text>
</a>
</g>
</g>
<!-- src/components/atoms/mdx&#45;components.tsx&#45;&gt;src/components/atoms/swiping&#45;anchor.tsx -->
<g id="edge3" class="edge">
<title>src/components/atoms/mdx&#45;components.tsx&#45;&gt;src/components/atoms/swiping&#45;anchor.tsx</title>
<path fill="none" stroke="#000000" stroke-width="2" stroke-opacity="0.200000" d="M732.2459,-260.6183C738.3252,-260.8946 744.5112,-261.1758 750.5923,-261.4522"/>
<polygon fill="#000000" fill-opacity="0.200000" stroke="#000000" stroke-width="2" stroke-opacity="0.200000" points="750.5414,-263.552 756.6306,-261.7267 750.7322,-259.3563 750.5414,-263.552"/>
</g>
<!-- src/styles/styleValues.ts&#45;&gt;src/styles/colorScheme.ts -->
<g id="edge41" class="edge">
<title>src/styles/styleValues.ts&#45;&gt;src/styles/colorScheme.ts</title>
<path fill="none" stroke="#000000" stroke-width="2" stroke-opacity="0.200000" d="M846.1475,-450.0389C853.3436,-450.0389 860.9539,-450.0389 868.4244,-450.0389"/>
<polygon fill="#000000" fill-opacity="0.200000" stroke="#000000" stroke-width="2" stroke-opacity="0.200000" points="868.6546,-452.139 874.6545,-450.0389 868.6545,-447.939 868.6546,-452.139"/>
</g>
<!-- src/components/atoms/swiping&#45;anchor.tsx&#45;&gt;src/components/atoms/anchor&#45;or&#45;link.tsx -->
<g id="edge5" class="edge">
<title>src/components/atoms/swiping&#45;anchor.tsx&#45;&gt;src/components/atoms/anchor&#45;or&#45;link.tsx</title>
<path fill="none" stroke="#000000" stroke-width="2" stroke-opacity="0.200000" d="M858.2223,-263.1209C860.3215,-263.0829 862.4295,-263.0447 864.534,-263.0066"/>
<polygon fill="#000000" fill-opacity="0.200000" stroke="#000000" stroke-width="2" stroke-opacity="0.200000" points="864.8641,-265.1011 870.825,-262.8928 864.788,-260.9018 864.8641,-265.1011"/>
</g>
<!-- src/components/atoms/swiping&#45;anchor.tsx&#45;&gt;src/styles/styleValues.ts -->
<g id="edge4" class="edge">
<title>src/components/atoms/swiping&#45;anchor.tsx&#45;&gt;src/styles/styleValues.ts</title>
<path fill="none" stroke="#000000" stroke-width="2" stroke-opacity="0.200000" d="M807.5,-273.121C807.5,-326.9107 807.5,-380.7004 807.5,-434.4902"/>
<polygon fill="#000000" fill-opacity="0.200000" stroke="#000000" stroke-width="2" stroke-opacity="0.200000" points="805.4001,-434.7092 807.5,-440.7093 809.6001,-434.7093 805.4001,-434.7092"/>
</g>
<!-- src/components/content/breadcrumbs.tsx -->
<g id="node7" class="node">
<title>src/components/content/breadcrumbs.tsx</title>
<g id="a_node7"><a xlink:href="src/components/content/breadcrumbs.tsx" xlink:title="breadcrumbs.tsx">
<path fill="#bbfeff" stroke="#000000" d="M586,-253.0389C586,-253.0389 504,-253.0389 504,-253.0389 501,-253.0389 498,-250.0389 498,-247.0389 498,-247.0389 498,-241.0389 498,-241.0389 498,-238.0389 501,-235.0389 504,-235.0389 504,-235.0389 586,-235.0389 586,-235.0389 589,-235.0389 592,-238.0389 592,-241.0389 592,-241.0389 592,-247.0389 592,-247.0389 592,-250.0389 589,-253.0389 586,-253.0389"/>
<text text-anchor="middle" x="545" y="-241.8389" font-family="Helvetica,sans-Serif" font-size="9.00" fill="#000000">breadcrumbs.tsx</text>
</a>
</g>
</g>
<!-- src/components/content/footer.tsx -->
<g id="node8" class="node">
<title>src/components/content/footer.tsx</title>
<g id="a_node8"><a xlink:href="src/components/content/footer.tsx" xlink:title="footer.tsx">
<path fill="#bbfeff" stroke="#000000" d="M568.5,-283.0389C568.5,-283.0389 521.5,-283.0389 521.5,-283.0389 518.5,-283.0389 515.5,-280.0389 515.5,-277.0389 515.5,-277.0389 515.5,-271.0389 515.5,-271.0389 515.5,-268.0389 518.5,-265.0389 521.5,-265.0389 521.5,-265.0389 568.5,-265.0389 568.5,-265.0389 571.5,-265.0389 574.5,-268.0389 574.5,-271.0389 574.5,-271.0389 574.5,-277.0389 574.5,-277.0389 574.5,-280.0389 571.5,-283.0389 568.5,-283.0389"/>
<text text-anchor="middle" x="545" y="-271.8389" font-family="Helvetica,sans-Serif" font-size="9.00" fill="#000000">footer.tsx</text>
</a>
</g>
</g>
<!-- src/components/content/header.tsx -->
<g id="node9" class="node">
<title>src/components/content/header.tsx</title>
<g id="a_node9"><a xlink:href="src/components/content/header.tsx" xlink:title="header.tsx">
<path fill="#bbfeff" stroke="#000000" d="M457.5,-283.0389C457.5,-283.0389 405.5,-283.0389 405.5,-283.0389 402.5,-283.0389 399.5,-280.0389 399.5,-277.0389 399.5,-277.0389 399.5,-271.0389 399.5,-271.0389 399.5,-268.0389 402.5,-265.0389 405.5,-265.0389 405.5,-265.0389 457.5,-265.0389 457.5,-265.0389 460.5,-265.0389 463.5,-268.0389 463.5,-271.0389 463.5,-271.0389 463.5,-277.0389 463.5,-277.0389 463.5,-280.0389 460.5,-283.0389 457.5,-283.0389"/>
<text text-anchor="middle" x="431.5" y="-271.8389" font-family="Helvetica,sans-Serif" font-size="9.00" fill="#000000">header.tsx</text>
</a>
</g>
</g>
<!-- src/components/content/header.tsx&#45;&gt;src/styles/styleValues.ts -->
<g id="edge6" class="edge">
<title>src/components/content/header.tsx&#45;&gt;src/styles/styleValues.ts</title>
<path fill="none" stroke="#000000" stroke-width="2" stroke-opacity="0.200000" d="M463.5839,-278.0401C469.9129,-280.3046 475.8666,-283.7679 480,-289.0389 498.5447,-312.6875 466.9847,-402.556 488,-424.0389 506.7934,-443.2505 679.1337,-448.2729 762.6018,-449.581"/>
<polygon fill="#000000" fill-opacity="0.200000" stroke="#000000" stroke-width="2" stroke-opacity="0.200000" points="762.6666,-451.6821 768.6974,-449.6723 762.7296,-447.4825 762.6666,-451.6821"/>
</g>
<!-- src/components/content/index.tsx -->
<g id="node10" class="node">
<title>src/components/content/index.tsx</title>
<g id="a_node10"><a xlink:href="src/components/content/index.tsx" xlink:title="index.tsx">
<path fill="#bbfeff" stroke="#000000" d="M454.5,-253.0389C454.5,-253.0389 408.5,-253.0389 408.5,-253.0389 405.5,-253.0389 402.5,-250.0389 402.5,-247.0389 402.5,-247.0389 402.5,-241.0389 402.5,-241.0389 402.5,-238.0389 405.5,-235.0389 408.5,-235.0389 408.5,-235.0389 454.5,-235.0389 454.5,-235.0389 457.5,-235.0389 460.5,-238.0389 460.5,-241.0389 460.5,-241.0389 460.5,-247.0389 460.5,-247.0389 460.5,-250.0389 457.5,-253.0389 454.5,-253.0389"/>
<text text-anchor="middle" x="431.5" y="-241.8389" font-family="Helvetica,sans-Serif" font-size="9.00" fill="#000000">index.tsx</text>
</a>
</g>
</g>
<!-- src/components/content/index.tsx&#45;&gt;src/styles/styleValues.ts -->
<g id="edge8" class="edge">
<title>src/components/content/index.tsx&#45;&gt;src/styles/styleValues.ts</title>
<path fill="none" stroke="#000000" stroke-width="2" stroke-opacity="0.200000" d="M460.5883,-247.0354C468.0125,-249.2363 475.2331,-252.9207 480,-259.0389 490.3262,-272.2923 476.5526,-397.7409 488,-410.0389 489.1638,-411.2892 674.9883,-433.9706 762.6723,-444.6114"/>
<polygon fill="#000000" fill-opacity="0.200000" stroke="#000000" stroke-width="2" stroke-opacity="0.200000" points="762.6027,-446.7183 768.812,-445.3563 763.1086,-442.5489 762.6027,-446.7183"/>
</g>
<!-- src/components/content/index.tsx&#45;&gt;src/components/content/breadcrumbs.tsx -->
<g id="edge10" class="edge">
<title>src/components/content/index.tsx&#45;&gt;src/components/content/breadcrumbs.tsx</title>
<path fill="none" stroke="#000000" stroke-width="2" stroke-opacity="0.200000" d="M460.7291,-244.0389C470.1729,-244.0389 480.9584,-244.0389 491.5872,-244.0389"/>
<polygon fill="#000000" fill-opacity="0.200000" stroke="#000000" stroke-width="2" stroke-opacity="0.200000" points="491.8159,-246.139 497.8159,-244.0389 491.8159,-241.939 491.8159,-246.139"/>
</g>
<!-- src/components/content/index.tsx&#45;&gt;src/components/content/footer.tsx -->
<g id="edge11" class="edge">
<title>src/components/content/index.tsx&#45;&gt;src/components/content/footer.tsx</title>
<path fill="none" stroke="#000000" stroke-width="2" stroke-opacity="0.200000" d="M460.5303,-251.759C469.351,-254.1013 479.0712,-256.6788 488,-259.0389 494.956,-260.8775 502.3909,-262.8377 509.5168,-264.714"/>
<polygon fill="#000000" fill-opacity="0.200000" stroke="#000000" stroke-width="2" stroke-opacity="0.200000" points="509.0757,-266.7694 515.4127,-266.2659 510.1449,-262.7077 509.0757,-266.7694"/>
</g>
<!-- src/styles/mediaQueries.ts -->
<g id="node11" class="node">
<title>src/styles/mediaQueries.ts</title>
<g id="a_node11"><a xlink:href="src/styles/mediaQueries.ts" xlink:title="mediaQueries.ts">
<path fill="#ddfeff" stroke="#000000" d="M846,-489.0389C846,-489.0389 769,-489.0389 769,-489.0389 766,-489.0389 763,-486.0389 763,-483.0389 763,-483.0389 763,-477.0389 763,-477.0389 763,-474.0389 766,-471.0389 769,-471.0389 769,-471.0389 846,-471.0389 846,-471.0389 849,-471.0389 852,-474.0389 852,-477.0389 852,-477.0389 852,-483.0389 852,-483.0389 852,-486.0389 849,-489.0389 846,-489.0389"/>
<text text-anchor="middle" x="807.5" y="-477.8389" font-family="Helvetica,sans-Serif" font-size="9.00" fill="#000000">mediaQueries.ts</text>
</a>
</g>
</g>
<!-- src/components/content/index.tsx&#45;&gt;src/styles/mediaQueries.ts -->
<g id="edge7" class="edge">
<title>src/components/content/index.tsx&#45;&gt;src/styles/mediaQueries.ts</title>
<path fill="none" stroke="#000000" stroke-width="2" stroke-opacity="0.200000" d="M460.6013,-247.0254C468.0257,-249.2261 475.2431,-252.9129 480,-259.0389 490.985,-273.1857 476.2247,-406.5428 488,-420.0389 522.4898,-459.5692 675.3795,-473.3277 756.5168,-477.8984"/>
<polygon fill="#000000" fill-opacity="0.200000" stroke="#000000" stroke-width="2" stroke-opacity="0.200000" points="756.6029,-480.0062 762.7087,-478.2372 756.8325,-475.8124 756.6029,-480.0062"/>
</g>
<!-- src/components/sidebar/sidebar.tsx -->
<g id="node12" class="node">
<title>src/components/sidebar/sidebar.tsx</title>
<g id="a_node12"><a xlink:href="src/components/sidebar/sidebar.tsx" xlink:title="sidebar.tsx">
<path fill="#bbfeff" stroke="#000000" d="M571.5,-133.0389C571.5,-133.0389 518.5,-133.0389 518.5,-133.0389 515.5,-133.0389 512.5,-130.0389 512.5,-127.0389 512.5,-127.0389 512.5,-121.0389 512.5,-121.0389 512.5,-118.0389 515.5,-115.0389 518.5,-115.0389 518.5,-115.0389 571.5,-115.0389 571.5,-115.0389 574.5,-115.0389 577.5,-118.0389 577.5,-121.0389 577.5,-121.0389 577.5,-127.0389 577.5,-127.0389 577.5,-130.0389 574.5,-133.0389 571.5,-133.0389"/>
<text text-anchor="middle" x="545" y="-121.8389" font-family="Helvetica,sans-Serif" font-size="9.00" fill="#000000">sidebar.tsx</text>
</a>
</g>
</g>
<!-- src/components/content/index.tsx&#45;&gt;src/components/sidebar/sidebar.tsx -->
<g id="edge9" class="edge">
<title>src/components/content/index.tsx&#45;&gt;src/components/sidebar/sidebar.tsx</title>
<path fill="none" stroke="#000000" stroke-width="2" stroke-opacity="0.200000" d="M460.7138,-236.3637C468.0475,-233.0921 475.1897,-228.4861 480,-222.0389 495.5611,-201.1826 474.4436,-186.2506 488,-164.0389 495.3068,-152.067 507.6975,-142.731 519.0634,-136.1005"/>
<polygon fill="#000000" fill-opacity="0.200000" stroke="#000000" stroke-width="2" stroke-opacity="0.200000" points="520.3077,-137.8118 524.534,-133.0632 518.2689,-134.1397 520.3077,-137.8118"/>
</g>
<!-- src/components/table&#45;of&#45;contents/index.tsx -->
<g id="node23" class="node">
<title>src/components/table&#45;of&#45;contents/index.tsx</title>
<g id="a_node23"><a xlink:href="src/components/table-of-contents/index.tsx" xlink:title="index.tsx">
<path fill="#bbfeff" stroke="#000000" d="M698.5,-357.0389C698.5,-357.0389 652.5,-357.0389 652.5,-357.0389 649.5,-357.0389 646.5,-354.0389 646.5,-351.0389 646.5,-351.0389 646.5,-345.0389 646.5,-345.0389 646.5,-342.0389 649.5,-339.0389 652.5,-339.0389 652.5,-339.0389 698.5,-339.0389 698.5,-339.0389 701.5,-339.0389 704.5,-342.0389 704.5,-345.0389 704.5,-345.0389 704.5,-351.0389 704.5,-351.0389 704.5,-354.0389 701.5,-357.0389 698.5,-357.0389"/>
<text text-anchor="middle" x="675.5" y="-345.8389" font-family="Helvetica,sans-Serif" font-size="9.00" fill="#000000">index.tsx</text>
</a>
</g>
</g>
<!-- src/components/sidebar/sidebar.tsx&#45;&gt;src/components/table&#45;of&#45;contents/index.tsx -->
<g id="edge25" class="edge">
<title>src/components/sidebar/sidebar.tsx&#45;&gt;src/components/table&#45;of&#45;contents/index.tsx</title>
<path fill="none" stroke="#000000" stroke-width="2" stroke-opacity="0.200000" d="M565.079,-133.0502C577.4165,-139.7278 592.2899,-150.0885 600,-164.0389 617.454,-195.6195 589.0215,-297.4222 611,-326.0389 618.0535,-335.2228 629.1416,-340.6 640.1483,-343.7389"/>
<polygon fill="#000000" fill-opacity="0.200000" stroke="#000000" stroke-width="2" stroke-opacity="0.200000" points="639.8981,-345.8411 646.2286,-345.2624 640.9189,-341.767 639.8981,-345.8411"/>
</g>
<!-- src/components/content/tags.tsx -->
<g id="node13" class="node">
<title>src/components/content/tags.tsx</title>
<g id="a_node13"><a xlink:href="src/components/content/tags.tsx" xlink:title="tags.tsx">
<path fill="#bbfeff" stroke="#000000" d="M452.5,-313.0389C452.5,-313.0389 410.5,-313.0389 410.5,-313.0389 407.5,-313.0389 404.5,-310.0389 404.5,-307.0389 404.5,-307.0389 404.5,-301.0389 404.5,-301.0389 404.5,-298.0389 407.5,-295.0389 410.5,-295.0389 410.5,-295.0389 452.5,-295.0389 452.5,-295.0389 455.5,-295.0389 458.5,-298.0389 458.5,-301.0389 458.5,-301.0389 458.5,-307.0389 458.5,-307.0389 458.5,-310.0389 455.5,-313.0389 452.5,-313.0389"/>
<text text-anchor="middle" x="431.5" y="-301.8389" font-family="Helvetica,sans-Serif" font-size="9.00" fill="#000000">tags.tsx</text>
</a>
</g>
</g>
<!-- src/components/content/tags.tsx&#45;&gt;src/styles/colorScheme.ts -->
<g id="edge12" class="edge">
<title>src/components/content/tags.tsx&#45;&gt;src/styles/colorScheme.ts</title>
<path fill="none" stroke="#000000" stroke-width="2" stroke-opacity="0.200000" d="M448.5259,-313.1612C459.5598,-320.0656 473.1155,-330.6425 480,-344.0389 491.9118,-367.218 471.1733,-441.1386 488,-461.0389 595.7538,-588.4759 707.5848,-597.3322 858,-525.0389 883.9251,-512.5787 902.1547,-482.8572 911.2886,-464.7943"/>
<polygon fill="#000000" fill-opacity="0.200000" stroke="#000000" stroke-width="2" stroke-opacity="0.200000" points="913.2949,-465.4709 914.0355,-459.1573 909.5193,-463.6311 913.2949,-465.4709"/>
</g>
<!-- src/components/content/tags.tsx&#45;&gt;src/styles/styleValues.ts -->
<g id="edge13" class="edge">
<title>src/components/content/tags.tsx&#45;&gt;src/styles/styleValues.ts</title>
<path fill="none" stroke="#000000" stroke-width="2" stroke-opacity="0.200000" d="M448.5017,-313.1737C459.5248,-320.0836 473.0776,-330.6621 480,-344.0389 491.0606,-365.4123 470.3656,-435.6625 488,-452.0389 507.6286,-470.2673 679.5437,-459.8484 762.7527,-453.6357"/>
<polygon fill="#000000" fill-opacity="0.200000" stroke="#000000" stroke-width="2" stroke-opacity="0.200000" points="763.0041,-455.7228 768.8292,-453.1777 762.6883,-451.5346 763.0041,-455.7228"/>
</g>
<!-- src/components/embeddeds/niconico.tsx -->
<g id="node14" class="node">
<title>src/components/embeddeds/niconico.tsx</title>
<g id="a_node14"><a xlink:href="src/components/embeddeds/niconico.tsx" xlink:title="niconico.tsx">
<path fill="#ccffcc" stroke="#000000" d="M355,-373.0389C355,-373.0389 296,-373.0389 296,-373.0389 293,-373.0389 290,-370.0389 290,-367.0389 290,-367.0389 290,-361.0389 290,-361.0389 290,-358.0389 293,-355.0389 296,-355.0389 296,-355.0389 355,-355.0389 355,-355.0389 358,-355.0389 361,-358.0389 361,-361.0389 361,-361.0389 361,-367.0389 361,-367.0389 361,-370.0389 358,-373.0389 355,-373.0389"/>
<text text-anchor="middle" x="325.5" y="-361.8389" font-family="Helvetica,sans-Serif" font-size="9.00" fill="#000000">niconico.tsx</text>
</a>
</g>
</g>
<!-- src/components/header/index.tsx -->
<g id="node15" class="node">
<title>src/components/header/index.tsx</title>
<g id="a_node15"><a xlink:href="src/components/header/index.tsx" xlink:title="index.tsx">
<path fill="#bbfeff" stroke="#000000" d="M454.5,-373.0389C454.5,-373.0389 408.5,-373.0389 408.5,-373.0389 405.5,-373.0389 402.5,-370.0389 402.5,-367.0389 402.5,-367.0389 402.5,-361.0389 402.5,-361.0389 402.5,-358.0389 405.5,-355.0389 408.5,-355.0389 408.5,-355.0389 454.5,-355.0389 454.5,-355.0389 457.5,-355.0389 460.5,-358.0389 460.5,-361.0389 460.5,-361.0389 460.5,-367.0389 460.5,-367.0389 460.5,-370.0389 457.5,-373.0389 454.5,-373.0389"/>
<text text-anchor="middle" x="431.5" y="-361.8389" font-family="Helvetica,sans-Serif" font-size="9.00" fill="#000000">index.tsx</text>
</a>
</g>
</g>
<!-- src/components/header/index.tsx&#45;&gt;src/styles/mediaQueries.ts -->
<g id="edge14" class="edge">
<title>src/components/header/index.tsx&#45;&gt;src/styles/mediaQueries.ts</title>
<path fill="none" stroke="#000000" stroke-width="2" stroke-opacity="0.200000" d="M447.319,-373.3265C458.3881,-380.7193 472.489,-392.1194 480,-406.0389 492.7755,-429.7147 468.795,-447.1995 488,-466.0389 524.7942,-502.1327 676.27,-493.2364 756.7295,-485.6232"/>
<polygon fill="#000000" fill-opacity="0.200000" stroke="#000000" stroke-width="2" stroke-opacity="0.200000" points="757.0991,-487.6974 762.8701,-485.0316 756.6963,-483.5168 757.0991,-487.6974"/>
</g>
<!-- src/components/layout/index.tsx -->
<g id="node16" class="node">
<title>src/components/layout/index.tsx</title>
<g id="a_node16"><a xlink:href="src/components/layout/index.tsx" xlink:title="index.tsx">
<path fill="#bbfeff" stroke="#000000" d="M348.5,-313.0389C348.5,-313.0389 302.5,-313.0389 302.5,-313.0389 299.5,-313.0389 296.5,-310.0389 296.5,-307.0389 296.5,-307.0389 296.5,-301.0389 296.5,-301.0389 296.5,-298.0389 299.5,-295.0389 302.5,-295.0389 302.5,-295.0389 348.5,-295.0389 348.5,-295.0389 351.5,-295.0389 354.5,-298.0389 354.5,-301.0389 354.5,-301.0389 354.5,-307.0389 354.5,-307.0389 354.5,-310.0389 351.5,-313.0389 348.5,-313.0389"/>
<text text-anchor="middle" x="325.5" y="-301.8389" font-family="Helvetica,sans-Serif" font-size="9.00" fill="#000000">index.tsx</text>
</a>
</g>
</g>
<!-- src/components/layout/index.tsx&#45;&gt;src/styles/styleValues.ts -->
<g id="edge15" class="edge">
<title>src/components/layout/index.tsx&#45;&gt;src/styles/styleValues.ts</title>
<path fill="none" stroke="#000000" stroke-width="2" stroke-opacity="0.200000" d="M342.5763,-313.2377C353.7036,-320.1762 367.5019,-330.7625 375,-344.0389 387.7964,-366.697 365.0317,-383.2167 383,-402.0389 413.2768,-433.7546 448.8528,-389.1776 480,-420.0389 493.1884,-433.1063 473.718,-449.1765 488,-461.0389 528.5709,-494.7364 684.9885,-472.3389 762.889,-458.5623"/>
<polygon fill="#000000" fill-opacity="0.200000" stroke="#000000" stroke-width="2" stroke-opacity="0.200000" points="763.2767,-460.6264 768.8141,-457.5043 762.5383,-456.4918 763.2767,-460.6264"/>
</g>
<!-- src/components/layout/index.tsx&#45;&gt;src/components/content/index.tsx -->
<g id="edge17" class="edge">
<title>src/components/layout/index.tsx&#45;&gt;src/components/content/index.tsx</title>
<path fill="none" stroke="#000000" stroke-width="2" stroke-opacity="0.200000" d="M334.9099,-294.8809C345.7129,-284.8186 364.3547,-268.7932 383,-259.0389 387.2281,-256.827 391.8371,-254.8797 396.4767,-253.1841"/>
<polygon fill="#000000" fill-opacity="0.200000" stroke="#000000" stroke-width="2" stroke-opacity="0.200000" points="397.3506,-255.1045 402.3437,-251.17 395.9869,-251.1321 397.3506,-255.1045"/>
</g>
<!-- src/components/layout/index.tsx&#45;&gt;src/components/header/index.tsx -->
<g id="edge18" class="edge">
<title>src/components/layout/index.tsx&#45;&gt;src/components/header/index.tsx</title>
<path fill="none" stroke="#000000" stroke-width="2" stroke-opacity="0.200000" d="M337.9298,-313.0842C349.3403,-321.1844 366.8723,-333.1251 383,-342.0389 389.5749,-345.6729 396.8618,-349.2162 403.7464,-352.3604"/>
<polygon fill="#000000" fill-opacity="0.200000" stroke="#000000" stroke-width="2" stroke-opacity="0.200000" points="403.0764,-354.3614 409.4104,-354.9009 404.7953,-350.5292 403.0764,-354.3614"/>
</g>
<!-- src/styles/variables.ts -->
<g id="node17" class="node">
<title>src/styles/variables.ts</title>
<g id="a_node17"><a xlink:href="src/styles/variables.ts" xlink:title="variables.ts">
<path fill="#ddfeff" stroke="#000000" d="M835.5,-519.0389C835.5,-519.0389 779.5,-519.0389 779.5,-519.0389 776.5,-519.0389 773.5,-516.0389 773.5,-513.0389 773.5,-513.0389 773.5,-507.0389 773.5,-507.0389 773.5,-504.0389 776.5,-501.0389 779.5,-501.0389 779.5,-501.0389 835.5,-501.0389 835.5,-501.0389 838.5,-501.0389 841.5,-504.0389 841.5,-507.0389 841.5,-507.0389 841.5,-513.0389 841.5,-513.0389 841.5,-516.0389 838.5,-519.0389 835.5,-519.0389"/>
<text text-anchor="middle" x="807.5" y="-507.8389" font-family="Helvetica,sans-Serif" font-size="9.00" fill="#000000">variables.ts</text>
</a>
</g>
</g>
<!-- src/components/layout/index.tsx&#45;&gt;src/styles/variables.ts -->
<g id="edge16" class="edge">
<title>src/components/layout/index.tsx&#45;&gt;src/styles/variables.ts</title>
<path fill="none" stroke="#000000" stroke-width="2" stroke-opacity="0.200000" d="M342.6819,-313.1789C353.8563,-320.0912 367.6676,-330.6703 375,-344.0389 382.6355,-357.9601 372.0066,-403.5828 383,-415.0389 413.2042,-446.5146 448.6864,-399.6667 480,-430.0389 493.9536,-443.5731 473.7909,-459.7733 488,-473.0389 564.4675,-544.4291 700.1254,-531.1456 767.3875,-518.8864"/>
<polygon fill="#000000" fill-opacity="0.200000" stroke="#000000" stroke-width="2" stroke-opacity="0.200000" points="767.7763,-520.9501 773.2872,-517.7815 767.0032,-516.8219 767.7763,-520.9501"/>
</g>
<!-- src/components/post&#45;link/post&#45;link.tsx -->
<g id="node18" class="node">
<title>src/components/post&#45;link/post&#45;link.tsx</title>
<g id="a_node18"><a xlink:href="src/components/post-link/post-link.tsx" xlink:title="post&#45;link.tsx">
<path fill="#bbfeff" stroke="#000000" d="M461,-193.0389C461,-193.0389 402,-193.0389 402,-193.0389 399,-193.0389 396,-190.0389 396,-187.0389 396,-187.0389 396,-181.0389 396,-181.0389 396,-178.0389 399,-175.0389 402,-175.0389 402,-175.0389 461,-175.0389 461,-175.0389 464,-175.0389 467,-178.0389 467,-181.0389 467,-181.0389 467,-187.0389 467,-187.0389 467,-190.0389 464,-193.0389 461,-193.0389"/>
<text text-anchor="middle" x="431.5" y="-181.8389" font-family="Helvetica,sans-Serif" font-size="9.00" fill="#000000">post&#45;link.tsx</text>
</a>
</g>
</g>
<!-- src/components/post&#45;link/post&#45;link.tsx&#45;&gt;src/styles/styleValues.ts -->
<g id="edge19" class="edge">
<title>src/components/post&#45;link/post&#45;link.tsx&#45;&gt;src/styles/styleValues.ts</title>
<path fill="none" stroke="#000000" stroke-width="2" stroke-opacity="0.200000" d="M448.5283,-193.1599C459.5634,-200.0637 473.1194,-210.6405 480,-224.0389 492.0064,-247.4186 473.0381,-320.4309 488,-342.0389 553.0476,-435.9804 621.9862,-392.1656 732,-423.0389 747.7148,-427.449 764.8723,-433.4832 778.8545,-438.7287"/>
<polygon fill="#000000" fill-opacity="0.200000" stroke="#000000" stroke-width="2" stroke-opacity="0.200000" points="778.2842,-440.7583 784.639,-440.9214 779.773,-436.831 778.2842,-440.7583"/>
</g>
<!-- src/components/post&#45;link/tag&#45;list.tsx -->
<g id="node19" class="node">
<title>src/components/post&#45;link/tag&#45;list.tsx</title>
<g id="a_node19"><a xlink:href="src/components/post-link/tag-list.tsx" xlink:title="tag&#45;list.tsx">
<path fill="#bbfeff" stroke="#000000" d="M571,-193.0389C571,-193.0389 519,-193.0389 519,-193.0389 516,-193.0389 513,-190.0389 513,-187.0389 513,-187.0389 513,-181.0389 513,-181.0389 513,-178.0389 516,-175.0389 519,-175.0389 519,-175.0389 571,-175.0389 571,-175.0389 574,-175.0389 577,-178.0389 577,-181.0389 577,-181.0389 577,-187.0389 577,-187.0389 577,-190.0389 574,-193.0389 571,-193.0389"/>
<text text-anchor="middle" x="545" y="-181.8389" font-family="Helvetica,sans-Serif" font-size="9.00" fill="#000000">tag&#45;list.tsx</text>
</a>
</g>
</g>
<!-- src/components/post&#45;link/post&#45;link.tsx&#45;&gt;src/components/post&#45;link/tag&#45;list.tsx -->
<g id="edge20" class="edge">
<title>src/components/post&#45;link/post&#45;link.tsx&#45;&gt;src/components/post&#45;link/tag&#45;list.tsx</title>
<path fill="none" stroke="#000000" stroke-width="2" stroke-opacity="0.200000" d="M467.1007,-184.0389C479.7271,-184.0389 493.9835,-184.0389 506.8164,-184.0389"/>
<polygon fill="#000000" fill-opacity="0.200000" stroke="#000000" stroke-width="2" stroke-opacity="0.200000" points="506.9885,-186.139 512.9885,-184.0389 506.9885,-181.939 506.9885,-186.139"/>
</g>
<!-- src/components/post&#45;link/tag&#45;list.tsx&#45;&gt;src/styles/styleValues.ts -->
<g id="edge22" class="edge">
<title>src/components/post&#45;link/tag&#45;list.tsx&#45;&gt;src/styles/styleValues.ts</title>
<path fill="none" stroke="#000000" stroke-width="2" stroke-opacity="0.200000" d="M565.079,-193.0502C577.4165,-199.7278 592.2899,-210.0885 600,-224.0389 617.454,-255.6195 586.3106,-359.7253 611,-386.0389 629.5586,-405.8185 706.5111,-392.7669 732,-402.0389 754.3602,-410.1728 776.9944,-425.7595 791.5682,-436.9672"/>
<polygon fill="#000000" fill-opacity="0.200000" stroke="#000000" stroke-width="2" stroke-opacity="0.200000" points="790.5393,-438.8288 796.5574,-440.8764 793.1296,-435.5228 790.5393,-438.8288"/>
</g>
<!-- src/components/post&#45;link/post&#45;list.tsx -->
<g id="node20" class="node">
<title>src/components/post&#45;link/post&#45;list.tsx</title>
<g id="a_node20"><a xlink:href="src/components/post-link/post-list.tsx" xlink:title="post&#45;list.tsx">
<path fill="#bbfeff" stroke="#000000" d="M353.5,-193.0389C353.5,-193.0389 297.5,-193.0389 297.5,-193.0389 294.5,-193.0389 291.5,-190.0389 291.5,-187.0389 291.5,-187.0389 291.5,-181.0389 291.5,-181.0389 291.5,-178.0389 294.5,-175.0389 297.5,-175.0389 297.5,-175.0389 353.5,-175.0389 353.5,-175.0389 356.5,-175.0389 359.5,-178.0389 359.5,-181.0389 359.5,-181.0389 359.5,-187.0389 359.5,-187.0389 359.5,-190.0389 356.5,-193.0389 353.5,-193.0389"/>
<text text-anchor="middle" x="325.5" y="-181.8389" font-family="Helvetica,sans-Serif" font-size="9.00" fill="#000000">post&#45;list.tsx</text>
</a>
</g>
</g>
<!-- src/components/post&#45;link/post&#45;list.tsx&#45;&gt;src/components/post&#45;link/post&#45;link.tsx -->
<g id="edge21" class="edge">
<title>src/components/post&#45;link/post&#45;list.tsx&#45;&gt;src/components/post&#45;link/post&#45;link.tsx</title>
<path fill="none" stroke="#000000" stroke-width="2" stroke-opacity="0.200000" d="M359.6225,-184.0389C369.2455,-184.0389 379.8235,-184.0389 389.8354,-184.0389"/>
<polygon fill="#000000" fill-opacity="0.200000" stroke="#000000" stroke-width="2" stroke-opacity="0.200000" points="389.9825,-186.139 395.9824,-184.0389 389.9824,-181.939 389.9825,-186.139"/>
</g>
<!-- src/components/sidebar/button.tsx -->
<g id="node21" class="node">
<title>src/components/sidebar/button.tsx</title>
<g id="a_node21"><a xlink:href="src/components/sidebar/button.tsx" xlink:title="button.tsx">
<path fill="#bbfeff" stroke="#000000" d="M701.5,-118.0389C701.5,-118.0389 649.5,-118.0389 649.5,-118.0389 646.5,-118.0389 643.5,-115.0389 643.5,-112.0389 643.5,-112.0389 643.5,-106.0389 643.5,-106.0389 643.5,-103.0389 646.5,-100.0389 649.5,-100.0389 649.5,-100.0389 701.5,-100.0389 701.5,-100.0389 704.5,-100.0389 707.5,-103.0389 707.5,-106.0389 707.5,-106.0389 707.5,-112.0389 707.5,-112.0389 707.5,-115.0389 704.5,-118.0389 701.5,-118.0389"/>
<text text-anchor="middle" x="675.5" y="-106.8389" font-family="Helvetica,sans-Serif" font-size="9.00" fill="#000000">button.tsx</text>
</a>
</g>
</g>
<!-- src/components/sidebar/button.tsx&#45;&gt;src/components/atoms/anchor&#45;or&#45;link.tsx -->
<g id="edge23" class="edge">
<title>src/components/sidebar/button.tsx&#45;&gt;src/components/atoms/anchor&#45;or&#45;link.tsx</title>
<path fill="none" stroke="#000000" stroke-width="2" stroke-opacity="0.200000" d="M689.9433,-118.1516C731.4736,-144.3542 851.2518,-219.9256 898.5013,-249.7367"/>
<polygon fill="#000000" fill-opacity="0.200000" stroke="#000000" stroke-width="2" stroke-opacity="0.200000" points="897.4374,-251.5484 903.6324,-252.974 899.6786,-247.9963 897.4374,-251.5484"/>
</g>
<!-- src/components/sidebar/buttons&#45;group.tsx -->
<g id="node22" class="node">
<title>src/components/sidebar/buttons&#45;group.tsx</title>
<g id="a_node22"><a xlink:href="src/components/sidebar/buttons-group.tsx" xlink:title="buttons&#45;group.tsx">
<path fill="#bbfeff" stroke="#000000" d="M588,-103.0389C588,-103.0389 502,-103.0389 502,-103.0389 499,-103.0389 496,-100.0389 496,-97.0389 496,-97.0389 496,-91.0389 496,-91.0389 496,-88.0389 499,-85.0389 502,-85.0389 502,-85.0389 588,-85.0389 588,-85.0389 591,-85.0389 594,-88.0389 594,-91.0389 594,-91.0389 594,-97.0389 594,-97.0389 594,-100.0389 591,-103.0389 588,-103.0389"/>
<text text-anchor="middle" x="545" y="-91.8389" font-family="Helvetica,sans-Serif" font-size="9.00" fill="#000000">buttons&#45;group.tsx</text>
</a>
</g>
</g>
<!-- src/components/sidebar/buttons&#45;group.tsx&#45;&gt;src/components/sidebar/button.tsx -->
<g id="edge24" class="edge">
<title>src/components/sidebar/buttons&#45;group.tsx&#45;&gt;src/components/sidebar/button.tsx</title>
<path fill="none" stroke="#000000" stroke-width="2" stroke-opacity="0.200000" d="M594.3365,-99.7098C608.6075,-101.3501 623.9601,-103.1148 637.4308,-104.6631"/>
<polygon fill="#000000" fill-opacity="0.200000" stroke="#000000" stroke-width="2" stroke-opacity="0.200000" points="637.2763,-106.7591 643.4769,-105.3581 637.756,-102.5866 637.2763,-106.7591"/>
</g>
<!-- src/components/table&#45;of&#45;contents/index.tsx&#45;&gt;src/styles/styleValues.ts -->
<g id="edge26" class="edge">
<title>src/components/table&#45;of&#45;contents/index.tsx&#45;&gt;src/styles/styleValues.ts</title>
<path fill="none" stroke="#000000" stroke-width="2" stroke-opacity="0.200000" d="M689.167,-357.3087C700.7336,-365.2498 717.6681,-377.1032 732,-388.0389 753.3214,-404.3079 777.1084,-424.1334 792.1805,-436.9149"/>
<polygon fill="#000000" fill-opacity="0.200000" stroke="#000000" stroke-width="2" stroke-opacity="0.200000" points="791.0105,-438.6767 796.9416,-440.9641 793.7316,-435.4772 791.0105,-438.6767"/>
</g>
<!-- src/components/table&#45;of&#45;contents/index.tsx&#45;&gt;src/components/atoms/swiping&#45;anchor.tsx -->
<g id="edge27" class="edge">
<title>src/components/table&#45;of&#45;contents/index.tsx&#45;&gt;src/components/atoms/swiping&#45;anchor.tsx</title>
<path fill="none" stroke="#000000" stroke-width="2" stroke-opacity="0.200000" d="M703.9021,-338.9806C713.1523,-335.5121 723.2781,-331.1425 732,-326.0389 755.6739,-312.1863 779.5667,-291.0936 793.9545,-277.4362"/>
<polygon fill="#000000" fill-opacity="0.200000" stroke="#000000" stroke-width="2" stroke-opacity="0.200000" points="795.5844,-278.7824 798.4555,-273.1108 792.6742,-275.7541 795.5844,-278.7824"/>
</g>
<!-- src/gatsby&#45;node/create&#45;pages.ts -->
<g id="node24" class="node">
<title>src/gatsby&#45;node/create&#45;pages.ts</title>
<g id="a_node24"><a xlink:href="src/gatsby-node/create-pages.ts" xlink:title="create&#45;pages.ts">
<path fill="#ddfeff" stroke="#000000" d="M208.5,-699.0389C208.5,-699.0389 134.5,-699.0389 134.5,-699.0389 131.5,-699.0389 128.5,-696.0389 128.5,-693.0389 128.5,-693.0389 128.5,-687.0389 128.5,-687.0389 128.5,-684.0389 131.5,-681.0389 134.5,-681.0389 134.5,-681.0389 208.5,-681.0389 208.5,-681.0389 211.5,-681.0389 214.5,-684.0389 214.5,-687.0389 214.5,-687.0389 214.5,-693.0389 214.5,-693.0389 214.5,-696.0389 211.5,-699.0389 208.5,-699.0389"/>
<text text-anchor="middle" x="171.5" y="-687.8389" font-family="Helvetica,sans-Serif" font-size="9.00" fill="#000000">create&#45;pages.ts</text>
</a>
</g>
</g>
<!-- src/libs/asserts&#45;non&#45;null.ts -->
<g id="node25" class="node">
<title>src/libs/asserts&#45;non&#45;null.ts</title>
<g id="a_node25"><a xlink:href="src/libs/asserts-non-null.ts" xlink:title="asserts&#45;non&#45;null.ts">
<path fill="#ddfeff" stroke="#000000" d="M369,-699.0389C369,-699.0389 282,-699.0389 282,-699.0389 279,-699.0389 276,-696.0389 276,-693.0389 276,-693.0389 276,-687.0389 276,-687.0389 276,-684.0389 279,-681.0389 282,-681.0389 282,-681.0389 369,-681.0389 369,-681.0389 372,-681.0389 375,-684.0389 375,-687.0389 375,-687.0389 375,-693.0389 375,-693.0389 375,-696.0389 372,-699.0389 369,-699.0389"/>
<text text-anchor="middle" x="325.5" y="-687.8389" font-family="Helvetica,sans-Serif" font-size="9.00" fill="#000000">asserts&#45;non&#45;null.ts</text>
</a>
</g>
</g>
<!-- src/gatsby&#45;node/create&#45;pages.ts&#45;&gt;src/libs/asserts&#45;non&#45;null.ts -->
<g id="edge28" class="edge">
<title>src/gatsby&#45;node/create&#45;pages.ts&#45;&gt;src/libs/asserts&#45;non&#45;null.ts</title>
<path fill="none" stroke="#000000" stroke-width="2" stroke-opacity="0.200000" d="M214.8074,-690.0389C231.8321,-690.0389 251.5941,-690.0389 269.6688,-690.0389"/>
<polygon fill="#000000" fill-opacity="0.200000" stroke="#000000" stroke-width="2" stroke-opacity="0.200000" points="269.7274,-692.139 275.7274,-690.0389 269.7274,-687.939 269.7274,-692.139"/>
</g>
<!-- src/libs/post.ts -->
<g id="node26" class="node">
<title>src/libs/post.ts</title>
<g id="a_node26"><a xlink:href="src/libs/post.ts" xlink:title="post.ts">
<path fill="#ddfeff" stroke="#000000" d="M346.5,-729.0389C346.5,-729.0389 304.5,-729.0389 304.5,-729.0389 301.5,-729.0389 298.5,-726.0389 298.5,-723.0389 298.5,-723.0389 298.5,-717.0389 298.5,-717.0389 298.5,-714.0389 301.5,-711.0389 304.5,-711.0389 304.5,-711.0389 346.5,-711.0389 346.5,-711.0389 349.5,-711.0389 352.5,-714.0389 352.5,-717.0389 352.5,-717.0389 352.5,-723.0389 352.5,-723.0389 352.5,-726.0389 349.5,-729.0389 346.5,-729.0389"/>
<text text-anchor="middle" x="325.5" y="-717.8389" font-family="Helvetica,sans-Serif" font-size="9.00" fill="#000000">post.ts</text>
</a>
</g>
</g>
<!-- src/gatsby&#45;node/create&#45;pages.ts&#45;&gt;src/libs/post.ts -->
<g id="edge29" class="edge">
<title>src/gatsby&#45;node/create&#45;pages.ts&#45;&gt;src/libs/post.ts</title>
<path fill="none" stroke="#000000" stroke-width="2" stroke-opacity="0.200000" d="M214.8038,-696.8698C229.2141,-699.2783 245.3276,-702.1179 260,-705.0389 270.6163,-707.1524 282.1418,-709.7044 292.5227,-712.0994"/>
<polygon fill="#000000" fill-opacity="0.200000" stroke="#000000" stroke-width="2" stroke-opacity="0.200000" points="292.1672,-714.1727 298.487,-713.4869 293.1189,-710.082 292.1672,-714.1727"/>
</g>
<!-- src/utils/nage.ts -->
<g id="node29" class="node">
<title>src/utils/nage.ts</title>
<g id="a_node29"><a xlink:href="src/utils/nage.ts" xlink:title="nage.ts">
<path fill="#ddfeff" stroke="#000000" d="M452.5,-489.0389C452.5,-489.0389 410.5,-489.0389 410.5,-489.0389 407.5,-489.0389 404.5,-486.0389 404.5,-483.0389 404.5,-483.0389 404.5,-477.0389 404.5,-477.0389 404.5,-474.0389 407.5,-471.0389 410.5,-471.0389 410.5,-471.0389 452.5,-471.0389 452.5,-471.0389 455.5,-471.0389 458.5,-474.0389 458.5,-477.0389 458.5,-477.0389 458.5,-483.0389 458.5,-483.0389 458.5,-486.0389 455.5,-489.0389 452.5,-489.0389"/>
<text text-anchor="middle" x="431.5" y="-477.8389" font-family="Helvetica,sans-Serif" font-size="9.00" fill="#000000">nage.ts</text>
</a>
</g>
</g>
<!-- src/libs/asserts&#45;non&#45;null.ts&#45;&gt;src/utils/nage.ts -->
<g id="edge32" class="edge">
<title>src/libs/asserts&#45;non&#45;null.ts&#45;&gt;src/utils/nage.ts</title>
<path fill="none" stroke="#000000" stroke-width="2" stroke-opacity="0.200000" d="M368.8053,-680.8809C371.1273,-679.2333 373.229,-677.3018 375,-675.0389 385.6286,-661.4585 375.246,-535.4425 383,-520.0389 388.7671,-508.5825 399.4595,-499.2152 409.3401,-492.4331"/>
<polygon fill="#000000" fill-opacity="0.200000" stroke="#000000" stroke-width="2" stroke-opacity="0.200000" points="410.5288,-494.1651 414.4027,-489.1249 408.2312,-490.6492 410.5288,-494.1651"/>
</g>
<!-- src/libs/date.ts -->
<g id="node31" class="node">
<title>src/libs/date.ts</title>
<g id="a_node31"><a xlink:href="src/libs/date.ts" xlink:title="date.ts">
<path fill="#ddfeff" stroke="#000000" d="M452.5,-729.0389C452.5,-729.0389 410.5,-729.0389 410.5,-729.0389 407.5,-729.0389 404.5,-726.0389 404.5,-723.0389 404.5,-723.0389 404.5,-717.0389 404.5,-717.0389 404.5,-714.0389 407.5,-711.0389 410.5,-711.0389 410.5,-711.0389 452.5,-711.0389 452.5,-711.0389 455.5,-711.0389 458.5,-714.0389 458.5,-717.0389 458.5,-717.0389 458.5,-723.0389 458.5,-723.0389 458.5,-726.0389 455.5,-729.0389 452.5,-729.0389"/>
<text text-anchor="middle" x="431.5" y="-717.8389" font-family="Helvetica,sans-Serif" font-size="9.00" fill="#000000">date.ts</text>
</a>
</g>
</g>
<!-- src/libs/post.ts&#45;&gt;src/libs/date.ts -->
<g id="edge33" class="edge">
<title>src/libs/post.ts&#45;&gt;src/libs/date.ts</title>
<path fill="none" stroke="#000000" stroke-width="2" stroke-opacity="0.200000" d="M352.5225,-720.0389C366.3696,-720.0389 383.3598,-720.0389 398.0293,-720.0389"/>
<polygon fill="#000000" fill-opacity="0.200000" stroke="#000000" stroke-width="2" stroke-opacity="0.200000" points="398.1583,-722.139 404.1582,-720.0389 398.1582,-717.939 398.1583,-722.139"/>
</g>
<!-- src/gatsby&#45;node/create&#45;schema&#45;customization.ts -->
<g id="node27" class="node">
<title>src/gatsby&#45;node/create&#45;schema&#45;customization.ts</title>
<g id="a_node27"><a xlink:href="src/gatsby-node/create-schema-customization.ts" xlink:title="create&#45;schema&#45;customization.ts">
<path fill="#ddfeff" stroke="#000000" d="M246,-729.0389C246,-729.0389 97,-729.0389 97,-729.0389 94,-729.0389 91,-726.0389 91,-723.0389 91,-723.0389 91,-717.0389 91,-717.0389 91,-714.0389 94,-711.0389 97,-711.0389 97,-711.0389 246,-711.0389 246,-711.0389 249,-711.0389 252,-714.0389 252,-717.0389 252,-717.0389 252,-723.0389 252,-723.0389 252,-726.0389 249,-729.0389 246,-729.0389"/>
<text text-anchor="middle" x="171.5" y="-717.8389" font-family="Helvetica,sans-Serif" font-size="9.00" fill="#000000">create&#45;schema&#45;customization.ts</text>
</a>
</g>
</g>
<!-- src/gatsby&#45;node/index.ts -->
<g id="node28" class="node">
<title>src/gatsby&#45;node/index.ts</title>
<g id="a_node28"><a xlink:href="src/gatsby-node/index.ts" xlink:title="index.ts">
<path fill="#ddfeff" stroke="#000000" d="M72,-714.0389C72,-714.0389 30,-714.0389 30,-714.0389 27,-714.0389 24,-711.0389 24,-708.0389 24,-708.0389 24,-702.0389 24,-702.0389 24,-699.0389 27,-696.0389 30,-696.0389 30,-696.0389 72,-696.0389 72,-696.0389 75,-696.0389 78,-699.0389 78,-702.0389 78,-702.0389 78,-708.0389 78,-708.0389 78,-711.0389 75,-714.0389 72,-714.0389"/>
<text text-anchor="middle" x="51" y="-702.8389" font-family="Helvetica,sans-Serif" font-size="9.00" fill="#000000">index.ts</text>
</a>
</g>
</g>
<!-- src/gatsby&#45;node/index.ts&#45;&gt;src/gatsby&#45;node/create&#45;pages.ts -->
<g id="edge30" class="edge">
<title>src/gatsby&#45;node/index.ts&#45;&gt;src/gatsby&#45;node/create&#45;pages.ts</title>
<path fill="none" stroke="#000000" stroke-width="2" stroke-opacity="0.200000" d="M78.0426,-701.6726C91.1517,-700.0408 107.3111,-698.0292 122.4848,-696.1404"/>
<polygon fill="#000000" fill-opacity="0.200000" stroke="#000000" stroke-width="2" stroke-opacity="0.200000" points="122.7713,-698.221 128.4659,-695.3959 122.2524,-694.0532 122.7713,-698.221"/>
</g>
<!-- src/gatsby&#45;node/index.ts&#45;&gt;src/gatsby&#45;node/create&#45;schema&#45;customization.ts -->
<g id="edge31" class="edge">
<title>src/gatsby&#45;node/index.ts&#45;&gt;src/gatsby&#45;node/create&#45;schema&#45;customization.ts</title>
<path fill="none" stroke="#000000" stroke-width="2" stroke-opacity="0.200000" d="M78.0426,-708.4052C82.6309,-708.9764 87.593,-709.5941 92.7557,-710.2367"/>
<polygon fill="#000000" fill-opacity="0.200000" stroke="#000000" stroke-width="2" stroke-opacity="0.200000" points="92.6845,-712.344 98.898,-711.0013 93.2034,-708.1762 92.6845,-712.344"/>
</g>
<!-- src/libs/call&#45;optional.ts -->
<g id="node30" class="node">
<title>src/libs/call&#45;optional.ts</title>
<g id="a_node30"><a xlink:href="src/libs/call-optional.ts" xlink:title="call&#45;optional.ts">
<path fill="#ccffcc" stroke="#000000" d="M360.5,-669.0389C360.5,-669.0389 290.5,-669.0389 290.5,-669.0389 287.5,-669.0389 284.5,-666.0389 284.5,-663.0389 284.5,-663.0389 284.5,-657.0389 284.5,-657.0389 284.5,-654.0389 287.5,-651.0389 290.5,-651.0389 290.5,-651.0389 360.5,-651.0389 360.5,-651.0389 363.5,-651.0389 366.5,-654.0389 366.5,-657.0389 366.5,-657.0389 366.5,-663.0389 366.5,-663.0389 366.5,-666.0389 363.5,-669.0389 360.5,-669.0389"/>
<text text-anchor="middle" x="325.5" y="-657.8389" font-family="Helvetica,sans-Serif" font-size="9.00" fill="#000000">call&#45;optional.ts</text>
</a>
</g>
</g>
<!-- src/libs/proto&#45;ext.ts -->
<g id="node32" class="node">
<title>src/libs/proto&#45;ext.ts</title>
<g id="a_node32"><a xlink:href="src/libs/proto-ext.ts" xlink:title="proto&#45;ext.ts">
<path fill="#ccffcc" stroke="#000000" d="M354,-639.0389C354,-639.0389 297,-639.0389 297,-639.0389 294,-639.0389 291,-636.0389 291,-633.0389 291,-633.0389 291,-627.0389 291,-627.0389 291,-624.0389 294,-621.0389 297,-621.0389 297,-621.0389 354,-621.0389 354,-621.0389 357,-621.0389 360,-624.0389 360,-627.0389 360,-627.0389 360,-633.0389 360,-633.0389 360,-636.0389 357,-639.0389 354,-639.0389"/>
<text text-anchor="middle" x="325.5" y="-627.8389" font-family="Helvetica,sans-Serif" font-size="9.00" fill="#000000">proto&#45;ext.ts</text>
</a>
</g>
</g>
<!-- src/libs/react&#45;fcx.d.ts -->
<g id="node33" class="node">
<title>src/libs/react&#45;fcx.d.ts</title>
<g id="a_node33"><a xlink:href="src/libs/react-fcx.d.ts" xlink:title="react&#45;fcx.d.ts">
<path fill="#ccffcc" stroke="#000000" d="M358,-609.0389C358,-609.0389 293,-609.0389 293,-609.0389 290,-609.0389 287,-606.0389 287,-603.0389 287,-603.0389 287,-597.0389 287,-597.0389 287,-594.0389 290,-591.0389 293,-591.0389 293,-591.0389 358,-591.0389 358,-591.0389 361,-591.0389 364,-594.0389 364,-597.0389 364,-597.0389 364,-603.0389 364,-603.0389 364,-606.0389 361,-609.0389 358,-609.0389"/>
<text text-anchor="middle" x="325.5" y="-597.8389" font-family="Helvetica,sans-Serif" font-size="9.00" fill="#000000">react&#45;fcx.d.ts</text>
</a>
</g>
</g>
<!-- src/libs/toc.ts -->
<g id="node34" class="node">
<title>src/libs/toc.ts</title>
<g id="a_node34"><a xlink:href="src/libs/toc.ts" xlink:title="toc.ts">
<path fill="#ccffcc" stroke="#000000" d="M346.5,-579.0389C346.5,-579.0389 304.5,-579.0389 304.5,-579.0389 301.5,-579.0389 298.5,-576.0389 298.5,-573.0389 298.5,-573.0389 298.5,-567.0389 298.5,-567.0389 298.5,-564.0389 301.5,-561.0389 304.5,-561.0389 304.5,-561.0389 346.5,-561.0389 346.5,-561.0389 349.5,-561.0389 352.5,-564.0389 352.5,-567.0389 352.5,-567.0389 352.5,-573.0389 352.5,-573.0389 352.5,-576.0389 349.5,-579.0389 346.5,-579.0389"/>
<text text-anchor="middle" x="325.5" y="-567.8389" font-family="Helvetica,sans-Serif" font-size="9.00" fill="#000000">toc.ts</text>
</a>
</g>
</g>
<!-- src/libs/withDefault.ts -->
<g id="node35" class="node">
<title>src/libs/withDefault.ts</title>
<g id="a_node35"><a xlink:href="src/libs/withDefault.ts" xlink:title="withDefault.ts">
<path fill="#ccffcc" stroke="#000000" d="M359.5,-549.0389C359.5,-549.0389 291.5,-549.0389 291.5,-549.0389 288.5,-549.0389 285.5,-546.0389 285.5,-543.0389 285.5,-543.0389 285.5,-537.0389 285.5,-537.0389 285.5,-534.0389 288.5,-531.0389 291.5,-531.0389 291.5,-531.0389 359.5,-531.0389 359.5,-531.0389 362.5,-531.0389 365.5,-534.0389 365.5,-537.0389 365.5,-537.0389 365.5,-543.0389 365.5,-543.0389 365.5,-546.0389 362.5,-549.0389 359.5,-549.0389"/>
<text text-anchor="middle" x="325.5" y="-537.8389" font-family="Helvetica,sans-Serif" font-size="9.00" fill="#000000">withDefault.ts</text>
</a>
</g>
</g>
<!-- src/pages/404.tsx -->
<g id="node36" class="node">
<title>src/pages/404.tsx</title>
<g id="a_node36"><a xlink:href="src/pages/404.tsx" xlink:title="404.tsx">
<path fill="#bbfeff" stroke="#000000" d="M192.5,-561.0389C192.5,-561.0389 150.5,-561.0389 150.5,-561.0389 147.5,-561.0389 144.5,-558.0389 144.5,-555.0389 144.5,-555.0389 144.5,-549.0389 144.5,-549.0389 144.5,-546.0389 147.5,-543.0389 150.5,-543.0389 150.5,-543.0389 192.5,-543.0389 192.5,-543.0389 195.5,-543.0389 198.5,-546.0389 198.5,-549.0389 198.5,-549.0389 198.5,-555.0389 198.5,-555.0389 198.5,-558.0389 195.5,-561.0389 192.5,-561.0389"/>
<text text-anchor="middle" x="171.5" y="-549.8389" font-family="Helvetica,sans-Serif" font-size="9.00" fill="#000000">404.tsx</text>
</a>
</g>
</g>
<!-- src/pages/404.tsx&#45;&gt;src/components/layout/index.tsx -->
<g id="edge34" class="edge">
<title>src/pages/404.tsx&#45;&gt;src/components/layout/index.tsx</title>
<path fill="none" stroke="#000000" stroke-width="2" stroke-opacity="0.200000" d="M198.5621,-555.5875C218.6551,-556.555 245.0636,-553.9947 260,-537.0389 274.1872,-520.9337 257.6685,-362.8516 268,-344.0389 274.6905,-331.8561 286.8687,-322.5783 298.3007,-316.0401"/>
<polygon fill="#000000" fill-opacity="0.200000" stroke="#000000" stroke-width="2" stroke-opacity="0.200000" points="299.5484,-317.7527 303.8255,-313.0498 297.5492,-314.059 299.5484,-317.7527"/>
</g>
<!-- src/pages/index.tsx -->
<g id="node37" class="node">
<title>src/pages/index.tsx</title>
<g id="a_node37"><a xlink:href="src/pages/index.tsx" xlink:title="index.tsx">
<path fill="#bbfeff" stroke="#000000" d="M194.5,-501.0389C194.5,-501.0389 148.5,-501.0389 148.5,-501.0389 145.5,-501.0389 142.5,-498.0389 142.5,-495.0389 142.5,-495.0389 142.5,-489.0389 142.5,-489.0389 142.5,-486.0389 145.5,-483.0389 148.5,-483.0389 148.5,-483.0389 194.5,-483.0389 194.5,-483.0389 197.5,-483.0389 200.5,-486.0389 200.5,-489.0389 200.5,-489.0389 200.5,-495.0389 200.5,-495.0389 200.5,-498.0389 197.5,-501.0389 194.5,-501.0389"/>
<text text-anchor="middle" x="171.5" y="-489.8389" font-family="Helvetica,sans-Serif" font-size="9.00" fill="#000000">index.tsx</text>
</a>
</g>
</g>
<!-- src/pages/index.tsx&#45;&gt;src/components/layout/index.tsx -->
<g id="edge35" class="edge">
<title>src/pages/index.tsx&#45;&gt;src/components/layout/index.tsx</title>
<path fill="none" stroke="#000000" stroke-width="2" stroke-opacity="0.200000" d="M200.895,-484.1886C221.0769,-477.1598 246.5592,-464.6966 260,-444.0389 272.158,-425.3528 256.8956,-363.3697 268,-344.0389 274.9232,-331.9868 287.1263,-322.723 298.5145,-316.1602"/>
<polygon fill="#000000" fill-opacity="0.200000" stroke="#000000" stroke-width="2" stroke-opacity="0.200000" points="299.7552,-317.8754 304.013,-313.1551 297.7408,-314.1899 299.7552,-317.8754"/>
</g>
<!-- src/pages/index.tsx&#45;&gt;src/components/post&#45;link/post&#45;list.tsx -->
<g id="edge36" class="edge">
<title>src/pages/index.tsx&#45;&gt;src/components/post&#45;link/post&#45;list.tsx</title>
<path fill="none" stroke="#000000" stroke-width="2" stroke-opacity="0.200000" d="M200.6522,-484.4562C220.9929,-477.5142 246.7761,-465.0429 260,-444.0389 269.4836,-428.9757 262.9801,-301.1164 268,-284.0389 277.8087,-250.6703 300.7723,-216.5531 314.5278,-198.0605"/>
<polygon fill="#000000" fill-opacity="0.200000" stroke="#000000" stroke-width="2" stroke-opacity="0.200000" points="316.2037,-199.3259 318.1448,-193.2725 312.8525,-196.7942 316.2037,-199.3259"/>
</g>
<!-- src/pages/tags.tsx -->
<g id="node38" class="node">
<title>src/pages/tags.tsx</title>
<g id="a_node38"><a xlink:href="src/pages/tags.tsx" xlink:title="tags.tsx">
<path fill="#bbfeff" stroke="#000000" d="M192.5,-531.0389C192.5,-531.0389 150.5,-531.0389 150.5,-531.0389 147.5,-531.0389 144.5,-528.0389 144.5,-525.0389 144.5,-525.0389 144.5,-519.0389 144.5,-519.0389 144.5,-516.0389 147.5,-513.0389 150.5,-513.0389 150.5,-513.0389 192.5,-513.0389 192.5,-513.0389 195.5,-513.0389 198.5,-516.0389 198.5,-519.0389 198.5,-519.0389 198.5,-525.0389 198.5,-525.0389 198.5,-528.0389 195.5,-531.0389 192.5,-531.0389"/>
<text text-anchor="middle" x="171.5" y="-519.8389" font-family="Helvetica,sans-Serif" font-size="9.00" fill="#000000">tags.tsx</text>
</a>
</g>
</g>
<!-- src/pages/tags.tsx&#45;&gt;src/components/layout/index.tsx -->
<g id="edge37" class="edge">
<title>src/pages/tags.tsx&#45;&gt;src/components/layout/index.tsx</title>
<path fill="none" stroke="#000000" stroke-width="2" stroke-opacity="0.200000" d="M198.5258,-525.5554C218.5992,-526.5056 244.9991,-523.9378 260,-507.0389 272.0377,-493.4781 259.211,-359.8994 268,-344.0389 274.7369,-331.8816 286.92,-322.6066 298.3432,-316.0636"/>
<polygon fill="#000000" fill-opacity="0.200000" stroke="#000000" stroke-width="2" stroke-opacity="0.200000" points="299.5895,-317.7767 303.8628,-313.0704 297.5873,-314.0846 299.5895,-317.7767"/>
</g>
<!-- src/pages/tags.tsx&#45;&gt;src/components/post&#45;link/post&#45;list.tsx -->
<g id="edge38" class="edge">
<title>src/pages/tags.tsx&#45;&gt;src/components/post&#45;link/post&#45;list.tsx</title>
<path fill="none" stroke="#000000" stroke-width="2" stroke-opacity="0.200000" d="M198.5888,-525.6109C218.6961,-526.591 245.1108,-524.0362 260,-507.0389 276.337,-488.3887 261.1756,-307.8749 268,-284.0389 277.5732,-250.6019 300.6209,-216.5092 314.4547,-198.0393"/>
<polygon fill="#000000" fill-opacity="0.200000" stroke="#000000" stroke-width="2" stroke-opacity="0.200000" points="316.1311,-199.3041 318.0934,-193.2576 312.7888,-196.7607 316.1311,-199.3041"/>
</g>
<!-- src/state/store.ts -->
<g id="node39" class="node">
<title>src/state/store.ts</title>
<g id="a_node39"><a xlink:href="src/state/store.ts" xlink:title="store.ts">
<path fill="#ddfeff" stroke="#000000" d="M72,-415.0389C72,-415.0389 30,-415.0389 30,-415.0389 27,-415.0389 24,-412.0389 24,-409.0389 24,-409.0389 24,-403.0389 24,-403.0389 24,-400.0389 27,-397.0389 30,-397.0389 30,-397.0389 72,-397.0389 72,-397.0389 75,-397.0389 78,-400.0389 78,-403.0389 78,-403.0389 78,-409.0389 78,-409.0389 78,-412.0389 75,-415.0389 72,-415.0389"/>
<text text-anchor="middle" x="51" y="-403.8389" font-family="Helvetica,sans-Serif" font-size="9.00" fill="#000000">store.ts</text>
</a>
</g>
</g>
<!-- src/state/ui/index.ts -->
<g id="node40" class="node">
<title>src/state/ui/index.ts</title>
<g id="a_node40"><a xlink:href="src/state/ui/index.ts" xlink:title="index.ts">
<path fill="#ddfeff" stroke="#000000" d="M192.5,-415.0389C192.5,-415.0389 150.5,-415.0389 150.5,-415.0389 147.5,-415.0389 144.5,-412.0389 144.5,-409.0389 144.5,-409.0389 144.5,-403.0389 144.5,-403.0389 144.5,-400.0389 147.5,-397.0389 150.5,-397.0389 150.5,-397.0389 192.5,-397.0389 192.5,-397.0389 195.5,-397.0389 198.5,-400.0389 198.5,-403.0389 198.5,-403.0389 198.5,-409.0389 198.5,-409.0389 198.5,-412.0389 195.5,-415.0389 192.5,-415.0389"/>
<text text-anchor="middle" x="171.5" y="-403.8389" font-family="Helvetica,sans-Serif" font-size="9.00" fill="#000000">index.ts</text>
</a>
</g>
</g>
<!-- src/state/store.ts&#45;&gt;src/state/ui/index.ts -->
<g id="edge39" class="edge">
<title>src/state/store.ts&#45;&gt;src/state/ui/index.ts</title>
<path fill="none" stroke="#000000" stroke-width="2" stroke-opacity="0.200000" d="M78.0426,-409.8659C93.4383,-410.5631 113.0412,-410.7186 130.3136,-410.3324"/>
<polygon fill="#000000" fill-opacity="0.200000" stroke="#000000" stroke-width="2" stroke-opacity="0.200000" points="138.2026,-412.1756 144.1308,-409.8806 138.0653,-407.9779 138.2026,-412.1756"/>
<polyline fill="none" stroke="#000000" stroke-width="2" stroke-opacity="0.200000" points="138.134,-410.0767 135.1356,-410.1748 "/>
<ellipse fill="none" stroke="#000000" stroke-width="2" stroke-opacity="0.200000" cx="132.7369" cy="-410.2533" rx="2.4" ry="2.4"/>
</g>
<!-- src/state/ui/index.ts&#45;&gt;src/state/store.ts -->
<g id="edge40" class="edge">
<title>src/state/ui/index.ts&#45;&gt;src/state/store.ts</title>
<path fill="none" stroke="#000000" stroke-width="2" stroke-opacity="0.200000" d="M144.1308,-402.1972C128.7532,-401.5111 109.2562,-401.3613 92.0798,-401.7478"/>
<polygon fill="#000000" fill-opacity="0.200000" stroke="#000000" stroke-width="2" stroke-opacity="0.200000" points="83.9699,-399.9147 78.0426,-402.2119 84.1087,-404.1125 83.9699,-399.9147"/>
<polyline fill="none" stroke="#000000" stroke-width="2" stroke-opacity="0.200000" points="84.0393,-402.0136 87.0376,-401.9144 "/>
<ellipse fill="none" stroke="#000000" stroke-width="2" stroke-opacity="0.200000" cx="89.4363" cy="-401.8351" rx="2.4" ry="2.4"/>
</g>
<!-- src/templates/ArchiveMonthPage.tsx -->
<g id="node41" class="node">
<title>src/templates/ArchiveMonthPage.tsx</title>
<g id="a_node41"><a xlink:href="src/templates/ArchiveMonthPage.tsx" xlink:title="ArchiveMonthPage.tsx">
<path fill="#bbfeff" stroke="#000000" d="M223.5,-223.0389C223.5,-223.0389 119.5,-223.0389 119.5,-223.0389 116.5,-223.0389 113.5,-220.0389 113.5,-217.0389 113.5,-217.0389 113.5,-211.0389 113.5,-211.0389 113.5,-208.0389 116.5,-205.0389 119.5,-205.0389 119.5,-205.0389 223.5,-205.0389 223.5,-205.0389 226.5,-205.0389 229.5,-208.0389 229.5,-211.0389 229.5,-211.0389 229.5,-217.0389 229.5,-217.0389 229.5,-220.0389 226.5,-223.0389 223.5,-223.0389"/>
<text text-anchor="middle" x="171.5" y="-211.8389" font-family="Helvetica,sans-Serif" font-size="9.00" fill="#000000">ArchiveMonthPage.tsx</text>
</a>
</g>
</g>
<!-- src/templates/ArchiveMonthPage.tsx&#45;&gt;src/components/layout/index.tsx -->
<g id="edge42" class="edge">
<title>src/templates/ArchiveMonthPage.tsx&#45;&gt;src/components/layout/index.tsx</title>
<path fill="none" stroke="#000000" stroke-width="2" stroke-opacity="0.200000" d="M189.0069,-223.0502C207.0135,-232.4309 235.7706,-247.7259 260,-262.0389 275.9778,-271.4774 293.669,-282.8805 306.6338,-291.4218"/>
<polygon fill="#000000" fill-opacity="0.200000" stroke="#000000" stroke-width="2" stroke-opacity="0.200000" points="305.7191,-293.3346 311.882,-294.8931 308.0361,-289.8315 305.7191,-293.3346"/>
</g>
<!-- src/templates/ArchiveMonthPage.tsx&#45;&gt;src/components/post&#45;link/post&#45;list.tsx -->
<g id="edge43" class="edge">
<title>src/templates/ArchiveMonthPage.tsx&#45;&gt;src/components/post&#45;link/post&#45;list.tsx</title>
<path fill="none" stroke="#000000" stroke-width="2" stroke-opacity="0.200000" d="M227.7695,-204.9993C238.4911,-203.1362 249.607,-201.108 260,-199.0389 268.1144,-197.4235 276.76,-195.5519 285.0196,-193.69"/>
<polygon fill="#000000" fill-opacity="0.200000" stroke="#000000" stroke-width="2" stroke-opacity="0.200000" points="285.8613,-195.6522 291.2454,-192.2725 284.9289,-191.557 285.8613,-195.6522"/>
</g>
<!-- src/templates/ArchiveYearPage.tsx -->
<g id="node42" class="node">
<title>src/templates/ArchiveYearPage.tsx</title>
<g id="a_node42"><a xlink:href="src/templates/ArchiveYearPage.tsx" xlink:title="ArchiveYearPage.tsx">
<path fill="#bbfeff" stroke="#000000" d="M218.5,-193.0389C218.5,-193.0389 124.5,-193.0389 124.5,-193.0389 121.5,-193.0389 118.5,-190.0389 118.5,-187.0389 118.5,-187.0389 118.5,-181.0389 118.5,-181.0389 118.5,-178.0389 121.5,-175.0389 124.5,-175.0389 124.5,-175.0389 218.5,-175.0389 218.5,-175.0389 221.5,-175.0389 224.5,-178.0389 224.5,-181.0389 224.5,-181.0389 224.5,-187.0389 224.5,-187.0389 224.5,-190.0389 221.5,-193.0389 218.5,-193.0389"/>
<text text-anchor="middle" x="171.5" y="-181.8389" font-family="Helvetica,sans-Serif" font-size="9.00" fill="#000000">ArchiveYearPage.tsx</text>
</a>
</g>
</g>
<!-- src/templates/ArchiveYearPage.tsx&#45;&gt;src/components/layout/index.tsx -->
<g id="edge44" class="edge">
<title>src/templates/ArchiveYearPage.tsx&#45;&gt;src/components/layout/index.tsx</title>
<path fill="none" stroke="#000000" stroke-width="2" stroke-opacity="0.200000" d="M224.5926,-183.8882C237.3486,-186.1737 250.1237,-190.6867 260,-199.0389 268.264,-206.0276 263.0682,-212.405 268,-222.0389 281.0979,-247.6247 301.2571,-274.36 313.8961,-290.091"/>
<polygon fill="#000000" fill-opacity="0.200000" stroke="#000000" stroke-width="2" stroke-opacity="0.200000" points="312.4598,-291.6536 317.873,-294.9865 315.7197,-289.0053 312.4598,-291.6536"/>
</g>
<!-- src/templates/ArchiveYearPage.tsx&#45;&gt;src/components/post&#45;link/post&#45;list.tsx -->
<g id="edge45" class="edge">
<title>src/templates/ArchiveYearPage.tsx&#45;&gt;src/components/post&#45;link/post&#45;list.tsx</title>
<path fill="none" stroke="#000000" stroke-width="2" stroke-opacity="0.200000" d="M224.9295,-184.0389C244.7542,-184.0389 266.8858,-184.0389 285.3295,-184.0389"/>
<polygon fill="#000000" fill-opacity="0.200000" stroke="#000000" stroke-width="2" stroke-opacity="0.200000" points="285.4344,-186.139 291.4344,-184.0389 285.4343,-181.939 285.4344,-186.139"/>
</g>
<!-- src/templates/BlogPost.tsx -->
<g id="node43" class="node">
<title>src/templates/BlogPost.tsx</title>
<g id="a_node43"><a xlink:href="src/templates/BlogPost.tsx" xlink:title="BlogPost.tsx">
<path fill="#bbfeff" stroke="#000000" d="M201,-133.0389C201,-133.0389 142,-133.0389 142,-133.0389 139,-133.0389 136,-130.0389 136,-127.0389 136,-127.0389 136,-121.0389 136,-121.0389 136,-118.0389 139,-115.0389 142,-115.0389 142,-115.0389 201,-115.0389 201,-115.0389 204,-115.0389 207,-118.0389 207,-121.0389 207,-121.0389 207,-127.0389 207,-127.0389 207,-130.0389 204,-133.0389 201,-133.0389"/>
<text text-anchor="middle" x="171.5" y="-121.8389" font-family="Helvetica,sans-Serif" font-size="9.00" fill="#000000">BlogPost.tsx</text>
</a>
</g>
</g>
<!-- src/templates/BlogPost.tsx&#45;&gt;src/components/atoms/mdx&#45;components.tsx -->
<g id="edge46" class="edge">
<title>src/templates/BlogPost.tsx&#45;&gt;src/components/atoms/mdx&#45;components.tsx</title>
<path fill="none" stroke="#000000" stroke-width="2" stroke-opacity="0.200000" d="M180.2821,-114.9085C196.0736,-99.2288 231.0744,-67.7421 268,-56.0389 408.6599,-11.4582 490.4099,42.7672 600,-56.0389 617.5888,-71.8969 602.9351,-139.7724 611,-162.0389 622.7506,-194.4812 647.7891,-226.626 662.9814,-244.2543"/>
<polygon fill="#000000" fill-opacity="0.200000" stroke="#000000" stroke-width="2" stroke-opacity="0.200000" points="661.4541,-245.6979 666.986,-248.8297 664.6145,-242.9317 661.4541,-245.6979"/>
</g>
<!-- src/templates/BlogPost.tsx&#45;&gt;src/components/content/tags.tsx -->
<g id="edge47" class="edge">
<title>src/templates/BlogPost.tsx&#45;&gt;src/components/content/tags.tsx</title>
<path fill="none" stroke="#000000" stroke-width="2" stroke-opacity="0.200000" d="M207.3864,-119.1708C253.9035,-115.1166 333.9123,-116.2676 375,-164.0389 393.1504,-185.1417 365.7723,-267.1764 383,-289.0389 386.9276,-294.0232 392.4824,-297.3904 398.4383,-299.6558"/>
<polygon fill="#000000" fill-opacity="0.200000" stroke="#000000" stroke-width="2" stroke-opacity="0.200000" points="398.1285,-301.7605 404.4826,-301.573 399.3984,-297.7571 398.1285,-301.7605"/>
</g>
<!-- src/templates/BlogPost.tsx&#45;&gt;src/components/layout/index.tsx -->
<g id="edge48" class="edge">
<title>src/templates/BlogPost.tsx&#45;&gt;src/components/layout/index.tsx</title>
<path fill="none" stroke="#000000" stroke-width="2" stroke-opacity="0.200000" d="M207.3233,-120.6077C225.6601,-120.9319 246.8353,-124.8933 260,-139.0389 272.6239,-152.6034 261.5797,-204.6568 268,-222.0389 277.8508,-248.7089 298.5764,-274.7632 312.2656,-290.1076"/>
<polygon fill="#000000" fill-opacity="0.200000" stroke="#000000" stroke-width="2" stroke-opacity="0.200000" points="311.0216,-291.8608 316.6125,-294.8861 314.1285,-289.0346 311.0216,-291.8608"/>
</g>
<!-- src/templates/BlogPost.tsx&#45;&gt;src/libs/asserts&#45;non&#45;null.ts -->
<g id="edge49" class="edge">
<title>src/templates/BlogPost.tsx&#45;&gt;src/libs/asserts&#45;non&#45;null.ts</title>
<path fill="none" stroke="#000000" stroke-width="2" stroke-opacity="0.200000" d="M207.3433,-120.1868C225.9213,-120.3297 247.3186,-124.2525 260,-139.0389 279.3877,-161.6449 249.617,-651.6086 268,-675.0389 268.8358,-676.1042 269.7371,-677.0997 270.6949,-678.0298"/>
<polygon fill="#000000" fill-opacity="0.200000" stroke="#000000" stroke-width="2" stroke-opacity="0.200000" points="269.9043,-680.0817 275.9137,-682.1548 272.5088,-676.7867 269.9043,-680.0817"/>
</g>
<!-- src/templates/IndividualTagPage.tsx -->
<g id="node44" class="node">
<title>src/templates/IndividualTagPage.tsx</title>
<g id="a_node44"><a xlink:href="src/templates/IndividualTagPage.tsx" xlink:title="IndividualTagPage.tsx">
<path fill="#bbfeff" stroke="#000000" d="M222,-163.0389C222,-163.0389 121,-163.0389 121,-163.0389 118,-163.0389 115,-160.0389 115,-157.0389 115,-157.0389 115,-151.0389 115,-151.0389 115,-148.0389 118,-145.0389 121,-145.0389 121,-145.0389 222,-145.0389 222,-145.0389 225,-145.0389 228,-148.0389 228,-151.0389 228,-151.0389 228,-157.0389 228,-157.0389 228,-160.0389 225,-163.0389 222,-163.0389"/>
<text text-anchor="middle" x="171.5" y="-151.8389" font-family="Helvetica,sans-Serif" font-size="9.00" fill="#000000">IndividualTagPage.tsx</text>
</a>
</g>
</g>
<!-- src/templates/IndividualTagPage.tsx&#45;&gt;src/components/layout/index.tsx -->
<g id="edge50" class="edge">
<title>src/templates/IndividualTagPage.tsx&#45;&gt;src/components/layout/index.tsx</title>
<path fill="none" stroke="#000000" stroke-width="2" stroke-opacity="0.200000" d="M228.0061,-153.1316C239.9402,-155.5863 251.483,-160.3665 260,-169.0389 276.692,-186.0355 259.1488,-199.9219 268,-222.0389 278.5636,-248.4347 299.0914,-274.5651 312.5447,-290.0002"/>
<polygon fill="#000000" fill-opacity="0.200000" stroke="#000000" stroke-width="2" stroke-opacity="0.200000" points="311.2586,-291.7149 316.8113,-294.8096 314.4005,-288.9276 311.2586,-291.7149"/>
</g>
<!-- src/templates/IndividualTagPage.tsx&#45;&gt;src/components/post&#45;link/post&#45;list.tsx -->
<g id="edge51" class="edge">
<title>src/templates/IndividualTagPage.tsx&#45;&gt;src/components/post&#45;link/post&#45;list.tsx</title>
<path fill="none" stroke="#000000" stroke-width="2" stroke-opacity="0.200000" d="M227.7695,-163.0786C238.4911,-164.9417 249.607,-166.9699 260,-169.0389 268.1144,-170.6543 276.76,-172.526 285.0196,-174.3878"/>
<polygon fill="#000000" fill-opacity="0.200000" stroke="#000000" stroke-width="2" stroke-opacity="0.200000" points="284.9289,-176.5208 291.2454,-175.8053 285.8613,-172.4256 284.9289,-176.5208"/>
</g>
<!-- src/tests/libs/Post.test.ts -->
<g id="node45" class="node">
<title>src/tests/libs/Post.test.ts</title>
<g id="a_node45"><a xlink:href="src/tests/libs/Post.test.ts" xlink:title="Post.test.ts">
<path fill="#ddfeff" stroke="#000000" d="M199,-321.0389C199,-321.0389 144,-321.0389 144,-321.0389 141,-321.0389 138,-318.0389 138,-315.0389 138,-315.0389 138,-309.0389 138,-309.0389 138,-306.0389 141,-303.0389 144,-303.0389 144,-303.0389 199,-303.0389 199,-303.0389 202,-303.0389 205,-306.0389 205,-309.0389 205,-309.0389 205,-315.0389 205,-315.0389 205,-318.0389 202,-321.0389 199,-321.0389"/>
<text text-anchor="middle" x="171.5" y="-309.8389" font-family="Helvetica,sans-Serif" font-size="9.00" fill="#000000">Post.test.ts</text>
</a>
</g>
</g>
<!-- src/tests/libs/Post.test.ts&#45;&gt;src/libs/post.ts -->
<g id="edge52" class="edge">
<title>src/tests/libs/Post.test.ts&#45;&gt;src/libs/post.ts</title>
<path fill="none" stroke="#000000" stroke-width="2" stroke-opacity="0.200000" d="M189.7412,-321.1005C211.0287,-332.8054 245.1986,-355.3769 260,-386.0389 267.7067,-402.0039 256.9865,-691.1473 268,-705.0389 273.9411,-712.5327 283.1186,-716.5662 292.4098,-718.6629"/>
<polygon fill="#000000" fill-opacity="0.200000" stroke="#000000" stroke-width="2" stroke-opacity="0.200000" points="292.2189,-720.7628 298.499,-719.7779 292.9754,-716.6315 292.2189,-720.7628"/>
</g>
<!-- src/tests/libs/generate_variables.test.ts -->
<g id="node46" class="node">
<title>src/tests/libs/generate_variables.test.ts</title>
<g id="a_node46"><a xlink:href="src/tests/libs/generate_variables.test.ts" xlink:title="generate_variables.test.ts">
<path fill="#ddfeff" stroke="#000000" d="M232,-291.0389C232,-291.0389 111,-291.0389 111,-291.0389 108,-291.0389 105,-288.0389 105,-285.0389 105,-285.0389 105,-279.0389 105,-279.0389 105,-276.0389 108,-273.0389 111,-273.0389 111,-273.0389 232,-273.0389 232,-273.0389 235,-273.0389 238,-276.0389 238,-279.0389 238,-279.0389 238,-285.0389 238,-285.0389 238,-288.0389 235,-291.0389 232,-291.0389"/>
<text text-anchor="middle" x="171.5" y="-279.8389" font-family="Helvetica,sans-Serif" font-size="9.00" fill="#000000">generate_variables.test.ts</text>
</a>
</g>
</g>
<!-- src/tests/libs/generate_variables.test.ts&#45;&gt;src/styles/variables.ts -->
<g id="edge53" class="edge">
<title>src/tests/libs/generate_variables.test.ts&#45;&gt;src/styles/variables.ts</title>
<path fill="none" stroke="#000000" stroke-width="2" stroke-opacity="0.200000" d="M229.4576,-272.9403C241.1821,-268.4749 252.269,-261.8512 260,-252.0389 272.1524,-236.615 256.3275,-179.8292 268,-164.0389 313.4393,-102.57 545.0044,-20.9481 600,-74.0389 624.9566,-98.1312 595.0108,-355.2555 611,-386.0389 647.9984,-457.2708 683.1875,-459.1805 755,-495.0389 758.9648,-497.0187 763.2323,-498.7756 767.5598,-500.325"/>
<polygon fill="#000000" fill-opacity="0.200000" stroke="#000000" stroke-width="2" stroke-opacity="0.200000" points="767.1189,-502.3921 773.4753,-502.3107 768.4555,-498.4105 767.1189,-502.3921"/>
</g>
<!-- src/utils/throwIfNully.ts -->
<g id="node47" class="node">
<title>src/utils/throwIfNully.ts</title>
<g id="a_node47"><a xlink:href="src/utils/throwIfNully.ts" xlink:title="throwIfNully.ts">
<path fill="#ccffcc" stroke="#000000" d="M466,-459.0389C466,-459.0389 397,-459.0389 397,-459.0389 394,-459.0389 391,-456.0389 391,-453.0389 391,-453.0389 391,-447.0389 391,-447.0389 391,-444.0389 394,-441.0389 397,-441.0389 397,-441.0389 466,-441.0389 466,-441.0389 469,-441.0389 472,-444.0389 472,-447.0389 472,-447.0389 472,-453.0389 472,-453.0389 472,-456.0389 469,-459.0389 466,-459.0389"/>
<text text-anchor="middle" x="431.5" y="-447.8389" font-family="Helvetica,sans-Serif" font-size="9.00" fill="#000000">throwIfNully.ts</text>
</a>
</g>
</g>
</g>
</svg>
