<?xml version="1.0" encoding="UTF-8" standalone="no"?>
<!DOCTYPE svg PUBLIC "-//W3C//DTD SVG 1.1//EN"
 "http://www.w3.org/Graphics/SVG/1.1/DTD/svg11.dtd">
<!-- Generated by graphviz version 2.40.1 (20161225.0304)
 -->
<!-- Title: dependency&#45;cruiser output Pages: 1 -->
<svg width="1188pt" height="1254pt"
 viewBox="0.00 0.00 1188.00 1253.66" xmlns="http://www.w3.org/2000/svg" xmlns:xlink="http://www.w3.org/1999/xlink">
<g id="graph0" class="graph" transform="scale(1 1) rotate(0) translate(4 1249.6632)">
<title>dependency&#45;cruiser output</title>
<polygon fill="#ffffff" stroke="transparent" points="-4,4 -4,-1249.6632 1184,-1249.6632 1184,4 -4,4"/>
<g id="clust1" class="cluster">
<title>cluster_gatsby</title>
<path fill="#ffffff" stroke="#000000" stroke-width="2" d="M115,-1061.6632C115,-1061.6632 427.5,-1061.6632 427.5,-1061.6632 433.5,-1061.6632 439.5,-1067.6632 439.5,-1073.6632 439.5,-1073.6632 439.5,-1225.6632 439.5,-1225.6632 439.5,-1231.6632 433.5,-1237.6632 427.5,-1237.6632 427.5,-1237.6632 115,-1237.6632 115,-1237.6632 109,-1237.6632 103,-1231.6632 103,-1225.6632 103,-1225.6632 103,-1073.6632 103,-1073.6632 103,-1067.6632 109,-1061.6632 115,-1061.6632"/>
<text text-anchor="middle" x="271.25" y="-1226.4632" font-family="Helvetica,sans-Serif" font-weight="bold" font-size="9.00" fill="#000000">gatsby</text>
</g>
<g id="clust2" class="cluster">
<title>cluster_gatsby/browser</title>
<path fill="#ffffff" stroke="#000000" stroke-width="2" d="M123,-1159.6632C123,-1159.6632 169,-1159.6632 169,-1159.6632 175,-1159.6632 181,-1165.6632 181,-1171.6632 181,-1171.6632 181,-1199.6632 181,-1199.6632 181,-1205.6632 175,-1211.6632 169,-1211.6632 169,-1211.6632 123,-1211.6632 123,-1211.6632 117,-1211.6632 111,-1205.6632 111,-1199.6632 111,-1199.6632 111,-1171.6632 111,-1171.6632 111,-1165.6632 117,-1159.6632 123,-1159.6632"/>
<text text-anchor="middle" x="146" y="-1200.4632" font-family="Helvetica,sans-Serif" font-weight="bold" font-size="9.00" fill="#000000">browser</text>
</g>
<g id="clust3" class="cluster">
<title>cluster_gatsby/node</title>
<path fill="#ffffff" stroke="#000000" stroke-width="2" d="M123,-1069.6632C123,-1069.6632 419.5,-1069.6632 419.5,-1069.6632 425.5,-1069.6632 431.5,-1075.6632 431.5,-1081.6632 431.5,-1081.6632 431.5,-1139.6632 431.5,-1139.6632 431.5,-1145.6632 425.5,-1151.6632 419.5,-1151.6632 419.5,-1151.6632 123,-1151.6632 123,-1151.6632 117,-1151.6632 111,-1145.6632 111,-1139.6632 111,-1139.6632 111,-1081.6632 111,-1081.6632 111,-1075.6632 117,-1069.6632 123,-1069.6632"/>
<text text-anchor="middle" x="271.25" y="-1140.4632" font-family="Helvetica,sans-Serif" font-weight="bold" font-size="9.00" fill="#000000">node</text>
</g>
<g id="clust4" class="cluster">
<title>cluster_src</title>
<path fill="#ffffff" stroke="#000000" stroke-width="2" d="M305,-57.6632C305,-57.6632 1160,-57.6632 1160,-57.6632 1166,-57.6632 1172,-63.6632 1172,-69.6632 1172,-69.6632 1172,-1041.6632 1172,-1041.6632 1172,-1047.6632 1166,-1053.6632 1160,-1053.6632 1160,-1053.6632 305,-1053.6632 305,-1053.6632 299,-1053.6632 293,-1047.6632 293,-1041.6632 293,-1041.6632 293,-69.6632 293,-69.6632 293,-63.6632 299,-57.6632 305,-57.6632"/>
<text text-anchor="middle" x="732.5" y="-1042.4632" font-family="Helvetica,sans-Serif" font-weight="bold" font-size="9.00" fill="#000000">src</text>
</g>
<g id="clust5" class="cluster">
<title>cluster_src/@types</title>
<path fill="#ffffff" stroke="#000000" stroke-width="2" d="M341.5,-623.6632C341.5,-623.6632 419.5,-623.6632 419.5,-623.6632 425.5,-623.6632 431.5,-629.6632 431.5,-635.6632 431.5,-635.6632 431.5,-663.6632 431.5,-663.6632 431.5,-669.6632 425.5,-675.6632 419.5,-675.6632 419.5,-675.6632 341.5,-675.6632 341.5,-675.6632 335.5,-675.6632 329.5,-669.6632 329.5,-663.6632 329.5,-663.6632 329.5,-635.6632 329.5,-635.6632 329.5,-629.6632 335.5,-623.6632 341.5,-623.6632"/>
<text text-anchor="middle" x="380.5" y="-664.4632" font-family="Helvetica,sans-Serif" font-weight="bold" font-size="9.00" fill="#000000">@types</text>
</g>
<g id="clust6" class="cluster">
<title>cluster_src/components</title>
<path fill="#ffffff" stroke="#000000" stroke-width="2" d="M608.5,-271.6632C608.5,-271.6632 962,-271.6632 962,-271.6632 968,-271.6632 974,-277.6632 974,-283.6632 974,-283.6632 974,-945.6632 974,-945.6632 974,-951.6632 968,-957.6632 962,-957.6632 962,-957.6632 608.5,-957.6632 608.5,-957.6632 602.5,-957.6632 596.5,-951.6632 596.5,-945.6632 596.5,-945.6632 596.5,-283.6632 596.5,-283.6632 596.5,-277.6632 602.5,-271.6632 608.5,-271.6632"/>
<text text-anchor="middle" x="785.25" y="-946.4632" font-family="Helvetica,sans-Serif" font-weight="bold" font-size="9.00" fill="#000000">components</text>
</g>
<g id="clust7" class="cluster">
<title>cluster_src/components/article</title>
<path fill="#ffffff" stroke="#000000" stroke-width="2" d="M631.5,-879.6632C631.5,-879.6632 824.5,-879.6632 824.5,-879.6632 830.5,-879.6632 836.5,-885.6632 836.5,-891.6632 836.5,-891.6632 836.5,-919.6632 836.5,-919.6632 836.5,-925.6632 830.5,-931.6632 824.5,-931.6632 824.5,-931.6632 631.5,-931.6632 631.5,-931.6632 625.5,-931.6632 619.5,-925.6632 619.5,-919.6632 619.5,-919.6632 619.5,-891.6632 619.5,-891.6632 619.5,-885.6632 625.5,-879.6632 631.5,-879.6632"/>
<text text-anchor="middle" x="728" y="-920.4632" font-family="Helvetica,sans-Serif" font-weight="bold" font-size="9.00" fill="#000000">article</text>
</g>
<g id="clust8" class="cluster">
<title>cluster_src/components/atoms</title>
<path fill="#ffffff" stroke="#000000" stroke-width="2" d="M868,-279.6632C868,-279.6632 954,-279.6632 954,-279.6632 960,-279.6632 966,-285.6632 966,-291.6632 966,-291.6632 966,-349.6632 966,-349.6632 966,-355.6632 960,-361.6632 954,-361.6632 954,-361.6632 868,-361.6632 868,-361.6632 862,-361.6632 856,-355.6632 856,-349.6632 856,-349.6632 856,-291.6632 856,-291.6632 856,-285.6632 862,-279.6632 868,-279.6632"/>
<text text-anchor="middle" x="911" y="-350.4632" font-family="Helvetica,sans-Serif" font-weight="bold" font-size="9.00" fill="#000000">atoms</text>
</g>
<g id="clust9" class="cluster">
<title>cluster_src/components/color&#45;checker</title>
<path fill="#ffffff" stroke="#000000" stroke-width="2" d="M626.5,-819.6632C626.5,-819.6632 687.5,-819.6632 687.5,-819.6632 693.5,-819.6632 699.5,-825.6632 699.5,-831.6632 699.5,-831.6632 699.5,-859.6632 699.5,-859.6632 699.5,-865.6632 693.5,-871.6632 687.5,-871.6632 687.5,-871.6632 626.5,-871.6632 626.5,-871.6632 620.5,-871.6632 614.5,-865.6632 614.5,-859.6632 614.5,-859.6632 614.5,-831.6632 614.5,-831.6632 614.5,-825.6632 620.5,-819.6632 626.5,-819.6632"/>
<text text-anchor="middle" x="657" y="-860.4632" font-family="Helvetica,sans-Serif" font-weight="bold" font-size="9.00" fill="#000000">color&#45;checker</text>
</g>
<g id="clust10" class="cluster">
<title>cluster_src/components/embeddeds</title>
<path fill="#ffffff" stroke="#000000" stroke-width="2" d="M625,-729.6632C625,-729.6632 688,-729.6632 688,-729.6632 694,-729.6632 700,-735.6632 700,-741.6632 700,-741.6632 700,-799.6632 700,-799.6632 700,-805.6632 694,-811.6632 688,-811.6632 688,-811.6632 625,-811.6632 625,-811.6632 619,-811.6632 613,-805.6632 613,-799.6632 613,-799.6632 613,-741.6632 613,-741.6632 613,-735.6632 619,-729.6632 625,-729.6632"/>
<text text-anchor="middle" x="656.5" y="-800.4632" font-family="Helvetica,sans-Serif" font-weight="bold" font-size="9.00" fill="#000000">embeddeds</text>
</g>
<g id="clust11" class="cluster">
<title>cluster_src/components/git&#45;info</title>
<path fill="#ffffff" stroke="#000000" stroke-width="2" d="M631.5,-669.6632C631.5,-669.6632 836,-669.6632 836,-669.6632 842,-669.6632 848,-675.6632 848,-681.6632 848,-681.6632 848,-709.6632 848,-709.6632 848,-715.6632 842,-721.6632 836,-721.6632 836,-721.6632 631.5,-721.6632 631.5,-721.6632 625.5,-721.6632 619.5,-715.6632 619.5,-709.6632 619.5,-709.6632 619.5,-681.6632 619.5,-681.6632 619.5,-675.6632 625.5,-669.6632 631.5,-669.6632"/>
<text text-anchor="middle" x="733.75" y="-710.4632" font-family="Helvetica,sans-Serif" font-weight="bold" font-size="9.00" fill="#000000">git&#45;info</text>
</g>
<g id="clust12" class="cluster">
<title>cluster_src/components/layout</title>
<path fill="#ffffff" stroke="#000000" stroke-width="2" d="M631.5,-519.6632C631.5,-519.6632 829.5,-519.6632 829.5,-519.6632 835.5,-519.6632 841.5,-525.6632 841.5,-531.6632 841.5,-531.6632 841.5,-649.6632 841.5,-649.6632 841.5,-655.6632 835.5,-661.6632 829.5,-661.6632 829.5,-661.6632 631.5,-661.6632 631.5,-661.6632 625.5,-661.6632 619.5,-655.6632 619.5,-649.6632 619.5,-649.6632 619.5,-531.6632 619.5,-531.6632 619.5,-525.6632 625.5,-519.6632 631.5,-519.6632"/>
<text text-anchor="middle" x="730.5" y="-650.4632" font-family="Helvetica,sans-Serif" font-weight="bold" font-size="9.00" fill="#000000">layout</text>
</g>
<g id="clust13" class="cluster">
<title>cluster_src/components/post&#45;link</title>
<path fill="#ffffff" stroke="#000000" stroke-width="2" d="M626.5,-369.6632C626.5,-369.6632 945,-369.6632 945,-369.6632 951,-369.6632 957,-375.6632 957,-381.6632 957,-381.6632 957,-409.6632 957,-409.6632 957,-415.6632 951,-421.6632 945,-421.6632 945,-421.6632 626.5,-421.6632 626.5,-421.6632 620.5,-421.6632 614.5,-415.6632 614.5,-409.6632 614.5,-409.6632 614.5,-381.6632 614.5,-381.6632 614.5,-375.6632 620.5,-369.6632 626.5,-369.6632"/>
<text text-anchor="middle" x="785.75" y="-410.4632" font-family="Helvetica,sans-Serif" font-weight="bold" font-size="9.00" fill="#000000">post&#45;link</text>
</g>
<g id="clust14" class="cluster">
<title>cluster_src/components/styles</title>
<path fill="#ffffff" stroke="#000000" stroke-width="2" d="M746,-429.6632C746,-429.6632 948,-429.6632 948,-429.6632 954,-429.6632 960,-435.6632 960,-441.6632 960,-441.6632 960,-499.6632 960,-499.6632 960,-505.6632 954,-511.6632 948,-511.6632 948,-511.6632 746,-511.6632 746,-511.6632 740,-511.6632 734,-505.6632 734,-499.6632 734,-499.6632 734,-441.6632 734,-441.6632 734,-435.6632 740,-429.6632 746,-429.6632"/>
<text text-anchor="middle" x="847" y="-500.4632" font-family="Helvetica,sans-Serif" font-weight="bold" font-size="9.00" fill="#000000">styles</text>
</g>
<g id="clust15" class="cluster">
<title>cluster_src/components/table&#45;of&#45;contents</title>
<path fill="#ffffff" stroke="#000000" stroke-width="2" d="M616.5,-437.6632C616.5,-437.6632 697.5,-437.6632 697.5,-437.6632 703.5,-437.6632 709.5,-443.6632 709.5,-449.6632 709.5,-449.6632 709.5,-477.6632 709.5,-477.6632 709.5,-483.6632 703.5,-489.6632 697.5,-489.6632 697.5,-489.6632 616.5,-489.6632 616.5,-489.6632 610.5,-489.6632 604.5,-483.6632 604.5,-477.6632 604.5,-477.6632 604.5,-449.6632 604.5,-449.6632 604.5,-443.6632 610.5,-437.6632 616.5,-437.6632"/>
<text text-anchor="middle" x="657" y="-478.4632" font-family="Helvetica,sans-Serif" font-weight="bold" font-size="9.00" fill="#000000">table&#45;of&#45;contents</text>
</g>
<g id="clust16" class="cluster">
<title>cluster_src/hooks</title>
<path fill="#ffffff" stroke="#000000" stroke-width="2" d="M884,-965.6632C884,-965.6632 938,-965.6632 938,-965.6632 944,-965.6632 950,-971.6632 950,-977.6632 950,-977.6632 950,-1005.6632 950,-1005.6632 950,-1011.6632 944,-1017.6632 938,-1017.6632 938,-1017.6632 884,-1017.6632 884,-1017.6632 878,-1017.6632 872,-1011.6632 872,-1005.6632 872,-1005.6632 872,-977.6632 872,-977.6632 872,-971.6632 878,-965.6632 884,-965.6632"/>
<text text-anchor="middle" x="911" y="-1006.4632" font-family="Helvetica,sans-Serif" font-weight="bold" font-size="9.00" fill="#000000">hooks</text>
</g>
<g id="clust17" class="cluster">
<title>cluster_src/pages</title>
<path fill="#ffffff" stroke="#000000" stroke-width="2" d="M492.5,-415.6632C492.5,-415.6632 542.5,-415.6632 542.5,-415.6632 548.5,-415.6632 554.5,-421.6632 554.5,-427.6632 554.5,-427.6632 554.5,-515.6632 554.5,-515.6632 554.5,-521.6632 548.5,-527.6632 542.5,-527.6632 542.5,-527.6632 492.5,-527.6632 492.5,-527.6632 486.5,-527.6632 480.5,-521.6632 480.5,-515.6632 480.5,-515.6632 480.5,-427.6632 480.5,-427.6632 480.5,-421.6632 486.5,-415.6632 492.5,-415.6632"/>
<text text-anchor="middle" x="517.5" y="-516.4632" font-family="Helvetica,sans-Serif" font-weight="bold" font-size="9.00" fill="#000000">pages</text>
</g>
<g id="clust18" class="cluster">
<title>cluster_src/templates</title>
<path fill="#ffffff" stroke="#000000" stroke-width="2" d="M313,-91.6632C313,-91.6632 712,-91.6632 712,-91.6632 718,-91.6632 724,-97.6632 724,-103.6632 724,-103.6632 724,-251.6632 724,-251.6632 724,-257.6632 718,-263.6632 712,-263.6632 712,-263.6632 313,-263.6632 313,-263.6632 307,-263.6632 301,-257.6632 301,-251.6632 301,-251.6632 301,-103.6632 301,-103.6632 301,-97.6632 307,-91.6632 313,-91.6632"/>
<text text-anchor="middle" x="512.5" y="-252.4632" font-family="Helvetica,sans-Serif" font-weight="bold" font-size="9.00" fill="#000000">templates</text>
</g>
<g id="clust19" class="cluster">
<title>cluster_src/templates/blog&#45;post&#45;template</title>
<path fill="#ffffff" stroke="#000000" stroke-width="2" d="M355.5,-99.6632C355.5,-99.6632 704,-99.6632 704,-99.6632 710,-99.6632 716,-105.6632 716,-111.6632 716,-111.6632 716,-139.6632 716,-139.6632 716,-145.6632 710,-151.6632 704,-151.6632 704,-151.6632 355.5,-151.6632 355.5,-151.6632 349.5,-151.6632 343.5,-145.6632 343.5,-139.6632 343.5,-139.6632 343.5,-111.6632 343.5,-111.6632 343.5,-105.6632 349.5,-99.6632 355.5,-99.6632"/>
<text text-anchor="middle" x="529.75" y="-140.4632" font-family="Helvetica,sans-Serif" font-weight="bold" font-size="9.00" fill="#000000">blog&#45;post&#45;template</text>
</g>
<g id="clust20" class="cluster">
<title>cluster_src/utils</title>
<path fill="#ffffff" stroke="#000000" stroke-width="2" d="M994,-65.6632C994,-65.6632 1152,-65.6632 1152,-65.6632 1158,-65.6632 1164,-71.6632 1164,-77.6632 1164,-77.6632 1164,-225.6632 1164,-225.6632 1164,-231.6632 1158,-237.6632 1152,-237.6632 1152,-237.6632 994,-237.6632 994,-237.6632 988,-237.6632 982,-231.6632 982,-225.6632 982,-225.6632 982,-77.6632 982,-77.6632 982,-71.6632 988,-65.6632 994,-65.6632"/>
<text text-anchor="middle" x="1073" y="-226.4632" font-family="Helvetica,sans-Serif" font-weight="bold" font-size="9.00" fill="#000000">utils</text>
</g>
<!-- gatsby&#45;browser.js -->
<g id="node1" class="node">
<title>gatsby&#45;browser.js</title>
<g id="a_node1"><a xlink:href="gatsby-browser.js" xlink:title="gatsby&#45;browser.js">
<path fill="#ffffcc" stroke="#000000" d="M89,-1185.6632C89,-1185.6632 6,-1185.6632 6,-1185.6632 3,-1185.6632 0,-1182.6632 0,-1179.6632 0,-1179.6632 0,-1173.6632 0,-1173.6632 0,-1170.6632 3,-1167.6632 6,-1167.6632 6,-1167.6632 89,-1167.6632 89,-1167.6632 92,-1167.6632 95,-1170.6632 95,-1173.6632 95,-1173.6632 95,-1179.6632 95,-1179.6632 95,-1182.6632 92,-1185.6632 89,-1185.6632"/>
<text text-anchor="middle" x="47.5" y="-1174.4632" font-family="Helvetica,sans-Serif" font-size="9.00" fill="#000000">gatsby&#45;browser.js</text>
</a>
</g>
</g>
<!-- gatsby/browser/init.css -->
<g id="node2" class="node">
<title>gatsby/browser/init.css</title>
<g id="a_node2"><a xlink:href="gatsby/browser/init.css" xlink:title="init.css">
<path fill="#ffffcc" stroke="#000000" d="M167,-1185.6632C167,-1185.6632 125,-1185.6632 125,-1185.6632 122,-1185.6632 119,-1182.6632 119,-1179.6632 119,-1179.6632 119,-1173.6632 119,-1173.6632 119,-1170.6632 122,-1167.6632 125,-1167.6632 125,-1167.6632 167,-1167.6632 167,-1167.6632 170,-1167.6632 173,-1170.6632 173,-1173.6632 173,-1173.6632 173,-1179.6632 173,-1179.6632 173,-1182.6632 170,-1185.6632 167,-1185.6632"/>
<text text-anchor="middle" x="146" y="-1174.4632" font-family="Helvetica,sans-Serif" font-size="9.00" fill="#000000">init.css</text>
</a>
</g>
</g>
<!-- gatsby&#45;browser.js&#45;&gt;gatsby/browser/init.css -->
<g id="edge1" class="edge">
<title>gatsby&#45;browser.js&#45;&gt;gatsby/browser/init.css</title>
<path fill="none" stroke="#000000" stroke-width="2" stroke-opacity="0.200000" d="M95.0189,-1176.6632C101.0162,-1176.6632 107.0477,-1176.6632 112.7572,-1176.6632"/>
<polygon fill="#000000" fill-opacity="0.200000" stroke="#000000" stroke-width="2" stroke-opacity="0.200000" points="112.8095,-1178.7633 118.8094,-1176.6632 112.8094,-1174.5633 112.8095,-1178.7633"/>
</g>
<!-- gatsby&#45;config.js -->
<g id="node3" class="node">
<title>gatsby&#45;config.js</title>
<g id="a_node3"><a xlink:href="gatsby-config.js" xlink:title="gatsby&#45;config.js">
<path fill="#ccffcc" stroke="#000000" d="M86,-1215.6632C86,-1215.6632 9,-1215.6632 9,-1215.6632 6,-1215.6632 3,-1212.6632 3,-1209.6632 3,-1209.6632 3,-1203.6632 3,-1203.6632 3,-1200.6632 6,-1197.6632 9,-1197.6632 9,-1197.6632 86,-1197.6632 86,-1197.6632 89,-1197.6632 92,-1200.6632 92,-1203.6632 92,-1203.6632 92,-1209.6632 92,-1209.6632 92,-1212.6632 89,-1215.6632 86,-1215.6632"/>
<text text-anchor="middle" x="47.5" y="-1204.4632" font-family="Helvetica,sans-Serif" font-size="9.00" fill="#000000">gatsby&#45;config.js</text>
</a>
</g>
</g>
<!-- gatsby&#45;node.js -->
<g id="node4" class="node">
<title>gatsby&#45;node.js</title>
<g id="a_node4"><a xlink:href="gatsby-node.js" xlink:title="gatsby&#45;node.js">
<path fill="#ffffcc" stroke="#000000" d="M83,-1110.6632C83,-1110.6632 12,-1110.6632 12,-1110.6632 9,-1110.6632 6,-1107.6632 6,-1104.6632 6,-1104.6632 6,-1098.6632 6,-1098.6632 6,-1095.6632 9,-1092.6632 12,-1092.6632 12,-1092.6632 83,-1092.6632 83,-1092.6632 86,-1092.6632 89,-1095.6632 89,-1098.6632 89,-1098.6632 89,-1104.6632 89,-1104.6632 89,-1107.6632 86,-1110.6632 83,-1110.6632"/>
<text text-anchor="middle" x="47.5" y="-1099.4632" font-family="Helvetica,sans-Serif" font-size="9.00" fill="#000000">gatsby&#45;node.js</text>
</a>
</g>
</g>
<!-- gatsby/node/index.ts -->
<g id="node5" class="node">
<title>gatsby/node/index.ts</title>
<g id="a_node5"><a xlink:href="gatsby/node/index.ts" xlink:title="index.ts">
<path fill="#ddfeff" stroke="#000000" d="M167,-1110.6632C167,-1110.6632 125,-1110.6632 125,-1110.6632 122,-1110.6632 119,-1107.6632 119,-1104.6632 119,-1104.6632 119,-1098.6632 119,-1098.6632 119,-1095.6632 122,-1092.6632 125,-1092.6632 125,-1092.6632 167,-1092.6632 167,-1092.6632 170,-1092.6632 173,-1095.6632 173,-1098.6632 173,-1098.6632 173,-1104.6632 173,-1104.6632 173,-1107.6632 170,-1110.6632 167,-1110.6632"/>
<text text-anchor="middle" x="146" y="-1099.4632" font-family="Helvetica,sans-Serif" font-size="9.00" fill="#000000">index.ts</text>
</a>
</g>
</g>
<!-- gatsby&#45;node.js&#45;&gt;gatsby/node/index.ts -->
<g id="edge2" class="edge">
<title>gatsby&#45;node.js&#45;&gt;gatsby/node/index.ts</title>
<path fill="none" stroke="#000000" stroke-width="2" stroke-opacity="0.200000" d="M89.2729,-1101.6632C97.056,-1101.6632 105.0943,-1101.6632 112.5855,-1101.6632"/>
<polygon fill="#000000" fill-opacity="0.200000" stroke="#000000" stroke-width="2" stroke-opacity="0.200000" points="112.7319,-1103.7633 118.7319,-1101.6632 112.7318,-1099.5633 112.7319,-1103.7633"/>
</g>
<!-- gatsby/node/create&#45;pages.ts -->
<g id="node8" class="node">
<title>gatsby/node/create&#45;pages.ts</title>
<g id="a_node8"><a xlink:href="gatsby/node/create-pages.ts" xlink:title="create&#45;pages.ts">
<path fill="#ddfeff" stroke="#000000" d="M274,-1125.6632C274,-1125.6632 200,-1125.6632 200,-1125.6632 197,-1125.6632 194,-1122.6632 194,-1119.6632 194,-1119.6632 194,-1113.6632 194,-1113.6632 194,-1110.6632 197,-1107.6632 200,-1107.6632 200,-1107.6632 274,-1107.6632 274,-1107.6632 277,-1107.6632 280,-1110.6632 280,-1113.6632 280,-1113.6632 280,-1119.6632 280,-1119.6632 280,-1122.6632 277,-1125.6632 274,-1125.6632"/>
<text text-anchor="middle" x="237" y="-1114.4632" font-family="Helvetica,sans-Serif" font-size="9.00" fill="#000000">create&#45;pages.ts</text>
</a>
</g>
</g>
<!-- gatsby/node/index.ts&#45;&gt;gatsby/node/create&#45;pages.ts -->
<g id="edge9" class="edge">
<title>gatsby/node/index.ts&#45;&gt;gatsby/node/create&#45;pages.ts</title>
<path fill="none" stroke="#000000" stroke-width="2" stroke-opacity="0.200000" d="M173.303,-1106.1637C177.8675,-1106.916 182.7245,-1107.7167 187.6421,-1108.5272"/>
<polygon fill="#000000" fill-opacity="0.200000" stroke="#000000" stroke-width="2" stroke-opacity="0.200000" points="187.6243,-1110.6526 193.8859,-1109.5564 188.3074,-1106.5085 187.6243,-1110.6526"/>
</g>
<!-- gatsby/node/on&#45;create&#45;node.ts -->
<g id="node14" class="node">
<title>gatsby/node/on&#45;create&#45;node.ts</title>
<g id="a_node14"><a xlink:href="gatsby/node/on-create-node.ts" xlink:title="on&#45;create&#45;node.ts">
<path fill="#ddfeff" stroke="#000000" d="M279,-1095.6632C279,-1095.6632 195,-1095.6632 195,-1095.6632 192,-1095.6632 189,-1092.6632 189,-1089.6632 189,-1089.6632 189,-1083.6632 189,-1083.6632 189,-1080.6632 192,-1077.6632 195,-1077.6632 195,-1077.6632 279,-1077.6632 279,-1077.6632 282,-1077.6632 285,-1080.6632 285,-1083.6632 285,-1083.6632 285,-1089.6632 285,-1089.6632 285,-1092.6632 282,-1095.6632 279,-1095.6632"/>
<text text-anchor="middle" x="237" y="-1084.4632" font-family="Helvetica,sans-Serif" font-size="9.00" fill="#000000">on&#45;create&#45;node.ts</text>
</a>
</g>
</g>
<!-- gatsby/node/index.ts&#45;&gt;gatsby/node/on&#45;create&#45;node.ts -->
<g id="edge10" class="edge">
<title>gatsby/node/index.ts&#45;&gt;gatsby/node/on&#45;create&#45;node.ts</title>
<path fill="none" stroke="#000000" stroke-width="2" stroke-opacity="0.200000" d="M173.303,-1097.1627C176.3787,-1096.6557 179.5873,-1096.1268 182.8577,-1095.5877"/>
<polygon fill="#000000" fill-opacity="0.200000" stroke="#000000" stroke-width="2" stroke-opacity="0.200000" points="183.2173,-1097.6569 188.7958,-1094.6089 182.5341,-1093.5128 183.2173,-1097.6569"/>
</g>
<!-- gatsby&#45;ssr.js -->
<g id="node6" class="node">
<title>gatsby&#45;ssr.js</title>
<g id="a_node6"><a xlink:href="gatsby-ssr.js" xlink:title="gatsby&#45;ssr.js">
<path fill="#ccffcc" stroke="#000000" d="M77.5,-1245.6632C77.5,-1245.6632 17.5,-1245.6632 17.5,-1245.6632 14.5,-1245.6632 11.5,-1242.6632 11.5,-1239.6632 11.5,-1239.6632 11.5,-1233.6632 11.5,-1233.6632 11.5,-1230.6632 14.5,-1227.6632 17.5,-1227.6632 17.5,-1227.6632 77.5,-1227.6632 77.5,-1227.6632 80.5,-1227.6632 83.5,-1230.6632 83.5,-1233.6632 83.5,-1233.6632 83.5,-1239.6632 83.5,-1239.6632 83.5,-1242.6632 80.5,-1245.6632 77.5,-1245.6632"/>
<text text-anchor="middle" x="47.5" y="-1234.4632" font-family="Helvetica,sans-Serif" font-size="9.00" fill="#000000">gatsby&#45;ssr.js</text>
</a>
</g>
</g>
<!-- gatsby/node/colored&#45;print.ts -->
<g id="node7" class="node">
<title>gatsby/node/colored&#45;print.ts</title>
<g id="a_node7"><a xlink:href="gatsby/node/colored-print.ts" xlink:title="colored&#45;print.ts">
<path fill="#ddfeff" stroke="#000000" d="M417.5,-1125.6632C417.5,-1125.6632 343.5,-1125.6632 343.5,-1125.6632 340.5,-1125.6632 337.5,-1122.6632 337.5,-1119.6632 337.5,-1119.6632 337.5,-1113.6632 337.5,-1113.6632 337.5,-1110.6632 340.5,-1107.6632 343.5,-1107.6632 343.5,-1107.6632 417.5,-1107.6632 417.5,-1107.6632 420.5,-1107.6632 423.5,-1110.6632 423.5,-1113.6632 423.5,-1113.6632 423.5,-1119.6632 423.5,-1119.6632 423.5,-1122.6632 420.5,-1125.6632 417.5,-1125.6632"/>
<text text-anchor="middle" x="380.5" y="-1114.4632" font-family="Helvetica,sans-Serif" font-size="9.00" fill="#000000">colored&#45;print.ts</text>
</a>
</g>
</g>
<!-- gatsby/node/create&#45;pages.ts&#45;&gt;gatsby/node/colored&#45;print.ts -->
<g id="edge8" class="edge">
<title>gatsby/node/create&#45;pages.ts&#45;&gt;gatsby/node/colored&#45;print.ts</title>
<path fill="none" stroke="#000000" stroke-width="2" stroke-opacity="0.200000" d="M280.0547,-1116.6632C296.2306,-1116.6632 314.7362,-1116.6632 331.4194,-1116.6632"/>
<polygon fill="#000000" fill-opacity="0.200000" stroke="#000000" stroke-width="2" stroke-opacity="0.200000" points="331.4757,-1118.7633 337.4757,-1116.6632 331.4756,-1114.5633 331.4757,-1118.7633"/>
</g>
<!-- src/templates/archive&#45;month&#45;template.tsx -->
<g id="node9" class="node">
<title>src/templates/archive&#45;month&#45;template.tsx</title>
<g id="a_node9"><a xlink:href="src/templates/archive-month-template.tsx" xlink:title="archive&#45;month&#45;template.tsx">
<path fill="#bbfeff" stroke="#000000" d="M446,-177.6632C446,-177.6632 315,-177.6632 315,-177.6632 312,-177.6632 309,-174.6632 309,-171.6632 309,-171.6632 309,-165.6632 309,-165.6632 309,-162.6632 312,-159.6632 315,-159.6632 315,-159.6632 446,-159.6632 446,-159.6632 449,-159.6632 452,-162.6632 452,-165.6632 452,-165.6632 452,-171.6632 452,-171.6632 452,-174.6632 449,-177.6632 446,-177.6632"/>
<text text-anchor="middle" x="380.5" y="-166.4632" font-family="Helvetica,sans-Serif" font-size="9.00" fill="#000000">archive&#45;month&#45;template.tsx</text>
</a>
</g>
</g>
<!-- gatsby/node/create&#45;pages.ts&#45;&gt;src/templates/archive&#45;month&#45;template.tsx -->
<g id="edge3" class="edge">
<title>gatsby/node/create&#45;pages.ts&#45;&gt;src/templates/archive&#45;month&#45;template.tsx</title>
<path fill="none" stroke="#000000" stroke-width="2" stroke-opacity="0.200000" d="M279.1139,-1107.4613C281.3368,-1105.8241 283.3353,-1103.9069 285,-1101.6632 300.1945,-1081.1833 276.4771,-203.0872 293,-183.6632 296.0209,-180.1119 299.5495,-177.1904 303.4239,-174.7996"/>
<polygon fill="#000000" fill-opacity="0.200000" stroke="#000000" stroke-width="2" stroke-opacity="0.200000" points="304.6114,-176.5457 308.906,-171.8588 302.626,-172.8445 304.6114,-176.5457"/>
</g>
<!-- src/templates/archive&#45;year&#45;template.tsx -->
<g id="node10" class="node">
<title>src/templates/archive&#45;year&#45;template.tsx</title>
<g id="a_node10"><a xlink:href="src/templates/archive-year-template.tsx" xlink:title="archive&#45;year&#45;template.tsx">
<path fill="#bbfeff" stroke="#000000" d="M440,-237.6632C440,-237.6632 321,-237.6632 321,-237.6632 318,-237.6632 315,-234.6632 315,-231.6632 315,-231.6632 315,-225.6632 315,-225.6632 315,-222.6632 318,-219.6632 321,-219.6632 321,-219.6632 440,-219.6632 440,-219.6632 443,-219.6632 446,-222.6632 446,-225.6632 446,-225.6632 446,-231.6632 446,-231.6632 446,-234.6632 443,-237.6632 440,-237.6632"/>
<text text-anchor="middle" x="380.5" y="-226.4632" font-family="Helvetica,sans-Serif" font-size="9.00" fill="#000000">archive&#45;year&#45;template.tsx</text>
</a>
</g>
</g>
<!-- gatsby/node/create&#45;pages.ts&#45;&gt;src/templates/archive&#45;year&#45;template.tsx -->
<g id="edge4" class="edge">
<title>gatsby/node/create&#45;pages.ts&#45;&gt;src/templates/archive&#45;year&#45;template.tsx</title>
<path fill="none" stroke="#000000" stroke-width="2" stroke-opacity="0.200000" d="M279.0936,-1107.4461C281.3213,-1105.8125 283.3264,-1103.9003 285,-1101.6632 293.0046,-1090.9629 291.4252,-633.933 293,-620.6632 310.6918,-471.5854 360.5113,-296.0079 375.9081,-243.9384"/>
<polygon fill="#000000" fill-opacity="0.200000" stroke="#000000" stroke-width="2" stroke-opacity="0.200000" points="377.9924,-244.2966 377.6896,-237.9469 373.9666,-243.0995 377.9924,-244.2966"/>
</g>
<!-- src/templates/blog&#45;post&#45;template/index.tsx -->
<g id="node11" class="node">
<title>src/templates/blog&#45;post&#45;template/index.tsx</title>
<g id="a_node11"><a xlink:href="src/templates/blog-post-template/index.tsx" xlink:title="index.tsx">
<path fill="#bbfeff" stroke="#000000" d="M403.5,-125.6632C403.5,-125.6632 357.5,-125.6632 357.5,-125.6632 354.5,-125.6632 351.5,-122.6632 351.5,-119.6632 351.5,-119.6632 351.5,-113.6632 351.5,-113.6632 351.5,-110.6632 354.5,-107.6632 357.5,-107.6632 357.5,-107.6632 403.5,-107.6632 403.5,-107.6632 406.5,-107.6632 409.5,-110.6632 409.5,-113.6632 409.5,-113.6632 409.5,-119.6632 409.5,-119.6632 409.5,-122.6632 406.5,-125.6632 403.5,-125.6632"/>
<text text-anchor="middle" x="380.5" y="-114.4632" font-family="Helvetica,sans-Serif" font-size="9.00" fill="#000000">index.tsx</text>
</a>
</g>
</g>
<!-- gatsby/node/create&#45;pages.ts&#45;&gt;src/templates/blog&#45;post&#45;template/index.tsx -->
<g id="edge5" class="edge">
<title>gatsby/node/create&#45;pages.ts&#45;&gt;src/templates/blog&#45;post&#45;template/index.tsx</title>
<path fill="none" stroke="#000000" stroke-width="2" stroke-opacity="0.200000" d="M279.1152,-1107.4622C281.3377,-1105.8248 283.3359,-1103.9073 285,-1101.6632 301.083,-1079.9748 275.2821,-150.0378 293,-129.6632 305.5853,-115.1908 326.7143,-111.7447 345.0564,-112.0112"/>
<polygon fill="#000000" fill-opacity="0.200000" stroke="#000000" stroke-width="2" stroke-opacity="0.200000" points="345.0811,-114.1133 351.1536,-112.2333 345.2341,-109.9161 345.0811,-114.1133"/>
</g>
<!-- src/templates/tag&#45;page&#45;template.tsx -->
<g id="node12" class="node">
<title>src/templates/tag&#45;page&#45;template.tsx</title>
<g id="a_node12"><a xlink:href="src/templates/tag-page-template.tsx" xlink:title="tag&#45;page&#45;template.tsx">
<path fill="#bbfeff" stroke="#000000" d="M433,-207.6632C433,-207.6632 328,-207.6632 328,-207.6632 325,-207.6632 322,-204.6632 322,-201.6632 322,-201.6632 322,-195.6632 322,-195.6632 322,-192.6632 325,-189.6632 328,-189.6632 328,-189.6632 433,-189.6632 433,-189.6632 436,-189.6632 439,-192.6632 439,-195.6632 439,-195.6632 439,-201.6632 439,-201.6632 439,-204.6632 436,-207.6632 433,-207.6632"/>
<text text-anchor="middle" x="380.5" y="-196.4632" font-family="Helvetica,sans-Serif" font-size="9.00" fill="#000000">tag&#45;page&#45;template.tsx</text>
</a>
</g>
</g>
<!-- gatsby/node/create&#45;pages.ts&#45;&gt;src/templates/tag&#45;page&#45;template.tsx -->
<g id="edge6" class="edge">
<title>gatsby/node/create&#45;pages.ts&#45;&gt;src/templates/tag&#45;page&#45;template.tsx</title>
<path fill="none" stroke="#000000" stroke-width="2" stroke-opacity="0.200000" d="M279.1132,-1107.4607C281.3362,-1105.8237 283.335,-1103.9067 285,-1101.6632 299.7009,-1081.8547 277.0143,-232.4501 293,-213.6632 299.063,-206.5377 307.1706,-201.948 316.0121,-199.0922"/>
<polygon fill="#000000" fill-opacity="0.200000" stroke="#000000" stroke-width="2" stroke-opacity="0.200000" points="316.6928,-201.0828 321.9141,-197.4567 315.5712,-197.0353 316.6928,-201.0828"/>
</g>
<!-- src/utils/asserts&#45;non&#45;null.ts -->
<g id="node13" class="node">
<title>src/utils/asserts&#45;non&#45;null.ts</title>
<g id="a_node13"><a xlink:href="src/utils/asserts-non-null.ts" xlink:title="asserts&#45;non&#45;null.ts">
<path fill="#ddfeff" stroke="#000000" d="M1083,-211.6632C1083,-211.6632 996,-211.6632 996,-211.6632 993,-211.6632 990,-208.6632 990,-205.6632 990,-205.6632 990,-199.6632 990,-199.6632 990,-196.6632 993,-193.6632 996,-193.6632 996,-193.6632 1083,-193.6632 1083,-193.6632 1086,-193.6632 1089,-196.6632 1089,-199.6632 1089,-199.6632 1089,-205.6632 1089,-205.6632 1089,-208.6632 1086,-211.6632 1083,-211.6632"/>
<text text-anchor="middle" x="1039.5" y="-200.4632" font-family="Helvetica,sans-Serif" font-size="9.00" fill="#000000">asserts&#45;non&#45;null.ts</text>
</a>
</g>
</g>
<!-- gatsby/node/create&#45;pages.ts&#45;&gt;src/utils/asserts&#45;non&#45;null.ts -->
<g id="edge7" class="edge">
<title>gatsby/node/create&#45;pages.ts&#45;&gt;src/utils/asserts&#45;non&#45;null.ts</title>
<path fill="none" stroke="#000000" stroke-width="2" stroke-opacity="0.200000" d="M279.1159,-1107.4627C281.3383,-1105.8252 283.3362,-1103.9075 285,-1101.6632 301.626,-1079.2362 275.4498,-118.3745 293,-96.6632 357.2615,-17.1654 415.2775,-46.6632 517.5,-46.6632 517.5,-46.6632 517.5,-46.6632 786.5,-46.6632 870.2601,-46.6632 915.8335,-5.3937 974,-65.6632 992.8675,-85.2128 964.6942,-166.7184 982,-187.6632 982.8378,-188.6772 983.7349,-189.6274 984.6831,-190.5177"/>
<polygon fill="#000000" fill-opacity="0.200000" stroke="#000000" stroke-width="2" stroke-opacity="0.200000" points="983.7833,-192.4766 989.8139,-194.4871 986.3533,-189.1547 983.7833,-192.4766"/>
</g>
<!-- src/templates/post&#45;list&#45;page.tsx -->
<g id="node43" class="node">
<title>src/templates/post&#45;list&#45;page.tsx</title>
<g id="a_node43"><a xlink:href="src/templates/post-list-page.tsx" xlink:title="post&#45;list&#45;page.tsx">
<path fill="#bbfeff" stroke="#000000" d="M558.5,-237.6632C558.5,-237.6632 476.5,-237.6632 476.5,-237.6632 473.5,-237.6632 470.5,-234.6632 470.5,-231.6632 470.5,-231.6632 470.5,-225.6632 470.5,-225.6632 470.5,-222.6632 473.5,-219.6632 476.5,-219.6632 476.5,-219.6632 558.5,-219.6632 558.5,-219.6632 561.5,-219.6632 564.5,-222.6632 564.5,-225.6632 564.5,-225.6632 564.5,-231.6632 564.5,-231.6632 564.5,-234.6632 561.5,-237.6632 558.5,-237.6632"/>
<text text-anchor="middle" x="517.5" y="-226.4632" font-family="Helvetica,sans-Serif" font-size="9.00" fill="#000000">post&#45;list&#45;page.tsx</text>
</a>
</g>
</g>
<!-- src/templates/archive&#45;month&#45;template.tsx&#45;&gt;src/templates/post&#45;list&#45;page.tsx -->
<g id="edge40" class="edge">
<title>src/templates/archive&#45;month&#45;template.tsx&#45;&gt;src/templates/post&#45;list&#45;page.tsx</title>
<path fill="none" stroke="#000000" stroke-width="2" stroke-opacity="0.200000" d="M435.0758,-177.7502C440.8914,-179.4128 446.6362,-181.3676 452,-183.6632 470.8118,-191.7139 489.811,-205.5402 502.4665,-215.7478"/>
<polygon fill="#000000" fill-opacity="0.200000" stroke="#000000" stroke-width="2" stroke-opacity="0.200000" points="501.1863,-217.4138 507.1557,-219.5995 503.8522,-214.1683 501.1863,-217.4138"/>
</g>
<!-- src/templates/archive&#45;year&#45;template.tsx&#45;&gt;src/templates/post&#45;list&#45;page.tsx -->
<g id="edge41" class="edge">
<title>src/templates/archive&#45;year&#45;template.tsx&#45;&gt;src/templates/post&#45;list&#45;page.tsx</title>
<path fill="none" stroke="#000000" stroke-width="2" stroke-opacity="0.200000" d="M446.1911,-228.6632C452.142,-228.6632 458.1212,-228.6632 463.9487,-228.6632"/>
<polygon fill="#000000" fill-opacity="0.200000" stroke="#000000" stroke-width="2" stroke-opacity="0.200000" points="464.204,-230.7633 470.204,-228.6632 464.204,-226.5633 464.204,-230.7633"/>
</g>
<!-- src/templates/blog&#45;post&#45;template/index.tsx&#45;&gt;src/utils/asserts&#45;non&#45;null.ts -->
<g id="edge50" class="edge">
<title>src/templates/blog&#45;post&#45;template/index.tsx&#45;&gt;src/utils/asserts&#45;non&#45;null.ts</title>
<path fill="none" stroke="#000000" stroke-width="2" stroke-opacity="0.200000" d="M394.7623,-107.5006C411.0269,-97.5991 438.7695,-82.3428 465,-75.6632 547.5699,-54.6365 571.2949,-66.6632 656.5,-66.6632 656.5,-66.6632 656.5,-66.6632 786.5,-66.6632 875.4514,-66.6632 917.7545,-67.7517 974,-136.6632 988.5078,-154.438 966.6039,-170.652 982,-187.6632 982.8567,-188.6097 983.765,-189.4998 984.7177,-190.3367"/>
<polygon fill="#000000" fill-opacity="0.200000" stroke="#000000" stroke-width="2" stroke-opacity="0.200000" points="983.7436,-192.2273 989.8207,-194.0928 986.2334,-188.8447 983.7436,-192.2273"/>
</g>
<!-- src/components/article/index.tsx -->
<g id="node17" class="node">
<title>src/components/article/index.tsx</title>
<g id="a_node17"><a xlink:href="src/components/article/index.tsx" xlink:title="index.tsx">
<path fill="#bbfeff" stroke="#000000" d="M679.5,-905.6632C679.5,-905.6632 633.5,-905.6632 633.5,-905.6632 630.5,-905.6632 627.5,-902.6632 627.5,-899.6632 627.5,-899.6632 627.5,-893.6632 627.5,-893.6632 627.5,-890.6632 630.5,-887.6632 633.5,-887.6632 633.5,-887.6632 679.5,-887.6632 679.5,-887.6632 682.5,-887.6632 685.5,-890.6632 685.5,-893.6632 685.5,-893.6632 685.5,-899.6632 685.5,-899.6632 685.5,-902.6632 682.5,-905.6632 679.5,-905.6632"/>
<text text-anchor="middle" x="656.5" y="-894.4632" font-family="Helvetica,sans-Serif" font-size="9.00" fill="#000000">index.tsx</text>
</a>
</g>
</g>
<!-- src/templates/blog&#45;post&#45;template/index.tsx&#45;&gt;src/components/article/index.tsx -->
<g id="edge45" class="edge">
<title>src/templates/blog&#45;post&#45;template/index.tsx&#45;&gt;src/components/article/index.tsx</title>
<path fill="none" stroke="#000000" stroke-width="2" stroke-opacity="0.200000" d="M409.7986,-113.9985C424.7176,-114.37 441.8113,-117.7911 452,-129.6632 469.0839,-149.5696 458.8101,-576.1718 465,-601.6632 496.7788,-732.5358 496.745,-784.1841 596.5,-874.6632 603.511,-881.0222 612.5125,-885.5862 621.3993,-888.8453"/>
<polygon fill="#000000" fill-opacity="0.200000" stroke="#000000" stroke-width="2" stroke-opacity="0.200000" points="620.844,-890.8742 627.2005,-890.8043 622.1878,-886.895 620.844,-890.8742"/>
</g>
<!-- src/components/atoms/tag&#45;list.tsx -->
<g id="node19" class="node">
<title>src/components/atoms/tag&#45;list.tsx</title>
<g id="a_node19"><a xlink:href="src/components/atoms/tag-list.tsx" xlink:title="tag&#45;list.tsx">
<path fill="#bbfeff" stroke="#000000" d="M937,-305.6632C937,-305.6632 885,-305.6632 885,-305.6632 882,-305.6632 879,-302.6632 879,-299.6632 879,-299.6632 879,-293.6632 879,-293.6632 879,-290.6632 882,-287.6632 885,-287.6632 885,-287.6632 937,-287.6632 937,-287.6632 940,-287.6632 943,-290.6632 943,-293.6632 943,-293.6632 943,-299.6632 943,-299.6632 943,-302.6632 940,-305.6632 937,-305.6632"/>
<text text-anchor="middle" x="911" y="-294.4632" font-family="Helvetica,sans-Serif" font-size="9.00" fill="#000000">tag&#45;list.tsx</text>
</a>
</g>
</g>
<!-- src/templates/blog&#45;post&#45;template/index.tsx&#45;&gt;src/components/atoms/tag&#45;list.tsx -->
<g id="edge46" class="edge">
<title>src/templates/blog&#45;post&#45;template/index.tsx&#45;&gt;src/components/atoms/tag&#45;list.tsx</title>
<path fill="none" stroke="#000000" stroke-width="2" stroke-opacity="0.200000" d="M408.6655,-107.5615C469.2552,-89.6247 615.2856,-55.2928 724,-101.6632 812.8692,-139.5688 879.7917,-242.7187 902.5508,-281.5802"/>
<polygon fill="#000000" fill-opacity="0.200000" stroke="#000000" stroke-width="2" stroke-opacity="0.200000" points="901.0026,-283.0988 905.8209,-287.2454 904.6401,-280.9992 901.0026,-283.0988"/>
</g>
<!-- src/components/git&#45;info/index.tsx -->
<g id="node23" class="node">
<title>src/components/git&#45;info/index.tsx</title>
<g id="a_node23"><a xlink:href="src/components/git-info/index.tsx" xlink:title="index.tsx">
<path fill="#bbfeff" stroke="#000000" d="M679.5,-695.6632C679.5,-695.6632 633.5,-695.6632 633.5,-695.6632 630.5,-695.6632 627.5,-692.6632 627.5,-689.6632 627.5,-689.6632 627.5,-683.6632 627.5,-683.6632 627.5,-680.6632 630.5,-677.6632 633.5,-677.6632 633.5,-677.6632 679.5,-677.6632 679.5,-677.6632 682.5,-677.6632 685.5,-680.6632 685.5,-683.6632 685.5,-683.6632 685.5,-689.6632 685.5,-689.6632 685.5,-692.6632 682.5,-695.6632 679.5,-695.6632"/>
<text text-anchor="middle" x="656.5" y="-684.4632" font-family="Helvetica,sans-Serif" font-size="9.00" fill="#000000">index.tsx</text>
</a>
</g>
</g>
<!-- src/templates/blog&#45;post&#45;template/index.tsx&#45;&gt;src/components/git&#45;info/index.tsx -->
<g id="edge47" class="edge">
<title>src/templates/blog&#45;post&#45;template/index.tsx&#45;&gt;src/components/git&#45;info/index.tsx</title>
<path fill="none" stroke="#000000" stroke-width="2" stroke-opacity="0.200000" d="M409.7822,-114.0126C424.6963,-114.3883 441.7906,-117.8088 452,-129.6632 482.3957,-164.9563 445.1825,-506.5114 465,-548.6632 498.1585,-619.1915 529.5413,-624.7851 596.5,-664.6632 604.245,-669.2758 613.1177,-673.1766 621.622,-676.3528"/>
<polygon fill="#000000" fill-opacity="0.200000" stroke="#000000" stroke-width="2" stroke-opacity="0.200000" points="621.0757,-678.3877 627.4324,-678.4357 622.4931,-674.4341 621.0757,-678.3877"/>
</g>
<!-- src/components/layout/index.tsx -->
<g id="node31" class="node">
<title>src/components/layout/index.tsx</title>
<g id="a_node31"><a xlink:href="src/components/layout/index.tsx" xlink:title="index.tsx">
<path fill="#bbfeff" stroke="#000000" d="M679.5,-545.6632C679.5,-545.6632 633.5,-545.6632 633.5,-545.6632 630.5,-545.6632 627.5,-542.6632 627.5,-539.6632 627.5,-539.6632 627.5,-533.6632 627.5,-533.6632 627.5,-530.6632 630.5,-527.6632 633.5,-527.6632 633.5,-527.6632 679.5,-527.6632 679.5,-527.6632 682.5,-527.6632 685.5,-530.6632 685.5,-533.6632 685.5,-533.6632 685.5,-539.6632 685.5,-539.6632 685.5,-542.6632 682.5,-545.6632 679.5,-545.6632"/>
<text text-anchor="middle" x="656.5" y="-534.4632" font-family="Helvetica,sans-Serif" font-size="9.00" fill="#000000">index.tsx</text>
</a>
</g>
</g>
<!-- src/templates/blog&#45;post&#45;template/index.tsx&#45;&gt;src/components/layout/index.tsx -->
<g id="edge48" class="edge">
<title>src/templates/blog&#45;post&#45;template/index.tsx&#45;&gt;src/components/layout/index.tsx</title>
<path fill="none" stroke="#000000" stroke-width="2" stroke-opacity="0.200000" d="M409.7756,-114.0183C424.6878,-114.3956 441.7824,-117.8159 452,-129.6632 481.1147,-163.4214 433.4608,-499.1582 465,-530.6632 506.4682,-572.0864 581.5808,-559.3268 624.3735,-547.3494"/>
<polygon fill="#000000" fill-opacity="0.200000" stroke="#000000" stroke-width="2" stroke-opacity="0.200000" points="625.0082,-549.3521 630.1904,-545.6703 623.8433,-545.3168 625.0082,-549.3521"/>
</g>
<!-- src/components/table&#45;of&#45;contents/index.tsx -->
<g id="node39" class="node">
<title>src/components/table&#45;of&#45;contents/index.tsx</title>
<g id="a_node39"><a xlink:href="src/components/table-of-contents/index.tsx" xlink:title="index.tsx">
<path fill="#bbfeff" stroke="#000000" d="M679.5,-463.6632C679.5,-463.6632 633.5,-463.6632 633.5,-463.6632 630.5,-463.6632 627.5,-460.6632 627.5,-457.6632 627.5,-457.6632 627.5,-451.6632 627.5,-451.6632 627.5,-448.6632 630.5,-445.6632 633.5,-445.6632 633.5,-445.6632 679.5,-445.6632 679.5,-445.6632 682.5,-445.6632 685.5,-448.6632 685.5,-451.6632 685.5,-451.6632 685.5,-457.6632 685.5,-457.6632 685.5,-460.6632 682.5,-463.6632 679.5,-463.6632"/>
<text text-anchor="middle" x="656.5" y="-452.4632" font-family="Helvetica,sans-Serif" font-size="9.00" fill="#000000">index.tsx</text>
</a>
</g>
</g>
<!-- src/templates/blog&#45;post&#45;template/index.tsx&#45;&gt;src/components/table&#45;of&#45;contents/index.tsx -->
<g id="edge49" class="edge">
<title>src/templates/blog&#45;post&#45;template/index.tsx&#45;&gt;src/components/table&#45;of&#45;contents/index.tsx</title>
<path fill="none" stroke="#000000" stroke-width="2" stroke-opacity="0.200000" d="M409.8449,-114.2878C424.5885,-114.7847 441.5043,-118.2323 452,-129.6632 472.6831,-152.1891 453.2501,-238.4293 465,-266.6632 500.1028,-351.0119 524.8982,-367.9172 596.5,-424.6632 605.7414,-431.9872 617.0583,-438.2106 627.3634,-443.0583"/>
<polygon fill="#000000" fill-opacity="0.200000" stroke="#000000" stroke-width="2" stroke-opacity="0.200000" points="626.6338,-445.0335 632.9647,-445.6082 628.374,-441.211 626.6338,-445.0335"/>
</g>
<!-- src/templates/blog&#45;post&#45;template/article&#45;elements.tsx -->
<g id="node44" class="node">
<title>src/templates/blog&#45;post&#45;template/article&#45;elements.tsx</title>
<g id="a_node44"><a xlink:href="src/templates/blog-post-template/article-elements.tsx" xlink:title="article&#45;elements.tsx">
<path fill="#bbfeff" stroke="#000000" d="M564,-125.6632C564,-125.6632 471,-125.6632 471,-125.6632 468,-125.6632 465,-122.6632 465,-119.6632 465,-119.6632 465,-113.6632 465,-113.6632 465,-110.6632 468,-107.6632 471,-107.6632 471,-107.6632 564,-107.6632 564,-107.6632 567,-107.6632 570,-110.6632 570,-113.6632 570,-113.6632 570,-119.6632 570,-119.6632 570,-122.6632 567,-125.6632 564,-125.6632"/>
<text text-anchor="middle" x="517.5" y="-114.4632" font-family="Helvetica,sans-Serif" font-size="9.00" fill="#000000">article&#45;elements.tsx</text>
</a>
</g>
</g>
<!-- src/templates/blog&#45;post&#45;template/index.tsx&#45;&gt;src/templates/blog&#45;post&#45;template/article&#45;elements.tsx -->
<g id="edge51" class="edge">
<title>src/templates/blog&#45;post&#45;template/index.tsx&#45;&gt;src/templates/blog&#45;post&#45;template/article&#45;elements.tsx</title>
<path fill="none" stroke="#000000" stroke-width="2" stroke-opacity="0.200000" d="M409.5542,-116.6632C423.8948,-116.6632 441.7344,-116.6632 458.7539,-116.6632"/>
<polygon fill="#000000" fill-opacity="0.200000" stroke="#000000" stroke-width="2" stroke-opacity="0.200000" points="458.9791,-118.7633 464.9791,-116.6632 458.9791,-114.5633 458.9791,-118.7633"/>
</g>
<!-- src/templates/tag&#45;page&#45;template.tsx&#45;&gt;src/templates/post&#45;list&#45;page.tsx -->
<g id="edge54" class="edge">
<title>src/templates/tag&#45;page&#45;template.tsx&#45;&gt;src/templates/post&#45;list&#45;page.tsx</title>
<path fill="none" stroke="#000000" stroke-width="2" stroke-opacity="0.200000" d="M424.3899,-207.7383C433.5218,-209.6637 443.0801,-211.7063 452,-213.6632 458.6304,-215.1177 465.6306,-216.686 472.49,-218.2412"/>
<polygon fill="#000000" fill-opacity="0.200000" stroke="#000000" stroke-width="2" stroke-opacity="0.200000" points="472.4188,-220.3786 478.7352,-219.6621 473.3506,-216.2832 472.4188,-220.3786"/>
</g>
<!-- src/utils/panic.ts -->
<g id="node25" class="node">
<title>src/utils/panic.ts</title>
<g id="a_node25"><a xlink:href="src/utils/panic.ts" xlink:title="panic.ts">
<path fill="#ddfeff" stroke="#000000" d="M1150,-211.6632C1150,-211.6632 1108,-211.6632 1108,-211.6632 1105,-211.6632 1102,-208.6632 1102,-205.6632 1102,-205.6632 1102,-199.6632 1102,-199.6632 1102,-196.6632 1105,-193.6632 1108,-193.6632 1108,-193.6632 1150,-193.6632 1150,-193.6632 1153,-193.6632 1156,-196.6632 1156,-199.6632 1156,-199.6632 1156,-205.6632 1156,-205.6632 1156,-208.6632 1153,-211.6632 1150,-211.6632"/>
<text text-anchor="middle" x="1129" y="-200.4632" font-family="Helvetica,sans-Serif" font-size="9.00" fill="#000000">panic.ts</text>
</a>
</g>
</g>
<!-- src/utils/asserts&#45;non&#45;null.ts&#45;&gt;src/utils/panic.ts -->
<g id="edge55" class="edge">
<title>src/utils/asserts&#45;non&#45;null.ts&#45;&gt;src/utils/panic.ts</title>
<path fill="none" stroke="#000000" stroke-width="2" stroke-opacity="0.200000" d="M1089.2228,-202.6632C1091.3955,-202.6632 1093.5523,-202.6632 1095.6725,-202.6632"/>
<polygon fill="#000000" fill-opacity="0.200000" stroke="#000000" stroke-width="2" stroke-opacity="0.200000" points="1095.9023,-204.7633 1101.9023,-202.6632 1095.9022,-200.5633 1095.9023,-204.7633"/>
</g>
<!-- gatsby/node/on&#45;create&#45;node.ts&#45;&gt;src/utils/asserts&#45;non&#45;null.ts -->
<g id="edge11" class="edge">
<title>gatsby/node/on&#45;create&#45;node.ts&#45;&gt;src/utils/asserts&#45;non&#45;null.ts</title>
<path fill="none" stroke="#000000" stroke-width="2" stroke-opacity="0.200000" d="M237.1419,-1077.6309C238.7572,-977.4033 254.3428,-76.0173 293,-36.6632 363.0978,34.6984 417.4691,-20.6632 517.5,-20.6632 517.5,-20.6632 517.5,-20.6632 786.5,-20.6632 870.1362,-20.6632 915.8199,23.4209 974,-36.6632 985.6875,-48.7332 971.3797,-174.6442 982,-187.6632 982.8315,-188.6824 983.7227,-189.6374 984.6658,-190.5319"/>
<polygon fill="#000000" fill-opacity="0.200000" stroke="#000000" stroke-width="2" stroke-opacity="0.200000" points="983.7532,-192.4834 989.7755,-194.5186 986.3368,-189.1721 983.7532,-192.4834"/>
</g>
<!-- src/@types/tailwindcss.d.ts -->
<g id="node15" class="node">
<title>src/@types/tailwindcss.d.ts</title>
<g id="a_node15"><a xlink:href="src/@types/tailwindcss.d.ts" xlink:title="tailwindcss.d.ts">
<path fill="#ccffcc" stroke="#000000" d="M417.5,-649.6632C417.5,-649.6632 343.5,-649.6632 343.5,-649.6632 340.5,-649.6632 337.5,-646.6632 337.5,-643.6632 337.5,-643.6632 337.5,-637.6632 337.5,-637.6632 337.5,-634.6632 340.5,-631.6632 343.5,-631.6632 343.5,-631.6632 417.5,-631.6632 417.5,-631.6632 420.5,-631.6632 423.5,-634.6632 423.5,-637.6632 423.5,-637.6632 423.5,-643.6632 423.5,-643.6632 423.5,-646.6632 420.5,-649.6632 417.5,-649.6632"/>
<text text-anchor="middle" x="380.5" y="-638.4632" font-family="Helvetica,sans-Serif" font-size="9.00" fill="#000000">tailwindcss.d.ts</text>
</a>
</g>
</g>
<!-- src/components/article/article&#45;styles.ts -->
<g id="node16" class="node">
<title>src/components/article/article&#45;styles.ts</title>
<g id="a_node16"><a xlink:href="src/components/article/article-styles.ts" xlink:title="article&#45;styles.ts">
<path fill="#ddfeff" stroke="#000000" d="M822.5,-905.6632C822.5,-905.6632 750.5,-905.6632 750.5,-905.6632 747.5,-905.6632 744.5,-902.6632 744.5,-899.6632 744.5,-899.6632 744.5,-893.6632 744.5,-893.6632 744.5,-890.6632 747.5,-887.6632 750.5,-887.6632 750.5,-887.6632 822.5,-887.6632 822.5,-887.6632 825.5,-887.6632 828.5,-890.6632 828.5,-893.6632 828.5,-893.6632 828.5,-899.6632 828.5,-899.6632 828.5,-902.6632 825.5,-905.6632 822.5,-905.6632"/>
<text text-anchor="middle" x="786.5" y="-894.4632" font-family="Helvetica,sans-Serif" font-size="9.00" fill="#000000">article&#45;styles.ts</text>
</a>
</g>
</g>
<!-- src/components/article/index.tsx&#45;&gt;src/components/article/article&#45;styles.ts -->
<g id="edge12" class="edge">
<title>src/components/article/index.tsx&#45;&gt;src/components/article/article&#45;styles.ts</title>
<path fill="none" stroke="#000000" stroke-width="2" stroke-opacity="0.200000" d="M685.6745,-896.6632C701.0091,-896.6632 720.2124,-896.6632 737.7342,-896.6632"/>
<polygon fill="#000000" fill-opacity="0.200000" stroke="#000000" stroke-width="2" stroke-opacity="0.200000" points="738.1032,-898.7633 744.1032,-896.6632 738.1032,-894.5633 738.1032,-898.7633"/>
</g>
<!-- src/components/atoms/anchor&#45;or&#45;link.tsx -->
<g id="node18" class="node">
<title>src/components/atoms/anchor&#45;or&#45;link.tsx</title>
<g id="a_node18"><a xlink:href="src/components/atoms/anchor-or-link.tsx" xlink:title="anchor&#45;or&#45;link.tsx">
<path fill="#bbfeff" stroke="#000000" d="M952,-335.6632C952,-335.6632 870,-335.6632 870,-335.6632 867,-335.6632 864,-332.6632 864,-329.6632 864,-329.6632 864,-323.6632 864,-323.6632 864,-320.6632 867,-317.6632 870,-317.6632 870,-317.6632 952,-317.6632 952,-317.6632 955,-317.6632 958,-320.6632 958,-323.6632 958,-323.6632 958,-329.6632 958,-329.6632 958,-332.6632 955,-335.6632 952,-335.6632"/>
<text text-anchor="middle" x="911" y="-324.4632" font-family="Helvetica,sans-Serif" font-size="9.00" fill="#000000">anchor&#45;or&#45;link.tsx</text>
</a>
</g>
</g>
<!-- src/components/color&#45;checker/index.tsx -->
<g id="node20" class="node">
<title>src/components/color&#45;checker/index.tsx</title>
<g id="a_node20"><a xlink:href="src/components/color-checker/index.tsx" xlink:title="index.tsx">
<path fill="#ccffcc" stroke="#000000" d="M679.5,-845.6632C679.5,-845.6632 633.5,-845.6632 633.5,-845.6632 630.5,-845.6632 627.5,-842.6632 627.5,-839.6632 627.5,-839.6632 627.5,-833.6632 627.5,-833.6632 627.5,-830.6632 630.5,-827.6632 633.5,-827.6632 633.5,-827.6632 679.5,-827.6632 679.5,-827.6632 682.5,-827.6632 685.5,-830.6632 685.5,-833.6632 685.5,-833.6632 685.5,-839.6632 685.5,-839.6632 685.5,-842.6632 682.5,-845.6632 679.5,-845.6632"/>
<text text-anchor="middle" x="656.5" y="-834.4632" font-family="Helvetica,sans-Serif" font-size="9.00" fill="#000000">index.tsx</text>
</a>
</g>
</g>
<!-- src/components/embeddeds/niconico.tsx -->
<g id="node21" class="node">
<title>src/components/embeddeds/niconico.tsx</title>
<g id="a_node21"><a xlink:href="src/components/embeddeds/niconico.tsx" xlink:title="niconico.tsx">
<path fill="#ccffcc" stroke="#000000" d="M686,-785.6632C686,-785.6632 627,-785.6632 627,-785.6632 624,-785.6632 621,-782.6632 621,-779.6632 621,-779.6632 621,-773.6632 621,-773.6632 621,-770.6632 624,-767.6632 627,-767.6632 627,-767.6632 686,-767.6632 686,-767.6632 689,-767.6632 692,-770.6632 692,-773.6632 692,-773.6632 692,-779.6632 692,-779.6632 692,-782.6632 689,-785.6632 686,-785.6632"/>
<text text-anchor="middle" x="656.5" y="-774.4632" font-family="Helvetica,sans-Serif" font-size="9.00" fill="#000000">niconico.tsx</text>
</a>
</g>
</g>
<!-- src/components/embeddeds/youtube.tsx -->
<g id="node22" class="node">
<title>src/components/embeddeds/youtube.tsx</title>
<g id="a_node22"><a xlink:href="src/components/embeddeds/youtube.tsx" xlink:title="youtube.tsx">
<path fill="#ccffcc" stroke="#000000" d="M686,-755.6632C686,-755.6632 627,-755.6632 627,-755.6632 624,-755.6632 621,-752.6632 621,-749.6632 621,-749.6632 621,-743.6632 621,-743.6632 621,-740.6632 624,-737.6632 627,-737.6632 627,-737.6632 686,-737.6632 686,-737.6632 689,-737.6632 692,-740.6632 692,-743.6632 692,-743.6632 692,-749.6632 692,-749.6632 692,-752.6632 689,-755.6632 686,-755.6632"/>
<text text-anchor="middle" x="656.5" y="-744.4632" font-family="Helvetica,sans-Serif" font-size="9.00" fill="#000000">youtube.tsx</text>
</a>
</g>
</g>
<!-- src/components/git&#45;info/useLatestCommit.ts -->
<g id="node24" class="node">
<title>src/components/git&#45;info/useLatestCommit.ts</title>
<g id="a_node24"><a xlink:href="src/components/git-info/useLatestCommit.ts" xlink:title="useLatestCommit.ts">
<path fill="#ddfeff" stroke="#000000" d="M834,-695.6632C834,-695.6632 739,-695.6632 739,-695.6632 736,-695.6632 733,-692.6632 733,-689.6632 733,-689.6632 733,-683.6632 733,-683.6632 733,-680.6632 736,-677.6632 739,-677.6632 739,-677.6632 834,-677.6632 834,-677.6632 837,-677.6632 840,-680.6632 840,-683.6632 840,-683.6632 840,-689.6632 840,-689.6632 840,-692.6632 837,-695.6632 834,-695.6632"/>
<text text-anchor="middle" x="786.5" y="-684.4632" font-family="Helvetica,sans-Serif" font-size="9.00" fill="#000000">useLatestCommit.ts</text>
</a>
</g>
</g>
<!-- src/components/git&#45;info/index.tsx&#45;&gt;src/components/git&#45;info/useLatestCommit.ts -->
<g id="edge13" class="edge">
<title>src/components/git&#45;info/index.tsx&#45;&gt;src/components/git&#45;info/useLatestCommit.ts</title>
<path fill="none" stroke="#000000" stroke-width="2" stroke-opacity="0.200000" d="M685.6745,-686.6632C697.858,-686.6632 712.4835,-686.6632 726.7676,-686.6632"/>
<polygon fill="#000000" fill-opacity="0.200000" stroke="#000000" stroke-width="2" stroke-opacity="0.200000" points="726.8603,-688.7633 732.8603,-686.6632 726.8602,-684.5633 726.8603,-688.7633"/>
</g>
<!-- src/components/git&#45;info/useLatestCommit.ts&#45;&gt;src/utils/panic.ts -->
<g id="edge14" class="edge">
<title>src/components/git&#45;info/useLatestCommit.ts&#45;&gt;src/utils/panic.ts</title>
<path fill="none" stroke="#000000" stroke-width="2" stroke-opacity="0.200000" d="M790.4512,-695.9293C801.8215,-723.0869 834.6592,-805.0865 848,-876.6632 850.9362,-892.4165 844.3588,-1009.6508 856,-1020.6632 894.0985,-1056.7038 933.6114,-1054.1173 974,-1020.6632 1104.0263,-912.9614 1125.8182,-320.5997 1128.6345,-217.8548"/>
<polygon fill="#000000" fill-opacity="0.200000" stroke="#000000" stroke-width="2" stroke-opacity="0.200000" points="1130.7351,-217.8588 1128.7936,-211.8056 1126.5365,-217.7483 1130.7351,-217.8588"/>
</g>
<!-- src/components/layout/breadcrumbs.tsx -->
<g id="node26" class="node">
<title>src/components/layout/breadcrumbs.tsx</title>
<g id="a_node26"><a xlink:href="src/components/layout/breadcrumbs.tsx" xlink:title="breadcrumbs.tsx">
<path fill="#bbfeff" stroke="#000000" d="M827.5,-605.6632C827.5,-605.6632 745.5,-605.6632 745.5,-605.6632 742.5,-605.6632 739.5,-602.6632 739.5,-599.6632 739.5,-599.6632 739.5,-593.6632 739.5,-593.6632 739.5,-590.6632 742.5,-587.6632 745.5,-587.6632 745.5,-587.6632 827.5,-587.6632 827.5,-587.6632 830.5,-587.6632 833.5,-590.6632 833.5,-593.6632 833.5,-593.6632 833.5,-599.6632 833.5,-599.6632 833.5,-602.6632 830.5,-605.6632 827.5,-605.6632"/>
<text text-anchor="middle" x="786.5" y="-594.4632" font-family="Helvetica,sans-Serif" font-size="9.00" fill="#000000">breadcrumbs.tsx</text>
</a>
</g>
</g>
<!-- src/components/layout/breadcrumbs.tsx&#45;&gt;src/utils/asserts&#45;non&#45;null.ts -->
<g id="edge16" class="edge">
<title>src/components/layout/breadcrumbs.tsx&#45;&gt;src/utils/asserts&#45;non&#45;null.ts</title>
<path fill="none" stroke="#000000" stroke-width="2" stroke-opacity="0.200000" d="M833.8991,-589.3642C877.5585,-579.9927 940.487,-559.2539 974,-514.6632 1010.2677,-466.4071 1032.2851,-273.8619 1038.0052,-217.9557"/>
<polygon fill="#000000" fill-opacity="0.200000" stroke="#000000" stroke-width="2" stroke-opacity="0.200000" points="1040.1098,-218.0144 1038.6218,-211.8341 1035.9309,-217.5934 1040.1098,-218.0144"/>
</g>
<!-- src/hooks/use&#45;site.ts -->
<g id="node27" class="node">
<title>src/hooks/use&#45;site.ts</title>
<g id="a_node27"><a xlink:href="src/hooks/use-site.ts" xlink:title="use&#45;site.ts">
<path fill="#ddfeff" stroke="#000000" d="M936,-991.6632C936,-991.6632 886,-991.6632 886,-991.6632 883,-991.6632 880,-988.6632 880,-985.6632 880,-985.6632 880,-979.6632 880,-979.6632 880,-976.6632 883,-973.6632 886,-973.6632 886,-973.6632 936,-973.6632 936,-973.6632 939,-973.6632 942,-976.6632 942,-979.6632 942,-979.6632 942,-985.6632 942,-985.6632 942,-988.6632 939,-991.6632 936,-991.6632"/>
<text text-anchor="middle" x="911" y="-980.4632" font-family="Helvetica,sans-Serif" font-size="9.00" fill="#000000">use&#45;site.ts</text>
</a>
</g>
</g>
<!-- src/components/layout/breadcrumbs.tsx&#45;&gt;src/hooks/use&#45;site.ts -->
<g id="edge15" class="edge">
<title>src/components/layout/breadcrumbs.tsx&#45;&gt;src/hooks/use&#45;site.ts</title>
<path fill="none" stroke="#000000" stroke-width="2" stroke-opacity="0.200000" d="M833.6947,-601.9601C839.068,-604.2604 844.0301,-607.4008 848,-611.6632 897.4061,-664.7091 908.4969,-904.5704 910.5744,-967.5042"/>
<polygon fill="#000000" fill-opacity="0.200000" stroke="#000000" stroke-width="2" stroke-opacity="0.200000" points="908.4804,-967.7299 910.767,-973.6613 912.6783,-967.5985 908.4804,-967.7299"/>
</g>
<!-- src/components/styles/styles.ts -->
<g id="node28" class="node">
<title>src/components/styles/styles.ts</title>
<g id="a_node28"><a xlink:href="src/components/styles/styles.ts" xlink:title="styles.ts">
<path fill="#ddfeff" stroke="#000000" d="M932,-485.6632C932,-485.6632 890,-485.6632 890,-485.6632 887,-485.6632 884,-482.6632 884,-479.6632 884,-479.6632 884,-473.6632 884,-473.6632 884,-470.6632 887,-467.6632 890,-467.6632 890,-467.6632 932,-467.6632 932,-467.6632 935,-467.6632 938,-470.6632 938,-473.6632 938,-473.6632 938,-479.6632 938,-479.6632 938,-482.6632 935,-485.6632 932,-485.6632"/>
<text text-anchor="middle" x="911" y="-474.4632" font-family="Helvetica,sans-Serif" font-size="9.00" fill="#000000">styles.ts</text>
</a>
</g>
</g>
<!-- src/components/layout/breadcrumbs.tsx&#45;&gt;src/components/styles/styles.ts -->
<g id="edge17" class="edge">
<title>src/components/layout/breadcrumbs.tsx&#45;&gt;src/components/styles/styles.ts</title>
<path fill="none" stroke="#000000" stroke-width="2" stroke-opacity="0.200000" d="M833.5346,-590.7764C838.8669,-588.5633 843.8616,-585.6043 848,-581.6632 857.0633,-573.0319 850.5436,-565.9268 856,-554.6632 867.6821,-530.5475 886.5532,-505.7734 898.8685,-490.7964"/>
<polygon fill="#000000" fill-opacity="0.200000" stroke="#000000" stroke-width="2" stroke-opacity="0.200000" points="900.5473,-492.0621 902.7739,-486.1079 897.3202,-489.374 900.5473,-492.0621"/>
</g>
<!-- src/hooks/use&#45;site.ts&#45;&gt;src/utils/asserts&#45;non&#45;null.ts -->
<g id="edge32" class="edge">
<title>src/hooks/use&#45;site.ts&#45;&gt;src/utils/asserts&#45;non&#45;null.ts</title>
<path fill="none" stroke="#000000" stroke-width="2" stroke-opacity="0.200000" d="M912.4876,-973.6337C925.5312,-894.458 1020.348,-318.9166 1037.005,-217.808"/>
<polygon fill="#000000" fill-opacity="0.200000" stroke="#000000" stroke-width="2" stroke-opacity="0.200000" points="1039.0841,-218.1061 1037.9874,-211.8445 1034.94,-217.4233 1039.0841,-218.1061"/>
</g>
<!-- src/components/layout/footer.tsx -->
<g id="node29" class="node">
<title>src/components/layout/footer.tsx</title>
<g id="a_node29"><a xlink:href="src/components/layout/footer.tsx" xlink:title="footer.tsx">
<path fill="#bbfeff" stroke="#000000" d="M810,-635.6632C810,-635.6632 763,-635.6632 763,-635.6632 760,-635.6632 757,-632.6632 757,-629.6632 757,-629.6632 757,-623.6632 757,-623.6632 757,-620.6632 760,-617.6632 763,-617.6632 763,-617.6632 810,-617.6632 810,-617.6632 813,-617.6632 816,-620.6632 816,-623.6632 816,-623.6632 816,-629.6632 816,-629.6632 816,-632.6632 813,-635.6632 810,-635.6632"/>
<text text-anchor="middle" x="786.5" y="-624.4632" font-family="Helvetica,sans-Serif" font-size="9.00" fill="#000000">footer.tsx</text>
</a>
</g>
</g>
<!-- src/components/layout/footer.tsx&#45;&gt;src/hooks/use&#45;site.ts -->
<g id="edge18" class="edge">
<title>src/components/layout/footer.tsx&#45;&gt;src/hooks/use&#45;site.ts</title>
<path fill="none" stroke="#000000" stroke-width="2" stroke-opacity="0.200000" d="M808.8689,-635.7793C822.2701,-642.3901 838.4986,-652.6388 848,-666.6632 882.2214,-717.1749 903.8646,-911.0359 909.5188,-967.282"/>
<polygon fill="#000000" fill-opacity="0.200000" stroke="#000000" stroke-width="2" stroke-opacity="0.200000" points="907.4475,-967.6765 910.1288,-973.4402 911.627,-967.2624 907.4475,-967.6765"/>
</g>
<!-- src/components/layout/header.tsx -->
<g id="node30" class="node">
<title>src/components/layout/header.tsx</title>
<g id="a_node30"><a xlink:href="src/components/layout/header.tsx" xlink:title="header.tsx">
<path fill="#bbfeff" stroke="#000000" d="M812.5,-575.6632C812.5,-575.6632 760.5,-575.6632 760.5,-575.6632 757.5,-575.6632 754.5,-572.6632 754.5,-569.6632 754.5,-569.6632 754.5,-563.6632 754.5,-563.6632 754.5,-560.6632 757.5,-557.6632 760.5,-557.6632 760.5,-557.6632 812.5,-557.6632 812.5,-557.6632 815.5,-557.6632 818.5,-560.6632 818.5,-563.6632 818.5,-563.6632 818.5,-569.6632 818.5,-569.6632 818.5,-572.6632 815.5,-575.6632 812.5,-575.6632"/>
<text text-anchor="middle" x="786.5" y="-564.4632" font-family="Helvetica,sans-Serif" font-size="9.00" fill="#000000">header.tsx</text>
</a>
</g>
</g>
<!-- src/components/layout/header.tsx&#45;&gt;src/components/atoms/anchor&#45;or&#45;link.tsx -->
<g id="edge19" class="edge">
<title>src/components/layout/header.tsx&#45;&gt;src/components/atoms/anchor&#45;or&#45;link.tsx</title>
<path fill="none" stroke="#000000" stroke-width="2" stroke-opacity="0.200000" d="M818.7683,-566.3155C829.679,-564.4685 840.8871,-560.3273 848,-551.6632 861.0552,-535.7608 846.2697,-384.7916 856,-366.6632 862.43,-354.6834 874.2043,-345.3875 885.2137,-338.7849"/>
<polygon fill="#000000" fill-opacity="0.200000" stroke="#000000" stroke-width="2" stroke-opacity="0.200000" points="886.3536,-340.5525 890.5301,-335.7601 884.2766,-336.902 886.3536,-340.5525"/>
</g>
<!-- src/components/layout/header.tsx&#45;&gt;src/components/styles/styles.ts -->
<g id="edge20" class="edge">
<title>src/components/layout/header.tsx&#45;&gt;src/components/styles/styles.ts</title>
<path fill="none" stroke="#000000" stroke-width="2" stroke-opacity="0.200000" d="M818.6703,-562.7922C828.6006,-560.5828 839.2237,-557.1128 848,-551.6632 872.5307,-536.4307 892.2369,-508.4081 902.7261,-491.2646"/>
<polygon fill="#000000" fill-opacity="0.200000" stroke="#000000" stroke-width="2" stroke-opacity="0.200000" points="904.6545,-492.1309 905.9236,-485.9019 901.047,-489.9799 904.6545,-492.1309"/>
</g>
<!-- src/components/layout/index.tsx&#45;&gt;src/components/layout/breadcrumbs.tsx -->
<g id="edge22" class="edge">
<title>src/components/layout/index.tsx&#45;&gt;src/components/layout/breadcrumbs.tsx</title>
<path fill="none" stroke="#000000" stroke-width="2" stroke-opacity="0.200000" d="M669.4911,-545.7225C684.2867,-555.6963 709.4661,-571.6427 733,-581.6632 736.4364,-583.1263 740.0572,-584.4901 743.7279,-585.7509"/>
<polygon fill="#000000" fill-opacity="0.200000" stroke="#000000" stroke-width="2" stroke-opacity="0.200000" points="743.1623,-587.7754 749.518,-587.6471 744.4695,-583.784 743.1623,-587.7754"/>
</g>
<!-- src/components/layout/index.tsx&#45;&gt;src/components/layout/footer.tsx -->
<g id="edge23" class="edge">
<title>src/components/layout/index.tsx&#45;&gt;src/components/layout/footer.tsx</title>
<path fill="none" stroke="#000000" stroke-width="2" stroke-opacity="0.200000" d="M663.2244,-545.7689C675.3755,-561.5704 702.5715,-594.0616 733,-611.6632 738.4484,-614.8148 744.595,-617.3343 750.73,-619.3392"/>
<polygon fill="#000000" fill-opacity="0.200000" stroke="#000000" stroke-width="2" stroke-opacity="0.200000" points="750.4841,-621.4582 756.8348,-621.1769 751.6948,-617.4365 750.4841,-621.4582"/>
</g>
<!-- src/components/layout/index.tsx&#45;&gt;src/components/layout/header.tsx -->
<g id="edge24" class="edge">
<title>src/components/layout/index.tsx&#45;&gt;src/components/layout/header.tsx</title>
<path fill="none" stroke="#000000" stroke-width="2" stroke-opacity="0.200000" d="M685.6745,-543.3957C704.1275,-547.6541 728.1826,-553.2053 748.1684,-557.8174"/>
<polygon fill="#000000" fill-opacity="0.200000" stroke="#000000" stroke-width="2" stroke-opacity="0.200000" points="747.9109,-559.9131 754.2295,-559.2161 748.8554,-555.8207 747.9109,-559.9131"/>
</g>
<!-- src/components/styles/global.ts -->
<g id="node32" class="node">
<title>src/components/styles/global.ts</title>
<g id="a_node32"><a xlink:href="src/components/styles/global.ts" xlink:title="global.ts">
<path fill="#ddfeff" stroke="#000000" d="M808,-485.6632C808,-485.6632 765,-485.6632 765,-485.6632 762,-485.6632 759,-482.6632 759,-479.6632 759,-479.6632 759,-473.6632 759,-473.6632 759,-470.6632 762,-467.6632 765,-467.6632 765,-467.6632 808,-467.6632 808,-467.6632 811,-467.6632 814,-470.6632 814,-473.6632 814,-473.6632 814,-479.6632 814,-479.6632 814,-482.6632 811,-485.6632 808,-485.6632"/>
<text text-anchor="middle" x="786.5" y="-474.4632" font-family="Helvetica,sans-Serif" font-size="9.00" fill="#000000">global.ts</text>
</a>
</g>
</g>
<!-- src/components/layout/index.tsx&#45;&gt;src/components/styles/global.ts -->
<g id="edge21" class="edge">
<title>src/components/layout/index.tsx&#45;&gt;src/components/styles/global.ts</title>
<path fill="none" stroke="#000000" stroke-width="2" stroke-opacity="0.200000" d="M676.2442,-527.5505C698.9964,-517.0494 736.4348,-499.7702 761.2779,-488.3041"/>
<polygon fill="#000000" fill-opacity="0.200000" stroke="#000000" stroke-width="2" stroke-opacity="0.200000" points="762.4282,-490.0862 766.9959,-485.665 760.6681,-486.2727 762.4282,-490.0862"/>
</g>
<!-- src/components/layout/title.tsx -->
<g id="node33" class="node">
<title>src/components/layout/title.tsx</title>
<g id="a_node33"><a xlink:href="src/components/layout/title.tsx" xlink:title="title.tsx">
<path fill="#bbfeff" stroke="#000000" d="M807.5,-545.6632C807.5,-545.6632 765.5,-545.6632 765.5,-545.6632 762.5,-545.6632 759.5,-542.6632 759.5,-539.6632 759.5,-539.6632 759.5,-533.6632 759.5,-533.6632 759.5,-530.6632 762.5,-527.6632 765.5,-527.6632 765.5,-527.6632 807.5,-527.6632 807.5,-527.6632 810.5,-527.6632 813.5,-530.6632 813.5,-533.6632 813.5,-533.6632 813.5,-539.6632 813.5,-539.6632 813.5,-542.6632 810.5,-545.6632 807.5,-545.6632"/>
<text text-anchor="middle" x="786.5" y="-534.4632" font-family="Helvetica,sans-Serif" font-size="9.00" fill="#000000">title.tsx</text>
</a>
</g>
</g>
<!-- src/components/layout/index.tsx&#45;&gt;src/components/layout/title.tsx -->
<g id="edge25" class="edge">
<title>src/components/layout/index.tsx&#45;&gt;src/components/layout/title.tsx</title>
<path fill="none" stroke="#000000" stroke-width="2" stroke-opacity="0.200000" d="M685.6745,-536.6632C705.6201,-536.6632 732.1105,-536.6632 752.9329,-536.6632"/>
<polygon fill="#000000" fill-opacity="0.200000" stroke="#000000" stroke-width="2" stroke-opacity="0.200000" points="753.1995,-538.7633 759.1995,-536.6632 753.1994,-534.5633 753.1995,-538.7633"/>
</g>
<!-- src/components/styles/global.ts&#45;&gt;src/components/styles/styles.ts -->
<g id="edge31" class="edge">
<title>src/components/styles/global.ts&#45;&gt;src/components/styles/styles.ts</title>
<path fill="none" stroke="#000000" stroke-width="2" stroke-opacity="0.200000" d="M814.1306,-476.6632C832.8768,-476.6632 857.7648,-476.6632 877.6196,-476.6632"/>
<polygon fill="#000000" fill-opacity="0.200000" stroke="#000000" stroke-width="2" stroke-opacity="0.200000" points="877.875,-478.7633 883.875,-476.6632 877.875,-474.5633 877.875,-478.7633"/>
</g>
<!-- src/components/styles/prism&#45;styles.ts -->
<g id="node37" class="node">
<title>src/components/styles/prism&#45;styles.ts</title>
<g id="a_node37"><a xlink:href="src/components/styles/prism-styles.ts" xlink:title="prism&#45;styles.ts">
<path fill="#ddfeff" stroke="#000000" d="M946,-455.6632C946,-455.6632 876,-455.6632 876,-455.6632 873,-455.6632 870,-452.6632 870,-449.6632 870,-449.6632 870,-443.6632 870,-443.6632 870,-440.6632 873,-437.6632 876,-437.6632 876,-437.6632 946,-437.6632 946,-437.6632 949,-437.6632 952,-440.6632 952,-443.6632 952,-443.6632 952,-449.6632 952,-449.6632 952,-452.6632 949,-455.6632 946,-455.6632"/>
<text text-anchor="middle" x="911" y="-444.4632" font-family="Helvetica,sans-Serif" font-size="9.00" fill="#000000">prism&#45;styles.ts</text>
</a>
</g>
</g>
<!-- src/components/styles/global.ts&#45;&gt;src/components/styles/prism&#45;styles.ts -->
<g id="edge30" class="edge">
<title>src/components/styles/global.ts&#45;&gt;src/components/styles/prism&#45;styles.ts</title>
<path fill="none" stroke="#000000" stroke-width="2" stroke-opacity="0.200000" d="M814.1306,-470.0052C829.835,-466.221 849.8497,-461.3982 867.6047,-457.1199"/>
<polygon fill="#000000" fill-opacity="0.200000" stroke="#000000" stroke-width="2" stroke-opacity="0.200000" points="868.1888,-459.1393 873.5298,-455.6921 867.2048,-455.0562 868.1888,-459.1393"/>
</g>
<!-- src/components/post&#45;link/post&#45;date.tsx -->
<g id="node34" class="node">
<title>src/components/post&#45;link/post&#45;date.tsx</title>
<g id="a_node34"><a xlink:href="src/components/post-link/post-date.tsx" xlink:title="post&#45;date.tsx">
<path fill="#bbfeff" stroke="#000000" d="M943,-395.6632C943,-395.6632 879,-395.6632 879,-395.6632 876,-395.6632 873,-392.6632 873,-389.6632 873,-389.6632 873,-383.6632 873,-383.6632 873,-380.6632 876,-377.6632 879,-377.6632 879,-377.6632 943,-377.6632 943,-377.6632 946,-377.6632 949,-380.6632 949,-383.6632 949,-383.6632 949,-389.6632 949,-389.6632 949,-392.6632 946,-395.6632 943,-395.6632"/>
<text text-anchor="middle" x="911" y="-384.4632" font-family="Helvetica,sans-Serif" font-size="9.00" fill="#000000">post&#45;date.tsx</text>
</a>
</g>
</g>
<!-- src/components/post&#45;link/post&#45;link.tsx -->
<g id="node35" class="node">
<title>src/components/post&#45;link/post&#45;link.tsx</title>
<g id="a_node35"><a xlink:href="src/components/post-link/post-link.tsx" xlink:title="post&#45;link.tsx">
<path fill="#bbfeff" stroke="#000000" d="M816,-395.6632C816,-395.6632 757,-395.6632 757,-395.6632 754,-395.6632 751,-392.6632 751,-389.6632 751,-389.6632 751,-383.6632 751,-383.6632 751,-380.6632 754,-377.6632 757,-377.6632 757,-377.6632 816,-377.6632 816,-377.6632 819,-377.6632 822,-380.6632 822,-383.6632 822,-383.6632 822,-389.6632 822,-389.6632 822,-392.6632 819,-395.6632 816,-395.6632"/>
<text text-anchor="middle" x="786.5" y="-384.4632" font-family="Helvetica,sans-Serif" font-size="9.00" fill="#000000">post&#45;link.tsx</text>
</a>
</g>
</g>
<!-- src/components/post&#45;link/post&#45;link.tsx&#45;&gt;src/components/atoms/tag&#45;list.tsx -->
<g id="edge26" class="edge">
<title>src/components/post&#45;link/post&#45;link.tsx&#45;&gt;src/components/atoms/tag&#45;list.tsx</title>
<path fill="none" stroke="#000000" stroke-width="2" stroke-opacity="0.200000" d="M792.3936,-377.5137C803.0993,-361.6447 827.3069,-329.0523 856,-311.6632 861.2055,-308.5084 867.0842,-306.0037 873.0121,-304.0189"/>
<polygon fill="#000000" fill-opacity="0.200000" stroke="#000000" stroke-width="2" stroke-opacity="0.200000" points="873.813,-305.9698 878.9333,-302.2024 872.5812,-301.9545 873.813,-305.9698"/>
</g>
<!-- src/components/post&#45;link/post&#45;link.tsx&#45;&gt;src/components/styles/styles.ts -->
<g id="edge27" class="edge">
<title>src/components/post&#45;link/post&#45;link.tsx&#45;&gt;src/components/styles/styles.ts</title>
<path fill="none" stroke="#000000" stroke-width="2" stroke-opacity="0.200000" d="M808.4334,-395.7228C821.8385,-402.3649 838.2308,-412.6684 848,-426.6632 857.1335,-439.7473 844.9537,-450.1481 856,-461.6632 861.7875,-467.6962 869.7436,-471.381 877.8073,-473.6104"/>
<polygon fill="#000000" fill-opacity="0.200000" stroke="#000000" stroke-width="2" stroke-opacity="0.200000" points="877.6401,-475.7278 883.9603,-475.0464 878.5946,-471.6377 877.6401,-475.7278"/>
</g>
<!-- src/components/post&#45;link/post&#45;link.tsx&#45;&gt;src/components/post&#45;link/post&#45;date.tsx -->
<g id="edge28" class="edge">
<title>src/components/post&#45;link/post&#45;link.tsx&#45;&gt;src/components/post&#45;link/post&#45;date.tsx</title>
<path fill="none" stroke="#000000" stroke-width="2" stroke-opacity="0.200000" d="M822.1767,-386.6632C836.0087,-386.6632 851.9956,-386.6632 866.5617,-386.6632"/>
<polygon fill="#000000" fill-opacity="0.200000" stroke="#000000" stroke-width="2" stroke-opacity="0.200000" points="866.707,-388.7633 872.707,-386.6632 866.7069,-384.5633 866.707,-388.7633"/>
</g>
<!-- src/components/post&#45;link/post&#45;list.tsx -->
<g id="node36" class="node">
<title>src/components/post&#45;link/post&#45;list.tsx</title>
<g id="a_node36"><a xlink:href="src/components/post-link/post-list.tsx" xlink:title="post&#45;list.tsx">
<path fill="#bbfeff" stroke="#000000" d="M684.5,-395.6632C684.5,-395.6632 628.5,-395.6632 628.5,-395.6632 625.5,-395.6632 622.5,-392.6632 622.5,-389.6632 622.5,-389.6632 622.5,-383.6632 622.5,-383.6632 622.5,-380.6632 625.5,-377.6632 628.5,-377.6632 628.5,-377.6632 684.5,-377.6632 684.5,-377.6632 687.5,-377.6632 690.5,-380.6632 690.5,-383.6632 690.5,-383.6632 690.5,-389.6632 690.5,-389.6632 690.5,-392.6632 687.5,-395.6632 684.5,-395.6632"/>
<text text-anchor="middle" x="656.5" y="-384.4632" font-family="Helvetica,sans-Serif" font-size="9.00" fill="#000000">post&#45;list.tsx</text>
</a>
</g>
</g>
<!-- src/components/post&#45;link/post&#45;list.tsx&#45;&gt;src/components/post&#45;link/post&#45;link.tsx -->
<g id="edge29" class="edge">
<title>src/components/post&#45;link/post&#45;list.tsx&#45;&gt;src/components/post&#45;link/post&#45;link.tsx</title>
<path fill="none" stroke="#000000" stroke-width="2" stroke-opacity="0.200000" d="M690.656,-386.6632C707.138,-386.6632 727.0644,-386.6632 744.4694,-386.6632"/>
<polygon fill="#000000" fill-opacity="0.200000" stroke="#000000" stroke-width="2" stroke-opacity="0.200000" points="744.7566,-388.7633 750.7566,-386.6632 744.7565,-384.5633 744.7566,-388.7633"/>
</g>
<!-- src/components/styles/mediaQueries.ts -->
<g id="node38" class="node">
<title>src/components/styles/mediaQueries.ts</title>
<g id="a_node38"><a xlink:href="src/components/styles/mediaQueries.ts" xlink:title="mediaQueries.ts">
<path fill="#ccffcc" stroke="#000000" d="M825,-455.6632C825,-455.6632 748,-455.6632 748,-455.6632 745,-455.6632 742,-452.6632 742,-449.6632 742,-449.6632 742,-443.6632 742,-443.6632 742,-440.6632 745,-437.6632 748,-437.6632 748,-437.6632 825,-437.6632 825,-437.6632 828,-437.6632 831,-440.6632 831,-443.6632 831,-443.6632 831,-449.6632 831,-449.6632 831,-452.6632 828,-455.6632 825,-455.6632"/>
<text text-anchor="middle" x="786.5" y="-444.4632" font-family="Helvetica,sans-Serif" font-size="9.00" fill="#000000">mediaQueries.ts</text>
</a>
</g>
</g>
<!-- src/pages/404.tsx -->
<g id="node40" class="node">
<title>src/pages/404.tsx</title>
<g id="a_node40"><a xlink:href="src/pages/404.tsx" xlink:title="404.tsx">
<path fill="#bbfeff" stroke="#000000" d="M538.5,-501.6632C538.5,-501.6632 496.5,-501.6632 496.5,-501.6632 493.5,-501.6632 490.5,-498.6632 490.5,-495.6632 490.5,-495.6632 490.5,-489.6632 490.5,-489.6632 490.5,-486.6632 493.5,-483.6632 496.5,-483.6632 496.5,-483.6632 538.5,-483.6632 538.5,-483.6632 541.5,-483.6632 544.5,-486.6632 544.5,-489.6632 544.5,-489.6632 544.5,-495.6632 544.5,-495.6632 544.5,-498.6632 541.5,-501.6632 538.5,-501.6632"/>
<text text-anchor="middle" x="517.5" y="-490.4632" font-family="Helvetica,sans-Serif" font-size="9.00" fill="#000000">404.tsx</text>
</a>
</g>
</g>
<!-- src/pages/404.tsx&#45;&gt;src/components/layout/index.tsx -->
<g id="edge33" class="edge">
<title>src/pages/404.tsx&#45;&gt;src/components/layout/index.tsx</title>
<path fill="none" stroke="#000000" stroke-width="2" stroke-opacity="0.200000" d="M544.6306,-501.2513C566.7723,-508.2601 598.1917,-518.2058 622.0984,-525.7735"/>
<polygon fill="#000000" fill-opacity="0.200000" stroke="#000000" stroke-width="2" stroke-opacity="0.200000" points="621.6503,-527.8342 628.0043,-527.643 622.9179,-523.8301 621.6503,-527.8342"/>
</g>
<!-- src/pages/index.tsx -->
<g id="node41" class="node">
<title>src/pages/index.tsx</title>
<g id="a_node41"><a xlink:href="src/pages/index.tsx" xlink:title="index.tsx">
<path fill="#bbfeff" stroke="#000000" d="M540.5,-441.6632C540.5,-441.6632 494.5,-441.6632 494.5,-441.6632 491.5,-441.6632 488.5,-438.6632 488.5,-435.6632 488.5,-435.6632 488.5,-429.6632 488.5,-429.6632 488.5,-426.6632 491.5,-423.6632 494.5,-423.6632 494.5,-423.6632 540.5,-423.6632 540.5,-423.6632 543.5,-423.6632 546.5,-426.6632 546.5,-429.6632 546.5,-429.6632 546.5,-435.6632 546.5,-435.6632 546.5,-438.6632 543.5,-441.6632 540.5,-441.6632"/>
<text text-anchor="middle" x="517.5" y="-430.4632" font-family="Helvetica,sans-Serif" font-size="9.00" fill="#000000">index.tsx</text>
</a>
</g>
</g>
<!-- src/pages/index.tsx&#45;&gt;src/components/layout/index.tsx -->
<g id="edge34" class="edge">
<title>src/pages/index.tsx&#45;&gt;src/components/layout/index.tsx</title>
<path fill="none" stroke="#000000" stroke-width="2" stroke-opacity="0.200000" d="M546.5842,-436.82C554.7601,-439.0392 563.2521,-442.4429 570,-447.6632 588.3581,-461.8652 580.9333,-475.4471 596.5,-492.6632 607.795,-505.1549 623.1472,-516.3351 635.4947,-524.2998"/>
<polygon fill="#000000" fill-opacity="0.200000" stroke="#000000" stroke-width="2" stroke-opacity="0.200000" points="634.3871,-526.084 640.5819,-527.5108 636.629,-522.5323 634.3871,-526.084"/>
</g>
<!-- src/pages/index.tsx&#45;&gt;src/components/post&#45;link/post&#45;list.tsx -->
<g id="edge35" class="edge">
<title>src/pages/index.tsx&#45;&gt;src/components/post&#45;link/post&#45;list.tsx</title>
<path fill="none" stroke="#000000" stroke-width="2" stroke-opacity="0.200000" d="M544.9619,-423.575C567.4267,-416.1406 599.2779,-405.6 623.1958,-397.6847"/>
<polygon fill="#000000" fill-opacity="0.200000" stroke="#000000" stroke-width="2" stroke-opacity="0.200000" points="624.0587,-399.6112 629.0951,-395.7324 622.7391,-395.6239 624.0587,-399.6112"/>
</g>
<!-- src/pages/tags.tsx -->
<g id="node42" class="node">
<title>src/pages/tags.tsx</title>
<g id="a_node42"><a xlink:href="src/pages/tags.tsx" xlink:title="tags.tsx">
<path fill="#bbfeff" stroke="#000000" d="M538.5,-471.6632C538.5,-471.6632 496.5,-471.6632 496.5,-471.6632 493.5,-471.6632 490.5,-468.6632 490.5,-465.6632 490.5,-465.6632 490.5,-459.6632 490.5,-459.6632 490.5,-456.6632 493.5,-453.6632 496.5,-453.6632 496.5,-453.6632 538.5,-453.6632 538.5,-453.6632 541.5,-453.6632 544.5,-456.6632 544.5,-459.6632 544.5,-459.6632 544.5,-465.6632 544.5,-465.6632 544.5,-468.6632 541.5,-471.6632 538.5,-471.6632"/>
<text text-anchor="middle" x="517.5" y="-460.4632" font-family="Helvetica,sans-Serif" font-size="9.00" fill="#000000">tags.tsx</text>
</a>
</g>
</g>
<!-- src/pages/tags.tsx&#45;&gt;src/components/article/index.tsx -->
<g id="edge36" class="edge">
<title>src/pages/tags.tsx&#45;&gt;src/components/article/index.tsx</title>
<path fill="none" stroke="#000000" stroke-width="2" stroke-opacity="0.200000" d="M544.7673,-464.1943C554.1667,-466.157 563.8639,-470.0686 570,-477.6632 625.5677,-546.4387 543.4842,-803.9018 596.5,-874.6632 602.56,-882.7515 611.9044,-887.8693 621.4284,-891.1063"/>
<polygon fill="#000000" fill-opacity="0.200000" stroke="#000000" stroke-width="2" stroke-opacity="0.200000" points="621.0034,-893.1714 627.354,-892.8886 622.2131,-889.1493 621.0034,-893.1714"/>
</g>
<!-- src/pages/tags.tsx&#45;&gt;src/components/layout/index.tsx -->
<g id="edge37" class="edge">
<title>src/pages/tags.tsx&#45;&gt;src/components/layout/index.tsx</title>
<path fill="none" stroke="#000000" stroke-width="2" stroke-opacity="0.200000" d="M544.5404,-468.6108C552.907,-470.9176 562.0181,-473.9206 570,-477.6632 584.1107,-484.2795 618.1253,-508.5019 639.0501,-523.7769"/>
<polygon fill="#000000" fill-opacity="0.200000" stroke="#000000" stroke-width="2" stroke-opacity="0.200000" points="637.9863,-525.6008 644.0679,-527.4515 640.4678,-522.2122 637.9863,-525.6008"/>
</g>
<!-- src/pages/tags.tsx&#45;&gt;src/components/post&#45;link/post&#45;list.tsx -->
<g id="edge38" class="edge">
<title>src/pages/tags.tsx&#45;&gt;src/components/post&#45;link/post&#45;list.tsx</title>
<path fill="none" stroke="#000000" stroke-width="2" stroke-opacity="0.200000" d="M544.5763,-456.7912C552.9445,-454.4879 562.0476,-451.4679 570,-447.6632 597.0402,-434.7259 624.7418,-413.5081 641.2827,-399.8155"/>
<polygon fill="#000000" fill-opacity="0.200000" stroke="#000000" stroke-width="2" stroke-opacity="0.200000" points="642.7946,-401.2884 646.0447,-395.8252 640.0971,-398.0692 642.7946,-401.2884"/>
</g>
<!-- src/pages/tags.tsx&#45;&gt;src/components/table&#45;of&#45;contents/index.tsx -->
<g id="edge39" class="edge">
<title>src/pages/tags.tsx&#45;&gt;src/components/table&#45;of&#45;contents/index.tsx</title>
<path fill="none" stroke="#000000" stroke-width="2" stroke-opacity="0.200000" d="M544.6306,-461.1017C566.3883,-459.8494 597.1049,-458.0816 620.8482,-456.7151"/>
<polygon fill="#000000" fill-opacity="0.200000" stroke="#000000" stroke-width="2" stroke-opacity="0.200000" points="621.1656,-458.8004 627.035,-456.359 620.9242,-454.6073 621.1656,-458.8004"/>
</g>
<!-- src/templates/post&#45;list&#45;page.tsx&#45;&gt;src/components/layout/index.tsx -->
<g id="edge52" class="edge">
<title>src/templates/post&#45;list&#45;page.tsx&#45;&gt;src/components/layout/index.tsx</title>
<path fill="none" stroke="#000000" stroke-width="2" stroke-opacity="0.200000" d="M520.0943,-237.9312C532.8584,-283.4504 588.6916,-481.5952 596.5,-492.6632 605.9478,-506.0549 620.7683,-516.9801 633.3154,-524.5942"/>
<polygon fill="#000000" fill-opacity="0.200000" stroke="#000000" stroke-width="2" stroke-opacity="0.200000" points="632.2932,-526.4292 638.5313,-527.6523 634.4175,-522.806 632.2932,-526.4292"/>
</g>
<!-- src/templates/post&#45;list&#45;page.tsx&#45;&gt;src/components/post&#45;link/post&#45;list.tsx -->
<g id="edge53" class="edge">
<title>src/templates/post&#45;list&#45;page.tsx&#45;&gt;src/components/post&#45;link/post&#45;list.tsx</title>
<path fill="none" stroke="#000000" stroke-width="2" stroke-opacity="0.200000" d="M525.7788,-238.0736C549.3013,-264.8114 616.6168,-341.3284 644.3417,-372.8429"/>
<polygon fill="#000000" fill-opacity="0.200000" stroke="#000000" stroke-width="2" stroke-opacity="0.200000" points="642.8988,-374.3822 648.4387,-377.4999 646.0522,-371.608 642.8988,-374.3822"/>
</g>
<!-- src/templates/blog&#45;post&#45;template/article&#45;elements.tsx&#45;&gt;src/utils/asserts&#45;non&#45;null.ts -->
<g id="edge43" class="edge">
<title>src/templates/blog&#45;post&#45;template/article&#45;elements.tsx&#45;&gt;src/utils/asserts&#45;non&#45;null.ts</title>
<path fill="none" stroke="#000000" stroke-width="2" stroke-opacity="0.200000" d="M557.0764,-107.6429C569.6137,-105.1916 583.574,-102.8794 596.5,-101.6632 652.9175,-96.3545 668.065,-92.5862 724,-101.6632 843.3085,-121.0243 866.1249,-153.278 982,-187.6632 986.905,-189.1187 992.0676,-190.5732 997.2037,-191.9725"/>
<polygon fill="#000000" fill-opacity="0.200000" stroke="#000000" stroke-width="2" stroke-opacity="0.200000" points="996.8645,-194.0558 1003.204,-193.5865 997.9555,-190 996.8645,-194.0558"/>
</g>
<!-- src/templates/blog&#45;post&#45;template/article&#45;elements.tsx&#45;&gt;src/components/atoms/anchor&#45;or&#45;link.tsx -->
<g id="edge42" class="edge">
<title>src/templates/blog&#45;post&#45;template/article&#45;elements.tsx&#45;&gt;src/components/atoms/anchor&#45;or&#45;link.tsx</title>
<path fill="none" stroke="#000000" stroke-width="2" stroke-opacity="0.200000" d="M559.4599,-125.7416C563.0748,-126.9168 566.6338,-128.2211 570,-129.6632 708.4933,-188.9914 718.2138,-250.7107 856,-311.6632 859.2471,-313.0996 862.6643,-314.428 866.1401,-315.6505"/>
<polygon fill="#000000" fill-opacity="0.200000" stroke="#000000" stroke-width="2" stroke-opacity="0.200000" points="865.669,-317.7069 872.0252,-317.6081 866.9948,-313.7216 865.669,-317.7069"/>
</g>
<!-- src/templates/blog&#45;post&#45;template/autolink&#45;header.tsx -->
<g id="node45" class="node">
<title>src/templates/blog&#45;post&#45;template/autolink&#45;header.tsx</title>
<g id="a_node45"><a xlink:href="src/templates/blog-post-template/autolink-header.tsx" xlink:title="autolink&#45;header.tsx">
<path fill="#bbfeff" stroke="#000000" d="M702,-125.6632C702,-125.6632 611,-125.6632 611,-125.6632 608,-125.6632 605,-122.6632 605,-119.6632 605,-119.6632 605,-113.6632 605,-113.6632 605,-110.6632 608,-107.6632 611,-107.6632 611,-107.6632 702,-107.6632 702,-107.6632 705,-107.6632 708,-110.6632 708,-113.6632 708,-113.6632 708,-119.6632 708,-119.6632 708,-122.6632 705,-125.6632 702,-125.6632"/>
<text text-anchor="middle" x="656.5" y="-114.4632" font-family="Helvetica,sans-Serif" font-size="9.00" fill="#000000">autolink&#45;header.tsx</text>
</a>
</g>
</g>
<!-- src/templates/blog&#45;post&#45;template/article&#45;elements.tsx&#45;&gt;src/templates/blog&#45;post&#45;template/autolink&#45;header.tsx -->
<g id="edge44" class="edge">
<title>src/templates/blog&#45;post&#45;template/article&#45;elements.tsx&#45;&gt;src/templates/blog&#45;post&#45;template/autolink&#45;header.tsx</title>
<path fill="none" stroke="#000000" stroke-width="2" stroke-opacity="0.200000" d="M570.0499,-116.6632C579.3836,-116.6632 589.1516,-116.6632 598.6233,-116.6632"/>
<polygon fill="#000000" fill-opacity="0.200000" stroke="#000000" stroke-width="2" stroke-opacity="0.200000" points="598.7971,-118.7633 604.7971,-116.6632 598.7971,-114.5633 598.7971,-118.7633"/>
</g>
<!-- src/utils/proto&#45;ext.ts -->
<g id="node46" class="node">
<title>src/utils/proto&#45;ext.ts</title>
<g id="a_node46"><a xlink:href="src/utils/proto-ext.ts" xlink:title="proto&#45;ext.ts">
<path fill="#ccffcc" stroke="#000000" d="M1068,-181.6632C1068,-181.6632 1011,-181.6632 1011,-181.6632 1008,-181.6632 1005,-178.6632 1005,-175.6632 1005,-175.6632 1005,-169.6632 1005,-169.6632 1005,-166.6632 1008,-163.6632 1011,-163.6632 1011,-163.6632 1068,-163.6632 1068,-163.6632 1071,-163.6632 1074,-166.6632 1074,-169.6632 1074,-169.6632 1074,-175.6632 1074,-175.6632 1074,-178.6632 1071,-181.6632 1068,-181.6632"/>
<text text-anchor="middle" x="1039.5" y="-170.4632" font-family="Helvetica,sans-Serif" font-size="9.00" fill="#000000">proto&#45;ext.ts</text>
</a>
</g>
</g>
<!-- src/utils/react&#45;fcx.d.ts -->
<g id="node47" class="node">
<title>src/utils/react&#45;fcx.d.ts</title>
<g id="a_node47"><a xlink:href="src/utils/react-fcx.d.ts" xlink:title="react&#45;fcx.d.ts">
<path fill="#ccffcc" stroke="#000000" d="M1072,-151.6632C1072,-151.6632 1007,-151.6632 1007,-151.6632 1004,-151.6632 1001,-148.6632 1001,-145.6632 1001,-145.6632 1001,-139.6632 1001,-139.6632 1001,-136.6632 1004,-133.6632 1007,-133.6632 1007,-133.6632 1072,-133.6632 1072,-133.6632 1075,-133.6632 1078,-136.6632 1078,-139.6632 1078,-139.6632 1078,-145.6632 1078,-145.6632 1078,-148.6632 1075,-151.6632 1072,-151.6632"/>
<text text-anchor="middle" x="1039.5" y="-140.4632" font-family="Helvetica,sans-Serif" font-size="9.00" fill="#000000">react&#45;fcx.d.ts</text>
</a>
</g>
</g>
<!-- src/utils/svg.d.ts -->
<g id="node48" class="node">
<title>src/utils/svg.d.ts</title>
<g id="a_node48"><a xlink:href="src/utils/svg.d.ts" xlink:title="svg.d.ts">
<path fill="#ccffcc" stroke="#000000" d="M1060.5,-121.6632C1060.5,-121.6632 1018.5,-121.6632 1018.5,-121.6632 1015.5,-121.6632 1012.5,-118.6632 1012.5,-115.6632 1012.5,-115.6632 1012.5,-109.6632 1012.5,-109.6632 1012.5,-106.6632 1015.5,-103.6632 1018.5,-103.6632 1018.5,-103.6632 1060.5,-103.6632 1060.5,-103.6632 1063.5,-103.6632 1066.5,-106.6632 1066.5,-109.6632 1066.5,-109.6632 1066.5,-115.6632 1066.5,-115.6632 1066.5,-118.6632 1063.5,-121.6632 1060.5,-121.6632"/>
<text text-anchor="middle" x="1039.5" y="-110.4632" font-family="Helvetica,sans-Serif" font-size="9.00" fill="#000000">svg.d.ts</text>
</a>
</g>
</g>
<!-- src/utils/type&#45;utils.ts -->
<g id="node49" class="node">
<title>src/utils/type&#45;utils.ts</title>
<g id="a_node49"><a xlink:href="src/utils/type-utils.ts" xlink:title="type&#45;utils.ts">
<path fill="#ccffcc" stroke="#000000" d="M1068.5,-91.6632C1068.5,-91.6632 1010.5,-91.6632 1010.5,-91.6632 1007.5,-91.6632 1004.5,-88.6632 1004.5,-85.6632 1004.5,-85.6632 1004.5,-79.6632 1004.5,-79.6632 1004.5,-76.6632 1007.5,-73.6632 1010.5,-73.6632 1010.5,-73.6632 1068.5,-73.6632 1068.5,-73.6632 1071.5,-73.6632 1074.5,-76.6632 1074.5,-79.6632 1074.5,-79.6632 1074.5,-85.6632 1074.5,-85.6632 1074.5,-88.6632 1071.5,-91.6632 1068.5,-91.6632"/>
<text text-anchor="middle" x="1039.5" y="-80.4632" font-family="Helvetica,sans-Serif" font-size="9.00" fill="#000000">type&#45;utils.ts</text>
</a>
</g>
</g>
</g>
</svg>
