<?xml version="1.0" encoding="UTF-8" standalone="no"?>
<!DOCTYPE svg PUBLIC "-//W3C//DTD SVG 1.1//EN"
 "http://www.w3.org/Graphics/SVG/1.1/DTD/svg11.dtd">
<!-- Generated by graphviz version 2.43.0 (0)
 -->
<!-- Title: dependency&#45;cruiser output Pages: 1 -->
<svg width="1189pt" height="1342pt"
 viewBox="0.00 0.00 1189.00 1341.61" xmlns="http://www.w3.org/2000/svg" xmlns:xlink="http://www.w3.org/1999/xlink">
<g id="graph0" class="graph" transform="scale(1 1) rotate(0) translate(4 1337.61)">
<title>dependency&#45;cruiser output</title>
<polygon fill="white" stroke="transparent" points="-4,4 -4,-1337.61 1185,-1337.61 1185,4 -4,4"/>
<g id="clust1" class="cluster">
<title>cluster_gatsby</title>
<path fill="#ffffff" stroke="black" stroke-width="2" d="M115,-1149.61C115,-1149.61 427.5,-1149.61 427.5,-1149.61 433.5,-1149.61 439.5,-1155.61 439.5,-1161.61 439.5,-1161.61 439.5,-1313.61 439.5,-1313.61 439.5,-1319.61 433.5,-1325.61 427.5,-1325.61 427.5,-1325.61 115,-1325.61 115,-1325.61 109,-1325.61 103,-1319.61 103,-1313.61 103,-1313.61 103,-1161.61 103,-1161.61 103,-1155.61 109,-1149.61 115,-1149.61"/>
<text text-anchor="middle" x="271.25" y="-1314.41" font-family="Helvetica,sans-Serif" font-weight="bold" font-size="9.00">gatsby</text>
</g>
<g id="clust2" class="cluster">
<title>cluster_gatsby/browser</title>
<path fill="#ffffff" stroke="black" stroke-width="2" d="M123,-1247.61C123,-1247.61 169,-1247.61 169,-1247.61 175,-1247.61 181,-1253.61 181,-1259.61 181,-1259.61 181,-1287.61 181,-1287.61 181,-1293.61 175,-1299.61 169,-1299.61 169,-1299.61 123,-1299.61 123,-1299.61 117,-1299.61 111,-1293.61 111,-1287.61 111,-1287.61 111,-1259.61 111,-1259.61 111,-1253.61 117,-1247.61 123,-1247.61"/>
<text text-anchor="middle" x="146" y="-1288.41" font-family="Helvetica,sans-Serif" font-weight="bold" font-size="9.00">browser</text>
</g>
<g id="clust3" class="cluster">
<title>cluster_gatsby/node</title>
<path fill="#ffffff" stroke="black" stroke-width="2" d="M123,-1157.61C123,-1157.61 419.5,-1157.61 419.5,-1157.61 425.5,-1157.61 431.5,-1163.61 431.5,-1169.61 431.5,-1169.61 431.5,-1227.61 431.5,-1227.61 431.5,-1233.61 425.5,-1239.61 419.5,-1239.61 419.5,-1239.61 123,-1239.61 123,-1239.61 117,-1239.61 111,-1233.61 111,-1227.61 111,-1227.61 111,-1169.61 111,-1169.61 111,-1163.61 117,-1157.61 123,-1157.61"/>
<text text-anchor="middle" x="271.25" y="-1228.41" font-family="Helvetica,sans-Serif" font-weight="bold" font-size="9.00">node</text>
</g>
<g id="clust4" class="cluster">
<title>cluster_src</title>
<path fill="#ffffff" stroke="black" stroke-width="2" d="M305,-57.61C305,-57.61 1161,-57.61 1161,-57.61 1167,-57.61 1173,-63.61 1173,-69.61 1173,-69.61 1173,-1129.61 1173,-1129.61 1173,-1135.61 1167,-1141.61 1161,-1141.61 1161,-1141.61 305,-1141.61 305,-1141.61 299,-1141.61 293,-1135.61 293,-1129.61 293,-1129.61 293,-69.61 293,-69.61 293,-63.61 299,-57.61 305,-57.61"/>
<text text-anchor="middle" x="733" y="-1130.41" font-family="Helvetica,sans-Serif" font-weight="bold" font-size="9.00">src</text>
</g>
<g id="clust5" class="cluster">
<title>cluster_src/@types</title>
<path fill="#ffffff" stroke="black" stroke-width="2" d="M341.5,-843.61C341.5,-843.61 419.5,-843.61 419.5,-843.61 425.5,-843.61 431.5,-849.61 431.5,-855.61 431.5,-855.61 431.5,-883.61 431.5,-883.61 431.5,-889.61 425.5,-895.61 419.5,-895.61 419.5,-895.61 341.5,-895.61 341.5,-895.61 335.5,-895.61 329.5,-889.61 329.5,-883.61 329.5,-883.61 329.5,-855.61 329.5,-855.61 329.5,-849.61 335.5,-843.61 341.5,-843.61"/>
<text text-anchor="middle" x="380.5" y="-884.41" font-family="Helvetica,sans-Serif" font-weight="bold" font-size="9.00">@types</text>
</g>
<g id="clust6" class="cluster">
<title>cluster_src/components</title>
<path fill="#ffffff" stroke="black" stroke-width="2" d="M608.5,-285.61C608.5,-285.61 963,-285.61 963,-285.61 969,-285.61 975,-291.61 975,-297.61 975,-297.61 975,-1019.61 975,-1019.61 975,-1025.61 969,-1031.61 963,-1031.61 963,-1031.61 608.5,-1031.61 608.5,-1031.61 602.5,-1031.61 596.5,-1025.61 596.5,-1019.61 596.5,-1019.61 596.5,-297.61 596.5,-297.61 596.5,-291.61 602.5,-285.61 608.5,-285.61"/>
<text text-anchor="middle" x="785.75" y="-1020.41" font-family="Helvetica,sans-Serif" font-weight="bold" font-size="9.00">components</text>
</g>
<g id="clust7" class="cluster">
<title>cluster_src/components/article</title>
<path fill="#ffffff" stroke="black" stroke-width="2" d="M631.5,-953.61C631.5,-953.61 824.5,-953.61 824.5,-953.61 830.5,-953.61 836.5,-959.61 836.5,-965.61 836.5,-965.61 836.5,-993.61 836.5,-993.61 836.5,-999.61 830.5,-1005.61 824.5,-1005.61 824.5,-1005.61 631.5,-1005.61 631.5,-1005.61 625.5,-1005.61 619.5,-999.61 619.5,-993.61 619.5,-993.61 619.5,-965.61 619.5,-965.61 619.5,-959.61 625.5,-953.61 631.5,-953.61"/>
<text text-anchor="middle" x="728" y="-994.41" font-family="Helvetica,sans-Serif" font-weight="bold" font-size="9.00">article</text>
</g>
<g id="clust8" class="cluster">
<title>cluster_src/components/atoms</title>
<path fill="#ffffff" stroke="black" stroke-width="2" d="M868,-293.61C868,-293.61 955,-293.61 955,-293.61 961,-293.61 967,-299.61 967,-305.61 967,-305.61 967,-363.61 967,-363.61 967,-369.61 961,-375.61 955,-375.61 955,-375.61 868,-375.61 868,-375.61 862,-375.61 856,-369.61 856,-363.61 856,-363.61 856,-305.61 856,-305.61 856,-299.61 862,-293.61 868,-293.61"/>
<text text-anchor="middle" x="911.5" y="-364.41" font-family="Helvetica,sans-Serif" font-weight="bold" font-size="9.00">atoms</text>
</g>
<g id="clust9" class="cluster">
<title>cluster_src/components/color&#45;checker</title>
<path fill="#ffffff" stroke="black" stroke-width="2" d="M626.5,-893.61C626.5,-893.61 687.5,-893.61 687.5,-893.61 693.5,-893.61 699.5,-899.61 699.5,-905.61 699.5,-905.61 699.5,-933.61 699.5,-933.61 699.5,-939.61 693.5,-945.61 687.5,-945.61 687.5,-945.61 626.5,-945.61 626.5,-945.61 620.5,-945.61 614.5,-939.61 614.5,-933.61 614.5,-933.61 614.5,-905.61 614.5,-905.61 614.5,-899.61 620.5,-893.61 626.5,-893.61"/>
<text text-anchor="middle" x="657" y="-934.41" font-family="Helvetica,sans-Serif" font-weight="bold" font-size="9.00">color&#45;checker</text>
</g>
<g id="clust10" class="cluster">
<title>cluster_src/components/embeddeds</title>
<path fill="#ffffff" stroke="black" stroke-width="2" d="M625,-803.61C625,-803.61 688,-803.61 688,-803.61 694,-803.61 700,-809.61 700,-815.61 700,-815.61 700,-873.61 700,-873.61 700,-879.61 694,-885.61 688,-885.61 688,-885.61 625,-885.61 625,-885.61 619,-885.61 613,-879.61 613,-873.61 613,-873.61 613,-815.61 613,-815.61 613,-809.61 619,-803.61 625,-803.61"/>
<text text-anchor="middle" x="656.5" y="-874.41" font-family="Helvetica,sans-Serif" font-weight="bold" font-size="9.00">embeddeds</text>
</g>
<g id="clust11" class="cluster">
<title>cluster_src/components/git&#45;info</title>
<path fill="#ffffff" stroke="black" stroke-width="2" d="M631.5,-743.61C631.5,-743.61 836,-743.61 836,-743.61 842,-743.61 848,-749.61 848,-755.61 848,-755.61 848,-783.61 848,-783.61 848,-789.61 842,-795.61 836,-795.61 836,-795.61 631.5,-795.61 631.5,-795.61 625.5,-795.61 619.5,-789.61 619.5,-783.61 619.5,-783.61 619.5,-755.61 619.5,-755.61 619.5,-749.61 625.5,-743.61 631.5,-743.61"/>
<text text-anchor="middle" x="733.75" y="-784.41" font-family="Helvetica,sans-Serif" font-weight="bold" font-size="9.00">git&#45;info</text>
</g>
<g id="clust12" class="cluster">
<title>cluster_src/components/layout</title>
<path fill="#ffffff" stroke="black" stroke-width="2" d="M631.5,-533.61C631.5,-533.61 829.5,-533.61 829.5,-533.61 835.5,-533.61 841.5,-539.61 841.5,-545.61 841.5,-545.61 841.5,-663.61 841.5,-663.61 841.5,-669.61 835.5,-675.61 829.5,-675.61 829.5,-675.61 631.5,-675.61 631.5,-675.61 625.5,-675.61 619.5,-669.61 619.5,-663.61 619.5,-663.61 619.5,-545.61 619.5,-545.61 619.5,-539.61 625.5,-533.61 631.5,-533.61"/>
<text text-anchor="middle" x="730.5" y="-664.41" font-family="Helvetica,sans-Serif" font-weight="bold" font-size="9.00">layout</text>
</g>
<g id="clust13" class="cluster">
<title>cluster_src/components/post&#45;link</title>
<path fill="#ffffff" stroke="black" stroke-width="2" d="M626.5,-383.61C626.5,-383.61 945.5,-383.61 945.5,-383.61 951.5,-383.61 957.5,-389.61 957.5,-395.61 957.5,-395.61 957.5,-423.61 957.5,-423.61 957.5,-429.61 951.5,-435.61 945.5,-435.61 945.5,-435.61 626.5,-435.61 626.5,-435.61 620.5,-435.61 614.5,-429.61 614.5,-423.61 614.5,-423.61 614.5,-395.61 614.5,-395.61 614.5,-389.61 620.5,-383.61 626.5,-383.61"/>
<text text-anchor="middle" x="786" y="-424.41" font-family="Helvetica,sans-Serif" font-weight="bold" font-size="9.00">post&#45;link</text>
</g>
<g id="clust14" class="cluster">
<title>cluster_src/components/styles</title>
<path fill="#ffffff" stroke="black" stroke-width="2" d="M746,-443.61C746,-443.61 948.5,-443.61 948.5,-443.61 954.5,-443.61 960.5,-449.61 960.5,-455.61 960.5,-455.61 960.5,-513.61 960.5,-513.61 960.5,-519.61 954.5,-525.61 948.5,-525.61 948.5,-525.61 746,-525.61 746,-525.61 740,-525.61 734,-519.61 734,-513.61 734,-513.61 734,-455.61 734,-455.61 734,-449.61 740,-443.61 746,-443.61"/>
<text text-anchor="middle" x="847.25" y="-514.41" font-family="Helvetica,sans-Serif" font-weight="bold" font-size="9.00">styles</text>
</g>
<g id="clust15" class="cluster">
<title>cluster_src/components/table&#45;of&#45;contents</title>
<path fill="#ffffff" stroke="black" stroke-width="2" d="M616.5,-683.61C616.5,-683.61 697.5,-683.61 697.5,-683.61 703.5,-683.61 709.5,-689.61 709.5,-695.61 709.5,-695.61 709.5,-723.61 709.5,-723.61 709.5,-729.61 703.5,-735.61 697.5,-735.61 697.5,-735.61 616.5,-735.61 616.5,-735.61 610.5,-735.61 604.5,-729.61 604.5,-723.61 604.5,-723.61 604.5,-695.61 604.5,-695.61 604.5,-689.61 610.5,-683.61 616.5,-683.61"/>
<text text-anchor="middle" x="657" y="-724.41" font-family="Helvetica,sans-Serif" font-weight="bold" font-size="9.00">table&#45;of&#45;contents</text>
</g>
<g id="clust16" class="cluster">
<title>cluster_src/hooks</title>
<path fill="#ffffff" stroke="black" stroke-width="2" d="M884.5,-1039.61C884.5,-1039.61 938.5,-1039.61 938.5,-1039.61 944.5,-1039.61 950.5,-1045.61 950.5,-1051.61 950.5,-1051.61 950.5,-1079.61 950.5,-1079.61 950.5,-1085.61 944.5,-1091.61 938.5,-1091.61 938.5,-1091.61 884.5,-1091.61 884.5,-1091.61 878.5,-1091.61 872.5,-1085.61 872.5,-1079.61 872.5,-1079.61 872.5,-1051.61 872.5,-1051.61 872.5,-1045.61 878.5,-1039.61 884.5,-1039.61"/>
<text text-anchor="middle" x="911.5" y="-1080.41" font-family="Helvetica,sans-Serif" font-weight="bold" font-size="9.00">hooks</text>
</g>
<g id="clust17" class="cluster">
<title>cluster_src/pages</title>
<path fill="#ffffff" stroke="black" stroke-width="2" d="M355.5,-475.61C355.5,-475.61 405.5,-475.61 405.5,-475.61 411.5,-475.61 417.5,-481.61 417.5,-487.61 417.5,-487.61 417.5,-575.61 417.5,-575.61 417.5,-581.61 411.5,-587.61 405.5,-587.61 405.5,-587.61 355.5,-587.61 355.5,-587.61 349.5,-587.61 343.5,-581.61 343.5,-575.61 343.5,-575.61 343.5,-487.61 343.5,-487.61 343.5,-481.61 349.5,-475.61 355.5,-475.61"/>
<text text-anchor="middle" x="380.5" y="-576.41" font-family="Helvetica,sans-Serif" font-weight="bold" font-size="9.00">pages</text>
</g>
<g id="clust18" class="cluster">
<title>cluster_src/templates</title>
<path fill="#ffffff" stroke="black" stroke-width="2" d="M313,-105.61C313,-105.61 712,-105.61 712,-105.61 718,-105.61 724,-111.61 724,-117.61 724,-117.61 724,-265.61 724,-265.61 724,-271.61 718,-277.61 712,-277.61 712,-277.61 313,-277.61 313,-277.61 307,-277.61 301,-271.61 301,-265.61 301,-265.61 301,-117.61 301,-117.61 301,-111.61 307,-105.61 313,-105.61"/>
<text text-anchor="middle" x="512.5" y="-266.41" font-family="Helvetica,sans-Serif" font-weight="bold" font-size="9.00">templates</text>
</g>
<g id="clust19" class="cluster">
<title>cluster_src/templates/blog&#45;post&#45;template</title>
<path fill="#ffffff" stroke="black" stroke-width="2" d="M355.5,-113.61C355.5,-113.61 704,-113.61 704,-113.61 710,-113.61 716,-119.61 716,-125.61 716,-125.61 716,-153.61 716,-153.61 716,-159.61 710,-165.61 704,-165.61 704,-165.61 355.5,-165.61 355.5,-165.61 349.5,-165.61 343.5,-159.61 343.5,-153.61 343.5,-153.61 343.5,-125.61 343.5,-125.61 343.5,-119.61 349.5,-113.61 355.5,-113.61"/>
<text text-anchor="middle" x="529.75" y="-154.41" font-family="Helvetica,sans-Serif" font-weight="bold" font-size="9.00">blog&#45;post&#45;template</text>
</g>
<g id="clust20" class="cluster">
<title>cluster_src/utils</title>
<path fill="#ffffff" stroke="black" stroke-width="2" d="M995,-65.61C995,-65.61 1153,-65.61 1153,-65.61 1159,-65.61 1165,-71.61 1165,-77.61 1165,-77.61 1165,-225.61 1165,-225.61 1165,-231.61 1159,-237.61 1153,-237.61 1153,-237.61 995,-237.61 995,-237.61 989,-237.61 983,-231.61 983,-225.61 983,-225.61 983,-77.61 983,-77.61 983,-71.61 989,-65.61 995,-65.61"/>
<text text-anchor="middle" x="1074" y="-226.41" font-family="Helvetica,sans-Serif" font-weight="bold" font-size="9.00">utils</text>
</g>
<!-- gatsby&#45;browser.js -->
<g id="node1" class="node">
<title>gatsby&#45;browser.js</title>
<g id="a_node1"><a xlink:href="gatsby-browser.js" xlink:title="gatsby&#45;browser.js">
<path fill="#ffffcc" stroke="black" d="M89,-1273.61C89,-1273.61 6,-1273.61 6,-1273.61 3,-1273.61 0,-1270.61 0,-1267.61 0,-1267.61 0,-1261.61 0,-1261.61 0,-1258.61 3,-1255.61 6,-1255.61 6,-1255.61 89,-1255.61 89,-1255.61 92,-1255.61 95,-1258.61 95,-1261.61 95,-1261.61 95,-1267.61 95,-1267.61 95,-1270.61 92,-1273.61 89,-1273.61"/>
<text text-anchor="middle" x="47.5" y="-1262.41" font-family="Helvetica,sans-Serif" font-size="9.00">gatsby&#45;browser.js</text>
</a>
</g>
</g>
<!-- gatsby/browser/init.css -->
<g id="node2" class="node">
<title>gatsby/browser/init.css</title>
<g id="a_node2"><a xlink:href="gatsby/browser/init.css" xlink:title="init.css">
<path fill="#ffffcc" stroke="black" d="M167,-1273.61C167,-1273.61 125,-1273.61 125,-1273.61 122,-1273.61 119,-1270.61 119,-1267.61 119,-1267.61 119,-1261.61 119,-1261.61 119,-1258.61 122,-1255.61 125,-1255.61 125,-1255.61 167,-1255.61 167,-1255.61 170,-1255.61 173,-1258.61 173,-1261.61 173,-1261.61 173,-1267.61 173,-1267.61 173,-1270.61 170,-1273.61 167,-1273.61"/>
<text text-anchor="middle" x="146" y="-1262.41" font-family="Helvetica,sans-Serif" font-size="9.00">init.css</text>
</a>
</g>
</g>
<!-- gatsby&#45;browser.js&#45;&gt;gatsby/browser/init.css -->
<g id="edge1" class="edge">
<title>gatsby&#45;browser.js&#45;&gt;gatsby/browser/init.css</title>
<path fill="none" stroke="#000000" stroke-width="2" stroke-opacity="0.200000" d="M95.05,-1264.61C101.07,-1264.61 107.12,-1264.61 112.84,-1264.61"/>
<polygon fill="#000000" fill-opacity="0.200000" stroke="#000000" stroke-width="2" stroke-opacity="0.200000" points="112.88,-1266.71 118.88,-1264.61 112.88,-1262.51 112.88,-1266.71"/>
</g>
<!-- gatsby&#45;config.js -->
<g id="node3" class="node">
<title>gatsby&#45;config.js</title>
<g id="a_node3"><a xlink:href="gatsby-config.js" xlink:title="gatsby&#45;config.js">
<path fill="#ccffcc" stroke="black" d="M86,-1303.61C86,-1303.61 9,-1303.61 9,-1303.61 6,-1303.61 3,-1300.61 3,-1297.61 3,-1297.61 3,-1291.61 3,-1291.61 3,-1288.61 6,-1285.61 9,-1285.61 9,-1285.61 86,-1285.61 86,-1285.61 89,-1285.61 92,-1288.61 92,-1291.61 92,-1291.61 92,-1297.61 92,-1297.61 92,-1300.61 89,-1303.61 86,-1303.61"/>
<text text-anchor="middle" x="47.5" y="-1292.41" font-family="Helvetica,sans-Serif" font-size="9.00">gatsby&#45;config.js</text>
</a>
</g>
</g>
<!-- gatsby&#45;node.js -->
<g id="node4" class="node">
<title>gatsby&#45;node.js</title>
<g id="a_node4"><a xlink:href="gatsby-node.js" xlink:title="gatsby&#45;node.js">
<path fill="#ffffcc" stroke="black" d="M83,-1198.61C83,-1198.61 12,-1198.61 12,-1198.61 9,-1198.61 6,-1195.61 6,-1192.61 6,-1192.61 6,-1186.61 6,-1186.61 6,-1183.61 9,-1180.61 12,-1180.61 12,-1180.61 83,-1180.61 83,-1180.61 86,-1180.61 89,-1183.61 89,-1186.61 89,-1186.61 89,-1192.61 89,-1192.61 89,-1195.61 86,-1198.61 83,-1198.61"/>
<text text-anchor="middle" x="47.5" y="-1187.41" font-family="Helvetica,sans-Serif" font-size="9.00">gatsby&#45;node.js</text>
</a>
</g>
</g>
<!-- gatsby/node/index.ts -->
<g id="node5" class="node">
<title>gatsby/node/index.ts</title>
<g id="a_node5"><a xlink:href="gatsby/node/index.ts" xlink:title="index.ts">
<path fill="#ddfeff" stroke="black" d="M167,-1198.61C167,-1198.61 125,-1198.61 125,-1198.61 122,-1198.61 119,-1195.61 119,-1192.61 119,-1192.61 119,-1186.61 119,-1186.61 119,-1183.61 122,-1180.61 125,-1180.61 125,-1180.61 167,-1180.61 167,-1180.61 170,-1180.61 173,-1183.61 173,-1186.61 173,-1186.61 173,-1192.61 173,-1192.61 173,-1195.61 170,-1198.61 167,-1198.61"/>
<text text-anchor="middle" x="146" y="-1187.41" font-family="Helvetica,sans-Serif" font-size="9.00">index.ts</text>
</a>
</g>
</g>
<!-- gatsby&#45;node.js&#45;&gt;gatsby/node/index.ts -->
<g id="edge2" class="edge">
<title>gatsby&#45;node.js&#45;&gt;gatsby/node/index.ts</title>
<path fill="none" stroke="#000000" stroke-width="2" stroke-opacity="0.200000" d="M89.15,-1189.61C97.03,-1189.61 105.2,-1189.61 112.77,-1189.61"/>
<polygon fill="#000000" fill-opacity="0.200000" stroke="#000000" stroke-width="2" stroke-opacity="0.200000" points="112.97,-1191.71 118.97,-1189.61 112.97,-1187.51 112.97,-1191.71"/>
</g>
<!-- gatsby/node/create&#45;pages.ts -->
<g id="node8" class="node">
<title>gatsby/node/create&#45;pages.ts</title>
<g id="a_node8"><a xlink:href="gatsby/node/create-pages.ts" xlink:title="create&#45;pages.ts">
<path fill="#ddfeff" stroke="black" d="M274,-1213.61C274,-1213.61 200,-1213.61 200,-1213.61 197,-1213.61 194,-1210.61 194,-1207.61 194,-1207.61 194,-1201.61 194,-1201.61 194,-1198.61 197,-1195.61 200,-1195.61 200,-1195.61 274,-1195.61 274,-1195.61 277,-1195.61 280,-1198.61 280,-1201.61 280,-1201.61 280,-1207.61 280,-1207.61 280,-1210.61 277,-1213.61 274,-1213.61"/>
<text text-anchor="middle" x="237" y="-1202.41" font-family="Helvetica,sans-Serif" font-size="9.00">create&#45;pages.ts</text>
</a>
</g>
</g>
<!-- gatsby/node/index.ts&#45;&gt;gatsby/node/create&#45;pages.ts -->
<g id="edge9" class="edge">
<title>gatsby/node/index.ts&#45;&gt;gatsby/node/create&#45;pages.ts</title>
<path fill="none" stroke="#000000" stroke-width="2" stroke-opacity="0.200000" d="M173.22,-1194.03C177.76,-1194.79 182.61,-1195.61 187.53,-1196.44"/>
<polygon fill="#000000" fill-opacity="0.200000" stroke="#000000" stroke-width="2" stroke-opacity="0.200000" points="187.51,-1198.56 193.77,-1197.49 188.2,-1194.42 187.51,-1198.56"/>
</g>
<!-- gatsby/node/on&#45;create&#45;node.ts -->
<g id="node14" class="node">
<title>gatsby/node/on&#45;create&#45;node.ts</title>
<g id="a_node14"><a xlink:href="gatsby/node/on-create-node.ts" xlink:title="on&#45;create&#45;node.ts">
<path fill="#ddfeff" stroke="black" d="M279,-1183.61C279,-1183.61 195,-1183.61 195,-1183.61 192,-1183.61 189,-1180.61 189,-1177.61 189,-1177.61 189,-1171.61 189,-1171.61 189,-1168.61 192,-1165.61 195,-1165.61 195,-1165.61 279,-1165.61 279,-1165.61 282,-1165.61 285,-1168.61 285,-1171.61 285,-1171.61 285,-1177.61 285,-1177.61 285,-1180.61 282,-1183.61 279,-1183.61"/>
<text text-anchor="middle" x="237" y="-1172.41" font-family="Helvetica,sans-Serif" font-size="9.00">on&#45;create&#45;node.ts</text>
</a>
</g>
</g>
<!-- gatsby/node/index.ts&#45;&gt;gatsby/node/on&#45;create&#45;node.ts -->
<g id="edge10" class="edge">
<title>gatsby/node/index.ts&#45;&gt;gatsby/node/on&#45;create&#45;node.ts</title>
<path fill="none" stroke="#000000" stroke-width="2" stroke-opacity="0.200000" d="M173.22,-1185.19C176.3,-1184.67 179.52,-1184.13 182.8,-1183.57"/>
<polygon fill="#000000" fill-opacity="0.200000" stroke="#000000" stroke-width="2" stroke-opacity="0.200000" points="183.2,-1185.64 188.76,-1182.57 182.5,-1181.49 183.2,-1185.64"/>
</g>
<!-- gatsby&#45;ssr.js -->
<g id="node6" class="node">
<title>gatsby&#45;ssr.js</title>
<g id="a_node6"><a xlink:href="gatsby-ssr.js" xlink:title="gatsby&#45;ssr.js">
<path fill="#ccffcc" stroke="black" d="M77.5,-1333.61C77.5,-1333.61 17.5,-1333.61 17.5,-1333.61 14.5,-1333.61 11.5,-1330.61 11.5,-1327.61 11.5,-1327.61 11.5,-1321.61 11.5,-1321.61 11.5,-1318.61 14.5,-1315.61 17.5,-1315.61 17.5,-1315.61 77.5,-1315.61 77.5,-1315.61 80.5,-1315.61 83.5,-1318.61 83.5,-1321.61 83.5,-1321.61 83.5,-1327.61 83.5,-1327.61 83.5,-1330.61 80.5,-1333.61 77.5,-1333.61"/>
<text text-anchor="middle" x="47.5" y="-1322.41" font-family="Helvetica,sans-Serif" font-size="9.00">gatsby&#45;ssr.js</text>
</a>
</g>
</g>
<!-- gatsby/node/colored&#45;print.ts -->
<g id="node7" class="node">
<title>gatsby/node/colored&#45;print.ts</title>
<g id="a_node7"><a xlink:href="gatsby/node/colored-print.ts" xlink:title="colored&#45;print.ts">
<path fill="#ddfeff" stroke="black" d="M417.5,-1213.61C417.5,-1213.61 343.5,-1213.61 343.5,-1213.61 340.5,-1213.61 337.5,-1210.61 337.5,-1207.61 337.5,-1207.61 337.5,-1201.61 337.5,-1201.61 337.5,-1198.61 340.5,-1195.61 343.5,-1195.61 343.5,-1195.61 417.5,-1195.61 417.5,-1195.61 420.5,-1195.61 423.5,-1198.61 423.5,-1201.61 423.5,-1201.61 423.5,-1207.61 423.5,-1207.61 423.5,-1210.61 420.5,-1213.61 417.5,-1213.61"/>
<text text-anchor="middle" x="380.5" y="-1202.41" font-family="Helvetica,sans-Serif" font-size="9.00">colored&#45;print.ts</text>
</a>
</g>
</g>
<!-- gatsby/node/create&#45;pages.ts&#45;&gt;gatsby/node/colored&#45;print.ts -->
<g id="edge8" class="edge">
<title>gatsby/node/create&#45;pages.ts&#45;&gt;gatsby/node/colored&#45;print.ts</title>
<path fill="none" stroke="#000000" stroke-width="2" stroke-opacity="0.200000" d="M280.07,-1204.61C296.18,-1204.61 314.67,-1204.61 331.31,-1204.61"/>
<polygon fill="#000000" fill-opacity="0.200000" stroke="#000000" stroke-width="2" stroke-opacity="0.200000" points="331.35,-1206.71 337.35,-1204.61 331.35,-1202.51 331.35,-1206.71"/>
</g>
<!-- src/templates/archive&#45;month&#45;template.tsx -->
<g id="node9" class="node">
<title>src/templates/archive&#45;month&#45;template.tsx</title>
<g id="a_node9"><a xlink:href="src/templates/archive-month-template.tsx" xlink:title="archive&#45;month&#45;template.tsx">
<path fill="#bbfeff" stroke="black" d="M446,-221.61C446,-221.61 315,-221.61 315,-221.61 312,-221.61 309,-218.61 309,-215.61 309,-215.61 309,-209.61 309,-209.61 309,-206.61 312,-203.61 315,-203.61 315,-203.61 446,-203.61 446,-203.61 449,-203.61 452,-206.61 452,-209.61 452,-209.61 452,-215.61 452,-215.61 452,-218.61 449,-221.61 446,-221.61"/>
<text text-anchor="middle" x="380.5" y="-210.41" font-family="Helvetica,sans-Serif" font-size="9.00">archive&#45;month&#45;template.tsx</text>
</a>
</g>
</g>
<!-- gatsby/node/create&#45;pages.ts&#45;&gt;src/templates/archive&#45;month&#45;template.tsx -->
<g id="edge3" class="edge">
<title>gatsby/node/create&#45;pages.ts&#45;&gt;src/templates/archive&#45;month&#45;template.tsx</title>
<path fill="none" stroke="#000000" stroke-width="2" stroke-opacity="0.200000" d="M279.25,-1195.32C281.42,-1193.7 283.37,-1191.81 285,-1189.61 300.85,-1168.09 275.71,-247.98 293,-227.61 295.98,-224.09 299.47,-221.2 303.3,-218.83"/>
<polygon fill="#000000" fill-opacity="0.200000" stroke="#000000" stroke-width="2" stroke-opacity="0.200000" points="304.43,-220.6 308.71,-215.91 302.44,-216.91 304.43,-220.6"/>
</g>
<!-- src/templates/archive&#45;year&#45;template.tsx -->
<g id="node10" class="node">
<title>src/templates/archive&#45;year&#45;template.tsx</title>
<g id="a_node10"><a xlink:href="src/templates/archive-year-template.tsx" xlink:title="archive&#45;year&#45;template.tsx">
<path fill="#bbfeff" stroke="black" d="M440,-191.61C440,-191.61 321,-191.61 321,-191.61 318,-191.61 315,-188.61 315,-185.61 315,-185.61 315,-179.61 315,-179.61 315,-176.61 318,-173.61 321,-173.61 321,-173.61 440,-173.61 440,-173.61 443,-173.61 446,-176.61 446,-179.61 446,-179.61 446,-185.61 446,-185.61 446,-188.61 443,-191.61 440,-191.61"/>
<text text-anchor="middle" x="380.5" y="-180.41" font-family="Helvetica,sans-Serif" font-size="9.00">archive&#45;year&#45;template.tsx</text>
</a>
</g>
</g>
<!-- gatsby/node/create&#45;pages.ts&#45;&gt;src/templates/archive&#45;year&#45;template.tsx -->
<g id="edge4" class="edge">
<title>gatsby/node/create&#45;pages.ts&#45;&gt;src/templates/archive&#45;year&#45;template.tsx</title>
<path fill="none" stroke="#000000" stroke-width="2" stroke-opacity="0.200000" d="M279.25,-1195.32C281.42,-1193.7 283.37,-1191.81 285,-1189.61 301.35,-1167.42 275.17,-218.62 293,-197.61 297.38,-192.45 302.84,-188.62 308.88,-185.83"/>
<polygon fill="#000000" fill-opacity="0.200000" stroke="#000000" stroke-width="2" stroke-opacity="0.200000" points="309.79,-187.73 314.57,-183.55 308.22,-183.83 309.79,-187.73"/>
</g>
<!-- src/templates/blog&#45;post&#45;template/index.tsx -->
<g id="node11" class="node">
<title>src/templates/blog&#45;post&#45;template/index.tsx</title>
<g id="a_node11"><a xlink:href="src/templates/blog-post-template/index.tsx" xlink:title="index.tsx">
<path fill="#bbfeff" stroke="black" d="M403.5,-139.61C403.5,-139.61 357.5,-139.61 357.5,-139.61 354.5,-139.61 351.5,-136.61 351.5,-133.61 351.5,-133.61 351.5,-127.61 351.5,-127.61 351.5,-124.61 354.5,-121.61 357.5,-121.61 357.5,-121.61 403.5,-121.61 403.5,-121.61 406.5,-121.61 409.5,-124.61 409.5,-127.61 409.5,-127.61 409.5,-133.61 409.5,-133.61 409.5,-136.61 406.5,-139.61 403.5,-139.61"/>
<text text-anchor="middle" x="380.5" y="-128.41" font-family="Helvetica,sans-Serif" font-size="9.00">index.tsx</text>
</a>
</g>
</g>
<!-- gatsby/node/create&#45;pages.ts&#45;&gt;src/templates/blog&#45;post&#45;template/index.tsx -->
<g id="edge5" class="edge">
<title>gatsby/node/create&#45;pages.ts&#45;&gt;src/templates/blog&#45;post&#45;template/index.tsx</title>
<path fill="none" stroke="#000000" stroke-width="2" stroke-opacity="0.200000" d="M279.25,-1195.32C281.42,-1193.7 283.37,-1191.81 285,-1189.61 302.23,-1166.21 273.96,-165.55 293,-143.61 305.61,-129.08 326.92,-125.74 345.23,-126.08"/>
<polygon fill="#000000" fill-opacity="0.200000" stroke="#000000" stroke-width="2" stroke-opacity="0.200000" points="345.23,-128.18 351.31,-126.33 345.4,-123.99 345.23,-128.18"/>
</g>
<!-- src/templates/tag&#45;page&#45;template.tsx -->
<g id="node12" class="node">
<title>src/templates/tag&#45;page&#45;template.tsx</title>
<g id="a_node12"><a xlink:href="src/templates/tag-page-template.tsx" xlink:title="tag&#45;page&#45;template.tsx">
<path fill="#bbfeff" stroke="black" d="M433,-251.61C433,-251.61 328,-251.61 328,-251.61 325,-251.61 322,-248.61 322,-245.61 322,-245.61 322,-239.61 322,-239.61 322,-236.61 325,-233.61 328,-233.61 328,-233.61 433,-233.61 433,-233.61 436,-233.61 439,-236.61 439,-239.61 439,-239.61 439,-245.61 439,-245.61 439,-248.61 436,-251.61 433,-251.61"/>
<text text-anchor="middle" x="380.5" y="-240.41" font-family="Helvetica,sans-Serif" font-size="9.00">tag&#45;page&#45;template.tsx</text>
</a>
</g>
</g>
<!-- gatsby/node/create&#45;pages.ts&#45;&gt;src/templates/tag&#45;page&#45;template.tsx -->
<g id="edge6" class="edge">
<title>gatsby/node/create&#45;pages.ts&#45;&gt;src/templates/tag&#45;page&#45;template.tsx</title>
<path fill="none" stroke="#000000" stroke-width="2" stroke-opacity="0.200000" d="M279.24,-1195.31C281.41,-1193.7 283.37,-1191.81 285,-1189.61 296.84,-1173.59 289.33,-492.18 293,-472.61 308.91,-387.78 353.69,-293.4 371.78,-257.53"/>
<polygon fill="#000000" fill-opacity="0.200000" stroke="#000000" stroke-width="2" stroke-opacity="0.200000" points="373.79,-258.2 374.64,-251.9 370.05,-256.3 373.79,-258.2"/>
</g>
<!-- src/utils/asserts&#45;non&#45;null.ts -->
<g id="node13" class="node">
<title>src/utils/asserts&#45;non&#45;null.ts</title>
<g id="a_node13"><a xlink:href="src/utils/asserts-non-null.ts" xlink:title="asserts&#45;non&#45;null.ts">
<path fill="#ddfeff" stroke="black" d="M1084,-211.61C1084,-211.61 997,-211.61 997,-211.61 994,-211.61 991,-208.61 991,-205.61 991,-205.61 991,-199.61 991,-199.61 991,-196.61 994,-193.61 997,-193.61 997,-193.61 1084,-193.61 1084,-193.61 1087,-193.61 1090,-196.61 1090,-199.61 1090,-199.61 1090,-205.61 1090,-205.61 1090,-208.61 1087,-211.61 1084,-211.61"/>
<text text-anchor="middle" x="1040.5" y="-200.41" font-family="Helvetica,sans-Serif" font-size="9.00">asserts&#45;non&#45;null.ts</text>
</a>
</g>
</g>
<!-- gatsby/node/create&#45;pages.ts&#45;&gt;src/utils/asserts&#45;non&#45;null.ts -->
<g id="edge7" class="edge">
<title>gatsby/node/create&#45;pages.ts&#45;&gt;src/utils/asserts&#45;non&#45;null.ts</title>
<path fill="none" stroke="#000000" stroke-width="2" stroke-opacity="0.200000" d="M279.25,-1195.32C281.42,-1193.7 283.37,-1191.81 285,-1189.61 302.77,-1165.47 274.87,-134.47 293,-110.61 355.5,-28.33 413.17,-46.61 516.5,-46.61 516.5,-46.61 516.5,-46.61 787.5,-46.61 829.3,-46.61 945.69,-31.81 975,-61.61 994.68,-81.61 965.2,-165.92 983,-187.61 983.85,-188.64 984.75,-189.6 985.71,-190.5"/>
<polygon fill="#000000" fill-opacity="0.200000" stroke="#000000" stroke-width="2" stroke-opacity="0.200000" points="984.88,-192.51 990.92,-194.51 987.45,-189.19 984.88,-192.51"/>
</g>
<!-- src/templates/post&#45;list&#45;page.tsx -->
<g id="node42" class="node">
<title>src/templates/post&#45;list&#45;page.tsx</title>
<g id="a_node42"><a xlink:href="src/templates/post-list-page.tsx" xlink:title="post&#45;list&#45;page.tsx">
<path fill="#bbfeff" stroke="black" d="M558.5,-251.61C558.5,-251.61 476.5,-251.61 476.5,-251.61 473.5,-251.61 470.5,-248.61 470.5,-245.61 470.5,-245.61 470.5,-239.61 470.5,-239.61 470.5,-236.61 473.5,-233.61 476.5,-233.61 476.5,-233.61 558.5,-233.61 558.5,-233.61 561.5,-233.61 564.5,-236.61 564.5,-239.61 564.5,-239.61 564.5,-245.61 564.5,-245.61 564.5,-248.61 561.5,-251.61 558.5,-251.61"/>
<text text-anchor="middle" x="517.5" y="-240.41" font-family="Helvetica,sans-Serif" font-size="9.00">post&#45;list&#45;page.tsx</text>
</a>
</g>
</g>
<!-- src/templates/archive&#45;month&#45;template.tsx&#45;&gt;src/templates/post&#45;list&#45;page.tsx -->
<g id="edge39" class="edge">
<title>src/templates/archive&#45;month&#45;template.tsx&#45;&gt;src/templates/post&#45;list&#45;page.tsx</title>
<path fill="none" stroke="#000000" stroke-width="2" stroke-opacity="0.200000" d="M424.78,-221.68C433.78,-223.61 443.21,-225.65 452,-227.61 458.53,-229.06 465.42,-230.63 472.18,-232.18"/>
<polygon fill="#000000" fill-opacity="0.200000" stroke="#000000" stroke-width="2" stroke-opacity="0.200000" points="472.01,-234.3 478.33,-233.6 472.95,-230.21 472.01,-234.3"/>
</g>
<!-- src/templates/archive&#45;year&#45;template.tsx&#45;&gt;src/templates/post&#45;list&#45;page.tsx -->
<g id="edge40" class="edge">
<title>src/templates/archive&#45;year&#45;template.tsx&#45;&gt;src/templates/post&#45;list&#45;page.tsx</title>
<path fill="none" stroke="#000000" stroke-width="2" stroke-opacity="0.200000" d="M435.33,-191.7C441.06,-193.36 446.72,-195.32 452,-197.61 470.58,-205.67 489.28,-219.49 501.72,-229.7"/>
<polygon fill="#000000" fill-opacity="0.200000" stroke="#000000" stroke-width="2" stroke-opacity="0.200000" points="500.38,-231.31 506.33,-233.55 503.08,-228.09 500.38,-231.31"/>
</g>
<!-- src/templates/blog&#45;post&#45;template/index.tsx&#45;&gt;src/utils/asserts&#45;non&#45;null.ts -->
<g id="edge49" class="edge">
<title>src/templates/blog&#45;post&#45;template/index.tsx&#45;&gt;src/utils/asserts&#45;non&#45;null.ts</title>
<path fill="none" stroke="#000000" stroke-width="2" stroke-opacity="0.200000" d="M398.25,-121.52C414.75,-112.98 440.92,-100.5 465,-93.61 547.21,-70.06 569.99,-66.61 655.5,-66.61 655.5,-66.61 655.5,-66.61 787.5,-66.61 873.98,-66.61 918.77,-52.9 975,-118.61 995.07,-142.06 962.8,-164.26 983,-187.61 983.85,-188.59 984.75,-189.5 985.7,-190.36"/>
<polygon fill="#000000" fill-opacity="0.200000" stroke="#000000" stroke-width="2" stroke-opacity="0.200000" points="984.76,-192.29 990.82,-194.22 987.29,-188.93 984.76,-192.29"/>
</g>
<!-- src/components/article/index.tsx -->
<g id="node17" class="node">
<title>src/components/article/index.tsx</title>
<g id="a_node17"><a xlink:href="src/components/article/index.tsx" xlink:title="index.tsx">
<path fill="#bbfeff" stroke="black" d="M679.5,-979.61C679.5,-979.61 633.5,-979.61 633.5,-979.61 630.5,-979.61 627.5,-976.61 627.5,-973.61 627.5,-973.61 627.5,-967.61 627.5,-967.61 627.5,-964.61 630.5,-961.61 633.5,-961.61 633.5,-961.61 679.5,-961.61 679.5,-961.61 682.5,-961.61 685.5,-964.61 685.5,-967.61 685.5,-967.61 685.5,-973.61 685.5,-973.61 685.5,-976.61 682.5,-979.61 679.5,-979.61"/>
<text text-anchor="middle" x="656.5" y="-968.41" font-family="Helvetica,sans-Serif" font-size="9.00">index.tsx</text>
</a>
</g>
</g>
<!-- src/templates/blog&#45;post&#45;template/index.tsx&#45;&gt;src/components/article/index.tsx -->
<g id="edge44" class="edge">
<title>src/templates/blog&#45;post&#45;template/index.tsx&#45;&gt;src/components/article/index.tsx</title>
<path fill="none" stroke="#000000" stroke-width="2" stroke-opacity="0.200000" d="M409.65,-128.07C424.52,-128.4 441.76,-131.73 452,-143.61 478.66,-174.5 444.02,-475.61 465,-510.61 492.75,-556.9 541.45,-525.8 570,-571.61 614.42,-642.88 546.21,-881.35 596.5,-948.61 602.57,-956.73 611.99,-961.85 621.53,-965.08"/>
<polygon fill="#000000" fill-opacity="0.200000" stroke="#000000" stroke-width="2" stroke-opacity="0.200000" points="621.11,-967.15 627.46,-966.86 622.31,-963.13 621.11,-967.15"/>
</g>
<!-- src/components/atoms/tag&#45;list.tsx -->
<g id="node19" class="node">
<title>src/components/atoms/tag&#45;list.tsx</title>
<g id="a_node19"><a xlink:href="src/components/atoms/tag-list.tsx" xlink:title="tag&#45;list.tsx">
<path fill="#bbfeff" stroke="black" d="M937.5,-319.61C937.5,-319.61 885.5,-319.61 885.5,-319.61 882.5,-319.61 879.5,-316.61 879.5,-313.61 879.5,-313.61 879.5,-307.61 879.5,-307.61 879.5,-304.61 882.5,-301.61 885.5,-301.61 885.5,-301.61 937.5,-301.61 937.5,-301.61 940.5,-301.61 943.5,-304.61 943.5,-307.61 943.5,-307.61 943.5,-313.61 943.5,-313.61 943.5,-316.61 940.5,-319.61 937.5,-319.61"/>
<text text-anchor="middle" x="911.5" y="-308.41" font-family="Helvetica,sans-Serif" font-size="9.00">tag&#45;list.tsx</text>
</a>
</g>
</g>
<!-- src/templates/blog&#45;post&#45;template/index.tsx&#45;&gt;src/components/atoms/tag&#45;list.tsx -->
<g id="edge45" class="edge">
<title>src/templates/blog&#45;post&#45;template/index.tsx&#45;&gt;src/components/atoms/tag&#45;list.tsx</title>
<path fill="none" stroke="#000000" stroke-width="2" stroke-opacity="0.200000" d="M409.68,-125.35C425.85,-122.38 446.55,-118.67 465,-115.61 578.9,-96.72 609.07,-84.59 724,-95.61 779.88,-100.96 805.9,-82.47 848,-119.61 900.96,-166.32 909.24,-258.56 910.39,-295.14"/>
<polygon fill="#000000" fill-opacity="0.200000" stroke="#000000" stroke-width="2" stroke-opacity="0.200000" points="908.3,-295.35 910.53,-301.3 912.5,-295.25 908.3,-295.35"/>
</g>
<!-- src/components/git&#45;info/index.tsx -->
<g id="node23" class="node">
<title>src/components/git&#45;info/index.tsx</title>
<g id="a_node23"><a xlink:href="src/components/git-info/index.tsx" xlink:title="index.tsx">
<path fill="#bbfeff" stroke="black" d="M679.5,-769.61C679.5,-769.61 633.5,-769.61 633.5,-769.61 630.5,-769.61 627.5,-766.61 627.5,-763.61 627.5,-763.61 627.5,-757.61 627.5,-757.61 627.5,-754.61 630.5,-751.61 633.5,-751.61 633.5,-751.61 679.5,-751.61 679.5,-751.61 682.5,-751.61 685.5,-754.61 685.5,-757.61 685.5,-757.61 685.5,-763.61 685.5,-763.61 685.5,-766.61 682.5,-769.61 679.5,-769.61"/>
<text text-anchor="middle" x="656.5" y="-758.41" font-family="Helvetica,sans-Serif" font-size="9.00">index.tsx</text>
</a>
</g>
</g>
<!-- src/templates/blog&#45;post&#45;template/index.tsx&#45;&gt;src/components/git&#45;info/index.tsx -->
<g id="edge46" class="edge">
<title>src/templates/blog&#45;post&#45;template/index.tsx&#45;&gt;src/components/git&#45;info/index.tsx</title>
<path fill="none" stroke="#000000" stroke-width="2" stroke-opacity="0.200000" d="M409.62,-128.1C424.48,-128.43 441.72,-131.77 452,-143.61 474.61,-169.63 451.29,-421.97 465,-453.61 491.49,-514.74 540.31,-500.96 570,-560.61 605.64,-632.21 546.16,-676.46 596.5,-738.61 602.77,-746.34 612.05,-751.36 621.4,-754.61"/>
<polygon fill="#000000" fill-opacity="0.200000" stroke="#000000" stroke-width="2" stroke-opacity="0.200000" points="620.85,-756.64 627.2,-756.42 622.1,-752.63 620.85,-756.64"/>
</g>
<!-- src/components/layout/index.tsx -->
<g id="node31" class="node">
<title>src/components/layout/index.tsx</title>
<g id="a_node31"><a xlink:href="src/components/layout/index.tsx" xlink:title="index.tsx">
<path fill="#bbfeff" stroke="black" d="M679.5,-559.61C679.5,-559.61 633.5,-559.61 633.5,-559.61 630.5,-559.61 627.5,-556.61 627.5,-553.61 627.5,-553.61 627.5,-547.61 627.5,-547.61 627.5,-544.61 630.5,-541.61 633.5,-541.61 633.5,-541.61 679.5,-541.61 679.5,-541.61 682.5,-541.61 685.5,-544.61 685.5,-547.61 685.5,-547.61 685.5,-553.61 685.5,-553.61 685.5,-556.61 682.5,-559.61 679.5,-559.61"/>
<text text-anchor="middle" x="656.5" y="-548.41" font-family="Helvetica,sans-Serif" font-size="9.00">index.tsx</text>
</a>
</g>
</g>
<!-- src/templates/blog&#45;post&#45;template/index.tsx&#45;&gt;src/components/layout/index.tsx -->
<g id="edge47" class="edge">
<title>src/templates/blog&#45;post&#45;template/index.tsx&#45;&gt;src/components/layout/index.tsx</title>
<path fill="none" stroke="#000000" stroke-width="2" stroke-opacity="0.200000" d="M409.73,-128.32C424.44,-128.77 441.49,-132.13 452,-143.61 472.66,-166.16 454.38,-251.93 465,-280.61 506.17,-391.82 605.07,-499.48 641.62,-536.81"/>
<polygon fill="#000000" fill-opacity="0.200000" stroke="#000000" stroke-width="2" stroke-opacity="0.200000" points="640.44,-538.61 646.15,-541.4 643.43,-535.66 640.44,-538.61"/>
</g>
<!-- src/components/table&#45;of&#45;contents/index.tsx -->
<g id="node39" class="node">
<title>src/components/table&#45;of&#45;contents/index.tsx</title>
<g id="a_node39"><a xlink:href="src/components/table-of-contents/index.tsx" xlink:title="index.tsx">
<path fill="#bbfeff" stroke="black" d="M679.5,-709.61C679.5,-709.61 633.5,-709.61 633.5,-709.61 630.5,-709.61 627.5,-706.61 627.5,-703.61 627.5,-703.61 627.5,-697.61 627.5,-697.61 627.5,-694.61 630.5,-691.61 633.5,-691.61 633.5,-691.61 679.5,-691.61 679.5,-691.61 682.5,-691.61 685.5,-694.61 685.5,-697.61 685.5,-697.61 685.5,-703.61 685.5,-703.61 685.5,-706.61 682.5,-709.61 679.5,-709.61"/>
<text text-anchor="middle" x="656.5" y="-698.41" font-family="Helvetica,sans-Serif" font-size="9.00">index.tsx</text>
</a>
</g>
</g>
<!-- src/templates/blog&#45;post&#45;template/index.tsx&#45;&gt;src/components/table&#45;of&#45;contents/index.tsx -->
<g id="edge48" class="edge">
<title>src/templates/blog&#45;post&#45;template/index.tsx&#45;&gt;src/components/table&#45;of&#45;contents/index.tsx</title>
<path fill="none" stroke="#000000" stroke-width="2" stroke-opacity="0.200000" d="M409.55,-128.16C424.39,-128.51 441.63,-131.84 452,-143.61 468.78,-162.64 456.91,-347.56 465,-371.61 491.66,-450.82 538.76,-450.09 570,-527.61 595.47,-590.8 552.93,-626.22 596.5,-678.61 602.87,-686.26 612.17,-691.26 621.52,-694.51"/>
<polygon fill="#000000" fill-opacity="0.200000" stroke="#000000" stroke-width="2" stroke-opacity="0.200000" points="620.97,-696.54 627.32,-696.32 622.22,-692.53 620.97,-696.54"/>
</g>
<!-- src/templates/blog&#45;post&#45;template/article&#45;elements.tsx -->
<g id="node44" class="node">
<title>src/templates/blog&#45;post&#45;template/article&#45;elements.tsx</title>
<g id="a_node44"><a xlink:href="src/templates/blog-post-template/article-elements.tsx" xlink:title="article&#45;elements.tsx">
<path fill="#bbfeff" stroke="black" d="M564,-139.61C564,-139.61 471,-139.61 471,-139.61 468,-139.61 465,-136.61 465,-133.61 465,-133.61 465,-127.61 465,-127.61 465,-124.61 468,-121.61 471,-121.61 471,-121.61 564,-121.61 564,-121.61 567,-121.61 570,-124.61 570,-127.61 570,-127.61 570,-133.61 570,-133.61 570,-136.61 567,-139.61 564,-139.61"/>
<text text-anchor="middle" x="517.5" y="-128.41" font-family="Helvetica,sans-Serif" font-size="9.00">article&#45;elements.tsx</text>
</a>
</g>
</g>
<!-- src/templates/blog&#45;post&#45;template/index.tsx&#45;&gt;src/templates/blog&#45;post&#45;template/article&#45;elements.tsx -->
<g id="edge50" class="edge">
<title>src/templates/blog&#45;post&#45;template/index.tsx&#45;&gt;src/templates/blog&#45;post&#45;template/article&#45;elements.tsx</title>
<path fill="none" stroke="#000000" stroke-width="2" stroke-opacity="0.200000" d="M409.8,-130.61C423.99,-130.61 441.71,-130.61 458.61,-130.61"/>
<polygon fill="#000000" fill-opacity="0.200000" stroke="#000000" stroke-width="2" stroke-opacity="0.200000" points="458.79,-132.71 464.79,-130.61 458.79,-128.51 458.79,-132.71"/>
</g>
<!-- src/templates/tag&#45;page&#45;template.tsx&#45;&gt;src/templates/post&#45;list&#45;page.tsx -->
<g id="edge53" class="edge">
<title>src/templates/tag&#45;page&#45;template.tsx&#45;&gt;src/templates/post&#45;list&#45;page.tsx</title>
<path fill="none" stroke="#000000" stroke-width="2" stroke-opacity="0.200000" d="M439.14,-242.61C447.48,-242.61 456.02,-242.61 464.25,-242.61"/>
<polygon fill="#000000" fill-opacity="0.200000" stroke="#000000" stroke-width="2" stroke-opacity="0.200000" points="464.47,-244.71 470.47,-242.61 464.47,-240.51 464.47,-244.71"/>
</g>
<!-- src/utils/panic.ts -->
<g id="node25" class="node">
<title>src/utils/panic.ts</title>
<g id="a_node25"><a xlink:href="src/utils/panic.ts" xlink:title="panic.ts">
<path fill="#ddfeff" stroke="black" d="M1151,-211.61C1151,-211.61 1109,-211.61 1109,-211.61 1106,-211.61 1103,-208.61 1103,-205.61 1103,-205.61 1103,-199.61 1103,-199.61 1103,-196.61 1106,-193.61 1109,-193.61 1109,-193.61 1151,-193.61 1151,-193.61 1154,-193.61 1157,-196.61 1157,-199.61 1157,-199.61 1157,-205.61 1157,-205.61 1157,-208.61 1154,-211.61 1151,-211.61"/>
<text text-anchor="middle" x="1130" y="-200.41" font-family="Helvetica,sans-Serif" font-size="9.00">panic.ts</text>
</a>
</g>
</g>
<!-- src/utils/asserts&#45;non&#45;null.ts&#45;&gt;src/utils/panic.ts -->
<g id="edge54" class="edge">
<title>src/utils/asserts&#45;non&#45;null.ts&#45;&gt;src/utils/panic.ts</title>
<path fill="none" stroke="#000000" stroke-width="2" stroke-opacity="0.200000" d="M1090.11,-202.61C1092.31,-202.61 1094.5,-202.61 1096.65,-202.61"/>
<polygon fill="#000000" fill-opacity="0.200000" stroke="#000000" stroke-width="2" stroke-opacity="0.200000" points="1096.95,-204.71 1102.95,-202.61 1096.95,-200.51 1096.95,-204.71"/>
</g>
<!-- gatsby/node/on&#45;create&#45;node.ts&#45;&gt;src/utils/asserts&#45;non&#45;null.ts -->
<g id="edge11" class="edge">
<title>gatsby/node/on&#45;create&#45;node.ts&#45;&gt;src/utils/asserts&#45;non&#45;null.ts</title>
<path fill="none" stroke="#000000" stroke-width="2" stroke-opacity="0.200000" d="M238.1,-1165.48C239.25,-1060.25 251.14,-79.45 293,-36.61 362.6,34.62 416.91,-20.61 516.5,-20.61 516.5,-20.61 516.5,-20.61 787.5,-20.61 871.14,-20.61 916.82,23.48 975,-36.61 986.69,-48.68 972.41,-174.56 983,-187.61 983.84,-188.64 984.74,-189.61 985.7,-190.51"/>
<polygon fill="#000000" fill-opacity="0.200000" stroke="#000000" stroke-width="2" stroke-opacity="0.200000" points="984.86,-192.52 990.89,-194.54 987.43,-189.2 984.86,-192.52"/>
</g>
<!-- src/@types/tailwindcss.d.ts -->
<g id="node15" class="node">
<title>src/@types/tailwindcss.d.ts</title>
<g id="a_node15"><a xlink:href="src/@types/tailwindcss.d.ts" xlink:title="tailwindcss.d.ts">
<path fill="#ccffcc" stroke="black" d="M417.5,-869.61C417.5,-869.61 343.5,-869.61 343.5,-869.61 340.5,-869.61 337.5,-866.61 337.5,-863.61 337.5,-863.61 337.5,-857.61 337.5,-857.61 337.5,-854.61 340.5,-851.61 343.5,-851.61 343.5,-851.61 417.5,-851.61 417.5,-851.61 420.5,-851.61 423.5,-854.61 423.5,-857.61 423.5,-857.61 423.5,-863.61 423.5,-863.61 423.5,-866.61 420.5,-869.61 417.5,-869.61"/>
<text text-anchor="middle" x="380.5" y="-858.41" font-family="Helvetica,sans-Serif" font-size="9.00">tailwindcss.d.ts</text>
</a>
</g>
</g>
<!-- src/components/article/article&#45;styles.ts -->
<g id="node16" class="node">
<title>src/components/article/article&#45;styles.ts</title>
<g id="a_node16"><a xlink:href="src/components/article/article-styles.ts" xlink:title="article&#45;styles.ts">
<path fill="#ddfeff" stroke="black" d="M822.5,-979.61C822.5,-979.61 750.5,-979.61 750.5,-979.61 747.5,-979.61 744.5,-976.61 744.5,-973.61 744.5,-973.61 744.5,-967.61 744.5,-967.61 744.5,-964.61 747.5,-961.61 750.5,-961.61 750.5,-961.61 822.5,-961.61 822.5,-961.61 825.5,-961.61 828.5,-964.61 828.5,-967.61 828.5,-967.61 828.5,-973.61 828.5,-973.61 828.5,-976.61 825.5,-979.61 822.5,-979.61"/>
<text text-anchor="middle" x="786.5" y="-968.41" font-family="Helvetica,sans-Serif" font-size="9.00">article&#45;styles.ts</text>
</a>
</g>
</g>
<!-- src/components/article/index.tsx&#45;&gt;src/components/article/article&#45;styles.ts -->
<g id="edge12" class="edge">
<title>src/components/article/index.tsx&#45;&gt;src/components/article/article&#45;styles.ts</title>
<path fill="none" stroke="#000000" stroke-width="2" stroke-opacity="0.200000" d="M685.59,-970.61C700.93,-970.61 720.33,-970.61 737.95,-970.61"/>
<polygon fill="#000000" fill-opacity="0.200000" stroke="#000000" stroke-width="2" stroke-opacity="0.200000" points="738.35,-972.71 744.35,-970.61 738.35,-968.51 738.35,-972.71"/>
</g>
<!-- src/components/atoms/anchor&#45;or&#45;link.tsx -->
<g id="node18" class="node">
<title>src/components/atoms/anchor&#45;or&#45;link.tsx</title>
<g id="a_node18"><a xlink:href="src/components/atoms/anchor-or-link.tsx" xlink:title="anchor&#45;or&#45;link.tsx">
<path fill="#bbfeff" stroke="black" d="M953,-349.61C953,-349.61 870,-349.61 870,-349.61 867,-349.61 864,-346.61 864,-343.61 864,-343.61 864,-337.61 864,-337.61 864,-334.61 867,-331.61 870,-331.61 870,-331.61 953,-331.61 953,-331.61 956,-331.61 959,-334.61 959,-337.61 959,-337.61 959,-343.61 959,-343.61 959,-346.61 956,-349.61 953,-349.61"/>
<text text-anchor="middle" x="911.5" y="-338.41" font-family="Helvetica,sans-Serif" font-size="9.00">anchor&#45;or&#45;link.tsx</text>
</a>
</g>
</g>
<!-- src/components/color&#45;checker/index.tsx -->
<g id="node20" class="node">
<title>src/components/color&#45;checker/index.tsx</title>
<g id="a_node20"><a xlink:href="src/components/color-checker/index.tsx" xlink:title="index.tsx">
<path fill="#ccffcc" stroke="black" d="M679.5,-919.61C679.5,-919.61 633.5,-919.61 633.5,-919.61 630.5,-919.61 627.5,-916.61 627.5,-913.61 627.5,-913.61 627.5,-907.61 627.5,-907.61 627.5,-904.61 630.5,-901.61 633.5,-901.61 633.5,-901.61 679.5,-901.61 679.5,-901.61 682.5,-901.61 685.5,-904.61 685.5,-907.61 685.5,-907.61 685.5,-913.61 685.5,-913.61 685.5,-916.61 682.5,-919.61 679.5,-919.61"/>
<text text-anchor="middle" x="656.5" y="-908.41" font-family="Helvetica,sans-Serif" font-size="9.00">index.tsx</text>
</a>
</g>
</g>
<!-- src/components/embeddeds/niconico.tsx -->
<g id="node21" class="node">
<title>src/components/embeddeds/niconico.tsx</title>
<g id="a_node21"><a xlink:href="src/components/embeddeds/niconico.tsx" xlink:title="niconico.tsx">
<path fill="#ccffcc" stroke="black" d="M686,-859.61C686,-859.61 627,-859.61 627,-859.61 624,-859.61 621,-856.61 621,-853.61 621,-853.61 621,-847.61 621,-847.61 621,-844.61 624,-841.61 627,-841.61 627,-841.61 686,-841.61 686,-841.61 689,-841.61 692,-844.61 692,-847.61 692,-847.61 692,-853.61 692,-853.61 692,-856.61 689,-859.61 686,-859.61"/>
<text text-anchor="middle" x="656.5" y="-848.41" font-family="Helvetica,sans-Serif" font-size="9.00">niconico.tsx</text>
</a>
</g>
</g>
<!-- src/components/embeddeds/youtube.tsx -->
<g id="node22" class="node">
<title>src/components/embeddeds/youtube.tsx</title>
<g id="a_node22"><a xlink:href="src/components/embeddeds/youtube.tsx" xlink:title="youtube.tsx">
<path fill="#ccffcc" stroke="black" d="M686,-829.61C686,-829.61 627,-829.61 627,-829.61 624,-829.61 621,-826.61 621,-823.61 621,-823.61 621,-817.61 621,-817.61 621,-814.61 624,-811.61 627,-811.61 627,-811.61 686,-811.61 686,-811.61 689,-811.61 692,-814.61 692,-817.61 692,-817.61 692,-823.61 692,-823.61 692,-826.61 689,-829.61 686,-829.61"/>
<text text-anchor="middle" x="656.5" y="-818.41" font-family="Helvetica,sans-Serif" font-size="9.00">youtube.tsx</text>
</a>
</g>
</g>
<!-- src/components/git&#45;info/useLatestCommit.ts -->
<g id="node24" class="node">
<title>src/components/git&#45;info/useLatestCommit.ts</title>
<g id="a_node24"><a xlink:href="src/components/git-info/useLatestCommit.ts" xlink:title="useLatestCommit.ts">
<path fill="#ddfeff" stroke="black" d="M834,-769.61C834,-769.61 739,-769.61 739,-769.61 736,-769.61 733,-766.61 733,-763.61 733,-763.61 733,-757.61 733,-757.61 733,-754.61 736,-751.61 739,-751.61 739,-751.61 834,-751.61 834,-751.61 837,-751.61 840,-754.61 840,-757.61 840,-757.61 840,-763.61 840,-763.61 840,-766.61 837,-769.61 834,-769.61"/>
<text text-anchor="middle" x="786.5" y="-758.41" font-family="Helvetica,sans-Serif" font-size="9.00">useLatestCommit.ts</text>
</a>
</g>
</g>
<!-- src/components/git&#45;info/index.tsx&#45;&gt;src/components/git&#45;info/useLatestCommit.ts -->
<g id="edge13" class="edge">
<title>src/components/git&#45;info/index.tsx&#45;&gt;src/components/git&#45;info/useLatestCommit.ts</title>
<path fill="none" stroke="#000000" stroke-width="2" stroke-opacity="0.200000" d="M685.59,-760.61C697.76,-760.61 712.49,-760.61 726.86,-760.61"/>
<polygon fill="#000000" fill-opacity="0.200000" stroke="#000000" stroke-width="2" stroke-opacity="0.200000" points="726.99,-762.71 732.99,-760.61 726.99,-758.51 726.99,-762.71"/>
</g>
<!-- src/components/git&#45;info/useLatestCommit.ts&#45;&gt;src/utils/panic.ts -->
<g id="edge14" class="edge">
<title>src/components/git&#45;info/useLatestCommit.ts&#45;&gt;src/utils/panic.ts</title>
<path fill="none" stroke="#000000" stroke-width="2" stroke-opacity="0.200000" d="M791.4,-769.88C802.61,-797.05 834.98,-879.08 848,-950.61 851.07,-967.46 843.57,-1092.81 856,-1104.61 894.36,-1141.02 934.58,-1138.71 975,-1104.61 1117.42,-984.44 1128.14,-327.08 1128.94,-217.96"/>
<polygon fill="#000000" fill-opacity="0.200000" stroke="#000000" stroke-width="2" stroke-opacity="0.200000" points="1131.04,-217.85 1128.98,-211.84 1126.84,-217.82 1131.04,-217.85"/>
</g>
<!-- src/components/layout/breadcrumbs.tsx -->
<g id="node26" class="node">
<title>src/components/layout/breadcrumbs.tsx</title>
<g id="a_node26"><a xlink:href="src/components/layout/breadcrumbs.tsx" xlink:title="breadcrumbs.tsx">
<path fill="#bbfeff" stroke="black" d="M827.5,-649.61C827.5,-649.61 745.5,-649.61 745.5,-649.61 742.5,-649.61 739.5,-646.61 739.5,-643.61 739.5,-643.61 739.5,-637.61 739.5,-637.61 739.5,-634.61 742.5,-631.61 745.5,-631.61 745.5,-631.61 827.5,-631.61 827.5,-631.61 830.5,-631.61 833.5,-634.61 833.5,-637.61 833.5,-637.61 833.5,-643.61 833.5,-643.61 833.5,-646.61 830.5,-649.61 827.5,-649.61"/>
<text text-anchor="middle" x="786.5" y="-638.41" font-family="Helvetica,sans-Serif" font-size="9.00">breadcrumbs.tsx</text>
</a>
</g>
</g>
<!-- src/components/layout/breadcrumbs.tsx&#45;&gt;src/utils/asserts&#45;non&#45;null.ts -->
<g id="edge16" class="edge">
<title>src/components/layout/breadcrumbs.tsx&#45;&gt;src/utils/asserts&#45;non&#45;null.ts</title>
<path fill="none" stroke="#000000" stroke-width="2" stroke-opacity="0.200000" d="M795.34,-649.74C809.12,-666.44 837.22,-703.59 848,-740.61 853.5,-759.49 841.93,-1080.85 856,-1094.61 874.91,-1113.09 955.64,-1112.62 975,-1094.61 1041.88,-1032.39 1040.31,-330.89 1039.61,-217.92"/>
<polygon fill="#000000" fill-opacity="0.200000" stroke="#000000" stroke-width="2" stroke-opacity="0.200000" points="1041.71,-217.87 1039.57,-211.88 1037.51,-217.89 1041.71,-217.87"/>
</g>
<!-- src/hooks/use&#45;site.ts -->
<g id="node27" class="node">
<title>src/hooks/use&#45;site.ts</title>
<g id="a_node27"><a xlink:href="src/hooks/use-site.ts" xlink:title="use&#45;site.ts">
<path fill="#ddfeff" stroke="black" d="M936.5,-1065.61C936.5,-1065.61 886.5,-1065.61 886.5,-1065.61 883.5,-1065.61 880.5,-1062.61 880.5,-1059.61 880.5,-1059.61 880.5,-1053.61 880.5,-1053.61 880.5,-1050.61 883.5,-1047.61 886.5,-1047.61 886.5,-1047.61 936.5,-1047.61 936.5,-1047.61 939.5,-1047.61 942.5,-1050.61 942.5,-1053.61 942.5,-1053.61 942.5,-1059.61 942.5,-1059.61 942.5,-1062.61 939.5,-1065.61 936.5,-1065.61"/>
<text text-anchor="middle" x="911.5" y="-1054.41" font-family="Helvetica,sans-Serif" font-size="9.00">use&#45;site.ts</text>
</a>
</g>
</g>
<!-- src/components/layout/breadcrumbs.tsx&#45;&gt;src/hooks/use&#45;site.ts -->
<g id="edge15" class="edge">
<title>src/components/layout/breadcrumbs.tsx&#45;&gt;src/hooks/use&#45;site.ts</title>
<path fill="none" stroke="#000000" stroke-width="2" stroke-opacity="0.200000" d="M794.51,-649.68C807.21,-666.59 834,-704.47 848,-740.61 890.75,-850.94 905.53,-994.77 909.37,-1041.34"/>
<polygon fill="#000000" fill-opacity="0.200000" stroke="#000000" stroke-width="2" stroke-opacity="0.200000" points="907.29,-1041.68 909.86,-1047.49 911.48,-1041.34 907.29,-1041.68"/>
</g>
<!-- src/components/styles/styles.ts -->
<g id="node28" class="node">
<title>src/components/styles/styles.ts</title>
<g id="a_node28"><a xlink:href="src/components/styles/styles.ts" xlink:title="styles.ts">
<path fill="#ddfeff" stroke="black" d="M932.5,-499.61C932.5,-499.61 890.5,-499.61 890.5,-499.61 887.5,-499.61 884.5,-496.61 884.5,-493.61 884.5,-493.61 884.5,-487.61 884.5,-487.61 884.5,-484.61 887.5,-481.61 890.5,-481.61 890.5,-481.61 932.5,-481.61 932.5,-481.61 935.5,-481.61 938.5,-484.61 938.5,-487.61 938.5,-487.61 938.5,-493.61 938.5,-493.61 938.5,-496.61 935.5,-499.61 932.5,-499.61"/>
<text text-anchor="middle" x="911.5" y="-488.41" font-family="Helvetica,sans-Serif" font-size="9.00">styles.ts</text>
</a>
</g>
</g>
<!-- src/components/layout/breadcrumbs.tsx&#45;&gt;src/components/styles/styles.ts -->
<g id="edge17" class="edge">
<title>src/components/layout/breadcrumbs.tsx&#45;&gt;src/components/styles/styles.ts</title>
<path fill="none" stroke="#000000" stroke-width="2" stroke-opacity="0.200000" d="M833.57,-633.91C838.78,-631.83 843.74,-629.12 848,-625.61 886.17,-594.1 902.22,-534.11 907.87,-505.94"/>
<polygon fill="#000000" fill-opacity="0.200000" stroke="#000000" stroke-width="2" stroke-opacity="0.200000" points="909.98,-506.1 909.04,-499.81 905.85,-505.31 909.98,-506.1"/>
</g>
<!-- src/hooks/use&#45;site.ts&#45;&gt;src/utils/asserts&#45;non&#45;null.ts -->
<g id="edge32" class="edge">
<title>src/hooks/use&#45;site.ts&#45;&gt;src/utils/asserts&#45;non&#45;null.ts</title>
<path fill="none" stroke="#000000" stroke-width="2" stroke-opacity="0.200000" d="M913.84,-1047.59C926.28,-963.96 1021.44,-324.05 1037.27,-217.6"/>
<polygon fill="#000000" fill-opacity="0.200000" stroke="#000000" stroke-width="2" stroke-opacity="0.200000" points="1039.35,-217.86 1038.16,-211.62 1035.2,-217.25 1039.35,-217.86"/>
</g>
<!-- src/components/layout/footer.tsx -->
<g id="node29" class="node">
<title>src/components/layout/footer.tsx</title>
<g id="a_node29"><a xlink:href="src/components/layout/footer.tsx" xlink:title="footer.tsx">
<path fill="#bbfeff" stroke="black" d="M810,-619.61C810,-619.61 763,-619.61 763,-619.61 760,-619.61 757,-616.61 757,-613.61 757,-613.61 757,-607.61 757,-607.61 757,-604.61 760,-601.61 763,-601.61 763,-601.61 810,-601.61 810,-601.61 813,-601.61 816,-604.61 816,-607.61 816,-607.61 816,-613.61 816,-613.61 816,-616.61 813,-619.61 810,-619.61"/>
<text text-anchor="middle" x="786.5" y="-608.41" font-family="Helvetica,sans-Serif" font-size="9.00">footer.tsx</text>
</a>
</g>
</g>
<!-- src/components/layout/footer.tsx&#45;&gt;src/hooks/use&#45;site.ts -->
<g id="edge18" class="edge">
<title>src/components/layout/footer.tsx&#45;&gt;src/hooks/use&#45;site.ts</title>
<path fill="none" stroke="#000000" stroke-width="2" stroke-opacity="0.200000" d="M816.29,-611.07C827.72,-612.77 840.01,-616.78 848,-625.61 904.91,-688.45 910.07,-971.95 910.48,-1041.28"/>
<polygon fill="#000000" fill-opacity="0.200000" stroke="#000000" stroke-width="2" stroke-opacity="0.200000" points="908.38,-1041.31 910.51,-1047.3 912.58,-1041.29 908.38,-1041.31"/>
</g>
<!-- src/components/layout/header.tsx -->
<g id="node30" class="node">
<title>src/components/layout/header.tsx</title>
<g id="a_node30"><a xlink:href="src/components/layout/header.tsx" xlink:title="header.tsx">
<path fill="#bbfeff" stroke="black" d="M812.5,-589.61C812.5,-589.61 760.5,-589.61 760.5,-589.61 757.5,-589.61 754.5,-586.61 754.5,-583.61 754.5,-583.61 754.5,-577.61 754.5,-577.61 754.5,-574.61 757.5,-571.61 760.5,-571.61 760.5,-571.61 812.5,-571.61 812.5,-571.61 815.5,-571.61 818.5,-574.61 818.5,-577.61 818.5,-577.61 818.5,-583.61 818.5,-583.61 818.5,-586.61 815.5,-589.61 812.5,-589.61"/>
<text text-anchor="middle" x="786.5" y="-578.41" font-family="Helvetica,sans-Serif" font-size="9.00">header.tsx</text>
</a>
</g>
</g>
<!-- src/components/layout/header.tsx&#45;&gt;src/components/atoms/anchor&#45;or&#45;link.tsx -->
<g id="edge19" class="edge">
<title>src/components/layout/header.tsx&#45;&gt;src/components/atoms/anchor&#45;or&#45;link.tsx</title>
<path fill="none" stroke="#000000" stroke-width="2" stroke-opacity="0.200000" d="M818.62,-580.24C829.55,-578.43 840.88,-574.32 848,-565.61 861.02,-549.68 846.31,-398.76 856,-380.61 862.37,-368.68 874.03,-359.39 884.94,-352.78"/>
<polygon fill="#000000" fill-opacity="0.200000" stroke="#000000" stroke-width="2" stroke-opacity="0.200000" points="886.06,-354.56 890.21,-349.75 883.96,-350.92 886.06,-354.56"/>
</g>
<!-- src/components/layout/header.tsx&#45;&gt;src/components/styles/styles.ts -->
<g id="edge20" class="edge">
<title>src/components/layout/header.tsx&#45;&gt;src/components/styles/styles.ts</title>
<path fill="none" stroke="#000000" stroke-width="2" stroke-opacity="0.200000" d="M818.54,-576.81C828.49,-574.61 839.2,-571.12 848,-565.61 872.39,-550.33 891.92,-522.32 902.31,-505.19"/>
<polygon fill="#000000" fill-opacity="0.200000" stroke="#000000" stroke-width="2" stroke-opacity="0.200000" points="904.23,-506.07 905.48,-499.84 900.62,-503.93 904.23,-506.07"/>
</g>
<!-- src/components/layout/index.tsx&#45;&gt;src/components/layout/breadcrumbs.tsx -->
<g id="edge22" class="edge">
<title>src/components/layout/index.tsx&#45;&gt;src/components/layout/breadcrumbs.tsx</title>
<path fill="none" stroke="#000000" stroke-width="2" stroke-opacity="0.200000" d="M664.12,-559.7C676.08,-575.48 702.87,-607.95 733,-625.61 735.21,-626.9 737.53,-628.09 739.93,-629.18"/>
<polygon fill="#000000" fill-opacity="0.200000" stroke="#000000" stroke-width="2" stroke-opacity="0.200000" points="739.27,-631.18 745.62,-631.55 740.89,-627.3 739.27,-631.18"/>
</g>
<!-- src/components/layout/index.tsx&#45;&gt;src/components/layout/footer.tsx -->
<g id="edge23" class="edge">
<title>src/components/layout/index.tsx&#45;&gt;src/components/layout/footer.tsx</title>
<path fill="none" stroke="#000000" stroke-width="2" stroke-opacity="0.200000" d="M670.31,-559.66C684.91,-569.62 709.75,-585.56 733,-595.61 738.68,-598.06 744.87,-600.24 750.95,-602.12"/>
<polygon fill="#000000" fill-opacity="0.200000" stroke="#000000" stroke-width="2" stroke-opacity="0.200000" points="750.62,-604.21 756.97,-603.9 751.81,-600.18 750.62,-604.21"/>
</g>
<!-- src/components/layout/index.tsx&#45;&gt;src/components/layout/header.tsx -->
<g id="edge24" class="edge">
<title>src/components/layout/index.tsx&#45;&gt;src/components/layout/header.tsx</title>
<path fill="none" stroke="#000000" stroke-width="2" stroke-opacity="0.200000" d="M685.59,-557.19C704,-561.5 728.26,-567.19 748.27,-571.88"/>
<polygon fill="#000000" fill-opacity="0.200000" stroke="#000000" stroke-width="2" stroke-opacity="0.200000" points="748.01,-573.98 754.33,-573.3 748.97,-569.89 748.01,-573.98"/>
</g>
<!-- src/components/styles/global.ts -->
<g id="node32" class="node">
<title>src/components/styles/global.ts</title>
<g id="a_node32"><a xlink:href="src/components/styles/global.ts" xlink:title="global.ts">
<path fill="#ddfeff" stroke="black" d="M808,-499.61C808,-499.61 765,-499.61 765,-499.61 762,-499.61 759,-496.61 759,-493.61 759,-493.61 759,-487.61 759,-487.61 759,-484.61 762,-481.61 765,-481.61 765,-481.61 808,-481.61 808,-481.61 811,-481.61 814,-484.61 814,-487.61 814,-487.61 814,-493.61 814,-493.61 814,-496.61 811,-499.61 808,-499.61"/>
<text text-anchor="middle" x="786.5" y="-488.41" font-family="Helvetica,sans-Serif" font-size="9.00">global.ts</text>
</a>
</g>
</g>
<!-- src/components/layout/index.tsx&#45;&gt;src/components/styles/global.ts -->
<g id="edge21" class="edge">
<title>src/components/layout/index.tsx&#45;&gt;src/components/styles/global.ts</title>
<path fill="none" stroke="#000000" stroke-width="2" stroke-opacity="0.200000" d="M676.94,-541.49C699.34,-530.99 736.21,-513.71 760.67,-502.25"/>
<polygon fill="#000000" fill-opacity="0.200000" stroke="#000000" stroke-width="2" stroke-opacity="0.200000" points="761.75,-504.06 766.3,-499.61 759.97,-500.25 761.75,-504.06"/>
</g>
<!-- src/components/layout/title.tsx -->
<g id="node33" class="node">
<title>src/components/layout/title.tsx</title>
<g id="a_node33"><a xlink:href="src/components/layout/title.tsx" xlink:title="title.tsx">
<path fill="#bbfeff" stroke="black" d="M807.5,-559.61C807.5,-559.61 765.5,-559.61 765.5,-559.61 762.5,-559.61 759.5,-556.61 759.5,-553.61 759.5,-553.61 759.5,-547.61 759.5,-547.61 759.5,-544.61 762.5,-541.61 765.5,-541.61 765.5,-541.61 807.5,-541.61 807.5,-541.61 810.5,-541.61 813.5,-544.61 813.5,-547.61 813.5,-547.61 813.5,-553.61 813.5,-553.61 813.5,-556.61 810.5,-559.61 807.5,-559.61"/>
<text text-anchor="middle" x="786.5" y="-548.41" font-family="Helvetica,sans-Serif" font-size="9.00">title.tsx</text>
</a>
</g>
</g>
<!-- src/components/layout/index.tsx&#45;&gt;src/components/layout/title.tsx -->
<g id="edge25" class="edge">
<title>src/components/layout/index.tsx&#45;&gt;src/components/layout/title.tsx</title>
<path fill="none" stroke="#000000" stroke-width="2" stroke-opacity="0.200000" d="M685.59,-550.61C705.46,-550.61 732.17,-550.61 752.97,-550.61"/>
<polygon fill="#000000" fill-opacity="0.200000" stroke="#000000" stroke-width="2" stroke-opacity="0.200000" points="753.22,-552.71 759.22,-550.61 753.22,-548.51 753.22,-552.71"/>
</g>
<!-- src/components/styles/global.ts&#45;&gt;src/components/styles/styles.ts -->
<g id="edge31" class="edge">
<title>src/components/styles/global.ts&#45;&gt;src/components/styles/styles.ts</title>
<path fill="none" stroke="#000000" stroke-width="2" stroke-opacity="0.200000" d="M814.19,-490.61C833.01,-490.61 858.33,-490.61 878.28,-490.61"/>
<polygon fill="#000000" fill-opacity="0.200000" stroke="#000000" stroke-width="2" stroke-opacity="0.200000" points="878.29,-492.71 884.29,-490.61 878.29,-488.51 878.29,-492.71"/>
</g>
<!-- src/components/styles/prism&#45;styles.ts -->
<g id="node37" class="node">
<title>src/components/styles/prism&#45;styles.ts</title>
<g id="a_node37"><a xlink:href="src/components/styles/prism-styles.ts" xlink:title="prism&#45;styles.ts">
<path fill="#ddfeff" stroke="black" d="M946.5,-469.61C946.5,-469.61 876.5,-469.61 876.5,-469.61 873.5,-469.61 870.5,-466.61 870.5,-463.61 870.5,-463.61 870.5,-457.61 870.5,-457.61 870.5,-454.61 873.5,-451.61 876.5,-451.61 876.5,-451.61 946.5,-451.61 946.5,-451.61 949.5,-451.61 952.5,-454.61 952.5,-457.61 952.5,-457.61 952.5,-463.61 952.5,-463.61 952.5,-466.61 949.5,-469.61 946.5,-469.61"/>
<text text-anchor="middle" x="911.5" y="-458.41" font-family="Helvetica,sans-Serif" font-size="9.00">prism&#45;styles.ts</text>
</a>
</g>
</g>
<!-- src/components/styles/global.ts&#45;&gt;src/components/styles/prism&#45;styles.ts -->
<g id="edge30" class="edge">
<title>src/components/styles/global.ts&#45;&gt;src/components/styles/prism&#45;styles.ts</title>
<path fill="none" stroke="#000000" stroke-width="2" stroke-opacity="0.200000" d="M814.19,-484.1C829.8,-480.29 849.89,-475.39 867.67,-471.05"/>
<polygon fill="#000000" fill-opacity="0.200000" stroke="#000000" stroke-width="2" stroke-opacity="0.200000" points="868.27,-473.07 873.6,-469.61 867.27,-468.99 868.27,-473.07"/>
</g>
<!-- src/components/post&#45;link/post&#45;date.tsx -->
<g id="node34" class="node">
<title>src/components/post&#45;link/post&#45;date.tsx</title>
<g id="a_node34"><a xlink:href="src/components/post-link/post-date.tsx" xlink:title="post&#45;date.tsx">
<path fill="#bbfeff" stroke="black" d="M943.5,-409.61C943.5,-409.61 879.5,-409.61 879.5,-409.61 876.5,-409.61 873.5,-406.61 873.5,-403.61 873.5,-403.61 873.5,-397.61 873.5,-397.61 873.5,-394.61 876.5,-391.61 879.5,-391.61 879.5,-391.61 943.5,-391.61 943.5,-391.61 946.5,-391.61 949.5,-394.61 949.5,-397.61 949.5,-397.61 949.5,-403.61 949.5,-403.61 949.5,-406.61 946.5,-409.61 943.5,-409.61"/>
<text text-anchor="middle" x="911.5" y="-398.41" font-family="Helvetica,sans-Serif" font-size="9.00">post&#45;date.tsx</text>
</a>
</g>
</g>
<!-- src/components/post&#45;link/post&#45;link.tsx -->
<g id="node35" class="node">
<title>src/components/post&#45;link/post&#45;link.tsx</title>
<g id="a_node35"><a xlink:href="src/components/post-link/post-link.tsx" xlink:title="post&#45;link.tsx">
<path fill="#bbfeff" stroke="black" d="M816,-409.61C816,-409.61 757,-409.61 757,-409.61 754,-409.61 751,-406.61 751,-403.61 751,-403.61 751,-397.61 751,-397.61 751,-394.61 754,-391.61 757,-391.61 757,-391.61 816,-391.61 816,-391.61 819,-391.61 822,-394.61 822,-397.61 822,-397.61 822,-403.61 822,-403.61 822,-406.61 819,-409.61 816,-409.61"/>
<text text-anchor="middle" x="786.5" y="-398.41" font-family="Helvetica,sans-Serif" font-size="9.00">post&#45;link.tsx</text>
</a>
</g>
</g>
<!-- src/components/post&#45;link/post&#45;link.tsx&#45;&gt;src/components/atoms/tag&#45;list.tsx -->
<g id="edge26" class="edge">
<title>src/components/post&#45;link/post&#45;link.tsx&#45;&gt;src/components/atoms/tag&#45;list.tsx</title>
<path fill="none" stroke="#000000" stroke-width="2" stroke-opacity="0.200000" d="M793.28,-391.46C803.79,-375.6 827.58,-343.02 856,-325.61 861.27,-322.38 867.25,-319.83 873.27,-317.82"/>
<polygon fill="#000000" fill-opacity="0.200000" stroke="#000000" stroke-width="2" stroke-opacity="0.200000" points="874.15,-319.75 879.27,-315.99 872.92,-315.73 874.15,-319.75"/>
</g>
<!-- src/components/post&#45;link/post&#45;link.tsx&#45;&gt;src/components/styles/styles.ts -->
<g id="edge27" class="edge">
<title>src/components/post&#45;link/post&#45;link.tsx&#45;&gt;src/components/styles/styles.ts</title>
<path fill="none" stroke="#000000" stroke-width="2" stroke-opacity="0.200000" d="M809.08,-409.75C822.27,-416.43 838.39,-426.74 848,-440.61 857.08,-453.73 844.97,-464.08 856,-475.61 861.84,-481.71 869.91,-485.4 878.06,-487.62"/>
<polygon fill="#000000" fill-opacity="0.200000" stroke="#000000" stroke-width="2" stroke-opacity="0.200000" points="877.95,-489.75 884.26,-489.04 878.88,-485.65 877.95,-489.75"/>
</g>
<!-- src/components/post&#45;link/post&#45;link.tsx&#45;&gt;src/components/post&#45;link/post&#45;date.tsx -->
<g id="edge28" class="edge">
<title>src/components/post&#45;link/post&#45;link.tsx&#45;&gt;src/components/post&#45;link/post&#45;date.tsx</title>
<path fill="none" stroke="#000000" stroke-width="2" stroke-opacity="0.200000" d="M822.09,-400.61C836.02,-400.61 852.24,-400.61 866.95,-400.61"/>
<polygon fill="#000000" fill-opacity="0.200000" stroke="#000000" stroke-width="2" stroke-opacity="0.200000" points="867.16,-402.71 873.16,-400.61 867.16,-398.51 867.16,-402.71"/>
</g>
<!-- src/components/post&#45;link/post&#45;list.tsx -->
<g id="node36" class="node">
<title>src/components/post&#45;link/post&#45;list.tsx</title>
<g id="a_node36"><a xlink:href="src/components/post-link/post-list.tsx" xlink:title="post&#45;list.tsx">
<path fill="#bbfeff" stroke="black" d="M684.5,-409.61C684.5,-409.61 628.5,-409.61 628.5,-409.61 625.5,-409.61 622.5,-406.61 622.5,-403.61 622.5,-403.61 622.5,-397.61 622.5,-397.61 622.5,-394.61 625.5,-391.61 628.5,-391.61 628.5,-391.61 684.5,-391.61 684.5,-391.61 687.5,-391.61 690.5,-394.61 690.5,-397.61 690.5,-397.61 690.5,-403.61 690.5,-403.61 690.5,-406.61 687.5,-409.61 684.5,-409.61"/>
<text text-anchor="middle" x="656.5" y="-398.41" font-family="Helvetica,sans-Serif" font-size="9.00">post&#45;list.tsx</text>
</a>
</g>
</g>
<!-- src/components/post&#45;link/post&#45;list.tsx&#45;&gt;src/components/post&#45;link/post&#45;link.tsx -->
<g id="edge29" class="edge">
<title>src/components/post&#45;link/post&#45;list.tsx&#45;&gt;src/components/post&#45;link/post&#45;link.tsx</title>
<path fill="none" stroke="#000000" stroke-width="2" stroke-opacity="0.200000" d="M690.8,-400.61C707.16,-400.61 727.03,-400.61 744.33,-400.61"/>
<polygon fill="#000000" fill-opacity="0.200000" stroke="#000000" stroke-width="2" stroke-opacity="0.200000" points="744.58,-402.71 750.58,-400.61 744.58,-398.51 744.58,-402.71"/>
</g>
<!-- src/components/styles/mediaQueries.ts -->
<g id="node38" class="node">
<title>src/components/styles/mediaQueries.ts</title>
<g id="a_node38"><a xlink:href="src/components/styles/mediaQueries.ts" xlink:title="mediaQueries.ts">
<path fill="#ccffcc" stroke="black" d="M825,-469.61C825,-469.61 748,-469.61 748,-469.61 745,-469.61 742,-466.61 742,-463.61 742,-463.61 742,-457.61 742,-457.61 742,-454.61 745,-451.61 748,-451.61 748,-451.61 825,-451.61 825,-451.61 828,-451.61 831,-454.61 831,-457.61 831,-457.61 831,-463.61 831,-463.61 831,-466.61 828,-469.61 825,-469.61"/>
<text text-anchor="middle" x="786.5" y="-458.41" font-family="Helvetica,sans-Serif" font-size="9.00">mediaQueries.ts</text>
</a>
</g>
</g>
<!-- src/pages/404.tsx -->
<g id="node40" class="node">
<title>src/pages/404.tsx</title>
<g id="a_node40"><a xlink:href="src/pages/404.tsx" xlink:title="404.tsx">
<path fill="#bbfeff" stroke="black" d="M401.5,-561.61C401.5,-561.61 359.5,-561.61 359.5,-561.61 356.5,-561.61 353.5,-558.61 353.5,-555.61 353.5,-555.61 353.5,-549.61 353.5,-549.61 353.5,-546.61 356.5,-543.61 359.5,-543.61 359.5,-543.61 401.5,-543.61 401.5,-543.61 404.5,-543.61 407.5,-546.61 407.5,-549.61 407.5,-549.61 407.5,-555.61 407.5,-555.61 407.5,-558.61 404.5,-561.61 401.5,-561.61"/>
<text text-anchor="middle" x="380.5" y="-550.41" font-family="Helvetica,sans-Serif" font-size="9.00">404.tsx</text>
</a>
</g>
</g>
<!-- src/pages/404.tsx&#45;&gt;src/components/layout/index.tsx -->
<g id="edge33" class="edge">
<title>src/pages/404.tsx&#45;&gt;src/components/layout/index.tsx</title>
<path fill="none" stroke="#000000" stroke-width="2" stroke-opacity="0.200000" d="M407.77,-552.41C457.56,-552.05 565.61,-551.26 621.09,-550.86"/>
<polygon fill="#000000" fill-opacity="0.200000" stroke="#000000" stroke-width="2" stroke-opacity="0.200000" points="621.28,-552.96 627.27,-550.81 621.25,-548.76 621.28,-552.96"/>
</g>
<!-- src/pages/index.tsx -->
<g id="node41" class="node">
<title>src/pages/index.tsx</title>
<g id="a_node41"><a xlink:href="src/pages/index.tsx" xlink:title="index.tsx">
<path fill="#bbfeff" stroke="black" d="M403.5,-501.61C403.5,-501.61 357.5,-501.61 357.5,-501.61 354.5,-501.61 351.5,-498.61 351.5,-495.61 351.5,-495.61 351.5,-489.61 351.5,-489.61 351.5,-486.61 354.5,-483.61 357.5,-483.61 357.5,-483.61 403.5,-483.61 403.5,-483.61 406.5,-483.61 409.5,-486.61 409.5,-489.61 409.5,-489.61 409.5,-495.61 409.5,-495.61 409.5,-498.61 406.5,-501.61 403.5,-501.61"/>
<text text-anchor="middle" x="380.5" y="-490.41" font-family="Helvetica,sans-Serif" font-size="9.00">index.tsx</text>
</a>
</g>
</g>
<!-- src/pages/index.tsx&#45;&gt;src/templates/post&#45;list&#45;page.tsx -->
<g id="edge34" class="edge">
<title>src/pages/index.tsx&#45;&gt;src/templates/post&#45;list&#45;page.tsx</title>
<path fill="none" stroke="#000000" stroke-width="2" stroke-opacity="0.200000" d="M386.46,-483.41C406.81,-445.73 483.91,-302.96 508.74,-256.97"/>
<polygon fill="#000000" fill-opacity="0.200000" stroke="#000000" stroke-width="2" stroke-opacity="0.200000" points="510.63,-257.9 511.63,-251.62 506.93,-255.9 510.63,-257.9"/>
</g>
<!-- src/templates/post&#45;list&#45;page.tsx&#45;&gt;src/components/layout/index.tsx -->
<g id="edge51" class="edge">
<title>src/templates/post&#45;list&#45;page.tsx&#45;&gt;src/components/layout/index.tsx</title>
<path fill="none" stroke="#000000" stroke-width="2" stroke-opacity="0.200000" d="M526.01,-251.71C537.26,-265.81 558.39,-294.16 570,-321.61 590.77,-370.71 578.03,-388.59 596.5,-438.61 610.07,-475.35 633.35,-515.22 646.23,-536.06"/>
<polygon fill="#000000" fill-opacity="0.200000" stroke="#000000" stroke-width="2" stroke-opacity="0.200000" points="644.62,-537.43 649.58,-541.41 648.18,-535.21 644.62,-537.43"/>
</g>
<!-- src/templates/post&#45;list&#45;page.tsx&#45;&gt;src/components/post&#45;link/post&#45;list.tsx -->
<g id="edge52" class="edge">
<title>src/templates/post&#45;list&#45;page.tsx&#45;&gt;src/components/post&#45;link/post&#45;list.tsx</title>
<path fill="none" stroke="#000000" stroke-width="2" stroke-opacity="0.200000" d="M526.66,-252.02C549.84,-278.76 616.19,-355.27 643.52,-386.79"/>
<polygon fill="#000000" fill-opacity="0.200000" stroke="#000000" stroke-width="2" stroke-opacity="0.200000" points="642.04,-388.29 647.55,-391.44 645.21,-385.53 642.04,-388.29"/>
</g>
<!-- src/pages/tags.tsx -->
<g id="node43" class="node">
<title>src/pages/tags.tsx</title>
<g id="a_node43"><a xlink:href="src/pages/tags.tsx" xlink:title="tags.tsx">
<path fill="#bbfeff" stroke="black" d="M401.5,-531.61C401.5,-531.61 359.5,-531.61 359.5,-531.61 356.5,-531.61 353.5,-528.61 353.5,-525.61 353.5,-525.61 353.5,-519.61 353.5,-519.61 353.5,-516.61 356.5,-513.61 359.5,-513.61 359.5,-513.61 401.5,-513.61 401.5,-513.61 404.5,-513.61 407.5,-516.61 407.5,-519.61 407.5,-519.61 407.5,-525.61 407.5,-525.61 407.5,-528.61 404.5,-531.61 401.5,-531.61"/>
<text text-anchor="middle" x="380.5" y="-520.41" font-family="Helvetica,sans-Serif" font-size="9.00">tags.tsx</text>
</a>
</g>
</g>
<!-- src/pages/tags.tsx&#45;&gt;src/components/article/index.tsx -->
<g id="edge35" class="edge">
<title>src/pages/tags.tsx&#45;&gt;src/components/article/index.tsx</title>
<path fill="none" stroke="#000000" stroke-width="2" stroke-opacity="0.200000" d="M407.73,-522.17C422.35,-523.28 439.97,-527.03 452,-537.61 461.09,-545.6 588.02,-939.97 596.5,-948.61 603.28,-955.52 612.44,-960.28 621.51,-963.56"/>
<polygon fill="#000000" fill-opacity="0.200000" stroke="#000000" stroke-width="2" stroke-opacity="0.200000" points="621.08,-965.62 627.43,-965.5 622.39,-961.63 621.08,-965.62"/>
</g>
<!-- src/pages/tags.tsx&#45;&gt;src/components/layout/index.tsx -->
<g id="edge36" class="edge">
<title>src/pages/tags.tsx&#45;&gt;src/components/layout/index.tsx</title>
<path fill="none" stroke="#000000" stroke-width="2" stroke-opacity="0.200000" d="M407.53,-522.72C444.01,-523.17 512.32,-525.05 570,-532.61 587,-534.83 605.65,-538.6 621.18,-542.12"/>
<polygon fill="#000000" fill-opacity="0.200000" stroke="#000000" stroke-width="2" stroke-opacity="0.200000" points="620.87,-544.2 627.19,-543.5 621.81,-540.11 620.87,-544.2"/>
</g>
<!-- src/pages/tags.tsx&#45;&gt;src/components/post&#45;link/post&#45;list.tsx -->
<g id="edge37" class="edge">
<title>src/pages/tags.tsx&#45;&gt;src/components/post&#45;link/post&#45;list.tsx</title>
<path fill="none" stroke="#000000" stroke-width="2" stroke-opacity="0.200000" d="M407.76,-518.79C421.23,-516.39 437.76,-512.75 452,-507.61 523.27,-481.85 600.75,-435.45 636.03,-413.19"/>
<polygon fill="#000000" fill-opacity="0.200000" stroke="#000000" stroke-width="2" stroke-opacity="0.200000" points="637.38,-414.82 641.32,-409.83 635.13,-411.27 637.38,-414.82"/>
</g>
<!-- src/pages/tags.tsx&#45;&gt;src/components/table&#45;of&#45;contents/index.tsx -->
<g id="edge38" class="edge">
<title>src/pages/tags.tsx&#45;&gt;src/components/table&#45;of&#45;contents/index.tsx</title>
<path fill="none" stroke="#000000" stroke-width="2" stroke-opacity="0.200000" d="M407.65,-521.87C448.46,-522.23 527.05,-529.25 570,-574.61 602.8,-609.24 564.63,-643.12 596.5,-678.61 603.09,-685.95 612.37,-690.85 621.62,-694.12"/>
<polygon fill="#000000" fill-opacity="0.200000" stroke="#000000" stroke-width="2" stroke-opacity="0.200000" points="621,-696.12 627.36,-695.95 622.28,-692.12 621,-696.12"/>
</g>
<!-- src/templates/blog&#45;post&#45;template/article&#45;elements.tsx&#45;&gt;src/utils/asserts&#45;non&#45;null.ts -->
<g id="edge42" class="edge">
<title>src/templates/blog&#45;post&#45;template/article&#45;elements.tsx&#45;&gt;src/utils/asserts&#45;non&#45;null.ts</title>
<path fill="none" stroke="#000000" stroke-width="2" stroke-opacity="0.200000" d="M535.89,-121.48C551.33,-113.92 574.75,-103.77 596.5,-99.61 652.16,-88.95 667.51,-95.08 724,-99.61 779.65,-104.07 794.89,-102.4 848,-119.61 911.91,-140.31 920.2,-163.75 983,-187.61 986.98,-189.12 991.17,-190.54 995.4,-191.85"/>
<polygon fill="#000000" fill-opacity="0.200000" stroke="#000000" stroke-width="2" stroke-opacity="0.200000" points="994.82,-193.87 1001.17,-193.58 996.02,-189.85 994.82,-193.87"/>
</g>
<!-- src/templates/blog&#45;post&#45;template/article&#45;elements.tsx&#45;&gt;src/components/atoms/anchor&#45;or&#45;link.tsx -->
<g id="edge41" class="edge">
<title>src/templates/blog&#45;post&#45;template/article&#45;elements.tsx&#45;&gt;src/components/atoms/anchor&#45;or&#45;link.tsx</title>
<path fill="none" stroke="#000000" stroke-width="2" stroke-opacity="0.200000" d="M540.57,-121.58C580.13,-106.92 664.51,-82.73 724,-115.61 820.49,-168.92 767.52,-259.85 856,-325.61 857.58,-326.78 859.24,-327.86 860.96,-328.85"/>
<polygon fill="#000000" fill-opacity="0.200000" stroke="#000000" stroke-width="2" stroke-opacity="0.200000" points="860.01,-330.72 866.3,-331.59 861.92,-326.99 860.01,-330.72"/>
</g>
<!-- src/templates/blog&#45;post&#45;template/autolink&#45;header.tsx -->
<g id="node45" class="node">
<title>src/templates/blog&#45;post&#45;template/autolink&#45;header.tsx</title>
<g id="a_node45"><a xlink:href="src/templates/blog-post-template/autolink-header.tsx" xlink:title="autolink&#45;header.tsx">
<path fill="#bbfeff" stroke="black" d="M702,-139.61C702,-139.61 611,-139.61 611,-139.61 608,-139.61 605,-136.61 605,-133.61 605,-133.61 605,-127.61 605,-127.61 605,-124.61 608,-121.61 611,-121.61 611,-121.61 702,-121.61 702,-121.61 705,-121.61 708,-124.61 708,-127.61 708,-127.61 708,-133.61 708,-133.61 708,-136.61 705,-139.61 702,-139.61"/>
<text text-anchor="middle" x="656.5" y="-128.41" font-family="Helvetica,sans-Serif" font-size="9.00">autolink&#45;header.tsx</text>
</a>
</g>
</g>
<!-- src/templates/blog&#45;post&#45;template/article&#45;elements.tsx&#45;&gt;src/templates/blog&#45;post&#45;template/autolink&#45;header.tsx -->
<g id="edge43" class="edge">
<title>src/templates/blog&#45;post&#45;template/article&#45;elements.tsx&#45;&gt;src/templates/blog&#45;post&#45;template/autolink&#45;header.tsx</title>
<path fill="none" stroke="#000000" stroke-width="2" stroke-opacity="0.200000" d="M570.29,-130.61C579.62,-130.61 589.38,-130.61 598.83,-130.61"/>
<polygon fill="#000000" fill-opacity="0.200000" stroke="#000000" stroke-width="2" stroke-opacity="0.200000" points="598.99,-132.71 604.99,-130.61 598.99,-128.51 598.99,-132.71"/>
</g>
<!-- src/utils/proto&#45;ext.ts -->
<g id="node46" class="node">
<title>src/utils/proto&#45;ext.ts</title>
<g id="a_node46"><a xlink:href="src/utils/proto-ext.ts" xlink:title="proto&#45;ext.ts">
<path fill="#ccffcc" stroke="black" d="M1069.5,-181.61C1069.5,-181.61 1011.5,-181.61 1011.5,-181.61 1008.5,-181.61 1005.5,-178.61 1005.5,-175.61 1005.5,-175.61 1005.5,-169.61 1005.5,-169.61 1005.5,-166.61 1008.5,-163.61 1011.5,-163.61 1011.5,-163.61 1069.5,-163.61 1069.5,-163.61 1072.5,-163.61 1075.5,-166.61 1075.5,-169.61 1075.5,-169.61 1075.5,-175.61 1075.5,-175.61 1075.5,-178.61 1072.5,-181.61 1069.5,-181.61"/>
<text text-anchor="middle" x="1040.5" y="-170.41" font-family="Helvetica,sans-Serif" font-size="9.00">proto&#45;ext.ts</text>
</a>
</g>
</g>
<!-- src/utils/react&#45;fcx.d.ts -->
<g id="node47" class="node">
<title>src/utils/react&#45;fcx.d.ts</title>
<g id="a_node47"><a xlink:href="src/utils/react-fcx.d.ts" xlink:title="react&#45;fcx.d.ts">
<path fill="#ccffcc" stroke="black" d="M1073,-151.61C1073,-151.61 1008,-151.61 1008,-151.61 1005,-151.61 1002,-148.61 1002,-145.61 1002,-145.61 1002,-139.61 1002,-139.61 1002,-136.61 1005,-133.61 1008,-133.61 1008,-133.61 1073,-133.61 1073,-133.61 1076,-133.61 1079,-136.61 1079,-139.61 1079,-139.61 1079,-145.61 1079,-145.61 1079,-148.61 1076,-151.61 1073,-151.61"/>
<text text-anchor="middle" x="1040.5" y="-140.41" font-family="Helvetica,sans-Serif" font-size="9.00">react&#45;fcx.d.ts</text>
</a>
</g>
</g>
<!-- src/utils/svg.d.ts -->
<g id="node48" class="node">
<title>src/utils/svg.d.ts</title>
<g id="a_node48"><a xlink:href="src/utils/svg.d.ts" xlink:title="svg.d.ts">
<path fill="#ccffcc" stroke="black" d="M1061.5,-121.61C1061.5,-121.61 1019.5,-121.61 1019.5,-121.61 1016.5,-121.61 1013.5,-118.61 1013.5,-115.61 1013.5,-115.61 1013.5,-109.61 1013.5,-109.61 1013.5,-106.61 1016.5,-103.61 1019.5,-103.61 1019.5,-103.61 1061.5,-103.61 1061.5,-103.61 1064.5,-103.61 1067.5,-106.61 1067.5,-109.61 1067.5,-109.61 1067.5,-115.61 1067.5,-115.61 1067.5,-118.61 1064.5,-121.61 1061.5,-121.61"/>
<text text-anchor="middle" x="1040.5" y="-110.41" font-family="Helvetica,sans-Serif" font-size="9.00">svg.d.ts</text>
</a>
</g>
</g>
<!-- src/utils/type&#45;utils.ts -->
<g id="node49" class="node">
<title>src/utils/type&#45;utils.ts</title>
<g id="a_node49"><a xlink:href="src/utils/type-utils.ts" xlink:title="type&#45;utils.ts">
<path fill="#ccffcc" stroke="black" d="M1069.5,-91.61C1069.5,-91.61 1011.5,-91.61 1011.5,-91.61 1008.5,-91.61 1005.5,-88.61 1005.5,-85.61 1005.5,-85.61 1005.5,-79.61 1005.5,-79.61 1005.5,-76.61 1008.5,-73.61 1011.5,-73.61 1011.5,-73.61 1069.5,-73.61 1069.5,-73.61 1072.5,-73.61 1075.5,-76.61 1075.5,-79.61 1075.5,-79.61 1075.5,-85.61 1075.5,-85.61 1075.5,-88.61 1072.5,-91.61 1069.5,-91.61"/>
<text text-anchor="middle" x="1040.5" y="-80.41" font-family="Helvetica,sans-Serif" font-size="9.00">type&#45;utils.ts</text>
</a>
</g>
</g>
</g>
</svg>
