<?xml version="1.0" encoding="UTF-8" standalone="no"?>
<!DOCTYPE svg PUBLIC "-//W3C//DTD SVG 1.1//EN"
 "http://www.w3.org/Graphics/SVG/1.1/DTD/svg11.dtd">
<!-- Generated by graphviz version 2.40.1 (20161225.0304)
 -->
<!-- Title: dependency&#45;cruiser output Pages: 1 -->
<svg width="1188pt" height="1296pt"
 viewBox="0.00 0.00 1188.00 1295.69" xmlns="http://www.w3.org/2000/svg" xmlns:xlink="http://www.w3.org/1999/xlink">
<g id="graph0" class="graph" transform="scale(1 1) rotate(0) translate(4 1291.694)">
<title>dependency&#45;cruiser output</title>
<polygon fill="#ffffff" stroke="transparent" points="-4,4 -4,-1291.694 1184,-1291.694 1184,4 -4,4"/>
<g id="clust1" class="cluster">
<title>cluster_gatsby</title>
<path fill="#ffffff" stroke="#000000" stroke-width="2" d="M115,-1103.694C115,-1103.694 427.5,-1103.694 427.5,-1103.694 433.5,-1103.694 439.5,-1109.694 439.5,-1115.694 439.5,-1115.694 439.5,-1267.694 439.5,-1267.694 439.5,-1273.694 433.5,-1279.694 427.5,-1279.694 427.5,-1279.694 115,-1279.694 115,-1279.694 109,-1279.694 103,-1273.694 103,-1267.694 103,-1267.694 103,-1115.694 103,-1115.694 103,-1109.694 109,-1103.694 115,-1103.694"/>
<text text-anchor="middle" x="271.25" y="-1268.494" font-family="Helvetica,sans-Serif" font-weight="bold" font-size="9.00" fill="#000000">gatsby</text>
</g>
<g id="clust2" class="cluster">
<title>cluster_gatsby/browser</title>
<path fill="#ffffff" stroke="#000000" stroke-width="2" d="M123,-1201.694C123,-1201.694 169,-1201.694 169,-1201.694 175,-1201.694 181,-1207.694 181,-1213.694 181,-1213.694 181,-1241.694 181,-1241.694 181,-1247.694 175,-1253.694 169,-1253.694 169,-1253.694 123,-1253.694 123,-1253.694 117,-1253.694 111,-1247.694 111,-1241.694 111,-1241.694 111,-1213.694 111,-1213.694 111,-1207.694 117,-1201.694 123,-1201.694"/>
<text text-anchor="middle" x="146" y="-1242.494" font-family="Helvetica,sans-Serif" font-weight="bold" font-size="9.00" fill="#000000">browser</text>
</g>
<g id="clust3" class="cluster">
<title>cluster_gatsby/node</title>
<path fill="#ffffff" stroke="#000000" stroke-width="2" d="M123,-1111.694C123,-1111.694 419.5,-1111.694 419.5,-1111.694 425.5,-1111.694 431.5,-1117.694 431.5,-1123.694 431.5,-1123.694 431.5,-1181.694 431.5,-1181.694 431.5,-1187.694 425.5,-1193.694 419.5,-1193.694 419.5,-1193.694 123,-1193.694 123,-1193.694 117,-1193.694 111,-1187.694 111,-1181.694 111,-1181.694 111,-1123.694 111,-1123.694 111,-1117.694 117,-1111.694 123,-1111.694"/>
<text text-anchor="middle" x="271.25" y="-1182.494" font-family="Helvetica,sans-Serif" font-weight="bold" font-size="9.00" fill="#000000">node</text>
</g>
<g id="clust4" class="cluster">
<title>cluster_src</title>
<path fill="#ffffff" stroke="#000000" stroke-width="2" d="M305,-57.694C305,-57.694 1160,-57.694 1160,-57.694 1166,-57.694 1172,-63.694 1172,-69.694 1172,-69.694 1172,-1083.694 1172,-1083.694 1172,-1089.694 1166,-1095.694 1160,-1095.694 1160,-1095.694 305,-1095.694 305,-1095.694 299,-1095.694 293,-1089.694 293,-1083.694 293,-1083.694 293,-69.694 293,-69.694 293,-63.694 299,-57.694 305,-57.694"/>
<text text-anchor="middle" x="732.5" y="-1084.494" font-family="Helvetica,sans-Serif" font-weight="bold" font-size="9.00" fill="#000000">src</text>
</g>
<g id="clust5" class="cluster">
<title>cluster_src/@types</title>
<path fill="#ffffff" stroke="#000000" stroke-width="2" d="M341.5,-792.694C341.5,-792.694 419.5,-792.694 419.5,-792.694 425.5,-792.694 431.5,-798.694 431.5,-804.694 431.5,-804.694 431.5,-832.694 431.5,-832.694 431.5,-838.694 425.5,-844.694 419.5,-844.694 419.5,-844.694 341.5,-844.694 341.5,-844.694 335.5,-844.694 329.5,-838.694 329.5,-832.694 329.5,-832.694 329.5,-804.694 329.5,-804.694 329.5,-798.694 335.5,-792.694 341.5,-792.694"/>
<text text-anchor="middle" x="380.5" y="-833.494" font-family="Helvetica,sans-Serif" font-weight="bold" font-size="9.00" fill="#000000">@types</text>
</g>
<g id="clust6" class="cluster">
<title>cluster_src/components</title>
<path fill="#ffffff" stroke="#000000" stroke-width="2" d="M608.5,-299.694C608.5,-299.694 962,-299.694 962,-299.694 968,-299.694 974,-305.694 974,-311.694 974,-311.694 974,-973.694 974,-973.694 974,-979.694 968,-985.694 962,-985.694 962,-985.694 608.5,-985.694 608.5,-985.694 602.5,-985.694 596.5,-979.694 596.5,-973.694 596.5,-973.694 596.5,-311.694 596.5,-311.694 596.5,-305.694 602.5,-299.694 608.5,-299.694"/>
<text text-anchor="middle" x="785.25" y="-974.494" font-family="Helvetica,sans-Serif" font-weight="bold" font-size="9.00" fill="#000000">components</text>
</g>
<g id="clust7" class="cluster">
<title>cluster_src/components/article</title>
<path fill="#ffffff" stroke="#000000" stroke-width="2" d="M631.5,-907.694C631.5,-907.694 824.5,-907.694 824.5,-907.694 830.5,-907.694 836.5,-913.694 836.5,-919.694 836.5,-919.694 836.5,-947.694 836.5,-947.694 836.5,-953.694 830.5,-959.694 824.5,-959.694 824.5,-959.694 631.5,-959.694 631.5,-959.694 625.5,-959.694 619.5,-953.694 619.5,-947.694 619.5,-947.694 619.5,-919.694 619.5,-919.694 619.5,-913.694 625.5,-907.694 631.5,-907.694"/>
<text text-anchor="middle" x="728" y="-948.494" font-family="Helvetica,sans-Serif" font-weight="bold" font-size="9.00" fill="#000000">article</text>
</g>
<g id="clust8" class="cluster">
<title>cluster_src/components/atoms</title>
<path fill="#ffffff" stroke="#000000" stroke-width="2" d="M868,-307.694C868,-307.694 954,-307.694 954,-307.694 960,-307.694 966,-313.694 966,-319.694 966,-319.694 966,-377.694 966,-377.694 966,-383.694 960,-389.694 954,-389.694 954,-389.694 868,-389.694 868,-389.694 862,-389.694 856,-383.694 856,-377.694 856,-377.694 856,-319.694 856,-319.694 856,-313.694 862,-307.694 868,-307.694"/>
<text text-anchor="middle" x="911" y="-378.494" font-family="Helvetica,sans-Serif" font-weight="bold" font-size="9.00" fill="#000000">atoms</text>
</g>
<g id="clust9" class="cluster">
<title>cluster_src/components/color&#45;checker</title>
<path fill="#ffffff" stroke="#000000" stroke-width="2" d="M626.5,-847.694C626.5,-847.694 687.5,-847.694 687.5,-847.694 693.5,-847.694 699.5,-853.694 699.5,-859.694 699.5,-859.694 699.5,-887.694 699.5,-887.694 699.5,-893.694 693.5,-899.694 687.5,-899.694 687.5,-899.694 626.5,-899.694 626.5,-899.694 620.5,-899.694 614.5,-893.694 614.5,-887.694 614.5,-887.694 614.5,-859.694 614.5,-859.694 614.5,-853.694 620.5,-847.694 626.5,-847.694"/>
<text text-anchor="middle" x="657" y="-888.494" font-family="Helvetica,sans-Serif" font-weight="bold" font-size="9.00" fill="#000000">color&#45;checker</text>
</g>
<g id="clust10" class="cluster">
<title>cluster_src/components/embeddeds</title>
<path fill="#ffffff" stroke="#000000" stroke-width="2" d="M625,-757.694C625,-757.694 688,-757.694 688,-757.694 694,-757.694 700,-763.694 700,-769.694 700,-769.694 700,-827.694 700,-827.694 700,-833.694 694,-839.694 688,-839.694 688,-839.694 625,-839.694 625,-839.694 619,-839.694 613,-833.694 613,-827.694 613,-827.694 613,-769.694 613,-769.694 613,-763.694 619,-757.694 625,-757.694"/>
<text text-anchor="middle" x="656.5" y="-828.494" font-family="Helvetica,sans-Serif" font-weight="bold" font-size="9.00" fill="#000000">embeddeds</text>
</g>
<g id="clust11" class="cluster">
<title>cluster_src/components/git&#45;info</title>
<path fill="#ffffff" stroke="#000000" stroke-width="2" d="M631.5,-697.694C631.5,-697.694 836,-697.694 836,-697.694 842,-697.694 848,-703.694 848,-709.694 848,-709.694 848,-737.694 848,-737.694 848,-743.694 842,-749.694 836,-749.694 836,-749.694 631.5,-749.694 631.5,-749.694 625.5,-749.694 619.5,-743.694 619.5,-737.694 619.5,-737.694 619.5,-709.694 619.5,-709.694 619.5,-703.694 625.5,-697.694 631.5,-697.694"/>
<text text-anchor="middle" x="733.75" y="-738.494" font-family="Helvetica,sans-Serif" font-weight="bold" font-size="9.00" fill="#000000">git&#45;info</text>
</g>
<g id="clust12" class="cluster">
<title>cluster_src/components/layout</title>
<path fill="#ffffff" stroke="#000000" stroke-width="2" d="M631.5,-547.694C631.5,-547.694 829.5,-547.694 829.5,-547.694 835.5,-547.694 841.5,-553.694 841.5,-559.694 841.5,-559.694 841.5,-677.694 841.5,-677.694 841.5,-683.694 835.5,-689.694 829.5,-689.694 829.5,-689.694 631.5,-689.694 631.5,-689.694 625.5,-689.694 619.5,-683.694 619.5,-677.694 619.5,-677.694 619.5,-559.694 619.5,-559.694 619.5,-553.694 625.5,-547.694 631.5,-547.694"/>
<text text-anchor="middle" x="730.5" y="-678.494" font-family="Helvetica,sans-Serif" font-weight="bold" font-size="9.00" fill="#000000">layout</text>
</g>
<g id="clust13" class="cluster">
<title>cluster_src/components/post&#45;link</title>
<path fill="#ffffff" stroke="#000000" stroke-width="2" d="M626.5,-397.694C626.5,-397.694 945,-397.694 945,-397.694 951,-397.694 957,-403.694 957,-409.694 957,-409.694 957,-437.694 957,-437.694 957,-443.694 951,-449.694 945,-449.694 945,-449.694 626.5,-449.694 626.5,-449.694 620.5,-449.694 614.5,-443.694 614.5,-437.694 614.5,-437.694 614.5,-409.694 614.5,-409.694 614.5,-403.694 620.5,-397.694 626.5,-397.694"/>
<text text-anchor="middle" x="785.75" y="-438.494" font-family="Helvetica,sans-Serif" font-weight="bold" font-size="9.00" fill="#000000">post&#45;link</text>
</g>
<g id="clust14" class="cluster">
<title>cluster_src/components/styles</title>
<path fill="#ffffff" stroke="#000000" stroke-width="2" d="M746,-457.694C746,-457.694 948,-457.694 948,-457.694 954,-457.694 960,-463.694 960,-469.694 960,-469.694 960,-527.694 960,-527.694 960,-533.694 954,-539.694 948,-539.694 948,-539.694 746,-539.694 746,-539.694 740,-539.694 734,-533.694 734,-527.694 734,-527.694 734,-469.694 734,-469.694 734,-463.694 740,-457.694 746,-457.694"/>
<text text-anchor="middle" x="847" y="-528.494" font-family="Helvetica,sans-Serif" font-weight="bold" font-size="9.00" fill="#000000">styles</text>
</g>
<g id="clust15" class="cluster">
<title>cluster_src/components/table&#45;of&#45;contents</title>
<path fill="#ffffff" stroke="#000000" stroke-width="2" d="M616.5,-322.694C616.5,-322.694 697.5,-322.694 697.5,-322.694 703.5,-322.694 709.5,-328.694 709.5,-334.694 709.5,-334.694 709.5,-362.694 709.5,-362.694 709.5,-368.694 703.5,-374.694 697.5,-374.694 697.5,-374.694 616.5,-374.694 616.5,-374.694 610.5,-374.694 604.5,-368.694 604.5,-362.694 604.5,-362.694 604.5,-334.694 604.5,-334.694 604.5,-328.694 610.5,-322.694 616.5,-322.694"/>
<text text-anchor="middle" x="657" y="-363.494" font-family="Helvetica,sans-Serif" font-weight="bold" font-size="9.00" fill="#000000">table&#45;of&#45;contents</text>
</g>
<g id="clust16" class="cluster">
<title>cluster_src/hooks</title>
<path fill="#ffffff" stroke="#000000" stroke-width="2" d="M884,-993.694C884,-993.694 938,-993.694 938,-993.694 944,-993.694 950,-999.694 950,-1005.694 950,-1005.694 950,-1033.694 950,-1033.694 950,-1039.694 944,-1045.694 938,-1045.694 938,-1045.694 884,-1045.694 884,-1045.694 878,-1045.694 872,-1039.694 872,-1033.694 872,-1033.694 872,-1005.694 872,-1005.694 872,-999.694 878,-993.694 884,-993.694"/>
<text text-anchor="middle" x="911" y="-1034.494" font-family="Helvetica,sans-Serif" font-weight="bold" font-size="9.00" fill="#000000">hooks</text>
</g>
<g id="clust17" class="cluster">
<title>cluster_src/pages</title>
<path fill="#ffffff" stroke="#000000" stroke-width="2" d="M355.5,-446.694C355.5,-446.694 405.5,-446.694 405.5,-446.694 411.5,-446.694 417.5,-452.694 417.5,-458.694 417.5,-458.694 417.5,-546.694 417.5,-546.694 417.5,-552.694 411.5,-558.694 405.5,-558.694 405.5,-558.694 355.5,-558.694 355.5,-558.694 349.5,-558.694 343.5,-552.694 343.5,-546.694 343.5,-546.694 343.5,-458.694 343.5,-458.694 343.5,-452.694 349.5,-446.694 355.5,-446.694"/>
<text text-anchor="middle" x="380.5" y="-547.494" font-family="Helvetica,sans-Serif" font-weight="bold" font-size="9.00" fill="#000000">pages</text>
</g>
<g id="clust18" class="cluster">
<title>cluster_src/templates</title>
<path fill="#ffffff" stroke="#000000" stroke-width="2" d="M313,-119.694C313,-119.694 712,-119.694 712,-119.694 718,-119.694 724,-125.694 724,-131.694 724,-131.694 724,-279.694 724,-279.694 724,-285.694 718,-291.694 712,-291.694 712,-291.694 313,-291.694 313,-291.694 307,-291.694 301,-285.694 301,-279.694 301,-279.694 301,-131.694 301,-131.694 301,-125.694 307,-119.694 313,-119.694"/>
<text text-anchor="middle" x="512.5" y="-280.494" font-family="Helvetica,sans-Serif" font-weight="bold" font-size="9.00" fill="#000000">templates</text>
</g>
<g id="clust19" class="cluster">
<title>cluster_src/templates/blog&#45;post&#45;template</title>
<path fill="#ffffff" stroke="#000000" stroke-width="2" d="M355.5,-127.694C355.5,-127.694 704,-127.694 704,-127.694 710,-127.694 716,-133.694 716,-139.694 716,-139.694 716,-167.694 716,-167.694 716,-173.694 710,-179.694 704,-179.694 704,-179.694 355.5,-179.694 355.5,-179.694 349.5,-179.694 343.5,-173.694 343.5,-167.694 343.5,-167.694 343.5,-139.694 343.5,-139.694 343.5,-133.694 349.5,-127.694 355.5,-127.694"/>
<text text-anchor="middle" x="529.75" y="-168.494" font-family="Helvetica,sans-Serif" font-weight="bold" font-size="9.00" fill="#000000">blog&#45;post&#45;template</text>
</g>
<g id="clust20" class="cluster">
<title>cluster_src/utils</title>
<path fill="#ffffff" stroke="#000000" stroke-width="2" d="M994,-65.694C994,-65.694 1152,-65.694 1152,-65.694 1158,-65.694 1164,-71.694 1164,-77.694 1164,-77.694 1164,-225.694 1164,-225.694 1164,-231.694 1158,-237.694 1152,-237.694 1152,-237.694 994,-237.694 994,-237.694 988,-237.694 982,-231.694 982,-225.694 982,-225.694 982,-77.694 982,-77.694 982,-71.694 988,-65.694 994,-65.694"/>
<text text-anchor="middle" x="1073" y="-226.494" font-family="Helvetica,sans-Serif" font-weight="bold" font-size="9.00" fill="#000000">utils</text>
</g>
<!-- gatsby&#45;browser.js -->
<g id="node1" class="node">
<title>gatsby&#45;browser.js</title>
<g id="a_node1"><a xlink:href="gatsby-browser.js" xlink:title="gatsby&#45;browser.js">
<path fill="#ffffcc" stroke="#000000" d="M89,-1227.694C89,-1227.694 6,-1227.694 6,-1227.694 3,-1227.694 0,-1224.694 0,-1221.694 0,-1221.694 0,-1215.694 0,-1215.694 0,-1212.694 3,-1209.694 6,-1209.694 6,-1209.694 89,-1209.694 89,-1209.694 92,-1209.694 95,-1212.694 95,-1215.694 95,-1215.694 95,-1221.694 95,-1221.694 95,-1224.694 92,-1227.694 89,-1227.694"/>
<text text-anchor="middle" x="47.5" y="-1216.494" font-family="Helvetica,sans-Serif" font-size="9.00" fill="#000000">gatsby&#45;browser.js</text>
</a>
</g>
</g>
<!-- gatsby/browser/init.css -->
<g id="node2" class="node">
<title>gatsby/browser/init.css</title>
<g id="a_node2"><a xlink:href="gatsby/browser/init.css" xlink:title="init.css">
<path fill="#ffffcc" stroke="#000000" d="M167,-1227.694C167,-1227.694 125,-1227.694 125,-1227.694 122,-1227.694 119,-1224.694 119,-1221.694 119,-1221.694 119,-1215.694 119,-1215.694 119,-1212.694 122,-1209.694 125,-1209.694 125,-1209.694 167,-1209.694 167,-1209.694 170,-1209.694 173,-1212.694 173,-1215.694 173,-1215.694 173,-1221.694 173,-1221.694 173,-1224.694 170,-1227.694 167,-1227.694"/>
<text text-anchor="middle" x="146" y="-1216.494" font-family="Helvetica,sans-Serif" font-size="9.00" fill="#000000">init.css</text>
</a>
</g>
</g>
<!-- gatsby&#45;browser.js&#45;&gt;gatsby/browser/init.css -->
<g id="edge1" class="edge">
<title>gatsby&#45;browser.js&#45;&gt;gatsby/browser/init.css</title>
<path fill="none" stroke="#000000" stroke-width="2" stroke-opacity="0.200000" d="M95.0189,-1218.694C101.0162,-1218.694 107.0477,-1218.694 112.7572,-1218.694"/>
<polygon fill="#000000" fill-opacity="0.200000" stroke="#000000" stroke-width="2" stroke-opacity="0.200000" points="112.8095,-1220.7941 118.8094,-1218.694 112.8094,-1216.5941 112.8095,-1220.7941"/>
</g>
<!-- gatsby&#45;config.js -->
<g id="node3" class="node">
<title>gatsby&#45;config.js</title>
<g id="a_node3"><a xlink:href="gatsby-config.js" xlink:title="gatsby&#45;config.js">
<path fill="#ccffcc" stroke="#000000" d="M86,-1257.694C86,-1257.694 9,-1257.694 9,-1257.694 6,-1257.694 3,-1254.694 3,-1251.694 3,-1251.694 3,-1245.694 3,-1245.694 3,-1242.694 6,-1239.694 9,-1239.694 9,-1239.694 86,-1239.694 86,-1239.694 89,-1239.694 92,-1242.694 92,-1245.694 92,-1245.694 92,-1251.694 92,-1251.694 92,-1254.694 89,-1257.694 86,-1257.694"/>
<text text-anchor="middle" x="47.5" y="-1246.494" font-family="Helvetica,sans-Serif" font-size="9.00" fill="#000000">gatsby&#45;config.js</text>
</a>
</g>
</g>
<!-- gatsby&#45;node.js -->
<g id="node4" class="node">
<title>gatsby&#45;node.js</title>
<g id="a_node4"><a xlink:href="gatsby-node.js" xlink:title="gatsby&#45;node.js">
<path fill="#ffffcc" stroke="#000000" d="M83,-1152.694C83,-1152.694 12,-1152.694 12,-1152.694 9,-1152.694 6,-1149.694 6,-1146.694 6,-1146.694 6,-1140.694 6,-1140.694 6,-1137.694 9,-1134.694 12,-1134.694 12,-1134.694 83,-1134.694 83,-1134.694 86,-1134.694 89,-1137.694 89,-1140.694 89,-1140.694 89,-1146.694 89,-1146.694 89,-1149.694 86,-1152.694 83,-1152.694"/>
<text text-anchor="middle" x="47.5" y="-1141.494" font-family="Helvetica,sans-Serif" font-size="9.00" fill="#000000">gatsby&#45;node.js</text>
</a>
</g>
</g>
<!-- gatsby/node/index.ts -->
<g id="node5" class="node">
<title>gatsby/node/index.ts</title>
<g id="a_node5"><a xlink:href="gatsby/node/index.ts" xlink:title="index.ts">
<path fill="#ddfeff" stroke="#000000" d="M167,-1152.694C167,-1152.694 125,-1152.694 125,-1152.694 122,-1152.694 119,-1149.694 119,-1146.694 119,-1146.694 119,-1140.694 119,-1140.694 119,-1137.694 122,-1134.694 125,-1134.694 125,-1134.694 167,-1134.694 167,-1134.694 170,-1134.694 173,-1137.694 173,-1140.694 173,-1140.694 173,-1146.694 173,-1146.694 173,-1149.694 170,-1152.694 167,-1152.694"/>
<text text-anchor="middle" x="146" y="-1141.494" font-family="Helvetica,sans-Serif" font-size="9.00" fill="#000000">index.ts</text>
</a>
</g>
</g>
<!-- gatsby&#45;node.js&#45;&gt;gatsby/node/index.ts -->
<g id="edge2" class="edge">
<title>gatsby&#45;node.js&#45;&gt;gatsby/node/index.ts</title>
<path fill="none" stroke="#000000" stroke-width="2" stroke-opacity="0.200000" d="M89.2729,-1143.694C97.056,-1143.694 105.0943,-1143.694 112.5855,-1143.694"/>
<polygon fill="#000000" fill-opacity="0.200000" stroke="#000000" stroke-width="2" stroke-opacity="0.200000" points="112.7319,-1145.794 118.7319,-1143.694 112.7318,-1141.594 112.7319,-1145.794"/>
</g>
<!-- gatsby/node/create&#45;pages.ts -->
<g id="node8" class="node">
<title>gatsby/node/create&#45;pages.ts</title>
<g id="a_node8"><a xlink:href="gatsby/node/create-pages.ts" xlink:title="create&#45;pages.ts">
<path fill="#ddfeff" stroke="#000000" d="M274,-1167.694C274,-1167.694 200,-1167.694 200,-1167.694 197,-1167.694 194,-1164.694 194,-1161.694 194,-1161.694 194,-1155.694 194,-1155.694 194,-1152.694 197,-1149.694 200,-1149.694 200,-1149.694 274,-1149.694 274,-1149.694 277,-1149.694 280,-1152.694 280,-1155.694 280,-1155.694 280,-1161.694 280,-1161.694 280,-1164.694 277,-1167.694 274,-1167.694"/>
<text text-anchor="middle" x="237" y="-1156.494" font-family="Helvetica,sans-Serif" font-size="9.00" fill="#000000">create&#45;pages.ts</text>
</a>
</g>
</g>
<!-- gatsby/node/index.ts&#45;&gt;gatsby/node/create&#45;pages.ts -->
<g id="edge9" class="edge">
<title>gatsby/node/index.ts&#45;&gt;gatsby/node/create&#45;pages.ts</title>
<path fill="none" stroke="#000000" stroke-width="2" stroke-opacity="0.200000" d="M173.303,-1148.1944C177.8675,-1148.9468 182.7245,-1149.7474 187.6421,-1150.558"/>
<polygon fill="#000000" fill-opacity="0.200000" stroke="#000000" stroke-width="2" stroke-opacity="0.200000" points="187.6243,-1152.6834 193.8859,-1151.5872 188.3074,-1148.5393 187.6243,-1152.6834"/>
</g>
<!-- gatsby/node/on&#45;create&#45;node.ts -->
<g id="node14" class="node">
<title>gatsby/node/on&#45;create&#45;node.ts</title>
<g id="a_node14"><a xlink:href="gatsby/node/on-create-node.ts" xlink:title="on&#45;create&#45;node.ts">
<path fill="#ddfeff" stroke="#000000" d="M279,-1137.694C279,-1137.694 195,-1137.694 195,-1137.694 192,-1137.694 189,-1134.694 189,-1131.694 189,-1131.694 189,-1125.694 189,-1125.694 189,-1122.694 192,-1119.694 195,-1119.694 195,-1119.694 279,-1119.694 279,-1119.694 282,-1119.694 285,-1122.694 285,-1125.694 285,-1125.694 285,-1131.694 285,-1131.694 285,-1134.694 282,-1137.694 279,-1137.694"/>
<text text-anchor="middle" x="237" y="-1126.494" font-family="Helvetica,sans-Serif" font-size="9.00" fill="#000000">on&#45;create&#45;node.ts</text>
</a>
</g>
</g>
<!-- gatsby/node/index.ts&#45;&gt;gatsby/node/on&#45;create&#45;node.ts -->
<g id="edge10" class="edge">
<title>gatsby/node/index.ts&#45;&gt;gatsby/node/on&#45;create&#45;node.ts</title>
<path fill="none" stroke="#000000" stroke-width="2" stroke-opacity="0.200000" d="M173.303,-1139.1935C176.3787,-1138.6865 179.5873,-1138.1576 182.8577,-1137.6185"/>
<polygon fill="#000000" fill-opacity="0.200000" stroke="#000000" stroke-width="2" stroke-opacity="0.200000" points="183.2173,-1139.6877 188.7958,-1136.6397 182.5341,-1135.5436 183.2173,-1139.6877"/>
</g>
<!-- gatsby&#45;ssr.js -->
<g id="node6" class="node">
<title>gatsby&#45;ssr.js</title>
<g id="a_node6"><a xlink:href="gatsby-ssr.js" xlink:title="gatsby&#45;ssr.js">
<path fill="#ccffcc" stroke="#000000" d="M77.5,-1287.694C77.5,-1287.694 17.5,-1287.694 17.5,-1287.694 14.5,-1287.694 11.5,-1284.694 11.5,-1281.694 11.5,-1281.694 11.5,-1275.694 11.5,-1275.694 11.5,-1272.694 14.5,-1269.694 17.5,-1269.694 17.5,-1269.694 77.5,-1269.694 77.5,-1269.694 80.5,-1269.694 83.5,-1272.694 83.5,-1275.694 83.5,-1275.694 83.5,-1281.694 83.5,-1281.694 83.5,-1284.694 80.5,-1287.694 77.5,-1287.694"/>
<text text-anchor="middle" x="47.5" y="-1276.494" font-family="Helvetica,sans-Serif" font-size="9.00" fill="#000000">gatsby&#45;ssr.js</text>
</a>
</g>
</g>
<!-- gatsby/node/colored&#45;print.ts -->
<g id="node7" class="node">
<title>gatsby/node/colored&#45;print.ts</title>
<g id="a_node7"><a xlink:href="gatsby/node/colored-print.ts" xlink:title="colored&#45;print.ts">
<path fill="#ddfeff" stroke="#000000" d="M417.5,-1167.694C417.5,-1167.694 343.5,-1167.694 343.5,-1167.694 340.5,-1167.694 337.5,-1164.694 337.5,-1161.694 337.5,-1161.694 337.5,-1155.694 337.5,-1155.694 337.5,-1152.694 340.5,-1149.694 343.5,-1149.694 343.5,-1149.694 417.5,-1149.694 417.5,-1149.694 420.5,-1149.694 423.5,-1152.694 423.5,-1155.694 423.5,-1155.694 423.5,-1161.694 423.5,-1161.694 423.5,-1164.694 420.5,-1167.694 417.5,-1167.694"/>
<text text-anchor="middle" x="380.5" y="-1156.494" font-family="Helvetica,sans-Serif" font-size="9.00" fill="#000000">colored&#45;print.ts</text>
</a>
</g>
</g>
<!-- gatsby/node/create&#45;pages.ts&#45;&gt;gatsby/node/colored&#45;print.ts -->
<g id="edge8" class="edge">
<title>gatsby/node/create&#45;pages.ts&#45;&gt;gatsby/node/colored&#45;print.ts</title>
<path fill="none" stroke="#000000" stroke-width="2" stroke-opacity="0.200000" d="M280.0547,-1158.694C296.2306,-1158.694 314.7362,-1158.694 331.4194,-1158.694"/>
<polygon fill="#000000" fill-opacity="0.200000" stroke="#000000" stroke-width="2" stroke-opacity="0.200000" points="331.4757,-1160.7941 337.4757,-1158.694 331.4756,-1156.5941 331.4757,-1160.7941"/>
</g>
<!-- src/templates/archive&#45;month&#45;template.tsx -->
<g id="node9" class="node">
<title>src/templates/archive&#45;month&#45;template.tsx</title>
<g id="a_node9"><a xlink:href="src/templates/archive-month-template.tsx" xlink:title="archive&#45;month&#45;template.tsx">
<path fill="#bbfeff" stroke="#000000" d="M446,-265.694C446,-265.694 315,-265.694 315,-265.694 312,-265.694 309,-262.694 309,-259.694 309,-259.694 309,-253.694 309,-253.694 309,-250.694 312,-247.694 315,-247.694 315,-247.694 446,-247.694 446,-247.694 449,-247.694 452,-250.694 452,-253.694 452,-253.694 452,-259.694 452,-259.694 452,-262.694 449,-265.694 446,-265.694"/>
<text text-anchor="middle" x="380.5" y="-254.494" font-family="Helvetica,sans-Serif" font-size="9.00" fill="#000000">archive&#45;month&#45;template.tsx</text>
</a>
</g>
</g>
<!-- gatsby/node/create&#45;pages.ts&#45;&gt;src/templates/archive&#45;month&#45;template.tsx -->
<g id="edge3" class="edge">
<title>gatsby/node/create&#45;pages.ts&#45;&gt;src/templates/archive&#45;month&#45;template.tsx</title>
<path fill="none" stroke="#000000" stroke-width="2" stroke-opacity="0.200000" d="M279.1069,-1149.4869C281.3315,-1147.8509 283.3323,-1145.9354 285,-1143.694 296.6077,-1128.0928 288.6703,-462.6515 293,-443.694 308.7026,-374.9407 351.9543,-301.41 371.1328,-271.0579"/>
<polygon fill="#000000" fill-opacity="0.200000" stroke="#000000" stroke-width="2" stroke-opacity="0.200000" points="372.9644,-272.0915 374.4216,-265.9039 369.4238,-269.8322 372.9644,-272.0915"/>
</g>
<!-- src/templates/archive&#45;year&#45;template.tsx -->
<g id="node10" class="node">
<title>src/templates/archive&#45;year&#45;template.tsx</title>
<g id="a_node10"><a xlink:href="src/templates/archive-year-template.tsx" xlink:title="archive&#45;year&#45;template.tsx">
<path fill="#bbfeff" stroke="#000000" d="M440,-235.694C440,-235.694 321,-235.694 321,-235.694 318,-235.694 315,-232.694 315,-229.694 315,-229.694 315,-223.694 315,-223.694 315,-220.694 318,-217.694 321,-217.694 321,-217.694 440,-217.694 440,-217.694 443,-217.694 446,-220.694 446,-223.694 446,-223.694 446,-229.694 446,-229.694 446,-232.694 443,-235.694 440,-235.694"/>
<text text-anchor="middle" x="380.5" y="-224.494" font-family="Helvetica,sans-Serif" font-size="9.00" fill="#000000">archive&#45;year&#45;template.tsx</text>
</a>
</g>
</g>
<!-- gatsby/node/create&#45;pages.ts&#45;&gt;src/templates/archive&#45;year&#45;template.tsx -->
<g id="edge4" class="edge">
<title>gatsby/node/create&#45;pages.ts&#45;&gt;src/templates/archive&#45;year&#45;template.tsx</title>
<path fill="none" stroke="#000000" stroke-width="2" stroke-opacity="0.200000" d="M279.1135,-1149.4918C281.3365,-1147.8546 283.3351,-1145.9376 285,-1143.694 299.9313,-1123.5721 276.7636,-260.7782 293,-241.694 297.4349,-236.4811 302.9641,-232.6254 309.0744,-229.8129"/>
<polygon fill="#000000" fill-opacity="0.200000" stroke="#000000" stroke-width="2" stroke-opacity="0.200000" points="310.0403,-231.6885 314.8346,-227.5141 308.4835,-227.7877 310.0403,-231.6885"/>
</g>
<!-- src/templates/blog&#45;post&#45;template/index.tsx -->
<g id="node11" class="node">
<title>src/templates/blog&#45;post&#45;template/index.tsx</title>
<g id="a_node11"><a xlink:href="src/templates/blog-post-template/index.tsx" xlink:title="index.tsx">
<path fill="#bbfeff" stroke="#000000" d="M403.5,-153.694C403.5,-153.694 357.5,-153.694 357.5,-153.694 354.5,-153.694 351.5,-150.694 351.5,-147.694 351.5,-147.694 351.5,-141.694 351.5,-141.694 351.5,-138.694 354.5,-135.694 357.5,-135.694 357.5,-135.694 403.5,-135.694 403.5,-135.694 406.5,-135.694 409.5,-138.694 409.5,-141.694 409.5,-141.694 409.5,-147.694 409.5,-147.694 409.5,-150.694 406.5,-153.694 403.5,-153.694"/>
<text text-anchor="middle" x="380.5" y="-142.494" font-family="Helvetica,sans-Serif" font-size="9.00" fill="#000000">index.tsx</text>
</a>
</g>
</g>
<!-- gatsby/node/create&#45;pages.ts&#45;&gt;src/templates/blog&#45;post&#45;template/index.tsx -->
<g id="edge5" class="edge">
<title>gatsby/node/create&#45;pages.ts&#45;&gt;src/templates/blog&#45;post&#45;template/index.tsx</title>
<path fill="none" stroke="#000000" stroke-width="2" stroke-opacity="0.200000" d="M279.1155,-1149.4932C281.338,-1147.8557 283.336,-1145.9382 285,-1143.694 301.3134,-1121.6922 275.0281,-178.3631 293,-157.694 305.5844,-143.2208 326.7134,-139.7747 345.0558,-140.0414"/>
<polygon fill="#000000" fill-opacity="0.200000" stroke="#000000" stroke-width="2" stroke-opacity="0.200000" points="345.0805,-142.1436 351.153,-140.2636 345.2335,-137.9464 345.0805,-142.1436"/>
</g>
<!-- src/templates/tag&#45;page&#45;template.tsx -->
<g id="node12" class="node">
<title>src/templates/tag&#45;page&#45;template.tsx</title>
<g id="a_node12"><a xlink:href="src/templates/tag-page-template.tsx" xlink:title="tag&#45;page&#45;template.tsx">
<path fill="#bbfeff" stroke="#000000" d="M433,-205.694C433,-205.694 328,-205.694 328,-205.694 325,-205.694 322,-202.694 322,-199.694 322,-199.694 322,-193.694 322,-193.694 322,-190.694 325,-187.694 328,-187.694 328,-187.694 433,-187.694 433,-187.694 436,-187.694 439,-190.694 439,-193.694 439,-193.694 439,-199.694 439,-199.694 439,-202.694 436,-205.694 433,-205.694"/>
<text text-anchor="middle" x="380.5" y="-194.494" font-family="Helvetica,sans-Serif" font-size="9.00" fill="#000000">tag&#45;page&#45;template.tsx</text>
</a>
</g>
</g>
<!-- gatsby/node/create&#45;pages.ts&#45;&gt;src/templates/tag&#45;page&#45;template.tsx -->
<g id="edge6" class="edge">
<title>gatsby/node/create&#45;pages.ts&#45;&gt;src/templates/tag&#45;page&#45;template.tsx</title>
<path fill="none" stroke="#000000" stroke-width="2" stroke-opacity="0.200000" d="M279.1143,-1149.4923C281.3371,-1147.8551 283.3355,-1145.9378 285,-1143.694 300.4249,-1122.9008 276.2264,-231.4153 293,-211.694 299.0615,-204.5672 307.1682,-199.9768 316.0094,-197.1207"/>
<polygon fill="#000000" fill-opacity="0.200000" stroke="#000000" stroke-width="2" stroke-opacity="0.200000" points="316.6901,-199.1113 321.9113,-195.4851 315.5683,-195.0639 316.6901,-199.1113"/>
</g>
<!-- src/utils/asserts&#45;non&#45;null.ts -->
<g id="node13" class="node">
<title>src/utils/asserts&#45;non&#45;null.ts</title>
<g id="a_node13"><a xlink:href="src/utils/asserts-non-null.ts" xlink:title="asserts&#45;non&#45;null.ts">
<path fill="#ddfeff" stroke="#000000" d="M1083,-211.694C1083,-211.694 996,-211.694 996,-211.694 993,-211.694 990,-208.694 990,-205.694 990,-205.694 990,-199.694 990,-199.694 990,-196.694 993,-193.694 996,-193.694 996,-193.694 1083,-193.694 1083,-193.694 1086,-193.694 1089,-196.694 1089,-199.694 1089,-199.694 1089,-205.694 1089,-205.694 1089,-208.694 1086,-211.694 1083,-211.694"/>
<text text-anchor="middle" x="1039.5" y="-200.494" font-family="Helvetica,sans-Serif" font-size="9.00" fill="#000000">asserts&#45;non&#45;null.ts</text>
</a>
</g>
</g>
<!-- gatsby/node/create&#45;pages.ts&#45;&gt;src/utils/asserts&#45;non&#45;null.ts -->
<g id="edge7" class="edge">
<title>gatsby/node/create&#45;pages.ts&#45;&gt;src/utils/asserts&#45;non&#45;null.ts</title>
<path fill="none" stroke="#000000" stroke-width="2" stroke-opacity="0.200000" d="M279.1161,-1149.4937C281.3385,-1147.8561 283.3363,-1145.9384 285,-1143.694 301.8563,-1120.9537 276.8152,-147.9169 293,-124.694 353.3955,-38.0351 411.8715,-46.694 517.5,-46.694 517.5,-46.694 517.5,-46.694 786.5,-46.694 870.2165,-46.694 915.7209,-4.5941 974,-64.694 993.0683,-84.3579 964.5586,-166.5736 982,-187.694 982.8376,-188.7082 983.7343,-189.6586 984.6823,-190.5491"/>
<polygon fill="#000000" fill-opacity="0.200000" stroke="#000000" stroke-width="2" stroke-opacity="0.200000" points="983.782,-192.5077 989.8123,-194.5193 986.3526,-189.1862 983.782,-192.5077"/>
</g>
<!-- src/templates/post&#45;list&#45;page.tsx -->
<g id="node42" class="node">
<title>src/templates/post&#45;list&#45;page.tsx</title>
<g id="a_node42"><a xlink:href="src/templates/post-list-page.tsx" xlink:title="post&#45;list&#45;page.tsx">
<path fill="#bbfeff" stroke="#000000" d="M558.5,-265.694C558.5,-265.694 476.5,-265.694 476.5,-265.694 473.5,-265.694 470.5,-262.694 470.5,-259.694 470.5,-259.694 470.5,-253.694 470.5,-253.694 470.5,-250.694 473.5,-247.694 476.5,-247.694 476.5,-247.694 558.5,-247.694 558.5,-247.694 561.5,-247.694 564.5,-250.694 564.5,-253.694 564.5,-253.694 564.5,-259.694 564.5,-259.694 564.5,-262.694 561.5,-265.694 558.5,-265.694"/>
<text text-anchor="middle" x="517.5" y="-254.494" font-family="Helvetica,sans-Serif" font-size="9.00" fill="#000000">post&#45;list&#45;page.tsx</text>
</a>
</g>
</g>
<!-- src/templates/archive&#45;month&#45;template.tsx&#45;&gt;src/templates/post&#45;list&#45;page.tsx -->
<g id="edge41" class="edge">
<title>src/templates/archive&#45;month&#45;template.tsx&#45;&gt;src/templates/post&#45;list&#45;page.tsx</title>
<path fill="none" stroke="#000000" stroke-width="2" stroke-opacity="0.200000" d="M452.2099,-256.694C456.2036,-256.694 460.1827,-256.694 464.0928,-256.694"/>
<polygon fill="#000000" fill-opacity="0.200000" stroke="#000000" stroke-width="2" stroke-opacity="0.200000" points="464.1726,-258.794 470.1725,-256.694 464.1725,-254.594 464.1726,-258.794"/>
</g>
<!-- src/templates/archive&#45;year&#45;template.tsx&#45;&gt;src/templates/post&#45;list&#45;page.tsx -->
<g id="edge42" class="edge">
<title>src/templates/archive&#45;year&#45;template.tsx&#45;&gt;src/templates/post&#45;list&#45;page.tsx</title>
<path fill="none" stroke="#000000" stroke-width="2" stroke-opacity="0.200000" d="M424.3899,-235.7691C433.5218,-237.6945 443.0801,-239.7371 452,-241.694 458.6304,-243.1485 465.6306,-244.7168 472.49,-246.272"/>
<polygon fill="#000000" fill-opacity="0.200000" stroke="#000000" stroke-width="2" stroke-opacity="0.200000" points="472.4188,-248.4094 478.7352,-247.6928 473.3506,-244.314 472.4188,-248.4094"/>
</g>
<!-- src/templates/blog&#45;post&#45;template/index.tsx&#45;&gt;src/utils/asserts&#45;non&#45;null.ts -->
<g id="edge52" class="edge">
<title>src/templates/blog&#45;post&#45;template/index.tsx&#45;&gt;src/utils/asserts&#45;non&#45;null.ts</title>
<path fill="none" stroke="#000000" stroke-width="2" stroke-opacity="0.200000" d="M387.3978,-135.5503C400.427,-119.1173 430.4685,-85.06 465,-71.694 504.6999,-56.3274 613.9299,-66.694 656.5,-66.694 656.5,-66.694 656.5,-66.694 786.5,-66.694 874.9938,-66.694 917.8521,-65.2939 974,-133.694 989.3938,-152.4469 965.7961,-169.6364 982,-187.694 982.8527,-188.6442 983.7573,-189.5376 984.7068,-190.3774"/>
<polygon fill="#000000" fill-opacity="0.200000" stroke="#000000" stroke-width="2" stroke-opacity="0.200000" points="983.7244,-192.263 989.7961,-194.1457 986.2237,-188.8875 983.7244,-192.263"/>
</g>
<!-- src/components/article/index.tsx -->
<g id="node17" class="node">
<title>src/components/article/index.tsx</title>
<g id="a_node17"><a xlink:href="src/components/article/index.tsx" xlink:title="index.tsx">
<path fill="#bbfeff" stroke="#000000" d="M679.5,-933.694C679.5,-933.694 633.5,-933.694 633.5,-933.694 630.5,-933.694 627.5,-930.694 627.5,-927.694 627.5,-927.694 627.5,-921.694 627.5,-921.694 627.5,-918.694 630.5,-915.694 633.5,-915.694 633.5,-915.694 679.5,-915.694 679.5,-915.694 682.5,-915.694 685.5,-918.694 685.5,-921.694 685.5,-921.694 685.5,-927.694 685.5,-927.694 685.5,-930.694 682.5,-933.694 679.5,-933.694"/>
<text text-anchor="middle" x="656.5" y="-922.494" font-family="Helvetica,sans-Serif" font-size="9.00" fill="#000000">index.tsx</text>
</a>
</g>
</g>
<!-- src/templates/blog&#45;post&#45;template/index.tsx&#45;&gt;src/components/article/index.tsx -->
<g id="edge46" class="edge">
<title>src/templates/blog&#45;post&#45;template/index.tsx&#45;&gt;src/components/article/index.tsx</title>
<path fill="none" stroke="#000000" stroke-width="2" stroke-opacity="0.200000" d="M409.7194,-142.0979C424.6151,-142.4895 441.7119,-145.9079 452,-157.694 473.4299,-182.2441 451.4279,-421.0671 465,-450.694 491.7125,-509.0053 542.3987,-491.7979 570,-549.694 603.8525,-620.7025 549.0721,-839.934 596.5,-902.694 602.5934,-910.7572 611.9474,-915.8677 621.47,-919.1058"/>
<polygon fill="#000000" fill-opacity="0.200000" stroke="#000000" stroke-width="2" stroke-opacity="0.200000" points="621.0426,-921.1702 627.3934,-920.8897 622.2539,-917.1486 621.0426,-921.1702"/>
</g>
<!-- src/components/atoms/tag&#45;list.tsx -->
<g id="node19" class="node">
<title>src/components/atoms/tag&#45;list.tsx</title>
<g id="a_node19"><a xlink:href="src/components/atoms/tag-list.tsx" xlink:title="tag&#45;list.tsx">
<path fill="#bbfeff" stroke="#000000" d="M937,-333.694C937,-333.694 885,-333.694 885,-333.694 882,-333.694 879,-330.694 879,-327.694 879,-327.694 879,-321.694 879,-321.694 879,-318.694 882,-315.694 885,-315.694 885,-315.694 937,-315.694 937,-315.694 940,-315.694 943,-318.694 943,-321.694 943,-321.694 943,-327.694 943,-327.694 943,-330.694 940,-333.694 937,-333.694"/>
<text text-anchor="middle" x="911" y="-322.494" font-family="Helvetica,sans-Serif" font-size="9.00" fill="#000000">tag&#45;list.tsx</text>
</a>
</g>
</g>
<!-- src/templates/blog&#45;post&#45;template/index.tsx&#45;&gt;src/components/atoms/tag&#45;list.tsx -->
<g id="edge47" class="edge">
<title>src/templates/blog&#45;post&#45;template/index.tsx&#45;&gt;src/components/atoms/tag&#45;list.tsx</title>
<path fill="none" stroke="#000000" stroke-width="2" stroke-opacity="0.200000" d="M389.34,-135.6625C403.6821,-121.7303 433.5954,-95.5728 465,-85.694 546.8241,-59.9548 783.608,-77.0252 848,-133.694 875.2445,-157.6707 899.7839,-268.651 908.0467,-309.5264"/>
<polygon fill="#000000" fill-opacity="0.200000" stroke="#000000" stroke-width="2" stroke-opacity="0.200000" points="905.9973,-309.9877 909.231,-315.4607 910.1161,-309.1657 905.9973,-309.9877"/>
</g>
<!-- src/components/git&#45;info/index.tsx -->
<g id="node23" class="node">
<title>src/components/git&#45;info/index.tsx</title>
<g id="a_node23"><a xlink:href="src/components/git-info/index.tsx" xlink:title="index.tsx">
<path fill="#bbfeff" stroke="#000000" d="M679.5,-723.694C679.5,-723.694 633.5,-723.694 633.5,-723.694 630.5,-723.694 627.5,-720.694 627.5,-717.694 627.5,-717.694 627.5,-711.694 627.5,-711.694 627.5,-708.694 630.5,-705.694 633.5,-705.694 633.5,-705.694 679.5,-705.694 679.5,-705.694 682.5,-705.694 685.5,-708.694 685.5,-711.694 685.5,-711.694 685.5,-717.694 685.5,-717.694 685.5,-720.694 682.5,-723.694 679.5,-723.694"/>
<text text-anchor="middle" x="656.5" y="-712.494" font-family="Helvetica,sans-Serif" font-size="9.00" fill="#000000">index.tsx</text>
</a>
</g>
</g>
<!-- src/templates/blog&#45;post&#45;template/index.tsx&#45;&gt;src/components/git&#45;info/index.tsx -->
<g id="edge48" class="edge">
<title>src/templates/blog&#45;post&#45;template/index.tsx&#45;&gt;src/components/git&#45;info/index.tsx</title>
<path fill="none" stroke="#000000" stroke-width="2" stroke-opacity="0.200000" d="M409.617,-142.1882C424.4827,-142.6064 441.5835,-146.0212 452,-157.694 466.5318,-173.9784 458.7813,-332.773 465,-353.694 492.1581,-445.0596 538.023,-450.9014 570,-540.694 593.0056,-605.2944 552.5343,-640.068 596.5,-692.694 602.862,-700.3091 612.102,-705.2885 621.4326,-708.5444"/>
<polygon fill="#000000" fill-opacity="0.200000" stroke="#000000" stroke-width="2" stroke-opacity="0.200000" points="620.8756,-710.5705 627.229,-710.3571 622.1293,-706.5619 620.8756,-710.5705"/>
</g>
<!-- src/components/layout/index.tsx -->
<g id="node31" class="node">
<title>src/components/layout/index.tsx</title>
<g id="a_node31"><a xlink:href="src/components/layout/index.tsx" xlink:title="index.tsx">
<path fill="#bbfeff" stroke="#000000" d="M679.5,-573.694C679.5,-573.694 633.5,-573.694 633.5,-573.694 630.5,-573.694 627.5,-570.694 627.5,-567.694 627.5,-567.694 627.5,-561.694 627.5,-561.694 627.5,-558.694 630.5,-555.694 633.5,-555.694 633.5,-555.694 679.5,-555.694 679.5,-555.694 682.5,-555.694 685.5,-558.694 685.5,-561.694 685.5,-561.694 685.5,-567.694 685.5,-567.694 685.5,-570.694 682.5,-573.694 679.5,-573.694"/>
<text text-anchor="middle" x="656.5" y="-562.494" font-family="Helvetica,sans-Serif" font-size="9.00" fill="#000000">index.tsx</text>
</a>
</g>
</g>
<!-- src/templates/blog&#45;post&#45;template/index.tsx&#45;&gt;src/components/layout/index.tsx -->
<g id="edge49" class="edge">
<title>src/templates/blog&#45;post&#45;template/index.tsx&#45;&gt;src/components/layout/index.tsx</title>
<path fill="none" stroke="#000000" stroke-width="2" stroke-opacity="0.200000" d="M409.555,-142.2439C424.4026,-142.6784 441.5058,-146.091 452,-157.694 476.3744,-184.6436 445.304,-290.1577 465,-320.694 493.8975,-365.4958 535.4513,-338.0903 570,-378.694 592.6386,-405.3001 582.324,-420.7653 596.5,-452.694 612.5368,-488.8137 635.5132,-529.2314 647.8619,-550.2413"/>
<polygon fill="#000000" fill-opacity="0.200000" stroke="#000000" stroke-width="2" stroke-opacity="0.200000" points="646.1878,-551.536 651.0485,-555.6328 649.8035,-549.399 646.1878,-551.536"/>
</g>
<!-- src/components/layout/title.tsx -->
<g id="node33" class="node">
<title>src/components/layout/title.tsx</title>
<g id="a_node33"><a xlink:href="src/components/layout/title.tsx" xlink:title="title.tsx">
<path fill="#bbfeff" stroke="#000000" d="M807.5,-573.694C807.5,-573.694 765.5,-573.694 765.5,-573.694 762.5,-573.694 759.5,-570.694 759.5,-567.694 759.5,-567.694 759.5,-561.694 759.5,-561.694 759.5,-558.694 762.5,-555.694 765.5,-555.694 765.5,-555.694 807.5,-555.694 807.5,-555.694 810.5,-555.694 813.5,-558.694 813.5,-561.694 813.5,-561.694 813.5,-567.694 813.5,-567.694 813.5,-570.694 810.5,-573.694 807.5,-573.694"/>
<text text-anchor="middle" x="786.5" y="-562.494" font-family="Helvetica,sans-Serif" font-size="9.00" fill="#000000">title.tsx</text>
</a>
</g>
</g>
<!-- src/templates/blog&#45;post&#45;template/index.tsx&#45;&gt;src/components/layout/title.tsx -->
<g id="edge50" class="edge">
<title>src/templates/blog&#45;post&#45;template/index.tsx&#45;&gt;src/components/layout/title.tsx</title>
<path fill="none" stroke="#000000" stroke-width="2" stroke-opacity="0.200000" d="M399.4377,-135.6736C457.3379,-109.5581 633.5478,-41.1914 724,-129.694 740.4038,-145.7442 720.0183,-523.7685 733,-542.694 737.8437,-549.7555 745.3959,-554.5536 753.3149,-557.8127"/>
<polygon fill="#000000" fill-opacity="0.200000" stroke="#000000" stroke-width="2" stroke-opacity="0.200000" points="753.0469,-559.949 759.4034,-560.017 754.4767,-555.9998 753.0469,-559.949"/>
</g>
<!-- src/components/table&#45;of&#45;contents/index.tsx -->
<g id="node39" class="node">
<title>src/components/table&#45;of&#45;contents/index.tsx</title>
<g id="a_node39"><a xlink:href="src/components/table-of-contents/index.tsx" xlink:title="index.tsx">
<path fill="#bbfeff" stroke="#000000" d="M679.5,-348.694C679.5,-348.694 633.5,-348.694 633.5,-348.694 630.5,-348.694 627.5,-345.694 627.5,-342.694 627.5,-342.694 627.5,-336.694 627.5,-336.694 627.5,-333.694 630.5,-330.694 633.5,-330.694 633.5,-330.694 679.5,-330.694 679.5,-330.694 682.5,-330.694 685.5,-333.694 685.5,-336.694 685.5,-336.694 685.5,-342.694 685.5,-342.694 685.5,-345.694 682.5,-348.694 679.5,-348.694"/>
<text text-anchor="middle" x="656.5" y="-337.494" font-family="Helvetica,sans-Serif" font-size="9.00" fill="#000000">index.tsx</text>
</a>
</g>
</g>
<!-- src/templates/blog&#45;post&#45;template/index.tsx&#45;&gt;src/components/table&#45;of&#45;contents/index.tsx -->
<g id="edge51" class="edge">
<title>src/templates/blog&#45;post&#45;template/index.tsx&#45;&gt;src/components/table&#45;of&#45;contents/index.tsx</title>
<path fill="none" stroke="#000000" stroke-width="2" stroke-opacity="0.200000" d="M409.8449,-142.3186C424.5885,-142.8155 441.5043,-146.2631 452,-157.694 472.6831,-180.2199 444.8973,-271.6485 465,-294.694 503.7298,-339.0933 577.2257,-344.0879 621.0424,-342.6236"/>
<polygon fill="#000000" fill-opacity="0.200000" stroke="#000000" stroke-width="2" stroke-opacity="0.200000" points="621.3764,-344.7117 627.2841,-342.3647 621.2022,-340.5153 621.3764,-344.7117"/>
</g>
<!-- src/templates/blog&#45;post&#45;template/article&#45;elements.tsx -->
<g id="node44" class="node">
<title>src/templates/blog&#45;post&#45;template/article&#45;elements.tsx</title>
<g id="a_node44"><a xlink:href="src/templates/blog-post-template/article-elements.tsx" xlink:title="article&#45;elements.tsx">
<path fill="#bbfeff" stroke="#000000" d="M564,-153.694C564,-153.694 471,-153.694 471,-153.694 468,-153.694 465,-150.694 465,-147.694 465,-147.694 465,-141.694 465,-141.694 465,-138.694 468,-135.694 471,-135.694 471,-135.694 564,-135.694 564,-135.694 567,-135.694 570,-138.694 570,-141.694 570,-141.694 570,-147.694 570,-147.694 570,-150.694 567,-153.694 564,-153.694"/>
<text text-anchor="middle" x="517.5" y="-142.494" font-family="Helvetica,sans-Serif" font-size="9.00" fill="#000000">article&#45;elements.tsx</text>
</a>
</g>
</g>
<!-- src/templates/blog&#45;post&#45;template/index.tsx&#45;&gt;src/templates/blog&#45;post&#45;template/article&#45;elements.tsx -->
<g id="edge53" class="edge">
<title>src/templates/blog&#45;post&#45;template/index.tsx&#45;&gt;src/templates/blog&#45;post&#45;template/article&#45;elements.tsx</title>
<path fill="none" stroke="#000000" stroke-width="2" stroke-opacity="0.200000" d="M409.5542,-144.694C423.8948,-144.694 441.7344,-144.694 458.7539,-144.694"/>
<polygon fill="#000000" fill-opacity="0.200000" stroke="#000000" stroke-width="2" stroke-opacity="0.200000" points="458.9791,-146.794 464.9791,-144.694 458.9791,-142.594 458.9791,-146.794"/>
</g>
<!-- src/templates/tag&#45;page&#45;template.tsx&#45;&gt;src/templates/post&#45;list&#45;page.tsx -->
<g id="edge56" class="edge">
<title>src/templates/tag&#45;page&#45;template.tsx&#45;&gt;src/templates/post&#45;list&#45;page.tsx</title>
<path fill="none" stroke="#000000" stroke-width="2" stroke-opacity="0.200000" d="M435.0758,-205.781C440.8914,-207.4436 446.6362,-209.3984 452,-211.694 470.8118,-219.7447 489.811,-233.571 502.4665,-243.7786"/>
<polygon fill="#000000" fill-opacity="0.200000" stroke="#000000" stroke-width="2" stroke-opacity="0.200000" points="501.1863,-245.4446 507.1557,-247.6303 503.8522,-242.1991 501.1863,-245.4446"/>
</g>
<!-- src/utils/panic.ts -->
<g id="node25" class="node">
<title>src/utils/panic.ts</title>
<g id="a_node25"><a xlink:href="src/utils/panic.ts" xlink:title="panic.ts">
<path fill="#ddfeff" stroke="#000000" d="M1150,-211.694C1150,-211.694 1108,-211.694 1108,-211.694 1105,-211.694 1102,-208.694 1102,-205.694 1102,-205.694 1102,-199.694 1102,-199.694 1102,-196.694 1105,-193.694 1108,-193.694 1108,-193.694 1150,-193.694 1150,-193.694 1153,-193.694 1156,-196.694 1156,-199.694 1156,-199.694 1156,-205.694 1156,-205.694 1156,-208.694 1153,-211.694 1150,-211.694"/>
<text text-anchor="middle" x="1129" y="-200.494" font-family="Helvetica,sans-Serif" font-size="9.00" fill="#000000">panic.ts</text>
</a>
</g>
</g>
<!-- src/utils/asserts&#45;non&#45;null.ts&#45;&gt;src/utils/panic.ts -->
<g id="edge57" class="edge">
<title>src/utils/asserts&#45;non&#45;null.ts&#45;&gt;src/utils/panic.ts</title>
<path fill="none" stroke="#000000" stroke-width="2" stroke-opacity="0.200000" d="M1089.2228,-202.694C1091.3955,-202.694 1093.5523,-202.694 1095.6725,-202.694"/>
<polygon fill="#000000" fill-opacity="0.200000" stroke="#000000" stroke-width="2" stroke-opacity="0.200000" points="1095.9023,-204.794 1101.9023,-202.694 1095.9022,-200.594 1095.9023,-204.794"/>
</g>
<!-- gatsby/node/on&#45;create&#45;node.ts&#45;&gt;src/utils/asserts&#45;non&#45;null.ts -->
<g id="edge11" class="edge">
<title>gatsby/node/on&#45;create&#45;node.ts&#45;&gt;src/utils/asserts&#45;non&#45;null.ts</title>
<path fill="none" stroke="#000000" stroke-width="2" stroke-opacity="0.200000" d="M237.1235,-1119.6215C238.5608,-1017.0075 252.8011,-77.7013 293,-36.694 363.0248,34.7392 417.4691,-20.694 517.5,-20.694 517.5,-20.694 517.5,-20.694 786.5,-20.694 870.1362,-20.694 915.8199,23.3901 974,-36.694 985.6875,-48.764 971.3797,-174.675 982,-187.694 982.8315,-188.7132 983.7227,-189.6682 984.6658,-190.5627"/>
<polygon fill="#000000" fill-opacity="0.200000" stroke="#000000" stroke-width="2" stroke-opacity="0.200000" points="983.7532,-192.5142 989.7755,-194.5494 986.3368,-189.2028 983.7532,-192.5142"/>
</g>
<!-- src/@types/tailwindcss.d.ts -->
<g id="node15" class="node">
<title>src/@types/tailwindcss.d.ts</title>
<g id="a_node15"><a xlink:href="src/@types/tailwindcss.d.ts" xlink:title="tailwindcss.d.ts">
<path fill="#ccffcc" stroke="#000000" d="M417.5,-818.694C417.5,-818.694 343.5,-818.694 343.5,-818.694 340.5,-818.694 337.5,-815.694 337.5,-812.694 337.5,-812.694 337.5,-806.694 337.5,-806.694 337.5,-803.694 340.5,-800.694 343.5,-800.694 343.5,-800.694 417.5,-800.694 417.5,-800.694 420.5,-800.694 423.5,-803.694 423.5,-806.694 423.5,-806.694 423.5,-812.694 423.5,-812.694 423.5,-815.694 420.5,-818.694 417.5,-818.694"/>
<text text-anchor="middle" x="380.5" y="-807.494" font-family="Helvetica,sans-Serif" font-size="9.00" fill="#000000">tailwindcss.d.ts</text>
</a>
</g>
</g>
<!-- src/components/article/article&#45;styles.ts -->
<g id="node16" class="node">
<title>src/components/article/article&#45;styles.ts</title>
<g id="a_node16"><a xlink:href="src/components/article/article-styles.ts" xlink:title="article&#45;styles.ts">
<path fill="#ddfeff" stroke="#000000" d="M822.5,-933.694C822.5,-933.694 750.5,-933.694 750.5,-933.694 747.5,-933.694 744.5,-930.694 744.5,-927.694 744.5,-927.694 744.5,-921.694 744.5,-921.694 744.5,-918.694 747.5,-915.694 750.5,-915.694 750.5,-915.694 822.5,-915.694 822.5,-915.694 825.5,-915.694 828.5,-918.694 828.5,-921.694 828.5,-921.694 828.5,-927.694 828.5,-927.694 828.5,-930.694 825.5,-933.694 822.5,-933.694"/>
<text text-anchor="middle" x="786.5" y="-922.494" font-family="Helvetica,sans-Serif" font-size="9.00" fill="#000000">article&#45;styles.ts</text>
</a>
</g>
</g>
<!-- src/components/article/index.tsx&#45;&gt;src/components/article/article&#45;styles.ts -->
<g id="edge12" class="edge">
<title>src/components/article/index.tsx&#45;&gt;src/components/article/article&#45;styles.ts</title>
<path fill="none" stroke="#000000" stroke-width="2" stroke-opacity="0.200000" d="M685.6745,-924.694C701.0091,-924.694 720.2124,-924.694 737.7342,-924.694"/>
<polygon fill="#000000" fill-opacity="0.200000" stroke="#000000" stroke-width="2" stroke-opacity="0.200000" points="738.1032,-926.794 744.1032,-924.694 738.1032,-922.594 738.1032,-926.794"/>
</g>
<!-- src/components/atoms/anchor&#45;or&#45;link.tsx -->
<g id="node18" class="node">
<title>src/components/atoms/anchor&#45;or&#45;link.tsx</title>
<g id="a_node18"><a xlink:href="src/components/atoms/anchor-or-link.tsx" xlink:title="anchor&#45;or&#45;link.tsx">
<path fill="#bbfeff" stroke="#000000" d="M952,-363.694C952,-363.694 870,-363.694 870,-363.694 867,-363.694 864,-360.694 864,-357.694 864,-357.694 864,-351.694 864,-351.694 864,-348.694 867,-345.694 870,-345.694 870,-345.694 952,-345.694 952,-345.694 955,-345.694 958,-348.694 958,-351.694 958,-351.694 958,-357.694 958,-357.694 958,-360.694 955,-363.694 952,-363.694"/>
<text text-anchor="middle" x="911" y="-352.494" font-family="Helvetica,sans-Serif" font-size="9.00" fill="#000000">anchor&#45;or&#45;link.tsx</text>
</a>
</g>
</g>
<!-- src/components/color&#45;checker/index.tsx -->
<g id="node20" class="node">
<title>src/components/color&#45;checker/index.tsx</title>
<g id="a_node20"><a xlink:href="src/components/color-checker/index.tsx" xlink:title="index.tsx">
<path fill="#ccffcc" stroke="#000000" d="M679.5,-873.694C679.5,-873.694 633.5,-873.694 633.5,-873.694 630.5,-873.694 627.5,-870.694 627.5,-867.694 627.5,-867.694 627.5,-861.694 627.5,-861.694 627.5,-858.694 630.5,-855.694 633.5,-855.694 633.5,-855.694 679.5,-855.694 679.5,-855.694 682.5,-855.694 685.5,-858.694 685.5,-861.694 685.5,-861.694 685.5,-867.694 685.5,-867.694 685.5,-870.694 682.5,-873.694 679.5,-873.694"/>
<text text-anchor="middle" x="656.5" y="-862.494" font-family="Helvetica,sans-Serif" font-size="9.00" fill="#000000">index.tsx</text>
</a>
</g>
</g>
<!-- src/components/embeddeds/niconico.tsx -->
<g id="node21" class="node">
<title>src/components/embeddeds/niconico.tsx</title>
<g id="a_node21"><a xlink:href="src/components/embeddeds/niconico.tsx" xlink:title="niconico.tsx">
<path fill="#ccffcc" stroke="#000000" d="M686,-813.694C686,-813.694 627,-813.694 627,-813.694 624,-813.694 621,-810.694 621,-807.694 621,-807.694 621,-801.694 621,-801.694 621,-798.694 624,-795.694 627,-795.694 627,-795.694 686,-795.694 686,-795.694 689,-795.694 692,-798.694 692,-801.694 692,-801.694 692,-807.694 692,-807.694 692,-810.694 689,-813.694 686,-813.694"/>
<text text-anchor="middle" x="656.5" y="-802.494" font-family="Helvetica,sans-Serif" font-size="9.00" fill="#000000">niconico.tsx</text>
</a>
</g>
</g>
<!-- src/components/embeddeds/youtube.tsx -->
<g id="node22" class="node">
<title>src/components/embeddeds/youtube.tsx</title>
<g id="a_node22"><a xlink:href="src/components/embeddeds/youtube.tsx" xlink:title="youtube.tsx">
<path fill="#ccffcc" stroke="#000000" d="M686,-783.694C686,-783.694 627,-783.694 627,-783.694 624,-783.694 621,-780.694 621,-777.694 621,-777.694 621,-771.694 621,-771.694 621,-768.694 624,-765.694 627,-765.694 627,-765.694 686,-765.694 686,-765.694 689,-765.694 692,-768.694 692,-771.694 692,-771.694 692,-777.694 692,-777.694 692,-780.694 689,-783.694 686,-783.694"/>
<text text-anchor="middle" x="656.5" y="-772.494" font-family="Helvetica,sans-Serif" font-size="9.00" fill="#000000">youtube.tsx</text>
</a>
</g>
</g>
<!-- src/components/git&#45;info/useLatestCommit.ts -->
<g id="node24" class="node">
<title>src/components/git&#45;info/useLatestCommit.ts</title>
<g id="a_node24"><a xlink:href="src/components/git-info/useLatestCommit.ts" xlink:title="useLatestCommit.ts">
<path fill="#ddfeff" stroke="#000000" d="M834,-723.694C834,-723.694 739,-723.694 739,-723.694 736,-723.694 733,-720.694 733,-717.694 733,-717.694 733,-711.694 733,-711.694 733,-708.694 736,-705.694 739,-705.694 739,-705.694 834,-705.694 834,-705.694 837,-705.694 840,-708.694 840,-711.694 840,-711.694 840,-717.694 840,-717.694 840,-720.694 837,-723.694 834,-723.694"/>
<text text-anchor="middle" x="786.5" y="-712.494" font-family="Helvetica,sans-Serif" font-size="9.00" fill="#000000">useLatestCommit.ts</text>
</a>
</g>
</g>
<!-- src/components/git&#45;info/index.tsx&#45;&gt;src/components/git&#45;info/useLatestCommit.ts -->
<g id="edge13" class="edge">
<title>src/components/git&#45;info/index.tsx&#45;&gt;src/components/git&#45;info/useLatestCommit.ts</title>
<path fill="none" stroke="#000000" stroke-width="2" stroke-opacity="0.200000" d="M685.6745,-714.694C697.858,-714.694 712.4835,-714.694 726.7676,-714.694"/>
<polygon fill="#000000" fill-opacity="0.200000" stroke="#000000" stroke-width="2" stroke-opacity="0.200000" points="726.8603,-716.794 732.8603,-714.694 726.8602,-712.594 726.8603,-716.794"/>
</g>
<!-- src/components/git&#45;info/useLatestCommit.ts&#45;&gt;src/utils/panic.ts -->
<g id="edge14" class="edge">
<title>src/components/git&#45;info/useLatestCommit.ts&#45;&gt;src/utils/panic.ts</title>
<path fill="none" stroke="#000000" stroke-width="2" stroke-opacity="0.200000" d="M790.4637,-723.9578C801.8678,-751.1091 834.788,-833.0934 848,-904.694 851.1092,-921.5437 843.574,-1046.8967 856,-1058.694 894.0336,-1094.803 933.7478,-1092.3121 974,-1058.694 1109.6866,-945.3703 1126.8304,-323.4452 1128.7702,-217.9142"/>
<polygon fill="#000000" fill-opacity="0.200000" stroke="#000000" stroke-width="2" stroke-opacity="0.200000" points="1130.8731,-217.7561 1128.8771,-211.7207 1126.6737,-217.6836 1130.8731,-217.7561"/>
</g>
<!-- src/components/layout/breadcrumbs.tsx -->
<g id="node26" class="node">
<title>src/components/layout/breadcrumbs.tsx</title>
<g id="a_node26"><a xlink:href="src/components/layout/breadcrumbs.tsx" xlink:title="breadcrumbs.tsx">
<path fill="#bbfeff" stroke="#000000" d="M827.5,-633.694C827.5,-633.694 745.5,-633.694 745.5,-633.694 742.5,-633.694 739.5,-630.694 739.5,-627.694 739.5,-627.694 739.5,-621.694 739.5,-621.694 739.5,-618.694 742.5,-615.694 745.5,-615.694 745.5,-615.694 827.5,-615.694 827.5,-615.694 830.5,-615.694 833.5,-618.694 833.5,-621.694 833.5,-621.694 833.5,-627.694 833.5,-627.694 833.5,-630.694 830.5,-633.694 827.5,-633.694"/>
<text text-anchor="middle" x="786.5" y="-622.494" font-family="Helvetica,sans-Serif" font-size="9.00" fill="#000000">breadcrumbs.tsx</text>
</a>
</g>
</g>
<!-- src/components/layout/breadcrumbs.tsx&#45;&gt;src/utils/asserts&#45;non&#45;null.ts -->
<g id="edge16" class="edge">
<title>src/components/layout/breadcrumbs.tsx&#45;&gt;src/utils/asserts&#45;non&#45;null.ts</title>
<path fill="none" stroke="#000000" stroke-width="2" stroke-opacity="0.200000" d="M833.7131,-629.1909C839.2257,-631.5946 844.2201,-634.9771 848,-639.694 862.2117,-657.4288 839.7735,-1032.7818 856,-1048.694 874.7223,-1067.0537 954.7557,-1066.5058 974,-1048.694 1005.7687,-1019.2898 1034.424,-330.5177 1038.8956,-218.1329"/>
<polygon fill="#000000" fill-opacity="0.200000" stroke="#000000" stroke-width="2" stroke-opacity="0.200000" points="1041.0055,-217.9215 1039.1445,-211.8431 1036.8088,-217.7554 1041.0055,-217.9215"/>
</g>
<!-- src/hooks/use&#45;site.ts -->
<g id="node27" class="node">
<title>src/hooks/use&#45;site.ts</title>
<g id="a_node27"><a xlink:href="src/hooks/use-site.ts" xlink:title="use&#45;site.ts">
<path fill="#ddfeff" stroke="#000000" d="M936,-1019.694C936,-1019.694 886,-1019.694 886,-1019.694 883,-1019.694 880,-1016.694 880,-1013.694 880,-1013.694 880,-1007.694 880,-1007.694 880,-1004.694 883,-1001.694 886,-1001.694 886,-1001.694 936,-1001.694 936,-1001.694 939,-1001.694 942,-1004.694 942,-1007.694 942,-1007.694 942,-1013.694 942,-1013.694 942,-1016.694 939,-1019.694 936,-1019.694"/>
<text text-anchor="middle" x="911" y="-1008.494" font-family="Helvetica,sans-Serif" font-size="9.00" fill="#000000">use&#45;site.ts</text>
</a>
</g>
</g>
<!-- src/components/layout/breadcrumbs.tsx&#45;&gt;src/hooks/use&#45;site.ts -->
<g id="edge15" class="edge">
<title>src/components/layout/breadcrumbs.tsx&#45;&gt;src/hooks/use&#45;site.ts</title>
<path fill="none" stroke="#000000" stroke-width="2" stroke-opacity="0.200000" d="M833.6947,-629.9909C839.068,-632.2912 844.0301,-635.4316 848,-639.694 897.4061,-692.7399 908.4969,-932.6012 910.5744,-995.535"/>
<polygon fill="#000000" fill-opacity="0.200000" stroke="#000000" stroke-width="2" stroke-opacity="0.200000" points="908.4804,-995.7607 910.767,-1001.6921 912.6783,-995.6293 908.4804,-995.7607"/>
</g>
<!-- src/components/styles/styles.ts -->
<g id="node28" class="node">
<title>src/components/styles/styles.ts</title>
<g id="a_node28"><a xlink:href="src/components/styles/styles.ts" xlink:title="styles.ts">
<path fill="#ddfeff" stroke="#000000" d="M932,-513.694C932,-513.694 890,-513.694 890,-513.694 887,-513.694 884,-510.694 884,-507.694 884,-507.694 884,-501.694 884,-501.694 884,-498.694 887,-495.694 890,-495.694 890,-495.694 932,-495.694 932,-495.694 935,-495.694 938,-498.694 938,-501.694 938,-501.694 938,-507.694 938,-507.694 938,-510.694 935,-513.694 932,-513.694"/>
<text text-anchor="middle" x="911" y="-502.494" font-family="Helvetica,sans-Serif" font-size="9.00" fill="#000000">styles.ts</text>
</a>
</g>
</g>
<!-- src/components/layout/breadcrumbs.tsx&#45;&gt;src/components/styles/styles.ts -->
<g id="edge17" class="edge">
<title>src/components/layout/breadcrumbs.tsx&#45;&gt;src/components/styles/styles.ts</title>
<path fill="none" stroke="#000000" stroke-width="2" stroke-opacity="0.200000" d="M833.5981,-617.3962C838.7347,-615.408 843.664,-612.8874 848,-609.694 879.2924,-586.6471 898.0195,-542.971 906.1696,-519.8817"/>
<polygon fill="#000000" fill-opacity="0.200000" stroke="#000000" stroke-width="2" stroke-opacity="0.200000" points="908.2434,-520.3062 908.1895,-513.9495 904.2675,-518.9523 908.2434,-520.3062"/>
</g>
<!-- src/hooks/use&#45;site.ts&#45;&gt;src/utils/asserts&#45;non&#45;null.ts -->
<g id="edge32" class="edge">
<title>src/hooks/use&#45;site.ts&#45;&gt;src/utils/asserts&#45;non&#45;null.ts</title>
<path fill="none" stroke="#000000" stroke-width="2" stroke-opacity="0.200000" d="M912.4431,-1001.6197C925.3399,-920.5256 1020.7084,-320.8543 1037.1039,-217.7606"/>
<polygon fill="#000000" fill-opacity="0.200000" stroke="#000000" stroke-width="2" stroke-opacity="0.200000" points="1039.1994,-217.9543 1038.0679,-211.6989 1035.0515,-217.2946 1039.1994,-217.9543"/>
</g>
<!-- src/components/layout/footer.tsx -->
<g id="node29" class="node">
<title>src/components/layout/footer.tsx</title>
<g id="a_node29"><a xlink:href="src/components/layout/footer.tsx" xlink:title="footer.tsx">
<path fill="#bbfeff" stroke="#000000" d="M810,-663.694C810,-663.694 763,-663.694 763,-663.694 760,-663.694 757,-660.694 757,-657.694 757,-657.694 757,-651.694 757,-651.694 757,-648.694 760,-645.694 763,-645.694 763,-645.694 810,-645.694 810,-645.694 813,-645.694 816,-648.694 816,-651.694 816,-651.694 816,-657.694 816,-657.694 816,-660.694 813,-663.694 810,-663.694"/>
<text text-anchor="middle" x="786.5" y="-652.494" font-family="Helvetica,sans-Serif" font-size="9.00" fill="#000000">footer.tsx</text>
</a>
</g>
</g>
<!-- src/components/layout/footer.tsx&#45;&gt;src/hooks/use&#45;site.ts -->
<g id="edge18" class="edge">
<title>src/components/layout/footer.tsx&#45;&gt;src/hooks/use&#45;site.ts</title>
<path fill="none" stroke="#000000" stroke-width="2" stroke-opacity="0.200000" d="M808.8689,-663.8101C822.2701,-670.4209 838.4986,-680.6696 848,-694.694 882.2214,-745.2057 903.8646,-939.0666 909.5188,-995.3128"/>
<polygon fill="#000000" fill-opacity="0.200000" stroke="#000000" stroke-width="2" stroke-opacity="0.200000" points="907.4475,-995.7073 910.1288,-1001.471 911.627,-995.2932 907.4475,-995.7073"/>
</g>
<!-- src/components/layout/header.tsx -->
<g id="node30" class="node">
<title>src/components/layout/header.tsx</title>
<g id="a_node30"><a xlink:href="src/components/layout/header.tsx" xlink:title="header.tsx">
<path fill="#bbfeff" stroke="#000000" d="M812.5,-603.694C812.5,-603.694 760.5,-603.694 760.5,-603.694 757.5,-603.694 754.5,-600.694 754.5,-597.694 754.5,-597.694 754.5,-591.694 754.5,-591.694 754.5,-588.694 757.5,-585.694 760.5,-585.694 760.5,-585.694 812.5,-585.694 812.5,-585.694 815.5,-585.694 818.5,-588.694 818.5,-591.694 818.5,-591.694 818.5,-597.694 818.5,-597.694 818.5,-600.694 815.5,-603.694 812.5,-603.694"/>
<text text-anchor="middle" x="786.5" y="-592.494" font-family="Helvetica,sans-Serif" font-size="9.00" fill="#000000">header.tsx</text>
</a>
</g>
</g>
<!-- src/components/layout/header.tsx&#45;&gt;src/components/atoms/anchor&#45;or&#45;link.tsx -->
<g id="edge19" class="edge">
<title>src/components/layout/header.tsx&#45;&gt;src/components/atoms/anchor&#45;or&#45;link.tsx</title>
<path fill="none" stroke="#000000" stroke-width="2" stroke-opacity="0.200000" d="M818.7683,-594.3463C829.679,-592.4993 840.8871,-588.3581 848,-579.694 861.0552,-563.7916 846.2697,-412.8224 856,-394.694 862.43,-382.7142 874.2043,-373.4183 885.2137,-366.8157"/>
<polygon fill="#000000" fill-opacity="0.200000" stroke="#000000" stroke-width="2" stroke-opacity="0.200000" points="886.3536,-368.5833 890.5301,-363.7909 884.2766,-364.9328 886.3536,-368.5833"/>
</g>
<!-- src/components/layout/header.tsx&#45;&gt;src/components/styles/styles.ts -->
<g id="edge20" class="edge">
<title>src/components/layout/header.tsx&#45;&gt;src/components/styles/styles.ts</title>
<path fill="none" stroke="#000000" stroke-width="2" stroke-opacity="0.200000" d="M818.6703,-590.823C828.6006,-588.6136 839.2237,-585.1436 848,-579.694 872.5307,-564.4615 892.2369,-536.4389 902.7261,-519.2954"/>
<polygon fill="#000000" fill-opacity="0.200000" stroke="#000000" stroke-width="2" stroke-opacity="0.200000" points="904.6545,-520.1617 905.9236,-513.9327 901.047,-518.0107 904.6545,-520.1617"/>
</g>
<!-- src/components/layout/index.tsx&#45;&gt;src/components/layout/breadcrumbs.tsx -->
<g id="edge22" class="edge">
<title>src/components/layout/index.tsx&#45;&gt;src/components/layout/breadcrumbs.tsx</title>
<path fill="none" stroke="#000000" stroke-width="2" stroke-opacity="0.200000" d="M669.4911,-573.7533C684.2867,-583.7271 709.4661,-599.6735 733,-609.694 736.4364,-611.1571 740.0572,-612.5209 743.7279,-613.7817"/>
<polygon fill="#000000" fill-opacity="0.200000" stroke="#000000" stroke-width="2" stroke-opacity="0.200000" points="743.1623,-615.8062 749.518,-615.6779 744.4695,-611.8148 743.1623,-615.8062"/>
</g>
<!-- src/components/layout/index.tsx&#45;&gt;src/components/layout/footer.tsx -->
<g id="edge23" class="edge">
<title>src/components/layout/index.tsx&#45;&gt;src/components/layout/footer.tsx</title>
<path fill="none" stroke="#000000" stroke-width="2" stroke-opacity="0.200000" d="M663.2244,-573.7997C675.3755,-589.6012 702.5715,-622.0924 733,-639.694 738.4484,-642.8456 744.595,-645.3651 750.73,-647.37"/>
<polygon fill="#000000" fill-opacity="0.200000" stroke="#000000" stroke-width="2" stroke-opacity="0.200000" points="750.4841,-649.489 756.8348,-649.2077 751.6948,-645.4673 750.4841,-649.489"/>
</g>
<!-- src/components/layout/index.tsx&#45;&gt;src/components/layout/header.tsx -->
<g id="edge24" class="edge">
<title>src/components/layout/index.tsx&#45;&gt;src/components/layout/header.tsx</title>
<path fill="none" stroke="#000000" stroke-width="2" stroke-opacity="0.200000" d="M685.6745,-571.4265C704.1275,-575.6849 728.1826,-581.2361 748.1684,-585.8482"/>
<polygon fill="#000000" fill-opacity="0.200000" stroke="#000000" stroke-width="2" stroke-opacity="0.200000" points="747.9109,-587.9439 754.2295,-587.2469 748.8554,-583.8515 747.9109,-587.9439"/>
</g>
<!-- src/components/styles/global.ts -->
<g id="node32" class="node">
<title>src/components/styles/global.ts</title>
<g id="a_node32"><a xlink:href="src/components/styles/global.ts" xlink:title="global.ts">
<path fill="#ddfeff" stroke="#000000" d="M808,-513.694C808,-513.694 765,-513.694 765,-513.694 762,-513.694 759,-510.694 759,-507.694 759,-507.694 759,-501.694 759,-501.694 759,-498.694 762,-495.694 765,-495.694 765,-495.694 808,-495.694 808,-495.694 811,-495.694 814,-498.694 814,-501.694 814,-501.694 814,-507.694 814,-507.694 814,-510.694 811,-513.694 808,-513.694"/>
<text text-anchor="middle" x="786.5" y="-502.494" font-family="Helvetica,sans-Serif" font-size="9.00" fill="#000000">global.ts</text>
</a>
</g>
</g>
<!-- src/components/layout/index.tsx&#45;&gt;src/components/styles/global.ts -->
<g id="edge21" class="edge">
<title>src/components/layout/index.tsx&#45;&gt;src/components/styles/global.ts</title>
<path fill="none" stroke="#000000" stroke-width="2" stroke-opacity="0.200000" d="M676.2442,-555.5812C698.9964,-545.0802 736.4348,-527.801 761.2779,-516.3349"/>
<polygon fill="#000000" fill-opacity="0.200000" stroke="#000000" stroke-width="2" stroke-opacity="0.200000" points="762.4282,-518.1169 766.9959,-513.6958 760.6681,-514.3035 762.4282,-518.1169"/>
</g>
<!-- src/components/layout/index.tsx&#45;&gt;src/components/layout/title.tsx -->
<g id="edge25" class="edge">
<title>src/components/layout/index.tsx&#45;&gt;src/components/layout/title.tsx</title>
<path fill="none" stroke="#000000" stroke-width="2" stroke-opacity="0.200000" d="M685.6745,-564.694C705.6201,-564.694 732.1105,-564.694 752.9329,-564.694"/>
<polygon fill="#000000" fill-opacity="0.200000" stroke="#000000" stroke-width="2" stroke-opacity="0.200000" points="753.1995,-566.794 759.1995,-564.694 753.1994,-562.594 753.1995,-566.794"/>
</g>
<!-- src/components/styles/global.ts&#45;&gt;src/components/styles/styles.ts -->
<g id="edge31" class="edge">
<title>src/components/styles/global.ts&#45;&gt;src/components/styles/styles.ts</title>
<path fill="none" stroke="#000000" stroke-width="2" stroke-opacity="0.200000" d="M814.1306,-504.694C832.8768,-504.694 857.7648,-504.694 877.6196,-504.694"/>
<polygon fill="#000000" fill-opacity="0.200000" stroke="#000000" stroke-width="2" stroke-opacity="0.200000" points="877.875,-506.794 883.875,-504.694 877.875,-502.594 877.875,-506.794"/>
</g>
<!-- src/components/styles/prism&#45;styles.ts -->
<g id="node37" class="node">
<title>src/components/styles/prism&#45;styles.ts</title>
<g id="a_node37"><a xlink:href="src/components/styles/prism-styles.ts" xlink:title="prism&#45;styles.ts">
<path fill="#ddfeff" stroke="#000000" d="M946,-483.694C946,-483.694 876,-483.694 876,-483.694 873,-483.694 870,-480.694 870,-477.694 870,-477.694 870,-471.694 870,-471.694 870,-468.694 873,-465.694 876,-465.694 876,-465.694 946,-465.694 946,-465.694 949,-465.694 952,-468.694 952,-471.694 952,-471.694 952,-477.694 952,-477.694 952,-480.694 949,-483.694 946,-483.694"/>
<text text-anchor="middle" x="911" y="-472.494" font-family="Helvetica,sans-Serif" font-size="9.00" fill="#000000">prism&#45;styles.ts</text>
</a>
</g>
</g>
<!-- src/components/styles/global.ts&#45;&gt;src/components/styles/prism&#45;styles.ts -->
<g id="edge30" class="edge">
<title>src/components/styles/global.ts&#45;&gt;src/components/styles/prism&#45;styles.ts</title>
<path fill="none" stroke="#000000" stroke-width="2" stroke-opacity="0.200000" d="M814.1306,-498.036C829.835,-494.2518 849.8497,-489.429 867.6047,-485.1507"/>
<polygon fill="#000000" fill-opacity="0.200000" stroke="#000000" stroke-width="2" stroke-opacity="0.200000" points="868.1888,-487.1701 873.5298,-483.7229 867.2048,-483.087 868.1888,-487.1701"/>
</g>
<!-- src/components/post&#45;link/post&#45;date.tsx -->
<g id="node34" class="node">
<title>src/components/post&#45;link/post&#45;date.tsx</title>
<g id="a_node34"><a xlink:href="src/components/post-link/post-date.tsx" xlink:title="post&#45;date.tsx">
<path fill="#bbfeff" stroke="#000000" d="M943,-423.694C943,-423.694 879,-423.694 879,-423.694 876,-423.694 873,-420.694 873,-417.694 873,-417.694 873,-411.694 873,-411.694 873,-408.694 876,-405.694 879,-405.694 879,-405.694 943,-405.694 943,-405.694 946,-405.694 949,-408.694 949,-411.694 949,-411.694 949,-417.694 949,-417.694 949,-420.694 946,-423.694 943,-423.694"/>
<text text-anchor="middle" x="911" y="-412.494" font-family="Helvetica,sans-Serif" font-size="9.00" fill="#000000">post&#45;date.tsx</text>
</a>
</g>
</g>
<!-- src/components/post&#45;link/post&#45;link.tsx -->
<g id="node35" class="node">
<title>src/components/post&#45;link/post&#45;link.tsx</title>
<g id="a_node35"><a xlink:href="src/components/post-link/post-link.tsx" xlink:title="post&#45;link.tsx">
<path fill="#bbfeff" stroke="#000000" d="M816,-423.694C816,-423.694 757,-423.694 757,-423.694 754,-423.694 751,-420.694 751,-417.694 751,-417.694 751,-411.694 751,-411.694 751,-408.694 754,-405.694 757,-405.694 757,-405.694 816,-405.694 816,-405.694 819,-405.694 822,-408.694 822,-411.694 822,-411.694 822,-417.694 822,-417.694 822,-420.694 819,-423.694 816,-423.694"/>
<text text-anchor="middle" x="786.5" y="-412.494" font-family="Helvetica,sans-Serif" font-size="9.00" fill="#000000">post&#45;link.tsx</text>
</a>
</g>
</g>
<!-- src/components/post&#45;link/post&#45;link.tsx&#45;&gt;src/components/atoms/tag&#45;list.tsx -->
<g id="edge26" class="edge">
<title>src/components/post&#45;link/post&#45;link.tsx&#45;&gt;src/components/atoms/tag&#45;list.tsx</title>
<path fill="none" stroke="#000000" stroke-width="2" stroke-opacity="0.200000" d="M792.3936,-405.5445C803.0993,-389.6755 827.3069,-357.0831 856,-339.694 861.2055,-336.5392 867.0842,-334.0345 873.0121,-332.0496"/>
<polygon fill="#000000" fill-opacity="0.200000" stroke="#000000" stroke-width="2" stroke-opacity="0.200000" points="873.813,-334.0006 878.9333,-330.2332 872.5812,-329.9853 873.813,-334.0006"/>
</g>
<!-- src/components/post&#45;link/post&#45;link.tsx&#45;&gt;src/components/styles/styles.ts -->
<g id="edge27" class="edge">
<title>src/components/post&#45;link/post&#45;link.tsx&#45;&gt;src/components/styles/styles.ts</title>
<path fill="none" stroke="#000000" stroke-width="2" stroke-opacity="0.200000" d="M808.4334,-423.7536C821.8385,-430.3957 838.2308,-440.6992 848,-454.694 857.1335,-467.7781 844.9537,-478.1789 856,-489.694 861.7875,-495.727 869.7436,-499.4118 877.8073,-501.6412"/>
<polygon fill="#000000" fill-opacity="0.200000" stroke="#000000" stroke-width="2" stroke-opacity="0.200000" points="877.6401,-503.7586 883.9603,-503.0772 878.5946,-499.6685 877.6401,-503.7586"/>
</g>
<!-- src/components/post&#45;link/post&#45;link.tsx&#45;&gt;src/components/post&#45;link/post&#45;date.tsx -->
<g id="edge28" class="edge">
<title>src/components/post&#45;link/post&#45;link.tsx&#45;&gt;src/components/post&#45;link/post&#45;date.tsx</title>
<path fill="none" stroke="#000000" stroke-width="2" stroke-opacity="0.200000" d="M822.1767,-414.694C836.0087,-414.694 851.9956,-414.694 866.5617,-414.694"/>
<polygon fill="#000000" fill-opacity="0.200000" stroke="#000000" stroke-width="2" stroke-opacity="0.200000" points="866.707,-416.794 872.707,-414.694 866.7069,-412.594 866.707,-416.794"/>
</g>
<!-- src/components/post&#45;link/post&#45;list.tsx -->
<g id="node36" class="node">
<title>src/components/post&#45;link/post&#45;list.tsx</title>
<g id="a_node36"><a xlink:href="src/components/post-link/post-list.tsx" xlink:title="post&#45;list.tsx">
<path fill="#bbfeff" stroke="#000000" d="M684.5,-423.694C684.5,-423.694 628.5,-423.694 628.5,-423.694 625.5,-423.694 622.5,-420.694 622.5,-417.694 622.5,-417.694 622.5,-411.694 622.5,-411.694 622.5,-408.694 625.5,-405.694 628.5,-405.694 628.5,-405.694 684.5,-405.694 684.5,-405.694 687.5,-405.694 690.5,-408.694 690.5,-411.694 690.5,-411.694 690.5,-417.694 690.5,-417.694 690.5,-420.694 687.5,-423.694 684.5,-423.694"/>
<text text-anchor="middle" x="656.5" y="-412.494" font-family="Helvetica,sans-Serif" font-size="9.00" fill="#000000">post&#45;list.tsx</text>
</a>
</g>
</g>
<!-- src/components/post&#45;link/post&#45;list.tsx&#45;&gt;src/components/post&#45;link/post&#45;link.tsx -->
<g id="edge29" class="edge">
<title>src/components/post&#45;link/post&#45;list.tsx&#45;&gt;src/components/post&#45;link/post&#45;link.tsx</title>
<path fill="none" stroke="#000000" stroke-width="2" stroke-opacity="0.200000" d="M690.656,-414.694C707.138,-414.694 727.0644,-414.694 744.4694,-414.694"/>
<polygon fill="#000000" fill-opacity="0.200000" stroke="#000000" stroke-width="2" stroke-opacity="0.200000" points="744.7566,-416.794 750.7566,-414.694 744.7565,-412.594 744.7566,-416.794"/>
</g>
<!-- src/components/styles/mediaQueries.ts -->
<g id="node38" class="node">
<title>src/components/styles/mediaQueries.ts</title>
<g id="a_node38"><a xlink:href="src/components/styles/mediaQueries.ts" xlink:title="mediaQueries.ts">
<path fill="#ccffcc" stroke="#000000" d="M825,-483.694C825,-483.694 748,-483.694 748,-483.694 745,-483.694 742,-480.694 742,-477.694 742,-477.694 742,-471.694 742,-471.694 742,-468.694 745,-465.694 748,-465.694 748,-465.694 825,-465.694 825,-465.694 828,-465.694 831,-468.694 831,-471.694 831,-471.694 831,-477.694 831,-477.694 831,-480.694 828,-483.694 825,-483.694"/>
<text text-anchor="middle" x="786.5" y="-472.494" font-family="Helvetica,sans-Serif" font-size="9.00" fill="#000000">mediaQueries.ts</text>
</a>
</g>
</g>
<!-- src/pages/404.tsx -->
<g id="node40" class="node">
<title>src/pages/404.tsx</title>
<g id="a_node40"><a xlink:href="src/pages/404.tsx" xlink:title="404.tsx">
<path fill="#bbfeff" stroke="#000000" d="M401.5,-532.694C401.5,-532.694 359.5,-532.694 359.5,-532.694 356.5,-532.694 353.5,-529.694 353.5,-526.694 353.5,-526.694 353.5,-520.694 353.5,-520.694 353.5,-517.694 356.5,-514.694 359.5,-514.694 359.5,-514.694 401.5,-514.694 401.5,-514.694 404.5,-514.694 407.5,-517.694 407.5,-520.694 407.5,-520.694 407.5,-526.694 407.5,-526.694 407.5,-529.694 404.5,-532.694 401.5,-532.694"/>
<text text-anchor="middle" x="380.5" y="-521.494" font-family="Helvetica,sans-Serif" font-size="9.00" fill="#000000">404.tsx</text>
</a>
</g>
</g>
<!-- src/pages/404.tsx&#45;&gt;src/components/layout/index.tsx -->
<g id="edge33" class="edge">
<title>src/pages/404.tsx&#45;&gt;src/components/layout/index.tsx</title>
<path fill="none" stroke="#000000" stroke-width="2" stroke-opacity="0.200000" d="M407.7193,-527.7374C458.0043,-535.2073 565.4066,-551.162 621.2047,-559.4508"/>
<polygon fill="#000000" fill-opacity="0.200000" stroke="#000000" stroke-width="2" stroke-opacity="0.200000" points="621.1763,-561.5696 627.4198,-560.3741 621.7935,-557.4152 621.1763,-561.5696"/>
</g>
<!-- src/pages/index.tsx -->
<g id="node41" class="node">
<title>src/pages/index.tsx</title>
<g id="a_node41"><a xlink:href="src/pages/index.tsx" xlink:title="index.tsx">
<path fill="#bbfeff" stroke="#000000" d="M403.5,-472.694C403.5,-472.694 357.5,-472.694 357.5,-472.694 354.5,-472.694 351.5,-469.694 351.5,-466.694 351.5,-466.694 351.5,-460.694 351.5,-460.694 351.5,-457.694 354.5,-454.694 357.5,-454.694 357.5,-454.694 403.5,-454.694 403.5,-454.694 406.5,-454.694 409.5,-457.694 409.5,-460.694 409.5,-460.694 409.5,-466.694 409.5,-466.694 409.5,-469.694 406.5,-472.694 403.5,-472.694"/>
<text text-anchor="middle" x="380.5" y="-461.494" font-family="Helvetica,sans-Serif" font-size="9.00" fill="#000000">index.tsx</text>
</a>
</g>
</g>
<!-- src/pages/index.tsx&#45;&gt;src/components/layout/index.tsx -->
<g id="edge34" class="edge">
<title>src/pages/index.tsx&#45;&gt;src/components/layout/index.tsx</title>
<path fill="none" stroke="#000000" stroke-width="2" stroke-opacity="0.200000" d="M409.7963,-467.1047C447.9553,-472.2975 516.1456,-484.1707 570,-507.694 596.586,-519.3066 624.0126,-538.9167 640.6642,-551.8346"/>
<polygon fill="#000000" fill-opacity="0.200000" stroke="#000000" stroke-width="2" stroke-opacity="0.200000" points="639.4576,-553.5573 645.4731,-555.6125 642.0522,-550.2545 639.4576,-553.5573"/>
</g>
<!-- src/pages/index.tsx&#45;&gt;src/components/post&#45;link/post&#45;list.tsx -->
<g id="edge35" class="edge">
<title>src/pages/index.tsx&#45;&gt;src/components/post&#45;link/post&#45;list.tsx</title>
<path fill="none" stroke="#000000" stroke-width="2" stroke-opacity="0.200000" d="M409.5152,-458.5427C459.0572,-449.7472 560.0497,-431.8174 616.3354,-421.8246"/>
<polygon fill="#000000" fill-opacity="0.200000" stroke="#000000" stroke-width="2" stroke-opacity="0.200000" points="616.7649,-423.8813 622.3054,-420.7647 616.0307,-419.746 616.7649,-423.8813"/>
</g>
<!-- src/pages/index.tsx&#45;&gt;src/templates/post&#45;list&#45;page.tsx -->
<g id="edge36" class="edge">
<title>src/pages/index.tsx&#45;&gt;src/templates/post&#45;list&#45;page.tsx</title>
<path fill="none" stroke="#000000" stroke-width="2" stroke-opacity="0.200000" d="M386.5635,-454.5323C408.1819,-421.8681 481.5964,-310.9425 507.9686,-271.0954"/>
<polygon fill="#000000" fill-opacity="0.200000" stroke="#000000" stroke-width="2" stroke-opacity="0.200000" points="509.9462,-271.9122 511.5065,-265.7498 506.4438,-269.5942 509.9462,-271.9122"/>
</g>
<!-- src/templates/post&#45;list&#45;page.tsx&#45;&gt;src/components/layout/index.tsx -->
<g id="edge54" class="edge">
<title>src/templates/post&#45;list&#45;page.tsx&#45;&gt;src/components/layout/index.tsx</title>
<path fill="none" stroke="#000000" stroke-width="2" stroke-opacity="0.200000" d="M523.9312,-265.7034C534.8758,-281.4227 557.1801,-315.1953 570,-346.694 588.3062,-391.6723 579.0123,-407.391 596.5,-452.694 610.7197,-489.5309 634.3893,-529.6125 647.341,-550.3906"/>
<polygon fill="#000000" fill-opacity="0.200000" stroke="#000000" stroke-width="2" stroke-opacity="0.200000" points="645.5707,-551.5204 650.542,-555.4824 649.1265,-549.2851 645.5707,-551.5204"/>
</g>
<!-- src/templates/post&#45;list&#45;page.tsx&#45;&gt;src/components/post&#45;link/post&#45;list.tsx -->
<g id="edge55" class="edge">
<title>src/templates/post&#45;list&#45;page.tsx&#45;&gt;src/components/post&#45;link/post&#45;list.tsx</title>
<path fill="none" stroke="#000000" stroke-width="2" stroke-opacity="0.200000" d="M522.8197,-265.9399C537.3404,-290.9864 577.814,-359.4843 596.5,-377.694 606.7436,-387.6764 620.1398,-396.256 631.6749,-402.633"/>
<polygon fill="#000000" fill-opacity="0.200000" stroke="#000000" stroke-width="2" stroke-opacity="0.200000" points="630.8868,-404.5934 637.1662,-405.5831 632.8745,-400.8935 630.8868,-404.5934"/>
</g>
<!-- src/pages/tags.tsx -->
<g id="node43" class="node">
<title>src/pages/tags.tsx</title>
<g id="a_node43"><a xlink:href="src/pages/tags.tsx" xlink:title="tags.tsx">
<path fill="#bbfeff" stroke="#000000" d="M401.5,-502.694C401.5,-502.694 359.5,-502.694 359.5,-502.694 356.5,-502.694 353.5,-499.694 353.5,-496.694 353.5,-496.694 353.5,-490.694 353.5,-490.694 353.5,-487.694 356.5,-484.694 359.5,-484.694 359.5,-484.694 401.5,-484.694 401.5,-484.694 404.5,-484.694 407.5,-487.694 407.5,-490.694 407.5,-490.694 407.5,-496.694 407.5,-496.694 407.5,-499.694 404.5,-502.694 401.5,-502.694"/>
<text text-anchor="middle" x="380.5" y="-491.494" font-family="Helvetica,sans-Serif" font-size="9.00" fill="#000000">tags.tsx</text>
</a>
</g>
</g>
<!-- src/pages/tags.tsx&#45;&gt;src/components/article/index.tsx -->
<g id="edge37" class="edge">
<title>src/pages/tags.tsx&#45;&gt;src/components/article/index.tsx</title>
<path fill="none" stroke="#000000" stroke-width="2" stroke-opacity="0.200000" d="M407.539,-493.0837C422.3244,-494.1562 440.0148,-497.9319 452,-508.694 465.9087,-521.1832 458.8551,-531.0397 465,-548.694 520.1722,-707.2044 477.5702,-784.2658 596.5,-902.694 603.3361,-909.5012 612.4504,-914.2222 621.5067,-917.489"/>
<polygon fill="#000000" fill-opacity="0.200000" stroke="#000000" stroke-width="2" stroke-opacity="0.200000" points="621.0693,-919.5556 627.425,-919.433 622.38,-915.5654 621.0693,-919.5556"/>
</g>
<!-- src/pages/tags.tsx&#45;&gt;src/components/layout/index.tsx -->
<g id="edge38" class="edge">
<title>src/pages/tags.tsx&#45;&gt;src/components/layout/index.tsx</title>
<path fill="none" stroke="#000000" stroke-width="2" stroke-opacity="0.200000" d="M407.6644,-499.3795C421.0203,-502.1783 437.3555,-505.6065 452,-508.694 504.4555,-519.753 518.4269,-519.0619 570,-533.694 589.6824,-539.2781 611.3535,-547.0475 628.0809,-553.4112"/>
<polygon fill="#000000" fill-opacity="0.200000" stroke="#000000" stroke-width="2" stroke-opacity="0.200000" points="627.653,-555.4962 634.0071,-555.6854 629.1579,-551.575 627.653,-555.4962"/>
</g>
<!-- src/pages/tags.tsx&#45;&gt;src/components/post&#45;link/post&#45;list.tsx -->
<g id="edge39" class="edge">
<title>src/pages/tags.tsx&#45;&gt;src/components/post&#45;link/post&#45;list.tsx</title>
<path fill="none" stroke="#000000" stroke-width="2" stroke-opacity="0.200000" d="M407.597,-497.0705C445.351,-500.6901 515.2986,-503.4152 570,-482.694 600.4349,-471.165 628.6724,-444.8627 644.157,-428.5577"/>
<polygon fill="#000000" fill-opacity="0.200000" stroke="#000000" stroke-width="2" stroke-opacity="0.200000" points="645.9915,-429.669 648.5414,-423.8459 642.9167,-426.8078 645.9915,-429.669"/>
</g>
<!-- src/pages/tags.tsx&#45;&gt;src/components/table&#45;of&#45;contents/index.tsx -->
<g id="edge40" class="edge">
<title>src/pages/tags.tsx&#45;&gt;src/components/table&#45;of&#45;contents/index.tsx</title>
<path fill="none" stroke="#000000" stroke-width="2" stroke-opacity="0.200000" d="M407.7374,-490.5323C421.4066,-488.3153 437.9925,-484.6473 452,-478.694 530.0038,-445.5411 609.3272,-380.8471 641.5372,-352.9832"/>
<polygon fill="#000000" fill-opacity="0.200000" stroke="#000000" stroke-width="2" stroke-opacity="0.200000" points="643.1506,-354.3628 646.2948,-348.8379 640.3915,-351.1962 643.1506,-354.3628"/>
</g>
<!-- src/templates/blog&#45;post&#45;template/article&#45;elements.tsx&#45;&gt;src/utils/asserts&#45;non&#45;null.ts -->
<g id="edge44" class="edge">
<title>src/templates/blog&#45;post&#45;template/article&#45;elements.tsx&#45;&gt;src/utils/asserts&#45;non&#45;null.ts</title>
<path fill="none" stroke="#000000" stroke-width="2" stroke-opacity="0.200000" d="M532.8803,-135.5538C548.3416,-126.9373 573.165,-114.6316 596.5,-109.694 651.9391,-97.963 667.592,-104.2853 724,-109.694 779.8776,-115.0517 794.1642,-117.7967 848,-133.694 909.5808,-151.8782 921.0325,-167.5488 982,-187.694 986.477,-189.1733 991.1881,-190.6025 995.907,-191.9523"/>
<polygon fill="#000000" fill-opacity="0.200000" stroke="#000000" stroke-width="2" stroke-opacity="0.200000" points="995.5278,-194.0266 1001.8715,-193.6174 996.6572,-189.9813 995.5278,-194.0266"/>
</g>
<!-- src/templates/blog&#45;post&#45;template/article&#45;elements.tsx&#45;&gt;src/components/atoms/anchor&#45;or&#45;link.tsx -->
<g id="edge43" class="edge">
<title>src/templates/blog&#45;post&#45;template/article&#45;elements.tsx&#45;&gt;src/components/atoms/anchor&#45;or&#45;link.tsx</title>
<path fill="none" stroke="#000000" stroke-width="2" stroke-opacity="0.200000" d="M539.6797,-135.6306C579.4287,-120.925 664.2232,-96.6629 724,-129.694 820.4891,-183.0112 767.4416,-274.0411 856,-339.694 857.4535,-340.7715 858.9799,-341.7717 860.5613,-342.7"/>
<polygon fill="#000000" fill-opacity="0.200000" stroke="#000000" stroke-width="2" stroke-opacity="0.200000" points="859.8316,-344.6872 866.1245,-345.5874 861.7665,-340.9594 859.8316,-344.6872"/>
</g>
<!-- src/templates/blog&#45;post&#45;template/autolink&#45;header.tsx -->
<g id="node45" class="node">
<title>src/templates/blog&#45;post&#45;template/autolink&#45;header.tsx</title>
<g id="a_node45"><a xlink:href="src/templates/blog-post-template/autolink-header.tsx" xlink:title="autolink&#45;header.tsx">
<path fill="#bbfeff" stroke="#000000" d="M702,-153.694C702,-153.694 611,-153.694 611,-153.694 608,-153.694 605,-150.694 605,-147.694 605,-147.694 605,-141.694 605,-141.694 605,-138.694 608,-135.694 611,-135.694 611,-135.694 702,-135.694 702,-135.694 705,-135.694 708,-138.694 708,-141.694 708,-141.694 708,-147.694 708,-147.694 708,-150.694 705,-153.694 702,-153.694"/>
<text text-anchor="middle" x="656.5" y="-142.494" font-family="Helvetica,sans-Serif" font-size="9.00" fill="#000000">autolink&#45;header.tsx</text>
</a>
</g>
</g>
<!-- src/templates/blog&#45;post&#45;template/article&#45;elements.tsx&#45;&gt;src/templates/blog&#45;post&#45;template/autolink&#45;header.tsx -->
<g id="edge45" class="edge">
<title>src/templates/blog&#45;post&#45;template/article&#45;elements.tsx&#45;&gt;src/templates/blog&#45;post&#45;template/autolink&#45;header.tsx</title>
<path fill="none" stroke="#000000" stroke-width="2" stroke-opacity="0.200000" d="M570.0499,-144.694C579.3836,-144.694 589.1516,-144.694 598.6233,-144.694"/>
<polygon fill="#000000" fill-opacity="0.200000" stroke="#000000" stroke-width="2" stroke-opacity="0.200000" points="598.7971,-146.794 604.7971,-144.694 598.7971,-142.594 598.7971,-146.794"/>
</g>
<!-- src/utils/proto&#45;ext.ts -->
<g id="node46" class="node">
<title>src/utils/proto&#45;ext.ts</title>
<g id="a_node46"><a xlink:href="src/utils/proto-ext.ts" xlink:title="proto&#45;ext.ts">
<path fill="#ccffcc" stroke="#000000" d="M1068,-181.694C1068,-181.694 1011,-181.694 1011,-181.694 1008,-181.694 1005,-178.694 1005,-175.694 1005,-175.694 1005,-169.694 1005,-169.694 1005,-166.694 1008,-163.694 1011,-163.694 1011,-163.694 1068,-163.694 1068,-163.694 1071,-163.694 1074,-166.694 1074,-169.694 1074,-169.694 1074,-175.694 1074,-175.694 1074,-178.694 1071,-181.694 1068,-181.694"/>
<text text-anchor="middle" x="1039.5" y="-170.494" font-family="Helvetica,sans-Serif" font-size="9.00" fill="#000000">proto&#45;ext.ts</text>
</a>
</g>
</g>
<!-- src/utils/react&#45;fcx.d.ts -->
<g id="node47" class="node">
<title>src/utils/react&#45;fcx.d.ts</title>
<g id="a_node47"><a xlink:href="src/utils/react-fcx.d.ts" xlink:title="react&#45;fcx.d.ts">
<path fill="#ccffcc" stroke="#000000" d="M1072,-151.694C1072,-151.694 1007,-151.694 1007,-151.694 1004,-151.694 1001,-148.694 1001,-145.694 1001,-145.694 1001,-139.694 1001,-139.694 1001,-136.694 1004,-133.694 1007,-133.694 1007,-133.694 1072,-133.694 1072,-133.694 1075,-133.694 1078,-136.694 1078,-139.694 1078,-139.694 1078,-145.694 1078,-145.694 1078,-148.694 1075,-151.694 1072,-151.694"/>
<text text-anchor="middle" x="1039.5" y="-140.494" font-family="Helvetica,sans-Serif" font-size="9.00" fill="#000000">react&#45;fcx.d.ts</text>
</a>
</g>
</g>
<!-- src/utils/svg.d.ts -->
<g id="node48" class="node">
<title>src/utils/svg.d.ts</title>
<g id="a_node48"><a xlink:href="src/utils/svg.d.ts" xlink:title="svg.d.ts">
<path fill="#ccffcc" stroke="#000000" d="M1060.5,-121.694C1060.5,-121.694 1018.5,-121.694 1018.5,-121.694 1015.5,-121.694 1012.5,-118.694 1012.5,-115.694 1012.5,-115.694 1012.5,-109.694 1012.5,-109.694 1012.5,-106.694 1015.5,-103.694 1018.5,-103.694 1018.5,-103.694 1060.5,-103.694 1060.5,-103.694 1063.5,-103.694 1066.5,-106.694 1066.5,-109.694 1066.5,-109.694 1066.5,-115.694 1066.5,-115.694 1066.5,-118.694 1063.5,-121.694 1060.5,-121.694"/>
<text text-anchor="middle" x="1039.5" y="-110.494" font-family="Helvetica,sans-Serif" font-size="9.00" fill="#000000">svg.d.ts</text>
</a>
</g>
</g>
<!-- src/utils/type&#45;utils.ts -->
<g id="node49" class="node">
<title>src/utils/type&#45;utils.ts</title>
<g id="a_node49"><a xlink:href="src/utils/type-utils.ts" xlink:title="type&#45;utils.ts">
<path fill="#ccffcc" stroke="#000000" d="M1068.5,-91.694C1068.5,-91.694 1010.5,-91.694 1010.5,-91.694 1007.5,-91.694 1004.5,-88.694 1004.5,-85.694 1004.5,-85.694 1004.5,-79.694 1004.5,-79.694 1004.5,-76.694 1007.5,-73.694 1010.5,-73.694 1010.5,-73.694 1068.5,-73.694 1068.5,-73.694 1071.5,-73.694 1074.5,-76.694 1074.5,-79.694 1074.5,-79.694 1074.5,-85.694 1074.5,-85.694 1074.5,-88.694 1071.5,-91.694 1068.5,-91.694"/>
<text text-anchor="middle" x="1039.5" y="-80.494" font-family="Helvetica,sans-Serif" font-size="9.00" fill="#000000">type&#45;utils.ts</text>
</a>
</g>
</g>
</g>
</svg>
