<?xml version="1.0" encoding="UTF-8" standalone="no"?>
<!DOCTYPE svg PUBLIC "-//W3C//DTD SVG 1.1//EN"
 "http://www.w3.org/Graphics/SVG/1.1/DTD/svg11.dtd">
<!-- Generated by graphviz version 2.43.0 (0)
 -->
<!-- Title: dependency&#45;cruiser output Pages: 1 -->
<svg width="1184pt" height="1281pt"
 viewBox="0.00 0.00 1184.00 1280.88" xmlns="http://www.w3.org/2000/svg" xmlns:xlink="http://www.w3.org/1999/xlink">
<g id="graph0" class="graph" transform="scale(1 1) rotate(0) translate(4 1276.88)">
<title>dependency&#45;cruiser output</title>
<polygon fill="white" stroke="transparent" points="-4,4 -4,-1276.88 1180,-1276.88 1180,4 -4,4"/>
<g id="clust1" class="cluster">
<title>cluster_gatsby</title>
<path fill="#ffffff" stroke="black" stroke-width="2" d="M109,-8.88C109,-8.88 418.5,-8.88 418.5,-8.88 424.5,-8.88 430.5,-14.88 430.5,-20.88 430.5,-20.88 430.5,-112.88 430.5,-112.88 430.5,-118.88 424.5,-124.88 418.5,-124.88 418.5,-124.88 109,-124.88 109,-124.88 103,-124.88 97,-118.88 97,-112.88 97,-112.88 97,-20.88 97,-20.88 97,-14.88 103,-8.88 109,-8.88"/>
<text text-anchor="middle" x="263.75" y="-113.68" font-family="Helvetica,sans-Serif" font-weight="bold" font-size="9.00">gatsby</text>
</g>
<g id="clust2" class="cluster">
<title>cluster_gatsby/node</title>
<path fill="#ffffff" stroke="black" stroke-width="2" d="M117,-16.88C117,-16.88 410.5,-16.88 410.5,-16.88 416.5,-16.88 422.5,-22.88 422.5,-28.88 422.5,-28.88 422.5,-86.88 422.5,-86.88 422.5,-92.88 416.5,-98.88 410.5,-98.88 410.5,-98.88 117,-98.88 117,-98.88 111,-98.88 105,-92.88 105,-86.88 105,-86.88 105,-28.88 105,-28.88 105,-22.88 111,-16.88 117,-16.88"/>
<text text-anchor="middle" x="263.75" y="-87.68" font-family="Helvetica,sans-Serif" font-weight="bold" font-size="9.00">node</text>
</g>
<g id="clust3" class="cluster">
<title>cluster_src</title>
<path fill="#ffffff" stroke="black" stroke-width="2" d="M296,-132.88C296,-132.88 1156,-132.88 1156,-132.88 1162,-132.88 1168,-138.88 1168,-144.88 1168,-144.88 1168,-1234.88 1168,-1234.88 1168,-1240.88 1162,-1246.88 1156,-1246.88 1156,-1246.88 296,-1246.88 296,-1246.88 290,-1246.88 284,-1240.88 284,-1234.88 284,-1234.88 284,-144.88 284,-144.88 284,-138.88 290,-132.88 296,-132.88"/>
<text text-anchor="middle" x="726" y="-1235.68" font-family="Helvetica,sans-Serif" font-weight="bold" font-size="9.00">src</text>
</g>
<g id="clust4" class="cluster">
<title>cluster_src/@types</title>
<path fill="#ffffff" stroke="black" stroke-width="2" d="M332.5,-1095.88C332.5,-1095.88 410.5,-1095.88 410.5,-1095.88 416.5,-1095.88 422.5,-1101.88 422.5,-1107.88 422.5,-1107.88 422.5,-1135.88 422.5,-1135.88 422.5,-1141.88 416.5,-1147.88 410.5,-1147.88 410.5,-1147.88 332.5,-1147.88 332.5,-1147.88 326.5,-1147.88 320.5,-1141.88 320.5,-1135.88 320.5,-1135.88 320.5,-1107.88 320.5,-1107.88 320.5,-1101.88 326.5,-1095.88 332.5,-1095.88"/>
<text text-anchor="middle" x="371.5" y="-1136.68" font-family="Helvetica,sans-Serif" font-weight="bold" font-size="9.00">@types</text>
</g>
<g id="clust5" class="cluster">
<title>cluster_src/components</title>
<path fill="#ffffff" stroke="black" stroke-width="2" d="M592,-360.88C592,-360.88 958,-360.88 958,-360.88 964,-360.88 970,-366.88 970,-372.88 970,-372.88 970,-1124.88 970,-1124.88 970,-1130.88 964,-1136.88 958,-1136.88 958,-1136.88 592,-1136.88 592,-1136.88 586,-1136.88 580,-1130.88 580,-1124.88 580,-1124.88 580,-372.88 580,-372.88 580,-366.88 586,-360.88 592,-360.88"/>
<text text-anchor="middle" x="775" y="-1125.68" font-family="Helvetica,sans-Serif" font-weight="bold" font-size="9.00">components</text>
</g>
<g id="clust6" class="cluster">
<title>cluster_src/components/article</title>
<path fill="#ffffff" stroke="black" stroke-width="2" d="M606.5,-1058.88C606.5,-1058.88 812.5,-1058.88 812.5,-1058.88 818.5,-1058.88 824.5,-1064.88 824.5,-1070.88 824.5,-1070.88 824.5,-1098.88 824.5,-1098.88 824.5,-1104.88 818.5,-1110.88 812.5,-1110.88 812.5,-1110.88 606.5,-1110.88 606.5,-1110.88 600.5,-1110.88 594.5,-1104.88 594.5,-1098.88 594.5,-1098.88 594.5,-1070.88 594.5,-1070.88 594.5,-1064.88 600.5,-1058.88 606.5,-1058.88"/>
<text text-anchor="middle" x="709.5" y="-1099.68" font-family="Helvetica,sans-Serif" font-weight="bold" font-size="9.00">article</text>
</g>
<g id="clust7" class="cluster">
<title>cluster_src/components/atoms</title>
<path fill="#ffffff" stroke="black" stroke-width="2" d="M863,-368.88C863,-368.88 950,-368.88 950,-368.88 956,-368.88 962,-374.88 962,-380.88 962,-380.88 962,-438.88 962,-438.88 962,-444.88 956,-450.88 950,-450.88 950,-450.88 863,-450.88 863,-450.88 857,-450.88 851,-444.88 851,-438.88 851,-438.88 851,-380.88 851,-380.88 851,-374.88 857,-368.88 863,-368.88"/>
<text text-anchor="middle" x="906.5" y="-439.68" font-family="Helvetica,sans-Serif" font-weight="bold" font-size="9.00">atoms</text>
</g>
<g id="clust8" class="cluster">
<title>cluster_src/components/color&#45;checker</title>
<path fill="#ffffff" stroke="black" stroke-width="2" d="M601.5,-998.88C601.5,-998.88 662.5,-998.88 662.5,-998.88 668.5,-998.88 674.5,-1004.88 674.5,-1010.88 674.5,-1010.88 674.5,-1038.88 674.5,-1038.88 674.5,-1044.88 668.5,-1050.88 662.5,-1050.88 662.5,-1050.88 601.5,-1050.88 601.5,-1050.88 595.5,-1050.88 589.5,-1044.88 589.5,-1038.88 589.5,-1038.88 589.5,-1010.88 589.5,-1010.88 589.5,-1004.88 595.5,-998.88 601.5,-998.88"/>
<text text-anchor="middle" x="632" y="-1039.68" font-family="Helvetica,sans-Serif" font-weight="bold" font-size="9.00">color&#45;checker</text>
</g>
<g id="clust9" class="cluster">
<title>cluster_src/components/embeddeds</title>
<path fill="#ffffff" stroke="black" stroke-width="2" d="M600,-908.88C600,-908.88 663,-908.88 663,-908.88 669,-908.88 675,-914.88 675,-920.88 675,-920.88 675,-978.88 675,-978.88 675,-984.88 669,-990.88 663,-990.88 663,-990.88 600,-990.88 600,-990.88 594,-990.88 588,-984.88 588,-978.88 588,-978.88 588,-920.88 588,-920.88 588,-914.88 594,-908.88 600,-908.88"/>
<text text-anchor="middle" x="631.5" y="-979.68" font-family="Helvetica,sans-Serif" font-weight="bold" font-size="9.00">embeddeds</text>
</g>
<g id="clust10" class="cluster">
<title>cluster_src/components/git&#45;info</title>
<path fill="#ffffff" stroke="black" stroke-width="2" d="M606.5,-848.88C606.5,-848.88 824,-848.88 824,-848.88 830,-848.88 836,-854.88 836,-860.88 836,-860.88 836,-888.88 836,-888.88 836,-894.88 830,-900.88 824,-900.88 824,-900.88 606.5,-900.88 606.5,-900.88 600.5,-900.88 594.5,-894.88 594.5,-888.88 594.5,-888.88 594.5,-860.88 594.5,-860.88 594.5,-854.88 600.5,-848.88 606.5,-848.88"/>
<text text-anchor="middle" x="715.25" y="-889.68" font-family="Helvetica,sans-Serif" font-weight="bold" font-size="9.00">git&#45;info</text>
</g>
<g id="clust11" class="cluster">
<title>cluster_src/components/layout</title>
<path fill="#ffffff" stroke="black" stroke-width="2" d="M603,-638.88C603,-638.88 817.5,-638.88 817.5,-638.88 823.5,-638.88 829.5,-644.88 829.5,-650.88 829.5,-650.88 829.5,-768.88 829.5,-768.88 829.5,-774.88 823.5,-780.88 817.5,-780.88 817.5,-780.88 603,-780.88 603,-780.88 597,-780.88 591,-774.88 591,-768.88 591,-768.88 591,-650.88 591,-650.88 591,-644.88 597,-638.88 603,-638.88"/>
<text text-anchor="middle" x="710.25" y="-769.68" font-family="Helvetica,sans-Serif" font-weight="bold" font-size="9.00">layout</text>
</g>
<g id="clust12" class="cluster">
<title>cluster_src/components/post&#45;link</title>
<path fill="#ffffff" stroke="black" stroke-width="2" d="M601.5,-458.88C601.5,-458.88 940.5,-458.88 940.5,-458.88 946.5,-458.88 952.5,-464.88 952.5,-470.88 952.5,-470.88 952.5,-498.88 952.5,-498.88 952.5,-504.88 946.5,-510.88 940.5,-510.88 940.5,-510.88 601.5,-510.88 601.5,-510.88 595.5,-510.88 589.5,-504.88 589.5,-498.88 589.5,-498.88 589.5,-470.88 589.5,-470.88 589.5,-464.88 595.5,-458.88 601.5,-458.88"/>
<text text-anchor="middle" x="771" y="-499.68" font-family="Helvetica,sans-Serif" font-weight="bold" font-size="9.00">post&#45;link</text>
</g>
<g id="clust13" class="cluster">
<title>cluster_src/components/styles</title>
<path fill="#ffffff" stroke="black" stroke-width="2" d="M734,-518.88C734,-518.88 943.5,-518.88 943.5,-518.88 949.5,-518.88 955.5,-524.88 955.5,-530.88 955.5,-530.88 955.5,-618.88 955.5,-618.88 955.5,-624.88 949.5,-630.88 943.5,-630.88 943.5,-630.88 734,-630.88 734,-630.88 728,-630.88 722,-624.88 722,-618.88 722,-618.88 722,-530.88 722,-530.88 722,-524.88 728,-518.88 734,-518.88"/>
<text text-anchor="middle" x="838.75" y="-619.68" font-family="Helvetica,sans-Serif" font-weight="bold" font-size="9.00">styles</text>
</g>
<g id="clust14" class="cluster">
<title>cluster_src/components/table&#45;of&#45;contents</title>
<path fill="#ffffff" stroke="black" stroke-width="2" d="M734.5,-788.88C734.5,-788.88 815.5,-788.88 815.5,-788.88 821.5,-788.88 827.5,-794.88 827.5,-800.88 827.5,-800.88 827.5,-828.88 827.5,-828.88 827.5,-834.88 821.5,-840.88 815.5,-840.88 815.5,-840.88 734.5,-840.88 734.5,-840.88 728.5,-840.88 722.5,-834.88 722.5,-828.88 722.5,-828.88 722.5,-800.88 722.5,-800.88 722.5,-794.88 728.5,-788.88 734.5,-788.88"/>
<text text-anchor="middle" x="775" y="-829.68" font-family="Helvetica,sans-Serif" font-weight="bold" font-size="9.00">table&#45;of&#45;contents</text>
</g>
<g id="clust15" class="cluster">
<title>cluster_src/hooks</title>
<path fill="#ffffff" stroke="black" stroke-width="2" d="M879.5,-1144.88C879.5,-1144.88 933.5,-1144.88 933.5,-1144.88 939.5,-1144.88 945.5,-1150.88 945.5,-1156.88 945.5,-1156.88 945.5,-1184.88 945.5,-1184.88 945.5,-1190.88 939.5,-1196.88 933.5,-1196.88 933.5,-1196.88 879.5,-1196.88 879.5,-1196.88 873.5,-1196.88 867.5,-1190.88 867.5,-1184.88 867.5,-1184.88 867.5,-1156.88 867.5,-1156.88 867.5,-1150.88 873.5,-1144.88 879.5,-1144.88"/>
<text text-anchor="middle" x="906.5" y="-1185.68" font-family="Helvetica,sans-Serif" font-weight="bold" font-size="9.00">hooks</text>
</g>
<g id="clust16" class="cluster">
<title>cluster_src/libs</title>
<path fill="#ffffff" stroke="black" stroke-width="2" d="M337,-888.88C337,-888.88 406,-888.88 406,-888.88 412,-888.88 418,-894.88 418,-900.88 418,-900.88 418,-988.88 418,-988.88 418,-994.88 412,-1000.88 406,-1000.88 406,-1000.88 337,-1000.88 337,-1000.88 331,-1000.88 325,-994.88 325,-988.88 325,-988.88 325,-900.88 325,-900.88 325,-894.88 331,-888.88 337,-888.88"/>
<text text-anchor="middle" x="371.5" y="-989.68" font-family="Helvetica,sans-Serif" font-weight="bold" font-size="9.00">libs</text>
</g>
<g id="clust17" class="cluster">
<title>cluster_src/pages</title>
<path fill="#ffffff" stroke="black" stroke-width="2" d="M346.5,-593.88C346.5,-593.88 396.5,-593.88 396.5,-593.88 402.5,-593.88 408.5,-599.88 408.5,-605.88 408.5,-605.88 408.5,-693.88 408.5,-693.88 408.5,-699.88 402.5,-705.88 396.5,-705.88 396.5,-705.88 346.5,-705.88 346.5,-705.88 340.5,-705.88 334.5,-699.88 334.5,-693.88 334.5,-693.88 334.5,-605.88 334.5,-605.88 334.5,-599.88 340.5,-593.88 346.5,-593.88"/>
<text text-anchor="middle" x="371.5" y="-694.68" font-family="Helvetica,sans-Serif" font-weight="bold" font-size="9.00">pages</text>
</g>
<g id="clust18" class="cluster">
<title>cluster_src/templates</title>
<path fill="#ffffff" stroke="black" stroke-width="2" d="M304,-180.88C304,-180.88 687,-180.88 687,-180.88 693,-180.88 699,-186.88 699,-192.88 699,-192.88 699,-340.88 699,-340.88 699,-346.88 693,-352.88 687,-352.88 687,-352.88 304,-352.88 304,-352.88 298,-352.88 292,-346.88 292,-340.88 292,-340.88 292,-192.88 292,-192.88 292,-186.88 298,-180.88 304,-180.88"/>
<text text-anchor="middle" x="495.5" y="-341.68" font-family="Helvetica,sans-Serif" font-weight="bold" font-size="9.00">templates</text>
</g>
<g id="clust19" class="cluster">
<title>cluster_src/templates/blog&#45;post&#45;template</title>
<path fill="#ffffff" stroke="black" stroke-width="2" d="M346.5,-188.88C346.5,-188.88 679,-188.88 679,-188.88 685,-188.88 691,-194.88 691,-200.88 691,-200.88 691,-228.88 691,-228.88 691,-234.88 685,-240.88 679,-240.88 679,-240.88 346.5,-240.88 346.5,-240.88 340.5,-240.88 334.5,-234.88 334.5,-228.88 334.5,-228.88 334.5,-200.88 334.5,-200.88 334.5,-194.88 340.5,-188.88 346.5,-188.88"/>
<text text-anchor="middle" x="512.75" y="-229.68" font-family="Helvetica,sans-Serif" font-weight="bold" font-size="9.00">blog&#45;post&#45;template</text>
</g>
<g id="clust20" class="cluster">
<title>cluster_src/utils</title>
<path fill="#ffffff" stroke="black" stroke-width="2" d="M990,-140.88C990,-140.88 1148,-140.88 1148,-140.88 1154,-140.88 1160,-146.88 1160,-152.88 1160,-152.88 1160,-210.88 1160,-210.88 1160,-216.88 1154,-222.88 1148,-222.88 1148,-222.88 990,-222.88 990,-222.88 984,-222.88 978,-216.88 978,-210.88 978,-210.88 978,-152.88 978,-152.88 978,-146.88 984,-140.88 990,-140.88"/>
<text text-anchor="middle" x="1069" y="-211.68" font-family="Helvetica,sans-Serif" font-weight="bold" font-size="9.00">utils</text>
</g>
<!-- gatsby&#45;browser.js -->
<g id="node1" class="node">
<title>gatsby&#45;browser.js</title>
<g id="a_node1"><a xlink:href="gatsby-browser.js" xlink:title="gatsby&#45;browser.js">
<path fill="#ffffcc" stroke="black" d="M673,-1272.88C673,-1272.88 590,-1272.88 590,-1272.88 587,-1272.88 584,-1269.88 584,-1266.88 584,-1266.88 584,-1260.88 584,-1260.88 584,-1257.88 587,-1254.88 590,-1254.88 590,-1254.88 673,-1254.88 673,-1254.88 676,-1254.88 679,-1257.88 679,-1260.88 679,-1260.88 679,-1266.88 679,-1266.88 679,-1269.88 676,-1272.88 673,-1272.88"/>
<text text-anchor="middle" x="631.5" y="-1261.68" font-family="Helvetica,sans-Serif" font-size="9.00">gatsby&#45;browser.js</text>
</a>
</g>
</g>
<!-- src/components/styles/init.css -->
<g id="node2" class="node">
<title>src/components/styles/init.css</title>
<g id="a_node2"><a xlink:href="src/components/styles/init.css" xlink:title="init.css">
<path fill="#ffffcc" stroke="black" d="M795.5,-604.88C795.5,-604.88 753.5,-604.88 753.5,-604.88 750.5,-604.88 747.5,-601.88 747.5,-598.88 747.5,-598.88 747.5,-592.88 747.5,-592.88 747.5,-589.88 750.5,-586.88 753.5,-586.88 753.5,-586.88 795.5,-586.88 795.5,-586.88 798.5,-586.88 801.5,-589.88 801.5,-592.88 801.5,-592.88 801.5,-598.88 801.5,-598.88 801.5,-601.88 798.5,-604.88 795.5,-604.88"/>
<text text-anchor="middle" x="774.5" y="-593.68" font-family="Helvetica,sans-Serif" font-size="9.00">init.css</text>
</a>
</g>
</g>
<!-- gatsby&#45;browser.js&#45;&gt;src/components/styles/init.css -->
<g id="edge1" class="edge">
<title>gatsby&#45;browser.js&#45;&gt;src/components/styles/init.css</title>
<path fill="none" stroke="#000000" stroke-width="2" stroke-opacity="0.200000" d="M637.97,-1254.83C651.35,-1232.11 685.66,-1170.44 699,-1113.88 711.21,-1062.13 696.31,-682.97 721,-635.88 727.16,-624.13 738.49,-614.82 749.06,-608.15"/>
<polygon fill="#000000" fill-opacity="0.200000" stroke="#000000" stroke-width="2" stroke-opacity="0.200000" points="750.41,-609.79 754.48,-604.91 748.25,-606.19 750.41,-609.79"/>
</g>
<!-- gatsby&#45;config.js -->
<g id="node3" class="node">
<title>gatsby&#45;config.js</title>
<g id="a_node3"><a xlink:href="gatsby-config.js" xlink:title="gatsby&#45;config.js">
<path fill="#ccffcc" stroke="black" d="M83,-87.88C83,-87.88 6,-87.88 6,-87.88 3,-87.88 0,-84.88 0,-81.88 0,-81.88 0,-75.88 0,-75.88 0,-72.88 3,-69.88 6,-69.88 6,-69.88 83,-69.88 83,-69.88 86,-69.88 89,-72.88 89,-75.88 89,-75.88 89,-81.88 89,-81.88 89,-84.88 86,-87.88 83,-87.88"/>
<text text-anchor="middle" x="44.5" y="-76.68" font-family="Helvetica,sans-Serif" font-size="9.00">gatsby&#45;config.js</text>
</a>
</g>
</g>
<!-- gatsby&#45;node.js -->
<g id="node4" class="node">
<title>gatsby&#45;node.js</title>
<g id="a_node4"><a xlink:href="gatsby-node.js" xlink:title="gatsby&#45;node.js">
<path fill="#ffffcc" stroke="black" d="M80,-57.88C80,-57.88 9,-57.88 9,-57.88 6,-57.88 3,-54.88 3,-51.88 3,-51.88 3,-45.88 3,-45.88 3,-42.88 6,-39.88 9,-39.88 9,-39.88 80,-39.88 80,-39.88 83,-39.88 86,-42.88 86,-45.88 86,-45.88 86,-51.88 86,-51.88 86,-54.88 83,-57.88 80,-57.88"/>
<text text-anchor="middle" x="44.5" y="-46.68" font-family="Helvetica,sans-Serif" font-size="9.00">gatsby&#45;node.js</text>
</a>
</g>
</g>
<!-- gatsby/node/index.ts -->
<g id="node5" class="node">
<title>gatsby/node/index.ts</title>
<g id="a_node5"><a xlink:href="gatsby/node/index.ts" xlink:title="index.ts">
<path fill="#ddfeff" stroke="black" d="M161,-57.88C161,-57.88 119,-57.88 119,-57.88 116,-57.88 113,-54.88 113,-51.88 113,-51.88 113,-45.88 113,-45.88 113,-42.88 116,-39.88 119,-39.88 119,-39.88 161,-39.88 161,-39.88 164,-39.88 167,-42.88 167,-45.88 167,-45.88 167,-51.88 167,-51.88 167,-54.88 164,-57.88 161,-57.88"/>
<text text-anchor="middle" x="140" y="-46.68" font-family="Helvetica,sans-Serif" font-size="9.00">index.ts</text>
</a>
</g>
</g>
<!-- gatsby&#45;node.js&#45;&gt;gatsby/node/index.ts -->
<g id="edge2" class="edge">
<title>gatsby&#45;node.js&#45;&gt;gatsby/node/index.ts</title>
<path fill="none" stroke="#000000" stroke-width="2" stroke-opacity="0.200000" d="M86.24,-48.88C93.03,-48.88 99.99,-48.88 106.54,-48.88"/>
<polygon fill="#000000" fill-opacity="0.200000" stroke="#000000" stroke-width="2" stroke-opacity="0.200000" points="106.93,-50.98 112.93,-48.88 106.93,-46.78 106.93,-50.98"/>
</g>
<!-- gatsby/node/create&#45;pages.ts -->
<g id="node8" class="node">
<title>gatsby/node/create&#45;pages.ts</title>
<g id="a_node8"><a xlink:href="gatsby/node/create-pages.ts" xlink:title="create&#45;pages.ts">
<path fill="#ddfeff" stroke="black" d="M265,-72.88C265,-72.88 191,-72.88 191,-72.88 188,-72.88 185,-69.88 185,-66.88 185,-66.88 185,-60.88 185,-60.88 185,-57.88 188,-54.88 191,-54.88 191,-54.88 265,-54.88 265,-54.88 268,-54.88 271,-57.88 271,-60.88 271,-60.88 271,-66.88 271,-66.88 271,-69.88 268,-72.88 265,-72.88"/>
<text text-anchor="middle" x="228" y="-61.68" font-family="Helvetica,sans-Serif" font-size="9.00">create&#45;pages.ts</text>
</a>
</g>
</g>
<!-- gatsby/node/index.ts&#45;&gt;gatsby/node/create&#45;pages.ts -->
<g id="edge9" class="edge">
<title>gatsby/node/index.ts&#45;&gt;gatsby/node/create&#45;pages.ts</title>
<path fill="none" stroke="#000000" stroke-width="2" stroke-opacity="0.200000" d="M167.27,-53.46C170.9,-54.09 174.72,-54.76 178.6,-55.44"/>
<polygon fill="#000000" fill-opacity="0.200000" stroke="#000000" stroke-width="2" stroke-opacity="0.200000" points="178.45,-57.54 184.72,-56.51 179.17,-53.41 178.45,-57.54"/>
</g>
<!-- gatsby/node/on&#45;create&#45;node.ts -->
<g id="node14" class="node">
<title>gatsby/node/on&#45;create&#45;node.ts</title>
<g id="a_node14"><a xlink:href="gatsby/node/on-create-node.ts" xlink:title="on&#45;create&#45;node.ts">
<path fill="#ddfeff" stroke="black" d="M270,-42.88C270,-42.88 186,-42.88 186,-42.88 183,-42.88 180,-39.88 180,-36.88 180,-36.88 180,-30.88 180,-30.88 180,-27.88 183,-24.88 186,-24.88 186,-24.88 270,-24.88 270,-24.88 273,-24.88 276,-27.88 276,-30.88 276,-30.88 276,-36.88 276,-36.88 276,-39.88 273,-42.88 270,-42.88"/>
<text text-anchor="middle" x="228" y="-31.68" font-family="Helvetica,sans-Serif" font-size="9.00">on&#45;create&#45;node.ts</text>
</a>
</g>
</g>
<!-- gatsby/node/index.ts&#45;&gt;gatsby/node/on&#45;create&#45;node.ts -->
<g id="edge10" class="edge">
<title>gatsby/node/index.ts&#45;&gt;gatsby/node/on&#45;create&#45;node.ts</title>
<path fill="none" stroke="#000000" stroke-width="2" stroke-opacity="0.200000" d="M167.27,-44.3C169.42,-43.92 171.64,-43.53 173.9,-43.14"/>
<polygon fill="#000000" fill-opacity="0.200000" stroke="#000000" stroke-width="2" stroke-opacity="0.200000" points="174.4,-45.19 179.95,-42.09 173.67,-41.05 174.4,-45.19"/>
</g>
<!-- gatsby&#45;ssr.js -->
<g id="node6" class="node">
<title>gatsby&#45;ssr.js</title>
<g id="a_node6"><a xlink:href="gatsby-ssr.js" xlink:title="gatsby&#45;ssr.js">
<path fill="#ccffcc" stroke="black" d="M74.5,-117.88C74.5,-117.88 14.5,-117.88 14.5,-117.88 11.5,-117.88 8.5,-114.88 8.5,-111.88 8.5,-111.88 8.5,-105.88 8.5,-105.88 8.5,-102.88 11.5,-99.88 14.5,-99.88 14.5,-99.88 74.5,-99.88 74.5,-99.88 77.5,-99.88 80.5,-102.88 80.5,-105.88 80.5,-105.88 80.5,-111.88 80.5,-111.88 80.5,-114.88 77.5,-117.88 74.5,-117.88"/>
<text text-anchor="middle" x="44.5" y="-106.68" font-family="Helvetica,sans-Serif" font-size="9.00">gatsby&#45;ssr.js</text>
</a>
</g>
</g>
<!-- gatsby/node/colored&#45;print.ts -->
<g id="node7" class="node">
<title>gatsby/node/colored&#45;print.ts</title>
<g id="a_node7"><a xlink:href="gatsby/node/colored-print.ts" xlink:title="colored&#45;print.ts">
<path fill="#ddfeff" stroke="black" d="M408.5,-72.88C408.5,-72.88 334.5,-72.88 334.5,-72.88 331.5,-72.88 328.5,-69.88 328.5,-66.88 328.5,-66.88 328.5,-60.88 328.5,-60.88 328.5,-57.88 331.5,-54.88 334.5,-54.88 334.5,-54.88 408.5,-54.88 408.5,-54.88 411.5,-54.88 414.5,-57.88 414.5,-60.88 414.5,-60.88 414.5,-66.88 414.5,-66.88 414.5,-69.88 411.5,-72.88 408.5,-72.88"/>
<text text-anchor="middle" x="371.5" y="-61.68" font-family="Helvetica,sans-Serif" font-size="9.00">colored&#45;print.ts</text>
</a>
</g>
</g>
<!-- gatsby/node/create&#45;pages.ts&#45;&gt;gatsby/node/colored&#45;print.ts -->
<g id="edge8" class="edge">
<title>gatsby/node/create&#45;pages.ts&#45;&gt;gatsby/node/colored&#45;print.ts</title>
<path fill="none" stroke="#000000" stroke-width="2" stroke-opacity="0.200000" d="M271.07,-63.88C287.18,-63.88 305.67,-63.88 322.31,-63.88"/>
<polygon fill="#000000" fill-opacity="0.200000" stroke="#000000" stroke-width="2" stroke-opacity="0.200000" points="322.35,-65.98 328.35,-63.88 322.35,-61.78 322.35,-65.98"/>
</g>
<!-- src/templates/archive&#45;month&#45;template.tsx -->
<g id="node9" class="node">
<title>src/templates/archive&#45;month&#45;template.tsx</title>
<g id="a_node9"><a xlink:href="src/templates/archive-month-template.tsx" xlink:title="archive&#45;month&#45;template.tsx">
<path fill="#bbfeff" stroke="black" d="M437,-326.88C437,-326.88 306,-326.88 306,-326.88 303,-326.88 300,-323.88 300,-320.88 300,-320.88 300,-314.88 300,-314.88 300,-311.88 303,-308.88 306,-308.88 306,-308.88 437,-308.88 437,-308.88 440,-308.88 443,-311.88 443,-314.88 443,-314.88 443,-320.88 443,-320.88 443,-323.88 440,-326.88 437,-326.88"/>
<text text-anchor="middle" x="371.5" y="-315.68" font-family="Helvetica,sans-Serif" font-size="9.00">archive&#45;month&#45;template.tsx</text>
</a>
</g>
</g>
<!-- gatsby/node/create&#45;pages.ts&#45;&gt;src/templates/archive&#45;month&#45;template.tsx -->
<g id="edge3" class="edge">
<title>gatsby/node/create&#45;pages.ts&#45;&gt;src/templates/archive&#45;month&#45;template.tsx</title>
<path fill="none" stroke="#000000" stroke-width="2" stroke-opacity="0.200000" d="M229.79,-73.14C233.38,-113.11 249.53,-270.24 284,-302.88 287.12,-305.84 290.61,-308.32 294.34,-310.41"/>
<polygon fill="#000000" fill-opacity="0.200000" stroke="#000000" stroke-width="2" stroke-opacity="0.200000" points="293.66,-312.41 299.97,-313.18 295.51,-308.65 293.66,-312.41"/>
</g>
<!-- src/templates/archive&#45;year&#45;template.tsx -->
<g id="node10" class="node">
<title>src/templates/archive&#45;year&#45;template.tsx</title>
<g id="a_node10"><a xlink:href="src/templates/archive-year-template.tsx" xlink:title="archive&#45;year&#45;template.tsx">
<path fill="#bbfeff" stroke="black" d="M431,-296.88C431,-296.88 312,-296.88 312,-296.88 309,-296.88 306,-293.88 306,-290.88 306,-290.88 306,-284.88 306,-284.88 306,-281.88 309,-278.88 312,-278.88 312,-278.88 431,-278.88 431,-278.88 434,-278.88 437,-281.88 437,-284.88 437,-284.88 437,-290.88 437,-290.88 437,-293.88 434,-296.88 431,-296.88"/>
<text text-anchor="middle" x="371.5" y="-285.68" font-family="Helvetica,sans-Serif" font-size="9.00">archive&#45;year&#45;template.tsx</text>
</a>
</g>
</g>
<!-- gatsby/node/create&#45;pages.ts&#45;&gt;src/templates/archive&#45;year&#45;template.tsx -->
<g id="edge4" class="edge">
<title>gatsby/node/create&#45;pages.ts&#45;&gt;src/templates/archive&#45;year&#45;template.tsx</title>
<path fill="none" stroke="#000000" stroke-width="2" stroke-opacity="0.200000" d="M230.09,-72.96C234.66,-109.45 253.46,-244.84 284,-272.88 288.63,-277.13 294.02,-280.4 299.79,-282.9"/>
<polygon fill="#000000" fill-opacity="0.200000" stroke="#000000" stroke-width="2" stroke-opacity="0.200000" points="299.33,-284.97 305.68,-285.14 300.82,-281.04 299.33,-284.97"/>
</g>
<!-- src/templates/blog&#45;post&#45;template/index.tsx -->
<g id="node11" class="node">
<title>src/templates/blog&#45;post&#45;template/index.tsx</title>
<g id="a_node11"><a xlink:href="src/templates/blog-post-template/index.tsx" xlink:title="index.tsx">
<path fill="#bbfeff" stroke="black" d="M394.5,-214.88C394.5,-214.88 348.5,-214.88 348.5,-214.88 345.5,-214.88 342.5,-211.88 342.5,-208.88 342.5,-208.88 342.5,-202.88 342.5,-202.88 342.5,-199.88 345.5,-196.88 348.5,-196.88 348.5,-196.88 394.5,-196.88 394.5,-196.88 397.5,-196.88 400.5,-199.88 400.5,-202.88 400.5,-202.88 400.5,-208.88 400.5,-208.88 400.5,-211.88 397.5,-214.88 394.5,-214.88"/>
<text text-anchor="middle" x="371.5" y="-203.68" font-family="Helvetica,sans-Serif" font-size="9.00">index.tsx</text>
</a>
</g>
</g>
<!-- gatsby/node/create&#45;pages.ts&#45;&gt;src/templates/blog&#45;post&#45;template/index.tsx -->
<g id="edge5" class="edge">
<title>gatsby/node/create&#45;pages.ts&#45;&gt;src/templates/blog&#45;post&#45;template/index.tsx</title>
<path fill="none" stroke="#000000" stroke-width="2" stroke-opacity="0.200000" d="M238.28,-73.2C262.58,-97.58 328.12,-163.35 356.78,-192.11"/>
<polygon fill="#000000" fill-opacity="0.200000" stroke="#000000" stroke-width="2" stroke-opacity="0.200000" points="355.64,-193.94 361.37,-196.71 358.62,-190.98 355.64,-193.94"/>
</g>
<!-- src/templates/tag&#45;page&#45;template.tsx -->
<g id="node12" class="node">
<title>src/templates/tag&#45;page&#45;template.tsx</title>
<g id="a_node12"><a xlink:href="src/templates/tag-page-template.tsx" xlink:title="tag&#45;page&#45;template.tsx">
<path fill="#bbfeff" stroke="black" d="M424,-266.88C424,-266.88 319,-266.88 319,-266.88 316,-266.88 313,-263.88 313,-260.88 313,-260.88 313,-254.88 313,-254.88 313,-251.88 316,-248.88 319,-248.88 319,-248.88 424,-248.88 424,-248.88 427,-248.88 430,-251.88 430,-254.88 430,-254.88 430,-260.88 430,-260.88 430,-263.88 427,-266.88 424,-266.88"/>
<text text-anchor="middle" x="371.5" y="-255.68" font-family="Helvetica,sans-Serif" font-size="9.00">tag&#45;page&#45;template.tsx</text>
</a>
</g>
</g>
<!-- gatsby/node/create&#45;pages.ts&#45;&gt;src/templates/tag&#45;page&#45;template.tsx -->
<g id="edge6" class="edge">
<title>gatsby/node/create&#45;pages.ts&#45;&gt;src/templates/tag&#45;page&#45;template.tsx</title>
<path fill="none" stroke="#000000" stroke-width="2" stroke-opacity="0.200000" d="M228.7,-73.11C228.28,-103.01 231.31,-197.91 284,-243.88 290.52,-249.57 298.41,-253.42 306.75,-255.97"/>
<polygon fill="#000000" fill-opacity="0.200000" stroke="#000000" stroke-width="2" stroke-opacity="0.200000" points="306.23,-258.01 312.57,-257.53 307.32,-253.95 306.23,-258.01"/>
</g>
<!-- src/utils/asserts&#45;non&#45;null.ts -->
<g id="node13" class="node">
<title>src/utils/asserts&#45;non&#45;null.ts</title>
<g id="a_node13"><a xlink:href="src/utils/asserts-non-null.ts" xlink:title="asserts&#45;non&#45;null.ts">
<path fill="#ddfeff" stroke="black" d="M1079,-196.88C1079,-196.88 992,-196.88 992,-196.88 989,-196.88 986,-193.88 986,-190.88 986,-190.88 986,-184.88 986,-184.88 986,-181.88 989,-178.88 992,-178.88 992,-178.88 1079,-178.88 1079,-178.88 1082,-178.88 1085,-181.88 1085,-184.88 1085,-184.88 1085,-190.88 1085,-190.88 1085,-193.88 1082,-196.88 1079,-196.88"/>
<text text-anchor="middle" x="1035.5" y="-185.68" font-family="Helvetica,sans-Serif" font-size="9.00">asserts&#45;non&#45;null.ts</text>
</a>
</g>
</g>
<!-- gatsby/node/create&#45;pages.ts&#45;&gt;src/utils/asserts&#45;non&#45;null.ts -->
<g id="edge7" class="edge">
<title>gatsby/node/create&#45;pages.ts&#45;&gt;src/utils/asserts&#45;non&#45;null.ts</title>
<path fill="none" stroke="#000000" stroke-width="2" stroke-opacity="0.200000" d="M257.58,-54.87C266.01,-52.55 275.31,-50.3 284,-48.88 382.2,-32.81 408,-35.88 507.5,-35.88 507.5,-35.88 507.5,-35.88 775.5,-35.88 871.51,-35.88 911.72,-53.58 970,-129.88 981.8,-145.33 964.78,-158.62 978,-172.88 978.85,-173.8 979.76,-174.67 980.7,-175.48"/>
<polygon fill="#000000" fill-opacity="0.200000" stroke="#000000" stroke-width="2" stroke-opacity="0.200000" points="979.67,-177.33 985.76,-179.15 982.14,-173.93 979.67,-177.33"/>
</g>
<!-- src/templates/post&#45;list&#45;page.tsx -->
<g id="node46" class="node">
<title>src/templates/post&#45;list&#45;page.tsx</title>
<g id="a_node46"><a xlink:href="src/templates/post-list-page.tsx" xlink:title="post&#45;list&#45;page.tsx">
<path fill="#bbfeff" stroke="black" d="M549.5,-326.88C549.5,-326.88 467.5,-326.88 467.5,-326.88 464.5,-326.88 461.5,-323.88 461.5,-320.88 461.5,-320.88 461.5,-314.88 461.5,-314.88 461.5,-311.88 464.5,-308.88 467.5,-308.88 467.5,-308.88 549.5,-308.88 549.5,-308.88 552.5,-308.88 555.5,-311.88 555.5,-314.88 555.5,-314.88 555.5,-320.88 555.5,-320.88 555.5,-323.88 552.5,-326.88 549.5,-326.88"/>
<text text-anchor="middle" x="508.5" y="-315.68" font-family="Helvetica,sans-Serif" font-size="9.00">post&#45;list&#45;page.tsx</text>
</a>
</g>
</g>
<!-- src/templates/archive&#45;month&#45;template.tsx&#45;&gt;src/templates/post&#45;list&#45;page.tsx -->
<g id="edge41" class="edge">
<title>src/templates/archive&#45;month&#45;template.tsx&#45;&gt;src/templates/post&#45;list&#45;page.tsx</title>
<path fill="none" stroke="#000000" stroke-width="2" stroke-opacity="0.200000" d="M443.16,-317.88C447.18,-317.88 451.19,-317.88 455.12,-317.88"/>
<polygon fill="#000000" fill-opacity="0.200000" stroke="#000000" stroke-width="2" stroke-opacity="0.200000" points="455.23,-319.98 461.23,-317.88 455.23,-315.78 455.23,-319.98"/>
</g>
<!-- src/templates/archive&#45;year&#45;template.tsx&#45;&gt;src/templates/post&#45;list&#45;page.tsx -->
<g id="edge42" class="edge">
<title>src/templates/archive&#45;year&#45;template.tsx&#45;&gt;src/templates/post&#45;list&#45;page.tsx</title>
<path fill="none" stroke="#000000" stroke-width="2" stroke-opacity="0.200000" d="M415.78,-296.95C424.78,-298.88 434.21,-300.92 443,-302.88 449.53,-304.33 456.42,-305.9 463.18,-307.46"/>
<polygon fill="#000000" fill-opacity="0.200000" stroke="#000000" stroke-width="2" stroke-opacity="0.200000" points="463.01,-309.57 469.33,-308.88 463.95,-305.48 463.01,-309.57"/>
</g>
<!-- src/templates/blog&#45;post&#45;template/index.tsx&#45;&gt;src/utils/asserts&#45;non&#45;null.ts -->
<g id="edge51" class="edge">
<title>src/templates/blog&#45;post&#45;template/index.tsx&#45;&gt;src/utils/asserts&#45;non&#45;null.ts</title>
<path fill="none" stroke="#000000" stroke-width="2" stroke-opacity="0.200000" d="M390.63,-196.83C407.25,-188.89 432.74,-177.59 456,-170.88 531.54,-149.09 551.88,-141.88 630.5,-141.88 630.5,-141.88 630.5,-141.88 775.5,-141.88 862.31,-141.88 896.25,-114.08 970,-159.88 975.76,-163.46 972.56,-168.83 978,-172.88 979.45,-173.96 980.97,-174.96 982.55,-175.89"/>
<polygon fill="#000000" fill-opacity="0.200000" stroke="#000000" stroke-width="2" stroke-opacity="0.200000" points="981.81,-177.87 988.1,-178.78 983.75,-174.14 981.81,-177.87"/>
</g>
<!-- src/components/article/index.tsx -->
<g id="node17" class="node">
<title>src/components/article/index.tsx</title>
<g id="a_node17"><a xlink:href="src/components/article/index.tsx" xlink:title="index.tsx">
<path fill="#bbfeff" stroke="black" d="M654.5,-1084.88C654.5,-1084.88 608.5,-1084.88 608.5,-1084.88 605.5,-1084.88 602.5,-1081.88 602.5,-1078.88 602.5,-1078.88 602.5,-1072.88 602.5,-1072.88 602.5,-1069.88 605.5,-1066.88 608.5,-1066.88 608.5,-1066.88 654.5,-1066.88 654.5,-1066.88 657.5,-1066.88 660.5,-1069.88 660.5,-1072.88 660.5,-1072.88 660.5,-1078.88 660.5,-1078.88 660.5,-1081.88 657.5,-1084.88 654.5,-1084.88"/>
<text text-anchor="middle" x="631.5" y="-1073.68" font-family="Helvetica,sans-Serif" font-size="9.00">index.tsx</text>
</a>
</g>
</g>
<!-- src/templates/blog&#45;post&#45;template/index.tsx&#45;&gt;src/components/article/index.tsx -->
<g id="edge46" class="edge">
<title>src/templates/blog&#45;post&#45;template/index.tsx&#45;&gt;src/components/article/index.tsx</title>
<path fill="none" stroke="#000000" stroke-width="2" stroke-opacity="0.200000" d="M400.63,-203.36C415.49,-203.69 432.73,-207.03 443,-218.88 466.74,-246.27 442.78,-511.12 456,-544.88 482.21,-611.81 534.48,-601.07 561,-667.88 576.84,-707.79 555.59,-1018.55 580,-1053.88 584.12,-1059.84 590.23,-1064.2 596.78,-1067.39"/>
<polygon fill="#000000" fill-opacity="0.200000" stroke="#000000" stroke-width="2" stroke-opacity="0.200000" points="596.02,-1069.34 602.36,-1069.79 597.68,-1065.49 596.02,-1069.34"/>
</g>
<!-- src/components/atoms/tag&#45;list.tsx -->
<g id="node19" class="node">
<title>src/components/atoms/tag&#45;list.tsx</title>
<g id="a_node19"><a xlink:href="src/components/atoms/tag-list.tsx" xlink:title="tag&#45;list.tsx">
<path fill="#bbfeff" stroke="black" d="M932.5,-394.88C932.5,-394.88 880.5,-394.88 880.5,-394.88 877.5,-394.88 874.5,-391.88 874.5,-388.88 874.5,-388.88 874.5,-382.88 874.5,-382.88 874.5,-379.88 877.5,-376.88 880.5,-376.88 880.5,-376.88 932.5,-376.88 932.5,-376.88 935.5,-376.88 938.5,-379.88 938.5,-382.88 938.5,-382.88 938.5,-388.88 938.5,-388.88 938.5,-391.88 935.5,-394.88 932.5,-394.88"/>
<text text-anchor="middle" x="906.5" y="-383.68" font-family="Helvetica,sans-Serif" font-size="9.00">tag&#45;list.tsx</text>
</a>
</g>
</g>
<!-- src/templates/blog&#45;post&#45;template/index.tsx&#45;&gt;src/components/atoms/tag&#45;list.tsx -->
<g id="edge47" class="edge">
<title>src/templates/blog&#45;post&#45;template/index.tsx&#45;&gt;src/components/atoms/tag&#45;list.tsx</title>
<path fill="none" stroke="#000000" stroke-width="2" stroke-opacity="0.200000" d="M400.67,-200.52C416.83,-197.52 437.52,-193.8 456,-190.88 562.93,-173.95 591.29,-162.98 699,-173.88 760.83,-180.13 788.69,-161.58 836,-201.88 888.37,-246.49 901.35,-334.84 904.51,-370.46"/>
<polygon fill="#000000" fill-opacity="0.200000" stroke="#000000" stroke-width="2" stroke-opacity="0.200000" points="902.42,-370.66 904.99,-376.47 906.61,-370.32 902.42,-370.66"/>
</g>
<!-- src/components/git&#45;info/index.tsx -->
<g id="node23" class="node">
<title>src/components/git&#45;info/index.tsx</title>
<g id="a_node23"><a xlink:href="src/components/git-info/index.tsx" xlink:title="index.tsx">
<path fill="#bbfeff" stroke="black" d="M654.5,-874.88C654.5,-874.88 608.5,-874.88 608.5,-874.88 605.5,-874.88 602.5,-871.88 602.5,-868.88 602.5,-868.88 602.5,-862.88 602.5,-862.88 602.5,-859.88 605.5,-856.88 608.5,-856.88 608.5,-856.88 654.5,-856.88 654.5,-856.88 657.5,-856.88 660.5,-859.88 660.5,-862.88 660.5,-862.88 660.5,-868.88 660.5,-868.88 660.5,-871.88 657.5,-874.88 654.5,-874.88"/>
<text text-anchor="middle" x="631.5" y="-863.68" font-family="Helvetica,sans-Serif" font-size="9.00">index.tsx</text>
</a>
</g>
</g>
<!-- src/templates/blog&#45;post&#45;template/index.tsx&#45;&gt;src/components/git&#45;info/index.tsx -->
<g id="edge48" class="edge">
<title>src/templates/blog&#45;post&#45;template/index.tsx&#45;&gt;src/components/git&#45;info/index.tsx</title>
<path fill="none" stroke="#000000" stroke-width="2" stroke-opacity="0.200000" d="M400.52,-203.46C415.35,-203.82 432.59,-207.15 443,-218.88 458.08,-235.86 450.58,-400.82 456,-422.88 483.41,-534.36 528.75,-548.7 561,-658.88 576.78,-712.81 560.66,-731.12 580,-783.88 589.41,-809.55 607.4,-835.88 619.17,-851.56"/>
<polygon fill="#000000" fill-opacity="0.200000" stroke="#000000" stroke-width="2" stroke-opacity="0.200000" points="617.6,-852.95 622.91,-856.45 620.94,-850.4 617.6,-852.95"/>
</g>
<!-- src/components/layout/index.tsx -->
<g id="node31" class="node">
<title>src/components/layout/index.tsx</title>
<g id="a_node31"><a xlink:href="src/components/layout/index.tsx" xlink:title="index.tsx">
<path fill="#bbfeff" stroke="black" d="M654.5,-664.88C654.5,-664.88 608.5,-664.88 608.5,-664.88 605.5,-664.88 602.5,-661.88 602.5,-658.88 602.5,-658.88 602.5,-652.88 602.5,-652.88 602.5,-649.88 605.5,-646.88 608.5,-646.88 608.5,-646.88 654.5,-646.88 654.5,-646.88 657.5,-646.88 660.5,-649.88 660.5,-652.88 660.5,-652.88 660.5,-658.88 660.5,-658.88 660.5,-661.88 657.5,-664.88 654.5,-664.88"/>
<text text-anchor="middle" x="631.5" y="-653.68" font-family="Helvetica,sans-Serif" font-size="9.00">index.tsx</text>
</a>
</g>
</g>
<!-- src/templates/blog&#45;post&#45;template/index.tsx&#45;&gt;src/components/layout/index.tsx -->
<g id="edge49" class="edge">
<title>src/templates/blog&#45;post&#45;template/index.tsx&#45;&gt;src/components/layout/index.tsx</title>
<path fill="none" stroke="#000000" stroke-width="2" stroke-opacity="0.200000" d="M400.73,-203.59C415.44,-204.04 432.49,-207.41 443,-218.88 463.66,-241.43 439.78,-329.95 456,-355.88 484.98,-402.21 529.63,-375.13 561,-419.88 585.47,-454.78 568.61,-472.81 580,-513.88 593.14,-561.26 614.2,-615.6 624.48,-641.15"/>
<polygon fill="#000000" fill-opacity="0.200000" stroke="#000000" stroke-width="2" stroke-opacity="0.200000" points="622.53,-641.95 626.73,-646.72 626.43,-640.37 622.53,-641.95"/>
</g>
<!-- src/components/layout/sidebar.tsx -->
<g id="node34" class="node">
<title>src/components/layout/sidebar.tsx</title>
<g id="a_node34"><a xlink:href="src/components/layout/sidebar.tsx" xlink:title="sidebar.tsx">
<path fill="#bbfeff" stroke="black" d="M658,-694.88C658,-694.88 605,-694.88 605,-694.88 602,-694.88 599,-691.88 599,-688.88 599,-688.88 599,-682.88 599,-682.88 599,-679.88 602,-676.88 605,-676.88 605,-676.88 658,-676.88 658,-676.88 661,-676.88 664,-679.88 664,-682.88 664,-682.88 664,-688.88 664,-688.88 664,-691.88 661,-694.88 658,-694.88"/>
<text text-anchor="middle" x="631.5" y="-683.68" font-family="Helvetica,sans-Serif" font-size="9.00">sidebar.tsx</text>
</a>
</g>
</g>
<!-- src/templates/blog&#45;post&#45;template/index.tsx&#45;&gt;src/components/layout/sidebar.tsx -->
<g id="edge50" class="edge">
<title>src/templates/blog&#45;post&#45;template/index.tsx&#45;&gt;src/components/layout/sidebar.tsx</title>
<path fill="none" stroke="#000000" stroke-width="2" stroke-opacity="0.200000" d="M400.82,-203.51C415.55,-203.93 432.61,-207.3 443,-218.88 468.76,-247.56 434.7,-359.75 456,-391.88 484.99,-435.62 531.8,-402.27 561,-445.88 588.92,-487.57 548.33,-631.96 580,-670.88 583.4,-675.06 587.92,-678.11 592.85,-680.33"/>
<polygon fill="#000000" fill-opacity="0.200000" stroke="#000000" stroke-width="2" stroke-opacity="0.200000" points="592.43,-682.42 598.79,-682.57 593.91,-678.49 592.43,-682.42"/>
</g>
<!-- src/templates/blog&#45;post&#45;template/article&#45;elements.tsx -->
<g id="node48" class="node">
<title>src/templates/blog&#45;post&#45;template/article&#45;elements.tsx</title>
<g id="a_node48"><a xlink:href="src/templates/blog-post-template/article-elements.tsx" xlink:title="article&#45;elements.tsx">
<path fill="#bbfeff" stroke="black" d="M555,-214.88C555,-214.88 462,-214.88 462,-214.88 459,-214.88 456,-211.88 456,-208.88 456,-208.88 456,-202.88 456,-202.88 456,-199.88 459,-196.88 462,-196.88 462,-196.88 555,-196.88 555,-196.88 558,-196.88 561,-199.88 561,-202.88 561,-202.88 561,-208.88 561,-208.88 561,-211.88 558,-214.88 555,-214.88"/>
<text text-anchor="middle" x="508.5" y="-203.68" font-family="Helvetica,sans-Serif" font-size="9.00">article&#45;elements.tsx</text>
</a>
</g>
</g>
<!-- src/templates/blog&#45;post&#45;template/index.tsx&#45;&gt;src/templates/blog&#45;post&#45;template/article&#45;elements.tsx -->
<g id="edge52" class="edge">
<title>src/templates/blog&#45;post&#45;template/index.tsx&#45;&gt;src/templates/blog&#45;post&#45;template/article&#45;elements.tsx</title>
<path fill="none" stroke="#000000" stroke-width="2" stroke-opacity="0.200000" d="M400.8,-205.88C414.99,-205.88 432.71,-205.88 449.61,-205.88"/>
<polygon fill="#000000" fill-opacity="0.200000" stroke="#000000" stroke-width="2" stroke-opacity="0.200000" points="449.79,-207.98 455.79,-205.88 449.79,-203.78 449.79,-207.98"/>
</g>
<!-- src/templates/tag&#45;page&#45;template.tsx&#45;&gt;src/templates/post&#45;list&#45;page.tsx -->
<g id="edge55" class="edge">
<title>src/templates/tag&#45;page&#45;template.tsx&#45;&gt;src/templates/post&#45;list&#45;page.tsx</title>
<path fill="none" stroke="#000000" stroke-width="2" stroke-opacity="0.200000" d="M426.33,-266.97C432.06,-268.64 437.72,-270.59 443,-272.88 461.58,-280.94 480.28,-294.76 492.72,-304.97"/>
<polygon fill="#000000" fill-opacity="0.200000" stroke="#000000" stroke-width="2" stroke-opacity="0.200000" points="491.38,-306.59 497.33,-308.82 494.08,-303.36 491.38,-306.59"/>
</g>
<!-- src/utils/panic.ts -->
<g id="node25" class="node">
<title>src/utils/panic.ts</title>
<g id="a_node25"><a xlink:href="src/utils/panic.ts" xlink:title="panic.ts">
<path fill="#ddfeff" stroke="black" d="M1146,-196.88C1146,-196.88 1104,-196.88 1104,-196.88 1101,-196.88 1098,-193.88 1098,-190.88 1098,-190.88 1098,-184.88 1098,-184.88 1098,-181.88 1101,-178.88 1104,-178.88 1104,-178.88 1146,-178.88 1146,-178.88 1149,-178.88 1152,-181.88 1152,-184.88 1152,-184.88 1152,-190.88 1152,-190.88 1152,-193.88 1149,-196.88 1146,-196.88"/>
<text text-anchor="middle" x="1125" y="-185.68" font-family="Helvetica,sans-Serif" font-size="9.00">panic.ts</text>
</a>
</g>
</g>
<!-- src/utils/asserts&#45;non&#45;null.ts&#45;&gt;src/utils/panic.ts -->
<g id="edge56" class="edge">
<title>src/utils/asserts&#45;non&#45;null.ts&#45;&gt;src/utils/panic.ts</title>
<path fill="none" stroke="#000000" stroke-width="2" stroke-opacity="0.200000" d="M1085.11,-187.88C1087.31,-187.88 1089.5,-187.88 1091.65,-187.88"/>
<polygon fill="#000000" fill-opacity="0.200000" stroke="#000000" stroke-width="2" stroke-opacity="0.200000" points="1091.95,-189.98 1097.95,-187.88 1091.95,-185.78 1091.95,-189.98"/>
</g>
<!-- gatsby/node/on&#45;create&#45;node.ts&#45;&gt;src/utils/asserts&#45;non&#45;null.ts -->
<g id="edge11" class="edge">
<title>gatsby/node/on&#45;create&#45;node.ts&#45;&gt;src/utils/asserts&#45;non&#45;null.ts</title>
<path fill="none" stroke="#000000" stroke-width="2" stroke-opacity="0.200000" d="M276.2,-27.32C331.51,-20.21 425.97,-9.88 507.5,-9.88 507.5,-9.88 507.5,-9.88 775.5,-9.88 862.9,-9.88 910.99,25.59 970,-38.88 990.14,-60.88 959.12,-149.79 978,-172.88 978.84,-173.91 979.75,-174.87 980.71,-175.78"/>
<polygon fill="#000000" fill-opacity="0.200000" stroke="#000000" stroke-width="2" stroke-opacity="0.200000" points="979.87,-177.79 985.91,-179.79 982.44,-174.46 979.87,-177.79"/>
</g>
<!-- src/@types/tailwindcss.d.ts -->
<g id="node15" class="node">
<title>src/@types/tailwindcss.d.ts</title>
<g id="a_node15"><a xlink:href="src/@types/tailwindcss.d.ts" xlink:title="tailwindcss.d.ts">
<path fill="#ccffcc" stroke="black" d="M408.5,-1121.88C408.5,-1121.88 334.5,-1121.88 334.5,-1121.88 331.5,-1121.88 328.5,-1118.88 328.5,-1115.88 328.5,-1115.88 328.5,-1109.88 328.5,-1109.88 328.5,-1106.88 331.5,-1103.88 334.5,-1103.88 334.5,-1103.88 408.5,-1103.88 408.5,-1103.88 411.5,-1103.88 414.5,-1106.88 414.5,-1109.88 414.5,-1109.88 414.5,-1115.88 414.5,-1115.88 414.5,-1118.88 411.5,-1121.88 408.5,-1121.88"/>
<text text-anchor="middle" x="371.5" y="-1110.68" font-family="Helvetica,sans-Serif" font-size="9.00">tailwindcss.d.ts</text>
</a>
</g>
</g>
<!-- src/components/article/article&#45;styles.ts -->
<g id="node16" class="node">
<title>src/components/article/article&#45;styles.ts</title>
<g id="a_node16"><a xlink:href="src/components/article/article-styles.ts" xlink:title="article&#45;styles.ts">
<path fill="#ddfeff" stroke="black" d="M810.5,-1084.88C810.5,-1084.88 738.5,-1084.88 738.5,-1084.88 735.5,-1084.88 732.5,-1081.88 732.5,-1078.88 732.5,-1078.88 732.5,-1072.88 732.5,-1072.88 732.5,-1069.88 735.5,-1066.88 738.5,-1066.88 738.5,-1066.88 810.5,-1066.88 810.5,-1066.88 813.5,-1066.88 816.5,-1069.88 816.5,-1072.88 816.5,-1072.88 816.5,-1078.88 816.5,-1078.88 816.5,-1081.88 813.5,-1084.88 810.5,-1084.88"/>
<text text-anchor="middle" x="774.5" y="-1073.68" font-family="Helvetica,sans-Serif" font-size="9.00">article&#45;styles.ts</text>
</a>
</g>
</g>
<!-- src/components/article/index.tsx&#45;&gt;src/components/article/article&#45;styles.ts -->
<g id="edge12" class="edge">
<title>src/components/article/index.tsx&#45;&gt;src/components/article/article&#45;styles.ts</title>
<path fill="none" stroke="#000000" stroke-width="2" stroke-opacity="0.200000" d="M660.69,-1075.88C679.43,-1075.88 704.48,-1075.88 726.22,-1075.88"/>
<polygon fill="#000000" fill-opacity="0.200000" stroke="#000000" stroke-width="2" stroke-opacity="0.200000" points="726.26,-1077.98 732.26,-1075.88 726.26,-1073.78 726.26,-1077.98"/>
</g>
<!-- src/components/atoms/anchor&#45;or&#45;link.tsx -->
<g id="node18" class="node">
<title>src/components/atoms/anchor&#45;or&#45;link.tsx</title>
<g id="a_node18"><a xlink:href="src/components/atoms/anchor-or-link.tsx" xlink:title="anchor&#45;or&#45;link.tsx">
<path fill="#bbfeff" stroke="black" d="M948,-424.88C948,-424.88 865,-424.88 865,-424.88 862,-424.88 859,-421.88 859,-418.88 859,-418.88 859,-412.88 859,-412.88 859,-409.88 862,-406.88 865,-406.88 865,-406.88 948,-406.88 948,-406.88 951,-406.88 954,-409.88 954,-412.88 954,-412.88 954,-418.88 954,-418.88 954,-421.88 951,-424.88 948,-424.88"/>
<text text-anchor="middle" x="906.5" y="-413.68" font-family="Helvetica,sans-Serif" font-size="9.00">anchor&#45;or&#45;link.tsx</text>
</a>
</g>
</g>
<!-- src/components/color&#45;checker/index.tsx -->
<g id="node20" class="node">
<title>src/components/color&#45;checker/index.tsx</title>
<g id="a_node20"><a xlink:href="src/components/color-checker/index.tsx" xlink:title="index.tsx">
<path fill="#ccffcc" stroke="black" d="M654.5,-1024.88C654.5,-1024.88 608.5,-1024.88 608.5,-1024.88 605.5,-1024.88 602.5,-1021.88 602.5,-1018.88 602.5,-1018.88 602.5,-1012.88 602.5,-1012.88 602.5,-1009.88 605.5,-1006.88 608.5,-1006.88 608.5,-1006.88 654.5,-1006.88 654.5,-1006.88 657.5,-1006.88 660.5,-1009.88 660.5,-1012.88 660.5,-1012.88 660.5,-1018.88 660.5,-1018.88 660.5,-1021.88 657.5,-1024.88 654.5,-1024.88"/>
<text text-anchor="middle" x="631.5" y="-1013.68" font-family="Helvetica,sans-Serif" font-size="9.00">index.tsx</text>
</a>
</g>
</g>
<!-- src/components/embeddeds/niconico.tsx -->
<g id="node21" class="node">
<title>src/components/embeddeds/niconico.tsx</title>
<g id="a_node21"><a xlink:href="src/components/embeddeds/niconico.tsx" xlink:title="niconico.tsx">
<path fill="#ccffcc" stroke="black" d="M661,-964.88C661,-964.88 602,-964.88 602,-964.88 599,-964.88 596,-961.88 596,-958.88 596,-958.88 596,-952.88 596,-952.88 596,-949.88 599,-946.88 602,-946.88 602,-946.88 661,-946.88 661,-946.88 664,-946.88 667,-949.88 667,-952.88 667,-952.88 667,-958.88 667,-958.88 667,-961.88 664,-964.88 661,-964.88"/>
<text text-anchor="middle" x="631.5" y="-953.68" font-family="Helvetica,sans-Serif" font-size="9.00">niconico.tsx</text>
</a>
</g>
</g>
<!-- src/components/embeddeds/youtube.tsx -->
<g id="node22" class="node">
<title>src/components/embeddeds/youtube.tsx</title>
<g id="a_node22"><a xlink:href="src/components/embeddeds/youtube.tsx" xlink:title="youtube.tsx">
<path fill="#ccffcc" stroke="black" d="M661,-934.88C661,-934.88 602,-934.88 602,-934.88 599,-934.88 596,-931.88 596,-928.88 596,-928.88 596,-922.88 596,-922.88 596,-919.88 599,-916.88 602,-916.88 602,-916.88 661,-916.88 661,-916.88 664,-916.88 667,-919.88 667,-922.88 667,-922.88 667,-928.88 667,-928.88 667,-931.88 664,-934.88 661,-934.88"/>
<text text-anchor="middle" x="631.5" y="-923.68" font-family="Helvetica,sans-Serif" font-size="9.00">youtube.tsx</text>
</a>
</g>
</g>
<!-- src/components/git&#45;info/useLatestCommit.ts -->
<g id="node24" class="node">
<title>src/components/git&#45;info/useLatestCommit.ts</title>
<g id="a_node24"><a xlink:href="src/components/git-info/useLatestCommit.ts" xlink:title="useLatestCommit.ts">
<path fill="#ddfeff" stroke="black" d="M822,-874.88C822,-874.88 727,-874.88 727,-874.88 724,-874.88 721,-871.88 721,-868.88 721,-868.88 721,-862.88 721,-862.88 721,-859.88 724,-856.88 727,-856.88 727,-856.88 822,-856.88 822,-856.88 825,-856.88 828,-859.88 828,-862.88 828,-862.88 828,-868.88 828,-868.88 828,-871.88 825,-874.88 822,-874.88"/>
<text text-anchor="middle" x="774.5" y="-863.68" font-family="Helvetica,sans-Serif" font-size="9.00">useLatestCommit.ts</text>
</a>
</g>
</g>
<!-- src/components/git&#45;info/index.tsx&#45;&gt;src/components/git&#45;info/useLatestCommit.ts -->
<g id="edge13" class="edge">
<title>src/components/git&#45;info/index.tsx&#45;&gt;src/components/git&#45;info/useLatestCommit.ts</title>
<path fill="none" stroke="#000000" stroke-width="2" stroke-opacity="0.200000" d="M660.69,-865.88C676.15,-865.88 695.9,-865.88 714.55,-865.88"/>
<polygon fill="#000000" fill-opacity="0.200000" stroke="#000000" stroke-width="2" stroke-opacity="0.200000" points="714.82,-867.98 720.82,-865.88 714.82,-863.78 714.82,-867.98"/>
</g>
<!-- src/components/git&#45;info/useLatestCommit.ts&#45;&gt;src/utils/panic.ts -->
<g id="edge14" class="edge">
<title>src/components/git&#45;info/useLatestCommit.ts&#45;&gt;src/utils/panic.ts</title>
<path fill="none" stroke="#000000" stroke-width="2" stroke-opacity="0.200000" d="M779.24,-875.18C790.03,-902.43 821.37,-984.67 836,-1055.88 842.92,-1089.56 825.54,-1186.77 851,-1209.88 890.17,-1245.42 929.91,-1244.38 970,-1209.88 1130.35,-1071.88 1125.96,-321.01 1124.27,-203.38"/>
<polygon fill="#000000" fill-opacity="0.200000" stroke="#000000" stroke-width="2" stroke-opacity="0.200000" points="1126.37,-203.08 1124.17,-197.12 1122.17,-203.15 1126.37,-203.08"/>
</g>
<!-- src/components/layout/breadcrumbs.tsx -->
<g id="node26" class="node">
<title>src/components/layout/breadcrumbs.tsx</title>
<g id="a_node26"><a xlink:href="src/components/layout/breadcrumbs.tsx" xlink:title="breadcrumbs.tsx">
<path fill="#bbfeff" stroke="black" d="M815.5,-754.88C815.5,-754.88 733.5,-754.88 733.5,-754.88 730.5,-754.88 727.5,-751.88 727.5,-748.88 727.5,-748.88 727.5,-742.88 727.5,-742.88 727.5,-739.88 730.5,-736.88 733.5,-736.88 733.5,-736.88 815.5,-736.88 815.5,-736.88 818.5,-736.88 821.5,-739.88 821.5,-742.88 821.5,-742.88 821.5,-748.88 821.5,-748.88 821.5,-751.88 818.5,-754.88 815.5,-754.88"/>
<text text-anchor="middle" x="774.5" y="-743.68" font-family="Helvetica,sans-Serif" font-size="9.00">breadcrumbs.tsx</text>
</a>
</g>
</g>
<!-- src/components/layout/breadcrumbs.tsx&#45;&gt;src/utils/asserts&#45;non&#45;null.ts -->
<g id="edge16" class="edge">
<title>src/components/layout/breadcrumbs.tsx&#45;&gt;src/utils/asserts&#45;non&#45;null.ts</title>
<path fill="none" stroke="#000000" stroke-width="2" stroke-opacity="0.200000" d="M798.91,-754.89C812.27,-761.36 827.93,-771.49 836,-785.88 858.53,-826.02 817.87,-1167.93 851,-1199.88 870.03,-1218.24 950.72,-1217.97 970,-1199.88 1008.04,-1164.19 1030.93,-327.09 1034.12,-203.16"/>
<polygon fill="#000000" fill-opacity="0.200000" stroke="#000000" stroke-width="2" stroke-opacity="0.200000" points="1036.22,-202.95 1034.28,-196.9 1032.02,-202.85 1036.22,-202.95"/>
</g>
<!-- src/hooks/use&#45;site.ts -->
<g id="node27" class="node">
<title>src/hooks/use&#45;site.ts</title>
<g id="a_node27"><a xlink:href="src/hooks/use-site.ts" xlink:title="use&#45;site.ts">
<path fill="#ddfeff" stroke="black" d="M931.5,-1170.88C931.5,-1170.88 881.5,-1170.88 881.5,-1170.88 878.5,-1170.88 875.5,-1167.88 875.5,-1164.88 875.5,-1164.88 875.5,-1158.88 875.5,-1158.88 875.5,-1155.88 878.5,-1152.88 881.5,-1152.88 881.5,-1152.88 931.5,-1152.88 931.5,-1152.88 934.5,-1152.88 937.5,-1155.88 937.5,-1158.88 937.5,-1158.88 937.5,-1164.88 937.5,-1164.88 937.5,-1167.88 934.5,-1170.88 931.5,-1170.88"/>
<text text-anchor="middle" x="906.5" y="-1159.68" font-family="Helvetica,sans-Serif" font-size="9.00">use&#45;site.ts</text>
</a>
</g>
</g>
<!-- src/components/layout/breadcrumbs.tsx&#45;&gt;src/hooks/use&#45;site.ts -->
<g id="edge15" class="edge">
<title>src/components/layout/breadcrumbs.tsx&#45;&gt;src/hooks/use&#45;site.ts</title>
<path fill="none" stroke="#000000" stroke-width="2" stroke-opacity="0.200000" d="M797.28,-754.89C810.55,-761.51 826.69,-771.81 836,-785.88 876.57,-847.17 898.95,-1083.74 904.26,-1146.52"/>
<polygon fill="#000000" fill-opacity="0.200000" stroke="#000000" stroke-width="2" stroke-opacity="0.200000" points="902.18,-1146.86 904.77,-1152.67 906.37,-1146.51 902.18,-1146.86"/>
</g>
<!-- src/components/styles/styles.ts -->
<g id="node28" class="node">
<title>src/components/styles/styles.ts</title>
<g id="a_node28"><a xlink:href="src/components/styles/styles.ts" xlink:title="styles.ts">
<path fill="#ddfeff" stroke="black" d="M927.5,-604.88C927.5,-604.88 885.5,-604.88 885.5,-604.88 882.5,-604.88 879.5,-601.88 879.5,-598.88 879.5,-598.88 879.5,-592.88 879.5,-592.88 879.5,-589.88 882.5,-586.88 885.5,-586.88 885.5,-586.88 927.5,-586.88 927.5,-586.88 930.5,-586.88 933.5,-589.88 933.5,-592.88 933.5,-592.88 933.5,-598.88 933.5,-598.88 933.5,-601.88 930.5,-604.88 927.5,-604.88"/>
<text text-anchor="middle" x="906.5" y="-593.68" font-family="Helvetica,sans-Serif" font-size="9.00">styles.ts</text>
</a>
</g>
</g>
<!-- src/components/layout/breadcrumbs.tsx&#45;&gt;src/components/styles/styles.ts -->
<g id="edge17" class="edge">
<title>src/components/layout/breadcrumbs.tsx&#45;&gt;src/components/styles/styles.ts</title>
<path fill="none" stroke="#000000" stroke-width="2" stroke-opacity="0.200000" d="M821.73,-738.89C826.86,-736.85 831.76,-734.24 836,-730.88 875.62,-699.54 894.87,-639.47 902.04,-611.25"/>
<polygon fill="#000000" fill-opacity="0.200000" stroke="#000000" stroke-width="2" stroke-opacity="0.200000" points="904.16,-611.43 903.54,-605.1 900.08,-610.43 904.16,-611.43"/>
</g>
<!-- src/hooks/use&#45;site.ts&#45;&gt;src/utils/asserts&#45;non&#45;null.ts -->
<g id="edge34" class="edge">
<title>src/hooks/use&#45;site.ts&#45;&gt;src/utils/asserts&#45;non&#45;null.ts</title>
<path fill="none" stroke="#000000" stroke-width="2" stroke-opacity="0.200000" d="M908.68,-1152.86C920.47,-1062.41 1017.29,-319.87 1032.49,-203.26"/>
<polygon fill="#000000" fill-opacity="0.200000" stroke="#000000" stroke-width="2" stroke-opacity="0.200000" points="1034.61,-203.27 1033.3,-197.05 1030.45,-202.73 1034.61,-203.27"/>
</g>
<!-- src/components/layout/footer.tsx -->
<g id="node29" class="node">
<title>src/components/layout/footer.tsx</title>
<g id="a_node29"><a xlink:href="src/components/layout/footer.tsx" xlink:title="footer.tsx">
<path fill="#bbfeff" stroke="black" d="M798,-724.88C798,-724.88 751,-724.88 751,-724.88 748,-724.88 745,-721.88 745,-718.88 745,-718.88 745,-712.88 745,-712.88 745,-709.88 748,-706.88 751,-706.88 751,-706.88 798,-706.88 798,-706.88 801,-706.88 804,-709.88 804,-712.88 804,-712.88 804,-718.88 804,-718.88 804,-721.88 801,-724.88 798,-724.88"/>
<text text-anchor="middle" x="774.5" y="-713.68" font-family="Helvetica,sans-Serif" font-size="9.00">footer.tsx</text>
</a>
</g>
</g>
<!-- src/components/layout/footer.tsx&#45;&gt;src/hooks/use&#45;site.ts -->
<g id="edge18" class="edge">
<title>src/components/layout/footer.tsx&#45;&gt;src/hooks/use&#45;site.ts</title>
<path fill="none" stroke="#000000" stroke-width="2" stroke-opacity="0.200000" d="M804.22,-716.4C815.64,-718.12 827.94,-722.12 836,-730.88 893.55,-793.42 903.6,-1077.15 905.21,-1146.53"/>
<polygon fill="#000000" fill-opacity="0.200000" stroke="#000000" stroke-width="2" stroke-opacity="0.200000" points="903.11,-1146.61 905.34,-1152.57 907.31,-1146.52 903.11,-1146.61"/>
</g>
<!-- src/components/layout/header.tsx -->
<g id="node30" class="node">
<title>src/components/layout/header.tsx</title>
<g id="a_node30"><a xlink:href="src/components/layout/header.tsx" xlink:title="header.tsx">
<path fill="#bbfeff" stroke="black" d="M800.5,-694.88C800.5,-694.88 748.5,-694.88 748.5,-694.88 745.5,-694.88 742.5,-691.88 742.5,-688.88 742.5,-688.88 742.5,-682.88 742.5,-682.88 742.5,-679.88 745.5,-676.88 748.5,-676.88 748.5,-676.88 800.5,-676.88 800.5,-676.88 803.5,-676.88 806.5,-679.88 806.5,-682.88 806.5,-682.88 806.5,-688.88 806.5,-688.88 806.5,-691.88 803.5,-694.88 800.5,-694.88"/>
<text text-anchor="middle" x="774.5" y="-683.68" font-family="Helvetica,sans-Serif" font-size="9.00">header.tsx</text>
</a>
</g>
</g>
<!-- src/components/layout/header.tsx&#45;&gt;src/components/atoms/anchor&#45;or&#45;link.tsx -->
<g id="edge20" class="edge">
<title>src/components/layout/header.tsx&#45;&gt;src/components/atoms/anchor&#45;or&#45;link.tsx</title>
<path fill="none" stroke="#000000" stroke-width="2" stroke-opacity="0.200000" d="M806.5,-685.41C817.42,-683.59 828.76,-679.5 836,-670.88 866.81,-634.21 827.89,-497.83 851,-455.88 857.57,-443.95 869.38,-434.62 880.33,-427.98"/>
<polygon fill="#000000" fill-opacity="0.200000" stroke="#000000" stroke-width="2" stroke-opacity="0.200000" points="881.46,-429.75 885.61,-424.94 879.36,-426.12 881.46,-429.75"/>
</g>
<!-- src/components/layout/header.tsx&#45;&gt;src/hooks/use&#45;site.ts -->
<g id="edge19" class="edge">
<title>src/components/layout/header.tsx&#45;&gt;src/hooks/use&#45;site.ts</title>
<path fill="none" stroke="#000000" stroke-width="2" stroke-opacity="0.200000" d="M806.77,-686.77C817.45,-688.68 828.57,-692.72 836,-700.88 897.37,-768.27 904.55,-1073.93 905.39,-1146.42"/>
<polygon fill="#000000" fill-opacity="0.200000" stroke="#000000" stroke-width="2" stroke-opacity="0.200000" points="903.29,-1146.72 905.45,-1152.7 907.49,-1146.68 903.29,-1146.72"/>
</g>
<!-- src/components/layout/header.tsx&#45;&gt;src/components/styles/styles.ts -->
<g id="edge21" class="edge">
<title>src/components/layout/header.tsx&#45;&gt;src/components/styles/styles.ts</title>
<path fill="none" stroke="#000000" stroke-width="2" stroke-opacity="0.200000" d="M806.68,-681.74C816.53,-679.52 827.15,-676.1 836,-670.88 861.96,-655.56 884.06,-627.56 896,-610.45"/>
<polygon fill="#000000" fill-opacity="0.200000" stroke="#000000" stroke-width="2" stroke-opacity="0.200000" points="898,-611.24 899.65,-605.1 894.53,-608.87 898,-611.24"/>
</g>
<!-- src/components/layout/index.tsx&#45;&gt;src/components/layout/breadcrumbs.tsx -->
<g id="edge23" class="edge">
<title>src/components/layout/index.tsx&#45;&gt;src/components/layout/breadcrumbs.tsx</title>
<path fill="none" stroke="#000000" stroke-width="2" stroke-opacity="0.200000" d="M660.82,-656.26C673.81,-657.82 688.6,-661.74 699,-670.88 720.34,-689.62 700.2,-711.54 721,-730.88 722.02,-731.82 723.09,-732.71 724.2,-733.54"/>
<polygon fill="#000000" fill-opacity="0.200000" stroke="#000000" stroke-width="2" stroke-opacity="0.200000" points="723.17,-735.37 729.36,-736.83 725.44,-731.83 723.17,-735.37"/>
</g>
<!-- src/components/layout/index.tsx&#45;&gt;src/components/layout/footer.tsx -->
<g id="edge24" class="edge">
<title>src/components/layout/index.tsx&#45;&gt;src/components/layout/footer.tsx</title>
<path fill="none" stroke="#000000" stroke-width="2" stroke-opacity="0.200000" d="M660.77,-657.78C673.29,-659.7 687.71,-663.49 699,-670.88 712.83,-679.94 707.43,-691.43 721,-700.88 726.36,-704.61 732.64,-707.42 738.95,-709.53"/>
<polygon fill="#000000" fill-opacity="0.200000" stroke="#000000" stroke-width="2" stroke-opacity="0.200000" points="738.38,-711.56 744.74,-711.29 739.6,-707.54 738.38,-711.56"/>
</g>
<!-- src/components/layout/index.tsx&#45;&gt;src/components/layout/header.tsx -->
<g id="edge25" class="edge">
<title>src/components/layout/index.tsx&#45;&gt;src/components/layout/header.tsx</title>
<path fill="none" stroke="#000000" stroke-width="2" stroke-opacity="0.200000" d="M660.69,-661.88C682.48,-666.51 712.81,-672.97 736.53,-678.01"/>
<polygon fill="#000000" fill-opacity="0.200000" stroke="#000000" stroke-width="2" stroke-opacity="0.200000" points="736.11,-680.07 742.41,-679.26 736.98,-675.96 736.11,-680.07"/>
</g>
<!-- src/components/styles/global.ts -->
<g id="node32" class="node">
<title>src/components/styles/global.ts</title>
<g id="a_node32"><a xlink:href="src/components/styles/global.ts" xlink:title="global.ts">
<path fill="#ddfeff" stroke="black" d="M796,-574.88C796,-574.88 753,-574.88 753,-574.88 750,-574.88 747,-571.88 747,-568.88 747,-568.88 747,-562.88 747,-562.88 747,-559.88 750,-556.88 753,-556.88 753,-556.88 796,-556.88 796,-556.88 799,-556.88 802,-559.88 802,-562.88 802,-562.88 802,-568.88 802,-568.88 802,-571.88 799,-574.88 796,-574.88"/>
<text text-anchor="middle" x="774.5" y="-563.68" font-family="Helvetica,sans-Serif" font-size="9.00">global.ts</text>
</a>
</g>
</g>
<!-- src/components/layout/index.tsx&#45;&gt;src/components/styles/global.ts -->
<g id="edge22" class="edge">
<title>src/components/layout/index.tsx&#45;&gt;src/components/styles/global.ts</title>
<path fill="none" stroke="#000000" stroke-width="2" stroke-opacity="0.200000" d="M640.85,-646.59C655.53,-630.8 687.6,-598.72 721,-580.88 727.08,-577.63 733.94,-575.02 740.66,-572.94"/>
<polygon fill="#000000" fill-opacity="0.200000" stroke="#000000" stroke-width="2" stroke-opacity="0.200000" points="741.57,-574.86 746.75,-571.18 740.4,-570.83 741.57,-574.86"/>
</g>
<!-- src/components/layout/title.tsx -->
<g id="node33" class="node">
<title>src/components/layout/title.tsx</title>
<g id="a_node33"><a xlink:href="src/components/layout/title.tsx" xlink:title="title.tsx">
<path fill="#bbfeff" stroke="black" d="M795.5,-664.88C795.5,-664.88 753.5,-664.88 753.5,-664.88 750.5,-664.88 747.5,-661.88 747.5,-658.88 747.5,-658.88 747.5,-652.88 747.5,-652.88 747.5,-649.88 750.5,-646.88 753.5,-646.88 753.5,-646.88 795.5,-646.88 795.5,-646.88 798.5,-646.88 801.5,-649.88 801.5,-652.88 801.5,-652.88 801.5,-658.88 801.5,-658.88 801.5,-661.88 798.5,-664.88 795.5,-664.88"/>
<text text-anchor="middle" x="774.5" y="-653.68" font-family="Helvetica,sans-Serif" font-size="9.00">title.tsx</text>
</a>
</g>
</g>
<!-- src/components/layout/index.tsx&#45;&gt;src/components/layout/title.tsx -->
<g id="edge26" class="edge">
<title>src/components/layout/index.tsx&#45;&gt;src/components/layout/title.tsx</title>
<path fill="none" stroke="#000000" stroke-width="2" stroke-opacity="0.200000" d="M660.69,-655.88C683.86,-655.88 716.69,-655.88 740.97,-655.88"/>
<polygon fill="#000000" fill-opacity="0.200000" stroke="#000000" stroke-width="2" stroke-opacity="0.200000" points="741.26,-657.98 747.26,-655.88 741.26,-653.78 741.26,-657.98"/>
</g>
<!-- src/components/styles/global.ts&#45;&gt;src/components/styles/styles.ts -->
<g id="edge33" class="edge">
<title>src/components/styles/global.ts&#45;&gt;src/components/styles/styles.ts</title>
<path fill="none" stroke="#000000" stroke-width="2" stroke-opacity="0.200000" d="M802.12,-572.02C822.76,-576.79 851.45,-583.41 873.37,-588.46"/>
<polygon fill="#000000" fill-opacity="0.200000" stroke="#000000" stroke-width="2" stroke-opacity="0.200000" points="873.04,-590.54 879.36,-589.85 873.98,-586.45 873.04,-590.54"/>
</g>
<!-- src/components/styles/prism&#45;styles.ts -->
<g id="node39" class="node">
<title>src/components/styles/prism&#45;styles.ts</title>
<g id="a_node39"><a xlink:href="src/components/styles/prism-styles.ts" xlink:title="prism&#45;styles.ts">
<path fill="#ddfeff" stroke="black" d="M941.5,-574.88C941.5,-574.88 871.5,-574.88 871.5,-574.88 868.5,-574.88 865.5,-571.88 865.5,-568.88 865.5,-568.88 865.5,-562.88 865.5,-562.88 865.5,-559.88 868.5,-556.88 871.5,-556.88 871.5,-556.88 941.5,-556.88 941.5,-556.88 944.5,-556.88 947.5,-559.88 947.5,-562.88 947.5,-562.88 947.5,-568.88 947.5,-568.88 947.5,-571.88 944.5,-574.88 941.5,-574.88"/>
<text text-anchor="middle" x="906.5" y="-563.68" font-family="Helvetica,sans-Serif" font-size="9.00">prism&#45;styles.ts</text>
</a>
</g>
</g>
<!-- src/components/styles/global.ts&#45;&gt;src/components/styles/prism&#45;styles.ts -->
<g id="edge32" class="edge">
<title>src/components/styles/global.ts&#45;&gt;src/components/styles/prism&#45;styles.ts</title>
<path fill="none" stroke="#000000" stroke-width="2" stroke-opacity="0.200000" d="M802.12,-565.88C818.47,-565.88 839.87,-565.88 858.96,-565.88"/>
<polygon fill="#000000" fill-opacity="0.200000" stroke="#000000" stroke-width="2" stroke-opacity="0.200000" points="859.33,-567.98 865.33,-565.88 859.33,-563.78 859.33,-567.98"/>
</g>
<!-- src/components/table&#45;of&#45;contents/index.tsx -->
<g id="node35" class="node">
<title>src/components/table&#45;of&#45;contents/index.tsx</title>
<g id="a_node35"><a xlink:href="src/components/table-of-contents/index.tsx" xlink:title="index.tsx">
<path fill="#bbfeff" stroke="black" d="M797.5,-814.88C797.5,-814.88 751.5,-814.88 751.5,-814.88 748.5,-814.88 745.5,-811.88 745.5,-808.88 745.5,-808.88 745.5,-802.88 745.5,-802.88 745.5,-799.88 748.5,-796.88 751.5,-796.88 751.5,-796.88 797.5,-796.88 797.5,-796.88 800.5,-796.88 803.5,-799.88 803.5,-802.88 803.5,-802.88 803.5,-808.88 803.5,-808.88 803.5,-811.88 800.5,-814.88 797.5,-814.88"/>
<text text-anchor="middle" x="774.5" y="-803.68" font-family="Helvetica,sans-Serif" font-size="9.00">index.tsx</text>
</a>
</g>
</g>
<!-- src/components/layout/sidebar.tsx&#45;&gt;src/components/table&#45;of&#45;contents/index.tsx -->
<g id="edge27" class="edge">
<title>src/components/layout/sidebar.tsx&#45;&gt;src/components/table&#45;of&#45;contents/index.tsx</title>
<path fill="none" stroke="#000000" stroke-width="2" stroke-opacity="0.200000" d="M638.56,-694.93C651.61,-713.81 684.15,-757.77 721,-783.88 726.68,-787.9 733.21,-791.38 739.69,-794.3"/>
<polygon fill="#000000" fill-opacity="0.200000" stroke="#000000" stroke-width="2" stroke-opacity="0.200000" points="739.26,-796.4 745.6,-796.83 740.91,-792.54 739.26,-796.4"/>
</g>
<!-- src/components/post&#45;link/post&#45;date.tsx -->
<g id="node36" class="node">
<title>src/components/post&#45;link/post&#45;date.tsx</title>
<g id="a_node36"><a xlink:href="src/components/post-link/post-date.tsx" xlink:title="post&#45;date.tsx">
<path fill="#bbfeff" stroke="black" d="M938.5,-484.88C938.5,-484.88 874.5,-484.88 874.5,-484.88 871.5,-484.88 868.5,-481.88 868.5,-478.88 868.5,-478.88 868.5,-472.88 868.5,-472.88 868.5,-469.88 871.5,-466.88 874.5,-466.88 874.5,-466.88 938.5,-466.88 938.5,-466.88 941.5,-466.88 944.5,-469.88 944.5,-472.88 944.5,-472.88 944.5,-478.88 944.5,-478.88 944.5,-481.88 941.5,-484.88 938.5,-484.88"/>
<text text-anchor="middle" x="906.5" y="-473.68" font-family="Helvetica,sans-Serif" font-size="9.00">post&#45;date.tsx</text>
</a>
</g>
</g>
<!-- src/components/post&#45;link/post&#45;link.tsx -->
<g id="node37" class="node">
<title>src/components/post&#45;link/post&#45;link.tsx</title>
<g id="a_node37"><a xlink:href="src/components/post-link/post-link.tsx" xlink:title="post&#45;link.tsx">
<path fill="#bbfeff" stroke="black" d="M804,-484.88C804,-484.88 745,-484.88 745,-484.88 742,-484.88 739,-481.88 739,-478.88 739,-478.88 739,-472.88 739,-472.88 739,-469.88 742,-466.88 745,-466.88 745,-466.88 804,-466.88 804,-466.88 807,-466.88 810,-469.88 810,-472.88 810,-472.88 810,-478.88 810,-478.88 810,-481.88 807,-484.88 804,-484.88"/>
<text text-anchor="middle" x="774.5" y="-473.68" font-family="Helvetica,sans-Serif" font-size="9.00">post&#45;link.tsx</text>
</a>
</g>
</g>
<!-- src/components/post&#45;link/post&#45;link.tsx&#45;&gt;src/components/atoms/tag&#45;list.tsx -->
<g id="edge28" class="edge">
<title>src/components/post&#45;link/post&#45;link.tsx&#45;&gt;src/components/atoms/tag&#45;list.tsx</title>
<path fill="none" stroke="#000000" stroke-width="2" stroke-opacity="0.200000" d="M782.1,-466.75C794.03,-450.92 820.79,-418.39 851,-400.88 856.35,-397.78 862.37,-395.3 868.4,-393.31"/>
<polygon fill="#000000" fill-opacity="0.200000" stroke="#000000" stroke-width="2" stroke-opacity="0.200000" points="869.28,-395.24 874.41,-391.5 868.06,-391.22 869.28,-395.24"/>
</g>
<!-- src/components/post&#45;link/post&#45;link.tsx&#45;&gt;src/components/styles/styles.ts -->
<g id="edge29" class="edge">
<title>src/components/post&#45;link/post&#45;link.tsx&#45;&gt;src/components/styles/styles.ts</title>
<path fill="none" stroke="#000000" stroke-width="2" stroke-opacity="0.200000" d="M796.78,-484.88C810.01,-491.55 826.31,-501.91 836,-515.88 852.9,-540.24 830.48,-559.48 851,-580.88 856.85,-586.97 864.92,-590.67 873.07,-592.88"/>
<polygon fill="#000000" fill-opacity="0.200000" stroke="#000000" stroke-width="2" stroke-opacity="0.200000" points="872.95,-595.01 879.27,-594.31 873.89,-590.92 872.95,-595.01"/>
</g>
<!-- src/components/post&#45;link/post&#45;link.tsx&#45;&gt;src/components/post&#45;link/post&#45;date.tsx -->
<g id="edge30" class="edge">
<title>src/components/post&#45;link/post&#45;link.tsx&#45;&gt;src/components/post&#45;link/post&#45;date.tsx</title>
<path fill="none" stroke="#000000" stroke-width="2" stroke-opacity="0.200000" d="M810.34,-475.88C826.28,-475.88 845.33,-475.88 862.19,-475.88"/>
<polygon fill="#000000" fill-opacity="0.200000" stroke="#000000" stroke-width="2" stroke-opacity="0.200000" points="862.29,-477.98 868.29,-475.88 862.29,-473.78 862.29,-477.98"/>
</g>
<!-- src/components/post&#45;link/post&#45;list.tsx -->
<g id="node38" class="node">
<title>src/components/post&#45;link/post&#45;list.tsx</title>
<g id="a_node38"><a xlink:href="src/components/post-link/post-list.tsx" xlink:title="post&#45;list.tsx">
<path fill="#bbfeff" stroke="black" d="M659.5,-484.88C659.5,-484.88 603.5,-484.88 603.5,-484.88 600.5,-484.88 597.5,-481.88 597.5,-478.88 597.5,-478.88 597.5,-472.88 597.5,-472.88 597.5,-469.88 600.5,-466.88 603.5,-466.88 603.5,-466.88 659.5,-466.88 659.5,-466.88 662.5,-466.88 665.5,-469.88 665.5,-472.88 665.5,-472.88 665.5,-478.88 665.5,-478.88 665.5,-481.88 662.5,-484.88 659.5,-484.88"/>
<text text-anchor="middle" x="631.5" y="-473.68" font-family="Helvetica,sans-Serif" font-size="9.00">post&#45;list.tsx</text>
</a>
</g>
</g>
<!-- src/components/post&#45;link/post&#45;list.tsx&#45;&gt;src/components/post&#45;link/post&#45;link.tsx -->
<g id="edge31" class="edge">
<title>src/components/post&#45;link/post&#45;list.tsx&#45;&gt;src/components/post&#45;link/post&#45;link.tsx</title>
<path fill="none" stroke="#000000" stroke-width="2" stroke-opacity="0.200000" d="M665.56,-475.88C685.56,-475.88 711.23,-475.88 732.52,-475.88"/>
<polygon fill="#000000" fill-opacity="0.200000" stroke="#000000" stroke-width="2" stroke-opacity="0.200000" points="732.68,-477.98 738.68,-475.88 732.68,-473.78 732.68,-477.98"/>
</g>
<!-- src/components/styles/mediaQueries.ts -->
<g id="node40" class="node">
<title>src/components/styles/mediaQueries.ts</title>
<g id="a_node40"><a xlink:href="src/components/styles/mediaQueries.ts" xlink:title="mediaQueries.ts">
<path fill="#ccffcc" stroke="black" d="M813,-544.88C813,-544.88 736,-544.88 736,-544.88 733,-544.88 730,-541.88 730,-538.88 730,-538.88 730,-532.88 730,-532.88 730,-529.88 733,-526.88 736,-526.88 736,-526.88 813,-526.88 813,-526.88 816,-526.88 819,-529.88 819,-532.88 819,-532.88 819,-538.88 819,-538.88 819,-541.88 816,-544.88 813,-544.88"/>
<text text-anchor="middle" x="774.5" y="-533.68" font-family="Helvetica,sans-Serif" font-size="9.00">mediaQueries.ts</text>
</a>
</g>
</g>
<!-- src/libs/proto&#45;ext.ts -->
<g id="node41" class="node">
<title>src/libs/proto&#45;ext.ts</title>
<g id="a_node41"><a xlink:href="src/libs/proto-ext.ts" xlink:title="proto&#45;ext.ts">
<path fill="#ccffcc" stroke="black" d="M400.5,-974.88C400.5,-974.88 342.5,-974.88 342.5,-974.88 339.5,-974.88 336.5,-971.88 336.5,-968.88 336.5,-968.88 336.5,-962.88 336.5,-962.88 336.5,-959.88 339.5,-956.88 342.5,-956.88 342.5,-956.88 400.5,-956.88 400.5,-956.88 403.5,-956.88 406.5,-959.88 406.5,-962.88 406.5,-962.88 406.5,-968.88 406.5,-968.88 406.5,-971.88 403.5,-974.88 400.5,-974.88"/>
<text text-anchor="middle" x="371.5" y="-963.68" font-family="Helvetica,sans-Serif" font-size="9.00">proto&#45;ext.ts</text>
</a>
</g>
</g>
<!-- src/libs/react&#45;fcx.d.ts -->
<g id="node42" class="node">
<title>src/libs/react&#45;fcx.d.ts</title>
<g id="a_node42"><a xlink:href="src/libs/react-fcx.d.ts" xlink:title="react&#45;fcx.d.ts">
<path fill="#ccffcc" stroke="black" d="M404,-944.88C404,-944.88 339,-944.88 339,-944.88 336,-944.88 333,-941.88 333,-938.88 333,-938.88 333,-932.88 333,-932.88 333,-929.88 336,-926.88 339,-926.88 339,-926.88 404,-926.88 404,-926.88 407,-926.88 410,-929.88 410,-932.88 410,-932.88 410,-938.88 410,-938.88 410,-941.88 407,-944.88 404,-944.88"/>
<text text-anchor="middle" x="371.5" y="-933.68" font-family="Helvetica,sans-Serif" font-size="9.00">react&#45;fcx.d.ts</text>
</a>
</g>
</g>
<!-- src/libs/svg.d.ts -->
<g id="node43" class="node">
<title>src/libs/svg.d.ts</title>
<g id="a_node43"><a xlink:href="src/libs/svg.d.ts" xlink:title="svg.d.ts">
<path fill="#ccffcc" stroke="black" d="M392.5,-914.88C392.5,-914.88 350.5,-914.88 350.5,-914.88 347.5,-914.88 344.5,-911.88 344.5,-908.88 344.5,-908.88 344.5,-902.88 344.5,-902.88 344.5,-899.88 347.5,-896.88 350.5,-896.88 350.5,-896.88 392.5,-896.88 392.5,-896.88 395.5,-896.88 398.5,-899.88 398.5,-902.88 398.5,-902.88 398.5,-908.88 398.5,-908.88 398.5,-911.88 395.5,-914.88 392.5,-914.88"/>
<text text-anchor="middle" x="371.5" y="-903.68" font-family="Helvetica,sans-Serif" font-size="9.00">svg.d.ts</text>
</a>
</g>
</g>
<!-- src/pages/404.tsx -->
<g id="node44" class="node">
<title>src/pages/404.tsx</title>
<g id="a_node44"><a xlink:href="src/pages/404.tsx" xlink:title="404.tsx">
<path fill="#bbfeff" stroke="black" d="M392.5,-679.88C392.5,-679.88 350.5,-679.88 350.5,-679.88 347.5,-679.88 344.5,-676.88 344.5,-673.88 344.5,-673.88 344.5,-667.88 344.5,-667.88 344.5,-664.88 347.5,-661.88 350.5,-661.88 350.5,-661.88 392.5,-661.88 392.5,-661.88 395.5,-661.88 398.5,-664.88 398.5,-667.88 398.5,-667.88 398.5,-673.88 398.5,-673.88 398.5,-676.88 395.5,-679.88 392.5,-679.88"/>
<text text-anchor="middle" x="371.5" y="-668.68" font-family="Helvetica,sans-Serif" font-size="9.00">404.tsx</text>
</a>
</g>
</g>
<!-- src/pages/404.tsx&#45;&gt;src/components/layout/index.tsx -->
<g id="edge35" class="edge">
<title>src/pages/404.tsx&#45;&gt;src/components/layout/index.tsx</title>
<path fill="none" stroke="#000000" stroke-width="2" stroke-opacity="0.200000" d="M398.66,-669.36C445.56,-666.63 543.93,-660.91 596.18,-657.87"/>
<polygon fill="#000000" fill-opacity="0.200000" stroke="#000000" stroke-width="2" stroke-opacity="0.200000" points="596.45,-659.96 602.32,-657.52 596.21,-655.77 596.45,-659.96"/>
</g>
<!-- src/pages/index.tsx -->
<g id="node45" class="node">
<title>src/pages/index.tsx</title>
<g id="a_node45"><a xlink:href="src/pages/index.tsx" xlink:title="index.tsx">
<path fill="#bbfeff" stroke="black" d="M394.5,-619.88C394.5,-619.88 348.5,-619.88 348.5,-619.88 345.5,-619.88 342.5,-616.88 342.5,-613.88 342.5,-613.88 342.5,-607.88 342.5,-607.88 342.5,-604.88 345.5,-601.88 348.5,-601.88 348.5,-601.88 394.5,-601.88 394.5,-601.88 397.5,-601.88 400.5,-604.88 400.5,-607.88 400.5,-607.88 400.5,-613.88 400.5,-613.88 400.5,-616.88 397.5,-619.88 394.5,-619.88"/>
<text text-anchor="middle" x="371.5" y="-608.68" font-family="Helvetica,sans-Serif" font-size="9.00">index.tsx</text>
</a>
</g>
</g>
<!-- src/pages/index.tsx&#45;&gt;src/templates/post&#45;list&#45;page.tsx -->
<g id="edge36" class="edge">
<title>src/pages/index.tsx&#45;&gt;src/templates/post&#45;list&#45;page.tsx</title>
<path fill="none" stroke="#000000" stroke-width="2" stroke-opacity="0.200000" d="M376.69,-601.79C396.02,-559.84 476.66,-384.81 500.71,-332.62"/>
<polygon fill="#000000" fill-opacity="0.200000" stroke="#000000" stroke-width="2" stroke-opacity="0.200000" points="502.62,-333.48 503.23,-327.15 498.81,-331.72 502.62,-333.48"/>
</g>
<!-- src/templates/post&#45;list&#45;page.tsx&#45;&gt;src/components/layout/index.tsx -->
<g id="edge53" class="edge">
<title>src/templates/post&#45;list&#45;page.tsx&#45;&gt;src/components/layout/index.tsx</title>
<path fill="none" stroke="#000000" stroke-width="2" stroke-opacity="0.200000" d="M519.33,-326.94C531.32,-338.61 551.2,-360.14 561,-382.88 584.29,-436.9 565.85,-456.77 580,-513.88 591.83,-561.61 613.5,-615.79 624.2,-641.22"/>
<polygon fill="#000000" fill-opacity="0.200000" stroke="#000000" stroke-width="2" stroke-opacity="0.200000" points="622.27,-642.06 626.55,-646.77 626.14,-640.43 622.27,-642.06"/>
</g>
<!-- src/templates/post&#45;list&#45;page.tsx&#45;&gt;src/components/post&#45;link/post&#45;list.tsx -->
<g id="edge54" class="edge">
<title>src/templates/post&#45;list&#45;page.tsx&#45;&gt;src/components/post&#45;link/post&#45;list.tsx</title>
<path fill="none" stroke="#000000" stroke-width="2" stroke-opacity="0.200000" d="M516.92,-327.07C527,-339.61 545.55,-362.8 561,-382.88 582.28,-410.53 606.56,-443.3 620.05,-461.63"/>
<polygon fill="#000000" fill-opacity="0.200000" stroke="#000000" stroke-width="2" stroke-opacity="0.200000" points="618.63,-463.25 623.87,-466.84 622.01,-460.76 618.63,-463.25"/>
</g>
<!-- src/pages/tags.tsx -->
<g id="node47" class="node">
<title>src/pages/tags.tsx</title>
<g id="a_node47"><a xlink:href="src/pages/tags.tsx" xlink:title="tags.tsx">
<path fill="#bbfeff" stroke="black" d="M392.5,-649.88C392.5,-649.88 350.5,-649.88 350.5,-649.88 347.5,-649.88 344.5,-646.88 344.5,-643.88 344.5,-643.88 344.5,-637.88 344.5,-637.88 344.5,-634.88 347.5,-631.88 350.5,-631.88 350.5,-631.88 392.5,-631.88 392.5,-631.88 395.5,-631.88 398.5,-634.88 398.5,-637.88 398.5,-637.88 398.5,-643.88 398.5,-643.88 398.5,-646.88 395.5,-649.88 392.5,-649.88"/>
<text text-anchor="middle" x="371.5" y="-638.68" font-family="Helvetica,sans-Serif" font-size="9.00">tags.tsx</text>
</a>
</g>
</g>
<!-- src/pages/tags.tsx&#45;&gt;src/components/article/index.tsx -->
<g id="edge37" class="edge">
<title>src/pages/tags.tsx&#45;&gt;src/components/article/index.tsx</title>
<path fill="none" stroke="#000000" stroke-width="2" stroke-opacity="0.200000" d="M398.75,-640.42C413.38,-641.51 431.01,-645.26 443,-655.88 583.09,-779.86 453.07,-916.45 580,-1053.88 584.62,-1058.88 590.58,-1062.8 596.77,-1065.86"/>
<polygon fill="#000000" fill-opacity="0.200000" stroke="#000000" stroke-width="2" stroke-opacity="0.200000" points="596.16,-1067.88 602.49,-1068.43 597.88,-1064.05 596.16,-1067.88"/>
</g>
<!-- src/pages/tags.tsx&#45;&gt;src/components/layout/index.tsx -->
<g id="edge38" class="edge">
<title>src/pages/tags.tsx&#45;&gt;src/components/layout/index.tsx</title>
<path fill="none" stroke="#000000" stroke-width="2" stroke-opacity="0.200000" d="M398.79,-640.31C435.27,-639.78 503.29,-639.72 561,-644.88 572.5,-645.91 584.98,-647.67 596.15,-649.5"/>
<polygon fill="#000000" fill-opacity="0.200000" stroke="#000000" stroke-width="2" stroke-opacity="0.200000" points="595.94,-651.59 602.2,-650.51 596.63,-647.45 595.94,-651.59"/>
</g>
<!-- src/pages/tags.tsx&#45;&gt;src/components/layout/sidebar.tsx -->
<g id="edge39" class="edge">
<title>src/pages/tags.tsx&#45;&gt;src/components/layout/sidebar.tsx</title>
<path fill="none" stroke="#000000" stroke-width="2" stroke-opacity="0.200000" d="M398.66,-645.44C444.55,-653.44 539.7,-670.04 592.73,-679.29"/>
<polygon fill="#000000" fill-opacity="0.200000" stroke="#000000" stroke-width="2" stroke-opacity="0.200000" points="592.39,-681.36 598.67,-680.33 593.12,-677.23 592.39,-681.36"/>
</g>
<!-- src/pages/tags.tsx&#45;&gt;src/components/post&#45;link/post&#45;list.tsx -->
<g id="edge40" class="edge">
<title>src/pages/tags.tsx&#45;&gt;src/components/post&#45;link/post&#45;list.tsx</title>
<path fill="none" stroke="#000000" stroke-width="2" stroke-opacity="0.200000" d="M398.55,-638.27C412.27,-636.19 429.09,-632.47 443,-625.88 518.1,-590.32 589.93,-519.19 618.05,-489.45"/>
<polygon fill="#000000" fill-opacity="0.200000" stroke="#000000" stroke-width="2" stroke-opacity="0.200000" points="619.61,-490.85 622.18,-485.04 616.54,-487.98 619.61,-490.85"/>
</g>
<!-- src/templates/blog&#45;post&#45;template/article&#45;elements.tsx&#45;&gt;src/utils/asserts&#45;non&#45;null.ts -->
<g id="edge44" class="edge">
<title>src/templates/blog&#45;post&#45;template/article&#45;elements.tsx&#45;&gt;src/utils/asserts&#45;non&#45;null.ts</title>
<path fill="none" stroke="#000000" stroke-width="2" stroke-opacity="0.200000" d="M525.1,-196.76C538.99,-189.2 560.11,-179.06 580,-174.88 721.64,-145.11 893.53,-164.65 979.69,-178.14"/>
<polygon fill="#000000" fill-opacity="0.200000" stroke="#000000" stroke-width="2" stroke-opacity="0.200000" points="979.48,-180.23 985.74,-179.1 980.14,-176.09 979.48,-180.23"/>
</g>
<!-- src/templates/blog&#45;post&#45;template/article&#45;elements.tsx&#45;&gt;src/components/atoms/anchor&#45;or&#45;link.tsx -->
<g id="edge43" class="edge">
<title>src/templates/blog&#45;post&#45;template/article&#45;elements.tsx&#45;&gt;src/components/atoms/anchor&#45;or&#45;link.tsx</title>
<path fill="none" stroke="#000000" stroke-width="2" stroke-opacity="0.200000" d="M531.99,-196.87C569.07,-183.53 644.33,-162.96 699,-190.88 801.61,-243.28 756.33,-335.21 851,-400.88 852.65,-402.03 854.39,-403.08 856.19,-404.06"/>
<polygon fill="#000000" fill-opacity="0.200000" stroke="#000000" stroke-width="2" stroke-opacity="0.200000" points="855.43,-406.03 861.74,-406.76 857.26,-402.25 855.43,-406.03"/>
</g>
<!-- src/templates/blog&#45;post&#45;template/autolink&#45;header.tsx -->
<g id="node49" class="node">
<title>src/templates/blog&#45;post&#45;template/autolink&#45;header.tsx</title>
<g id="a_node49"><a xlink:href="src/templates/blog-post-template/autolink-header.tsx" xlink:title="autolink&#45;header.tsx">
<path fill="#bbfeff" stroke="black" d="M677,-214.88C677,-214.88 586,-214.88 586,-214.88 583,-214.88 580,-211.88 580,-208.88 580,-208.88 580,-202.88 580,-202.88 580,-199.88 583,-196.88 586,-196.88 586,-196.88 677,-196.88 677,-196.88 680,-196.88 683,-199.88 683,-202.88 683,-202.88 683,-208.88 683,-208.88 683,-211.88 680,-214.88 677,-214.88"/>
<text text-anchor="middle" x="631.5" y="-203.68" font-family="Helvetica,sans-Serif" font-size="9.00">autolink&#45;header.tsx</text>
</a>
</g>
</g>
<!-- src/templates/blog&#45;post&#45;template/article&#45;elements.tsx&#45;&gt;src/templates/blog&#45;post&#45;template/autolink&#45;header.tsx -->
<g id="edge45" class="edge">
<title>src/templates/blog&#45;post&#45;template/article&#45;elements.tsx&#45;&gt;src/templates/blog&#45;post&#45;template/autolink&#45;header.tsx</title>
<path fill="none" stroke="#000000" stroke-width="2" stroke-opacity="0.200000" d="M561.17,-205.88C565.31,-205.88 569.51,-205.88 573.68,-205.88"/>
<polygon fill="#000000" fill-opacity="0.200000" stroke="#000000" stroke-width="2" stroke-opacity="0.200000" points="573.78,-207.98 579.78,-205.88 573.78,-203.78 573.78,-207.98"/>
</g>
<!-- src/utils/type&#45;utils.ts -->
<g id="node50" class="node">
<title>src/utils/type&#45;utils.ts</title>
<g id="a_node50"><a xlink:href="src/utils/type-utils.ts" xlink:title="type&#45;utils.ts">
<path fill="#ccffcc" stroke="black" d="M1064.5,-166.88C1064.5,-166.88 1006.5,-166.88 1006.5,-166.88 1003.5,-166.88 1000.5,-163.88 1000.5,-160.88 1000.5,-160.88 1000.5,-154.88 1000.5,-154.88 1000.5,-151.88 1003.5,-148.88 1006.5,-148.88 1006.5,-148.88 1064.5,-148.88 1064.5,-148.88 1067.5,-148.88 1070.5,-151.88 1070.5,-154.88 1070.5,-154.88 1070.5,-160.88 1070.5,-160.88 1070.5,-163.88 1067.5,-166.88 1064.5,-166.88"/>
<text text-anchor="middle" x="1035.5" y="-155.68" font-family="Helvetica,sans-Serif" font-size="9.00">type&#45;utils.ts</text>
</a>
</g>
</g>
</g>
</svg>
