<?xml version="1.0" encoding="UTF-8" standalone="no"?>
<!DOCTYPE svg PUBLIC "-//W3C//DTD SVG 1.1//EN"
 "http://www.w3.org/Graphics/SVG/1.1/DTD/svg11.dtd">
<!-- Generated by graphviz version 2.43.0 (0)
 -->
<!-- Title: dependency&#45;cruiser output Pages: 1 -->
<svg width="1078pt" height="1293pt"
 viewBox="0.00 0.00 1078.00 1292.57" xmlns="http://www.w3.org/2000/svg" xmlns:xlink="http://www.w3.org/1999/xlink">
<g id="graph0" class="graph" transform="scale(1 1) rotate(0) translate(4 1288.57)">
<title>dependency&#45;cruiser output</title>
<polygon fill="white" stroke="transparent" points="-4,4 -4,-1288.57 1074,-1288.57 1074,4 -4,4"/>
<g id="clust1" class="cluster">
<title>cluster_src</title>
<path fill="#ffffff" stroke="black" stroke-width="2" d="M20,-12.57C20,-12.57 1050,-12.57 1050,-12.57 1056,-12.57 1062,-18.57 1062,-24.57 1062,-24.57 1062,-1264.57 1062,-1264.57 1062,-1270.57 1056,-1276.57 1050,-1276.57 1050,-1276.57 20,-1276.57 20,-1276.57 14,-1276.57 8,-1270.57 8,-1264.57 8,-1264.57 8,-24.57 8,-24.57 8,-18.57 14,-12.57 20,-12.57"/>
<text text-anchor="middle" x="535" y="-1265.37" font-family="Helvetica,sans-Serif" font-weight="bold" font-size="9.00">src</text>
</g>
<g id="clust2" class="cluster">
<title>cluster_src/components</title>
<path fill="#ffffff" stroke="black" stroke-width="2" d="M276,-622.57C276,-622.57 847,-622.57 847,-622.57 853,-622.57 859,-628.57 859,-634.57 859,-634.57 859,-1238.57 859,-1238.57 859,-1244.57 853,-1250.57 847,-1250.57 847,-1250.57 276,-1250.57 276,-1250.57 270,-1250.57 264,-1244.57 264,-1238.57 264,-1238.57 264,-634.57 264,-634.57 264,-628.57 270,-622.57 276,-622.57"/>
<text text-anchor="middle" x="561.5" y="-1239.37" font-family="Helvetica,sans-Serif" font-weight="bold" font-size="9.00">components</text>
</g>
<g id="clust3" class="cluster">
<title>cluster_src/components/article&#45;elements</title>
<path fill="#ffffff" stroke="black" stroke-width="2" d="M396.5,-962.57C396.5,-962.57 658.5,-962.57 658.5,-962.57 664.5,-962.57 670.5,-968.57 670.5,-974.57 670.5,-974.57 670.5,-1152.57 670.5,-1152.57 670.5,-1158.57 664.5,-1164.57 658.5,-1164.57 658.5,-1164.57 396.5,-1164.57 396.5,-1164.57 390.5,-1164.57 384.5,-1158.57 384.5,-1152.57 384.5,-1152.57 384.5,-974.57 384.5,-974.57 384.5,-968.57 390.5,-962.57 396.5,-962.57"/>
<text text-anchor="middle" x="527.5" y="-1153.37" font-family="Helvetica,sans-Serif" font-weight="bold" font-size="9.00">article&#45;elements</text>
</g>
<g id="clust4" class="cluster">
<title>cluster_src/components/atoms</title>
<path fill="#ffffff" stroke="black" stroke-width="2" d="M744,-932.57C744,-932.57 839,-932.57 839,-932.57 845,-932.57 851,-938.57 851,-944.57 851,-944.57 851,-1002.57 851,-1002.57 851,-1008.57 845,-1014.57 839,-1014.57 839,-1014.57 744,-1014.57 744,-1014.57 738,-1014.57 732,-1008.57 732,-1002.57 732,-1002.57 732,-944.57 732,-944.57 732,-938.57 738,-932.57 744,-932.57"/>
<text text-anchor="middle" x="791.5" y="-1003.37" font-family="Helvetica,sans-Serif" font-weight="bold" font-size="9.00">atoms</text>
</g>
<g id="clust5" class="cluster">
<title>cluster_src/components/content</title>
<path fill="#ffffff" stroke="black" stroke-width="2" d="M411,-810.57C411,-810.57 657.5,-810.57 657.5,-810.57 663.5,-810.57 669.5,-816.57 669.5,-822.57 669.5,-822.57 669.5,-940.57 669.5,-940.57 669.5,-946.57 663.5,-952.57 657.5,-952.57 657.5,-952.57 411,-952.57 411,-952.57 405,-952.57 399,-946.57 399,-940.57 399,-940.57 399,-822.57 399,-822.57 399,-816.57 405,-810.57 411,-810.57"/>
<text text-anchor="middle" x="534.25" y="-941.37" font-family="Helvetica,sans-Serif" font-weight="bold" font-size="9.00">content</text>
</g>
<g id="clust6" class="cluster">
<title>cluster_src/components/embeddeds</title>
<path fill="#ffffff" stroke="black" stroke-width="2" d="M289.5,-1036.57C289.5,-1036.57 352.5,-1036.57 352.5,-1036.57 358.5,-1036.57 364.5,-1042.57 364.5,-1048.57 364.5,-1048.57 364.5,-1076.57 364.5,-1076.57 364.5,-1082.57 358.5,-1088.57 352.5,-1088.57 352.5,-1088.57 289.5,-1088.57 289.5,-1088.57 283.5,-1088.57 277.5,-1082.57 277.5,-1076.57 277.5,-1076.57 277.5,-1048.57 277.5,-1048.57 277.5,-1042.57 283.5,-1036.57 289.5,-1036.57"/>
<text text-anchor="middle" x="321" y="-1077.37" font-family="Helvetica,sans-Serif" font-weight="bold" font-size="9.00">embeddeds</text>
</g>
<g id="clust7" class="cluster">
<title>cluster_src/components/header</title>
<path fill="#ffffff" stroke="black" stroke-width="2" d="M424,-630.57C424,-630.57 474,-630.57 474,-630.57 480,-630.57 486,-636.57 486,-642.57 486,-642.57 486,-700.57 486,-700.57 486,-706.57 480,-712.57 474,-712.57 474,-712.57 424,-712.57 424,-712.57 418,-712.57 412,-706.57 412,-700.57 412,-700.57 412,-642.57 412,-642.57 412,-636.57 418,-630.57 424,-630.57"/>
<text text-anchor="middle" x="449" y="-701.37" font-family="Helvetica,sans-Serif" font-weight="bold" font-size="9.00">header</text>
</g>
<g id="clust8" class="cluster">
<title>cluster_src/components/layout</title>
<path fill="#ffffff" stroke="black" stroke-width="2" d="M284,-810.57C284,-810.57 358,-810.57 358,-810.57 364,-810.57 370,-816.57 370,-822.57 370,-822.57 370,-880.57 370,-880.57 370,-886.57 364,-892.57 358,-892.57 358,-892.57 284,-892.57 284,-892.57 278,-892.57 272,-886.57 272,-880.57 272,-880.57 272,-822.57 272,-822.57 272,-816.57 278,-810.57 284,-810.57"/>
<text text-anchor="middle" x="321" y="-881.37" font-family="Helvetica,sans-Serif" font-weight="bold" font-size="9.00">layout</text>
</g>
<g id="clust9" class="cluster">
<title>cluster_src/components/post&#45;link</title>
<path fill="#ffffff" stroke="black" stroke-width="2" d="M291,-720.57C291,-720.57 648.5,-720.57 648.5,-720.57 654.5,-720.57 660.5,-726.57 660.5,-732.57 660.5,-732.57 660.5,-790.57 660.5,-790.57 660.5,-796.57 654.5,-802.57 648.5,-802.57 648.5,-802.57 291,-802.57 291,-802.57 285,-802.57 279,-796.57 279,-790.57 279,-790.57 279,-732.57 279,-732.57 279,-726.57 285,-720.57 291,-720.57"/>
<text text-anchor="middle" x="469.75" y="-791.37" font-family="Helvetica,sans-Serif" font-weight="bold" font-size="9.00">post&#45;link</text>
</g>
<g id="clust10" class="cluster">
<title>cluster_src/components/table&#45;of&#45;contents</title>
<path fill="#ffffff" stroke="black" stroke-width="2" d="M409,-1172.57C409,-1172.57 490,-1172.57 490,-1172.57 496,-1172.57 502,-1178.57 502,-1184.57 502,-1184.57 502,-1212.57 502,-1212.57 502,-1218.57 496,-1224.57 490,-1224.57 490,-1224.57 409,-1224.57 409,-1224.57 403,-1224.57 397,-1218.57 397,-1212.57 397,-1212.57 397,-1184.57 397,-1184.57 397,-1178.57 403,-1172.57 409,-1172.57"/>
<text text-anchor="middle" x="449.5" y="-1213.37" font-family="Helvetica,sans-Serif" font-weight="bold" font-size="9.00">table&#45;of&#45;contents</text>
</g>
<g id="clust11" class="cluster">
<title>cluster_src/components/theme&#45;switcher</title>
<path fill="#ffffff" stroke="black" stroke-width="2" d="M578.5,-645.57C578.5,-645.57 651.5,-645.57 651.5,-645.57 657.5,-645.57 663.5,-651.57 663.5,-657.57 663.5,-657.57 663.5,-685.57 663.5,-685.57 663.5,-691.57 657.5,-697.57 651.5,-697.57 651.5,-697.57 578.5,-697.57 578.5,-697.57 572.5,-697.57 566.5,-691.57 566.5,-685.57 566.5,-685.57 566.5,-657.57 566.5,-657.57 566.5,-651.57 572.5,-645.57 578.5,-645.57"/>
<text text-anchor="middle" x="615" y="-686.37" font-family="Helvetica,sans-Serif" font-weight="bold" font-size="9.00">theme&#45;switcher</text>
</g>
<g id="clust12" class="cluster">
<title>cluster_src/gatsby</title>
<path fill="#ffffff" stroke="black" stroke-width="2" d="M387,-98.57C387,-98.57 699,-98.57 699,-98.57 705,-98.57 711,-104.57 711,-110.57 711,-110.57 711,-288.57 711,-288.57 711,-294.57 705,-300.57 699,-300.57 699,-300.57 387,-300.57 387,-300.57 381,-300.57 375,-294.57 375,-288.57 375,-288.57 375,-110.57 375,-110.57 375,-104.57 381,-98.57 387,-98.57"/>
<text text-anchor="middle" x="543" y="-289.37" font-family="Helvetica,sans-Serif" font-weight="bold" font-size="9.00">gatsby</text>
</g>
<g id="clust13" class="cluster">
<title>cluster_src/gatsby/browser</title>
<path fill="#ffffff" stroke="black" stroke-width="2" d="M395,-222.57C395,-222.57 503,-222.57 503,-222.57 509,-222.57 515,-228.57 515,-234.57 515,-234.57 515,-262.57 515,-262.57 515,-268.57 509,-274.57 503,-274.57 503,-274.57 395,-274.57 395,-274.57 389,-274.57 383,-268.57 383,-262.57 383,-262.57 383,-234.57 383,-234.57 383,-228.57 389,-222.57 395,-222.57"/>
<text text-anchor="middle" x="449" y="-263.37" font-family="Helvetica,sans-Serif" font-weight="bold" font-size="9.00">browser</text>
</g>
<g id="clust14" class="cluster">
<title>cluster_src/gatsby/node</title>
<path fill="#ffffff" stroke="black" stroke-width="2" d="M538,-106.57C538,-106.57 691,-106.57 691,-106.57 697,-106.57 703,-112.57 703,-118.57 703,-118.57 703,-176.57 703,-176.57 703,-182.57 697,-188.57 691,-188.57 691,-188.57 538,-188.57 538,-188.57 532,-188.57 526,-182.57 526,-176.57 526,-176.57 526,-118.57 526,-118.57 526,-112.57 532,-106.57 538,-106.57"/>
<text text-anchor="middle" x="614.5" y="-177.37" font-family="Helvetica,sans-Serif" font-weight="bold" font-size="9.00">node</text>
</g>
<g id="clust15" class="cluster">
<title>cluster_src/hooks</title>
<path fill="#ffffff" stroke="black" stroke-width="2" d="M731,-72.57C731,-72.57 852,-72.57 852,-72.57 858,-72.57 864,-78.57 864,-84.57 864,-84.57 864,-142.57 864,-142.57 864,-148.57 858,-154.57 852,-154.57 852,-154.57 731,-154.57 731,-154.57 725,-154.57 719,-148.57 719,-142.57 719,-142.57 719,-84.57 719,-84.57 719,-78.57 725,-72.57 731,-72.57"/>
<text text-anchor="middle" x="791.5" y="-143.37" font-family="Helvetica,sans-Serif" font-weight="bold" font-size="9.00">hooks</text>
</g>
<g id="clust16" class="cluster">
<title>cluster_src/libs</title>
<path fill="#ffffff" stroke="black" stroke-width="2" d="M755.5,-172.57C755.5,-172.57 1042,-172.57 1042,-172.57 1048,-172.57 1054,-178.57 1054,-184.57 1054,-184.57 1054,-482.57 1054,-482.57 1054,-488.57 1048,-494.57 1042,-494.57 1042,-494.57 755.5,-494.57 755.5,-494.57 749.5,-494.57 743.5,-488.57 743.5,-482.57 743.5,-482.57 743.5,-184.57 743.5,-184.57 743.5,-178.57 749.5,-172.57 755.5,-172.57"/>
<text text-anchor="middle" x="898.75" y="-483.37" font-family="Helvetica,sans-Serif" font-weight="bold" font-size="9.00">libs</text>
</g>
<g id="clust17" class="cluster">
<title>cluster_src/libs/styleFn</title>
<path fill="#ffffff" stroke="black" stroke-width="2" d="M767,-326.57C767,-326.57 956.5,-326.57 956.5,-326.57 962.5,-326.57 968.5,-332.57 968.5,-338.57 968.5,-338.57 968.5,-456.57 968.5,-456.57 968.5,-462.57 962.5,-468.57 956.5,-468.57 956.5,-468.57 767,-468.57 767,-468.57 761,-468.57 755,-462.57 755,-456.57 755,-456.57 755,-338.57 755,-338.57 755,-332.57 761,-326.57 767,-326.57"/>
<text text-anchor="middle" x="861.75" y="-457.37" font-family="Helvetica,sans-Serif" font-weight="bold" font-size="9.00">styleFn</text>
</g>
<g id="clust18" class="cluster">
<title>cluster_src/pages</title>
<path fill="#ffffff" stroke="black" stroke-width="2" d="M57.5,-690.57C57.5,-690.57 107.5,-690.57 107.5,-690.57 113.5,-690.57 119.5,-696.57 119.5,-702.57 119.5,-702.57 119.5,-790.57 119.5,-790.57 119.5,-796.57 113.5,-802.57 107.5,-802.57 107.5,-802.57 57.5,-802.57 57.5,-802.57 51.5,-802.57 45.5,-796.57 45.5,-790.57 45.5,-790.57 45.5,-702.57 45.5,-702.57 45.5,-696.57 51.5,-690.57 57.5,-690.57"/>
<text text-anchor="middle" x="82.5" y="-791.37" font-family="Helvetica,sans-Serif" font-weight="bold" font-size="9.00">pages</text>
</g>
<g id="clust19" class="cluster">
<title>cluster_src/styles</title>
<path fill="#ffffff" stroke="black" stroke-width="2" d="M552,-502.57C552,-502.57 821.5,-502.57 821.5,-502.57 827.5,-502.57 833.5,-508.57 833.5,-514.57 833.5,-514.57 833.5,-602.57 833.5,-602.57 833.5,-608.57 827.5,-614.57 821.5,-614.57 821.5,-614.57 552,-614.57 552,-614.57 546,-614.57 540,-608.57 540,-602.57 540,-602.57 540,-514.57 540,-514.57 540,-508.57 546,-502.57 552,-502.57"/>
<text text-anchor="middle" x="686.75" y="-603.37" font-family="Helvetica,sans-Serif" font-weight="bold" font-size="9.00">styles</text>
</g>
<g id="clust20" class="cluster">
<title>cluster_src/templates</title>
<path fill="#ffffff" stroke="black" stroke-width="2" d="M28,-285.57C28,-285.57 244,-285.57 244,-285.57 250,-285.57 256,-291.57 256,-297.57 256,-297.57 256,-415.57 256,-415.57 256,-421.57 250,-427.57 244,-427.57 244,-427.57 28,-427.57 28,-427.57 22,-427.57 16,-421.57 16,-415.57 16,-415.57 16,-297.57 16,-297.57 16,-291.57 22,-285.57 28,-285.57"/>
<text text-anchor="middle" x="136" y="-416.37" font-family="Helvetica,sans-Serif" font-weight="bold" font-size="9.00">templates</text>
</g>
<g id="clust21" class="cluster">
<title>cluster_src/utils</title>
<path fill="#ffffff" stroke="black" stroke-width="2" d="M884,-20.57C884,-20.57 1042,-20.57 1042,-20.57 1048,-20.57 1054,-26.57 1054,-32.57 1054,-32.57 1054,-90.57 1054,-90.57 1054,-96.57 1048,-102.57 1042,-102.57 1042,-102.57 884,-102.57 884,-102.57 878,-102.57 872,-96.57 872,-90.57 872,-90.57 872,-32.57 872,-32.57 872,-26.57 878,-20.57 884,-20.57"/>
<text text-anchor="middle" x="963" y="-91.37" font-family="Helvetica,sans-Serif" font-weight="bold" font-size="9.00">utils</text>
</g>
<!-- src/components/article&#45;elements/anchor.tsx -->
<g id="node1" class="node">
<title>src/components/article&#45;elements/anchor.tsx</title>
<g id="a_node1"><a xlink:href="src/components/article-elements/anchor.tsx" xlink:title="anchor.tsx">
<path fill="#bbfeff" stroke="black" d="M640.5,-988.57C640.5,-988.57 588.5,-988.57 588.5,-988.57 585.5,-988.57 582.5,-985.57 582.5,-982.57 582.5,-982.57 582.5,-976.57 582.5,-976.57 582.5,-973.57 585.5,-970.57 588.5,-970.57 588.5,-970.57 640.5,-970.57 640.5,-970.57 643.5,-970.57 646.5,-973.57 646.5,-976.57 646.5,-976.57 646.5,-982.57 646.5,-982.57 646.5,-985.57 643.5,-988.57 640.5,-988.57"/>
<text text-anchor="middle" x="614.5" y="-977.37" font-family="Helvetica,sans-Serif" font-size="9.00">anchor.tsx</text>
</a>
</g>
</g>
<!-- src/components/atoms/autolink&#45;header.tsx -->
<g id="node2" class="node">
<title>src/components/atoms/autolink&#45;header.tsx</title>
<g id="a_node2"><a xlink:href="src/components/atoms/autolink-header.tsx" xlink:title="autolink&#45;header.tsx">
<path fill="#bbfeff" stroke="black" d="M837,-988.57C837,-988.57 746,-988.57 746,-988.57 743,-988.57 740,-985.57 740,-982.57 740,-982.57 740,-976.57 740,-976.57 740,-973.57 743,-970.57 746,-970.57 746,-970.57 837,-970.57 837,-970.57 840,-970.57 843,-973.57 843,-976.57 843,-976.57 843,-982.57 843,-982.57 843,-985.57 840,-988.57 837,-988.57"/>
<text text-anchor="middle" x="791.5" y="-977.37" font-family="Helvetica,sans-Serif" font-size="9.00">autolink&#45;header.tsx</text>
</a>
</g>
</g>
<!-- src/components/article&#45;elements/anchor.tsx&#45;&gt;src/components/atoms/autolink&#45;header.tsx -->
<g id="edge1" class="edge">
<title>src/components/article&#45;elements/anchor.tsx&#45;&gt;src/components/atoms/autolink&#45;header.tsx</title>
<path fill="none" stroke="#000000" stroke-width="2" stroke-opacity="0.200000" d="M646.79,-979.57C670.93,-979.57 704.96,-979.57 733.85,-979.57"/>
<polygon fill="#000000" fill-opacity="0.200000" stroke="#000000" stroke-width="2" stroke-opacity="0.200000" points="733.94,-981.67 739.94,-979.57 733.94,-977.47 733.94,-981.67"/>
</g>
<!-- src/components/article&#45;elements/headings.tsx -->
<g id="node3" class="node">
<title>src/components/article&#45;elements/headings.tsx</title>
<g id="a_node3"><a xlink:href="src/components/article-elements/headings.tsx" xlink:title="headings.tsx">
<path fill="#bbfeff" stroke="black" d="M645.5,-1048.57C645.5,-1048.57 583.5,-1048.57 583.5,-1048.57 580.5,-1048.57 577.5,-1045.57 577.5,-1042.57 577.5,-1042.57 577.5,-1036.57 577.5,-1036.57 577.5,-1033.57 580.5,-1030.57 583.5,-1030.57 583.5,-1030.57 645.5,-1030.57 645.5,-1030.57 648.5,-1030.57 651.5,-1033.57 651.5,-1036.57 651.5,-1036.57 651.5,-1042.57 651.5,-1042.57 651.5,-1045.57 648.5,-1048.57 645.5,-1048.57"/>
<text text-anchor="middle" x="614.5" y="-1037.37" font-family="Helvetica,sans-Serif" font-size="9.00">headings.tsx</text>
</a>
</g>
</g>
<!-- src/components/article&#45;elements/horizontal&#45;line.tsx -->
<g id="node4" class="node">
<title>src/components/article&#45;elements/horizontal&#45;line.tsx</title>
<g id="a_node4"><a xlink:href="src/components/article-elements/horizontal-line.tsx" xlink:title="horizontal&#45;line.tsx">
<path fill="#bbfeff" stroke="black" d="M656.5,-1018.57C656.5,-1018.57 572.5,-1018.57 572.5,-1018.57 569.5,-1018.57 566.5,-1015.57 566.5,-1012.57 566.5,-1012.57 566.5,-1006.57 566.5,-1006.57 566.5,-1003.57 569.5,-1000.57 572.5,-1000.57 572.5,-1000.57 656.5,-1000.57 656.5,-1000.57 659.5,-1000.57 662.5,-1003.57 662.5,-1006.57 662.5,-1006.57 662.5,-1012.57 662.5,-1012.57 662.5,-1015.57 659.5,-1018.57 656.5,-1018.57"/>
<text text-anchor="middle" x="614.5" y="-1007.37" font-family="Helvetica,sans-Serif" font-size="9.00">horizontal&#45;line.tsx</text>
</a>
</g>
</g>
<!-- src/components/article&#45;elements/list.tsx -->
<g id="node5" class="node">
<title>src/components/article&#45;elements/list.tsx</title>
<g id="a_node5"><a xlink:href="src/components/article-elements/list.tsx" xlink:title="list.tsx">
<path fill="#bbfeff" stroke="black" d="M635.5,-1078.57C635.5,-1078.57 593.5,-1078.57 593.5,-1078.57 590.5,-1078.57 587.5,-1075.57 587.5,-1072.57 587.5,-1072.57 587.5,-1066.57 587.5,-1066.57 587.5,-1063.57 590.5,-1060.57 593.5,-1060.57 593.5,-1060.57 635.5,-1060.57 635.5,-1060.57 638.5,-1060.57 641.5,-1063.57 641.5,-1066.57 641.5,-1066.57 641.5,-1072.57 641.5,-1072.57 641.5,-1075.57 638.5,-1078.57 635.5,-1078.57"/>
<text text-anchor="middle" x="614.5" y="-1067.37" font-family="Helvetica,sans-Serif" font-size="9.00">list.tsx</text>
</a>
</g>
</g>
<!-- src/components/article&#45;elements/mdx&#45;components.tsx -->
<g id="node6" class="node">
<title>src/components/article&#45;elements/mdx&#45;components.tsx</title>
<g id="a_node6"><a xlink:href="src/components/article-elements/mdx-components.tsx" xlink:title="mdx&#45;components.tsx">
<path fill="#bbfeff" stroke="black" d="M499.5,-1048.57C499.5,-1048.57 398.5,-1048.57 398.5,-1048.57 395.5,-1048.57 392.5,-1045.57 392.5,-1042.57 392.5,-1042.57 392.5,-1036.57 392.5,-1036.57 392.5,-1033.57 395.5,-1030.57 398.5,-1030.57 398.5,-1030.57 499.5,-1030.57 499.5,-1030.57 502.5,-1030.57 505.5,-1033.57 505.5,-1036.57 505.5,-1036.57 505.5,-1042.57 505.5,-1042.57 505.5,-1045.57 502.5,-1048.57 499.5,-1048.57"/>
<text text-anchor="middle" x="449" y="-1037.37" font-family="Helvetica,sans-Serif" font-size="9.00">mdx&#45;components.tsx</text>
</a>
</g>
</g>
<!-- src/components/article&#45;elements/mdx&#45;components.tsx&#45;&gt;src/components/article&#45;elements/anchor.tsx -->
<g id="edge2" class="edge">
<title>src/components/article&#45;elements/mdx&#45;components.tsx&#45;&gt;src/components/article&#45;elements/anchor.tsx</title>
<path fill="none" stroke="#000000" stroke-width="2" stroke-opacity="0.200000" d="M462.2,-1030.42C476.65,-1020.06 501.82,-1003.46 526,-994.57 541.96,-988.7 560.42,-985.11 576.26,-982.91"/>
<polygon fill="#000000" fill-opacity="0.200000" stroke="#000000" stroke-width="2" stroke-opacity="0.200000" points="576.74,-984.97 582.42,-982.11 576.2,-980.81 576.74,-984.97"/>
</g>
<!-- src/components/article&#45;elements/mdx&#45;components.tsx&#45;&gt;src/components/article&#45;elements/headings.tsx -->
<g id="edge3" class="edge">
<title>src/components/article&#45;elements/mdx&#45;components.tsx&#45;&gt;src/components/article&#45;elements/headings.tsx</title>
<path fill="none" stroke="#000000" stroke-width="2" stroke-opacity="0.200000" d="M505.81,-1039.57C527.27,-1039.57 551.4,-1039.57 571.36,-1039.57"/>
<polygon fill="#000000" fill-opacity="0.200000" stroke="#000000" stroke-width="2" stroke-opacity="0.200000" points="571.42,-1041.67 577.42,-1039.57 571.42,-1037.47 571.42,-1041.67"/>
</g>
<!-- src/components/article&#45;elements/mdx&#45;components.tsx&#45;&gt;src/components/article&#45;elements/horizontal&#45;line.tsx -->
<g id="edge4" class="edge">
<title>src/components/article&#45;elements/mdx&#45;components.tsx&#45;&gt;src/components/article&#45;elements/horizontal&#45;line.tsx</title>
<path fill="none" stroke="#000000" stroke-width="2" stroke-opacity="0.200000" d="M494.97,-1030.5C505.17,-1028.5 515.95,-1026.42 526,-1024.57 537,-1022.54 548.79,-1020.46 560.05,-1018.52"/>
<polygon fill="#000000" fill-opacity="0.200000" stroke="#000000" stroke-width="2" stroke-opacity="0.200000" points="560.68,-1020.54 566.23,-1017.45 559.96,-1016.4 560.68,-1020.54"/>
</g>
<!-- src/components/article&#45;elements/mdx&#45;components.tsx&#45;&gt;src/components/article&#45;elements/list.tsx -->
<g id="edge5" class="edge">
<title>src/components/article&#45;elements/mdx&#45;components.tsx&#45;&gt;src/components/article&#45;elements/list.tsx</title>
<path fill="none" stroke="#000000" stroke-width="2" stroke-opacity="0.200000" d="M494.97,-1048.64C505.17,-1050.64 515.95,-1052.72 526,-1054.57 544.36,-1057.96 564.93,-1061.5 581.52,-1064.29"/>
<polygon fill="#000000" fill-opacity="0.200000" stroke="#000000" stroke-width="2" stroke-opacity="0.200000" points="581.17,-1066.36 587.43,-1065.28 581.86,-1062.21 581.17,-1066.36"/>
</g>
<!-- src/components/article&#45;elements/paragraph.tsx -->
<g id="node7" class="node">
<title>src/components/article&#45;elements/paragraph.tsx</title>
<g id="a_node7"><a xlink:href="src/components/article-elements/paragraph.tsx" xlink:title="paragraph.tsx">
<path fill="#bbfeff" stroke="black" d="M648.5,-1108.57C648.5,-1108.57 580.5,-1108.57 580.5,-1108.57 577.5,-1108.57 574.5,-1105.57 574.5,-1102.57 574.5,-1102.57 574.5,-1096.57 574.5,-1096.57 574.5,-1093.57 577.5,-1090.57 580.5,-1090.57 580.5,-1090.57 648.5,-1090.57 648.5,-1090.57 651.5,-1090.57 654.5,-1093.57 654.5,-1096.57 654.5,-1096.57 654.5,-1102.57 654.5,-1102.57 654.5,-1105.57 651.5,-1108.57 648.5,-1108.57"/>
<text text-anchor="middle" x="614.5" y="-1097.37" font-family="Helvetica,sans-Serif" font-size="9.00">paragraph.tsx</text>
</a>
</g>
</g>
<!-- src/components/article&#45;elements/mdx&#45;components.tsx&#45;&gt;src/components/article&#45;elements/paragraph.tsx -->
<g id="edge6" class="edge">
<title>src/components/article&#45;elements/mdx&#45;components.tsx&#45;&gt;src/components/article&#45;elements/paragraph.tsx</title>
<path fill="none" stroke="#000000" stroke-width="2" stroke-opacity="0.200000" d="M462.2,-1048.72C476.65,-1059.08 501.82,-1075.68 526,-1084.57 539.3,-1089.46 554.33,-1092.77 568.13,-1095.01"/>
<polygon fill="#000000" fill-opacity="0.200000" stroke="#000000" stroke-width="2" stroke-opacity="0.200000" points="568.13,-1097.13 574.38,-1095.96 568.76,-1092.98 568.13,-1097.13"/>
</g>
<!-- src/components/article&#45;elements/strong.tsx -->
<g id="node8" class="node">
<title>src/components/article&#45;elements/strong.tsx</title>
<g id="a_node8"><a xlink:href="src/components/article-elements/strong.tsx" xlink:title="strong.tsx">
<path fill="#bbfeff" stroke="black" d="M639.5,-1138.57C639.5,-1138.57 589.5,-1138.57 589.5,-1138.57 586.5,-1138.57 583.5,-1135.57 583.5,-1132.57 583.5,-1132.57 583.5,-1126.57 583.5,-1126.57 583.5,-1123.57 586.5,-1120.57 589.5,-1120.57 589.5,-1120.57 639.5,-1120.57 639.5,-1120.57 642.5,-1120.57 645.5,-1123.57 645.5,-1126.57 645.5,-1126.57 645.5,-1132.57 645.5,-1132.57 645.5,-1135.57 642.5,-1138.57 639.5,-1138.57"/>
<text text-anchor="middle" x="614.5" y="-1127.37" font-family="Helvetica,sans-Serif" font-size="9.00">strong.tsx</text>
</a>
</g>
</g>
<!-- src/components/article&#45;elements/mdx&#45;components.tsx&#45;&gt;src/components/article&#45;elements/strong.tsx -->
<g id="edge7" class="edge">
<title>src/components/article&#45;elements/mdx&#45;components.tsx&#45;&gt;src/components/article&#45;elements/strong.tsx</title>
<path fill="none" stroke="#000000" stroke-width="2" stroke-opacity="0.200000" d="M456.3,-1048.75C467.98,-1064.96 494.67,-1098.49 526,-1114.57 541.61,-1122.59 560.65,-1126.44 576.98,-1128.25"/>
<polygon fill="#000000" fill-opacity="0.200000" stroke="#000000" stroke-width="2" stroke-opacity="0.200000" points="577.15,-1130.37 583.32,-1128.86 577.55,-1126.19 577.15,-1130.37"/>
</g>
<!-- src/components/atoms/anchor&#45;or&#45;link.tsx -->
<g id="node9" class="node">
<title>src/components/atoms/anchor&#45;or&#45;link.tsx</title>
<g id="a_node9"><a xlink:href="src/components/atoms/anchor-or-link.tsx" xlink:title="anchor&#45;or&#45;link.tsx">
<path fill="#ccffcc" stroke="black" d="M833,-958.57C833,-958.57 750,-958.57 750,-958.57 747,-958.57 744,-955.57 744,-952.57 744,-952.57 744,-946.57 744,-946.57 744,-943.57 747,-940.57 750,-940.57 750,-940.57 833,-940.57 833,-940.57 836,-940.57 839,-943.57 839,-946.57 839,-946.57 839,-952.57 839,-952.57 839,-955.57 836,-958.57 833,-958.57"/>
<text text-anchor="middle" x="791.5" y="-947.37" font-family="Helvetica,sans-Serif" font-size="9.00">anchor&#45;or&#45;link.tsx</text>
</a>
</g>
</g>
<!-- src/components/content/article&#45;styles.ts -->
<g id="node10" class="node">
<title>src/components/content/article&#45;styles.ts</title>
<g id="a_node10"><a xlink:href="src/components/content/article-styles.ts" xlink:title="article&#45;styles.ts">
<path fill="#ddfeff" stroke="black" d="M485,-896.57C485,-896.57 413,-896.57 413,-896.57 410,-896.57 407,-893.57 407,-890.57 407,-890.57 407,-884.57 407,-884.57 407,-881.57 410,-878.57 413,-878.57 413,-878.57 485,-878.57 485,-878.57 488,-878.57 491,-881.57 491,-884.57 491,-884.57 491,-890.57 491,-890.57 491,-893.57 488,-896.57 485,-896.57"/>
<text text-anchor="middle" x="449" y="-885.37" font-family="Helvetica,sans-Serif" font-size="9.00">article&#45;styles.ts</text>
</a>
</g>
</g>
<!-- src/components/content/article&#45;styles.ts&#45;&gt;src/components/article&#45;elements/headings.tsx -->
<g id="edge9" class="edge">
<title>src/components/content/article&#45;styles.ts&#45;&gt;src/components/article&#45;elements/headings.tsx</title>
<path fill="none" stroke="#000000" stroke-width="2" stroke-opacity="0.200000" d="M491.29,-889.19C500.28,-891.5 508.91,-895.59 515,-902.57 532.89,-923.09 507.54,-1004.57 526,-1024.57 537.26,-1036.77 554.53,-1041.36 570.77,-1042.58"/>
<polygon fill="#000000" fill-opacity="0.200000" stroke="#000000" stroke-width="2" stroke-opacity="0.200000" points="571.06,-1044.7 577.16,-1042.9 571.27,-1040.5 571.06,-1044.7"/>
</g>
<!-- src/libs/styleFn/text.ts -->
<g id="node11" class="node">
<title>src/libs/styleFn/text.ts</title>
<g id="a_node11"><a xlink:href="src/libs/styleFn/text.ts" xlink:title="text.ts">
<path fill="#ddfeff" stroke="black" d="M812.5,-382.57C812.5,-382.57 770.5,-382.57 770.5,-382.57 767.5,-382.57 764.5,-379.57 764.5,-376.57 764.5,-376.57 764.5,-370.57 764.5,-370.57 764.5,-367.57 767.5,-364.57 770.5,-364.57 770.5,-364.57 812.5,-364.57 812.5,-364.57 815.5,-364.57 818.5,-367.57 818.5,-370.57 818.5,-370.57 818.5,-376.57 818.5,-376.57 818.5,-379.57 815.5,-382.57 812.5,-382.57"/>
<text text-anchor="middle" x="791.5" y="-371.37" font-family="Helvetica,sans-Serif" font-size="9.00">text.ts</text>
</a>
</g>
</g>
<!-- src/components/content/article&#45;styles.ts&#45;&gt;src/libs/styleFn/text.ts -->
<g id="edge8" class="edge">
<title>src/components/content/article&#45;styles.ts&#45;&gt;src/libs/styleFn/text.ts</title>
<path fill="none" stroke="#000000" stroke-width="2" stroke-opacity="0.200000" d="M491.26,-886.3C500.36,-883.99 509.05,-879.83 515,-872.57 541.29,-840.51 502.8,-533.94 526,-499.57 576.22,-425.18 652.54,-486.68 711,-418.57 719.99,-408.1 708.98,-398.06 719,-388.57 729.38,-378.74 744.48,-374.65 758.14,-373.17"/>
<polygon fill="#000000" fill-opacity="0.200000" stroke="#000000" stroke-width="2" stroke-opacity="0.200000" points="758.48,-375.24 764.29,-372.65 758.13,-371.06 758.48,-375.24"/>
</g>
<!-- src/libs/styleFn/general.ts -->
<g id="node47" class="node">
<title>src/libs/styleFn/general.ts</title>
<g id="a_node47"><a xlink:href="src/libs/styleFn/general.ts" xlink:title="general.ts">
<path fill="#ddfeff" stroke="black" d="M954.5,-382.57C954.5,-382.57 904.5,-382.57 904.5,-382.57 901.5,-382.57 898.5,-379.57 898.5,-376.57 898.5,-376.57 898.5,-370.57 898.5,-370.57 898.5,-367.57 901.5,-364.57 904.5,-364.57 904.5,-364.57 954.5,-364.57 954.5,-364.57 957.5,-364.57 960.5,-367.57 960.5,-370.57 960.5,-370.57 960.5,-376.57 960.5,-376.57 960.5,-379.57 957.5,-382.57 954.5,-382.57"/>
<text text-anchor="middle" x="929.5" y="-371.37" font-family="Helvetica,sans-Serif" font-size="9.00">general.ts</text>
</a>
</g>
</g>
<!-- src/libs/styleFn/text.ts&#45;&gt;src/libs/styleFn/general.ts -->
<g id="edge35" class="edge">
<title>src/libs/styleFn/text.ts&#45;&gt;src/libs/styleFn/general.ts</title>
<path fill="none" stroke="#000000" stroke-width="2" stroke-opacity="0.200000" d="M818.72,-373.57C839.55,-373.57 868.93,-373.57 892.05,-373.57"/>
<polygon fill="#000000" fill-opacity="0.200000" stroke="#000000" stroke-width="2" stroke-opacity="0.200000" points="892.08,-375.67 898.08,-373.57 892.08,-371.47 892.08,-375.67"/>
</g>
<!-- src/components/content/breadcrumbs.tsx -->
<g id="node12" class="node">
<title>src/components/content/breadcrumbs.tsx</title>
<g id="a_node12"><a xlink:href="src/components/content/breadcrumbs.tsx" xlink:title="breadcrumbs.tsx">
<path fill="#bbfeff" stroke="black" d="M655.5,-896.57C655.5,-896.57 573.5,-896.57 573.5,-896.57 570.5,-896.57 567.5,-893.57 567.5,-890.57 567.5,-890.57 567.5,-884.57 567.5,-884.57 567.5,-881.57 570.5,-878.57 573.5,-878.57 573.5,-878.57 655.5,-878.57 655.5,-878.57 658.5,-878.57 661.5,-881.57 661.5,-884.57 661.5,-884.57 661.5,-890.57 661.5,-890.57 661.5,-893.57 658.5,-896.57 655.5,-896.57"/>
<text text-anchor="middle" x="614.5" y="-885.37" font-family="Helvetica,sans-Serif" font-size="9.00">breadcrumbs.tsx</text>
</a>
</g>
</g>
<!-- src/components/content/footer.tsx -->
<g id="node13" class="node">
<title>src/components/content/footer.tsx</title>
<g id="a_node13"><a xlink:href="src/components/content/footer.tsx" xlink:title="footer.tsx">
<path fill="#bbfeff" stroke="black" d="M472.5,-866.57C472.5,-866.57 425.5,-866.57 425.5,-866.57 422.5,-866.57 419.5,-863.57 419.5,-860.57 419.5,-860.57 419.5,-854.57 419.5,-854.57 419.5,-851.57 422.5,-848.57 425.5,-848.57 425.5,-848.57 472.5,-848.57 472.5,-848.57 475.5,-848.57 478.5,-851.57 478.5,-854.57 478.5,-854.57 478.5,-860.57 478.5,-860.57 478.5,-863.57 475.5,-866.57 472.5,-866.57"/>
<text text-anchor="middle" x="449" y="-855.37" font-family="Helvetica,sans-Serif" font-size="9.00">footer.tsx</text>
</a>
</g>
</g>
<!-- src/hooks/use&#45;site.ts -->
<g id="node14" class="node">
<title>src/hooks/use&#45;site.ts</title>
<g id="a_node14"><a xlink:href="src/hooks/use-site.ts" xlink:title="use&#45;site.ts">
<path fill="#ddfeff" stroke="black" d="M816.5,-98.57C816.5,-98.57 766.5,-98.57 766.5,-98.57 763.5,-98.57 760.5,-95.57 760.5,-92.57 760.5,-92.57 760.5,-86.57 760.5,-86.57 760.5,-83.57 763.5,-80.57 766.5,-80.57 766.5,-80.57 816.5,-80.57 816.5,-80.57 819.5,-80.57 822.5,-83.57 822.5,-86.57 822.5,-86.57 822.5,-92.57 822.5,-92.57 822.5,-95.57 819.5,-98.57 816.5,-98.57"/>
<text text-anchor="middle" x="791.5" y="-87.37" font-family="Helvetica,sans-Serif" font-size="9.00">use&#45;site.ts</text>
</a>
</g>
</g>
<!-- src/components/content/footer.tsx&#45;&gt;src/hooks/use&#45;site.ts -->
<g id="edge10" class="edge">
<title>src/components/content/footer.tsx&#45;&gt;src/hooks/use&#45;site.ts</title>
<path fill="none" stroke="#000000" stroke-width="2" stroke-opacity="0.200000" d="M478.76,-858.42C491.87,-857.17 506.35,-853.15 515,-842.57 529.87,-824.37 514.31,-439.97 526,-419.57 574.13,-335.57 662.28,-388.23 711,-304.57 722.19,-285.35 704.64,-121.55 719,-104.57 727.59,-94.42 741.13,-90.06 754.14,-88.46"/>
<polygon fill="#000000" fill-opacity="0.200000" stroke="#000000" stroke-width="2" stroke-opacity="0.200000" points="754.67,-90.52 760.45,-87.89 754.28,-86.34 754.67,-90.52"/>
</g>
<!-- src/utils/asserts&#45;non&#45;null.ts -->
<g id="node23" class="node">
<title>src/utils/asserts&#45;non&#45;null.ts</title>
<g id="a_node23"><a xlink:href="src/utils/asserts-non-null.ts" xlink:title="asserts&#45;non&#45;null.ts">
<path fill="#ddfeff" stroke="black" d="M973,-76.57C973,-76.57 886,-76.57 886,-76.57 883,-76.57 880,-73.57 880,-70.57 880,-70.57 880,-64.57 880,-64.57 880,-61.57 883,-58.57 886,-58.57 886,-58.57 973,-58.57 973,-58.57 976,-58.57 979,-61.57 979,-64.57 979,-64.57 979,-70.57 979,-70.57 979,-73.57 976,-76.57 973,-76.57"/>
<text text-anchor="middle" x="929.5" y="-65.37" font-family="Helvetica,sans-Serif" font-size="9.00">asserts&#45;non&#45;null.ts</text>
</a>
</g>
</g>
<!-- src/hooks/use&#45;site.ts&#45;&gt;src/utils/asserts&#45;non&#45;null.ts -->
<g id="edge32" class="edge">
<title>src/hooks/use&#45;site.ts&#45;&gt;src/utils/asserts&#45;non&#45;null.ts</title>
<path fill="none" stroke="#000000" stroke-width="2" stroke-opacity="0.200000" d="M822.68,-84.69C837.67,-82.26 856.24,-79.26 873.63,-76.45"/>
<polygon fill="#000000" fill-opacity="0.200000" stroke="#000000" stroke-width="2" stroke-opacity="0.200000" points="874.39,-78.45 879.97,-75.42 873.72,-74.31 874.39,-78.45"/>
</g>
<!-- src/components/content/header.tsx -->
<g id="node15" class="node">
<title>src/components/content/header.tsx</title>
<g id="a_node15"><a xlink:href="src/components/content/header.tsx" xlink:title="header.tsx">
<path fill="#bbfeff" stroke="black" d="M640.5,-926.57C640.5,-926.57 588.5,-926.57 588.5,-926.57 585.5,-926.57 582.5,-923.57 582.5,-920.57 582.5,-920.57 582.5,-914.57 582.5,-914.57 582.5,-911.57 585.5,-908.57 588.5,-908.57 588.5,-908.57 640.5,-908.57 640.5,-908.57 643.5,-908.57 646.5,-911.57 646.5,-914.57 646.5,-914.57 646.5,-920.57 646.5,-920.57 646.5,-923.57 643.5,-926.57 640.5,-926.57"/>
<text text-anchor="middle" x="614.5" y="-915.37" font-family="Helvetica,sans-Serif" font-size="9.00">header.tsx</text>
</a>
</g>
</g>
<!-- src/components/content/index.tsx -->
<g id="node16" class="node">
<title>src/components/content/index.tsx</title>
<g id="a_node16"><a xlink:href="src/components/content/index.tsx" xlink:title="index.tsx">
<path fill="#bbfeff" stroke="black" d="M472,-926.57C472,-926.57 426,-926.57 426,-926.57 423,-926.57 420,-923.57 420,-920.57 420,-920.57 420,-914.57 420,-914.57 420,-911.57 423,-908.57 426,-908.57 426,-908.57 472,-908.57 472,-908.57 475,-908.57 478,-911.57 478,-914.57 478,-914.57 478,-920.57 478,-920.57 478,-923.57 475,-926.57 472,-926.57"/>
<text text-anchor="middle" x="449" y="-915.37" font-family="Helvetica,sans-Serif" font-size="9.00">index.tsx</text>
</a>
</g>
</g>
<!-- src/components/content/index.tsx&#45;&gt;src/components/content/breadcrumbs.tsx -->
<g id="edge11" class="edge">
<title>src/components/content/index.tsx&#45;&gt;src/components/content/breadcrumbs.tsx</title>
<path fill="none" stroke="#000000" stroke-width="2" stroke-opacity="0.200000" d="M478.12,-911.85C492.44,-908.98 510.13,-905.5 526,-902.57 537.36,-900.48 549.56,-898.32 561.15,-896.32"/>
<polygon fill="#000000" fill-opacity="0.200000" stroke="#000000" stroke-width="2" stroke-opacity="0.200000" points="561.59,-898.38 567.14,-895.29 560.87,-894.24 561.59,-898.38"/>
</g>
<!-- src/components/content/index.tsx&#45;&gt;src/components/content/header.tsx -->
<g id="edge12" class="edge">
<title>src/components/content/index.tsx&#45;&gt;src/components/content/header.tsx</title>
<path fill="none" stroke="#000000" stroke-width="2" stroke-opacity="0.200000" d="M478.11,-917.57C505.21,-917.57 546.41,-917.57 576.24,-917.57"/>
<polygon fill="#000000" fill-opacity="0.200000" stroke="#000000" stroke-width="2" stroke-opacity="0.200000" points="576.42,-919.67 582.42,-917.57 576.42,-915.47 576.42,-919.67"/>
</g>
<!-- src/components/content/tags.tsx -->
<g id="node17" class="node">
<title>src/components/content/tags.tsx</title>
<g id="a_node17"><a xlink:href="src/components/content/tags.tsx" xlink:title="tags.tsx">
<path fill="#bbfeff" stroke="black" d="M470,-836.57C470,-836.57 428,-836.57 428,-836.57 425,-836.57 422,-833.57 422,-830.57 422,-830.57 422,-824.57 422,-824.57 422,-821.57 425,-818.57 428,-818.57 428,-818.57 470,-818.57 470,-818.57 473,-818.57 476,-821.57 476,-824.57 476,-824.57 476,-830.57 476,-830.57 476,-833.57 473,-836.57 470,-836.57"/>
<text text-anchor="middle" x="449" y="-825.37" font-family="Helvetica,sans-Serif" font-size="9.00">tags.tsx</text>
</a>
</g>
</g>
<!-- src/components/embeddeds/niconico.tsx -->
<g id="node18" class="node">
<title>src/components/embeddeds/niconico.tsx</title>
<g id="a_node18"><a xlink:href="src/components/embeddeds/niconico.tsx" xlink:title="niconico.tsx">
<path fill="#ccffcc" stroke="black" d="M350.5,-1062.57C350.5,-1062.57 291.5,-1062.57 291.5,-1062.57 288.5,-1062.57 285.5,-1059.57 285.5,-1056.57 285.5,-1056.57 285.5,-1050.57 285.5,-1050.57 285.5,-1047.57 288.5,-1044.57 291.5,-1044.57 291.5,-1044.57 350.5,-1044.57 350.5,-1044.57 353.5,-1044.57 356.5,-1047.57 356.5,-1050.57 356.5,-1050.57 356.5,-1056.57 356.5,-1056.57 356.5,-1059.57 353.5,-1062.57 350.5,-1062.57"/>
<text text-anchor="middle" x="321" y="-1051.37" font-family="Helvetica,sans-Serif" font-size="9.00">niconico.tsx</text>
</a>
</g>
</g>
<!-- src/components/header/index.tsx -->
<g id="node19" class="node">
<title>src/components/header/index.tsx</title>
<g id="a_node19"><a xlink:href="src/components/header/index.tsx" xlink:title="index.tsx">
<path fill="#bbfeff" stroke="black" d="M472,-686.57C472,-686.57 426,-686.57 426,-686.57 423,-686.57 420,-683.57 420,-680.57 420,-680.57 420,-674.57 420,-674.57 420,-671.57 423,-668.57 426,-668.57 426,-668.57 472,-668.57 472,-668.57 475,-668.57 478,-671.57 478,-674.57 478,-674.57 478,-680.57 478,-680.57 478,-683.57 475,-686.57 472,-686.57"/>
<text text-anchor="middle" x="449" y="-675.37" font-family="Helvetica,sans-Serif" font-size="9.00">index.tsx</text>
</a>
</g>
</g>
<!-- src/components/header/index.tsx&#45;&gt;src/hooks/use&#45;site.ts -->
<g id="edge13" class="edge">
<title>src/components/header/index.tsx&#45;&gt;src/hooks/use&#45;site.ts</title>
<path fill="none" stroke="#000000" stroke-width="2" stroke-opacity="0.200000" d="M478.02,-678.42C491.28,-677.22 506.11,-673.26 515,-662.57 532.92,-641.02 515.8,-436.68 526,-410.57 572.38,-291.9 661.79,-309.1 711,-191.57 718.5,-173.66 706.08,-119.07 719,-104.57 727.77,-94.72 741.22,-90.4 754.09,-88.74"/>
<polygon fill="#000000" fill-opacity="0.200000" stroke="#000000" stroke-width="2" stroke-opacity="0.200000" points="754.57,-90.8 760.34,-88.13 754.16,-86.62 754.57,-90.8"/>
</g>
<!-- src/components/theme&#45;switcher/index.tsx -->
<g id="node20" class="node">
<title>src/components/theme&#45;switcher/index.tsx</title>
<g id="a_node20"><a xlink:href="src/components/theme-switcher/index.tsx" xlink:title="index.tsx">
<path fill="#bbfeff" stroke="black" d="M637.5,-671.57C637.5,-671.57 591.5,-671.57 591.5,-671.57 588.5,-671.57 585.5,-668.57 585.5,-665.57 585.5,-665.57 585.5,-659.57 585.5,-659.57 585.5,-656.57 588.5,-653.57 591.5,-653.57 591.5,-653.57 637.5,-653.57 637.5,-653.57 640.5,-653.57 643.5,-656.57 643.5,-659.57 643.5,-659.57 643.5,-665.57 643.5,-665.57 643.5,-668.57 640.5,-671.57 637.5,-671.57"/>
<text text-anchor="middle" x="614.5" y="-660.37" font-family="Helvetica,sans-Serif" font-size="9.00">index.tsx</text>
</a>
</g>
</g>
<!-- src/components/header/index.tsx&#45;&gt;src/components/theme&#45;switcher/index.tsx -->
<g id="edge14" class="edge">
<title>src/components/header/index.tsx&#45;&gt;src/components/theme&#45;switcher/index.tsx</title>
<path fill="none" stroke="#000000" stroke-width="2" stroke-opacity="0.200000" d="M478.11,-674.99C506.15,-672.42 549.27,-668.46 579.29,-665.71"/>
<polygon fill="#000000" fill-opacity="0.200000" stroke="#000000" stroke-width="2" stroke-opacity="0.200000" points="579.7,-667.78 585.49,-665.14 579.32,-663.6 579.7,-667.78"/>
</g>
<!-- src/styles/theme.tsx -->
<g id="node31" class="node">
<title>src/styles/theme.tsx</title>
<g id="a_node31"><a xlink:href="src/styles/theme.tsx" xlink:title="theme.tsx">
<path fill="#bbfeff" stroke="black" d="M639.5,-528.57C639.5,-528.57 589.5,-528.57 589.5,-528.57 586.5,-528.57 583.5,-525.57 583.5,-522.57 583.5,-522.57 583.5,-516.57 583.5,-516.57 583.5,-513.57 586.5,-510.57 589.5,-510.57 589.5,-510.57 639.5,-510.57 639.5,-510.57 642.5,-510.57 645.5,-513.57 645.5,-516.57 645.5,-516.57 645.5,-522.57 645.5,-522.57 645.5,-525.57 642.5,-528.57 639.5,-528.57"/>
<text text-anchor="middle" x="614.5" y="-517.37" font-family="Helvetica,sans-Serif" font-size="9.00">theme.tsx</text>
</a>
</g>
</g>
<!-- src/components/theme&#45;switcher/index.tsx&#45;&gt;src/styles/theme.tsx -->
<g id="edge26" class="edge">
<title>src/components/theme&#45;switcher/index.tsx&#45;&gt;src/styles/theme.tsx</title>
<path fill="none" stroke="#000000" stroke-width="2" stroke-opacity="0.200000" d="M585.16,-657.06C561.54,-650.75 530.66,-637.7 520.5,-611.57 514.78,-596.87 514.78,-555.28 520.5,-540.57 528.7,-519.49 554.48,-514.82 576.98,-515.11"/>
<polygon fill="#000000" fill-opacity="0.200000" stroke="#000000" stroke-width="2" stroke-opacity="0.200000" points="577.15,-517.22 583.22,-515.31 577.29,-513.02 577.15,-517.22"/>
</g>
<!-- src/components/header/old.tsx -->
<g id="node21" class="node">
<title>src/components/header/old.tsx</title>
<g id="a_node21"><a xlink:href="src/components/header/old.tsx" xlink:title="old.tsx">
<path fill="#bbfeff" stroke="black" d="M470,-656.57C470,-656.57 428,-656.57 428,-656.57 425,-656.57 422,-653.57 422,-650.57 422,-650.57 422,-644.57 422,-644.57 422,-641.57 425,-638.57 428,-638.57 428,-638.57 470,-638.57 470,-638.57 473,-638.57 476,-641.57 476,-644.57 476,-644.57 476,-650.57 476,-650.57 476,-653.57 473,-656.57 470,-656.57"/>
<text text-anchor="middle" x="449" y="-645.37" font-family="Helvetica,sans-Serif" font-size="9.00">old.tsx</text>
</a>
</g>
</g>
<!-- src/styles/mediaQueries.ts -->
<g id="node22" class="node">
<title>src/styles/mediaQueries.ts</title>
<g id="a_node22"><a xlink:href="src/styles/mediaQueries.ts" xlink:title="mediaQueries.ts">
<path fill="#ddfeff" stroke="black" d="M653,-588.57C653,-588.57 576,-588.57 576,-588.57 573,-588.57 570,-585.57 570,-582.57 570,-582.57 570,-576.57 570,-576.57 570,-573.57 573,-570.57 576,-570.57 576,-570.57 653,-570.57 653,-570.57 656,-570.57 659,-573.57 659,-576.57 659,-576.57 659,-582.57 659,-582.57 659,-585.57 656,-588.57 653,-588.57"/>
<text text-anchor="middle" x="614.5" y="-577.37" font-family="Helvetica,sans-Serif" font-size="9.00">mediaQueries.ts</text>
</a>
</g>
</g>
<!-- src/components/header/old.tsx&#45;&gt;src/styles/mediaQueries.ts -->
<g id="edge15" class="edge">
<title>src/components/header/old.tsx&#45;&gt;src/styles/mediaQueries.ts</title>
<path fill="none" stroke="#000000" stroke-width="2" stroke-opacity="0.200000" d="M471.71,-638.54C501.15,-626.3 553.74,-604.42 585.93,-591.04"/>
<polygon fill="#000000" fill-opacity="0.200000" stroke="#000000" stroke-width="2" stroke-opacity="0.200000" points="586.97,-592.88 591.7,-588.64 585.35,-589 586.97,-592.88"/>
</g>
<!-- src/components/header/old.tsx&#45;&gt;src/utils/asserts&#45;non&#45;null.ts -->
<g id="edge16" class="edge">
<title>src/components/header/old.tsx&#45;&gt;src/utils/asserts&#45;non&#45;null.ts</title>
<path fill="none" stroke="#000000" stroke-width="2" stroke-opacity="0.200000" d="M451.75,-638.22C458.09,-605.79 481.83,-495.76 526,-415.57 588.29,-302.47 646.89,-303.65 711,-191.57 716.17,-182.54 710.73,-175.89 719,-169.57 744.69,-149.94 835.87,-173.52 864,-157.57 893.98,-140.57 913.61,-103.23 922.67,-82.39"/>
<polygon fill="#000000" fill-opacity="0.200000" stroke="#000000" stroke-width="2" stroke-opacity="0.200000" points="924.66,-83.08 925.05,-76.73 920.79,-81.45 924.66,-83.08"/>
</g>
<!-- src/utils/panic.ts -->
<g id="node62" class="node">
<title>src/utils/panic.ts</title>
<g id="a_node62"><a xlink:href="src/utils/panic.ts" xlink:title="panic.ts">
<path fill="#ddfeff" stroke="black" d="M1040,-76.57C1040,-76.57 998,-76.57 998,-76.57 995,-76.57 992,-73.57 992,-70.57 992,-70.57 992,-64.57 992,-64.57 992,-61.57 995,-58.57 998,-58.57 998,-58.57 1040,-58.57 1040,-58.57 1043,-58.57 1046,-61.57 1046,-64.57 1046,-64.57 1046,-70.57 1046,-70.57 1046,-73.57 1043,-76.57 1040,-76.57"/>
<text text-anchor="middle" x="1019" y="-65.37" font-family="Helvetica,sans-Serif" font-size="9.00">panic.ts</text>
</a>
</g>
</g>
<!-- src/utils/asserts&#45;non&#45;null.ts&#45;&gt;src/utils/panic.ts -->
<g id="edge59" class="edge">
<title>src/utils/asserts&#45;non&#45;null.ts&#45;&gt;src/utils/panic.ts</title>
<path fill="none" stroke="#000000" stroke-width="2" stroke-opacity="0.200000" d="M979.11,-67.57C981.31,-67.57 983.5,-67.57 985.65,-67.57"/>
<polygon fill="#000000" fill-opacity="0.200000" stroke="#000000" stroke-width="2" stroke-opacity="0.200000" points="985.95,-69.67 991.95,-67.57 985.95,-65.47 985.95,-69.67"/>
</g>
<!-- src/components/layout/index.tsx -->
<g id="node24" class="node">
<title>src/components/layout/index.tsx</title>
<g id="a_node24"><a xlink:href="src/components/layout/index.tsx" xlink:title="index.tsx">
<path fill="#bbfeff" stroke="black" d="M344,-866.57C344,-866.57 298,-866.57 298,-866.57 295,-866.57 292,-863.57 292,-860.57 292,-860.57 292,-854.57 292,-854.57 292,-851.57 295,-848.57 298,-848.57 298,-848.57 344,-848.57 344,-848.57 347,-848.57 350,-851.57 350,-854.57 350,-854.57 350,-860.57 350,-860.57 350,-863.57 347,-866.57 344,-866.57"/>
<text text-anchor="middle" x="321" y="-855.37" font-family="Helvetica,sans-Serif" font-size="9.00">index.tsx</text>
</a>
</g>
</g>
<!-- src/components/layout/index.tsx&#45;&gt;src/components/content/breadcrumbs.tsx -->
<g id="edge18" class="edge">
<title>src/components/layout/index.tsx&#45;&gt;src/components/content/breadcrumbs.tsx</title>
<path fill="none" stroke="#000000" stroke-width="2" stroke-opacity="0.200000" d="M325.18,-866.65C331.6,-883.35 347.82,-918.49 375,-932.57 402.63,-946.88 489.49,-950.39 515,-932.57 526.64,-924.44 515.09,-911.66 526,-902.57 535.87,-894.35 548.59,-889.89 561.26,-887.62"/>
<polygon fill="#000000" fill-opacity="0.200000" stroke="#000000" stroke-width="2" stroke-opacity="0.200000" points="561.85,-889.65 567.46,-886.67 561.21,-885.5 561.85,-889.65"/>
</g>
<!-- src/components/layout/index.tsx&#45;&gt;src/components/content/footer.tsx -->
<g id="edge19" class="edge">
<title>src/components/layout/index.tsx&#45;&gt;src/components/content/footer.tsx</title>
<path fill="none" stroke="#000000" stroke-width="2" stroke-opacity="0.200000" d="M350.28,-857.57C368.87,-857.57 393.33,-857.57 413.13,-857.57"/>
<polygon fill="#000000" fill-opacity="0.200000" stroke="#000000" stroke-width="2" stroke-opacity="0.200000" points="413.38,-859.67 419.38,-857.57 413.38,-855.47 413.38,-859.67"/>
</g>
<!-- src/components/layout/index.tsx&#45;&gt;src/components/content/header.tsx -->
<g id="edge20" class="edge">
<title>src/components/layout/index.tsx&#45;&gt;src/components/content/header.tsx</title>
<path fill="none" stroke="#000000" stroke-width="2" stroke-opacity="0.200000" d="M324.46,-866.66C329.96,-884.99 345.2,-926.03 375,-942.57 429.41,-972.76 453.26,-950.28 515,-942.57 536.71,-939.86 560.49,-933.91 579.25,-928.5"/>
<polygon fill="#000000" fill-opacity="0.200000" stroke="#000000" stroke-width="2" stroke-opacity="0.200000" points="580.24,-930.39 585.41,-926.69 579.06,-926.36 580.24,-930.39"/>
</g>
<!-- src/components/layout/index.tsx&#45;&gt;src/components/header/index.tsx -->
<g id="edge21" class="edge">
<title>src/components/layout/index.tsx&#45;&gt;src/components/header/index.tsx</title>
<path fill="none" stroke="#000000" stroke-width="2" stroke-opacity="0.200000" d="M350.09,-854.77C357.7,-852.59 365.17,-848.88 370,-842.57 378.46,-831.54 367.68,-729.39 375,-717.57 383.8,-703.36 399.55,-693.83 414.17,-687.65"/>
<polygon fill="#000000" fill-opacity="0.200000" stroke="#000000" stroke-width="2" stroke-opacity="0.200000" points="415.12,-689.53 419.92,-685.36 413.56,-685.63 415.12,-689.53"/>
</g>
<!-- src/components/layout/index.tsx&#45;&gt;src/styles/mediaQueries.ts -->
<g id="edge17" class="edge">
<title>src/components/layout/index.tsx&#45;&gt;src/styles/mediaQueries.ts</title>
<path fill="none" stroke="#000000" stroke-width="2" stroke-opacity="0.200000" d="M350.16,-854.82C357.77,-852.65 365.22,-848.92 370,-842.57 377.19,-833.03 367.32,-636.73 375,-627.57 420.33,-573.5 508.07,-569.56 563.56,-573.35"/>
<polygon fill="#000000" fill-opacity="0.200000" stroke="#000000" stroke-width="2" stroke-opacity="0.200000" points="563.68,-575.46 569.83,-573.82 564,-571.27 563.68,-575.46"/>
</g>
<!-- src/components/table&#45;of&#45;contents/index.tsx -->
<g id="node25" class="node">
<title>src/components/table&#45;of&#45;contents/index.tsx</title>
<g id="a_node25"><a xlink:href="src/components/table-of-contents/index.tsx" xlink:title="index.tsx">
<path fill="#bbfeff" stroke="black" d="M472,-1198.57C472,-1198.57 426,-1198.57 426,-1198.57 423,-1198.57 420,-1195.57 420,-1192.57 420,-1192.57 420,-1186.57 420,-1186.57 420,-1183.57 423,-1180.57 426,-1180.57 426,-1180.57 472,-1180.57 472,-1180.57 475,-1180.57 478,-1183.57 478,-1186.57 478,-1186.57 478,-1192.57 478,-1192.57 478,-1195.57 475,-1198.57 472,-1198.57"/>
<text text-anchor="middle" x="449" y="-1187.37" font-family="Helvetica,sans-Serif" font-size="9.00">index.tsx</text>
</a>
</g>
</g>
<!-- src/components/layout/index.tsx&#45;&gt;src/components/table&#45;of&#45;contents/index.tsx -->
<g id="edge22" class="edge">
<title>src/components/layout/index.tsx&#45;&gt;src/components/table&#45;of&#45;contents/index.tsx</title>
<path fill="none" stroke="#000000" stroke-width="2" stroke-opacity="0.200000" d="M325.25,-866.57C334.33,-892.24 359.99,-968.14 370,-1033.57 371.13,-1040.93 370.45,-1161.68 375,-1167.57 384.2,-1179.49 399.64,-1185.16 413.96,-1187.78"/>
<polygon fill="#000000" fill-opacity="0.200000" stroke="#000000" stroke-width="2" stroke-opacity="0.200000" points="413.75,-1189.87 420,-1188.73 414.4,-1185.72 413.75,-1189.87"/>
</g>
<!-- src/components/layout/prism&#45;styles.ts -->
<g id="node26" class="node">
<title>src/components/layout/prism&#45;styles.ts</title>
<g id="a_node26"><a xlink:href="src/components/layout/prism-styles.ts" xlink:title="prism&#45;styles.ts">
<path fill="#ddfeff" stroke="black" d="M356,-836.57C356,-836.57 286,-836.57 286,-836.57 283,-836.57 280,-833.57 280,-830.57 280,-830.57 280,-824.57 280,-824.57 280,-821.57 283,-818.57 286,-818.57 286,-818.57 356,-818.57 356,-818.57 359,-818.57 362,-821.57 362,-824.57 362,-824.57 362,-830.57 362,-830.57 362,-833.57 359,-836.57 356,-836.57"/>
<text text-anchor="middle" x="321" y="-825.37" font-family="Helvetica,sans-Serif" font-size="9.00">prism&#45;styles.ts</text>
</a>
</g>
</g>
<!-- src/components/post&#45;link/post&#45;date.tsx -->
<g id="node27" class="node">
<title>src/components/post&#45;link/post&#45;date.tsx</title>
<g id="a_node27"><a xlink:href="src/components/post-link/post-date.tsx" xlink:title="post&#45;date.tsx">
<path fill="#bbfeff" stroke="black" d="M646.5,-746.57C646.5,-746.57 582.5,-746.57 582.5,-746.57 579.5,-746.57 576.5,-743.57 576.5,-740.57 576.5,-740.57 576.5,-734.57 576.5,-734.57 576.5,-731.57 579.5,-728.57 582.5,-728.57 582.5,-728.57 646.5,-728.57 646.5,-728.57 649.5,-728.57 652.5,-731.57 652.5,-734.57 652.5,-734.57 652.5,-740.57 652.5,-740.57 652.5,-743.57 649.5,-746.57 646.5,-746.57"/>
<text text-anchor="middle" x="614.5" y="-735.37" font-family="Helvetica,sans-Serif" font-size="9.00">post&#45;date.tsx</text>
</a>
</g>
</g>
<!-- src/components/post&#45;link/post&#45;link.tsx -->
<g id="node28" class="node">
<title>src/components/post&#45;link/post&#45;link.tsx</title>
<g id="a_node28"><a xlink:href="src/components/post-link/post-link.tsx" xlink:title="post&#45;link.tsx">
<path fill="#bbfeff" stroke="black" d="M478.5,-746.57C478.5,-746.57 419.5,-746.57 419.5,-746.57 416.5,-746.57 413.5,-743.57 413.5,-740.57 413.5,-740.57 413.5,-734.57 413.5,-734.57 413.5,-731.57 416.5,-728.57 419.5,-728.57 419.5,-728.57 478.5,-728.57 478.5,-728.57 481.5,-728.57 484.5,-731.57 484.5,-734.57 484.5,-734.57 484.5,-740.57 484.5,-740.57 484.5,-743.57 481.5,-746.57 478.5,-746.57"/>
<text text-anchor="middle" x="449" y="-735.37" font-family="Helvetica,sans-Serif" font-size="9.00">post&#45;link.tsx</text>
</a>
</g>
</g>
<!-- src/components/post&#45;link/post&#45;link.tsx&#45;&gt;src/components/post&#45;link/post&#45;date.tsx -->
<g id="edge23" class="edge">
<title>src/components/post&#45;link/post&#45;link.tsx&#45;&gt;src/components/post&#45;link/post&#45;date.tsx</title>
<path fill="none" stroke="#000000" stroke-width="2" stroke-opacity="0.200000" d="M484.67,-737.57C509.58,-737.57 543.33,-737.57 570.04,-737.57"/>
<polygon fill="#000000" fill-opacity="0.200000" stroke="#000000" stroke-width="2" stroke-opacity="0.200000" points="570.32,-739.67 576.32,-737.57 570.32,-735.47 570.32,-739.67"/>
</g>
<!-- src/components/post&#45;link/tag&#45;list.tsx -->
<g id="node29" class="node">
<title>src/components/post&#45;link/tag&#45;list.tsx</title>
<g id="a_node29"><a xlink:href="src/components/post-link/tag-list.tsx" xlink:title="tag&#45;list.tsx">
<path fill="#bbfeff" stroke="black" d="M640.5,-776.57C640.5,-776.57 588.5,-776.57 588.5,-776.57 585.5,-776.57 582.5,-773.57 582.5,-770.57 582.5,-770.57 582.5,-764.57 582.5,-764.57 582.5,-761.57 585.5,-758.57 588.5,-758.57 588.5,-758.57 640.5,-758.57 640.5,-758.57 643.5,-758.57 646.5,-761.57 646.5,-764.57 646.5,-764.57 646.5,-770.57 646.5,-770.57 646.5,-773.57 643.5,-776.57 640.5,-776.57"/>
<text text-anchor="middle" x="614.5" y="-765.37" font-family="Helvetica,sans-Serif" font-size="9.00">tag&#45;list.tsx</text>
</a>
</g>
</g>
<!-- src/components/post&#45;link/post&#45;link.tsx&#45;&gt;src/components/post&#45;link/tag&#45;list.tsx -->
<g id="edge24" class="edge">
<title>src/components/post&#45;link/post&#45;link.tsx&#45;&gt;src/components/post&#45;link/tag&#45;list.tsx</title>
<path fill="none" stroke="#000000" stroke-width="2" stroke-opacity="0.200000" d="M484.77,-744.62C497.7,-747.2 512.51,-750.08 526,-752.57 542.46,-755.61 560.7,-758.76 576.25,-761.4"/>
<polygon fill="#000000" fill-opacity="0.200000" stroke="#000000" stroke-width="2" stroke-opacity="0.200000" points="576.02,-763.49 582.28,-762.41 576.72,-759.35 576.02,-763.49"/>
</g>
<!-- src/components/post&#45;link/post&#45;list.tsx -->
<g id="node30" class="node">
<title>src/components/post&#45;link/post&#45;list.tsx</title>
<g id="a_node30"><a xlink:href="src/components/post-link/post-list.tsx" xlink:title="post&#45;list.tsx">
<path fill="#bbfeff" stroke="black" d="M349,-746.57C349,-746.57 293,-746.57 293,-746.57 290,-746.57 287,-743.57 287,-740.57 287,-740.57 287,-734.57 287,-734.57 287,-731.57 290,-728.57 293,-728.57 293,-728.57 349,-728.57 349,-728.57 352,-728.57 355,-731.57 355,-734.57 355,-734.57 355,-740.57 355,-740.57 355,-743.57 352,-746.57 349,-746.57"/>
<text text-anchor="middle" x="321" y="-735.37" font-family="Helvetica,sans-Serif" font-size="9.00">post&#45;list.tsx</text>
</a>
</g>
</g>
<!-- src/components/post&#45;link/post&#45;list.tsx&#45;&gt;src/components/post&#45;link/post&#45;link.tsx -->
<g id="edge25" class="edge">
<title>src/components/post&#45;link/post&#45;list.tsx&#45;&gt;src/components/post&#45;link/post&#45;link.tsx</title>
<path fill="none" stroke="#000000" stroke-width="2" stroke-opacity="0.200000" d="M355.11,-737.57C371.08,-737.57 390.39,-737.57 407.26,-737.57"/>
<polygon fill="#000000" fill-opacity="0.200000" stroke="#000000" stroke-width="2" stroke-opacity="0.200000" points="407.36,-739.67 413.36,-737.57 407.36,-735.47 407.36,-739.67"/>
</g>
<!-- src/styles/theme.tsx&#45;&gt;src/components/layout/prism&#45;styles.ts -->
<g id="edge44" class="edge">
<title>src/styles/theme.tsx&#45;&gt;src/components/layout/prism&#45;styles.ts</title>
<path fill="none" stroke="#000000" stroke-width="2" stroke-opacity="0.200000" d="M583.4,-515.3C531.38,-509.83 425.41,-507.5 375,-569.57 366.73,-579.75 377.2,-794.61 370,-805.57 367.51,-809.36 364.19,-812.51 360.45,-815.12"/>
<polygon fill="#000000" fill-opacity="0.200000" stroke="#000000" stroke-width="2" stroke-opacity="0.200000" points="359.16,-813.45 355.13,-818.36 361.35,-817.04 359.16,-813.45"/>
</g>
<!-- src/hooks/use&#45;local&#45;storage&#45;state.ts -->
<g id="node40" class="node">
<title>src/hooks/use&#45;local&#45;storage&#45;state.ts</title>
<g id="a_node40"><a xlink:href="src/hooks/use-local-storage-state.ts" xlink:title="use&#45;local&#45;storage&#45;state.ts">
<path fill="#ddfeff" stroke="black" d="M850,-128.57C850,-128.57 733,-128.57 733,-128.57 730,-128.57 727,-125.57 727,-122.57 727,-122.57 727,-116.57 727,-116.57 727,-113.57 730,-110.57 733,-110.57 733,-110.57 850,-110.57 850,-110.57 853,-110.57 856,-113.57 856,-116.57 856,-116.57 856,-122.57 856,-122.57 856,-125.57 853,-128.57 850,-128.57"/>
<text text-anchor="middle" x="791.5" y="-117.37" font-family="Helvetica,sans-Serif" font-size="9.00">use&#45;local&#45;storage&#45;state.ts</text>
</a>
</g>
</g>
<!-- src/styles/theme.tsx&#45;&gt;src/hooks/use&#45;local&#45;storage&#45;state.ts -->
<g id="edge45" class="edge">
<title>src/styles/theme.tsx&#45;&gt;src/hooks/use&#45;local&#45;storage&#45;state.ts</title>
<path fill="none" stroke="#000000" stroke-width="2" stroke-opacity="0.200000" d="M629.14,-510.34C651.15,-494.55 693.74,-460 711,-418.57 721.65,-393.02 705.82,-193.91 719,-169.57 728.32,-152.37 746.43,-139.8 762.09,-131.56"/>
<polygon fill="#000000" fill-opacity="0.200000" stroke="#000000" stroke-width="2" stroke-opacity="0.200000" points="763.31,-133.3 767.73,-128.73 761.43,-129.55 763.31,-133.3"/>
</g>
<!-- src/libs/styleFn/color.ts -->
<g id="node46" class="node">
<title>src/libs/styleFn/color.ts</title>
<g id="a_node46"><a xlink:href="src/libs/styleFn/color.ts" xlink:title="color.ts">
<path fill="#ddfeff" stroke="black" d="M812.5,-442.57C812.5,-442.57 770.5,-442.57 770.5,-442.57 767.5,-442.57 764.5,-439.57 764.5,-436.57 764.5,-436.57 764.5,-430.57 764.5,-430.57 764.5,-427.57 767.5,-424.57 770.5,-424.57 770.5,-424.57 812.5,-424.57 812.5,-424.57 815.5,-424.57 818.5,-427.57 818.5,-430.57 818.5,-430.57 818.5,-436.57 818.5,-436.57 818.5,-439.57 815.5,-442.57 812.5,-442.57"/>
<text text-anchor="middle" x="791.5" y="-431.37" font-family="Helvetica,sans-Serif" font-size="9.00">color.ts</text>
</a>
</g>
</g>
<!-- src/styles/theme.tsx&#45;&gt;src/libs/styleFn/color.ts -->
<g id="edge46" class="edge">
<title>src/styles/theme.tsx&#45;&gt;src/libs/styleFn/color.ts</title>
<path fill="none" stroke="#000000" stroke-width="2" stroke-opacity="0.200000" d="M633.9,-510.53C665.8,-494.85 731.35,-462.64 766.69,-445.27"/>
<polygon fill="#000000" fill-opacity="0.200000" stroke="#000000" stroke-width="2" stroke-opacity="0.200000" points="767.63,-447.15 772.09,-442.62 765.78,-443.38 767.63,-447.15"/>
</g>
<!-- src/styles/variables.ts -->
<g id="node56" class="node">
<title>src/styles/variables.ts</title>
<g id="a_node56"><a xlink:href="src/styles/variables.ts" xlink:title="variables.ts">
<path fill="#ddfeff" stroke="black" d="M819.5,-543.57C819.5,-543.57 763.5,-543.57 763.5,-543.57 760.5,-543.57 757.5,-540.57 757.5,-537.57 757.5,-537.57 757.5,-531.57 757.5,-531.57 757.5,-528.57 760.5,-525.57 763.5,-525.57 763.5,-525.57 819.5,-525.57 819.5,-525.57 822.5,-525.57 825.5,-528.57 825.5,-531.57 825.5,-531.57 825.5,-537.57 825.5,-537.57 825.5,-540.57 822.5,-543.57 819.5,-543.57"/>
<text text-anchor="middle" x="791.5" y="-532.37" font-family="Helvetica,sans-Serif" font-size="9.00">variables.ts</text>
</a>
</g>
</g>
<!-- src/styles/theme.tsx&#45;&gt;src/styles/variables.ts -->
<g id="edge47" class="edge">
<title>src/styles/theme.tsx&#45;&gt;src/styles/variables.ts</title>
<path fill="none" stroke="#000000" stroke-width="2" stroke-opacity="0.200000" d="M645.58,-522.15C674.72,-524.65 719.06,-528.45 751.02,-531.19"/>
<polygon fill="#000000" fill-opacity="0.200000" stroke="#000000" stroke-width="2" stroke-opacity="0.200000" points="751.08,-533.3 757.23,-531.72 751.44,-529.11 751.08,-533.3"/>
</g>
<!-- src/gatsby/browser/wrap&#45;root&#45;element.tsx -->
<g id="node32" class="node">
<title>src/gatsby/browser/wrap&#45;root&#45;element.tsx</title>
<g id="a_node32"><a xlink:href="src/gatsby/browser/wrap-root-element.tsx" xlink:title="wrap&#45;root&#45;element.tsx">
<path fill="#bbfeff" stroke="black" d="M501,-248.57C501,-248.57 397,-248.57 397,-248.57 394,-248.57 391,-245.57 391,-242.57 391,-242.57 391,-236.57 391,-236.57 391,-233.57 394,-230.57 397,-230.57 397,-230.57 501,-230.57 501,-230.57 504,-230.57 507,-233.57 507,-236.57 507,-236.57 507,-242.57 507,-242.57 507,-245.57 504,-248.57 501,-248.57"/>
<text text-anchor="middle" x="449" y="-237.37" font-family="Helvetica,sans-Serif" font-size="9.00">wrap&#45;root&#45;element.tsx</text>
</a>
</g>
</g>
<!-- src/gatsby/browser/wrap&#45;root&#45;element.tsx&#45;&gt;src/styles/theme.tsx -->
<g id="edge27" class="edge">
<title>src/gatsby/browser/wrap&#45;root&#45;element.tsx&#45;&gt;src/styles/theme.tsx</title>
<path fill="none" stroke="#000000" stroke-width="2" stroke-opacity="0.200000" d="M455.44,-248.89C479.45,-290 576.02,-455.39 605.15,-505.27"/>
<polygon fill="#000000" fill-opacity="0.200000" stroke="#000000" stroke-width="2" stroke-opacity="0.200000" points="603.37,-506.38 608.2,-510.5 606.99,-504.26 603.37,-506.38"/>
</g>
<!-- src/gatsby/gatsby&#45;browser.ts -->
<g id="node33" class="node">
<title>src/gatsby/gatsby&#45;browser.ts</title>
<g id="a_node33"><a xlink:href="src/gatsby/gatsby-browser.ts" xlink:title="gatsby&#45;browser.ts">
<path fill="#ccffcc" stroke="black" d="M491.5,-214.57C491.5,-214.57 406.5,-214.57 406.5,-214.57 403.5,-214.57 400.5,-211.57 400.5,-208.57 400.5,-208.57 400.5,-202.57 400.5,-202.57 400.5,-199.57 403.5,-196.57 406.5,-196.57 406.5,-196.57 491.5,-196.57 491.5,-196.57 494.5,-196.57 497.5,-199.57 497.5,-202.57 497.5,-202.57 497.5,-208.57 497.5,-208.57 497.5,-211.57 494.5,-214.57 491.5,-214.57"/>
<text text-anchor="middle" x="449" y="-203.37" font-family="Helvetica,sans-Serif" font-size="9.00">gatsby&#45;browser.ts</text>
</a>
</g>
</g>
<!-- src/gatsby/gatsby&#45;config.ts -->
<g id="node34" class="node">
<title>src/gatsby/gatsby&#45;config.ts</title>
<g id="a_node34"><a xlink:href="src/gatsby/gatsby-config.ts" xlink:title="gatsby&#45;config.ts">
<path fill="#ccffcc" stroke="black" d="M488,-184.57C488,-184.57 410,-184.57 410,-184.57 407,-184.57 404,-181.57 404,-178.57 404,-178.57 404,-172.57 404,-172.57 404,-169.57 407,-166.57 410,-166.57 410,-166.57 488,-166.57 488,-166.57 491,-166.57 494,-169.57 494,-172.57 494,-172.57 494,-178.57 494,-178.57 494,-181.57 491,-184.57 488,-184.57"/>
<text text-anchor="middle" x="449" y="-173.37" font-family="Helvetica,sans-Serif" font-size="9.00">gatsby&#45;config.ts</text>
</a>
</g>
</g>
<!-- src/gatsby/gatsby&#45;node.ts -->
<g id="node35" class="node">
<title>src/gatsby/gatsby&#45;node.ts</title>
<g id="a_node35"><a xlink:href="src/gatsby/gatsby-node.ts" xlink:title="gatsby&#45;node.ts">
<path fill="#ddfeff" stroke="black" d="M485,-154.57C485,-154.57 413,-154.57 413,-154.57 410,-154.57 407,-151.57 407,-148.57 407,-148.57 407,-142.57 407,-142.57 407,-139.57 410,-136.57 413,-136.57 413,-136.57 485,-136.57 485,-136.57 488,-136.57 491,-139.57 491,-142.57 491,-142.57 491,-148.57 491,-148.57 491,-151.57 488,-154.57 485,-154.57"/>
<text text-anchor="middle" x="449" y="-143.37" font-family="Helvetica,sans-Serif" font-size="9.00">gatsby&#45;node.ts</text>
</a>
</g>
</g>
<!-- src/gatsby/node/create&#45;pages.ts -->
<g id="node36" class="node">
<title>src/gatsby/node/create&#45;pages.ts</title>
<g id="a_node36"><a xlink:href="src/gatsby/node/create-pages.ts" xlink:title="create&#45;pages.ts">
<path fill="#ddfeff" stroke="black" d="M651.5,-132.57C651.5,-132.57 577.5,-132.57 577.5,-132.57 574.5,-132.57 571.5,-129.57 571.5,-126.57 571.5,-126.57 571.5,-120.57 571.5,-120.57 571.5,-117.57 574.5,-114.57 577.5,-114.57 577.5,-114.57 651.5,-114.57 651.5,-114.57 654.5,-114.57 657.5,-117.57 657.5,-120.57 657.5,-120.57 657.5,-126.57 657.5,-126.57 657.5,-129.57 654.5,-132.57 651.5,-132.57"/>
<text text-anchor="middle" x="614.5" y="-121.37" font-family="Helvetica,sans-Serif" font-size="9.00">create&#45;pages.ts</text>
</a>
</g>
</g>
<!-- src/gatsby/gatsby&#45;node.ts&#45;&gt;src/gatsby/node/create&#45;pages.ts -->
<g id="edge28" class="edge">
<title>src/gatsby/gatsby&#45;node.ts&#45;&gt;src/gatsby/node/create&#45;pages.ts</title>
<path fill="none" stroke="#000000" stroke-width="2" stroke-opacity="0.200000" d="M491.26,-140.02C513.75,-136.99 541.71,-133.23 565.21,-130.07"/>
<polygon fill="#000000" fill-opacity="0.200000" stroke="#000000" stroke-width="2" stroke-opacity="0.200000" points="565.73,-132.12 571.4,-129.24 565.17,-127.95 565.73,-132.12"/>
</g>
<!-- src/gatsby/node/create&#45;schema&#45;customization.ts -->
<g id="node37" class="node">
<title>src/gatsby/node/create&#45;schema&#45;customization.ts</title>
<g id="a_node37"><a xlink:href="src/gatsby/node/create-schema-customization.ts" xlink:title="create&#45;schema&#45;customization.ts">
<path fill="#ddfeff" stroke="black" d="M689,-162.57C689,-162.57 540,-162.57 540,-162.57 537,-162.57 534,-159.57 534,-156.57 534,-156.57 534,-150.57 534,-150.57 534,-147.57 537,-144.57 540,-144.57 540,-144.57 689,-144.57 689,-144.57 692,-144.57 695,-147.57 695,-150.57 695,-150.57 695,-156.57 695,-156.57 695,-159.57 692,-162.57 689,-162.57"/>
<text text-anchor="middle" x="614.5" y="-151.37" font-family="Helvetica,sans-Serif" font-size="9.00">create&#45;schema&#45;customization.ts</text>
</a>
</g>
</g>
<!-- src/gatsby/gatsby&#45;node.ts&#45;&gt;src/gatsby/node/create&#45;schema&#45;customization.ts -->
<g id="edge29" class="edge">
<title>src/gatsby/gatsby&#45;node.ts&#45;&gt;src/gatsby/node/create&#45;schema&#45;customization.ts</title>
<path fill="none" stroke="#000000" stroke-width="2" stroke-opacity="0.200000" d="M491.26,-147.59C502.4,-148.13 514.87,-148.75 527.49,-149.36"/>
<polygon fill="#000000" fill-opacity="0.200000" stroke="#000000" stroke-width="2" stroke-opacity="0.200000" points="527.59,-151.47 533.69,-149.67 527.8,-147.27 527.59,-151.47"/>
</g>
<!-- src/gatsby/node/create&#45;pages.ts&#45;&gt;src/utils/asserts&#45;non&#45;null.ts -->
<g id="edge31" class="edge">
<title>src/gatsby/node/create&#45;pages.ts&#45;&gt;src/utils/asserts&#45;non&#45;null.ts</title>
<path fill="none" stroke="#000000" stroke-width="2" stroke-opacity="0.200000" d="M625.72,-114.48C643.29,-99.54 681,-70.37 719,-59.57 773,-44.22 837.99,-50.27 881.11,-57.51"/>
<polygon fill="#000000" fill-opacity="0.200000" stroke="#000000" stroke-width="2" stroke-opacity="0.200000" points="880.78,-59.58 887.05,-58.54 881.49,-55.44 880.78,-59.58"/>
</g>
<!-- src/libs/post.ts -->
<g id="node39" class="node">
<title>src/libs/post.ts</title>
<g id="a_node39"><a xlink:href="src/libs/post.ts" xlink:title="post.ts">
<path fill="#ddfeff" stroke="black" d="M950.5,-258.57C950.5,-258.57 908.5,-258.57 908.5,-258.57 905.5,-258.57 902.5,-255.57 902.5,-252.57 902.5,-252.57 902.5,-246.57 902.5,-246.57 902.5,-243.57 905.5,-240.57 908.5,-240.57 908.5,-240.57 950.5,-240.57 950.5,-240.57 953.5,-240.57 956.5,-243.57 956.5,-246.57 956.5,-246.57 956.5,-252.57 956.5,-252.57 956.5,-255.57 953.5,-258.57 950.5,-258.57"/>
<text text-anchor="middle" x="929.5" y="-247.37" font-family="Helvetica,sans-Serif" font-size="9.00">post.ts</text>
</a>
</g>
</g>
<!-- src/gatsby/node/create&#45;pages.ts&#45;&gt;src/libs/post.ts -->
<g id="edge30" class="edge">
<title>src/gatsby/node/create&#45;pages.ts&#45;&gt;src/libs/post.ts</title>
<path fill="none" stroke="#000000" stroke-width="2" stroke-opacity="0.200000" d="M628.08,-114.42C646.79,-101.43 683.57,-78.26 719,-69.57 750.3,-61.9 838.87,-49.41 864,-69.57 876.79,-79.83 867.21,-89.89 872,-105.57 886.74,-153.84 910.29,-208.85 921.77,-234.68"/>
<polygon fill="#000000" fill-opacity="0.200000" stroke="#000000" stroke-width="2" stroke-opacity="0.200000" points="919.92,-235.69 924.28,-240.31 923.75,-233.98 919.92,-235.69"/>
</g>
<!-- src/gatsby/gatsby&#45;ssr.tsx -->
<g id="node38" class="node">
<title>src/gatsby/gatsby&#45;ssr.tsx</title>
<g id="a_node38"><a xlink:href="src/gatsby/gatsby-ssr.tsx" xlink:title="gatsby&#45;ssr.tsx">
<path fill="#ccffcc" stroke="black" d="M482.5,-124.57C482.5,-124.57 415.5,-124.57 415.5,-124.57 412.5,-124.57 409.5,-121.57 409.5,-118.57 409.5,-118.57 409.5,-112.57 409.5,-112.57 409.5,-109.57 412.5,-106.57 415.5,-106.57 415.5,-106.57 482.5,-106.57 482.5,-106.57 485.5,-106.57 488.5,-109.57 488.5,-112.57 488.5,-112.57 488.5,-118.57 488.5,-118.57 488.5,-121.57 485.5,-124.57 482.5,-124.57"/>
<text text-anchor="middle" x="449" y="-113.37" font-family="Helvetica,sans-Serif" font-size="9.00">gatsby&#45;ssr.tsx</text>
</a>
</g>
</g>
<!-- src/libs/date.ts -->
<g id="node41" class="node">
<title>src/libs/date.ts</title>
<g id="a_node41"><a xlink:href="src/libs/date.ts" xlink:title="date.ts">
<path fill="#ddfeff" stroke="black" d="M1040,-258.57C1040,-258.57 998,-258.57 998,-258.57 995,-258.57 992,-255.57 992,-252.57 992,-252.57 992,-246.57 992,-246.57 992,-243.57 995,-240.57 998,-240.57 998,-240.57 1040,-240.57 1040,-240.57 1043,-240.57 1046,-243.57 1046,-246.57 1046,-246.57 1046,-252.57 1046,-252.57 1046,-255.57 1043,-258.57 1040,-258.57"/>
<text text-anchor="middle" x="1019" y="-247.37" font-family="Helvetica,sans-Serif" font-size="9.00">date.ts</text>
</a>
</g>
</g>
<!-- src/libs/post.ts&#45;&gt;src/libs/date.ts -->
<g id="edge34" class="edge">
<title>src/libs/post.ts&#45;&gt;src/libs/date.ts</title>
<path fill="none" stroke="#000000" stroke-width="2" stroke-opacity="0.200000" d="M956.75,-249.57C965.84,-249.57 976.13,-249.57 985.64,-249.57"/>
<polygon fill="#000000" fill-opacity="0.200000" stroke="#000000" stroke-width="2" stroke-opacity="0.200000" points="985.77,-251.67 991.77,-249.57 985.77,-247.47 985.77,-251.67"/>
</g>
<!-- src/libs/post.test.ts -->
<g id="node42" class="node">
<title>src/libs/post.test.ts</title>
<g id="a_node42"><a xlink:href="src/libs/post.test.ts" xlink:title="post.test.ts">
<path fill="#ddfeff" stroke="black" d="M819.5,-318.57C819.5,-318.57 763.5,-318.57 763.5,-318.57 760.5,-318.57 757.5,-315.57 757.5,-312.57 757.5,-312.57 757.5,-306.57 757.5,-306.57 757.5,-303.57 760.5,-300.57 763.5,-300.57 763.5,-300.57 819.5,-300.57 819.5,-300.57 822.5,-300.57 825.5,-303.57 825.5,-306.57 825.5,-306.57 825.5,-312.57 825.5,-312.57 825.5,-315.57 822.5,-318.57 819.5,-318.57"/>
<text text-anchor="middle" x="791.5" y="-307.37" font-family="Helvetica,sans-Serif" font-size="9.00">post.test.ts</text>
</a>
</g>
</g>
<!-- src/libs/post.test.ts&#45;&gt;src/libs/post.ts -->
<g id="edge33" class="edge">
<title>src/libs/post.test.ts&#45;&gt;src/libs/post.ts</title>
<path fill="none" stroke="#000000" stroke-width="2" stroke-opacity="0.200000" d="M825.74,-305.46C838.09,-303.19 852.01,-299.75 864,-294.57 882.59,-286.54 901.29,-272.71 913.73,-262.49"/>
<polygon fill="#000000" fill-opacity="0.200000" stroke="#000000" stroke-width="2" stroke-opacity="0.200000" points="915.08,-264.1 918.34,-258.64 912.39,-260.88 915.08,-264.1"/>
</g>
<!-- src/libs/proto&#45;ext.ts -->
<g id="node43" class="node">
<title>src/libs/proto&#45;ext.ts</title>
<g id="a_node43"><a xlink:href="src/libs/proto-ext.ts" xlink:title="proto&#45;ext.ts">
<path fill="#ccffcc" stroke="black" d="M820.5,-288.57C820.5,-288.57 762.5,-288.57 762.5,-288.57 759.5,-288.57 756.5,-285.57 756.5,-282.57 756.5,-282.57 756.5,-276.57 756.5,-276.57 756.5,-273.57 759.5,-270.57 762.5,-270.57 762.5,-270.57 820.5,-270.57 820.5,-270.57 823.5,-270.57 826.5,-273.57 826.5,-276.57 826.5,-276.57 826.5,-282.57 826.5,-282.57 826.5,-285.57 823.5,-288.57 820.5,-288.57"/>
<text text-anchor="middle" x="791.5" y="-277.37" font-family="Helvetica,sans-Serif" font-size="9.00">proto&#45;ext.ts</text>
</a>
</g>
</g>
<!-- src/libs/react&#45;fcx.d.ts -->
<g id="node44" class="node">
<title>src/libs/react&#45;fcx.d.ts</title>
<g id="a_node44"><a xlink:href="src/libs/react-fcx.d.ts" xlink:title="react&#45;fcx.d.ts">
<path fill="#ccffcc" stroke="black" d="M824,-258.57C824,-258.57 759,-258.57 759,-258.57 756,-258.57 753,-255.57 753,-252.57 753,-252.57 753,-246.57 753,-246.57 753,-243.57 756,-240.57 759,-240.57 759,-240.57 824,-240.57 824,-240.57 827,-240.57 830,-243.57 830,-246.57 830,-246.57 830,-252.57 830,-252.57 830,-255.57 827,-258.57 824,-258.57"/>
<text text-anchor="middle" x="791.5" y="-247.37" font-family="Helvetica,sans-Serif" font-size="9.00">react&#45;fcx.d.ts</text>
</a>
</g>
</g>
<!-- src/libs/styleFn/angle.ts -->
<g id="node45" class="node">
<title>src/libs/styleFn/angle.ts</title>
<g id="a_node45"><a xlink:href="src/libs/styleFn/angle.ts" xlink:title="angle.ts">
<path fill="#ccffcc" stroke="black" d="M812.5,-412.57C812.5,-412.57 770.5,-412.57 770.5,-412.57 767.5,-412.57 764.5,-409.57 764.5,-406.57 764.5,-406.57 764.5,-400.57 764.5,-400.57 764.5,-397.57 767.5,-394.57 770.5,-394.57 770.5,-394.57 812.5,-394.57 812.5,-394.57 815.5,-394.57 818.5,-397.57 818.5,-400.57 818.5,-400.57 818.5,-406.57 818.5,-406.57 818.5,-409.57 815.5,-412.57 812.5,-412.57"/>
<text text-anchor="middle" x="791.5" y="-401.37" font-family="Helvetica,sans-Serif" font-size="9.00">angle.ts</text>
</a>
</g>
</g>
<!-- src/libs/styleFn/length.ts -->
<g id="node48" class="node">
<title>src/libs/styleFn/length.ts</title>
<g id="a_node48"><a xlink:href="src/libs/styleFn/length.ts" xlink:title="length.ts">
<path fill="#ccffcc" stroke="black" d="M814,-352.57C814,-352.57 769,-352.57 769,-352.57 766,-352.57 763,-349.57 763,-346.57 763,-346.57 763,-340.57 763,-340.57 763,-337.57 766,-334.57 769,-334.57 769,-334.57 814,-334.57 814,-334.57 817,-334.57 820,-337.57 820,-340.57 820,-340.57 820,-346.57 820,-346.57 820,-349.57 817,-352.57 814,-352.57"/>
<text text-anchor="middle" x="791.5" y="-341.37" font-family="Helvetica,sans-Serif" font-size="9.00">length.ts</text>
</a>
</g>
</g>
<!-- src/libs/toc.ts -->
<g id="node49" class="node">
<title>src/libs/toc.ts</title>
<g id="a_node49"><a xlink:href="src/libs/toc.ts" xlink:title="toc.ts">
<path fill="#ccffcc" stroke="black" d="M812.5,-228.57C812.5,-228.57 770.5,-228.57 770.5,-228.57 767.5,-228.57 764.5,-225.57 764.5,-222.57 764.5,-222.57 764.5,-216.57 764.5,-216.57 764.5,-213.57 767.5,-210.57 770.5,-210.57 770.5,-210.57 812.5,-210.57 812.5,-210.57 815.5,-210.57 818.5,-213.57 818.5,-216.57 818.5,-216.57 818.5,-222.57 818.5,-222.57 818.5,-225.57 815.5,-228.57 812.5,-228.57"/>
<text text-anchor="middle" x="791.5" y="-217.37" font-family="Helvetica,sans-Serif" font-size="9.00">toc.ts</text>
</a>
</g>
</g>
<!-- src/libs/withDefault.ts -->
<g id="node50" class="node">
<title>src/libs/withDefault.ts</title>
<g id="a_node50"><a xlink:href="src/libs/withDefault.ts" xlink:title="withDefault.ts">
<path fill="#ccffcc" stroke="black" d="M825.5,-198.57C825.5,-198.57 757.5,-198.57 757.5,-198.57 754.5,-198.57 751.5,-195.57 751.5,-192.57 751.5,-192.57 751.5,-186.57 751.5,-186.57 751.5,-183.57 754.5,-180.57 757.5,-180.57 757.5,-180.57 825.5,-180.57 825.5,-180.57 828.5,-180.57 831.5,-183.57 831.5,-186.57 831.5,-186.57 831.5,-192.57 831.5,-192.57 831.5,-195.57 828.5,-198.57 825.5,-198.57"/>
<text text-anchor="middle" x="791.5" y="-187.37" font-family="Helvetica,sans-Serif" font-size="9.00">withDefault.ts</text>
</a>
</g>
</g>
<!-- src/pages/404.tsx -->
<g id="node51" class="node">
<title>src/pages/404.tsx</title>
<g id="a_node51"><a xlink:href="src/pages/404.tsx" xlink:title="404.tsx">
<path fill="#bbfeff" stroke="black" d="M103.5,-776.57C103.5,-776.57 61.5,-776.57 61.5,-776.57 58.5,-776.57 55.5,-773.57 55.5,-770.57 55.5,-770.57 55.5,-764.57 55.5,-764.57 55.5,-761.57 58.5,-758.57 61.5,-758.57 61.5,-758.57 103.5,-758.57 103.5,-758.57 106.5,-758.57 109.5,-761.57 109.5,-764.57 109.5,-764.57 109.5,-770.57 109.5,-770.57 109.5,-773.57 106.5,-776.57 103.5,-776.57"/>
<text text-anchor="middle" x="82.5" y="-765.37" font-family="Helvetica,sans-Serif" font-size="9.00">404.tsx</text>
</a>
</g>
</g>
<!-- src/pages/404.tsx&#45;&gt;src/components/layout/index.tsx -->
<g id="edge36" class="edge">
<title>src/pages/404.tsx&#45;&gt;src/components/layout/index.tsx</title>
<path fill="none" stroke="#000000" stroke-width="2" stroke-opacity="0.200000" d="M101.26,-776.7C115.39,-783.82 135.75,-793.79 154,-801.57 201.99,-822.04 214.3,-826.69 264,-842.57 271.04,-844.82 278.65,-847.01 285.92,-849"/>
<polygon fill="#000000" fill-opacity="0.200000" stroke="#000000" stroke-width="2" stroke-opacity="0.200000" points="285.59,-851.08 291.93,-850.61 286.68,-847.03 285.59,-851.08"/>
</g>
<!-- src/pages/index.tsx -->
<g id="node52" class="node">
<title>src/pages/index.tsx</title>
<g id="a_node52"><a xlink:href="src/pages/index.tsx" xlink:title="index.tsx">
<path fill="#bbfeff" stroke="black" d="M105.5,-716.57C105.5,-716.57 59.5,-716.57 59.5,-716.57 56.5,-716.57 53.5,-713.57 53.5,-710.57 53.5,-710.57 53.5,-704.57 53.5,-704.57 53.5,-701.57 56.5,-698.57 59.5,-698.57 59.5,-698.57 105.5,-698.57 105.5,-698.57 108.5,-698.57 111.5,-701.57 111.5,-704.57 111.5,-704.57 111.5,-710.57 111.5,-710.57 111.5,-713.57 108.5,-716.57 105.5,-716.57"/>
<text text-anchor="middle" x="82.5" y="-705.37" font-family="Helvetica,sans-Serif" font-size="9.00">index.tsx</text>
</a>
</g>
</g>
<!-- src/pages/index.tsx&#45;&gt;src/hooks/use&#45;site.ts -->
<g id="edge37" class="edge">
<title>src/pages/index.tsx&#45;&gt;src/hooks/use&#45;site.ts</title>
<path fill="none" stroke="#000000" stroke-width="2" stroke-opacity="0.200000" d="M94.44,-698.37C139.35,-659.8 310.03,-505.21 370,-334.57 374.4,-322.04 365.58,-104.93 375,-95.57 427.53,-43.38 662.99,-71.03 754.22,-84.04"/>
<polygon fill="#000000" fill-opacity="0.200000" stroke="#000000" stroke-width="2" stroke-opacity="0.200000" points="754.04,-86.13 760.28,-84.91 754.64,-81.98 754.04,-86.13"/>
</g>
<!-- src/pages/index.tsx&#45;&gt;src/utils/asserts&#45;non&#45;null.ts -->
<g id="edge39" class="edge">
<title>src/pages/index.tsx&#45;&gt;src/utils/asserts&#45;non&#45;null.ts</title>
<path fill="none" stroke="#000000" stroke-width="2" stroke-opacity="0.200000" d="M85.69,-698.47C92.51,-671.24 115.33,-588.67 154,-530.57 189.17,-477.72 228.98,-488.02 256,-430.57 274.03,-392.23 254.16,-376.78 264,-335.57 294.52,-207.77 267.66,-137.35 375,-61.57 419.41,-30.22 812.43,-29.38 864,-46.57 868.22,-47.98 868,-50.63 872,-52.57 874.97,-54.01 878.09,-55.33 881.29,-56.53"/>
<polygon fill="#000000" fill-opacity="0.200000" stroke="#000000" stroke-width="2" stroke-opacity="0.200000" points="880.74,-58.56 887.09,-58.56 882.13,-54.59 880.74,-58.56"/>
</g>
<!-- src/templates/post&#45;list&#45;page.tsx -->
<g id="node53" class="node">
<title>src/templates/post&#45;list&#45;page.tsx</title>
<g id="a_node53"><a xlink:href="src/templates/post-list-page.tsx" xlink:title="post&#45;list&#45;page.tsx">
<path fill="#bbfeff" stroke="black" d="M242,-401.57C242,-401.57 160,-401.57 160,-401.57 157,-401.57 154,-398.57 154,-395.57 154,-395.57 154,-389.57 154,-389.57 154,-386.57 157,-383.57 160,-383.57 160,-383.57 242,-383.57 242,-383.57 245,-383.57 248,-386.57 248,-389.57 248,-389.57 248,-395.57 248,-395.57 248,-398.57 245,-401.57 242,-401.57"/>
<text text-anchor="middle" x="201" y="-390.37" font-family="Helvetica,sans-Serif" font-size="9.00">post&#45;list&#45;page.tsx</text>
</a>
</g>
</g>
<!-- src/pages/index.tsx&#45;&gt;src/templates/post&#45;list&#45;page.tsx -->
<g id="edge38" class="edge">
<title>src/pages/index.tsx&#45;&gt;src/templates/post&#45;list&#45;page.tsx</title>
<path fill="none" stroke="#000000" stroke-width="2" stroke-opacity="0.200000" d="M83.91,-698.26C85.92,-661.62 97.05,-524.84 154,-432.57 160.66,-421.78 171.16,-412.33 180.45,-405.33"/>
<polygon fill="#000000" fill-opacity="0.200000" stroke="#000000" stroke-width="2" stroke-opacity="0.200000" points="181.83,-406.92 185.45,-401.69 179.36,-403.52 181.83,-406.92"/>
</g>
<!-- src/templates/post&#45;list&#45;page.tsx&#45;&gt;src/components/layout/index.tsx -->
<g id="edge57" class="edge">
<title>src/templates/post&#45;list&#45;page.tsx&#45;&gt;src/components/layout/index.tsx</title>
<path fill="none" stroke="#000000" stroke-width="2" stroke-opacity="0.200000" d="M203.25,-401.92C211.87,-466.22 262.09,-840.41 264,-842.57 269.57,-848.89 277.48,-852.67 285.61,-854.91"/>
<polygon fill="#000000" fill-opacity="0.200000" stroke="#000000" stroke-width="2" stroke-opacity="0.200000" points="285.51,-857.05 291.83,-856.34 286.45,-852.95 285.51,-857.05"/>
</g>
<!-- src/templates/post&#45;list&#45;page.tsx&#45;&gt;src/components/post&#45;link/post&#45;list.tsx -->
<g id="edge58" class="edge">
<title>src/templates/post&#45;list&#45;page.tsx&#45;&gt;src/components/post&#45;link/post&#45;list.tsx</title>
<path fill="none" stroke="#000000" stroke-width="2" stroke-opacity="0.200000" d="M205.16,-401.8C221.32,-449.05 294.82,-663.94 314.91,-722.69"/>
<polygon fill="#000000" fill-opacity="0.200000" stroke="#000000" stroke-width="2" stroke-opacity="0.200000" points="312.96,-723.48 316.89,-728.47 316.93,-722.12 312.96,-723.48"/>
</g>
<!-- src/pages/tags.tsx -->
<g id="node54" class="node">
<title>src/pages/tags.tsx</title>
<g id="a_node54"><a xlink:href="src/pages/tags.tsx" xlink:title="tags.tsx">
<path fill="#bbfeff" stroke="black" d="M103.5,-746.57C103.5,-746.57 61.5,-746.57 61.5,-746.57 58.5,-746.57 55.5,-743.57 55.5,-740.57 55.5,-740.57 55.5,-734.57 55.5,-734.57 55.5,-731.57 58.5,-728.57 61.5,-728.57 61.5,-728.57 103.5,-728.57 103.5,-728.57 106.5,-728.57 109.5,-731.57 109.5,-734.57 109.5,-734.57 109.5,-740.57 109.5,-740.57 109.5,-743.57 106.5,-746.57 103.5,-746.57"/>
<text text-anchor="middle" x="82.5" y="-735.37" font-family="Helvetica,sans-Serif" font-size="9.00">tags.tsx</text>
</a>
</g>
</g>
<!-- src/pages/tags.tsx&#45;&gt;src/components/article&#45;elements/headings.tsx -->
<g id="edge40" class="edge">
<title>src/pages/tags.tsx&#45;&gt;src/components/article&#45;elements/headings.tsx</title>
<path fill="none" stroke="#000000" stroke-width="2" stroke-opacity="0.200000" d="M109.51,-739.08C120.39,-740.94 132.46,-744.79 141,-752.57 148.4,-759.32 259.05,-1082.86 264,-1091.57 302.52,-1159.42 304.51,-1194.12 375,-1227.57 431.21,-1254.25 469.63,-1270.15 515,-1227.57 543.09,-1201.21 500.25,-1083.22 526,-1054.57 537.29,-1042.01 554.94,-1037.46 571.44,-1036.35"/>
<polygon fill="#000000" fill-opacity="0.200000" stroke="#000000" stroke-width="2" stroke-opacity="0.200000" points="571.55,-1038.45 577.45,-1036.09 571.37,-1034.25 571.55,-1038.45"/>
</g>
<!-- src/pages/tags.tsx&#45;&gt;src/components/layout/index.tsx -->
<g id="edge41" class="edge">
<title>src/pages/tags.tsx&#45;&gt;src/components/layout/index.tsx</title>
<path fill="none" stroke="#000000" stroke-width="2" stroke-opacity="0.200000" d="M109.52,-743.45C119.47,-745.93 130.86,-749.07 141,-752.57 193.68,-770.77 221,-759.2 256,-802.57 267.39,-816.68 251.6,-829.35 264,-842.57 269.71,-848.66 277.59,-852.37 285.63,-854.62"/>
<polygon fill="#000000" fill-opacity="0.200000" stroke="#000000" stroke-width="2" stroke-opacity="0.200000" points="285.47,-856.74 291.79,-856.06 286.43,-852.65 285.47,-856.74"/>
</g>
<!-- src/pages/tags.tsx&#45;&gt;src/components/post&#45;link/post&#45;list.tsx -->
<g id="edge42" class="edge">
<title>src/pages/tags.tsx&#45;&gt;src/components/post&#45;link/post&#45;list.tsx</title>
<path fill="none" stroke="#000000" stroke-width="2" stroke-opacity="0.200000" d="M109.71,-737.57C151.23,-737.57 232.37,-737.57 280.82,-737.57"/>
<polygon fill="#000000" fill-opacity="0.200000" stroke="#000000" stroke-width="2" stroke-opacity="0.200000" points="280.85,-739.67 286.85,-737.57 280.85,-735.47 280.85,-739.67"/>
</g>
<!-- src/styles/generate_variables.test.ts -->
<g id="node55" class="node">
<title>src/styles/generate_variables.test.ts</title>
<g id="a_node55"><a xlink:href="src/styles/generate_variables.test.ts" xlink:title="generate_variables.test.ts">
<path fill="#ddfeff" stroke="black" d="M675,-558.57C675,-558.57 554,-558.57 554,-558.57 551,-558.57 548,-555.57 548,-552.57 548,-552.57 548,-546.57 548,-546.57 548,-543.57 551,-540.57 554,-540.57 554,-540.57 675,-540.57 675,-540.57 678,-540.57 681,-543.57 681,-546.57 681,-546.57 681,-552.57 681,-552.57 681,-555.57 678,-558.57 675,-558.57"/>
<text text-anchor="middle" x="614.5" y="-547.37" font-family="Helvetica,sans-Serif" font-size="9.00">generate_variables.test.ts</text>
</a>
</g>
</g>
<!-- src/styles/generate_variables.test.ts&#45;&gt;src/styles/variables.ts -->
<g id="edge43" class="edge">
<title>src/styles/generate_variables.test.ts&#45;&gt;src/styles/variables.ts</title>
<path fill="none" stroke="#000000" stroke-width="2" stroke-opacity="0.200000" d="M681.16,-543.94C704.72,-541.92 730.53,-539.71 751.15,-537.94"/>
<polygon fill="#000000" fill-opacity="0.200000" stroke="#000000" stroke-width="2" stroke-opacity="0.200000" points="751.58,-540.01 757.38,-537.41 751.22,-535.83 751.58,-540.01"/>
</g>
<!-- src/templates/ArchiveMonthPage.tsx -->
<g id="node57" class="node">
<title>src/templates/ArchiveMonthPage.tsx</title>
<g id="a_node57"><a xlink:href="src/templates/ArchiveMonthPage.tsx" xlink:title="ArchiveMonthPage.tsx">
<path fill="#bbfeff" stroke="black" d="M135,-341.57C135,-341.57 30,-341.57 30,-341.57 27,-341.57 24,-338.57 24,-335.57 24,-335.57 24,-329.57 24,-329.57 24,-326.57 27,-323.57 30,-323.57 30,-323.57 135,-323.57 135,-323.57 138,-323.57 141,-326.57 141,-329.57 141,-329.57 141,-335.57 141,-335.57 141,-338.57 138,-341.57 135,-341.57"/>
<text text-anchor="middle" x="82.5" y="-330.37" font-family="Helvetica,sans-Serif" font-size="9.00">ArchiveMonthPage.tsx</text>
</a>
</g>
</g>
<!-- src/templates/ArchiveMonthPage.tsx&#45;&gt;src/templates/post&#45;list&#45;page.tsx -->
<g id="edge48" class="edge">
<title>src/templates/ArchiveMonthPage.tsx&#45;&gt;src/templates/post&#45;list&#45;page.tsx</title>
<path fill="none" stroke="#000000" stroke-width="2" stroke-opacity="0.200000" d="M132.22,-341.7C135.37,-343.35 138.34,-345.29 141,-347.57 152.03,-357.03 143.25,-367.79 154,-377.57 155.01,-378.49 156.08,-379.35 157.19,-380.16"/>
<polygon fill="#000000" fill-opacity="0.200000" stroke="#000000" stroke-width="2" stroke-opacity="0.200000" points="156.13,-381.98 162.32,-383.39 158.36,-378.42 156.13,-381.98"/>
</g>
<!-- src/templates/ArchiveYearPage.tsx -->
<g id="node58" class="node">
<title>src/templates/ArchiveYearPage.tsx</title>
<g id="a_node58"><a xlink:href="src/templates/ArchiveYearPage.tsx" xlink:title="ArchiveYearPage.tsx">
<path fill="#bbfeff" stroke="black" d="M130,-401.57C130,-401.57 35,-401.57 35,-401.57 32,-401.57 29,-398.57 29,-395.57 29,-395.57 29,-389.57 29,-389.57 29,-386.57 32,-383.57 35,-383.57 35,-383.57 130,-383.57 130,-383.57 133,-383.57 136,-386.57 136,-389.57 136,-389.57 136,-395.57 136,-395.57 136,-398.57 133,-401.57 130,-401.57"/>
<text text-anchor="middle" x="82.5" y="-390.37" font-family="Helvetica,sans-Serif" font-size="9.00">ArchiveYearPage.tsx</text>
</a>
</g>
</g>
<!-- src/templates/ArchiveYearPage.tsx&#45;&gt;src/templates/post&#45;list&#45;page.tsx -->
<g id="edge49" class="edge">
<title>src/templates/ArchiveYearPage.tsx&#45;&gt;src/templates/post&#45;list&#45;page.tsx</title>
<path fill="none" stroke="#000000" stroke-width="2" stroke-opacity="0.200000" d="M136.3,-392.57C140.17,-392.57 144.07,-392.57 147.94,-392.57"/>
<polygon fill="#000000" fill-opacity="0.200000" stroke="#000000" stroke-width="2" stroke-opacity="0.200000" points="147.98,-394.67 153.98,-392.57 147.98,-390.47 147.98,-394.67"/>
</g>
<!-- src/templates/BlogPost.tsx -->
<g id="node59" class="node">
<title>src/templates/BlogPost.tsx</title>
<g id="a_node59"><a xlink:href="src/templates/BlogPost.tsx" xlink:title="BlogPost.tsx">
<path fill="#bbfeff" stroke="black" d="M112,-311.57C112,-311.57 53,-311.57 53,-311.57 50,-311.57 47,-308.57 47,-305.57 47,-305.57 47,-299.57 47,-299.57 47,-296.57 50,-293.57 53,-293.57 53,-293.57 112,-293.57 112,-293.57 115,-293.57 118,-296.57 118,-299.57 118,-299.57 118,-305.57 118,-305.57 118,-308.57 115,-311.57 112,-311.57"/>
<text text-anchor="middle" x="82.5" y="-300.37" font-family="Helvetica,sans-Serif" font-size="9.00">BlogPost.tsx</text>
</a>
</g>
</g>
<!-- src/templates/BlogPost.tsx&#45;&gt;src/components/article&#45;elements/mdx&#45;components.tsx -->
<g id="edge50" class="edge">
<title>src/templates/BlogPost.tsx&#45;&gt;src/components/article&#45;elements/mdx&#45;components.tsx</title>
<path fill="none" stroke="#000000" stroke-width="2" stroke-opacity="0.200000" d="M118.12,-307.55C162.59,-314.61 236.38,-328.79 256,-347.57 380.3,-466.56 342.6,-547.69 370,-717.57 374.21,-743.68 365.48,-930.89 375,-955.57 386.51,-985.39 413.63,-1011.75 431.38,-1026.67"/>
<polygon fill="#000000" fill-opacity="0.200000" stroke="#000000" stroke-width="2" stroke-opacity="0.200000" points="430.15,-1028.38 436.12,-1030.57 432.82,-1025.13 430.15,-1028.38"/>
</g>
<!-- src/templates/BlogPost.tsx&#45;&gt;src/components/content/tags.tsx -->
<g id="edge51" class="edge">
<title>src/templates/BlogPost.tsx&#45;&gt;src/components/content/tags.tsx</title>
<path fill="none" stroke="#000000" stroke-width="2" stroke-opacity="0.200000" d="M118.46,-300.12C182.07,-297.86 315.21,-303.8 370,-386.57 382.85,-405.98 361,-786.97 375,-805.57 384.4,-818.07 400.67,-823.71 415.46,-826.17"/>
<polygon fill="#000000" fill-opacity="0.200000" stroke="#000000" stroke-width="2" stroke-opacity="0.200000" points="415.46,-828.29 421.69,-827.04 416.04,-824.13 415.46,-828.29"/>
</g>
<!-- src/templates/BlogPost.tsx&#45;&gt;src/utils/asserts&#45;non&#45;null.ts -->
<g id="edge52" class="edge">
<title>src/templates/BlogPost.tsx&#45;&gt;src/utils/asserts&#45;non&#45;null.ts</title>
<path fill="none" stroke="#000000" stroke-width="2" stroke-opacity="0.200000" d="M86.06,-293.54C100.28,-245.44 174.3,-21.57 320,-21.57 320,-21.57 320,-21.57 615.5,-21.57 726.03,-21.57 774.27,32.97 864,-31.57 872.11,-37.4 864.58,-45.89 872,-52.57 873.04,-53.51 874.14,-54.39 875.27,-55.22"/>
<polygon fill="#000000" fill-opacity="0.200000" stroke="#000000" stroke-width="2" stroke-opacity="0.200000" points="874.31,-57.09 880.51,-58.5 876.54,-53.54 874.31,-57.09"/>
</g>
<!-- src/templates/article&#45;page.tsx -->
<g id="node60" class="node">
<title>src/templates/article&#45;page.tsx</title>
<g id="a_node60"><a xlink:href="src/templates/article-page.tsx" xlink:title="article&#45;page.tsx">
<path fill="#bbfeff" stroke="black" d="M238,-371.57C238,-371.57 164,-371.57 164,-371.57 161,-371.57 158,-368.57 158,-365.57 158,-365.57 158,-359.57 158,-359.57 158,-356.57 161,-353.57 164,-353.57 164,-353.57 238,-353.57 238,-353.57 241,-353.57 244,-356.57 244,-359.57 244,-359.57 244,-365.57 244,-365.57 244,-368.57 241,-371.57 238,-371.57"/>
<text text-anchor="middle" x="201" y="-360.37" font-family="Helvetica,sans-Serif" font-size="9.00">article&#45;page.tsx</text>
</a>
</g>
</g>
<!-- src/templates/BlogPost.tsx&#45;&gt;src/templates/article&#45;page.tsx -->
<g id="edge53" class="edge">
<title>src/templates/BlogPost.tsx&#45;&gt;src/templates/article&#45;page.tsx</title>
<path fill="none" stroke="#000000" stroke-width="2" stroke-opacity="0.200000" d="M118.03,-306.49C126.22,-308.72 134.47,-312.19 141,-317.57 151.28,-326.03 144.23,-335.52 154,-344.57 156.44,-346.83 159.19,-348.82 162.11,-350.56"/>
<polygon fill="#000000" fill-opacity="0.200000" stroke="#000000" stroke-width="2" stroke-opacity="0.200000" points="161.22,-352.47 167.51,-353.45 163.21,-348.77 161.22,-352.47"/>
</g>
<!-- src/templates/article&#45;page.tsx&#45;&gt;src/components/content/article&#45;styles.ts -->
<g id="edge55" class="edge">
<title>src/templates/article&#45;page.tsx&#45;&gt;src/components/content/article&#45;styles.ts</title>
<path fill="none" stroke="#000000" stroke-width="2" stroke-opacity="0.200000" d="M244.04,-369.7C248.43,-371.71 252.54,-374.29 256,-377.57 371.62,-487.27 341.8,-560.71 370,-717.57 371.52,-726.05 369.45,-865.98 375,-872.57 381.49,-880.27 390.78,-884.68 400.57,-887.08"/>
<polygon fill="#000000" fill-opacity="0.200000" stroke="#000000" stroke-width="2" stroke-opacity="0.200000" points="400.42,-889.19 406.71,-888.33 401.25,-885.07 400.42,-889.19"/>
</g>
<!-- src/templates/article&#45;page.tsx&#45;&gt;src/components/layout/index.tsx -->
<g id="edge56" class="edge">
<title>src/templates/article&#45;page.tsx&#45;&gt;src/components/layout/index.tsx</title>
<path fill="none" stroke="#000000" stroke-width="2" stroke-opacity="0.200000" d="M244.06,-368.21C248.68,-370.46 252.84,-373.49 256,-377.57 271.81,-398.01 248.09,-822.21 264,-842.57 269.39,-849.47 277.57,-853.41 286.04,-855.61"/>
<polygon fill="#000000" fill-opacity="0.200000" stroke="#000000" stroke-width="2" stroke-opacity="0.200000" points="285.6,-857.66 291.91,-856.87 286.48,-853.56 285.6,-857.66"/>
</g>
<!-- src/templates/IndividualTagPage.tsx -->
<g id="node61" class="node">
<title>src/templates/IndividualTagPage.tsx</title>
<g id="a_node61"><a xlink:href="src/templates/IndividualTagPage.tsx" xlink:title="IndividualTagPage.tsx">
<path fill="#bbfeff" stroke="black" d="M133.5,-371.57C133.5,-371.57 31.5,-371.57 31.5,-371.57 28.5,-371.57 25.5,-368.57 25.5,-365.57 25.5,-365.57 25.5,-359.57 25.5,-359.57 25.5,-356.57 28.5,-353.57 31.5,-353.57 31.5,-353.57 133.5,-353.57 133.5,-353.57 136.5,-353.57 139.5,-356.57 139.5,-359.57 139.5,-359.57 139.5,-365.57 139.5,-365.57 139.5,-368.57 136.5,-371.57 133.5,-371.57"/>
<text text-anchor="middle" x="82.5" y="-360.37" font-family="Helvetica,sans-Serif" font-size="9.00">IndividualTagPage.tsx</text>
</a>
</g>
</g>
<!-- src/templates/IndividualTagPage.tsx&#45;&gt;src/templates/post&#45;list&#45;page.tsx -->
<g id="edge54" class="edge">
<title>src/templates/IndividualTagPage.tsx&#45;&gt;src/templates/post&#45;list&#45;page.tsx</title>
<path fill="none" stroke="#000000" stroke-width="2" stroke-opacity="0.200000" d="M118.45,-371.57C131.12,-374.83 145.56,-378.55 158.72,-381.94"/>
<polygon fill="#000000" fill-opacity="0.200000" stroke="#000000" stroke-width="2" stroke-opacity="0.200000" points="158.33,-384.01 164.67,-383.47 159.38,-379.94 158.33,-384.01"/>
</g>
<!-- src/utils/type&#45;utils.ts -->
<g id="node63" class="node">
<title>src/utils/type&#45;utils.ts</title>
<g id="a_node63"><a xlink:href="src/utils/type-utils.ts" xlink:title="type&#45;utils.ts">
<path fill="#ccffcc" stroke="black" d="M958.5,-46.57C958.5,-46.57 900.5,-46.57 900.5,-46.57 897.5,-46.57 894.5,-43.57 894.5,-40.57 894.5,-40.57 894.5,-34.57 894.5,-34.57 894.5,-31.57 897.5,-28.57 900.5,-28.57 900.5,-28.57 958.5,-28.57 958.5,-28.57 961.5,-28.57 964.5,-31.57 964.5,-34.57 964.5,-34.57 964.5,-40.57 964.5,-40.57 964.5,-43.57 961.5,-46.57 958.5,-46.57"/>
<text text-anchor="middle" x="929.5" y="-35.37" font-family="Helvetica,sans-Serif" font-size="9.00">type&#45;utils.ts</text>
</a>
</g>
</g>
</g>
</svg>
