<?xml version="1.0" encoding="UTF-8" standalone="no"?>
<!DOCTYPE svg PUBLIC "-//W3C//DTD SVG 1.1//EN"
 "http://www.w3.org/Graphics/SVG/1.1/DTD/svg11.dtd">
<!-- Generated by graphviz version 2.43.0 (0)
 -->
<!-- Title: dependency&#45;cruiser output Pages: 1 -->
<svg width="940pt" height="1096pt"
 viewBox="0.00 0.00 940.00 1096.33" xmlns="http://www.w3.org/2000/svg" xmlns:xlink="http://www.w3.org/1999/xlink">
<g id="graph0" class="graph" transform="scale(1 1) rotate(0) translate(4 1092.33)">
<title>dependency&#45;cruiser output</title>
<polygon fill="white" stroke="transparent" points="-4,4 -4,-1092.33 936,-1092.33 936,4 -4,4"/>
<g id="clust1" class="cluster">
<title>cluster_src</title>
<path fill="#ffffff" stroke="black" stroke-width="2" d="M20,-26.33C20,-26.33 912,-26.33 912,-26.33 918,-26.33 924,-32.33 924,-38.33 924,-38.33 924,-1068.33 924,-1068.33 924,-1074.33 918,-1080.33 912,-1080.33 912,-1080.33 20,-1080.33 20,-1080.33 14,-1080.33 8,-1074.33 8,-1068.33 8,-1068.33 8,-38.33 8,-38.33 8,-32.33 14,-26.33 20,-26.33"/>
<text text-anchor="middle" x="466" y="-1069.13" font-family="Helvetica,sans-Serif" font-weight="bold" font-size="9.00">src</text>
</g>
<g id="clust2" class="cluster">
<title>cluster_src/@types</title>
<path fill="#ffffff" stroke="black" stroke-width="2" d="M43.5,-694.33C43.5,-694.33 121.5,-694.33 121.5,-694.33 127.5,-694.33 133.5,-700.33 133.5,-706.33 133.5,-706.33 133.5,-734.33 133.5,-734.33 133.5,-740.33 127.5,-746.33 121.5,-746.33 121.5,-746.33 43.5,-746.33 43.5,-746.33 37.5,-746.33 31.5,-740.33 31.5,-734.33 31.5,-734.33 31.5,-706.33 31.5,-706.33 31.5,-700.33 37.5,-694.33 43.5,-694.33"/>
<text text-anchor="middle" x="82.5" y="-735.13" font-family="Helvetica,sans-Serif" font-weight="bold" font-size="9.00">@types</text>
</g>
<g id="clust3" class="cluster">
<title>cluster_src/components</title>
<path fill="#ffffff" stroke="black" stroke-width="2" d="M276,-78.33C276,-78.33 834,-78.33 834,-78.33 840,-78.33 846,-84.33 846,-90.33 846,-90.33 846,-482.33 846,-482.33 846,-488.33 840,-494.33 834,-494.33 834,-494.33 276,-494.33 276,-494.33 270,-494.33 264,-488.33 264,-482.33 264,-482.33 264,-90.33 264,-90.33 264,-84.33 270,-78.33 276,-78.33"/>
<text text-anchor="middle" x="555" y="-483.13" font-family="Helvetica,sans-Serif" font-weight="bold" font-size="9.00">components</text>
</g>
<g id="clust4" class="cluster">
<title>cluster_src/components/article&#45;elements</title>
<path fill="#ffffff" stroke="black" stroke-width="2" d="M576.5,-236.33C576.5,-236.33 652.5,-236.33 652.5,-236.33 658.5,-236.33 664.5,-242.33 664.5,-248.33 664.5,-248.33 664.5,-276.33 664.5,-276.33 664.5,-282.33 658.5,-288.33 652.5,-288.33 652.5,-288.33 576.5,-288.33 576.5,-288.33 570.5,-288.33 564.5,-282.33 564.5,-276.33 564.5,-276.33 564.5,-248.33 564.5,-248.33 564.5,-242.33 570.5,-236.33 576.5,-236.33"/>
<text text-anchor="middle" x="614.5" y="-277.13" font-family="Helvetica,sans-Serif" font-weight="bold" font-size="9.00">article&#45;elements</text>
</g>
<g id="clust5" class="cluster">
<title>cluster_src/components/article</title>
<path fill="#ffffff" stroke="black" stroke-width="2" d="M296,-406.33C296,-406.33 346,-406.33 346,-406.33 352,-406.33 358,-412.33 358,-418.33 358,-418.33 358,-446.33 358,-446.33 358,-452.33 352,-458.33 346,-458.33 346,-458.33 296,-458.33 296,-458.33 290,-458.33 284,-452.33 284,-446.33 284,-446.33 284,-418.33 284,-418.33 284,-412.33 290,-406.33 296,-406.33"/>
<text text-anchor="middle" x="321" y="-447.13" font-family="Helvetica,sans-Serif" font-weight="bold" font-size="9.00">article</text>
</g>
<g id="clust6" class="cluster">
<title>cluster_src/components/atoms</title>
<path fill="#ffffff" stroke="black" stroke-width="2" d="M731,-236.33C731,-236.33 826,-236.33 826,-236.33 832,-236.33 838,-242.33 838,-248.33 838,-248.33 838,-306.33 838,-306.33 838,-312.33 832,-318.33 826,-318.33 826,-318.33 731,-318.33 731,-318.33 725,-318.33 719,-312.33 719,-306.33 719,-306.33 719,-248.33 719,-248.33 719,-242.33 725,-236.33 731,-236.33"/>
<text text-anchor="middle" x="778.5" y="-307.13" font-family="Helvetica,sans-Serif" font-weight="bold" font-size="9.00">atoms</text>
</g>
<g id="clust7" class="cluster">
<title>cluster_src/components/content</title>
<path fill="#ffffff" stroke="black" stroke-width="2" d="M406,-176.33C406,-176.33 492,-176.33 492,-176.33 498,-176.33 504,-182.33 504,-188.33 504,-188.33 504,-336.33 504,-336.33 504,-342.33 498,-348.33 492,-348.33 492,-348.33 406,-348.33 406,-348.33 400,-348.33 394,-342.33 394,-336.33 394,-336.33 394,-188.33 394,-188.33 394,-182.33 400,-176.33 406,-176.33"/>
<text text-anchor="middle" x="449" y="-337.13" font-family="Helvetica,sans-Serif" font-weight="bold" font-size="9.00">content</text>
</g>
<g id="clust8" class="cluster">
<title>cluster_src/components/embeddeds</title>
<path fill="#ffffff" stroke="black" stroke-width="2" d="M289.5,-346.33C289.5,-346.33 352.5,-346.33 352.5,-346.33 358.5,-346.33 364.5,-352.33 364.5,-358.33 364.5,-358.33 364.5,-386.33 364.5,-386.33 364.5,-392.33 358.5,-398.33 352.5,-398.33 352.5,-398.33 289.5,-398.33 289.5,-398.33 283.5,-398.33 277.5,-392.33 277.5,-386.33 277.5,-386.33 277.5,-358.33 277.5,-358.33 277.5,-352.33 283.5,-346.33 289.5,-346.33"/>
<text text-anchor="middle" x="321" y="-387.13" font-family="Helvetica,sans-Serif" font-weight="bold" font-size="9.00">embeddeds</text>
</g>
<g id="clust9" class="cluster">
<title>cluster_src/components/header</title>
<path fill="#ffffff" stroke="black" stroke-width="2" d="M424,-356.33C424,-356.33 474,-356.33 474,-356.33 480,-356.33 486,-362.33 486,-368.33 486,-368.33 486,-396.33 486,-396.33 486,-402.33 480,-408.33 474,-408.33 474,-408.33 424,-408.33 424,-408.33 418,-408.33 412,-402.33 412,-396.33 412,-396.33 412,-368.33 412,-368.33 412,-362.33 418,-356.33 424,-356.33"/>
<text text-anchor="middle" x="449" y="-397.13" font-family="Helvetica,sans-Serif" font-weight="bold" font-size="9.00">header</text>
</g>
<g id="clust10" class="cluster">
<title>cluster_src/components/layout</title>
<path fill="#ffffff" stroke="black" stroke-width="2" d="M284,-256.33C284,-256.33 358,-256.33 358,-256.33 364,-256.33 370,-262.33 370,-268.33 370,-268.33 370,-326.33 370,-326.33 370,-332.33 364,-338.33 358,-338.33 358,-338.33 284,-338.33 284,-338.33 278,-338.33 272,-332.33 272,-326.33 272,-326.33 272,-268.33 272,-268.33 272,-262.33 278,-256.33 284,-256.33"/>
<text text-anchor="middle" x="321" y="-327.13" font-family="Helvetica,sans-Serif" font-weight="bold" font-size="9.00">layout</text>
</g>
<g id="clust11" class="cluster">
<title>cluster_src/components/post&#45;link</title>
<path fill="#ffffff" stroke="black" stroke-width="2" d="M291,-86.33C291,-86.33 648.5,-86.33 648.5,-86.33 654.5,-86.33 660.5,-92.33 660.5,-98.33 660.5,-98.33 660.5,-156.33 660.5,-156.33 660.5,-162.33 654.5,-168.33 648.5,-168.33 648.5,-168.33 291,-168.33 291,-168.33 285,-168.33 279,-162.33 279,-156.33 279,-156.33 279,-98.33 279,-98.33 279,-92.33 285,-86.33 291,-86.33"/>
<text text-anchor="middle" x="469.75" y="-157.13" font-family="Helvetica,sans-Serif" font-weight="bold" font-size="9.00">post&#45;link</text>
</g>
<g id="clust12" class="cluster">
<title>cluster_src/components/table&#45;of&#45;contents</title>
<path fill="#ffffff" stroke="black" stroke-width="2" d="M409,-416.33C409,-416.33 490,-416.33 490,-416.33 496,-416.33 502,-422.33 502,-428.33 502,-428.33 502,-456.33 502,-456.33 502,-462.33 496,-468.33 490,-468.33 490,-468.33 409,-468.33 409,-468.33 403,-468.33 397,-462.33 397,-456.33 397,-456.33 397,-428.33 397,-428.33 397,-422.33 403,-416.33 409,-416.33"/>
<text text-anchor="middle" x="449.5" y="-457.13" font-family="Helvetica,sans-Serif" font-weight="bold" font-size="9.00">table&#45;of&#45;contents</text>
</g>
<g id="clust13" class="cluster">
<title>cluster_src/gatsby</title>
<path fill="#ffffff" stroke="black" stroke-width="2" d="M387,-702.33C387,-702.33 699,-702.33 699,-702.33 705,-702.33 711,-708.33 711,-714.33 711,-714.33 711,-892.33 711,-892.33 711,-898.33 705,-904.33 699,-904.33 699,-904.33 387,-904.33 387,-904.33 381,-904.33 375,-898.33 375,-892.33 375,-892.33 375,-714.33 375,-714.33 375,-708.33 381,-702.33 387,-702.33"/>
<text text-anchor="middle" x="543" y="-893.13" font-family="Helvetica,sans-Serif" font-weight="bold" font-size="9.00">gatsby</text>
</g>
<g id="clust14" class="cluster">
<title>cluster_src/gatsby/browser</title>
<path fill="#ffffff" stroke="black" stroke-width="2" d="M395,-826.33C395,-826.33 503,-826.33 503,-826.33 509,-826.33 515,-832.33 515,-838.33 515,-838.33 515,-866.33 515,-866.33 515,-872.33 509,-878.33 503,-878.33 503,-878.33 395,-878.33 395,-878.33 389,-878.33 383,-872.33 383,-866.33 383,-866.33 383,-838.33 383,-838.33 383,-832.33 389,-826.33 395,-826.33"/>
<text text-anchor="middle" x="449" y="-867.13" font-family="Helvetica,sans-Serif" font-weight="bold" font-size="9.00">browser</text>
</g>
<g id="clust15" class="cluster">
<title>cluster_src/gatsby/node</title>
<path fill="#ffffff" stroke="black" stroke-width="2" d="M538,-721.33C538,-721.33 691,-721.33 691,-721.33 697,-721.33 703,-727.33 703,-733.33 703,-733.33 703,-791.33 703,-791.33 703,-797.33 697,-803.33 691,-803.33 691,-803.33 538,-803.33 538,-803.33 532,-803.33 526,-797.33 526,-791.33 526,-791.33 526,-733.33 526,-733.33 526,-727.33 532,-721.33 538,-721.33"/>
<text text-anchor="middle" x="614.5" y="-792.13" font-family="Helvetica,sans-Serif" font-weight="bold" font-size="9.00">node</text>
</g>
<g id="clust16" class="cluster">
<title>cluster_src/hooks</title>
<path fill="#ffffff" stroke="black" stroke-width="2" d="M554,-512.33C554,-512.33 675,-512.33 675,-512.33 681,-512.33 687,-518.33 687,-524.33 687,-524.33 687,-582.33 687,-582.33 687,-588.33 681,-594.33 675,-594.33 675,-594.33 554,-594.33 554,-594.33 548,-594.33 542,-588.33 542,-582.33 542,-582.33 542,-524.33 542,-524.33 542,-518.33 548,-512.33 554,-512.33"/>
<text text-anchor="middle" x="614.5" y="-583.13" font-family="Helvetica,sans-Serif" font-weight="bold" font-size="9.00">hooks</text>
</g>
<g id="clust17" class="cluster">
<title>cluster_src/libs</title>
<path fill="#ffffff" stroke="black" stroke-width="2" d="M580,-912.33C580,-912.33 904,-912.33 904,-912.33 910,-912.33 916,-918.33 916,-924.33 916,-924.33 916,-1042.33 916,-1042.33 916,-1048.33 910,-1054.33 904,-1054.33 904,-1054.33 580,-1054.33 580,-1054.33 574,-1054.33 568,-1048.33 568,-1042.33 568,-1042.33 568,-924.33 568,-924.33 568,-918.33 574,-912.33 580,-912.33"/>
<text text-anchor="middle" x="742" y="-1043.13" font-family="Helvetica,sans-Serif" font-weight="bold" font-size="9.00">libs</text>
</g>
<g id="clust18" class="cluster">
<title>cluster_src/pages</title>
<path fill="#ffffff" stroke="black" stroke-width="2" d="M57.5,-256.33C57.5,-256.33 107.5,-256.33 107.5,-256.33 113.5,-256.33 119.5,-262.33 119.5,-268.33 119.5,-268.33 119.5,-356.33 119.5,-356.33 119.5,-362.33 113.5,-368.33 107.5,-368.33 107.5,-368.33 57.5,-368.33 57.5,-368.33 51.5,-368.33 45.5,-362.33 45.5,-356.33 45.5,-356.33 45.5,-268.33 45.5,-268.33 45.5,-262.33 51.5,-256.33 57.5,-256.33"/>
<text text-anchor="middle" x="82.5" y="-357.13" font-family="Helvetica,sans-Serif" font-weight="bold" font-size="9.00">pages</text>
</g>
<g id="clust19" class="cluster">
<title>cluster_src/styles</title>
<path fill="#ffffff" stroke="black" stroke-width="2" d="M408.5,-602.33C408.5,-602.33 637.5,-602.33 637.5,-602.33 643.5,-602.33 649.5,-608.33 649.5,-614.33 649.5,-614.33 649.5,-672.33 649.5,-672.33 649.5,-678.33 643.5,-684.33 637.5,-684.33 637.5,-684.33 408.5,-684.33 408.5,-684.33 402.5,-684.33 396.5,-678.33 396.5,-672.33 396.5,-672.33 396.5,-614.33 396.5,-614.33 396.5,-608.33 402.5,-602.33 408.5,-602.33"/>
<text text-anchor="middle" x="523" y="-673.13" font-family="Helvetica,sans-Serif" font-weight="bold" font-size="9.00">styles</text>
</g>
<g id="clust20" class="cluster">
<title>cluster_src/templates</title>
<path fill="#ffffff" stroke="black" stroke-width="2" d="M28,-56.33C28,-56.33 244,-56.33 244,-56.33 250,-56.33 256,-62.33 256,-68.33 256,-68.33 256,-216.33 256,-216.33 256,-222.33 250,-228.33 244,-228.33 244,-228.33 28,-228.33 28,-228.33 22,-228.33 16,-222.33 16,-216.33 16,-216.33 16,-68.33 16,-68.33 16,-62.33 22,-56.33 28,-56.33"/>
<text text-anchor="middle" x="136" y="-217.13" font-family="Helvetica,sans-Serif" font-weight="bold" font-size="9.00">templates</text>
</g>
<g id="clust21" class="cluster">
<title>cluster_src/utils</title>
<path fill="#ffffff" stroke="black" stroke-width="2" d="M733,-579.33C733,-579.33 904,-579.33 904,-579.33 910,-579.33 916,-585.33 916,-591.33 916,-591.33 916,-649.33 916,-649.33 916,-655.33 910,-661.33 904,-661.33 904,-661.33 733,-661.33 733,-661.33 727,-661.33 721,-655.33 721,-649.33 721,-649.33 721,-591.33 721,-591.33 721,-585.33 727,-579.33 733,-579.33"/>
<text text-anchor="middle" x="818.5" y="-650.13" font-family="Helvetica,sans-Serif" font-weight="bold" font-size="9.00">utils</text>
</g>
<!-- src/@types/tailwindcss.d.ts -->
<g id="node1" class="node">
<title>src/@types/tailwindcss.d.ts</title>
<g id="a_node1"><a xlink:href="src/@types/tailwindcss.d.ts" xlink:title="tailwindcss.d.ts">
<path fill="#ccffcc" stroke="black" d="M119.5,-720.33C119.5,-720.33 45.5,-720.33 45.5,-720.33 42.5,-720.33 39.5,-717.33 39.5,-714.33 39.5,-714.33 39.5,-708.33 39.5,-708.33 39.5,-705.33 42.5,-702.33 45.5,-702.33 45.5,-702.33 119.5,-702.33 119.5,-702.33 122.5,-702.33 125.5,-705.33 125.5,-708.33 125.5,-708.33 125.5,-714.33 125.5,-714.33 125.5,-717.33 122.5,-720.33 119.5,-720.33"/>
<text text-anchor="middle" x="82.5" y="-709.13" font-family="Helvetica,sans-Serif" font-size="9.00">tailwindcss.d.ts</text>
</a>
</g>
</g>
<!-- src/components/article&#45;elements/index.tsx -->
<g id="node2" class="node">
<title>src/components/article&#45;elements/index.tsx</title>
<g id="a_node2"><a xlink:href="src/components/article-elements/index.tsx" xlink:title="index.tsx">
<path fill="#bbfeff" stroke="black" d="M637.5,-262.33C637.5,-262.33 591.5,-262.33 591.5,-262.33 588.5,-262.33 585.5,-259.33 585.5,-256.33 585.5,-256.33 585.5,-250.33 585.5,-250.33 585.5,-247.33 588.5,-244.33 591.5,-244.33 591.5,-244.33 637.5,-244.33 637.5,-244.33 640.5,-244.33 643.5,-247.33 643.5,-250.33 643.5,-250.33 643.5,-256.33 643.5,-256.33 643.5,-259.33 640.5,-262.33 637.5,-262.33"/>
<text text-anchor="middle" x="614.5" y="-251.13" font-family="Helvetica,sans-Serif" font-size="9.00">index.tsx</text>
</a>
</g>
</g>
<!-- src/components/atoms/anchor&#45;or&#45;link.tsx -->
<g id="node3" class="node">
<title>src/components/atoms/anchor&#45;or&#45;link.tsx</title>
<g id="a_node3"><a xlink:href="src/components/atoms/anchor-or-link.tsx" xlink:title="anchor&#45;or&#45;link.tsx">
<path fill="#bbfeff" stroke="black" d="M820,-292.33C820,-292.33 737,-292.33 737,-292.33 734,-292.33 731,-289.33 731,-286.33 731,-286.33 731,-280.33 731,-280.33 731,-277.33 734,-274.33 737,-274.33 737,-274.33 820,-274.33 820,-274.33 823,-274.33 826,-277.33 826,-280.33 826,-280.33 826,-286.33 826,-286.33 826,-289.33 823,-292.33 820,-292.33"/>
<text text-anchor="middle" x="778.5" y="-281.13" font-family="Helvetica,sans-Serif" font-size="9.00">anchor&#45;or&#45;link.tsx</text>
</a>
</g>
</g>
<!-- src/components/article&#45;elements/index.tsx&#45;&gt;src/components/atoms/anchor&#45;or&#45;link.tsx -->
<g id="edge1" class="edge">
<title>src/components/article&#45;elements/index.tsx&#45;&gt;src/components/atoms/anchor&#45;or&#45;link.tsx</title>
<path fill="none" stroke="#000000" stroke-width="2" stroke-opacity="0.200000" d="M643.72,-258.56C666.05,-262.7 697.87,-268.59 724.87,-273.59"/>
<polygon fill="#000000" fill-opacity="0.200000" stroke="#000000" stroke-width="2" stroke-opacity="0.200000" points="724.63,-275.68 730.91,-274.71 725.39,-271.55 724.63,-275.68"/>
</g>
<!-- src/components/atoms/autolink&#45;header.tsx -->
<g id="node4" class="node">
<title>src/components/atoms/autolink&#45;header.tsx</title>
<g id="a_node4"><a xlink:href="src/components/atoms/autolink-header.tsx" xlink:title="autolink&#45;header.tsx">
<path fill="#bbfeff" stroke="black" d="M824,-262.33C824,-262.33 733,-262.33 733,-262.33 730,-262.33 727,-259.33 727,-256.33 727,-256.33 727,-250.33 727,-250.33 727,-247.33 730,-244.33 733,-244.33 733,-244.33 824,-244.33 824,-244.33 827,-244.33 830,-247.33 830,-250.33 830,-250.33 830,-256.33 830,-256.33 830,-259.33 827,-262.33 824,-262.33"/>
<text text-anchor="middle" x="778.5" y="-251.13" font-family="Helvetica,sans-Serif" font-size="9.00">autolink&#45;header.tsx</text>
</a>
</g>
</g>
<!-- src/components/article&#45;elements/index.tsx&#45;&gt;src/components/atoms/autolink&#45;header.tsx -->
<g id="edge2" class="edge">
<title>src/components/article&#45;elements/index.tsx&#45;&gt;src/components/atoms/autolink&#45;header.tsx</title>
<path fill="none" stroke="#000000" stroke-width="2" stroke-opacity="0.200000" d="M643.72,-253.33C664.87,-253.33 694.52,-253.33 720.53,-253.33"/>
<polygon fill="#000000" fill-opacity="0.200000" stroke="#000000" stroke-width="2" stroke-opacity="0.200000" points="720.71,-255.43 726.71,-253.33 720.71,-251.23 720.71,-255.43"/>
</g>
<!-- src/components/article/index.tsx -->
<g id="node5" class="node">
<title>src/components/article/index.tsx</title>
<g id="a_node5"><a xlink:href="src/components/article/index.tsx" xlink:title="index.tsx">
<path fill="#bbfeff" stroke="black" d="M344,-432.33C344,-432.33 298,-432.33 298,-432.33 295,-432.33 292,-429.33 292,-426.33 292,-426.33 292,-420.33 292,-420.33 292,-417.33 295,-414.33 298,-414.33 298,-414.33 344,-414.33 344,-414.33 347,-414.33 350,-417.33 350,-420.33 350,-420.33 350,-426.33 350,-426.33 350,-429.33 347,-432.33 344,-432.33"/>
<text text-anchor="middle" x="321" y="-421.13" font-family="Helvetica,sans-Serif" font-size="9.00">index.tsx</text>
</a>
</g>
</g>
<!-- src/components/content/article&#45;styles.ts -->
<g id="node6" class="node">
<title>src/components/content/article&#45;styles.ts</title>
<g id="a_node6"><a xlink:href="src/components/content/article-styles.ts" xlink:title="article&#45;styles.ts">
<path fill="#ddfeff" stroke="black" d="M485,-262.33C485,-262.33 413,-262.33 413,-262.33 410,-262.33 407,-259.33 407,-256.33 407,-256.33 407,-250.33 407,-250.33 407,-247.33 410,-244.33 413,-244.33 413,-244.33 485,-244.33 485,-244.33 488,-244.33 491,-247.33 491,-250.33 491,-250.33 491,-256.33 491,-256.33 491,-259.33 488,-262.33 485,-262.33"/>
<text text-anchor="middle" x="449" y="-251.13" font-family="Helvetica,sans-Serif" font-size="9.00">article&#45;styles.ts</text>
</a>
</g>
</g>
<!-- src/components/article/index.tsx&#45;&gt;src/components/content/article&#45;styles.ts -->
<g id="edge3" class="edge">
<title>src/components/article/index.tsx&#45;&gt;src/components/content/article&#45;styles.ts</title>
<path fill="none" stroke="#000000" stroke-width="2" stroke-opacity="0.200000" d="M350.09,-416.45C357.8,-413.16 365.31,-408.35 370,-401.33 378.22,-389.04 365.44,-279.62 375,-268.33 381.51,-260.65 390.81,-256.25 400.6,-253.85"/>
<polygon fill="#000000" fill-opacity="0.200000" stroke="#000000" stroke-width="2" stroke-opacity="0.200000" points="401.28,-255.86 406.74,-252.6 400.45,-251.74 401.28,-255.86"/>
</g>
<!-- src/components/content/article&#45;styles.ts&#45;&gt;src/components/article&#45;elements/index.tsx -->
<g id="edge4" class="edge">
<title>src/components/content/article&#45;styles.ts&#45;&gt;src/components/article&#45;elements/index.tsx</title>
<path fill="none" stroke="#000000" stroke-width="2" stroke-opacity="0.200000" d="M491.26,-253.33C518.38,-253.33 553.46,-253.33 579.08,-253.33"/>
<polygon fill="#000000" fill-opacity="0.200000" stroke="#000000" stroke-width="2" stroke-opacity="0.200000" points="579.38,-255.43 585.38,-253.33 579.38,-251.23 579.38,-255.43"/>
</g>
<!-- src/components/content/breadcrumbs.tsx -->
<g id="node7" class="node">
<title>src/components/content/breadcrumbs.tsx</title>
<g id="a_node7"><a xlink:href="src/components/content/breadcrumbs.tsx" xlink:title="breadcrumbs.tsx">
<path fill="#bbfeff" stroke="black" d="M490,-322.33C490,-322.33 408,-322.33 408,-322.33 405,-322.33 402,-319.33 402,-316.33 402,-316.33 402,-310.33 402,-310.33 402,-307.33 405,-304.33 408,-304.33 408,-304.33 490,-304.33 490,-304.33 493,-304.33 496,-307.33 496,-310.33 496,-310.33 496,-316.33 496,-316.33 496,-319.33 493,-322.33 490,-322.33"/>
<text text-anchor="middle" x="449" y="-311.13" font-family="Helvetica,sans-Serif" font-size="9.00">breadcrumbs.tsx</text>
</a>
</g>
</g>
<!-- src/styles/styles.ts -->
<g id="node8" class="node">
<title>src/styles/styles.ts</title>
<g id="a_node8"><a xlink:href="src/styles/styles.ts" xlink:title="styles.ts">
<path fill="#ddfeff" stroke="black" d="M635.5,-628.33C635.5,-628.33 593.5,-628.33 593.5,-628.33 590.5,-628.33 587.5,-625.33 587.5,-622.33 587.5,-622.33 587.5,-616.33 587.5,-616.33 587.5,-613.33 590.5,-610.33 593.5,-610.33 593.5,-610.33 635.5,-610.33 635.5,-610.33 638.5,-610.33 641.5,-613.33 641.5,-616.33 641.5,-616.33 641.5,-622.33 641.5,-622.33 641.5,-625.33 638.5,-628.33 635.5,-628.33"/>
<text text-anchor="middle" x="614.5" y="-617.13" font-family="Helvetica,sans-Serif" font-size="9.00">styles.ts</text>
</a>
</g>
</g>
<!-- src/components/content/breadcrumbs.tsx&#45;&gt;src/styles/styles.ts -->
<g id="edge5" class="edge">
<title>src/components/content/breadcrumbs.tsx&#45;&gt;src/styles/styles.ts</title>
<path fill="none" stroke="#000000" stroke-width="2" stroke-opacity="0.200000" d="M476.05,-322.37C490.15,-328.72 506.4,-338.72 515,-353.33 528.77,-376.72 508.84,-576.31 526,-597.33 539.08,-613.36 561.96,-618.7 581.04,-620.12"/>
<polygon fill="#000000" fill-opacity="0.200000" stroke="#000000" stroke-width="2" stroke-opacity="0.200000" points="581.24,-622.24 587.34,-620.47 581.46,-618.04 581.24,-622.24"/>
</g>
<!-- src/components/content/footer.tsx -->
<g id="node9" class="node">
<title>src/components/content/footer.tsx</title>
<g id="a_node9"><a xlink:href="src/components/content/footer.tsx" xlink:title="footer.tsx">
<path fill="#bbfeff" stroke="black" d="M472.5,-292.33C472.5,-292.33 425.5,-292.33 425.5,-292.33 422.5,-292.33 419.5,-289.33 419.5,-286.33 419.5,-286.33 419.5,-280.33 419.5,-280.33 419.5,-277.33 422.5,-274.33 425.5,-274.33 425.5,-274.33 472.5,-274.33 472.5,-274.33 475.5,-274.33 478.5,-277.33 478.5,-280.33 478.5,-280.33 478.5,-286.33 478.5,-286.33 478.5,-289.33 475.5,-292.33 472.5,-292.33"/>
<text text-anchor="middle" x="449" y="-281.13" font-family="Helvetica,sans-Serif" font-size="9.00">footer.tsx</text>
</a>
</g>
</g>
<!-- src/hooks/use&#45;site.ts -->
<g id="node10" class="node">
<title>src/hooks/use&#45;site.ts</title>
<g id="a_node10"><a xlink:href="src/hooks/use-site.ts" xlink:title="use&#45;site.ts">
<path fill="#ddfeff" stroke="black" d="M639.5,-568.33C639.5,-568.33 589.5,-568.33 589.5,-568.33 586.5,-568.33 583.5,-565.33 583.5,-562.33 583.5,-562.33 583.5,-556.33 583.5,-556.33 583.5,-553.33 586.5,-550.33 589.5,-550.33 589.5,-550.33 639.5,-550.33 639.5,-550.33 642.5,-550.33 645.5,-553.33 645.5,-556.33 645.5,-556.33 645.5,-562.33 645.5,-562.33 645.5,-565.33 642.5,-568.33 639.5,-568.33"/>
<text text-anchor="middle" x="614.5" y="-557.13" font-family="Helvetica,sans-Serif" font-size="9.00">use&#45;site.ts</text>
</a>
</g>
</g>
<!-- src/components/content/footer.tsx&#45;&gt;src/hooks/use&#45;site.ts -->
<g id="edge6" class="edge">
<title>src/components/content/footer.tsx&#45;&gt;src/hooks/use&#45;site.ts</title>
<path fill="none" stroke="#000000" stroke-width="2" stroke-opacity="0.200000" d="M478.68,-282.56C491.76,-283.82 506.26,-287.83 515,-298.33 532.51,-319.36 507.9,-523.82 526,-544.33 538.55,-558.56 559.26,-562.57 577.38,-562.91"/>
<polygon fill="#000000" fill-opacity="0.200000" stroke="#000000" stroke-width="2" stroke-opacity="0.200000" points="577.42,-565.01 583.41,-562.89 577.4,-560.81 577.42,-565.01"/>
</g>
<!-- src/utils/asserts&#45;non&#45;null.ts -->
<g id="node31" class="node">
<title>src/utils/asserts&#45;non&#45;null.ts</title>
<g id="a_node31"><a xlink:href="src/utils/asserts-non-null.ts" xlink:title="asserts&#45;non&#45;null.ts">
<path fill="#ddfeff" stroke="black" d="M822,-635.33C822,-635.33 735,-635.33 735,-635.33 732,-635.33 729,-632.33 729,-629.33 729,-629.33 729,-623.33 729,-623.33 729,-620.33 732,-617.33 735,-617.33 735,-617.33 822,-617.33 822,-617.33 825,-617.33 828,-620.33 828,-623.33 828,-623.33 828,-629.33 828,-629.33 828,-632.33 825,-635.33 822,-635.33"/>
<text text-anchor="middle" x="778.5" y="-624.13" font-family="Helvetica,sans-Serif" font-size="9.00">asserts&#45;non&#45;null.ts</text>
</a>
</g>
</g>
<!-- src/hooks/use&#45;site.ts&#45;&gt;src/utils/asserts&#45;non&#45;null.ts -->
<g id="edge23" class="edge">
<title>src/hooks/use&#45;site.ts&#45;&gt;src/utils/asserts&#45;non&#45;null.ts</title>
<path fill="none" stroke="#000000" stroke-width="2" stroke-opacity="0.200000" d="M645.91,-567.07C665.99,-573.31 692,-583.66 711,-599.33 715.94,-603.41 713.77,-607.63 719,-611.33 720.62,-612.49 722.33,-613.55 724.1,-614.53"/>
<polygon fill="#000000" fill-opacity="0.200000" stroke="#000000" stroke-width="2" stroke-opacity="0.200000" points="723.25,-616.45 729.55,-617.24 725.11,-612.69 723.25,-616.45"/>
</g>
<!-- src/components/content/header.tsx -->
<g id="node11" class="node">
<title>src/components/content/header.tsx</title>
<g id="a_node11"><a xlink:href="src/components/content/header.tsx" xlink:title="header.tsx">
<path fill="#bbfeff" stroke="black" d="M475,-232.33C475,-232.33 423,-232.33 423,-232.33 420,-232.33 417,-229.33 417,-226.33 417,-226.33 417,-220.33 417,-220.33 417,-217.33 420,-214.33 423,-214.33 423,-214.33 475,-214.33 475,-214.33 478,-214.33 481,-217.33 481,-220.33 481,-220.33 481,-226.33 481,-226.33 481,-229.33 478,-232.33 475,-232.33"/>
<text text-anchor="middle" x="449" y="-221.13" font-family="Helvetica,sans-Serif" font-size="9.00">header.tsx</text>
</a>
</g>
</g>
<!-- src/components/content/tags.tsx -->
<g id="node12" class="node">
<title>src/components/content/tags.tsx</title>
<g id="a_node12"><a xlink:href="src/components/content/tags.tsx" xlink:title="tags.tsx">
<path fill="#bbfeff" stroke="black" d="M470,-202.33C470,-202.33 428,-202.33 428,-202.33 425,-202.33 422,-199.33 422,-196.33 422,-196.33 422,-190.33 422,-190.33 422,-187.33 425,-184.33 428,-184.33 428,-184.33 470,-184.33 470,-184.33 473,-184.33 476,-187.33 476,-190.33 476,-190.33 476,-196.33 476,-196.33 476,-199.33 473,-202.33 470,-202.33"/>
<text text-anchor="middle" x="449" y="-191.13" font-family="Helvetica,sans-Serif" font-size="9.00">tags.tsx</text>
</a>
</g>
</g>
<!-- src/components/embeddeds/niconico.tsx -->
<g id="node13" class="node">
<title>src/components/embeddeds/niconico.tsx</title>
<g id="a_node13"><a xlink:href="src/components/embeddeds/niconico.tsx" xlink:title="niconico.tsx">
<path fill="#ccffcc" stroke="black" d="M350.5,-372.33C350.5,-372.33 291.5,-372.33 291.5,-372.33 288.5,-372.33 285.5,-369.33 285.5,-366.33 285.5,-366.33 285.5,-360.33 285.5,-360.33 285.5,-357.33 288.5,-354.33 291.5,-354.33 291.5,-354.33 350.5,-354.33 350.5,-354.33 353.5,-354.33 356.5,-357.33 356.5,-360.33 356.5,-360.33 356.5,-366.33 356.5,-366.33 356.5,-369.33 353.5,-372.33 350.5,-372.33"/>
<text text-anchor="middle" x="321" y="-361.13" font-family="Helvetica,sans-Serif" font-size="9.00">niconico.tsx</text>
</a>
</g>
</g>
<!-- src/components/header/index.tsx -->
<g id="node14" class="node">
<title>src/components/header/index.tsx</title>
<g id="a_node14"><a xlink:href="src/components/header/index.tsx" xlink:title="index.tsx">
<path fill="#bbfeff" stroke="black" d="M472,-382.33C472,-382.33 426,-382.33 426,-382.33 423,-382.33 420,-379.33 420,-376.33 420,-376.33 420,-370.33 420,-370.33 420,-367.33 423,-364.33 426,-364.33 426,-364.33 472,-364.33 472,-364.33 475,-364.33 478,-367.33 478,-370.33 478,-370.33 478,-376.33 478,-376.33 478,-379.33 475,-382.33 472,-382.33"/>
<text text-anchor="middle" x="449" y="-371.13" font-family="Helvetica,sans-Serif" font-size="9.00">index.tsx</text>
</a>
</g>
</g>
<!-- src/components/header/index.tsx&#45;&gt;src/components/atoms/anchor&#45;or&#45;link.tsx -->
<g id="edge8" class="edge">
<title>src/components/header/index.tsx&#45;&gt;src/components/atoms/anchor&#45;or&#45;link.tsx</title>
<path fill="none" stroke="#000000" stroke-width="2" stroke-opacity="0.200000" d="M478.21,-365.58C536.79,-349.48 671.75,-312.39 738.57,-294.03"/>
<polygon fill="#000000" fill-opacity="0.200000" stroke="#000000" stroke-width="2" stroke-opacity="0.200000" points="739.2,-296.04 744.43,-292.42 738.09,-291.99 739.2,-296.04"/>
</g>
<!-- src/components/header/index.tsx&#45;&gt;src/hooks/use&#45;site.ts -->
<g id="edge7" class="edge">
<title>src/components/header/index.tsx&#45;&gt;src/hooks/use&#45;site.ts</title>
<path fill="none" stroke="#000000" stroke-width="2" stroke-opacity="0.200000" d="M475.51,-382.35C489.61,-388.73 506.04,-398.77 515,-413.33 530.31,-438.22 506.25,-522.81 526,-544.33 538.62,-558.09 558.89,-562.19 576.74,-562.69"/>
<polygon fill="#000000" fill-opacity="0.200000" stroke="#000000" stroke-width="2" stroke-opacity="0.200000" points="577.18,-564.79 583.19,-562.72 577.2,-560.59 577.18,-564.79"/>
</g>
<!-- src/components/layout/index.tsx -->
<g id="node15" class="node">
<title>src/components/layout/index.tsx</title>
<g id="a_node15"><a xlink:href="src/components/layout/index.tsx" xlink:title="index.tsx">
<path fill="#bbfeff" stroke="black" d="M344,-282.33C344,-282.33 298,-282.33 298,-282.33 295,-282.33 292,-279.33 292,-276.33 292,-276.33 292,-270.33 292,-270.33 292,-267.33 295,-264.33 298,-264.33 298,-264.33 344,-264.33 344,-264.33 347,-264.33 350,-267.33 350,-270.33 350,-270.33 350,-276.33 350,-276.33 350,-279.33 347,-282.33 344,-282.33"/>
<text text-anchor="middle" x="321" y="-271.13" font-family="Helvetica,sans-Serif" font-size="9.00">index.tsx</text>
</a>
</g>
</g>
<!-- src/components/layout/index.tsx&#45;&gt;src/components/content/breadcrumbs.tsx -->
<g id="edge10" class="edge">
<title>src/components/layout/index.tsx&#45;&gt;src/components/content/breadcrumbs.tsx</title>
<path fill="none" stroke="#000000" stroke-width="2" stroke-opacity="0.200000" d="M350.07,-278.03C357.16,-280.26 364.35,-283.52 370,-288.33 373.78,-291.55 371.06,-295.31 375,-298.33 381.01,-302.95 388.1,-306.24 395.45,-308.57"/>
<polygon fill="#000000" fill-opacity="0.200000" stroke="#000000" stroke-width="2" stroke-opacity="0.200000" points="395.32,-310.71 401.67,-310.31 396.45,-306.67 395.32,-310.71"/>
</g>
<!-- src/components/layout/index.tsx&#45;&gt;src/components/content/footer.tsx -->
<g id="edge11" class="edge">
<title>src/components/layout/index.tsx&#45;&gt;src/components/content/footer.tsx</title>
<path fill="none" stroke="#000000" stroke-width="2" stroke-opacity="0.200000" d="M350.28,-275.58C368.95,-277.06 393.54,-279.01 413.39,-280.59"/>
<polygon fill="#000000" fill-opacity="0.200000" stroke="#000000" stroke-width="2" stroke-opacity="0.200000" points="413.23,-282.68 419.38,-281.06 413.57,-278.49 413.23,-282.68"/>
</g>
<!-- src/components/layout/index.tsx&#45;&gt;src/components/content/header.tsx -->
<g id="edge12" class="edge">
<title>src/components/layout/index.tsx&#45;&gt;src/components/content/header.tsx</title>
<path fill="none" stroke="#000000" stroke-width="2" stroke-opacity="0.200000" d="M333.07,-264.19C343.32,-256.18 359.31,-244.84 375,-238.33 386.2,-233.69 398.97,-230.44 410.67,-228.18"/>
<polygon fill="#000000" fill-opacity="0.200000" stroke="#000000" stroke-width="2" stroke-opacity="0.200000" points="411.15,-230.23 416.68,-227.09 410.4,-226.09 411.15,-230.23"/>
</g>
<!-- src/components/layout/index.tsx&#45;&gt;src/components/header/index.tsx -->
<g id="edge13" class="edge">
<title>src/components/layout/index.tsx&#45;&gt;src/components/header/index.tsx</title>
<path fill="none" stroke="#000000" stroke-width="2" stroke-opacity="0.200000" d="M350.19,-276.33C357.71,-278.52 365.1,-282.19 370,-288.33 378.76,-299.31 366.18,-340.4 375,-351.33 384.38,-362.96 399.68,-368.62 413.86,-371.3"/>
<polygon fill="#000000" fill-opacity="0.200000" stroke="#000000" stroke-width="2" stroke-opacity="0.200000" points="413.58,-373.38 419.84,-372.28 414.26,-369.24 413.58,-373.38"/>
</g>
<!-- src/styles/global.ts -->
<g id="node16" class="node">
<title>src/styles/global.ts</title>
<g id="a_node16"><a xlink:href="src/styles/global.ts" xlink:title="global.ts">
<path fill="#ddfeff" stroke="black" d="M470.5,-658.33C470.5,-658.33 427.5,-658.33 427.5,-658.33 424.5,-658.33 421.5,-655.33 421.5,-652.33 421.5,-652.33 421.5,-646.33 421.5,-646.33 421.5,-643.33 424.5,-640.33 427.5,-640.33 427.5,-640.33 470.5,-640.33 470.5,-640.33 473.5,-640.33 476.5,-643.33 476.5,-646.33 476.5,-646.33 476.5,-652.33 476.5,-652.33 476.5,-655.33 473.5,-658.33 470.5,-658.33"/>
<text text-anchor="middle" x="449" y="-647.13" font-family="Helvetica,sans-Serif" font-size="9.00">global.ts</text>
</a>
</g>
</g>
<!-- src/components/layout/index.tsx&#45;&gt;src/styles/global.ts -->
<g id="edge9" class="edge">
<title>src/components/layout/index.tsx&#45;&gt;src/styles/global.ts</title>
<path fill="none" stroke="#000000" stroke-width="2" stroke-opacity="0.200000" d="M350.19,-276.06C357.81,-278.23 365.25,-281.97 370,-288.33 381.5,-303.74 362.74,-619.52 375,-634.33 384.6,-645.93 400.56,-650.09 415.11,-651.17"/>
<polygon fill="#000000" fill-opacity="0.200000" stroke="#000000" stroke-width="2" stroke-opacity="0.200000" points="415.14,-653.27 421.24,-651.45 415.34,-649.08 415.14,-653.27"/>
</g>
<!-- src/components/table&#45;of&#45;contents/index.tsx -->
<g id="node17" class="node">
<title>src/components/table&#45;of&#45;contents/index.tsx</title>
<g id="a_node17"><a xlink:href="src/components/table-of-contents/index.tsx" xlink:title="index.tsx">
<path fill="#bbfeff" stroke="black" d="M472,-442.33C472,-442.33 426,-442.33 426,-442.33 423,-442.33 420,-439.33 420,-436.33 420,-436.33 420,-430.33 420,-430.33 420,-427.33 423,-424.33 426,-424.33 426,-424.33 472,-424.33 472,-424.33 475,-424.33 478,-427.33 478,-430.33 478,-430.33 478,-436.33 478,-436.33 478,-439.33 475,-442.33 472,-442.33"/>
<text text-anchor="middle" x="449" y="-431.13" font-family="Helvetica,sans-Serif" font-size="9.00">index.tsx</text>
</a>
</g>
</g>
<!-- src/components/layout/index.tsx&#45;&gt;src/components/table&#45;of&#45;contents/index.tsx -->
<g id="edge14" class="edge">
<title>src/components/layout/index.tsx&#45;&gt;src/components/table&#45;of&#45;contents/index.tsx</title>
<path fill="none" stroke="#000000" stroke-width="2" stroke-opacity="0.200000" d="M350.09,-276.14C357.7,-278.31 365.16,-282.03 370,-288.33 378.32,-299.19 366.62,-400.52 375,-411.33 384.15,-423.14 399.43,-428.82 413.64,-431.47"/>
<polygon fill="#000000" fill-opacity="0.200000" stroke="#000000" stroke-width="2" stroke-opacity="0.200000" points="413.39,-433.55 419.65,-432.43 414.06,-429.41 413.39,-433.55"/>
</g>
<!-- src/styles/global.ts&#45;&gt;src/styles/styles.ts -->
<g id="edge34" class="edge">
<title>src/styles/global.ts&#45;&gt;src/styles/styles.ts</title>
<path fill="none" stroke="#000000" stroke-width="2" stroke-opacity="0.200000" d="M476.63,-644.45C505.31,-639.19 550.91,-630.82 581.51,-625.2"/>
<polygon fill="#000000" fill-opacity="0.200000" stroke="#000000" stroke-width="2" stroke-opacity="0.200000" points="581.9,-627.27 587.42,-624.12 581.14,-623.14 581.9,-627.27"/>
</g>
<!-- src/components/layout/prism&#45;styles.ts -->
<g id="node18" class="node">
<title>src/components/layout/prism&#45;styles.ts</title>
<g id="a_node18"><a xlink:href="src/components/layout/prism-styles.ts" xlink:title="prism&#45;styles.ts">
<path fill="#ddfeff" stroke="black" d="M356,-312.33C356,-312.33 286,-312.33 286,-312.33 283,-312.33 280,-309.33 280,-306.33 280,-306.33 280,-300.33 280,-300.33 280,-297.33 283,-294.33 286,-294.33 286,-294.33 356,-294.33 356,-294.33 359,-294.33 362,-297.33 362,-300.33 362,-300.33 362,-306.33 362,-306.33 362,-309.33 359,-312.33 356,-312.33"/>
<text text-anchor="middle" x="321" y="-301.13" font-family="Helvetica,sans-Serif" font-size="9.00">prism&#45;styles.ts</text>
</a>
</g>
</g>
<!-- src/styles/global.ts&#45;&gt;src/components/layout/prism&#45;styles.ts -->
<g id="edge33" class="edge">
<title>src/styles/global.ts&#45;&gt;src/components/layout/prism&#45;styles.ts</title>
<path fill="none" stroke="#000000" stroke-width="2" stroke-opacity="0.200000" d="M421.25,-651.44C405.26,-651.11 385.99,-647.58 375,-634.33 364.67,-621.89 376.98,-357.92 370,-343.33 364.49,-331.84 353.93,-322.47 344.11,-315.69"/>
<polygon fill="#000000" fill-opacity="0.200000" stroke="#000000" stroke-width="2" stroke-opacity="0.200000" points="345.24,-313.92 339.07,-312.39 342.94,-317.44 345.24,-313.92"/>
</g>
<!-- src/components/post&#45;link/post&#45;date.tsx -->
<g id="node19" class="node">
<title>src/components/post&#45;link/post&#45;date.tsx</title>
<g id="a_node19"><a xlink:href="src/components/post-link/post-date.tsx" xlink:title="post&#45;date.tsx">
<path fill="#bbfeff" stroke="black" d="M646.5,-142.33C646.5,-142.33 582.5,-142.33 582.5,-142.33 579.5,-142.33 576.5,-139.33 576.5,-136.33 576.5,-136.33 576.5,-130.33 576.5,-130.33 576.5,-127.33 579.5,-124.33 582.5,-124.33 582.5,-124.33 646.5,-124.33 646.5,-124.33 649.5,-124.33 652.5,-127.33 652.5,-130.33 652.5,-130.33 652.5,-136.33 652.5,-136.33 652.5,-139.33 649.5,-142.33 646.5,-142.33"/>
<text text-anchor="middle" x="614.5" y="-131.13" font-family="Helvetica,sans-Serif" font-size="9.00">post&#45;date.tsx</text>
</a>
</g>
</g>
<!-- src/components/post&#45;link/post&#45;link.tsx -->
<g id="node20" class="node">
<title>src/components/post&#45;link/post&#45;link.tsx</title>
<g id="a_node20"><a xlink:href="src/components/post-link/post-link.tsx" xlink:title="post&#45;link.tsx">
<path fill="#bbfeff" stroke="black" d="M478.5,-142.33C478.5,-142.33 419.5,-142.33 419.5,-142.33 416.5,-142.33 413.5,-139.33 413.5,-136.33 413.5,-136.33 413.5,-130.33 413.5,-130.33 413.5,-127.33 416.5,-124.33 419.5,-124.33 419.5,-124.33 478.5,-124.33 478.5,-124.33 481.5,-124.33 484.5,-127.33 484.5,-130.33 484.5,-130.33 484.5,-136.33 484.5,-136.33 484.5,-139.33 481.5,-142.33 478.5,-142.33"/>
<text text-anchor="middle" x="449" y="-131.13" font-family="Helvetica,sans-Serif" font-size="9.00">post&#45;link.tsx</text>
</a>
</g>
</g>
<!-- src/components/post&#45;link/post&#45;link.tsx&#45;&gt;src/styles/styles.ts -->
<g id="edge15" class="edge">
<title>src/components/post&#45;link/post&#45;link.tsx&#45;&gt;src/styles/styles.ts</title>
<path fill="none" stroke="#000000" stroke-width="2" stroke-opacity="0.200000" d="M476.48,-142.46C490.54,-148.79 506.6,-158.75 515,-173.33 538.52,-214.17 496.54,-560.55 526,-597.33 538.93,-613.48 561.81,-618.82 580.93,-620.21"/>
<polygon fill="#000000" fill-opacity="0.200000" stroke="#000000" stroke-width="2" stroke-opacity="0.200000" points="581.15,-622.33 587.25,-620.54 581.36,-618.13 581.15,-622.33"/>
</g>
<!-- src/components/post&#45;link/post&#45;link.tsx&#45;&gt;src/components/post&#45;link/post&#45;date.tsx -->
<g id="edge16" class="edge">
<title>src/components/post&#45;link/post&#45;link.tsx&#45;&gt;src/components/post&#45;link/post&#45;date.tsx</title>
<path fill="none" stroke="#000000" stroke-width="2" stroke-opacity="0.200000" d="M484.67,-133.33C509.58,-133.33 543.33,-133.33 570.04,-133.33"/>
<polygon fill="#000000" fill-opacity="0.200000" stroke="#000000" stroke-width="2" stroke-opacity="0.200000" points="570.32,-135.43 576.32,-133.33 570.32,-131.23 570.32,-135.43"/>
</g>
<!-- src/components/post&#45;link/tag&#45;list.tsx -->
<g id="node21" class="node">
<title>src/components/post&#45;link/tag&#45;list.tsx</title>
<g id="a_node21"><a xlink:href="src/components/post-link/tag-list.tsx" xlink:title="tag&#45;list.tsx">
<path fill="#bbfeff" stroke="black" d="M640.5,-112.33C640.5,-112.33 588.5,-112.33 588.5,-112.33 585.5,-112.33 582.5,-109.33 582.5,-106.33 582.5,-106.33 582.5,-100.33 582.5,-100.33 582.5,-97.33 585.5,-94.33 588.5,-94.33 588.5,-94.33 640.5,-94.33 640.5,-94.33 643.5,-94.33 646.5,-97.33 646.5,-100.33 646.5,-100.33 646.5,-106.33 646.5,-106.33 646.5,-109.33 643.5,-112.33 640.5,-112.33"/>
<text text-anchor="middle" x="614.5" y="-101.13" font-family="Helvetica,sans-Serif" font-size="9.00">tag&#45;list.tsx</text>
</a>
</g>
</g>
<!-- src/components/post&#45;link/post&#45;link.tsx&#45;&gt;src/components/post&#45;link/tag&#45;list.tsx -->
<g id="edge17" class="edge">
<title>src/components/post&#45;link/post&#45;link.tsx&#45;&gt;src/components/post&#45;link/tag&#45;list.tsx</title>
<path fill="none" stroke="#000000" stroke-width="2" stroke-opacity="0.200000" d="M484.77,-126.28C497.7,-123.71 512.51,-120.82 526,-118.33 542.46,-115.3 560.7,-112.14 576.25,-109.51"/>
<polygon fill="#000000" fill-opacity="0.200000" stroke="#000000" stroke-width="2" stroke-opacity="0.200000" points="576.72,-111.56 582.28,-108.49 576.02,-107.42 576.72,-111.56"/>
</g>
<!-- src/components/post&#45;link/post&#45;list.tsx -->
<g id="node22" class="node">
<title>src/components/post&#45;link/post&#45;list.tsx</title>
<g id="a_node22"><a xlink:href="src/components/post-link/post-list.tsx" xlink:title="post&#45;list.tsx">
<path fill="#bbfeff" stroke="black" d="M349,-142.33C349,-142.33 293,-142.33 293,-142.33 290,-142.33 287,-139.33 287,-136.33 287,-136.33 287,-130.33 287,-130.33 287,-127.33 290,-124.33 293,-124.33 293,-124.33 349,-124.33 349,-124.33 352,-124.33 355,-127.33 355,-130.33 355,-130.33 355,-136.33 355,-136.33 355,-139.33 352,-142.33 349,-142.33"/>
<text text-anchor="middle" x="321" y="-131.13" font-family="Helvetica,sans-Serif" font-size="9.00">post&#45;list.tsx</text>
</a>
</g>
</g>
<!-- src/components/post&#45;link/post&#45;list.tsx&#45;&gt;src/components/post&#45;link/post&#45;link.tsx -->
<g id="edge18" class="edge">
<title>src/components/post&#45;link/post&#45;list.tsx&#45;&gt;src/components/post&#45;link/post&#45;link.tsx</title>
<path fill="none" stroke="#000000" stroke-width="2" stroke-opacity="0.200000" d="M355.11,-133.33C371.08,-133.33 390.39,-133.33 407.26,-133.33"/>
<polygon fill="#000000" fill-opacity="0.200000" stroke="#000000" stroke-width="2" stroke-opacity="0.200000" points="407.36,-135.43 413.36,-133.33 407.36,-131.23 407.36,-135.43"/>
</g>
<!-- src/gatsby/browser/wrap&#45;root&#45;element.tsx -->
<g id="node23" class="node">
<title>src/gatsby/browser/wrap&#45;root&#45;element.tsx</title>
<g id="a_node23"><a xlink:href="src/gatsby/browser/wrap-root-element.tsx" xlink:title="wrap&#45;root&#45;element.tsx">
<path fill="#ccffcc" stroke="black" d="M501,-852.33C501,-852.33 397,-852.33 397,-852.33 394,-852.33 391,-849.33 391,-846.33 391,-846.33 391,-840.33 391,-840.33 391,-837.33 394,-834.33 397,-834.33 397,-834.33 501,-834.33 501,-834.33 504,-834.33 507,-837.33 507,-840.33 507,-840.33 507,-846.33 507,-846.33 507,-849.33 504,-852.33 501,-852.33"/>
<text text-anchor="middle" x="449" y="-841.13" font-family="Helvetica,sans-Serif" font-size="9.00">wrap&#45;root&#45;element.tsx</text>
</a>
</g>
</g>
<!-- src/gatsby/gatsby&#45;browser.ts -->
<g id="node24" class="node">
<title>src/gatsby/gatsby&#45;browser.ts</title>
<g id="a_node24"><a xlink:href="src/gatsby/gatsby-browser.ts" xlink:title="gatsby&#45;browser.ts">
<path fill="#ccffcc" stroke="black" d="M491.5,-818.33C491.5,-818.33 406.5,-818.33 406.5,-818.33 403.5,-818.33 400.5,-815.33 400.5,-812.33 400.5,-812.33 400.5,-806.33 400.5,-806.33 400.5,-803.33 403.5,-800.33 406.5,-800.33 406.5,-800.33 491.5,-800.33 491.5,-800.33 494.5,-800.33 497.5,-803.33 497.5,-806.33 497.5,-806.33 497.5,-812.33 497.5,-812.33 497.5,-815.33 494.5,-818.33 491.5,-818.33"/>
<text text-anchor="middle" x="449" y="-807.13" font-family="Helvetica,sans-Serif" font-size="9.00">gatsby&#45;browser.ts</text>
</a>
</g>
</g>
<!-- src/gatsby/gatsby&#45;config.ts -->
<g id="node25" class="node">
<title>src/gatsby/gatsby&#45;config.ts</title>
<g id="a_node25"><a xlink:href="src/gatsby/gatsby-config.ts" xlink:title="gatsby&#45;config.ts">
<path fill="#ccffcc" stroke="black" d="M488,-788.33C488,-788.33 410,-788.33 410,-788.33 407,-788.33 404,-785.33 404,-782.33 404,-782.33 404,-776.33 404,-776.33 404,-773.33 407,-770.33 410,-770.33 410,-770.33 488,-770.33 488,-770.33 491,-770.33 494,-773.33 494,-776.33 494,-776.33 494,-782.33 494,-782.33 494,-785.33 491,-788.33 488,-788.33"/>
<text text-anchor="middle" x="449" y="-777.13" font-family="Helvetica,sans-Serif" font-size="9.00">gatsby&#45;config.ts</text>
</a>
</g>
</g>
<!-- src/gatsby/gatsby&#45;node.ts -->
<g id="node26" class="node">
<title>src/gatsby/gatsby&#45;node.ts</title>
<g id="a_node26"><a xlink:href="src/gatsby/gatsby-node.ts" xlink:title="gatsby&#45;node.ts">
<path fill="#ddfeff" stroke="black" d="M485,-758.33C485,-758.33 413,-758.33 413,-758.33 410,-758.33 407,-755.33 407,-752.33 407,-752.33 407,-746.33 407,-746.33 407,-743.33 410,-740.33 413,-740.33 413,-740.33 485,-740.33 485,-740.33 488,-740.33 491,-743.33 491,-746.33 491,-746.33 491,-752.33 491,-752.33 491,-755.33 488,-758.33 485,-758.33"/>
<text text-anchor="middle" x="449" y="-747.13" font-family="Helvetica,sans-Serif" font-size="9.00">gatsby&#45;node.ts</text>
</a>
</g>
</g>
<!-- src/gatsby/node/create&#45;pages.ts -->
<g id="node27" class="node">
<title>src/gatsby/node/create&#45;pages.ts</title>
<g id="a_node27"><a xlink:href="src/gatsby/node/create-pages.ts" xlink:title="create&#45;pages.ts">
<path fill="#ddfeff" stroke="black" d="M651.5,-747.33C651.5,-747.33 577.5,-747.33 577.5,-747.33 574.5,-747.33 571.5,-744.33 571.5,-741.33 571.5,-741.33 571.5,-735.33 571.5,-735.33 571.5,-732.33 574.5,-729.33 577.5,-729.33 577.5,-729.33 651.5,-729.33 651.5,-729.33 654.5,-729.33 657.5,-732.33 657.5,-735.33 657.5,-735.33 657.5,-741.33 657.5,-741.33 657.5,-744.33 654.5,-747.33 651.5,-747.33"/>
<text text-anchor="middle" x="614.5" y="-736.13" font-family="Helvetica,sans-Serif" font-size="9.00">create&#45;pages.ts</text>
</a>
</g>
</g>
<!-- src/gatsby/gatsby&#45;node.ts&#45;&gt;src/gatsby/node/create&#45;pages.ts -->
<g id="edge19" class="edge">
<title>src/gatsby/gatsby&#45;node.ts&#45;&gt;src/gatsby/node/create&#45;pages.ts</title>
<path fill="none" stroke="#000000" stroke-width="2" stroke-opacity="0.200000" d="M491.26,-746.56C513.75,-745.05 541.71,-743.16 565.21,-741.58"/>
<polygon fill="#000000" fill-opacity="0.200000" stroke="#000000" stroke-width="2" stroke-opacity="0.200000" points="565.56,-743.66 571.4,-741.17 565.27,-739.47 565.56,-743.66"/>
</g>
<!-- src/gatsby/node/create&#45;schema&#45;customization.ts -->
<g id="node28" class="node">
<title>src/gatsby/node/create&#45;schema&#45;customization.ts</title>
<g id="a_node28"><a xlink:href="src/gatsby/node/create-schema-customization.ts" xlink:title="create&#45;schema&#45;customization.ts">
<path fill="#ddfeff" stroke="black" d="M689,-777.33C689,-777.33 540,-777.33 540,-777.33 537,-777.33 534,-774.33 534,-771.33 534,-771.33 534,-765.33 534,-765.33 534,-762.33 537,-759.33 540,-759.33 540,-759.33 689,-759.33 689,-759.33 692,-759.33 695,-762.33 695,-765.33 695,-765.33 695,-771.33 695,-771.33 695,-774.33 692,-777.33 689,-777.33"/>
<text text-anchor="middle" x="614.5" y="-766.13" font-family="Helvetica,sans-Serif" font-size="9.00">create&#45;schema&#45;customization.ts</text>
</a>
</g>
</g>
<!-- src/gatsby/gatsby&#45;node.ts&#45;&gt;src/gatsby/node/create&#45;schema&#45;customization.ts -->
<g id="edge20" class="edge">
<title>src/gatsby/gatsby&#45;node.ts&#45;&gt;src/gatsby/node/create&#45;schema&#45;customization.ts</title>
<path fill="none" stroke="#000000" stroke-width="2" stroke-opacity="0.200000" d="M491.26,-754.13C503.07,-755.5 516.39,-757.05 529.79,-758.61"/>
<polygon fill="#000000" fill-opacity="0.200000" stroke="#000000" stroke-width="2" stroke-opacity="0.200000" points="529.74,-760.71 535.94,-759.32 530.22,-756.54 529.74,-760.71"/>
</g>
<!-- src/libs/post.ts -->
<g id="node30" class="node">
<title>src/libs/post.ts</title>
<g id="a_node30"><a xlink:href="src/libs/post.ts" xlink:title="post.ts">
<path fill="#ddfeff" stroke="black" d="M799.5,-983.33C799.5,-983.33 757.5,-983.33 757.5,-983.33 754.5,-983.33 751.5,-980.33 751.5,-977.33 751.5,-977.33 751.5,-971.33 751.5,-971.33 751.5,-968.33 754.5,-965.33 757.5,-965.33 757.5,-965.33 799.5,-965.33 799.5,-965.33 802.5,-965.33 805.5,-968.33 805.5,-971.33 805.5,-971.33 805.5,-977.33 805.5,-977.33 805.5,-980.33 802.5,-983.33 799.5,-983.33"/>
<text text-anchor="middle" x="778.5" y="-972.13" font-family="Helvetica,sans-Serif" font-size="9.00">post.ts</text>
</a>
</g>
</g>
<!-- src/gatsby/node/create&#45;pages.ts&#45;&gt;src/libs/post.ts -->
<g id="edge21" class="edge">
<title>src/gatsby/node/create&#45;pages.ts&#45;&gt;src/libs/post.ts</title>
<path fill="none" stroke="#000000" stroke-width="2" stroke-opacity="0.200000" d="M657.74,-735.45C676.06,-736.41 696.58,-740.76 711,-753.33 773.36,-807.71 778.39,-918.17 778,-958.84"/>
<polygon fill="#000000" fill-opacity="0.200000" stroke="#000000" stroke-width="2" stroke-opacity="0.200000" points="775.9,-958.93 777.89,-964.97 780.09,-959 775.9,-958.93"/>
</g>
<!-- src/gatsby/node/create&#45;pages.ts&#45;&gt;src/utils/asserts&#45;non&#45;null.ts -->
<g id="edge22" class="edge">
<title>src/gatsby/node/create&#45;pages.ts&#45;&gt;src/utils/asserts&#45;non&#45;null.ts</title>
<path fill="none" stroke="#000000" stroke-width="2" stroke-opacity="0.200000" d="M645.1,-729.2C664.84,-722.28 690.76,-711.53 711,-697.33 733.85,-681.3 754.92,-656.37 766.98,-640.71"/>
<polygon fill="#000000" fill-opacity="0.200000" stroke="#000000" stroke-width="2" stroke-opacity="0.200000" points="768.76,-641.84 770.71,-635.79 765.42,-639.3 768.76,-641.84"/>
</g>
<!-- src/gatsby/gatsby&#45;ssr.tsx -->
<g id="node29" class="node">
<title>src/gatsby/gatsby&#45;ssr.tsx</title>
<g id="a_node29"><a xlink:href="src/gatsby/gatsby-ssr.tsx" xlink:title="gatsby&#45;ssr.tsx">
<path fill="#ccffcc" stroke="black" d="M482.5,-728.33C482.5,-728.33 415.5,-728.33 415.5,-728.33 412.5,-728.33 409.5,-725.33 409.5,-722.33 409.5,-722.33 409.5,-716.33 409.5,-716.33 409.5,-713.33 412.5,-710.33 415.5,-710.33 415.5,-710.33 482.5,-710.33 482.5,-710.33 485.5,-710.33 488.5,-713.33 488.5,-716.33 488.5,-716.33 488.5,-722.33 488.5,-722.33 488.5,-725.33 485.5,-728.33 482.5,-728.33"/>
<text text-anchor="middle" x="449" y="-717.13" font-family="Helvetica,sans-Serif" font-size="9.00">gatsby&#45;ssr.tsx</text>
</a>
</g>
</g>
<!-- src/libs/date.ts -->
<g id="node33" class="node">
<title>src/libs/date.ts</title>
<g id="a_node33"><a xlink:href="src/libs/date.ts" xlink:title="date.ts">
<path fill="#ddfeff" stroke="black" d="M902,-983.33C902,-983.33 860,-983.33 860,-983.33 857,-983.33 854,-980.33 854,-977.33 854,-977.33 854,-971.33 854,-971.33 854,-968.33 857,-965.33 860,-965.33 860,-965.33 902,-965.33 902,-965.33 905,-965.33 908,-968.33 908,-971.33 908,-971.33 908,-977.33 908,-977.33 908,-980.33 905,-983.33 902,-983.33"/>
<text text-anchor="middle" x="881" y="-972.13" font-family="Helvetica,sans-Serif" font-size="9.00">date.ts</text>
</a>
</g>
</g>
<!-- src/libs/post.ts&#45;&gt;src/libs/date.ts -->
<g id="edge25" class="edge">
<title>src/libs/post.ts&#45;&gt;src/libs/date.ts</title>
<path fill="none" stroke="#000000" stroke-width="2" stroke-opacity="0.200000" d="M805.64,-974.33C818.55,-974.33 834.25,-974.33 847.88,-974.33"/>
<polygon fill="#000000" fill-opacity="0.200000" stroke="#000000" stroke-width="2" stroke-opacity="0.200000" points="847.99,-976.43 853.99,-974.33 847.99,-972.23 847.99,-976.43"/>
</g>
<!-- src/utils/panic.ts -->
<g id="node48" class="node">
<title>src/utils/panic.ts</title>
<g id="a_node48"><a xlink:href="src/utils/panic.ts" xlink:title="panic.ts">
<path fill="#ddfeff" stroke="black" d="M902,-635.33C902,-635.33 860,-635.33 860,-635.33 857,-635.33 854,-632.33 854,-629.33 854,-629.33 854,-623.33 854,-623.33 854,-620.33 857,-617.33 860,-617.33 860,-617.33 902,-617.33 902,-617.33 905,-617.33 908,-620.33 908,-623.33 908,-623.33 908,-629.33 908,-629.33 908,-632.33 905,-635.33 902,-635.33"/>
<text text-anchor="middle" x="881" y="-624.13" font-family="Helvetica,sans-Serif" font-size="9.00">panic.ts</text>
</a>
</g>
</g>
<!-- src/utils/asserts&#45;non&#45;null.ts&#45;&gt;src/utils/panic.ts -->
<g id="edge47" class="edge">
<title>src/utils/asserts&#45;non&#45;null.ts&#45;&gt;src/utils/panic.ts</title>
<path fill="none" stroke="#000000" stroke-width="2" stroke-opacity="0.200000" d="M828.28,-626.33C834.88,-626.33 841.51,-626.33 847.73,-626.33"/>
<polygon fill="#000000" fill-opacity="0.200000" stroke="#000000" stroke-width="2" stroke-opacity="0.200000" points="847.78,-628.43 853.78,-626.33 847.78,-624.23 847.78,-628.43"/>
</g>
<!-- src/hooks/use&#45;local&#45;storage&#45;state.ts -->
<g id="node32" class="node">
<title>src/hooks/use&#45;local&#45;storage&#45;state.ts</title>
<g id="a_node32"><a xlink:href="src/hooks/use-local-storage-state.ts" xlink:title="use&#45;local&#45;storage&#45;state.ts">
<path fill="#ccffcc" stroke="black" d="M673,-538.33C673,-538.33 556,-538.33 556,-538.33 553,-538.33 550,-535.33 550,-532.33 550,-532.33 550,-526.33 550,-526.33 550,-523.33 553,-520.33 556,-520.33 556,-520.33 673,-520.33 673,-520.33 676,-520.33 679,-523.33 679,-526.33 679,-526.33 679,-532.33 679,-532.33 679,-535.33 676,-538.33 673,-538.33"/>
<text text-anchor="middle" x="614.5" y="-527.13" font-family="Helvetica,sans-Serif" font-size="9.00">use&#45;local&#45;storage&#45;state.ts</text>
</a>
</g>
</g>
<!-- src/libs/post.test.ts -->
<g id="node34" class="node">
<title>src/libs/post.test.ts</title>
<g id="a_node34"><a xlink:href="src/libs/post.test.ts" xlink:title="post.test.ts">
<path fill="#ddfeff" stroke="black" d="M642.5,-1028.33C642.5,-1028.33 586.5,-1028.33 586.5,-1028.33 583.5,-1028.33 580.5,-1025.33 580.5,-1022.33 580.5,-1022.33 580.5,-1016.33 580.5,-1016.33 580.5,-1013.33 583.5,-1010.33 586.5,-1010.33 586.5,-1010.33 642.5,-1010.33 642.5,-1010.33 645.5,-1010.33 648.5,-1013.33 648.5,-1016.33 648.5,-1016.33 648.5,-1022.33 648.5,-1022.33 648.5,-1025.33 645.5,-1028.33 642.5,-1028.33"/>
<text text-anchor="middle" x="614.5" y="-1017.13" font-family="Helvetica,sans-Serif" font-size="9.00">post.test.ts</text>
</a>
</g>
</g>
<!-- src/libs/post.test.ts&#45;&gt;src/libs/post.ts -->
<g id="edge24" class="edge">
<title>src/libs/post.test.ts&#45;&gt;src/libs/post.ts</title>
<path fill="none" stroke="#000000" stroke-width="2" stroke-opacity="0.200000" d="M648.69,-1016.33C667.28,-1014.1 690.74,-1010.38 711,-1004.33 726.26,-999.78 742.57,-992.47 755.22,-986.2"/>
<polygon fill="#000000" fill-opacity="0.200000" stroke="#000000" stroke-width="2" stroke-opacity="0.200000" points="756.35,-987.98 760.76,-983.4 754.46,-984.23 756.35,-987.98"/>
</g>
<!-- src/libs/proto&#45;ext.ts -->
<g id="node35" class="node">
<title>src/libs/proto&#45;ext.ts</title>
<g id="a_node35"><a xlink:href="src/libs/proto-ext.ts" xlink:title="proto&#45;ext.ts">
<path fill="#ccffcc" stroke="black" d="M643.5,-998.33C643.5,-998.33 585.5,-998.33 585.5,-998.33 582.5,-998.33 579.5,-995.33 579.5,-992.33 579.5,-992.33 579.5,-986.33 579.5,-986.33 579.5,-983.33 582.5,-980.33 585.5,-980.33 585.5,-980.33 643.5,-980.33 643.5,-980.33 646.5,-980.33 649.5,-983.33 649.5,-986.33 649.5,-986.33 649.5,-992.33 649.5,-992.33 649.5,-995.33 646.5,-998.33 643.5,-998.33"/>
<text text-anchor="middle" x="614.5" y="-987.13" font-family="Helvetica,sans-Serif" font-size="9.00">proto&#45;ext.ts</text>
</a>
</g>
</g>
<!-- src/libs/react&#45;fcx.d.ts -->
<g id="node36" class="node">
<title>src/libs/react&#45;fcx.d.ts</title>
<g id="a_node36"><a xlink:href="src/libs/react-fcx.d.ts" xlink:title="react&#45;fcx.d.ts">
<path fill="#ccffcc" stroke="black" d="M647,-968.33C647,-968.33 582,-968.33 582,-968.33 579,-968.33 576,-965.33 576,-962.33 576,-962.33 576,-956.33 576,-956.33 576,-953.33 579,-950.33 582,-950.33 582,-950.33 647,-950.33 647,-950.33 650,-950.33 653,-953.33 653,-956.33 653,-956.33 653,-962.33 653,-962.33 653,-965.33 650,-968.33 647,-968.33"/>
<text text-anchor="middle" x="614.5" y="-957.13" font-family="Helvetica,sans-Serif" font-size="9.00">react&#45;fcx.d.ts</text>
</a>
</g>
</g>
<!-- src/libs/toc.ts -->
<g id="node37" class="node">
<title>src/libs/toc.ts</title>
<g id="a_node37"><a xlink:href="src/libs/toc.ts" xlink:title="toc.ts">
<path fill="#ccffcc" stroke="black" d="M635.5,-938.33C635.5,-938.33 593.5,-938.33 593.5,-938.33 590.5,-938.33 587.5,-935.33 587.5,-932.33 587.5,-932.33 587.5,-926.33 587.5,-926.33 587.5,-923.33 590.5,-920.33 593.5,-920.33 593.5,-920.33 635.5,-920.33 635.5,-920.33 638.5,-920.33 641.5,-923.33 641.5,-926.33 641.5,-926.33 641.5,-932.33 641.5,-932.33 641.5,-935.33 638.5,-938.33 635.5,-938.33"/>
<text text-anchor="middle" x="614.5" y="-927.13" font-family="Helvetica,sans-Serif" font-size="9.00">toc.ts</text>
</a>
</g>
</g>
<!-- src/pages/404.tsx -->
<g id="node38" class="node">
<title>src/pages/404.tsx</title>
<g id="a_node38"><a xlink:href="src/pages/404.tsx" xlink:title="404.tsx">
<path fill="#bbfeff" stroke="black" d="M103.5,-282.33C103.5,-282.33 61.5,-282.33 61.5,-282.33 58.5,-282.33 55.5,-279.33 55.5,-276.33 55.5,-276.33 55.5,-270.33 55.5,-270.33 55.5,-267.33 58.5,-264.33 61.5,-264.33 61.5,-264.33 103.5,-264.33 103.5,-264.33 106.5,-264.33 109.5,-267.33 109.5,-270.33 109.5,-270.33 109.5,-276.33 109.5,-276.33 109.5,-279.33 106.5,-282.33 103.5,-282.33"/>
<text text-anchor="middle" x="82.5" y="-271.13" font-family="Helvetica,sans-Serif" font-size="9.00">404.tsx</text>
</a>
</g>
</g>
<!-- src/pages/404.tsx&#45;&gt;src/components/layout/index.tsx -->
<g id="edge26" class="edge">
<title>src/pages/404.tsx&#45;&gt;src/components/layout/index.tsx</title>
<path fill="none" stroke="#000000" stroke-width="2" stroke-opacity="0.200000" d="M109.71,-273.33C152.64,-273.33 237.93,-273.33 285.65,-273.33"/>
<polygon fill="#000000" fill-opacity="0.200000" stroke="#000000" stroke-width="2" stroke-opacity="0.200000" points="285.84,-275.43 291.84,-273.33 285.84,-271.23 285.84,-275.43"/>
</g>
<!-- src/pages/index.tsx -->
<g id="node39" class="node">
<title>src/pages/index.tsx</title>
<g id="a_node39"><a xlink:href="src/pages/index.tsx" xlink:title="index.tsx">
<path fill="#bbfeff" stroke="black" d="M105.5,-342.33C105.5,-342.33 59.5,-342.33 59.5,-342.33 56.5,-342.33 53.5,-339.33 53.5,-336.33 53.5,-336.33 53.5,-330.33 53.5,-330.33 53.5,-327.33 56.5,-324.33 59.5,-324.33 59.5,-324.33 105.5,-324.33 105.5,-324.33 108.5,-324.33 111.5,-327.33 111.5,-330.33 111.5,-330.33 111.5,-336.33 111.5,-336.33 111.5,-339.33 108.5,-342.33 105.5,-342.33"/>
<text text-anchor="middle" x="82.5" y="-331.13" font-family="Helvetica,sans-Serif" font-size="9.00">index.tsx</text>
</a>
</g>
</g>
<!-- src/pages/index.tsx&#45;&gt;src/hooks/use&#45;site.ts -->
<g id="edge27" class="edge">
<title>src/pages/index.tsx&#45;&gt;src/hooks/use&#45;site.ts</title>
<path fill="none" stroke="#000000" stroke-width="2" stroke-opacity="0.200000" d="M93.74,-342.37C120.16,-365.27 193.5,-426.24 264,-461.33 373.35,-515.76 407.3,-515.5 526,-544.33 542.66,-548.38 561.36,-551.74 577.19,-554.25"/>
<polygon fill="#000000" fill-opacity="0.200000" stroke="#000000" stroke-width="2" stroke-opacity="0.200000" points="577.07,-556.36 583.32,-555.2 577.72,-552.21 577.07,-556.36"/>
</g>
<!-- src/pages/index.tsx&#45;&gt;src/utils/asserts&#45;non&#45;null.ts -->
<g id="edge29" class="edge">
<title>src/pages/index.tsx&#45;&gt;src/utils/asserts&#45;non&#45;null.ts</title>
<path fill="none" stroke="#000000" stroke-width="2" stroke-opacity="0.200000" d="M84.83,-342.59C93.47,-398.94 146.88,-693.33 320,-693.33 320,-693.33 320,-693.33 450,-693.33 566.03,-693.33 603.36,-730.66 711,-687.33 734.82,-677.75 755.39,-655.44 767.12,-640.62"/>
<polygon fill="#000000" fill-opacity="0.200000" stroke="#000000" stroke-width="2" stroke-opacity="0.200000" points="769.03,-641.58 771.02,-635.54 765.7,-639.02 769.03,-641.58"/>
</g>
<!-- src/templates/post&#45;list&#45;page.tsx -->
<g id="node40" class="node">
<title>src/templates/post&#45;list&#45;page.tsx</title>
<g id="a_node40"><a xlink:href="src/templates/post-list-page.tsx" xlink:title="post&#45;list&#45;page.tsx">
<path fill="#bbfeff" stroke="black" d="M242,-187.33C242,-187.33 160,-187.33 160,-187.33 157,-187.33 154,-184.33 154,-181.33 154,-181.33 154,-175.33 154,-175.33 154,-172.33 157,-169.33 160,-169.33 160,-169.33 242,-169.33 242,-169.33 245,-169.33 248,-172.33 248,-175.33 248,-175.33 248,-181.33 248,-181.33 248,-184.33 245,-187.33 242,-187.33"/>
<text text-anchor="middle" x="201" y="-176.13" font-family="Helvetica,sans-Serif" font-size="9.00">post&#45;list&#45;page.tsx</text>
</a>
</g>
</g>
<!-- src/pages/index.tsx&#45;&gt;src/templates/post&#45;list&#45;page.tsx -->
<g id="edge28" class="edge">
<title>src/pages/index.tsx&#45;&gt;src/templates/post&#45;list&#45;page.tsx</title>
<path fill="none" stroke="#000000" stroke-width="2" stroke-opacity="0.200000" d="M111.66,-331.18C121.88,-329.15 132.89,-325.36 141,-318.33 179.4,-285.09 193.41,-222.65 198,-193.74"/>
<polygon fill="#000000" fill-opacity="0.200000" stroke="#000000" stroke-width="2" stroke-opacity="0.200000" points="200.13,-193.71 198.93,-187.47 195.97,-193.09 200.13,-193.71"/>
</g>
<!-- src/templates/post&#45;list&#45;page.tsx&#45;&gt;src/components/layout/index.tsx -->
<g id="edge45" class="edge">
<title>src/templates/post&#45;list&#45;page.tsx&#45;&gt;src/components/layout/index.tsx</title>
<path fill="none" stroke="#000000" stroke-width="2" stroke-opacity="0.200000" d="M213.31,-187.44C234.32,-204.35 279.4,-240.65 303.69,-260.21"/>
<polygon fill="#000000" fill-opacity="0.200000" stroke="#000000" stroke-width="2" stroke-opacity="0.200000" points="302.56,-261.99 308.55,-264.11 305.19,-258.71 302.56,-261.99"/>
</g>
<!-- src/templates/post&#45;list&#45;page.tsx&#45;&gt;src/components/post&#45;link/post&#45;list.tsx -->
<g id="edge46" class="edge">
<title>src/templates/post&#45;list&#45;page.tsx&#45;&gt;src/components/post&#45;link/post&#45;list.tsx</title>
<path fill="none" stroke="#000000" stroke-width="2" stroke-opacity="0.200000" d="M225.88,-169.23C244.51,-162.12 270.49,-152.21 290.44,-144.61"/>
<polygon fill="#000000" fill-opacity="0.200000" stroke="#000000" stroke-width="2" stroke-opacity="0.200000" points="291.3,-146.53 296.16,-142.43 289.8,-142.6 291.3,-146.53"/>
</g>
<!-- src/pages/tags.tsx -->
<g id="node41" class="node">
<title>src/pages/tags.tsx</title>
<g id="a_node41"><a xlink:href="src/pages/tags.tsx" xlink:title="tags.tsx">
<path fill="#bbfeff" stroke="black" d="M103.5,-312.33C103.5,-312.33 61.5,-312.33 61.5,-312.33 58.5,-312.33 55.5,-309.33 55.5,-306.33 55.5,-306.33 55.5,-300.33 55.5,-300.33 55.5,-297.33 58.5,-294.33 61.5,-294.33 61.5,-294.33 103.5,-294.33 103.5,-294.33 106.5,-294.33 109.5,-297.33 109.5,-300.33 109.5,-300.33 109.5,-306.33 109.5,-306.33 109.5,-309.33 106.5,-312.33 103.5,-312.33"/>
<text text-anchor="middle" x="82.5" y="-301.13" font-family="Helvetica,sans-Serif" font-size="9.00">tags.tsx</text>
</a>
</g>
</g>
<!-- src/pages/tags.tsx&#45;&gt;src/components/article/index.tsx -->
<g id="edge30" class="edge">
<title>src/pages/tags.tsx&#45;&gt;src/components/article/index.tsx</title>
<path fill="none" stroke="#000000" stroke-width="2" stroke-opacity="0.200000" d="M109.61,-308.18C119.68,-310.55 131.13,-313.87 141,-318.33 201.1,-345.49 205.63,-370.65 264,-401.33 271.44,-405.25 279.74,-408.87 287.62,-412.01"/>
<polygon fill="#000000" fill-opacity="0.200000" stroke="#000000" stroke-width="2" stroke-opacity="0.200000" points="287.19,-414.09 293.54,-414.3 288.71,-410.18 287.19,-414.09"/>
</g>
<!-- src/pages/tags.tsx&#45;&gt;src/components/layout/index.tsx -->
<g id="edge31" class="edge">
<title>src/pages/tags.tsx&#45;&gt;src/components/layout/index.tsx</title>
<path fill="none" stroke="#000000" stroke-width="2" stroke-opacity="0.200000" d="M109.71,-300.01C152.64,-294.56 237.93,-283.74 285.65,-277.69"/>
<polygon fill="#000000" fill-opacity="0.200000" stroke="#000000" stroke-width="2" stroke-opacity="0.200000" points="286.15,-279.74 291.84,-276.91 285.62,-275.58 286.15,-279.74"/>
</g>
<!-- src/pages/tags.tsx&#45;&gt;src/components/post&#45;link/post&#45;list.tsx -->
<g id="edge32" class="edge">
<title>src/pages/tags.tsx&#45;&gt;src/components/post&#45;link/post&#45;list.tsx</title>
<path fill="none" stroke="#000000" stroke-width="2" stroke-opacity="0.200000" d="M109.76,-298.81C119.85,-296.48 131.27,-293.1 141,-288.33 147.55,-285.13 147.76,-282.11 154,-278.33 196.72,-252.51 218.21,-263.95 256,-231.33 283.58,-207.53 303.92,-169 313.64,-148.04"/>
<polygon fill="#000000" fill-opacity="0.200000" stroke="#000000" stroke-width="2" stroke-opacity="0.200000" points="315.64,-148.71 316.2,-142.38 311.81,-146.98 315.64,-148.71"/>
</g>
<!-- src/styles/mediaQueries.ts -->
<g id="node42" class="node">
<title>src/styles/mediaQueries.ts</title>
<g id="a_node42"><a xlink:href="src/styles/mediaQueries.ts" xlink:title="mediaQueries.ts">
<path fill="#ccffcc" stroke="black" d="M487.5,-628.33C487.5,-628.33 410.5,-628.33 410.5,-628.33 407.5,-628.33 404.5,-625.33 404.5,-622.33 404.5,-622.33 404.5,-616.33 404.5,-616.33 404.5,-613.33 407.5,-610.33 410.5,-610.33 410.5,-610.33 487.5,-610.33 487.5,-610.33 490.5,-610.33 493.5,-613.33 493.5,-616.33 493.5,-616.33 493.5,-622.33 493.5,-622.33 493.5,-625.33 490.5,-628.33 487.5,-628.33"/>
<text text-anchor="middle" x="449" y="-617.13" font-family="Helvetica,sans-Serif" font-size="9.00">mediaQueries.ts</text>
</a>
</g>
</g>
<!-- src/templates/ArchiveMonthPage.tsx -->
<g id="node43" class="node">
<title>src/templates/ArchiveMonthPage.tsx</title>
<g id="a_node43"><a xlink:href="src/templates/ArchiveMonthPage.tsx" xlink:title="ArchiveMonthPage.tsx">
<path fill="#bbfeff" stroke="black" d="M135,-172.33C135,-172.33 30,-172.33 30,-172.33 27,-172.33 24,-169.33 24,-166.33 24,-166.33 24,-160.33 24,-160.33 24,-157.33 27,-154.33 30,-154.33 30,-154.33 135,-154.33 135,-154.33 138,-154.33 141,-157.33 141,-160.33 141,-160.33 141,-166.33 141,-166.33 141,-169.33 138,-172.33 135,-172.33"/>
<text text-anchor="middle" x="82.5" y="-161.13" font-family="Helvetica,sans-Serif" font-size="9.00">ArchiveMonthPage.tsx</text>
</a>
</g>
</g>
<!-- src/templates/ArchiveMonthPage.tsx&#45;&gt;src/templates/post&#45;list&#45;page.tsx -->
<g id="edge35" class="edge">
<title>src/templates/ArchiveMonthPage.tsx&#45;&gt;src/templates/post&#45;list&#45;page.tsx</title>
<path fill="none" stroke="#000000" stroke-width="2" stroke-opacity="0.200000" d="M141.07,-170.75C143.19,-171.02 145.31,-171.29 147.42,-171.56"/>
<polygon fill="#000000" fill-opacity="0.200000" stroke="#000000" stroke-width="2" stroke-opacity="0.200000" points="147.5,-173.69 153.72,-172.37 148.04,-169.53 147.5,-173.69"/>
</g>
<!-- src/templates/ArchiveYearPage.tsx -->
<g id="node44" class="node">
<title>src/templates/ArchiveYearPage.tsx</title>
<g id="a_node44"><a xlink:href="src/templates/ArchiveYearPage.tsx" xlink:title="ArchiveYearPage.tsx">
<path fill="#bbfeff" stroke="black" d="M130,-142.33C130,-142.33 35,-142.33 35,-142.33 32,-142.33 29,-139.33 29,-136.33 29,-136.33 29,-130.33 29,-130.33 29,-127.33 32,-124.33 35,-124.33 35,-124.33 130,-124.33 130,-124.33 133,-124.33 136,-127.33 136,-130.33 136,-130.33 136,-136.33 136,-136.33 136,-139.33 133,-142.33 130,-142.33"/>
<text text-anchor="middle" x="82.5" y="-131.13" font-family="Helvetica,sans-Serif" font-size="9.00">ArchiveYearPage.tsx</text>
</a>
</g>
</g>
<!-- src/templates/ArchiveYearPage.tsx&#45;&gt;src/templates/post&#45;list&#45;page.tsx -->
<g id="edge36" class="edge">
<title>src/templates/ArchiveYearPage.tsx&#45;&gt;src/templates/post&#45;list&#45;page.tsx</title>
<path fill="none" stroke="#000000" stroke-width="2" stroke-opacity="0.200000" d="M126.99,-142.43C131.84,-144.1 136.6,-146.05 141,-148.33 147.72,-151.82 147.54,-155.4 154,-159.33 158.46,-162.05 163.37,-164.54 168.27,-166.76"/>
<polygon fill="#000000" fill-opacity="0.200000" stroke="#000000" stroke-width="2" stroke-opacity="0.200000" points="167.66,-168.78 174,-169.24 169.33,-164.93 167.66,-168.78"/>
</g>
<!-- src/templates/BlogPost.tsx -->
<g id="node45" class="node">
<title>src/templates/BlogPost.tsx</title>
<g id="a_node45"><a xlink:href="src/templates/BlogPost.tsx" xlink:title="BlogPost.tsx">
<path fill="#bbfeff" stroke="black" d="M112,-82.33C112,-82.33 53,-82.33 53,-82.33 50,-82.33 47,-79.33 47,-76.33 47,-76.33 47,-70.33 47,-70.33 47,-67.33 50,-64.33 53,-64.33 53,-64.33 112,-64.33 112,-64.33 115,-64.33 118,-67.33 118,-70.33 118,-70.33 118,-76.33 118,-76.33 118,-79.33 115,-82.33 112,-82.33"/>
<text text-anchor="middle" x="82.5" y="-71.13" font-family="Helvetica,sans-Serif" font-size="9.00">BlogPost.tsx</text>
</a>
</g>
</g>
<!-- src/templates/BlogPost.tsx&#45;&gt;src/components/article&#45;elements/index.tsx -->
<g id="edge38" class="edge">
<title>src/templates/BlogPost.tsx&#45;&gt;src/components/article&#45;elements/index.tsx</title>
<path fill="none" stroke="#000000" stroke-width="2" stroke-opacity="0.200000" d="M102.38,-64.3C169.46,-33.67 398.48,58.23 515,-55.33 533.54,-73.41 514.59,-148.09 526,-171.33 540.97,-201.83 572.4,-226.76 593.23,-240.84"/>
<polygon fill="#000000" fill-opacity="0.200000" stroke="#000000" stroke-width="2" stroke-opacity="0.200000" points="592.12,-242.62 598.28,-244.18 594.44,-239.12 592.12,-242.62"/>
</g>
<!-- src/templates/BlogPost.tsx&#45;&gt;src/components/article/index.tsx -->
<g id="edge37" class="edge">
<title>src/templates/BlogPost.tsx&#45;&gt;src/components/article/index.tsx</title>
<path fill="none" stroke="#000000" stroke-width="2" stroke-opacity="0.200000" d="M118.02,-78.76C125.95,-80.96 134.08,-84.03 141,-88.33 148.49,-92.99 147.22,-97.69 154,-103.33 194.42,-136.98 229.12,-118.12 256,-163.33 269.52,-186.08 248.73,-379.72 264,-401.33 269.24,-408.75 277.38,-413.67 285.84,-416.93"/>
<polygon fill="#000000" fill-opacity="0.200000" stroke="#000000" stroke-width="2" stroke-opacity="0.200000" points="285.37,-418.98 291.73,-418.93 286.72,-415.01 285.37,-418.98"/>
</g>
<!-- src/templates/BlogPost.tsx&#45;&gt;src/components/content/tags.tsx -->
<g id="edge39" class="edge">
<title>src/templates/BlogPost.tsx&#45;&gt;src/components/content/tags.tsx</title>
<path fill="none" stroke="#000000" stroke-width="2" stroke-opacity="0.200000" d="M118.04,-67.72C186.26,-57.5 334.76,-39.84 370,-73.33 377.9,-80.84 368.28,-162.75 375,-171.33 384.64,-183.64 400.93,-189.28 415.68,-191.77"/>
<polygon fill="#000000" fill-opacity="0.200000" stroke="#000000" stroke-width="2" stroke-opacity="0.200000" points="415.64,-193.89 421.88,-192.66 416.24,-189.73 415.64,-193.89"/>
</g>
<!-- src/templates/BlogPost.tsx&#45;&gt;src/components/layout/index.tsx -->
<g id="edge40" class="edge">
<title>src/templates/BlogPost.tsx&#45;&gt;src/components/layout/index.tsx</title>
<path fill="none" stroke="#000000" stroke-width="2" stroke-opacity="0.200000" d="M118.04,-73.02C157.58,-74.68 221.35,-83.84 256,-123.33 270.27,-139.59 256.92,-150.9 264,-171.33 275.51,-204.55 297.24,-239.73 309.99,-258.87"/>
<polygon fill="#000000" fill-opacity="0.200000" stroke="#000000" stroke-width="2" stroke-opacity="0.200000" points="308.54,-260.47 313.63,-264.27 312.02,-258.12 308.54,-260.47"/>
</g>
<!-- src/templates/BlogPost.tsx&#45;&gt;src/utils/asserts&#45;non&#45;null.ts -->
<g id="edge41" class="edge">
<title>src/templates/BlogPost.tsx&#45;&gt;src/utils/asserts&#45;non&#45;null.ts</title>
<path fill="none" stroke="#000000" stroke-width="2" stroke-opacity="0.200000" d="M110.28,-64.33C123.31,-60.42 139.3,-56.28 154,-54.33 233.78,-43.77 462.35,-22.46 515,-83.33 530.14,-100.84 517.45,-269.83 526,-291.33 572.93,-409.43 662.57,-391.85 711,-509.33 719.66,-530.35 704.37,-593.93 719,-611.33 720.38,-612.98 721.92,-614.46 723.58,-615.78"/>
<polygon fill="#000000" fill-opacity="0.200000" stroke="#000000" stroke-width="2" stroke-opacity="0.200000" points="722.72,-617.74 728.87,-619.33 725.05,-614.25 722.72,-617.74"/>
</g>
<!-- src/templates/IndividualTagPage.tsx -->
<g id="node46" class="node">
<title>src/templates/IndividualTagPage.tsx</title>
<g id="a_node46"><a xlink:href="src/templates/IndividualTagPage.tsx" xlink:title="IndividualTagPage.tsx">
<path fill="#bbfeff" stroke="black" d="M133.5,-202.33C133.5,-202.33 31.5,-202.33 31.5,-202.33 28.5,-202.33 25.5,-199.33 25.5,-196.33 25.5,-196.33 25.5,-190.33 25.5,-190.33 25.5,-187.33 28.5,-184.33 31.5,-184.33 31.5,-184.33 133.5,-184.33 133.5,-184.33 136.5,-184.33 139.5,-187.33 139.5,-190.33 139.5,-190.33 139.5,-196.33 139.5,-196.33 139.5,-199.33 136.5,-202.33 133.5,-202.33"/>
<text text-anchor="middle" x="82.5" y="-191.13" font-family="Helvetica,sans-Serif" font-size="9.00">IndividualTagPage.tsx</text>
</a>
</g>
</g>
<!-- src/templates/IndividualTagPage.tsx&#45;&gt;src/templates/post&#45;list&#45;page.tsx -->
<g id="edge42" class="edge">
<title>src/templates/IndividualTagPage.tsx&#45;&gt;src/templates/post&#45;list&#45;page.tsx</title>
<path fill="none" stroke="#000000" stroke-width="2" stroke-opacity="0.200000" d="M139.7,-186.1C142.39,-185.75 145.08,-185.41 147.75,-185.06"/>
<polygon fill="#000000" fill-opacity="0.200000" stroke="#000000" stroke-width="2" stroke-opacity="0.200000" points="148.26,-187.11 153.94,-184.26 147.72,-182.95 148.26,-187.11"/>
</g>
<!-- src/templates/article&#45;page.tsx -->
<g id="node47" class="node">
<title>src/templates/article&#45;page.tsx</title>
<g id="a_node47"><a xlink:href="src/templates/article-page.tsx" xlink:title="article&#45;page.tsx">
<path fill="#bbfeff" stroke="black" d="M119.5,-112.33C119.5,-112.33 45.5,-112.33 45.5,-112.33 42.5,-112.33 39.5,-109.33 39.5,-106.33 39.5,-106.33 39.5,-100.33 39.5,-100.33 39.5,-97.33 42.5,-94.33 45.5,-94.33 45.5,-94.33 119.5,-94.33 119.5,-94.33 122.5,-94.33 125.5,-97.33 125.5,-100.33 125.5,-100.33 125.5,-106.33 125.5,-106.33 125.5,-109.33 122.5,-112.33 119.5,-112.33"/>
<text text-anchor="middle" x="82.5" y="-101.13" font-family="Helvetica,sans-Serif" font-size="9.00">article&#45;page.tsx</text>
</a>
</g>
</g>
<!-- src/templates/article&#45;page.tsx&#45;&gt;src/components/content/article&#45;styles.ts -->
<g id="edge43" class="edge">
<title>src/templates/article&#45;page.tsx&#45;&gt;src/components/content/article&#45;styles.ts</title>
<path fill="none" stroke="#000000" stroke-width="2" stroke-opacity="0.200000" d="M120.46,-94.28C189.77,-78.3 335.39,-49.82 370,-83.33 382.38,-95.32 363.9,-225.16 375,-238.33 381.49,-246.04 390.78,-250.44 400.57,-252.84"/>
<polygon fill="#000000" fill-opacity="0.200000" stroke="#000000" stroke-width="2" stroke-opacity="0.200000" points="400.42,-254.95 406.71,-254.09 401.25,-250.84 400.42,-254.95"/>
</g>
<!-- src/templates/article&#45;page.tsx&#45;&gt;src/components/layout/index.tsx -->
<g id="edge44" class="edge">
<title>src/templates/article&#45;page.tsx&#45;&gt;src/components/layout/index.tsx</title>
<path fill="none" stroke="#000000" stroke-width="2" stroke-opacity="0.200000" d="M120.8,-112.38C127.57,-114.21 134.52,-116.23 141,-118.33 167.1,-126.81 235.16,-145.48 256,-163.33 272.07,-177.1 299.91,-231.83 312.92,-258.53"/>
<polygon fill="#000000" fill-opacity="0.200000" stroke="#000000" stroke-width="2" stroke-opacity="0.200000" points="311.1,-259.59 315.61,-264.08 314.88,-257.76 311.1,-259.59"/>
</g>
<!-- src/utils/type&#45;utils.ts -->
<g id="node49" class="node">
<title>src/utils/type&#45;utils.ts</title>
<g id="a_node49"><a xlink:href="src/utils/type-utils.ts" xlink:title="type&#45;utils.ts">
<path fill="#ccffcc" stroke="black" d="M807.5,-605.33C807.5,-605.33 749.5,-605.33 749.5,-605.33 746.5,-605.33 743.5,-602.33 743.5,-599.33 743.5,-599.33 743.5,-593.33 743.5,-593.33 743.5,-590.33 746.5,-587.33 749.5,-587.33 749.5,-587.33 807.5,-587.33 807.5,-587.33 810.5,-587.33 813.5,-590.33 813.5,-593.33 813.5,-593.33 813.5,-599.33 813.5,-599.33 813.5,-602.33 810.5,-605.33 807.5,-605.33"/>
<text text-anchor="middle" x="778.5" y="-594.13" font-family="Helvetica,sans-Serif" font-size="9.00">type&#45;utils.ts</text>
</a>
</g>
</g>
</g>
</svg>
