<svg width="1920" height="1080" xmlns="http://www.w3.org/2000/svg"><path d="M919,596L805,569L809,777Z" fill="rgb(181,60,185)" stroke="rgb(181,60,185)" stroke-width="1.51"></path><path d="M809,777L942,719L919,596Z" fill="rgb(186,63,184)" stroke="rgb(186,63,184)" stroke-width="1.51"></path><path d="M805,569L671,629L809,777Z" fill="rgb(179,58,185)" stroke="rgb(179,58,185)" stroke-width="1.51"></path><path d="M671,629L637,745L809,777Z" fill="rgb(181,60,185)" stroke="rgb(181,60,185)" stroke-width="1.51"></path><path d="M942,719L1058,748L919,596Z" fill="rgb(189,64,184)" stroke="rgb(189,64,184)" stroke-width="1.51"></path><path d="M1072,793L1058,748L942,719Z" fill="rgb(195,69,182)" stroke="rgb(195,69,182)" stroke-width="1.51"></path><path d="M805,569L612,575L671,629Z" fill="rgb(171,54,186)" stroke="rgb(171,54,186)" stroke-width="1.51"></path><path d="M671,629L612,575L637,745Z" fill="rgb(174,55,186)" stroke="rgb(174,55,186)" stroke-width="1.51"></path><path d="M809,777L943,899L942,719Z" fill="rgb(193,67,183)" stroke="rgb(193,67,183)" stroke-width="1.51"></path><path d="M873,990L943,899L809,777Z" fill="rgb(198,70,182)" stroke="rgb(198,70,182)" stroke-width="1.51"></path><path d="M943,899L1072,793L942,719Z" fill="rgb(197,69,182)" stroke="rgb(197,69,182)" stroke-width="1.51"></path><path d="M914,339L677,406L805,569Z" fill="rgb(165,49,187)" stroke="rgb(165,49,187)" stroke-width="1.51"></path><path d="M805,569L677,406L612,575Z" fill="rgb(166,51,187)" stroke="rgb(166,51,187)" stroke-width="1.51"></path><path d="M1058,748L1095,549L919,596Z" fill="rgb(187,63,184)" stroke="rgb(187,63,184)" stroke-width="1.51"></path><path d="M1205,736L1095,549L1058,748Z" fill="rgb(194,67,183)" stroke="rgb(194,67,183)" stroke-width="1.51"></path><path d="M914,339L805,569L919,596Z" fill="rgb(173,55,186)" stroke="rgb(173,55,186)" stroke-width="1.51"></path><path d="M709,973L873,990L809,777Z" fill="rgb(197,69,182)" stroke="rgb(197,69,182)" stroke-width="1.51"></path><path d="M1031,967L1156,778L1072,793Z" fill="rgb(203,73,181)" stroke="rgb(203,73,181)" stroke-width="1.51"></path><path d="M606,920L709,973L809,777Z" fill="rgb(192,66,183)" stroke="rgb(192,66,183)" stroke-width="1.51"></path><path d="M1072,793L1156,778L1058,748Z" fill="rgb(199,70,182)" stroke="rgb(199,70,182)" stroke-width="1.51"></path><path d="M1031,967L1072,793L943,899Z" fill="rgb(203,73,181)" stroke="rgb(203,73,181)" stroke-width="1.51"></path><path d="M637,745L606,920L809,777Z" fill="rgb(186,63,184)" stroke="rgb(186,63,184)" stroke-width="1.51"></path><path d="M498,781L606,920L637,745Z" fill="rgb(182,61,185)" stroke="rgb(182,61,185)" stroke-width="1.51"></path><path d="M1095,549L914,339L919,596Z" fill="rgb(176,57,186)" stroke="rgb(176,57,186)" stroke-width="1.51"></path><path d="M873,990L1031,967L943,899Z" fill="rgb(205,74,180)" stroke="rgb(205,74,180)" stroke-width="1.51"></path><path d="M1095,549L965,316L914,339Z" fill="rgb(170,53,187)" stroke="rgb(170,53,187)" stroke-width="1.51"></path><path d="M1286,467L1140,485L1095,549Z" fill="rgb(184,61,184)" stroke="rgb(184,61,184)" stroke-width="1.51"></path><path d="M612,575L498,781L637,745Z" fill="rgb(175,56,186)" stroke="rgb(175,56,186)" stroke-width="1.51"></path><path d="M373,680L498,781L612,575Z" fill="rgb(170,53,187)" stroke="rgb(170,53,187)" stroke-width="1.51"></path><path d="M1156,778L1205,736L1058,748Z" fill="rgb(199,71,182)" stroke="rgb(199,71,182)" stroke-width="1.51"></path><path d="M1298,901L1205,736L1156,778Z" fill="rgb(206,75,181)" stroke="rgb(206,75,181)" stroke-width="1.51"></path><path d="M659,209L534,398L677,406Z" fill="rgb(150,41,189)" stroke="rgb(150,41,189)" stroke-width="1.51"></path><path d="M1140,485L965,316L1095,549Z" fill="rgb(176,57,186)" stroke="rgb(176,57,186)" stroke-width="1.51"></path><path d="M606,920L664,1142L709,973Z" fill="rgb(198,70,182)" stroke="rgb(198,70,182)" stroke-width="1.51"></path><path d="M498,781L516,900L606,920Z" fill="rgb(184,62,184)" stroke="rgb(184,62,184)" stroke-width="1.51"></path><path d="M677,406L534,398L612,575Z" fill="rgb(159,46,188)" stroke="rgb(159,46,188)" stroke-width="1.51"></path><path d="M811,242L677,406L914,339Z" fill="rgb(157,45,188)" stroke="rgb(157,45,188)" stroke-width="1.51"></path><path d="M965,316L811,242L914,339Z" fill="rgb(158,46,188)" stroke="rgb(158,46,188)" stroke-width="1.51"></path><path d="M1140,485L1185,233L965,316Z" fill="rgb(170,53,186)" stroke="rgb(170,53,186)" stroke-width="1.51"></path><path d="M1286,467L1214,447L1140,485Z" fill="rgb(183,61,185)" stroke="rgb(183,61,185)" stroke-width="1.51"></path><path d="M516,900L486,930L606,920Z" fill="rgb(188,64,183)" stroke="rgb(188,64,183)" stroke-width="1.51"></path><path d="M498,781L486,930L516,900Z" fill="rgb(183,61,184)" stroke="rgb(183,61,184)" stroke-width="1.51"></path><path d="M498,781L298,772L486,930Z" fill="rgb(177,57,185)" stroke="rgb(177,57,185)" stroke-width="1.51"></path><path d="M340,614L373,680L612,575Z" fill="rgb(163,49,187)" stroke="rgb(163,49,187)" stroke-width="1.51"></path><path d="M1031,967L1298,901L1156,778Z" fill="rgb(208,76,180)" stroke="rgb(208,76,180)" stroke-width="1.51"></path><path d="M985,1237L1120,1054L1031,967Z" fill="rgb(217,82,178)" stroke="rgb(217,82,178)" stroke-width="1.51"></path><path d="M873,1177L1031,967L873,990Z" fill="rgb(210,78,179)" stroke="rgb(210,78,179)" stroke-width="1.51"></path><path d="M664,1142L873,990L709,973Z" fill="rgb(204,73,181)" stroke="rgb(204,73,181)" stroke-width="1.51"></path><path d="M811,242L659,209L677,406Z" fill="rgb(150,41,189)" stroke="rgb(150,41,189)" stroke-width="1.51"></path><path d="M941,103L756,194L811,242Z" fill="rgb(148,40,190)" stroke="rgb(148,40,190)" stroke-width="1.51"></path><path d="M991,145L811,242L965,316Z" fill="rgb(155,44,188)" stroke="rgb(155,44,188)" stroke-width="1.51"></path><path d="M1185,233L1075,183L965,316Z" fill="rgb(162,48,188)" stroke="rgb(162,48,188)" stroke-width="1.51"></path><path d="M1205,736L1286,467L1095,549Z" fill="rgb(190,65,183)" stroke="rgb(190,65,183)" stroke-width="1.51"></path><path d="M1329,447L1286,467L1397,706Z" fill="rgb(192,66,183)" stroke="rgb(192,66,183)" stroke-width="1.51"></path><path d="M756,194L659,209L811,242Z" fill="rgb(146,39,190)" stroke="rgb(146,39,190)" stroke-width="1.51"></path><path d="M534,398L383,472L612,575Z" fill="rgb(156,45,188)" stroke="rgb(156,45,188)" stroke-width="1.51"></path><path d="M368,415L383,472L534,398Z" fill="rgb(149,41,189)" stroke="rgb(149,41,189)" stroke-width="1.51"></path><path d="M530,1127L664,1142L606,920Z" fill="rgb(199,71,181)" stroke="rgb(199,71,181)" stroke-width="1.51"></path><path d="M383,472L340,614L612,575Z" fill="rgb(159,46,188)" stroke="rgb(159,46,188)" stroke-width="1.51"></path><path d="M493,1118L530,1127L486,930Z" fill="rgb(195,69,182)" stroke="rgb(195,69,182)" stroke-width="1.51"></path><path d="M664,1142L873,1177L873,990Z" fill="rgb(208,76,180)" stroke="rgb(208,76,180)" stroke-width="1.51"></path><path d="M1120,1054L1298,901L1031,967Z" fill="rgb(214,80,179)" stroke="rgb(214,80,179)" stroke-width="1.51"></path><path d="M1286,467L1329,447L1214,447Z" fill="rgb(184,62,184)" stroke="rgb(184,62,184)" stroke-width="1.51"></path><path d="M1397,706L1286,467L1205,736Z" fill="rgb(197,70,182)" stroke="rgb(197,70,182)" stroke-width="1.51"></path><path d="M383,472L342,437L340,614Z" fill="rgb(152,42,189)" stroke="rgb(152,42,189)" stroke-width="1.51"></path><path d="M407,188L368,415L534,398Z" fill="rgb(142,37,190)" stroke="rgb(142,37,190)" stroke-width="1.51"></path><path d="M1185,233L1140,485L1214,447Z" fill="rgb(177,57,185)" stroke="rgb(177,57,185)" stroke-width="1.51"></path><path d="M1075,183L991,145L965,316Z" fill="rgb(157,45,188)" stroke="rgb(157,45,188)" stroke-width="1.51"></path><path d="M756,194L727,72L659,209Z" fill="rgb(140,36,191)" stroke="rgb(140,36,191)" stroke-width="1.51"></path><path d="M883,1358L985,1237L873,1177Z" fill="rgb(212,79,179)" stroke="rgb(212,79,179)" stroke-width="1.51"></path><path d="M486,930L530,1127L606,920Z" fill="rgb(193,67,182)" stroke="rgb(193,67,182)" stroke-width="1.51"></path><path d="M298,772L498,781L373,680Z" fill="rgb(170,53,186)" stroke="rgb(170,53,186)" stroke-width="1.51"></path><path d="M368,415L342,437L383,472Z" fill="rgb(147,40,190)" stroke="rgb(147,40,190)" stroke-width="1.51"></path><path d="M340,614L298,772L373,680Z" fill="rgb(164,49,187)" stroke="rgb(164,49,187)" stroke-width="1.51"></path><path d="M219,746L298,772L340,614Z" fill="rgb(164,49,187)" stroke="rgb(164,49,187)" stroke-width="1.51"></path><path d="M1298,901L1397,706L1205,736Z" fill="rgb(207,76,181)" stroke="rgb(207,76,181)" stroke-width="1.51"></path><path d="M1373,271L1185,233L1214,447Z" fill="rgb(174,56,186)" stroke="rgb(174,56,186)" stroke-width="1.51"></path><path d="M228,922L493,1118L486,930Z" fill="rgb(188,63,184)" stroke="rgb(188,63,184)" stroke-width="1.51"></path><path d="M1120,1054L1336,997L1298,901Z" fill="rgb(218,83,178)" stroke="rgb(218,83,178)" stroke-width="1.51"></path><path d="M985,1237L1098,1186L1120,1054Z" fill="rgb(217,83,178)" stroke="rgb(217,83,178)" stroke-width="1.51"></path><path d="M941,-15L941,103L991,145Z" fill="rgb(145,39,190)" stroke="rgb(145,39,190)" stroke-width="1.51"></path><path d="M991,145L941,103L811,242Z" fill="rgb(150,41,190)" stroke="rgb(150,41,190)" stroke-width="1.51"></path><path d="M941,-15L991,145L995,-68Z" fill="rgb(141,36,191)" stroke="rgb(141,36,191)" stroke-width="1.51"></path><path d="M717,1348L873,1177L664,1142Z" fill="rgb(206,75,180)" stroke="rgb(206,75,180)" stroke-width="1.51"></path><path d="M873,1177L985,1237L1031,967Z" fill="rgb(214,80,179)" stroke="rgb(214,80,179)" stroke-width="1.51"></path><path d="M1298,901L1513,779L1397,706Z" fill="rgb(212,79,179)" stroke="rgb(212,79,179)" stroke-width="1.51"></path><path d="M1269,1148L1336,997L1120,1054Z" fill="rgb(222,86,177)" stroke="rgb(222,86,177)" stroke-width="1.51"></path><path d="M659,209L407,188L534,398Z" fill="rgb(141,37,191)" stroke="rgb(141,37,191)" stroke-width="1.51"></path><path d="M254,261L208,462L342,437Z" fill="rgb(139,35,191)" stroke="rgb(139,35,191)" stroke-width="1.51"></path><path d="M941,103L727,72L756,194Z" fill="rgb(142,37,191)" stroke="rgb(142,37,191)" stroke-width="1.51"></path><path d="M1098,1186L1208,1173L1120,1054Z" fill="rgb(220,84,178)" stroke="rgb(220,84,178)" stroke-width="1.51"></path><path d="M1162,1296L1208,1173L1098,1186Z" fill="rgb(221,85,178)" stroke="rgb(221,85,178)" stroke-width="1.51"></path><path d="M298,772L228,922L486,930Z" fill="rgb(177,57,185)" stroke="rgb(177,57,185)" stroke-width="1.51"></path><path d="M150,503L219,746L340,614Z" fill="rgb(155,44,188)" stroke="rgb(155,44,188)" stroke-width="1.51"></path><path d="M1208,1173L1269,1148L1120,1054Z" fill="rgb(222,86,177)" stroke="rgb(222,86,177)" stroke-width="1.51"></path><path d="M1397,706L1485,635L1329,447Z" fill="rgb(199,71,182)" stroke="rgb(199,71,182)" stroke-width="1.51"></path><path d="M1329,447L1373,271L1214,447Z" fill="rgb(181,60,185)" stroke="rgb(181,60,185)" stroke-width="1.51"></path><path d="M1513,779L1485,635L1397,706Z" fill="rgb(208,76,180)" stroke="rgb(208,76,180)" stroke-width="1.51"></path><path d="M342,437L208,462L340,614Z" fill="rgb(149,41,190)" stroke="rgb(149,41,190)" stroke-width="1.51"></path><path d="M381,124L407,188L531,19Z" fill="rgb(124,27,193)" stroke="rgb(124,27,193)" stroke-width="1.51"></path><path d="M530,1127L571,1273L664,1142Z" fill="rgb(200,71,181)" stroke="rgb(200,71,181)" stroke-width="1.51"></path><path d="M411,1251L571,1273L530,1127Z" fill="rgb(197,70,182)" stroke="rgb(197,70,182)" stroke-width="1.51"></path><path d="M411,1251L530,1127L493,1118Z" fill="rgb(196,69,182)" stroke="rgb(196,69,182)" stroke-width="1.51"></path><path d="M219,746L228,922L298,772Z" fill="rgb(169,53,186)" stroke="rgb(169,53,186)" stroke-width="1.51"></path><path d="M1207,27L991,145L1075,183Z" fill="rgb(153,43,189)" stroke="rgb(153,43,189)" stroke-width="1.51"></path><path d="M1473,407L1373,271L1329,447Z" fill="rgb(184,61,184)" stroke="rgb(184,61,184)" stroke-width="1.51"></path><path d="M254,261L342,437L368,415Z" fill="rgb(140,36,191)" stroke="rgb(140,36,191)" stroke-width="1.51"></path><path d="M1537,990L1513,779L1298,901Z" fill="rgb(219,84,178)" stroke="rgb(219,84,178)" stroke-width="1.51"></path><path d="M1537,990L1298,901L1336,997Z" fill="rgb(222,85,177)" stroke="rgb(222,85,177)" stroke-width="1.51"></path><path d="M1504,478L1329,447L1485,635Z" fill="rgb(195,68,182)" stroke="rgb(195,68,182)" stroke-width="1.51"></path><path d="M1504,478L1473,407L1329,447Z" fill="rgb(190,65,183)" stroke="rgb(190,65,183)" stroke-width="1.51"></path><path d="M571,1273L717,1348L664,1142Z" fill="rgb(203,73,181)" stroke="rgb(203,73,181)" stroke-width="1.51"></path><path d="M985,1237L1162,1296L1098,1186Z" fill="rgb(218,83,178)" stroke="rgb(218,83,178)" stroke-width="1.51"></path><path d="M717,1348L883,1358L873,1177Z" fill="rgb(209,77,180)" stroke="rgb(209,77,180)" stroke-width="1.51"></path><path d="M1208,1173L1341,1260L1269,1148Z" fill="rgb(225,87,177)" stroke="rgb(225,87,177)" stroke-width="1.51"></path><path d="M1561,559L1504,478L1485,635Z" fill="rgb(200,72,182)" stroke="rgb(200,72,182)" stroke-width="1.51"></path><path d="M941,103L941,-15L727,72Z" fill="rgb(139,35,191)" stroke="rgb(139,35,191)" stroke-width="1.51"></path><path d="M531,19L407,188L659,209Z" fill="rgb(130,31,192)" stroke="rgb(130,31,192)" stroke-width="1.51"></path><path d="M1207,27L1075,183L1185,233Z" fill="rgb(158,46,188)" stroke="rgb(158,46,188)" stroke-width="1.51"></path><path d="M883,1358L1162,1296L985,1237Z" fill="rgb(215,81,178)" stroke="rgb(215,81,178)" stroke-width="1.51"></path><path d="M208,462L150,503L340,614Z" fill="rgb(148,40,189)" stroke="rgb(148,40,189)" stroke-width="1.51"></path><path d="M219,746L73,804L228,922Z" fill="rgb(167,51,186)" stroke="rgb(167,51,186)" stroke-width="1.51"></path><path d="M34,411L150,503L208,462Z" fill="rgb(138,35,191)" stroke="rgb(138,35,191)" stroke-width="1.51"></path><path d="M1269,1148L1410,1105L1336,997Z" fill="rgb(227,89,176)" stroke="rgb(227,89,176)" stroke-width="1.51"></path><path d="M1341,1260L1410,1105L1269,1148Z" fill="rgb(227,89,176)" stroke="rgb(227,89,176)" stroke-width="1.51"></path><path d="M407,188L254,261L368,415Z" fill="rgb(134,33,191)" stroke="rgb(134,33,191)" stroke-width="1.51"></path><path d="M531,19L659,209L727,72Z" fill="rgb(133,32,192)" stroke="rgb(133,32,192)" stroke-width="1.51"></path><path d="M338,154L254,261L407,188Z" fill="rgb(127,28,192)" stroke="rgb(127,28,192)" stroke-width="1.51"></path><path d="M237,1184L411,1251L493,1118Z" fill="rgb(193,67,183)" stroke="rgb(193,67,183)" stroke-width="1.51"></path><path d="M571,1273L353,1329L717,1348Z" fill="rgb(199,71,182)" stroke="rgb(199,71,182)" stroke-width="1.51"></path><path d="M381,124L338,154L407,188Z" fill="rgb(125,28,193)" stroke="rgb(125,28,193)" stroke-width="1.51"></path><path d="M702,-59L531,19L727,72Z" fill="rgb(126,28,193)" stroke="rgb(126,28,193)" stroke-width="1.51"></path><path d="M381,124L208,-47L338,154Z" fill="rgb(114,23,194)" stroke="rgb(114,23,194)" stroke-width="1.51"></path><path d="M1684,406L1541,249L1473,407Z" fill="rgb(189,64,183)" stroke="rgb(189,64,183)" stroke-width="1.51"></path><path d="M1600,726L1561,559L1485,635Z" fill="rgb(207,75,180)" stroke="rgb(207,75,180)" stroke-width="1.51"></path><path d="M1373,271L1274,84L1185,233Z" fill="rgb(167,51,187)" stroke="rgb(167,51,187)" stroke-width="1.51"></path><path d="M1480,31L1274,84L1373,271Z" fill="rgb(166,50,187)" stroke="rgb(166,50,187)" stroke-width="1.51"></path><path d="M1274,84L1207,27L1185,233Z" fill="rgb(159,46,188)" stroke="rgb(159,46,188)" stroke-width="1.51"></path><path d="M850,-151L702,-59L941,-15Z" fill="rgb(133,32,192)" stroke="rgb(133,32,192)" stroke-width="1.51"></path><path d="M941,-15L702,-59L727,72Z" fill="rgb(131,31,192)" stroke="rgb(131,31,192)" stroke-width="1.51"></path><path d="M1207,27L995,-68L991,145Z" fill="rgb(146,39,190)" stroke="rgb(146,39,190)" stroke-width="1.51"></path><path d="M1513,779L1600,726L1485,635Z" fill="rgb(211,78,180)" stroke="rgb(211,78,180)" stroke-width="1.51"></path><path d="M1618,843L1600,726L1513,779Z" fill="rgb(217,82,178)" stroke="rgb(217,82,178)" stroke-width="1.51"></path><path d="M150,503L82,738L219,746Z" fill="rgb(155,44,188)" stroke="rgb(155,44,188)" stroke-width="1.51"></path><path d="M228,922L237,1184L493,1118Z" fill="rgb(190,65,183)" stroke="rgb(190,65,183)" stroke-width="1.51"></path><path d="M1410,1105L1537,990L1336,997Z" fill="rgb(227,89,176)" stroke="rgb(227,89,176)" stroke-width="1.51"></path><path d="M1410,1105L1605,1082L1537,990Z" fill="rgb(232,92,176)" stroke="rgb(232,92,176)" stroke-width="1.51"></path><path d="M1162,1296L1341,1260L1208,1173Z" fill="rgb(223,87,177)" stroke="rgb(223,87,177)" stroke-width="1.51"></path><path d="M1519,1238L1341,1260L1578,1343Z" fill="rgb(232,92,175)" stroke="rgb(232,92,175)" stroke-width="1.51"></path><path d="M82,738L73,804L219,746Z" fill="rgb(161,47,188)" stroke="rgb(161,47,188)" stroke-width="1.51"></path><path d="M73,804L106,946L228,922Z" fill="rgb(171,53,187)" stroke="rgb(171,53,187)" stroke-width="1.51"></path><path d="M123,1092L237,1184L228,922Z" fill="rgb(185,62,184)" stroke="rgb(185,62,184)" stroke-width="1.51"></path><path d="M1537,990L1618,843L1513,779Z" fill="rgb(222,86,177)" stroke="rgb(222,86,177)" stroke-width="1.51"></path><path d="M411,1251L353,1329L571,1273Z" fill="rgb(195,68,182)" stroke="rgb(195,68,182)" stroke-width="1.51"></path><path d="M717,1348L-145,1361L883,1358Z" fill="rgb(196,69,182)" stroke="rgb(196,69,182)" stroke-width="1.51"></path><path d="M237,1184L353,1329L411,1251Z" fill="rgb(191,66,183)" stroke="rgb(191,66,183)" stroke-width="1.51"></path><path d="M1473,407L1541,249L1373,271Z" fill="rgb(182,60,185)" stroke="rgb(182,60,185)" stroke-width="1.51"></path><path d="M1360,-58L1145,-120L1207,27Z" fill="rgb(151,42,189)" stroke="rgb(151,42,189)" stroke-width="1.51"></path><path d="M1684,406L1473,407L1504,478Z" fill="rgb(193,67,182)" stroke="rgb(193,67,182)" stroke-width="1.51"></path><path d="M1684,406L1504,478L1561,559Z" fill="rgb(198,70,182)" stroke="rgb(198,70,182)" stroke-width="1.51"></path><path d="M1684,406L1561,559L1727,512Z" fill="rgb(201,72,181)" stroke="rgb(201,72,181)" stroke-width="1.51"></path><path d="M1063,-160L850,-151L995,-68Z" fill="rgb(139,35,191)" stroke="rgb(139,35,191)" stroke-width="1.51"></path><path d="M995,-68L850,-151L941,-15Z" fill="rgb(138,34,191)" stroke="rgb(138,34,191)" stroke-width="1.51"></path><path d="M521,-134L409,-63L531,19Z" fill="rgb(116,23,194)" stroke="rgb(116,23,194)" stroke-width="1.51"></path><path d="M237,1184L64,1264L353,1329Z" fill="rgb(187,63,184)" stroke="rgb(187,63,184)" stroke-width="1.51"></path><path d="M106,946L123,1092L228,922Z" fill="rgb(178,57,185)" stroke="rgb(178,57,185)" stroke-width="1.51"></path><path d="M41,989L123,1092L106,946Z" fill="rgb(177,57,185)" stroke="rgb(177,57,185)" stroke-width="1.51"></path><path d="M3,891L41,989L106,946Z" fill="rgb(170,53,186)" stroke="rgb(170,53,186)" stroke-width="1.51"></path><path d="M82,738L-5,719L73,804Z" fill="rgb(157,46,188)" stroke="rgb(157,46,188)" stroke-width="1.51"></path><path d="M-53,610L-5,719L82,738Z" fill="rgb(151,41,189)" stroke="rgb(151,41,189)" stroke-width="1.51"></path><path d="M-53,610L82,738L150,503Z" fill="rgb(147,40,189)" stroke="rgb(147,40,189)" stroke-width="1.51"></path><path d="M89,250L34,411L208,462Z" fill="rgb(130,30,192)" stroke="rgb(130,30,192)" stroke-width="1.51"></path><path d="M89,250L208,462L254,261Z" fill="rgb(129,30,192)" stroke="rgb(129,30,192)" stroke-width="1.51"></path><path d="M1207,27L1145,-120L995,-68Z" fill="rgb(146,39,190)" stroke="rgb(146,39,190)" stroke-width="1.51"></path><path d="M1360,-58L1207,27L1274,84Z" fill="rgb(154,44,189)" stroke="rgb(154,44,189)" stroke-width="1.51"></path><path d="M637,-158L531,19L702,-59Z" fill="rgb(123,27,193)" stroke="rgb(123,27,193)" stroke-width="1.51"></path><path d="M531,19L409,-63L381,124Z" fill="rgb(116,23,193)" stroke="rgb(116,23,193)" stroke-width="1.51"></path><path d="M72,82L89,250L254,261Z" fill="rgb(116,24,194)" stroke="rgb(116,24,194)" stroke-width="1.51"></path><path d="M775,-242L637,-158L702,-59Z" fill="rgb(127,29,192)" stroke="rgb(127,29,192)" stroke-width="1.51"></path><path d="M3,891L106,946L73,804Z" fill="rgb(166,51,187)" stroke="rgb(166,51,187)" stroke-width="1.51"></path><path d="M1145,-120L1063,-160L995,-68Z" fill="rgb(143,38,190)" stroke="rgb(143,38,190)" stroke-width="1.51"></path><path d="M850,-151L775,-242L702,-59Z" fill="rgb(131,30,192)" stroke="rgb(131,30,192)" stroke-width="1.51"></path><path d="M18,192L89,250L72,82Z" fill="rgb(110,21,194)" stroke="rgb(110,21,194)" stroke-width="1.51"></path><path d="M-5,719L3,891L73,804Z" fill="rgb(160,47,188)" stroke="rgb(160,47,188)" stroke-width="1.51"></path><path d="M1537,990L1651,1054L1618,843Z" fill="rgb(229,90,176)" stroke="rgb(229,90,176)" stroke-width="1.51"></path><path d="M1519,1238L1605,1082L1410,1105Z" fill="rgb(233,93,175)" stroke="rgb(233,93,175)" stroke-width="1.51"></path><path d="M637,-158L521,-134L531,19Z" fill="rgb(120,25,193)" stroke="rgb(120,25,193)" stroke-width="1.51"></path><path d="M1341,1260L1519,1238L1410,1105Z" fill="rgb(230,91,176)" stroke="rgb(230,91,176)" stroke-width="1.51"></path><path d="M1578,1343L1341,1260L1162,1296Z" fill="rgb(228,90,176)" stroke="rgb(228,90,176)" stroke-width="1.51"></path><path d="M1727,512L1561,559L1600,726Z" fill="rgb(207,76,180)" stroke="rgb(207,76,180)" stroke-width="1.51"></path><path d="M1738,735L1600,726L1618,843Z" fill="rgb(219,83,178)" stroke="rgb(219,83,178)" stroke-width="1.51"></path><path d="M1605,1082L1651,1054L1537,990Z" fill="rgb(234,94,175)" stroke="rgb(234,94,175)" stroke-width="1.51"></path><path d="M1736,1143L1651,1054L1605,1082Z" fill="rgb(238,97,174)" stroke="rgb(238,97,174)" stroke-width="1.51"></path><path d="M34,411L-53,610L150,503Z" fill="rgb(138,35,191)" stroke="rgb(138,35,191)" stroke-width="1.51"></path><path d="M-5,719L-125,763L3,891Z" fill="rgb(158,46,188)" stroke="rgb(158,46,188)" stroke-width="1.51"></path><path d="M-164,611L-53,610L34,411Z" fill="rgb(139,35,191)" stroke="rgb(139,35,191)" stroke-width="1.51"></path><path d="M1145,-120L1184,-193L1063,-160Z" fill="rgb(146,39,190)" stroke="rgb(146,39,190)" stroke-width="1.51"></path><path d="M1480,31L1360,-58L1274,84Z" fill="rgb(158,46,188)" stroke="rgb(158,46,188)" stroke-width="1.51"></path><path d="M1480,31L1373,271L1541,249Z" fill="rgb(173,55,185)" stroke="rgb(173,55,185)" stroke-width="1.51"></path><path d="M1804,910L1738,735L1618,843Z" fill="rgb(225,87,177)" stroke="rgb(225,87,177)" stroke-width="1.51"></path><path d="M1738,735L1727,512L1600,726Z" fill="rgb(213,80,179)" stroke="rgb(213,80,179)" stroke-width="1.51"></path><path d="M1581,136L1480,31L1541,249Z" fill="rgb(173,55,186)" stroke="rgb(173,55,186)" stroke-width="1.51"></path><path d="M1686,268L1541,249L1684,406Z" fill="rgb(188,64,183)" stroke="rgb(188,64,183)" stroke-width="1.51"></path><path d="M1686,268L1581,136L1541,249Z" fill="rgb(181,59,185)" stroke="rgb(181,59,185)" stroke-width="1.51"></path><path d="M1063,-160L775,-242L850,-151Z" fill="rgb(136,34,191)" stroke="rgb(136,34,191)" stroke-width="1.51"></path><path d="M637,-158L775,-242L521,-134Z" fill="rgb(124,27,193)" stroke="rgb(124,27,193)" stroke-width="1.51"></path><path d="M123,1092L64,1264L237,1184Z" fill="rgb(184,61,184)" stroke="rgb(184,61,184)" stroke-width="1.51"></path><path d="M41,989L26,1120L123,1092Z" fill="rgb(180,59,184)" stroke="rgb(180,59,184)" stroke-width="1.51"></path><path d="M-131,1109L26,1120L41,989Z" fill="rgb(178,57,185)" stroke="rgb(178,57,185)" stroke-width="1.51"></path><path d="M-154,1046L41,989L3,891Z" fill="rgb(171,53,186)" stroke="rgb(171,53,186)" stroke-width="1.51"></path><path d="M1063,-160L1184,-193L775,-242Z" fill="rgb(141,36,190)" stroke="rgb(141,36,190)" stroke-width="1.51"></path><path d="M1336,-166L1184,-193L1145,-120Z" fill="rgb(150,41,189)" stroke="rgb(150,41,189)" stroke-width="1.51"></path><path d="M1336,-166L1145,-120L1360,-58Z" fill="rgb(153,43,189)" stroke="rgb(153,43,189)" stroke-width="1.51"></path><path d="M1764,377L1686,268L1684,406Z" fill="rgb(194,67,182)" stroke="rgb(194,67,182)" stroke-width="1.51"></path><path d="M272,-187L368,-145L521,-134Z" fill="rgb(111,20,194)" stroke="rgb(111,20,194)" stroke-width="1.51"></path><path d="M521,-134L368,-145L409,-63Z" fill="rgb(114,22,194)" stroke="rgb(114,22,194)" stroke-width="1.51"></path><path d="M409,-63L208,-47L381,124Z" fill="rgb(109,20,194)" stroke="rgb(109,20,194)" stroke-width="1.51"></path><path d="M1736,1143L1735,993L1651,1054Z" fill="rgb(239,97,174)" stroke="rgb(239,97,174)" stroke-width="1.51"></path><path d="M1651,1054L1735,993L1618,843Z" fill="rgb(232,92,176)" stroke="rgb(232,92,176)" stroke-width="1.51"></path><path d="M89,250L18,192L34,411Z" fill="rgb(120,25,193)" stroke="rgb(120,25,193)" stroke-width="1.51"></path><path d="M72,82L254,261L338,154Z" fill="rgb(118,24,194)" stroke="rgb(118,24,194)" stroke-width="1.51"></path><path d="M246,-131L208,-47L409,-63Z" fill="rgb(106,18,195)" stroke="rgb(106,18,195)" stroke-width="1.51"></path><path d="M208,-47L72,82L338,154Z" fill="rgb(108,19,195)" stroke="rgb(108,19,195)" stroke-width="1.51"></path><path d="M1727,512L1764,377L1684,406Z" fill="rgb(200,71,181)" stroke="rgb(200,71,181)" stroke-width="1.51"></path><path d="M1878,545L1764,377L1727,512Z" fill="rgb(205,75,180)" stroke="rgb(205,75,180)" stroke-width="1.51"></path><path d="M1878,545L1727,512L1738,735Z" fill="rgb(212,79,179)" stroke="rgb(212,79,179)" stroke-width="1.51"></path><path d="M-53,610L-125,763L-5,719Z" fill="rgb(151,42,189)" stroke="rgb(151,42,189)" stroke-width="1.51"></path><path d="M-164,611L-125,763L-53,610Z" fill="rgb(148,40,189)" stroke="rgb(148,40,189)" stroke-width="1.51"></path><path d="M1454,-99L1360,-58L1480,31Z" fill="rgb(159,46,188)" stroke="rgb(159,46,188)" stroke-width="1.51"></path><path d="M1454,-99L1336,-166L1360,-58Z" fill="rgb(157,45,188)" stroke="rgb(157,45,188)" stroke-width="1.51"></path><path d="M26,1120L64,1264L123,1092Z" fill="rgb(181,59,184)" stroke="rgb(181,59,184)" stroke-width="1.51"></path><path d="M-75,1299L64,1264L26,1120Z" fill="rgb(179,58,185)" stroke="rgb(179,58,185)" stroke-width="1.51"></path><path d="M1563,-45L1454,-99L1480,31Z" fill="rgb(162,48,188)" stroke="rgb(162,48,188)" stroke-width="1.51"></path><path d="M1563,-45L1480,31L1581,136Z" fill="rgb(166,50,187)" stroke="rgb(166,50,187)" stroke-width="1.51"></path><path d="M1563,-45L1581,136L1778,56Z" fill="rgb(171,53,186)" stroke="rgb(171,53,186)" stroke-width="1.51"></path><path d="M1735,993L1804,910L1618,843Z" fill="rgb(230,91,176)" stroke="rgb(230,91,176)" stroke-width="1.51"></path><path d="M1519,1238L1736,1143L1605,1082Z" fill="rgb(237,96,174)" stroke="rgb(237,96,174)" stroke-width="1.51"></path><path d="M1974,1001L1948,913L1804,910Z" fill="rgb(238,96,174)" stroke="rgb(238,96,174)" stroke-width="1.51"></path><path d="M883,1358L1578,1343L1162,1296Z" fill="rgb(222,86,177)" stroke="rgb(222,86,177)" stroke-width="1.51"></path><path d="M368,-145L246,-131L409,-63Z" fill="rgb(109,19,194)" stroke="rgb(109,19,194)" stroke-width="1.51"></path><path d="M-28,-90L-17,61L72,82Z" fill="rgb(92,12,196)" stroke="rgb(92,12,196)" stroke-width="1.51"></path><path d="M272,-187L246,-131L368,-145Z" fill="rgb(107,18,195)" stroke="rgb(107,18,195)" stroke-width="1.51"></path><path d="M-230,336L-164,611L34,411Z" fill="rgb(132,31,192)" stroke="rgb(132,31,192)" stroke-width="1.51"></path><path d="M1578,1343L1736,1143L1519,1238Z" fill="rgb(237,95,174)" stroke="rgb(237,95,174)" stroke-width="1.51"></path><path d="M1454,-99L1421,-240L1336,-166Z" fill="rgb(158,46,188)" stroke="rgb(158,46,188)" stroke-width="1.51"></path><path d="M1778,56L1581,136L1686,268Z" fill="rgb(180,59,185)" stroke="rgb(180,59,185)" stroke-width="1.51"></path><path d="M-28,-90L72,82L208,-47Z" fill="rgb(94,13,196)" stroke="rgb(94,13,196)" stroke-width="1.51"></path><path d="M775,-242L272,-187L521,-134Z" fill="rgb(118,24,193)" stroke="rgb(118,24,193)" stroke-width="1.51"></path><path d="M1858,191L1778,56L1686,268Z" fill="rgb(185,61,184)" stroke="rgb(185,61,184)" stroke-width="1.51"></path><path d="M1970,715L1878,545L1738,735Z" fill="rgb(219,84,178)" stroke="rgb(219,84,178)" stroke-width="1.51"></path><path d="M18,192L-230,336L34,411Z" fill="rgb(120,25,193)" stroke="rgb(120,25,193)" stroke-width="1.51"></path><path d="M72,82L-17,61L18,192Z" fill="rgb(102,16,195)" stroke="rgb(102,16,195)" stroke-width="1.51"></path><path d="M132,-221L208,-47L246,-131Z" fill="rgb(101,16,195)" stroke="rgb(101,16,195)" stroke-width="1.51"></path><path d="M-125,763L-154,1046L3,891Z" fill="rgb(166,50,187)" stroke="rgb(166,50,187)" stroke-width="1.51"></path><path d="M-238,791L-154,1046L-125,763Z" fill="rgb(163,49,187)" stroke="rgb(163,49,187)" stroke-width="1.51"></path><path d="M-154,1046L-131,1109L41,989Z" fill="rgb(176,56,185)" stroke="rgb(176,56,185)" stroke-width="1.51"></path><path d="M1336,-166L1421,-240L1184,-193Z" fill="rgb(154,43,189)" stroke="rgb(154,43,189)" stroke-width="1.51"></path><path d="M1184,-193L1421,-240L775,-242Z" fill="rgb(146,39,190)" stroke="rgb(146,39,190)" stroke-width="1.51"></path><path d="M1619,-148L1421,-240L1454,-99Z" fill="rgb(162,48,188)" stroke="rgb(162,48,188)" stroke-width="1.51"></path><path d="M-230,336L-238,791L-164,611Z" fill="rgb(142,37,190)" stroke="rgb(142,37,190)" stroke-width="1.51"></path><path d="M-164,611L-238,791L-125,763Z" fill="rgb(153,43,189)" stroke="rgb(153,43,189)" stroke-width="1.51"></path><path d="M-131,1109L-75,1299L26,1120Z" fill="rgb(178,58,185)" stroke="rgb(178,58,185)" stroke-width="1.51"></path><path d="M64,1264L-145,1361L353,1329Z" fill="rgb(182,60,184)" stroke="rgb(182,60,184)" stroke-width="1.51"></path><path d="M-145,1361L-75,1299L-131,1109Z" fill="rgb(178,58,185)" stroke="rgb(178,58,185)" stroke-width="1.51"></path><path d="M-145,1361L-131,1109L-154,1046Z" fill="rgb(178,58,185)" stroke="rgb(178,58,185)" stroke-width="1.51"></path><path d="M1563,-45L1619,-148L1454,-99Z" fill="rgb(163,49,187)" stroke="rgb(163,49,187)" stroke-width="1.51"></path><path d="M1858,191L1686,268L1764,377Z" fill="rgb(191,66,183)" stroke="rgb(191,66,183)" stroke-width="1.51"></path><path d="M-205,185L-230,336L18,192Z" fill="rgb(113,22,194)" stroke="rgb(113,22,194)" stroke-width="1.51"></path><path d="M1935,326L1858,191L1764,377Z" fill="rgb(195,69,182)" stroke="rgb(195,69,182)" stroke-width="1.51"></path><path d="M1804,910L1970,715L1738,735Z" fill="rgb(226,88,176)" stroke="rgb(226,88,176)" stroke-width="1.51"></path><path d="M1878,545L1935,326L1764,377Z" fill="rgb(204,73,181)" stroke="rgb(204,73,181)" stroke-width="1.51"></path><path d="M1948,913L1970,715L1804,910Z" fill="rgb(232,92,175)" stroke="rgb(232,92,175)" stroke-width="1.51"></path><path d="M1767,-132L1619,-148L1563,-45Z" fill="rgb(167,51,187)" stroke="rgb(167,51,187)" stroke-width="1.51"></path><path d="M1974,1001L1735,993L1736,1143Z" fill="rgb(242,99,174)" stroke="rgb(242,99,174)" stroke-width="1.51"></path><path d="M1974,1001L1804,910L1735,993Z" fill="rgb(237,96,174)" stroke="rgb(237,96,174)" stroke-width="1.51"></path><path d="M-17,61L-205,185L18,192Z" fill="rgb(104,17,195)" stroke="rgb(104,17,195)" stroke-width="1.51"></path><path d="M272,-187L132,-221L246,-131Z" fill="rgb(102,16,195)" stroke="rgb(102,16,195)" stroke-width="1.51"></path><path d="M775,-242L132,-221L272,-187Z" fill="rgb(112,21,194)" stroke="rgb(112,21,194)" stroke-width="1.51"></path><path d="M2047,425L1935,326L1878,545Z" fill="rgb(207,76,180)" stroke="rgb(207,76,180)" stroke-width="1.51"></path><path d="M-225,110L-205,185L-17,61Z" fill="rgb(102,16,195)" stroke="rgb(102,16,195)" stroke-width="1.51"></path><path d="M132,-221L-28,-90L208,-47Z" fill="rgb(96,13,196)" stroke="rgb(96,13,196)" stroke-width="1.51"></path><path d="M1578,1343L1827,1277L1736,1143Z" fill="rgb(240,98,174)" stroke="rgb(240,98,174)" stroke-width="1.51"></path><path d="M1993,1172L1974,1001L1736,1143Z" fill="rgb(247,103,172)" stroke="rgb(247,103,172)" stroke-width="1.51"></path><path d="M1948,913L2108,857L1970,715Z" fill="rgb(232,92,175)" stroke="rgb(232,92,175)" stroke-width="1.51"></path><path d="M1778,56L1767,-132L1563,-45Z" fill="rgb(170,53,186)" stroke="rgb(170,53,186)" stroke-width="1.51"></path><path d="M1858,191L1983,126L1778,56Z" fill="rgb(185,62,184)" stroke="rgb(185,62,184)" stroke-width="1.51"></path><path d="M1935,326L1938,184L1858,191Z" fill="rgb(193,68,182)" stroke="rgb(193,68,182)" stroke-width="1.51"></path><path d="M2044,286L1938,184L1935,326Z" fill="rgb(196,69,182)" stroke="rgb(196,69,182)" stroke-width="1.51"></path><path d="M-75,1299L-145,1361L64,1264Z" fill="rgb(178,58,185)" stroke="rgb(178,58,185)" stroke-width="1.51"></path><path d="M353,1329L-145,1361L717,1348Z" fill="rgb(190,65,183)" stroke="rgb(190,65,183)" stroke-width="1.51"></path><path d="M-238,791L-145,1361L-154,1046Z" fill="rgb(177,57,185)" stroke="rgb(177,57,185)" stroke-width="1.51"></path><path d="M-167,-87L-225,110L-17,61Z" fill="rgb(92,12,196)" stroke="rgb(92,12,196)" stroke-width="1.51"></path><path d="M-205,185L-225,110L-230,336Z" fill="rgb(111,21,194)" stroke="rgb(111,21,194)" stroke-width="1.51"></path><path d="M1827,1277L1993,1172L1736,1143Z" fill="rgb(245,101,173)" stroke="rgb(245,101,173)" stroke-width="1.51"></path><path d="M1578,1343L1878,1327L1827,1277Z" fill="rgb(242,99,173)" stroke="rgb(242,99,173)" stroke-width="1.51"></path><path d="M1939,-83L1767,-132L1778,56Z" fill="rgb(175,56,185)" stroke="rgb(175,56,185)" stroke-width="1.51"></path><path d="M1619,-148L1801,-213L1421,-240Z" fill="rgb(166,50,187)" stroke="rgb(166,50,187)" stroke-width="1.51"></path><path d="M2159,596L2047,425L1878,545Z" fill="rgb(213,79,179)" stroke="rgb(213,79,179)" stroke-width="1.51"></path><path d="M2159,596L1878,545L1970,715Z" fill="rgb(219,83,178)" stroke="rgb(219,83,178)" stroke-width="1.51"></path><path d="M1878,1327L1993,1172L1827,1277Z" fill="rgb(247,103,172)" stroke="rgb(247,103,172)" stroke-width="1.51"></path><path d="M1974,1001L2108,857L1948,913Z" fill="rgb(238,96,174)" stroke="rgb(238,96,174)" stroke-width="1.51"></path><path d="M-28,-90L-167,-87L-17,61Z" fill="rgb(89,10,196)" stroke="rgb(89,10,196)" stroke-width="1.51"></path><path d="M-144,-216L-167,-87L-28,-90Z" fill="rgb(89,10,196)" stroke="rgb(89,10,196)" stroke-width="1.51"></path><path d="M2047,425L2044,286L1935,326Z" fill="rgb(201,72,181)" stroke="rgb(201,72,181)" stroke-width="1.51"></path><path d="M1938,184L1983,126L1858,191Z" fill="rgb(190,65,183)" stroke="rgb(190,65,183)" stroke-width="1.51"></path><path d="M1993,1172L2054,1032L1974,1001Z" fill="rgb(247,103,172)" stroke="rgb(247,103,172)" stroke-width="1.51"></path><path d="M2044,286L1983,126L1938,184Z" fill="rgb(191,66,183)" stroke="rgb(191,66,183)" stroke-width="1.51"></path><path d="M2054,1032L2108,857L1974,1001Z" fill="rgb(240,98,174)" stroke="rgb(240,98,174)" stroke-width="1.51"></path><path d="M2047,425L2159,596L2044,286Z" fill="rgb(207,76,180)" stroke="rgb(207,76,180)" stroke-width="1.51"></path><path d="M132,-221L-28,-269L-28,-90Z" fill="rgb(91,11,196)" stroke="rgb(91,11,196)" stroke-width="1.51"></path><path d="M775,-242L-28,-269L132,-221Z" fill="rgb(106,18,195)" stroke="rgb(106,18,195)" stroke-width="1.51"></path><path d="M1421,-240L-28,-269L775,-242Z" fill="rgb(128,30,192)" stroke="rgb(128,30,192)" stroke-width="1.51"></path><path d="M2108,857L2128,706L1970,715Z" fill="rgb(227,89,176)" stroke="rgb(227,89,176)" stroke-width="1.51"></path><path d="M1939,-83L1801,-213L1767,-132Z" fill="rgb(175,56,185)" stroke="rgb(175,56,185)" stroke-width="1.51"></path><path d="M1767,-132L1801,-213L1619,-148Z" fill="rgb(171,53,186)" stroke="rgb(171,53,186)" stroke-width="1.51"></path><path d="M2108,857L2159,596L2128,706Z" fill="rgb(225,88,177)" stroke="rgb(225,88,177)" stroke-width="1.51"></path><path d="M2128,706L2159,596L1970,715Z" fill="rgb(222,86,177)" stroke="rgb(222,86,177)" stroke-width="1.51"></path><path d="M-28,-269L-144,-216L-28,-90Z" fill="rgb(89,10,196)" stroke="rgb(89,10,196)" stroke-width="1.51"></path><path d="M-167,-87L-144,-216L-225,110Z" fill="rgb(89,10,196)" stroke="rgb(89,10,196)" stroke-width="1.51"></path><path d="M1983,126L1939,-83L1778,56Z" fill="rgb(180,58,184)" stroke="rgb(180,58,184)" stroke-width="1.51"></path><path d="M2062,-107L1939,-83L1983,126Z" fill="rgb(178,58,185)" stroke="rgb(178,58,185)" stroke-width="1.51"></path><path d="M2144,44L1983,126L2044,286Z" fill="rgb(188,64,183)" stroke="rgb(188,64,183)" stroke-width="1.51"></path><path d="M2108,857L2125,1121L2159,596Z" fill="rgb(234,93,175)" stroke="rgb(234,93,175)" stroke-width="1.51"></path><path d="M2054,1032L2125,1121L2108,857Z" fill="rgb(243,100,173)" stroke="rgb(243,100,173)" stroke-width="1.51"></path><path d="M1993,1172L2125,1121L2054,1032Z" fill="rgb(247,103,172)" stroke="rgb(247,103,172)" stroke-width="1.51"></path><path d="M2154,1257L2125,1121L1993,1172Z" fill="rgb(247,103,172)" stroke="rgb(247,103,172)" stroke-width="1.51"></path><path d="M1939,-83L1884,-241L1801,-213Z" fill="rgb(176,57,185)" stroke="rgb(176,57,185)" stroke-width="1.51"></path><path d="M1801,-213L1884,-241L1421,-240Z" fill="rgb(170,53,186)" stroke="rgb(170,53,186)" stroke-width="1.51"></path><path d="M1421,-240L1884,-241L-28,-269Z" fill="rgb(145,38,190)" stroke="rgb(145,38,190)" stroke-width="1.51"></path><path d="M1878,1327L2154,1257L1993,1172Z" fill="rgb(247,103,172)" stroke="rgb(247,103,172)" stroke-width="1.51"></path><path d="M2125,1121L2154,1257L2159,596Z" fill="rgb(242,99,173)" stroke="rgb(242,99,173)" stroke-width="1.51"></path><path d="M1939,-83L2015,-223L1884,-241Z" fill="rgb(178,58,185)" stroke="rgb(178,58,185)" stroke-width="1.51"></path><path d="M2159,596L2144,44L2044,286Z" fill="rgb(199,71,182)" stroke="rgb(199,71,182)" stroke-width="1.51"></path><path d="M2144,44L2062,-107L1983,126Z" fill="rgb(180,59,185)" stroke="rgb(180,59,185)" stroke-width="1.51"></path><path d="M2144,44L2015,-223L2062,-107Z" fill="rgb(178,58,185)" stroke="rgb(178,58,185)" stroke-width="1.51"></path><path d="M2062,-107L2015,-223L1939,-83Z" fill="rgb(178,58,185)" stroke="rgb(178,58,185)" stroke-width="1.51"></path></svg>