<svg xmlns="http://www.w3.org/2000/svg" viewBox="0 0 85.929 7.493" height="28.32" width="324.772"><g style="line-height:1.25;-inkscape-font-specification:'Zilla Slab Semi-Bold';text-align:center" aria-label="FortunateRicefield" font-weight="600" font-size="10.583" font-family="Zilla Slab" text-anchor="middle" fill="#f7f7f7" stroke-width=".635" paint-order="stroke fill markers"><path style="-inkscape-font-specification:'Zilla Slab Semi-Bold';text-align:center" d="M5.313 2.572l-1.006.095-.211-1.154H1.968v2.212h2.985v.995H1.968v1.662h1.154v1.005H0V6.382h.794V1.513H0V.508h5.101zM10.582 5.016q0 1.112-.71 1.8-.698.677-1.82.677-1.09 0-1.756-.656-.656-.656-.656-1.778 0-1.037.624-1.778.624-.752 1.852-.752 1.238 0 1.852.741.614.741.614 1.746zm-1.175-.031q0-.762-.37-1.164-.36-.403-.942-.403-.603 0-.942.434-.339.424-.339 1.143 0 .678.318 1.143.328.466.963.466.614 0 .963-.445.35-.455.35-1.174zM14.07 2.561q.476 0 .889.265l.2 1.481-.878.106-.18-.815q-.211-.106-.36-.106-.296 0-.518.244-.212.243-.212.677V6.52h.942v.868H11.17V6.52h.709V3.514h-.741v-.879h1.789v.89q.127-.403.402-.678.285-.286.74-.286zM19.59 5.99q-.201 1.503-1.672 1.503-.762 0-1.218-.402-.444-.402-.444-1.122V3.471h-.699v-.836h.699v-1.47h1.132v1.47h1.768v.836h-1.768V5.79q0 .751.657.751.18 0 .402-.127.222-.137.307-.687zM25.502 7.387H23.63v-.794q-.466.89-1.566.89-.678 0-1.175-.403-.487-.413-.487-1.302V3.503h-.709v-.868h1.842v2.73q0 .678.243.964.243.275.688.275.529 0 .836-.37.317-.37.328-.879V3.503h-.847v-.868h1.98V6.52h.74zM31.748 7.387h-2.54V6.52h.699V4.657q0-.678-.244-.953-.243-.286-.677-.286-.54 0-.857.35-.307.349-.318.857v1.894h.71v.868H25.97V6.52h.709V3.514h-.741v-.879h1.873v.773q.498-.868 1.577-.868.678 0 1.164.413.487.412.487 1.29V6.52h.71zM32.637 2.984q.529-.254.941-.349.413-.095.953-.095.794 0 1.302.402.518.402.518 1.207v2.137q0 .424.35.424.095 0 .243-.043l.01.625q-.349.201-.761.201-.9 0-.974-.942V6.53q-.212.37-.603.667-.381.296-.953.296-.497 0-.984-.296-.476-.307-.476-1.059 0-.878.698-1.153.699-.286 1.514-.286.2 0 .412.01.212.011.392.032v-.264q0-.424-.148-.762-.148-.339-.741-.339-.222 0-.423.032-.19.032-.37.127l-.191.73-.91-.095zm2.582 2.52v-.17l-.37-.042q-.191-.022-.392-.022-.423 0-.762.149-.328.148-.328.592 0 .646.688.646.402 0 .762-.286.36-.296.402-.868zM41.252 5.99q-.2 1.503-1.672 1.503-.762 0-1.217-.402-.444-.402-.444-1.122V3.471h-.699v-.836h.699v-1.47h1.132v1.47h1.767v.836h-1.767V5.79q0 .751.656.751.18 0 .402-.127.223-.137.307-.687zM46.011 5.937q-.063.625-.613 1.09-.55.466-1.514.466-1.037 0-1.704-.603-.667-.614-.667-1.8 0-1.09.604-1.82.614-.73 1.704-.73.984 0 1.555.593.582.582.593 1.481 0 .297-.063.635h-3.207q.095 1.334 1.27 1.334.55 0 .783-.265.243-.264.317-.56zm-1.206-1.386q.042-.424-.201-.794-.233-.38-.794-.38-.508 0-.773.338-.264.338-.328.836zM52.698 7.387H51.09l-1.418-2.72h-1.133v1.715h.804v1.005h-2.772V6.382h.793V1.513h-.793V.508h3.058q1.28 0 1.916.54.635.529.635 1.492 0 .688-.37 1.185-.36.487-1.006.699l1.048 1.958h.846zm-1.767-4.815q0-.582-.339-.815-.338-.244-1.153-.244h-.9v2.212h.89q.846 0 1.174-.296.328-.307.328-.857zM53.819 1.651V.402h1.153v1.249zm1.894 5.736h-2.54V6.52h.71V3.514h-.752v-.879h1.873V6.52h.71zM60.634 5.683q-.074.635-.56 1.228-.488.582-1.567.582-1.016 0-1.662-.614-.635-.614-.635-1.788 0-1.154.656-1.853.667-.698 1.736-.698.423 0 .847.106.423.106.836.35l.19 1.333-.91.095-.159-.783q-.391-.19-.825-.19-1.185 0-1.185 1.587 0 1.545 1.217 1.545.889 0 1.069-1.08zM65.648 5.937q-.063.625-.613 1.09-.55.466-1.514.466-1.037 0-1.704-.603-.667-.614-.667-1.8 0-1.09.604-1.82.614-.73 1.704-.73.984 0 1.555.593.582.582.593 1.481 0 .297-.063.635h-3.207q.095 1.334 1.27 1.334.55 0 .783-.265.243-.264.317-.56zm-1.206-1.386q.042-.424-.201-.794-.233-.38-.794-.38-.508 0-.773.338-.264.338-.328.836zM70.099 6.52V3.513h-2.053v3.005h.9v.868h-2.731V6.52h.709V3.514h-.625v-.879h.625v-.751q0-.805.592-1.344.593-.54 1.63-.54.424 0 .89.106.465.106.857.338l.2 1.218-.888.105-.19-.72q-.096-.052-.329-.116-.233-.063-.56-.063-.594 0-.837.275t-.243.72v.772h3.185V6.52h.699v.868h-2.54V6.52zM76.914 5.937q-.064.625-.614 1.09-.55.466-1.513.466-1.038 0-1.704-.603-.667-.614-.667-1.8 0-1.09.603-1.82.614-.73 1.704-.73.984 0 1.556.593.582.582.592 1.481 0 .297-.063.635h-3.207q.096 1.334 1.27 1.334.55 0 .783-.265.244-.264.318-.56zm-1.207-1.386q.043-.424-.2-.794-.234-.38-.795-.38-.508 0-.772.338-.265.338-.328.836zM79.935 7.387h-2.54V6.52h.71V.974h-.752V.106h1.873v6.413h.71zM85.93 7.387h-1.832v-.91q-.211.413-.613.72-.392.296-1.038.296-.931 0-1.481-.635-.54-.635-.54-1.746 0-1.016.508-1.789.519-.783 1.62-.783.56 0 .941.233.392.222.603.603V.974h-1.026V.106h2.159v6.413h.698zm-1.832-2.286v-.36q-.01-.592-.36-.942-.349-.349-.857-.349-.571 0-.931.434-.35.423-.35 1.164 0 .752.35 1.143.36.392.857.392.582 0 .932-.476.349-.477.36-1.006z"/></g></svg>